<svg width="1903" height="1105" viewBox="0 0 1903 1105" fill="none" xmlns="http://www.w3.org/2000/svg">
<mask id="mask0_520_493" style="mask-type:alpha" maskUnits="userSpaceOnUse" x="0" y="0" width="1903" height="1105">
<rect width="1903" height="1105" fill="#D9D9D9"/>
</mask>
<g mask="url(#mask0_520_493)">
<path d="M1674.17 74.5835C1674.17 74.5835 1625.6 183.618 1614.71 221.28C1612.42 229.199 1606.81 235.711 1599.12 239.192L1565.3 254.502C1557.98 257.807 1549.67 258.061 1542.16 255.187C1505.77 241.225 1394.63 212.559 1394.63 212.559C1387.08 209.039 1379.82 218.542 1385.9 223.978L1560.8 380.53L1690.93 550.75C1695.41 555.697 1704.09 551.708 1703.02 545.216L1655.05 387.432C1655.54 387.159 1655.46 387.198 1655.95 386.924L1764.4 502.197C1769.81 507.672 1779.14 502.236 1776.7 495.02L1712.21 310.701L1688.7 75.1702C1687.88 67.4854 1676.32 67.0355 1674.17 74.5835ZM1681.49 260.036C1682.58 262.324 1683.21 264.69 1683.42 267.056C1683.7 270.166 1683.27 273.274 1682.19 276.168L1667.31 323.705C1667.21 323.979 1667.02 324.174 1666.76 324.272C1666.53 324.39 1666.23 324.409 1665.96 324.311C1665.96 324.311 1616.21 311.053 1606.05 294.178C1600 284.147 1605.71 271.026 1616.61 266.098C1624.58 262.481 1633.7 263.986 1639.97 269.227C1639.89 261.19 1644.57 253.446 1652.57 249.829C1663.46 244.901 1676.44 249.477 1681.49 260.036Z" fill="#E60064" fill-opacity="0.05"/>
<path d="M1606.71 108.295C1591.67 66.1557 1545.37 44.0202 1503.29 58.8815C1495.33 61.6973 1488.11 65.6277 1481.72 70.4381C1448.69 47.1685 1406.36 26.4605 1390.87 58.8815C1364.08 114.983 1295.19 179.277 1295.19 179.277C1295.19 179.277 1347.28 206.946 1401.51 134.4C1420.59 108.882 1441.54 97.7945 1460.66 94.1379C1449.05 114.005 1445.96 138.683 1454.32 162.109C1469.36 204.248 1515.67 226.384 1557.75 211.522C1599.83 196.661 1621.75 150.435 1606.71 108.295Z" fill="#E60064" fill-opacity="0.05"/>
<path d="M1910.19 48.0289C1897.56 48.0289 1885.3 49.5541 1873.53 52.3895L1870.73 48.5959L1871.07 7.21917C1872.06 7.25827 1873.06 7.37551 1874.08 7.37551C1918.78 7.37551 1955.01 -28.8586 1955.01 -73.5597C1955.01 -118.261 1918.78 -154.495 1874.08 -154.495C1829.38 -154.495 1793.14 -118.261 1793.14 -73.5597C1793.14 -43.4852 1809.59 -17.2824 1833.93 -3.34019C1811.82 21.8066 1788.04 51.9398 1787.53 65.8624C1787.35 70.927 1794.34 78.7291 1805.66 88.0173C1773.59 116.723 1753.39 158.432 1753.39 204.874C1753.39 291.48 1823.59 361.68 1910.19 361.68C1996.8 361.68 2067 291.48 2067 204.874C2067.02 118.229 1996.8 48.0289 1910.19 48.0289ZM1910.19 290.776C1862.72 290.776 1824.25 252.293 1824.25 204.835C1824.25 172.785 1841.83 144.881 1867.86 130.098C1895.96 147.189 1925.72 163.869 1946.9 175.425C1953.84 179.219 1961.07 170.908 1956.38 164.533L1923.51 120.008C1964.65 126.402 1996.17 161.893 1996.17 204.835C1996.15 252.293 1957.67 290.776 1910.19 290.776Z" fill="#E60064" fill-opacity="0.05"/>
<path d="M1405.97 313.732C1390.68 312.168 1374.97 311.073 1359.43 314.378C1355.58 315.121 1351.68 315.649 1347.89 316.626L1336.86 320.909C1329.57 323.822 1322.08 326.267 1316.06 331.39C1303.25 338.801 1293.1 348.832 1284.75 360.037C1255.71 320.85 1251 277.381 1251 277.381C1359.41 241.108 1433.28 292.281 1475.66 339.877C1454.62 327.381 1431.41 317.663 1405.97 313.732Z" fill="#E60064" fill-opacity="0.05"/>
<path d="M1327.85 353.506C1351.24 344.002 1376.05 341.421 1401.16 345.449C1426.42 348.656 1451.37 358.57 1476.11 369.423C1487.29 374.546 1519.03 403.408 1519.03 403.408C1398.64 442.028 1331.97 412.716 1295.21 372.689C1305.48 364.632 1316.04 357.769 1327.85 353.506Z" fill="#E60064" fill-opacity="0.05"/>
<path d="M1337.2 468.935C1329.75 476.111 1322.33 483.698 1317.27 493.143C1315.98 495.45 1314.55 497.679 1313.4 500.045L1310.8 507.574C1309.12 512.599 1307.1 517.507 1307.12 522.846C1305.34 532.662 1306.08 542.244 1308.2 551.415C1275.4 549.264 1251.02 532.74 1251.02 532.74C1279.59 461.23 1338.08 445.548 1381 444.511C1365.37 449.889 1350.28 457.593 1337.2 468.935Z" fill="#E60064" fill-opacity="0.05"/>
<path d="M1323.59 526.424C1328.88 510.273 1338.37 496.389 1351.37 485.243C1364.02 473.667 1379.98 465.141 1396.35 457.163C1403.84 453.643 1432.5 449.908 1432.5 449.908C1399.91 528.614 1355.81 550.085 1319.22 551.552C1319.56 542.752 1320.63 534.344 1323.59 526.424Z" fill="#E60064" fill-opacity="0.05"/>
<path d="M1489.56 7.21928C1496.58 5.69404 1503.74 3.89508 1510.17 0.160209C1511.78 -0.739288 1513.44 -1.52145 1514.98 -2.51872L1519.27 -6.03858C1522.08 -8.40465 1525.07 -10.5753 1526.99 -13.7431C1531.6 -18.9054 1534.67 -24.8499 1536.75 -31.0486C1555.38 -17.8494 1563.79 0.805415 1563.79 0.805415C1520.85 32.718 1480.53 20.7117 1454.76 5.71356C1465.94 8.23606 1477.67 9.1747 1489.56 7.21928Z" fill="#E60064" fill-opacity="0.05"/>
<path d="M1858.73 457.808C1858.9 466.96 1858.79 476.326 1856.07 485.399C1855.44 487.648 1854.93 489.936 1854.17 492.126L1851.08 498.462C1848.99 502.646 1847.17 506.968 1843.85 510.292C1838.82 517.527 1832.37 523.061 1825.31 527.48C1847.15 546.643 1872.71 551.551 1872.71 551.551C1899.54 488.997 1872.79 442.654 1846.62 415.18C1853.02 428.262 1857.63 442.517 1858.73 457.808Z" fill="#E60064" fill-opacity="0.05"/>
<path d="M1831.29 502.216C1838.08 488.802 1840.82 474.214 1839.66 459.099C1839 443.944 1834.34 428.653 1829.1 413.459C1826.62 406.576 1811.03 386.318 1811.03 386.318C1782.21 455.872 1796.37 496.858 1818.31 520.636C1823.59 514.946 1828.18 509.021 1831.29 502.216Z" fill="#E60064" fill-opacity="0.05"/>
<path d="M1524.99 503.741C1539.11 503.741 1550.55 492.299 1550.55 478.184C1550.55 464.069 1539.11 452.626 1524.99 452.626C1510.88 452.626 1499.44 464.069 1499.44 478.184C1499.44 492.299 1510.88 503.741 1524.99 503.741Z" fill="#E60064" fill-opacity="0.05"/>
<path d="M1630 77.184C1644.12 77.184 1655.56 65.7417 1655.56 51.6267C1655.56 37.5117 1644.12 26.0693 1630 26.0693C1615.89 26.0693 1604.44 37.5117 1604.44 51.6267C1604.44 65.7417 1615.89 77.184 1630 77.184Z" fill="#E60064" fill-opacity="0.05"/>
<path d="M225.086 780.838C266.555 780.838 300.172 747.221 300.172 705.752C300.172 664.283 266.555 630.666 225.086 630.666C183.617 630.666 150 664.283 150 705.752C150 747.221 183.617 780.838 225.086 780.838Z" fill="#E60064" fill-opacity="0.05"/>
<path d="M67.9464 908.673L70.9405 705.843C70.7772 698.077 81.9185 696.19 84.9669 703.448C84.9669 703.448 137.153 773.562 151.579 808.583C154.337 815.278 159.817 820.45 166.712 822.645L204.963 834.821C211.405 836.872 218.354 836.146 224.234 832.825C256.079 814.788 363.137 771.076 363.137 771.076C369.996 766.612 378.253 775.195 373.045 781.383L223.562 959.444L119.171 1145.58C115.469 1151.08 106.542 1148.18 106.741 1141.57L133.089 978.207C132.617 977.971 132.635 977.971 132.163 977.735L101.842 1006.99C95.7633 1012.85 87.0537 1015.06 78.9064 1012.81C67.8558 1009.76 60.543 999.292 61.4865 987.878L67.9464 908.673Z" fill="#E60064" fill-opacity="0.05"/>
<path d="M82.6419 1044.17C82.9797 1035.45 76.1826 1028.1 67.46 1027.76C58.7374 1027.42 51.3926 1034.22 51.0548 1042.94C50.717 1051.67 57.5141 1059.01 66.2367 1059.35C74.9593 1059.69 82.3041 1052.89 82.6419 1044.17Z" fill="#E60064" fill-opacity="0.05"/>
<path d="M48.5126 1124.19C60.0874 1124.19 69.4705 1114.8 69.4705 1103.23C69.4705 1091.65 60.0874 1082.27 48.5126 1082.27C36.9378 1082.27 27.5544 1091.65 27.5544 1103.23C27.5544 1114.8 36.9378 1124.19 48.5126 1124.19Z" fill="#E60064" fill-opacity="0.05"/>
<path d="M-119.298 681.238C-131.02 681.238 -142.397 682.653 -153.32 685.284L-155.915 681.764L-155.607 643.368C-154.681 643.404 -153.756 643.513 -152.812 643.513C-111.332 643.513 -77.7082 609.889 -77.7082 568.409C-77.7082 526.928 -111.332 493.305 -152.812 493.305C-194.293 493.305 -227.917 526.928 -227.917 568.409C-227.917 596.317 -212.656 620.632 -190.065 633.569C-210.588 656.905 -232.653 684.867 -233.124 697.786C-233.288 702.486 -226.81 709.726 -216.303 718.345C-246.062 744.983 -264.806 783.687 -264.806 826.783C-264.806 907.149 -199.664 972.291 -119.298 972.291C-38.9313 972.291 26.2111 907.149 26.2111 826.783C26.2292 746.38 -38.9313 681.238 -119.298 681.238ZM-119.298 906.496C-163.355 906.496 -199.047 870.785 -199.047 826.746C-199.047 797.006 -182.734 771.112 -158.583 757.394C-132.507 773.253 -104.89 788.732 -85.2386 799.456C-78.7969 802.976 -72.0831 795.264 -76.4381 789.348L-106.941 748.031C-68.7624 753.965 -39.5118 786.899 -39.5118 826.746C-39.53 870.785 -75.2404 906.496 -119.298 906.496Z" fill="#E60064" fill-opacity="0.05"/>
<path d="M292.442 1032.72C282.771 1043.19 273.19 1054.22 266.984 1067.61C265.387 1070.89 263.609 1074.07 262.23 1077.41L259.254 1087.99C257.349 1095.03 254.99 1101.94 255.443 1109.27C253.792 1122.9 255.589 1136.04 259.236 1148.47C213.963 1148.16 179.105 1127.42 179.105 1127.42C212.62 1026.76 291.771 1000.49 350.689 995.59C329.677 1004.25 309.535 1016.04 292.442 1032.72Z" fill="#E60064" fill-opacity="0.05"/>
<path d="M278.397 1112.85C284.385 1090.2 296.307 1070.35 313.273 1053.96C329.731 1037.02 350.998 1024.02 372.845 1011.72C382.861 1006.28 421.983 998.82 421.983 998.82C383.514 1109.67 324.614 1142.79 274.424 1147.74C274.17 1135.66 274.968 1123.99 278.397 1112.85Z" fill="#E60064" fill-opacity="0.05"/>
<path d="M457.076 905.008C450.417 898.094 443.376 891.217 434.612 886.518C432.471 885.32 430.402 883.996 428.207 882.925L421.221 880.511C416.557 878.951 412.003 877.082 407.049 877.1C397.94 875.449 389.049 876.138 380.539 878.098C382.535 847.668 397.867 825.041 397.867 825.041C464.225 851.551 478.778 905.824 479.74 945.654C474.768 931.174 467.619 917.165 457.076 905.008Z" fill="#E60064" fill-opacity="0.05"/>
<path d="M403.746 892.397C418.735 897.314 431.618 906.115 441.961 918.181C452.703 929.922 460.614 944.728 468.018 959.916C471.284 966.866 474.75 993.467 474.75 993.467C401.714 963.219 381.79 922.301 380.429 888.35C388.577 888.659 396.397 889.657 403.746 892.397Z" fill="#E60064" fill-opacity="0.05"/>
<path d="M-11.6944 1073C-22.2732 1078.97 -33.2876 1084.76 -45.5902 1087.3C-48.6205 1087.99 -51.5964 1088.84 -54.6448 1089.33L-63.9896 1089.73C-70.1953 1089.93 -76.4011 1090.55 -82.3709 1088.73C-94.0022 1087.44 -104.527 1083.4 -114.126 1077.93C-122.708 1115.51 -112.329 1148.47 -112.329 1148.47C-22.3638 1140.32 14.8706 1079.86 30.4394 1031.97C19.1711 1047.7 5.45313 1062.09 -11.6944 1073Z" fill="#E60064" fill-opacity="0.05"/>
<path d="M-80.8648 1069.01C-60.9229 1068.46 -42.1604 1062.46 -25.2488 1051.59C-7.99248 1041.24 6.94117 1026.17 21.385 1010.47C27.8448 1003.23 41.6717 972.255 41.6717 972.255C-57.7111 982.489 -96.6514 1024.86 -110.569 1065.49C-100.589 1068.06 -90.7541 1069.68 -80.8648 1069.01Z" fill="#E60064" fill-opacity="0.05"/>
<path d="M316.321 956.468C329.419 956.468 340.037 945.85 340.037 932.752C340.037 919.654 329.419 909.036 316.321 909.036C303.223 909.036 292.605 919.654 292.605 932.752C292.605 945.85 303.223 956.468 316.321 956.468Z" fill="#E60064" fill-opacity="0.05"/>
<path d="M361.014 723.825C374.112 723.825 384.73 713.207 384.73 700.109C384.73 687.011 374.112 676.393 361.014 676.393C347.916 676.393 337.298 687.011 337.298 700.109C337.298 713.207 347.916 723.825 361.014 723.825Z" fill="#E60064" fill-opacity="0.05"/>
<path d="M43.3226 497.097C36.0099 474.579 23.3807 455.744 20.6952 431.447C8.61029 439.503 0.29971 446.108 1.24328 462.076C-13.1642 453.639 -24.6323 475.377 -18.3721 486.809C-39.6931 493.704 -52.1045 513.591 -33.5235 531.047C-45.3363 542.606 -36.4087 555.925 -24.5053 563.074C-32.6708 566.812 -39.5658 572.582 -43.576 581.909C-51.0882 599.474 -37.8239 609.182 -21.3659 611.595C9.55398 616.114 41.5262 563.092 41.5262 563.038C41.7984 562.729 42.0706 562.439 42.3065 562.076C53.5204 545.6 48.9114 514.299 43.3226 497.097Z" fill="#E60064" fill-opacity="0.05"/>
<path d="M121.022 545.292C145.228 541.898 168.418 545.092 192.188 536.618C190.174 551.461 187.797 562.167 172.555 568.518C186.89 578.062 171.92 598.549 158.456 597.913C161.704 620.813 148.857 641.317 124.252 631.973C118.862 648.158 102.459 645.89 90.4648 638.088C90.6825 647.36 88.4506 656.378 81.5916 664.308C68.6902 679.223 53.6837 671.312 44.0122 657.122C25.8485 630.466 60.5972 576.828 60.6516 576.792C60.815 576.411 60.9602 576.03 61.1961 575.631C71.412 557.739 102.531 547.868 121.022 545.292Z" fill="#E60064" fill-opacity="0.05"/>
<path d="M118.717 518.309C113.146 518.636 107.612 519.761 102.332 521.594C97.1238 523.699 92.0794 526.057 86.9079 528.217C81.7727 530.467 76.8735 533.443 72.7182 537.344C70.9218 538.995 69.3431 540.9 67.9278 542.896C67.4016 542.515 66.8389 542.189 66.2401 541.935C67.2381 539.848 68.0911 537.707 68.6536 535.475C70.0871 529.995 70.3231 524.334 69.8331 518.817C69.2162 513.319 68.8532 507.839 68.1818 502.341C67.2383 496.897 65.5325 491.599 63.101 486.664C63.0829 486.627 63.0285 486.591 62.9923 486.609C62.9378 486.627 62.9015 486.663 62.9196 486.736C64.0446 492.143 65.2966 497.424 66.5305 502.704C68.0366 507.93 69.0527 513.392 68.7261 518.872C68.4902 524.334 67.8734 529.759 66.6395 535.003C66.1133 537.18 65.4238 539.303 64.6254 541.39C60.0164 540.32 55.1714 542.842 53.5201 547.415C52.2318 550.971 53.2661 554.745 55.7883 557.159C51.4334 559.953 43.5946 565.796 37.9332 574.705C29.7496 587.625 29.4231 601.96 29.4231 601.96C29.4231 601.96 42.3427 595.373 50.5445 582.472C56.1333 573.653 58.0749 564.163 58.7281 559.028C58.8914 559.082 59.0184 559.173 59.1817 559.227C64.0447 560.879 69.4158 558.265 71.1577 553.384C72.3735 549.973 71.4842 546.398 69.1979 543.985C70.7402 542.171 72.3735 540.465 74.1336 538.85C78.1801 535.221 82.68 532.045 87.416 529.178C92.1338 526.221 97.4505 524.442 102.822 523.172C108.12 521.648 113.4 520.142 118.753 518.491C118.808 518.472 118.826 518.436 118.826 518.382C118.826 518.346 118.771 518.309 118.717 518.309Z" fill="#E60064" fill-opacity="0.05"/>
<path d="M479.74 607.295C479.74 623.1 462.628 632.989 448.929 625.077L-125.63 293.414L-700.189 625.077C-713.889 632.989 -731 623.1 -731 607.295C-731 599.964 -727.081 593.178 -720.73 589.512L-125.63 246L469.469 589.512C475.838 593.178 479.74 599.946 479.74 607.295Z" fill="#E60064" fill-opacity="0.05"/>
</g>
</svg>
