<svg width="1903" height="867" viewBox="0 0 1903 867" fill="none" xmlns="http://www.w3.org/2000/svg">
<mask id="mask0_966_102" style="mask-type:alpha" maskUnits="userSpaceOnUse" x="0" y="0" width="1903" height="867">
<rect width="1903" height="867" fill="#D9D9D9"/>
</mask>
<g mask="url(#mask0_966_102)">
<path d="M1800.95 517.238C1800.95 517.238 1763.19 602.655 1754.73 632.159C1752.95 638.363 1748.59 643.464 1742.61 646.191L1716.32 658.186C1710.63 660.774 1704.17 660.974 1698.33 658.722C1670.05 647.784 1583.65 625.327 1583.65 625.327C1577.78 622.57 1572.14 630.015 1576.87 634.273L1712.82 756.915L1813.98 890.264C1817.46 894.14 1824.21 891.015 1823.37 885.929L1786.09 762.322C1786.47 762.108 1786.4 762.138 1786.78 761.924L1871.09 852.228C1875.3 856.517 1882.55 852.258 1880.65 846.606L1830.52 702.212L1812.25 517.698C1811.61 511.678 1802.62 511.325 1800.95 517.238ZM1806.64 662.521C1807.49 664.313 1807.97 666.167 1808.14 668.02C1808.35 670.456 1808.02 672.891 1807.18 675.159L1795.62 712.399C1795.54 712.613 1795.39 712.766 1795.19 712.843C1795.01 712.935 1794.78 712.95 1794.57 712.873C1794.57 712.873 1755.9 702.487 1747.99 689.267C1743.3 681.409 1747.73 671.13 1756.2 667.27C1762.4 664.436 1769.49 665.615 1774.37 669.721C1774.3 663.425 1777.94 657.358 1784.15 654.524C1792.62 650.664 1802.71 654.249 1806.64 662.521Z" fill="#2F52A0" fill-opacity="0.05"/>
<path d="M1748.51 543.647C1736.82 510.635 1700.82 493.294 1668.11 504.936C1661.93 507.142 1656.32 510.221 1651.35 513.99C1625.67 495.761 1592.77 479.538 1580.73 504.936C1559.9 548.886 1506.35 599.254 1506.35 599.254C1506.35 599.254 1546.85 620.93 1589 564.097C1603.83 544.106 1620.11 535.421 1634.98 532.556C1625.95 548.12 1623.55 567.452 1630.05 585.804C1641.74 618.816 1677.74 636.157 1710.45 624.514C1743.16 612.872 1760.2 576.659 1748.51 543.647Z" fill="#2F52A0" fill-opacity="0.05"/>
<path d="M1984.42 496.434C1974.6 496.434 1965.07 497.629 1955.92 499.85L1953.75 496.878L1954 464.464C1954.78 464.495 1955.55 464.587 1956.34 464.587C1991.09 464.587 2019.26 436.201 2019.26 401.182C2019.26 366.164 1991.09 337.778 1956.34 337.778C1921.6 337.778 1893.43 366.164 1893.43 401.182C1893.43 424.743 1906.21 445.27 1925.14 456.192C1907.95 475.892 1889.46 499.498 1889.07 510.405C1888.93 514.373 1894.36 520.485 1903.16 527.761C1878.23 550.249 1862.53 582.924 1862.53 619.306C1862.53 687.152 1917.1 742.146 1984.42 742.146C2051.74 742.146 2106.31 687.152 2106.31 619.306C2106.33 551.428 2051.74 496.434 1984.42 496.434ZM1984.42 686.601C1947.51 686.601 1917.61 656.453 1917.61 619.275C1917.61 594.168 1931.28 572.308 1951.51 560.727C1973.35 574.115 1996.49 587.182 2012.95 596.236C2018.35 599.208 2023.97 592.697 2020.32 587.703L1994.77 552.822C2026.75 557.832 2051.26 585.635 2051.26 619.275C2051.24 656.453 2021.33 686.601 1984.42 686.601Z" fill="#2F52A0" fill-opacity="0.05"/>
<path d="M1795.98 365.015C1803.96 358.459 1812.35 352.009 1822.26 348.118C1824.69 347.107 1827.06 345.958 1829.54 345.101L1837.29 343.416C1842.45 342.359 1847.54 340.949 1852.8 341.608C1862.69 341.026 1872.07 342.925 1880.87 346.142C1882.7 313.253 1869.32 286.997 1869.32 286.997C1795.29 306.773 1772.78 363.054 1766.61 405.625C1773.79 390.75 1783.19 376.657 1795.98 365.015Z" fill="#2F52A0" fill-opacity="0.05"/>
<path d="M1854.35 358.443C1837.75 361.767 1822.93 369.518 1810.35 381.099C1797.39 392.282 1787.07 407.141 1777.22 422.429C1772.85 429.46 1765.72 457.524 1765.72 457.524C1847.33 434.623 1873.82 393.339 1879.67 357.125C1870.98 356.421 1862.53 356.467 1854.35 358.443Z" fill="#2F52A0" fill-opacity="0.05"/>
<path d="M1592.46 704.585C1580.58 703.36 1568.37 702.502 1556.29 705.09C1553.29 705.673 1550.27 706.086 1547.32 706.852L1538.74 710.207C1533.07 712.489 1527.25 714.404 1522.57 718.418C1512.62 724.223 1504.73 732.082 1498.24 740.86C1475.66 710.161 1472 676.107 1472 676.107C1556.27 647.691 1613.7 687.78 1646.64 725.066C1630.28 715.277 1612.24 707.664 1592.46 704.585Z" fill="#2F52A0" fill-opacity="0.05"/>
<path d="M1531.74 735.743C1549.92 728.298 1569.21 726.276 1588.72 729.432C1608.36 731.944 1627.76 739.711 1646.99 748.213C1655.68 752.226 1680.35 774.837 1680.35 774.837C1586.76 805.091 1534.94 782.128 1506.37 750.771C1514.35 744.46 1522.56 739.083 1531.74 735.743Z" fill="#2F52A0" fill-opacity="0.05"/>
<path d="M1539 826.17C1533.21 831.792 1527.45 837.735 1523.51 845.134C1522.51 846.942 1521.4 848.688 1520.5 850.542L1518.48 856.439C1517.18 860.376 1515.61 864.221 1515.62 868.403C1514.24 876.093 1514.82 883.599 1516.46 890.784C1490.97 889.099 1472.02 876.155 1472.02 876.155C1494.22 820.134 1539.69 807.849 1573.05 807.037C1560.91 811.249 1549.17 817.285 1539 826.17Z" fill="#2F52A0" fill-opacity="0.05"/>
<path d="M1528.43 871.207C1532.54 858.554 1539.92 847.677 1550.03 838.945C1559.86 829.877 1572.26 823.198 1584.99 816.948C1590.81 814.19 1613.09 811.265 1613.09 811.265C1587.75 872.922 1553.48 889.742 1525.04 890.891C1525.29 883.998 1526.13 877.411 1528.43 871.207Z" fill="#2F52A0" fill-opacity="0.05"/>
<path d="M1657.44 464.465C1662.9 463.27 1668.46 461.861 1673.46 458.935C1674.71 458.23 1676 457.618 1677.2 456.836L1680.53 454.079C1682.72 452.225 1685.05 450.525 1686.54 448.043C1690.12 443.999 1692.51 439.342 1694.12 434.486C1708.61 444.826 1715.14 459.441 1715.14 459.441C1681.76 484.441 1650.42 475.035 1630.39 463.286C1639.08 465.262 1648.2 465.997 1657.44 464.465Z" fill="#2F52A0" fill-opacity="0.05"/>
<path d="M1679.96 441.701C1672.95 447.676 1664.65 451.413 1655.51 452.869C1646.41 454.63 1636.67 454.017 1626.88 453.068C1622.44 452.562 1608.18 446.113 1608.18 446.113C1645.45 418.922 1671.81 421.542 1689.06 431.285C1686.43 435.267 1683.56 438.867 1679.96 441.701Z" fill="#2F52A0" fill-opacity="0.05"/>
<path d="M1923.09 852.242C1928.36 841.733 1930.49 830.305 1929.59 818.464C1929.07 806.592 1925.46 794.613 1921.38 782.71C1919.45 777.318 1907.34 761.448 1907.34 761.448C1884.93 815.936 1895.94 848.044 1912.99 866.672C1917.1 862.214 1920.67 857.572 1923.09 852.242Z" fill="#2F52A0" fill-opacity="0.05"/>
<path d="M1684.99 853.437C1695.96 853.437 1704.85 844.473 1704.85 833.415C1704.85 822.358 1695.96 813.394 1684.99 813.394C1674.02 813.394 1665.12 822.358 1665.12 833.415C1665.12 844.473 1674.02 853.437 1684.99 853.437Z" fill="#2F52A0" fill-opacity="0.05"/>
<path d="M1766.61 519.274C1777.59 519.274 1786.48 510.311 1786.48 499.253C1786.48 488.195 1777.59 479.231 1766.61 479.231C1755.64 479.231 1746.75 488.195 1746.75 499.253C1746.75 510.311 1755.64 519.274 1766.61 519.274Z" fill="#2F52A0" fill-opacity="0.05"/>
<path d="M2486.23 434.011C2486.23 447.353 2471.89 455.702 2460.42 449.023L1979.11 169.028L1497.81 449.023C1486.33 455.702 1472 447.353 1472 434.011C1472 427.822 1475.28 422.093 1480.6 418.998L1979.11 129L2477.62 418.998C2482.96 422.093 2486.23 427.807 2486.23 434.011Z" fill="#2F52A0" fill-opacity="0.05"/>
</g>
</svg>
