<svg width="1550" height="3578" viewBox="0 0 1550 3578" fill="none" xmlns="http://www.w3.org/2000/svg">
<mask id="mask0_718_278" style="mask-type:luminance" maskUnits="userSpaceOnUse" x="0" y="0" width="1550" height="3578">
<path d="M1549.09 0.819946H0.540039V3577.04H1549.09V0.819946Z" fill="white"/>
</mask>
<g mask="url(#mask0_718_278)">
<path d="M702.32 1670.22C724.59 1670.21 746.359 1663.6 764.872 1651.22C783.385 1638.84 797.813 1621.25 806.33 1600.68C814.847 1580.1 817.071 1557.46 812.721 1535.62C808.372 1513.77 797.644 1493.71 781.893 1477.97C766.143 1462.22 746.078 1451.5 724.234 1447.16C702.391 1442.82 679.751 1445.05 659.177 1453.58C638.602 1462.1 621.017 1476.53 608.645 1495.05C596.273 1513.57 589.67 1535.34 589.67 1557.61C589.671 1572.4 592.586 1587.05 598.248 1600.71C603.911 1614.38 612.209 1626.79 622.67 1637.25C633.131 1647.71 645.549 1656 659.215 1661.66C672.882 1667.31 687.529 1670.22 702.32 1670.22Z" fill="#2F52A0" fill-opacity="0.04"/>
<path d="M466.57 1861.94L471.09 1557.78C470.85 1546.13 487.56 1543.3 492.09 1554.19C492.09 1554.19 570.38 1659.34 592.03 1711.86C594.04 1716.82 597.115 1721.28 601.037 1724.93C604.96 1728.57 609.634 1731.31 614.73 1732.95L672.09 1751.18C676.857 1752.7 681.887 1753.22 686.864 1752.7C691.84 1752.19 696.657 1750.65 701.01 1748.18C748.77 1721.13 909.38 1655.57 909.38 1655.57C919.68 1648.88 932.05 1661.75 924.24 1671.03L699.99 1938.03L543.39 2217.19C537.83 2225.44 524.39 2221.08 524.74 2211.19L564.27 1966.19L562.88 1965.49L517.39 2009.35C512.159 2014.38 505.523 2017.7 498.362 2018.88C491.2 2020.05 483.85 2019.02 477.288 2015.92C470.725 2012.82 465.259 2007.8 461.615 2001.53C457.97 1995.25 456.319 1988.02 456.88 1980.78L466.57 1861.94Z" fill="#2F52A0" fill-opacity="0.04"/>
<path d="M488.62 2065.15C488.802 2060.46 487.591 2055.83 485.139 2051.83C482.687 2047.83 479.105 2044.65 474.846 2042.69C470.586 2040.73 465.84 2040.08 461.209 2040.81C456.577 2041.55 452.268 2043.64 448.826 2046.82C445.384 2050.01 442.963 2054.14 441.87 2058.7C440.778 2063.26 441.062 2068.05 442.688 2072.45C444.313 2076.84 447.206 2080.66 451.002 2083.42C454.797 2086.17 459.324 2087.74 464.01 2087.92C470.293 2088.16 476.415 2085.9 481.03 2081.63C485.645 2077.36 488.376 2071.43 488.62 2065.15Z" fill="#2F52A0" fill-opacity="0.04"/>
<path d="M437.42 2185.15C443.636 2185.15 449.711 2183.3 454.879 2179.85C460.046 2176.39 464.073 2171.48 466.45 2165.74C468.828 2160 469.449 2153.68 468.235 2147.58C467.021 2141.49 464.027 2135.89 459.631 2131.49C455.235 2127.1 449.635 2124.11 443.538 2122.89C437.441 2121.68 431.122 2122.3 425.38 2124.68C419.637 2127.06 414.729 2131.09 411.276 2136.26C407.823 2141.43 405.98 2147.5 405.98 2153.72C405.983 2162.06 409.296 2170.05 415.192 2175.95C421.088 2181.84 429.083 2185.15 437.42 2185.15Z" fill="#2F52A0" fill-opacity="0.04"/>
<path d="M-142.91 1557.78C-142.91 1557.78 -210.53 1709.52 -225.69 1761.94C-227.28 1767.42 -230.044 1772.49 -233.792 1776.8C-237.539 1781.1 -242.18 1784.54 -247.39 1786.87L-294.48 1808.17C-299.516 1810.46 -304.956 1811.72 -310.485 1811.9C-316.014 1812.07 -321.522 1811.14 -326.69 1809.17C-377.35 1789.74 -532.07 1749.84 -532.07 1749.84C-542.58 1744.94 -552.68 1758.17 -544.22 1765.73L-300.74 1983.6L-119.58 2220.5C-113.35 2227.38 -101.26 2221.83 -102.76 2212.8L-169.54 1993.21L-168.28 1992.5L-17.2802 2152.93C-9.74015 2160.55 3.2399 2152.93 -0.160095 2142.93L-89.9101 1886.4L-122.63 1558.62C-123.81 1547.92 -139.91 1547.3 -142.91 1557.78ZM-132.73 1815.87C-131.261 1818.94 -130.35 1822.25 -130.04 1825.64C-129.665 1829.94 -130.249 1834.28 -131.75 1838.33L-152.47 1904.48C-152.533 1904.66 -152.633 1904.82 -152.764 1904.96C-152.895 1905.09 -153.054 1905.2 -153.23 1905.27C-153.403 1905.35 -153.592 1905.4 -153.784 1905.41C-153.976 1905.42 -154.169 1905.4 -154.35 1905.33C-154.35 1905.33 -223.6 1886.87 -237.75 1863.39C-246.17 1849.39 -238.22 1831.17 -223.05 1824.31C-217.763 1821.92 -211.912 1821.06 -206.161 1821.83C-200.41 1822.6 -194.991 1824.97 -190.52 1828.67C-190.541 1822.95 -188.894 1817.35 -185.781 1812.56C-182.667 1807.76 -178.222 1803.98 -172.99 1801.67C-157.81 1794.83 -139.74 1801.2 -132.71 1815.89L-132.73 1815.87Z" fill="#2F52A0" fill-opacity="0.04"/>
<path d="M185.67 1520.85C168.49 1520.85 151.371 1522.89 134.67 1526.92L130.78 1521.64L131.24 1464.05C132.63 1464.11 134.02 1464.27 135.43 1464.27C162.834 1464.31 189.318 1454.38 209.939 1436.34C230.559 1418.29 243.907 1393.35 247.492 1366.18C251.077 1339.01 244.652 1311.47 229.419 1288.69C214.185 1265.91 191.182 1249.45 164.705 1242.38C138.227 1235.32 110.083 1238.13 85.5255 1250.29C60.9683 1262.46 41.6759 1283.14 31.2491 1308.48C20.8224 1333.83 19.9737 1362.1 28.8616 1388.02C37.7494 1413.94 55.7665 1435.75 79.5499 1449.36C48.7599 1484.36 15.6599 1526.29 14.9499 1545.67C14.6999 1552.67 24.4199 1563.57 40.1799 1576.5C17.2652 1596.94 -1.06459 1622 -13.6048 1650.03C-26.145 1678.06 -32.6118 1708.42 -32.5801 1739.13C-32.5801 1859.66 65.1499 1957.35 185.71 1957.35C306.27 1957.35 404 1859.66 404 1739.13C404 1618.6 306.24 1520.85 185.67 1520.85Z" fill="#2F52A0" fill-opacity="0.04"/>
<path d="M185.67 1858.68C159.252 1858.7 133.572 1849.97 112.64 1833.85C91.7081 1817.74 76.7043 1795.14 69.9723 1769.59C63.2404 1744.05 65.1594 1716.99 75.4296 1692.65C85.6999 1668.31 103.743 1648.06 126.74 1635.06C165.85 1658.85 207.28 1682.06 236.74 1698.14C246.41 1703.42 256.48 1691.86 249.95 1682.98L204.19 1620.98C233.956 1625.61 260.877 1641.31 279.568 1664.93C298.259 1688.55 307.341 1718.36 304.998 1748.4C302.655 1778.43 289.06 1806.47 266.932 1826.91C244.803 1847.35 215.774 1858.68 185.65 1858.64L185.67 1858.68Z" fill="#2F52A0" fill-opacity="0.04"/>
<path d="M-151.79 1287.38C-137.5 1275.74 -122.48 1264.28 -104.73 1257.38C-100.37 1255.58 -96.1301 1253.54 -91.7301 1252.02L-77.8501 1249.02C-68.6201 1247.14 -59.5001 1244.64 -50.0801 1245.81C-32.3601 1244.81 -15.5601 1248.15 0.199921 1253.87C3.49992 1195.43 -20.4501 1148.78 -20.4501 1148.78C-153.02 1183.91 -193.34 1283.89 -204.39 1359.52C-191.54 1333.1 -174.69 1308.07 -151.79 1287.38Z" fill="#2F52A0" fill-opacity="0.04"/>
<path d="M803.36 2047.97C788.85 2063.67 774.47 2080.22 765.17 2100.3C762.78 2105.23 760.1 2109.99 758.03 2115L753.57 2130.86C750.71 2141.42 747.17 2151.79 747.85 2162.79C745.37 2183.22 748.07 2202.92 753.55 2221.57C685.63 2221.1 633.33 2190 633.33 2190C683.61 2039.05 802.33 1999.64 890.74 1992.29C859.22 2005.27 829 2022.96 803.36 2047.97Z" fill="#2F52A0" fill-opacity="0.04"/>
<path d="M782.29 2168.15C791.29 2134.15 809.16 2104.41 834.61 2079.84C859.29 2054.42 891.2 2034.94 923.98 2016.49C938.98 2008.32 997.69 1997.14 997.69 1997.14C939.98 2163.38 851.62 2213.05 776.32 2220.48C775.94 2202.35 777.14 2184.85 782.29 2168.15Z" fill="#2F52A0" fill-opacity="0.04"/>
<path d="M1050.34 1856.44C1040.34 1846.07 1029.78 1835.76 1016.64 1828.71C1013.42 1826.92 1010.32 1824.93 1007.03 1823.33L996.55 1819.71C989.55 1817.36 982.71 1814.56 975.29 1814.59C961.62 1812.11 948.29 1813.15 935.52 1816.09C938.52 1770.45 961.52 1736.51 961.52 1736.51C1061.07 1776.27 1082.9 1857.67 1084.35 1917.4C1076.88 1895.69 1066.16 1874.68 1050.34 1856.44Z" fill="#2F52A0" fill-opacity="0.04"/>
<path d="M970.34 1837.53C992.655 1844.87 1012.5 1858.26 1027.66 1876.2C1043.77 1893.81 1055.66 1916.01 1066.75 1938.79C1071.66 1949.21 1076.85 1989.11 1076.85 1989.11C967.29 1943.78 937.4 1882.38 935.35 1831.46C947.58 1831.92 959.31 1833.42 970.34 1837.53Z" fill="#2F52A0" fill-opacity="0.04"/>
<path d="M114.02 2091.13C114.27 2103.87 114.11 2116.9 110.32 2129.53C109.45 2132.66 108.74 2135.84 107.68 2138.89L103.38 2147.71C100.47 2153.53 97.9399 2159.55 93.3099 2164.17C86.3099 2174.24 77.3099 2181.94 67.4999 2188.09C97.9099 2214.76 133.5 2221.59 133.5 2221.59C170.84 2134.59 133.61 2070.04 97.1799 2031.81C106.09 2050.01 112.5 2069.85 114.02 2091.13Z" fill="#2F52A0" fill-opacity="0.04"/>
<path d="M75.8299 2152.93C85.1893 2134.39 89.2222 2113.62 87.4799 2092.93C86.5599 2071.84 80.0799 2050.56 72.7799 2029.41C69.3299 2019.83 47.6299 1991.64 47.6299 1991.64C7.50991 2088.44 27.2099 2145.48 57.7599 2178.57C65.0899 2170.65 71.4999 2162.4 75.8299 2152.93Z" fill="#2F52A0" fill-opacity="0.04"/>
<path d="M347.09 2108.39C331.22 2117.34 314.7 2126.02 296.25 2129.83C291.7 2130.83 287.25 2132.14 282.66 2132.83L268.66 2133.43C259.35 2133.73 250.04 2134.65 241.09 2131.93C223.64 2130 207.85 2123.93 193.45 2115.74C180.57 2172.1 196.14 2221.52 196.14 2221.52C331.14 2209.3 386.97 2118.62 410.32 2046.81C393.4 2070.45 372.82 2092.03 347.09 2108.39Z" fill="#2F52A0" fill-opacity="0.04"/>
<path d="M243.33 2102.4C273.24 2101.58 301.39 2092.57 326.76 2076.27C352.65 2060.76 375.05 2038.15 396.76 2014.61C406.45 2003.75 427.19 1957.3 427.19 1957.3C278.1 1972.64 219.68 2036.19 198.8 2097.12C213.74 2100.98 228.49 2103.41 243.33 2102.4Z" fill="#2F52A0" fill-opacity="0.04"/>
<path d="M839.17 1933.62C846.205 1933.62 853.084 1931.54 858.934 1927.63C864.785 1923.72 869.346 1918.17 872.039 1911.67C874.733 1905.17 875.439 1898.02 874.068 1891.12C872.696 1884.22 869.309 1877.88 864.335 1872.9C859.361 1867.93 853.023 1864.54 846.123 1863.16C839.223 1861.79 832.07 1862.49 825.57 1865.19C819.07 1867.88 813.514 1872.44 809.605 1878.29C805.696 1884.14 803.61 1891.01 803.61 1898.05C803.61 1907.48 807.356 1916.53 814.025 1923.2C820.693 1929.87 829.738 1933.62 839.17 1933.62Z" fill="#2F52A0" fill-opacity="0.04"/>
<path d="M906.23 1584.72C913.265 1584.72 920.141 1582.63 925.989 1578.72C931.837 1574.81 936.395 1569.25 939.085 1562.76C941.776 1556.26 942.479 1549.1 941.105 1542.2C939.732 1535.31 936.343 1528.97 931.368 1523.99C926.393 1519.02 920.055 1515.63 913.156 1514.26C906.256 1512.89 899.105 1513.6 892.606 1516.29C886.107 1518.98 880.552 1523.54 876.644 1529.39C872.736 1535.24 870.65 1542.12 870.65 1549.15C870.653 1558.58 874.402 1567.63 881.075 1574.3C887.747 1580.97 896.795 1584.72 906.23 1584.72Z" fill="#2F52A0" fill-opacity="0.04"/>
<path d="M176.17 1203.4C183.205 1203.4 190.081 1201.31 195.929 1197.4C201.777 1193.49 206.335 1187.93 209.025 1181.44C211.716 1174.94 212.419 1167.78 211.045 1160.88C209.672 1153.99 206.283 1147.65 201.308 1142.67C196.333 1137.7 189.995 1134.31 183.096 1132.94C176.196 1131.57 169.045 1132.28 162.546 1134.97C156.047 1137.66 150.492 1142.22 146.584 1148.07C142.676 1153.92 140.59 1160.8 140.59 1167.83C140.59 1172.5 141.51 1177.13 143.299 1181.44C145.087 1185.76 147.708 1189.68 151.012 1192.99C154.316 1196.29 158.238 1198.91 162.555 1200.7C166.872 1202.48 171.498 1203.4 176.17 1203.4Z" fill="#2F52A0" fill-opacity="0.04"/>
<path d="M429.63 1244.69C418.63 1210.91 399.71 1182.69 395.69 1146.23C377.56 1158.31 365.09 1168.23 366.5 1192.16C344.89 1179.51 327.69 1212.11 337.08 1229.26C305.08 1239.6 286.47 1269.42 314.35 1295.6C296.63 1312.94 310.02 1332.91 327.88 1343.6C315.63 1349.21 305.28 1357.86 299.27 1371.85C288 1398.19 307.9 1412.75 332.59 1416.37C378.97 1423.15 426.94 1343.63 426.94 1343.55C427.361 1343.1 427.752 1342.62 428.11 1342.11C444.93 1317.43 438.02 1270.48 429.63 1244.69Z" fill="#2F52A0" fill-opacity="0.04"/>
<path d="M546.19 1316.96C582.51 1311.88 617.3 1316.66 652.96 1303.96C649.96 1326.22 646.37 1342.27 623.5 1351.8C645.01 1366.11 622.55 1396.8 602.35 1395.88C607.22 1430.23 587.95 1460.98 551.04 1446.96C542.95 1471.24 518.35 1467.84 500.35 1456.13C500.68 1470.04 497.35 1483.56 487.04 1495.46C467.69 1517.83 445.17 1505.96 430.67 1484.68C403.42 1444.68 455.55 1364.26 455.67 1364.21C455.9 1363.61 456.171 1363.02 456.48 1362.46C471.77 1335.63 518.46 1320.83 546.19 1316.96Z" fill="#2F52A0" fill-opacity="0.04"/>
<path d="M542.74 1276.5C534.36 1277 526.089 1278.66 518.16 1281.42C510.34 1284.58 502.78 1288.12 495.02 1291.36C487.195 1294.67 479.995 1299.3 473.73 1305.04C471.053 1307.56 468.644 1310.35 466.54 1313.37C465.754 1312.8 464.905 1312.31 464.01 1311.93C465.539 1308.83 466.752 1305.58 467.63 1302.24C469.657 1294.07 470.256 1285.61 469.4 1277.24C468.48 1268.99 467.93 1260.78 466.92 1252.53C465.518 1244.37 462.952 1236.45 459.3 1229.02C459.3 1228.96 459.19 1228.91 459.14 1228.94C459.119 1228.94 459.099 1228.95 459.082 1228.96C459.064 1228.97 459.05 1228.99 459.039 1229.01C459.029 1229.03 459.022 1229.05 459.021 1229.07C459.019 1229.09 459.022 1229.11 459.03 1229.13C460.72 1237.24 462.6 1245.13 464.45 1253.07C466.71 1260.91 468.23 1269.07 467.74 1277.32C467.458 1285.46 466.41 1293.56 464.61 1301.51C463.818 1304.76 462.815 1307.96 461.61 1311.09C458.214 1310.31 454.648 1310.79 451.582 1312.45C448.515 1314.1 446.157 1316.82 444.95 1320.09C444.037 1322.59 443.873 1325.31 444.477 1327.9C445.08 1330.5 446.426 1332.86 448.35 1334.7C441.82 1338.89 430.06 1347.7 421.57 1361.02C409.29 1380.39 408.8 1401.89 408.8 1401.89C408.8 1401.89 428.18 1392.01 440.48 1372.66C448.87 1359.44 451.78 1345.21 452.76 1337.5C453.01 1337.59 453.2 1337.72 453.44 1337.8C456.99 1338.99 460.863 1338.73 464.229 1337.1C467.594 1335.46 470.183 1332.57 471.44 1329.04C472.306 1326.65 472.49 1324.06 471.971 1321.57C471.452 1319.08 470.25 1316.79 468.5 1314.94C470.806 1312.22 473.278 1309.65 475.9 1307.24C482.078 1301.8 488.75 1296.94 495.83 1292.74C502.91 1288.3 510.88 1285.64 518.94 1283.74C526.94 1281.45 534.81 1279.2 542.84 1276.74C542.874 1276.73 542.904 1276.71 542.924 1276.68C542.945 1276.65 542.954 1276.62 542.95 1276.58C542.9 1276.55 542.82 1276.5 542.74 1276.5Z" fill="#2F52A0" fill-opacity="0.04"/>
<path d="M1084.34 1409.95C1084.34 1415.36 1082.91 1420.67 1080.21 1425.35C1077.5 1430.04 1073.61 1433.92 1068.93 1436.63C1064.24 1439.33 1058.93 1440.75 1053.52 1440.75C1048.12 1440.75 1042.8 1439.32 1038.12 1436.62L176.17 939.21L-685.77 1436.62C-690.453 1439.33 -695.767 1440.75 -701.176 1440.76C-706.586 1440.76 -711.9 1439.34 -716.586 1436.63C-721.272 1433.93 -725.163 1430.04 -727.869 1425.36C-730.575 1420.67 -731.999 1415.36 -732 1409.95C-731.996 1404.54 -730.57 1399.23 -727.866 1394.55C-725.161 1389.87 -721.272 1385.98 -716.59 1383.28L176.17 868.11L1068.93 1383.28C1073.62 1385.98 1077.51 1389.86 1080.22 1394.54C1082.93 1399.23 1084.35 1404.54 1084.34 1409.95Z" fill="#2F52A0" fill-opacity="0.04"/>
<path d="M1300.48 176.09C1300.48 176.09 1267.04 251.09 1259.55 277.09C1258.76 279.801 1257.4 282.308 1255.54 284.437C1253.69 286.566 1251.4 288.266 1248.82 289.42L1225.53 299.95C1223.04 301.078 1220.35 301.701 1217.61 301.784C1214.88 301.866 1212.16 301.406 1209.6 300.43C1184.6 290.82 1108.03 271.09 1108.03 271.09C1102.83 268.66 1097.84 275.2 1102.03 278.95L1222.44 386.69L1312.02 503.78C1315.1 507.18 1321.08 504.43 1320.34 499.97L1287.34 391.37L1287.96 391.02L1362.62 470.36C1366.35 474.13 1372.77 470.36 1371.09 465.42L1326.69 338.56L1310.51 176.46C1309.92 171.2 1301.97 170.89 1300.48 176.09ZM1305.48 303.72C1306.31 305.444 1306.77 307.317 1306.86 309.226C1306.94 311.135 1306.63 313.041 1305.96 314.83L1295.72 347.54C1295.69 347.63 1295.64 347.712 1295.58 347.78C1295.51 347.847 1295.43 347.899 1295.34 347.93C1295.25 347.967 1295.16 347.986 1295.06 347.986C1294.97 347.986 1294.88 347.967 1294.79 347.93C1294.79 347.93 1260.54 338.81 1253.54 327.19C1249.38 320.29 1253.31 311.26 1260.81 307.87C1263.42 306.685 1266.32 306.259 1269.16 306.639C1272.01 307.019 1274.69 308.19 1276.9 310.02C1276.89 307.193 1277.7 304.423 1279.24 302.052C1280.78 299.681 1282.98 297.81 1285.57 296.67C1289.16 295.018 1293.25 294.83 1296.98 296.146C1300.7 297.463 1303.77 300.18 1305.52 303.72H1305.48Z" fill="#2F52A0" fill-opacity="0.04"/>
<path d="M1254.09 199.29C1249.13 185.362 1238.85 173.967 1225.51 167.595C1212.16 161.224 1196.84 160.395 1182.89 165.29C1177.56 167.167 1172.56 169.848 1168.04 173.24C1145.3 157.24 1116.16 142.98 1105.49 165.29C1087.05 203.9 1039.62 248.15 1039.62 248.15C1039.62 248.15 1075.49 267.15 1112.82 217.26C1125.96 199.7 1140.38 192.07 1153.54 189.55C1148.78 197.623 1146.12 206.766 1145.83 216.135C1145.54 225.505 1147.61 234.797 1151.86 243.152C1156.11 251.507 1162.4 258.656 1170.14 263.936C1177.89 269.217 1186.84 272.459 1196.17 273.363C1205.5 274.267 1214.91 272.803 1223.52 269.107C1232.13 265.411 1239.68 259.602 1245.45 252.218C1251.23 244.834 1255.04 236.112 1256.55 226.861C1258.06 217.61 1257.22 208.127 1254.09 199.29Z" fill="#2F52A0" fill-opacity="0.04"/>
<path d="M1462.97 157.78C1454.47 157.78 1446 158.787 1437.73 160.78L1435.81 158.17L1436.03 129.69C1436.72 129.69 1437.41 129.8 1438.11 129.8C1451.66 129.818 1464.75 124.906 1474.94 115.98C1485.13 107.055 1491.73 94.7261 1493.5 81.2948C1495.26 67.8634 1492.09 54.2474 1484.55 42.9876C1477.02 31.7279 1465.65 23.5938 1452.56 20.1035C1439.47 16.6131 1425.55 18.005 1413.42 24.0193C1401.28 30.0336 1391.74 40.2595 1386.59 52.7884C1381.43 65.3173 1381.02 79.2932 1385.41 92.1079C1389.81 104.923 1398.71 115.7 1410.47 122.43C1395.24 139.73 1378.87 160.43 1378.47 170.05C1378.35 173.54 1383.16 178.91 1390.95 185.3C1372.16 202.126 1359.85 225.004 1356.17 249.96C1352.49 274.915 1357.66 300.372 1370.8 321.908C1383.93 343.444 1404.2 359.7 1428.07 367.85C1451.94 376.001 1477.92 375.533 1501.48 366.527C1525.04 357.52 1544.71 340.545 1557.06 318.549C1569.4 296.554 1573.66 270.927 1569.08 246.12C1564.5 221.314 1551.38 198.894 1531.99 182.757C1512.6 166.619 1488.18 157.781 1462.95 157.78H1462.97Z" fill="#2F52A0" fill-opacity="0.04"/>
<path d="M1462.97 324.88C1449.9 324.892 1437.2 320.575 1426.85 312.604C1416.5 304.634 1409.08 293.458 1405.75 280.824C1402.42 268.189 1403.37 254.808 1408.45 242.771C1413.53 230.733 1422.45 220.718 1433.83 214.29C1453.17 226.06 1473.66 237.54 1488.24 245.49C1489.26 246.047 1490.44 246.24 1491.58 246.036C1492.72 245.832 1493.76 245.243 1494.52 244.367C1495.28 243.492 1495.72 242.382 1495.77 241.222C1495.81 240.062 1495.46 238.922 1494.77 237.99L1472.14 207.35C1486.85 209.651 1500.15 217.417 1509.39 229.098C1518.62 240.779 1523.1 255.514 1521.95 270.359C1520.79 285.203 1514.07 299.064 1503.14 309.172C1492.2 319.279 1477.86 324.889 1462.97 324.88Z" fill="#2F52A0" fill-opacity="0.04"/>
<path d="M1296.09 42.35C1303.16 36.59 1310.59 30.93 1319.37 27.51C1321.52 26.62 1323.62 25.61 1325.82 24.86L1332.68 23.38C1337.25 22.45 1341.76 21.21 1346.41 21.79C1354.89 21.4098 1363.35 22.7712 1371.28 25.79C1372.1 7.88725 1368.61 -9.9505 1361.09 -26.22C1295.53 -8.83997 1275.59 40.6 1270.09 78C1276.43 64.96 1284.76 52.58 1296.09 42.35Z" fill="#2F52A0" fill-opacity="0.04"/>
<path d="M1347.78 36.58C1333.19 39.4887 1319.7 46.376 1308.78 56.48C1297.31 66.31 1288.17 79.36 1279.45 92.79C1275.57 98.97 1269.26 123.63 1269.26 123.63C1341.54 103.51 1365 67.24 1370.18 35.42C1362.5 34.78 1355.02 34.84 1347.78 36.58Z" fill="#2F52A0" fill-opacity="0.04"/>
<path d="M1115.84 340.68C1105.31 339.6 1094.5 338.85 1083.84 341.12C1081.19 341.63 1078.51 342 1075.84 342.67L1068.25 345.62C1063.25 347.62 1058.07 349.31 1053.93 352.83C1045.47 357.856 1038.14 364.569 1032.38 372.55C1012.38 345.55 1009.14 315.66 1009.14 315.66C1083.77 290.66 1134.63 325.92 1163.81 358.66C1149.33 350.07 1133.35 343.38 1115.84 340.68Z" fill="#2F52A0" fill-opacity="0.04"/>
<path d="M1062.09 368.05C1078.08 361.575 1095.55 359.657 1112.56 362.51C1129.95 364.72 1147.13 371.51 1164.16 379.01C1171.86 382.53 1193.71 402.4 1193.71 402.4C1110.82 428.98 1064.93 408.8 1039.62 381.26C1046.66 375.71 1053.93 370.99 1062.09 368.05Z" fill="#2F52A0" fill-opacity="0.04"/>
<path d="M1068.49 447.5C1063.36 452.44 1058.26 457.66 1054.77 464.16C1053.88 465.75 1052.9 467.28 1052.11 468.91L1050.32 474.09C1049.16 477.55 1047.77 480.93 1047.79 484.6C1046.68 491.135 1046.93 497.827 1048.53 504.26C1034.57 503.191 1021.07 498.784 1009.16 491.41C1028.83 442.19 1069.1 431.41 1098.65 430.69C1087.61 434.301 1077.37 440.009 1068.49 447.5Z" fill="#2F52A0" fill-opacity="0.04"/>
<path d="M1059.09 487.06C1062.73 476.027 1069.35 466.218 1078.22 458.72C1086.93 450.72 1097.92 444.89 1109.22 439.39C1114.38 436.97 1134.12 434.39 1134.12 434.39C1111.67 488.56 1081.32 503.34 1056.12 504.39C1056.18 498.492 1057.18 492.64 1059.09 487.06Z" fill="#2F52A0" fill-opacity="0.04"/>
<path d="M1173.39 129.72C1178.22 128.67 1183.15 127.44 1187.58 124.86C1188.68 124.25 1189.83 123.71 1190.89 123.02L1193.89 120.6C1195.83 118.97 1197.89 117.48 1199.2 115.3C1202.23 111.833 1204.52 107.779 1205.92 103.39C1213.8 109.095 1220.18 116.614 1224.54 125.31C1194.98 147.31 1167.22 139.01 1149.48 128.69C1157.31 130.572 1165.43 130.921 1173.39 129.72Z" fill="#2F52A0" fill-opacity="0.04"/>
<path d="M1193.33 109.72C1187.16 114.93 1179.67 118.329 1171.68 119.54C1163.61 121.08 1154.99 120.54 1146.32 119.71C1142.39 119.27 1129.76 113.6 1129.76 113.6C1162.76 89.71 1186.11 92.01 1201.39 100.6C1199.21 104.053 1196.49 107.133 1193.33 109.72Z" fill="#2F52A0" fill-opacity="0.04"/>
<path d="M1427.54 439.84C1427.66 446.14 1427.54 452.58 1425.71 458.84C1425.28 460.39 1424.93 461.96 1424.4 463.47L1422.28 467.83C1420.84 470.71 1419.58 473.68 1417.28 475.97C1413.88 480.733 1409.54 484.752 1404.53 487.78C1413.92 495.839 1425.12 501.522 1437.17 504.35C1455.64 461.29 1437.22 429.4 1419.17 410.49C1423.83 419.642 1426.67 429.609 1427.54 439.84Z" fill="#2F52A0" fill-opacity="0.04"/>
<path d="M1408.65 470.4C1413.28 461.233 1415.27 450.962 1414.41 440.73C1413.96 430.3 1410.75 419.73 1407.15 409.32C1405.43 404.58 1394.71 390.64 1394.71 390.64C1374.86 438.51 1384.61 466.71 1399.71 483.08C1403.35 479.362 1406.37 475.08 1408.65 470.4Z" fill="#2F52A0" fill-opacity="0.04"/>
<path d="M1542.8 448.37C1534.95 452.8 1526.8 457.09 1517.66 458.98C1515.41 459.49 1513.2 460.12 1510.94 460.48L1504.01 460.78C1499.4 460.93 1494.8 461.39 1490.37 460.04C1482.05 459.017 1474.03 456.294 1466.81 452.04C1463.06 469.332 1463.51 487.271 1468.14 504.35C1534.89 498.35 1562.51 453.47 1574.06 417.95C1565.7 429.61 1555.52 440.28 1542.8 448.37Z" fill="#2F52A0" fill-opacity="0.04"/>
<path d="M1491.49 445.41C1506.17 444.993 1520.45 440.521 1532.75 432.49C1545.55 424.82 1556.63 413.64 1567.34 401.99C1572.14 396.62 1582.4 373.65 1582.4 373.65C1508.66 381.24 1479.77 412.65 1469.4 442.8C1476.85 444.71 1484.15 445.91 1491.49 445.41Z" fill="#2F52A0" fill-opacity="0.04"/>
<path d="M1197.78 471.45C1201.26 471.45 1204.66 470.418 1207.55 468.486C1210.45 466.553 1212.7 463.806 1214.03 460.591C1215.36 457.377 1215.71 453.841 1215.03 450.428C1214.35 447.016 1212.68 443.882 1210.22 441.422C1207.76 438.962 1204.62 437.287 1201.21 436.608C1197.8 435.929 1194.26 436.278 1191.05 437.609C1187.83 438.94 1185.09 441.195 1183.15 444.088C1181.22 446.98 1180.19 450.381 1180.19 453.86C1180.19 458.525 1182.04 462.999 1185.34 466.298C1188.64 469.597 1193.11 471.45 1197.78 471.45Z" fill="#2F52A0" fill-opacity="0.04"/>
<path d="M1270.09 177.88C1273.57 177.88 1276.97 176.848 1279.86 174.916C1282.76 172.983 1285.01 170.236 1286.34 167.021C1287.67 163.807 1288.02 160.27 1287.34 156.858C1286.66 153.446 1284.99 150.312 1282.53 147.852C1280.07 145.392 1276.93 143.717 1273.52 143.038C1270.11 142.359 1266.57 142.708 1263.36 144.039C1260.14 145.37 1257.4 147.625 1255.46 150.517C1253.53 153.41 1252.5 156.811 1252.5 160.29C1252.5 164.954 1254.36 169.427 1257.65 172.725C1260.95 176.023 1265.43 177.877 1270.09 177.88Z" fill="#2F52A0" fill-opacity="0.04"/>
<path d="M1583.62 21.24C1578.19 4.54005 1568.83 -9.42995 1566.83 -27.45C1557.83 -21.45 1551.7 -16.58 1552.4 -4.73995C1541.71 -11 1533.2 5.13005 1537.85 13.61C1522.03 18.72 1512.85 33.47 1526.61 46.42C1517.84 54.99 1524.47 64.87 1533.3 70.17C1527.24 72.94 1522.13 77.17 1519.15 84.17C1513.58 97.17 1523.42 104.4 1535.63 106.17C1558.57 109.52 1582.29 70.17 1582.29 70.17C1582.5 69.9485 1582.7 69.7112 1582.87 69.4601C1591.19 57.2101 1587.77 34 1583.62 21.24Z" fill="#2F52A0" fill-opacity="0.04"/>
<path d="M1907.4 102.97C1907.4 105.644 1906.69 108.271 1905.36 110.587C1904.02 112.903 1902.09 114.825 1899.78 116.162C1897.46 117.499 1894.83 118.202 1892.16 118.202C1889.48 118.201 1886.86 117.497 1884.54 116.16L1458.27 -129.84L1032.01 116.16C1030.28 117.161 1028.37 117.81 1026.38 118.072C1024.4 118.334 1022.38 118.202 1020.45 117.685C1018.52 117.168 1016.71 116.275 1015.12 115.058C1013.53 113.84 1012.2 112.322 1011.2 110.59C1010.2 108.858 1009.55 106.946 1009.29 104.962C1009.03 102.979 1009.16 100.964 1009.68 99.0314C1010.19 97.099 1011.09 95.2874 1012.3 93.7001C1013.52 92.1127 1015.04 90.7807 1016.77 89.78L1458.27 -165L1899.78 89.78C1902.1 91.113 1904.02 93.0347 1905.36 95.3508C1906.7 97.6669 1907.4 100.295 1907.4 102.97Z" fill="#2F52A0" fill-opacity="0.04"/>
</g>
</svg>
