<svg width="560" height="308" viewBox="0 0 560 308" fill="none" xmlns="http://www.w3.org/2000/svg">
<mask id="mask0_955_208" style="mask-type:alpha" maskUnits="userSpaceOnUse" x="0" y="0" width="560" height="308">
<rect width="560" height="308" rx="15" fill="#2F52A0"/>
<rect width="560" height="308" rx="15" fill="black" fill-opacity="0.2"/>
</mask>
<g mask="url(#mask0_955_208)">
<path d="M507.871 50.33C507.871 50.33 496.752 75.484 494.258 84.1725C493.735 85.9995 492.45 87.5017 490.691 88.3047L482.947 91.8368C481.273 92.5992 479.37 92.6579 477.651 91.9947C469.321 88.7738 443.878 82.1605 443.878 82.1605C442.15 81.3485 440.489 83.5409 441.882 84.795L481.917 120.911L511.707 160.18C512.732 161.322 514.719 160.401 514.473 158.904L503.493 122.503C503.605 122.44 503.587 122.449 503.699 122.386L528.524 148.979C529.764 150.242 531.899 148.988 531.34 147.324L516.577 104.802L511.196 50.4654C511.008 48.6925 508.363 48.5887 507.871 50.33ZM509.545 93.1135C509.795 93.6413 509.939 94.1872 509.988 94.733C510.051 95.4503 509.952 96.1675 509.706 96.8351L506.299 107.802C506.277 107.865 506.232 107.91 506.174 107.933C506.12 107.96 506.053 107.964 505.991 107.942C505.991 107.942 494.603 104.883 492.275 100.99C490.892 98.6757 492.199 95.6488 494.693 94.512C496.519 93.6774 498.605 94.0248 500.042 95.2337C500.024 93.3797 501.094 91.5932 502.924 90.7587C505.418 89.6219 508.39 90.6775 509.545 93.1135Z" fill="#2F52A0" fill-opacity="0.4"/>
<path d="M492.428 58.107C488.985 48.3855 478.386 43.2789 468.753 46.7074C466.931 47.357 465.279 48.2637 463.815 49.3735C456.255 44.0052 446.564 39.228 443.019 46.7074C436.886 59.6498 421.116 74.4824 421.116 74.4824C421.116 74.4824 433.041 80.8656 445.454 64.1293C449.822 58.2423 454.617 55.6845 458.994 54.841C456.335 59.4243 455.628 65.1173 457.544 70.5216C460.986 80.2431 471.586 85.3497 481.219 81.9212C490.852 78.4928 495.87 67.8285 492.428 58.107Z" fill="#2F52A0" fill-opacity="0.4"/>
<path d="M561.899 44.2036C559.007 44.2036 556.201 44.5555 553.506 45.2096L552.866 44.3344L552.942 34.7889C553.17 34.798 553.399 34.825 553.631 34.825C563.864 34.825 572.159 26.4659 572.159 16.1535C572.159 5.84105 563.864 -2.51807 553.631 -2.51807C543.399 -2.51807 535.104 5.84105 535.104 16.1535C535.104 23.0916 538.869 29.1365 544.442 32.3529C539.379 38.1542 533.936 45.1059 533.819 48.3178C533.779 49.4862 535.377 51.2861 537.969 53.4289C530.628 60.0512 526.004 69.6734 526.004 80.3873C526.004 100.367 542.074 116.562 561.899 116.562C581.724 116.562 597.794 100.367 597.794 80.3873C597.799 60.3985 581.724 44.2036 561.899 44.2036ZM561.899 100.205C551.031 100.205 542.226 91.3268 542.226 80.3783C542.226 72.9846 546.25 66.5472 552.208 63.1368C558.64 67.0795 565.453 70.9275 570.301 73.5936C571.89 74.4688 573.546 72.5515 572.472 71.0809L564.947 60.809C574.365 62.2842 581.581 70.4719 581.581 80.3783C581.577 91.3268 572.767 100.205 561.899 100.205Z" fill="#2F52A0" fill-opacity="0.4"/>
<path d="M506.407 5.50269C508.757 3.57193 511.228 1.67274 514.146 0.526914C514.863 0.22918 515.561 -0.109141 516.291 -0.361764L518.573 -0.857976C520.091 -1.16924 521.59 -1.58429 523.139 -1.39031C526.053 -1.56173 528.815 -1.00232 531.407 -0.0549832C531.944 -9.74036 528.005 -17.4724 528.005 -17.4724C506.205 -11.6486 499.576 4.92527 497.759 17.4617C499.872 13.0814 502.642 8.93114 506.407 5.50269Z" fill="#2F52A0" fill-opacity="0.4"/>
<path d="M523.596 3.56731C518.708 4.54623 514.344 6.82887 510.637 10.2393C506.824 13.5324 503.784 17.9082 500.884 22.4103C499.595 24.4809 497.495 32.7453 497.495 32.7453C521.528 26.0011 529.33 13.8437 531.054 3.17936C528.493 2.97185 526.004 2.98538 523.596 3.56731Z" fill="#2F52A0" fill-opacity="0.4"/>
<path d="M446.474 105.501C442.974 105.14 439.379 104.887 435.821 105.65C434.939 105.821 434.048 105.943 433.18 106.168L430.655 107.156C428.986 107.828 427.271 108.392 425.893 109.574C422.961 111.284 420.637 113.598 418.726 116.183C412.079 107.143 411 97.1145 411 97.1145C435.816 88.7464 452.728 100.552 462.428 111.532C457.611 108.65 452.298 106.407 446.474 105.501Z" fill="#2F52A0" fill-opacity="0.4"/>
<path d="M428.592 114.676C433.946 112.484 439.626 111.888 445.373 112.818C451.157 113.558 456.869 115.845 462.531 118.348C465.091 119.53 472.356 126.189 472.356 126.189C444.796 135.098 429.536 128.336 421.121 119.102C423.471 117.243 425.888 115.66 428.592 114.676Z" fill="#2F52A0" fill-opacity="0.4"/>
<path d="M430.731 141.306C429.025 142.961 427.329 144.711 426.169 146.89C425.874 147.423 425.547 147.937 425.283 148.483L424.688 150.22C424.303 151.379 423.842 152.511 423.846 153.743C423.439 156.007 423.609 158.218 424.093 160.333C416.586 159.837 411.004 156.025 411.004 156.025C417.544 139.528 430.932 135.91 440.758 135.671C437.181 136.912 433.725 138.689 430.731 141.306Z" fill="#2F52A0" fill-opacity="0.4"/>
<path d="M427.615 154.568C428.828 150.842 430.999 147.639 433.976 145.068C436.872 142.397 440.525 140.43 444.272 138.59C445.986 137.778 452.548 136.916 452.548 136.916C445.086 155.074 434.992 160.027 426.617 160.365C426.693 158.335 426.939 156.395 427.615 154.568Z" fill="#2F52A0" fill-opacity="0.4"/>
<path d="M465.61 34.7892C467.217 34.4374 468.856 34.0223 470.328 33.1607C470.695 32.9532 471.076 32.7728 471.429 32.5427L472.41 31.7307C473.054 31.1848 473.739 30.6841 474.178 29.9533C475.234 28.7623 475.937 27.391 476.412 25.9609C480.677 29.0059 482.602 33.3096 482.602 33.3096C472.772 40.6717 463.542 37.9019 457.643 34.4419C460.203 35.0238 462.889 35.2403 465.61 34.7892Z" fill="#2F52A0" fill-opacity="0.4"/>
<path d="M472.239 28.0856C470.176 29.845 467.732 30.9457 465.042 31.3742C462.36 31.893 459.491 31.7126 456.608 31.4329C455.301 31.284 451.103 29.3849 451.103 29.3849C462.078 21.3776 469.84 22.149 474.921 25.0181C474.146 26.191 473.3 27.2511 472.239 28.0856Z" fill="#2F52A0" fill-opacity="0.4"/>
<path d="M550.118 138.738C550.158 140.849 550.131 143.01 549.509 145.103C549.366 145.622 549.249 146.15 549.075 146.655L548.367 148.117C547.888 149.082 547.472 150.079 546.711 150.846C545.561 152.515 544.084 153.792 542.468 154.811C547.468 159.232 553.318 160.365 553.318 160.365C559.46 145.934 553.336 135.242 547.347 128.904C548.811 131.922 549.867 135.211 550.118 138.738Z" fill="#2F52A0" fill-opacity="0.4"/>
<path d="M543.837 148.983C545.391 145.889 546.017 142.523 545.753 139.036C545.601 135.54 544.536 132.012 543.336 128.507C542.768 126.919 539.2 122.246 539.2 122.246C532.602 138.292 535.843 147.747 540.865 153.233C542.074 151.92 543.126 150.553 543.837 148.983Z" fill="#2F52A0" fill-opacity="0.4"/>
<path d="M473.722 149.335C476.953 149.335 479.572 146.696 479.572 143.439C479.572 140.183 476.953 137.543 473.722 137.543C470.49 137.543 467.871 140.183 467.871 143.439C467.871 146.696 470.49 149.335 473.722 149.335Z" fill="#2F52A0" fill-opacity="0.4"/>
<path d="M497.76 50.9297C500.991 50.9297 503.61 48.29 503.61 45.0337C503.61 41.7774 500.991 39.1377 497.76 39.1377C494.529 39.1377 491.909 41.7774 491.909 45.0337C491.909 48.29 494.529 50.9297 497.76 50.9297Z" fill="#2F52A0" fill-opacity="0.4"/>
<path d="M709.674 25.8209C709.674 29.7501 705.453 32.2086 702.073 30.2418L560.337 -52.2124L418.601 30.2418C415.221 32.2086 411 29.7501 411 25.8209C411 23.9984 411.967 22.3112 413.534 21.4L560.337 -64L707.141 21.4C708.712 22.3112 709.674 23.9939 709.674 25.8209Z" fill="#2F52A0" fill-opacity="0.4"/>
</g>
</svg>
