<svg width="1547" height="1347" viewBox="0 0 1547 1347" fill="none" xmlns="http://www.w3.org/2000/svg">
<mask id="mask0_538_220" style="mask-type:alpha" maskUnits="userSpaceOnUse" x="0" y="0" width="1903" height="1347">
<rect width="1903" height="1347" fill="white"/>
</mask>
<g mask="url(#mask0_538_220)">
<path d="M64.315 591.362C109.003 591.362 145.231 555.135 145.231 510.447C145.231 465.758 109.003 429.531 64.315 429.531C19.6266 429.531 -16.6006 465.758 -16.6006 510.447C-16.6006 555.135 19.6266 591.362 64.315 591.362Z" fill="#2F52A0" fill-opacity="0.05"/>
<path d="M-105.025 729.123L-101.798 510.545C-101.974 502.176 -89.9679 500.142 -86.6828 507.964C-86.6828 507.964 -30.4447 583.521 -14.8991 621.261C-11.9268 628.477 -6.02151 634.05 1.40912 636.416L42.6297 649.537C49.5715 651.746 57.0607 650.964 63.3963 647.386C97.7141 627.949 213.084 580.843 213.084 580.843C220.476 576.032 229.373 585.281 223.761 591.949L62.6728 783.835L-49.823 984.423C-53.8121 990.348 -63.4327 987.219 -63.2176 980.102L-34.8248 804.054C-35.3332 803.8 -35.3137 803.8 -35.8221 803.546L-68.4974 835.068C-75.0481 841.384 -84.434 843.769 -93.2138 841.345C-105.122 838.059 -113.003 826.777 -111.986 814.477L-105.025 729.123Z" fill="#2F52A0" fill-opacity="0.05"/>
<path d="M136.901 862.795C126.478 874.078 116.153 885.967 109.466 900.398C107.745 903.937 105.829 907.359 104.343 910.957L101.136 922.357C99.0826 929.944 96.5405 937.395 97.0294 945.295C95.25 959.98 97.186 974.137 101.116 987.532C52.3285 987.199 14.7646 964.849 14.7646 964.849C50.8814 856.381 136.177 828.067 199.67 822.787C177.026 832.115 155.321 844.825 136.901 862.795Z" fill="#2F52A0" fill-opacity="0.05"/>
<path d="M121.765 949.147C128.218 924.743 141.065 903.351 159.349 885.693C177.084 867.43 200.002 853.429 223.546 840.171C234.34 834.305 276.498 826.268 276.498 826.268C235.043 945.725 171.57 981.412 117.483 986.75C117.209 973.727 118.07 961.153 121.765 949.147Z" fill="#2F52A0" fill-opacity="0.05"/>
<path d="M314.316 725.172C307.14 717.722 299.553 710.311 290.108 705.246C287.801 703.956 285.572 702.528 283.206 701.375L275.677 698.774C270.652 697.092 265.744 695.078 260.405 695.098C250.589 693.318 241.008 694.061 231.837 696.173C233.988 663.381 250.511 638.997 250.511 638.997C322.021 667.565 337.703 726.052 338.74 768.974C333.382 753.37 325.678 738.274 314.316 725.172Z" fill="#2F52A0" fill-opacity="0.05"/>
<path d="M256.846 711.582C272.998 716.881 286.882 726.365 298.028 739.369C309.604 752.02 318.13 767.977 326.108 784.344C329.628 791.833 333.362 820.499 333.362 820.499C254.656 787.903 233.186 743.808 231.719 707.222C240.499 707.554 248.927 708.63 256.846 711.582Z" fill="#2F52A0" fill-opacity="0.05"/>
<path d="M162.634 780.628C176.749 780.628 188.191 769.186 188.191 755.071C188.191 740.956 176.749 729.513 162.634 729.513C148.519 729.513 137.076 740.956 137.076 755.071C137.076 769.186 148.519 780.628 162.634 780.628Z" fill="#2F52A0" fill-opacity="0.05"/>
<path d="M210.796 529.923C224.911 529.923 236.354 518.48 236.354 504.365C236.354 490.25 224.911 478.808 210.796 478.808C196.681 478.808 185.239 490.25 185.239 504.365C185.239 518.48 196.681 529.923 210.796 529.923Z" fill="#2F52A0" fill-opacity="0.05"/>
<path d="M-47.8286 337.528C-21.7431 333.872 3.24717 337.313 28.8633 328.181C26.6928 344.177 24.1312 355.714 7.70565 362.558C23.1535 372.843 7.02122 394.92 -7.48806 394.236C-3.98784 418.913 -17.8322 441.009 -44.3478 430.939C-50.1555 448.381 -67.8325 445.937 -80.7579 437.529C-80.5232 447.521 -82.9285 457.239 -90.32 465.785C-104.223 481.858 -120.395 473.333 -130.817 458.041C-150.391 429.316 -112.944 371.513 -112.886 371.474C-112.71 371.064 -112.553 370.653 -112.299 370.223C-101.29 350.942 -67.7544 340.305 -47.8286 337.528Z" fill="#2F52A0" fill-opacity="0.05"/>
<path d="M338.74 404.345C338.74 421.377 320.3 432.034 305.537 423.508L-313.63 66.0953L-932.797 423.508C-947.56 432.034 -966 421.377 -966 404.345C-966 396.445 -961.776 389.132 -954.932 385.182L-313.63 15L327.672 385.182C334.536 389.132 338.74 396.426 338.74 404.345Z" fill="#2F52A0" fill-opacity="0.05"/>
</g>
</svg>
