<svg width="1904" height="4206" viewBox="0 0 1904 4206" fill="none" xmlns="http://www.w3.org/2000/svg">
<mask id="mask0_581_471" style="mask-type:luminance" maskUnits="userSpaceOnUse" x="0" y="0" width="1904" height="4206">
<path d="M1903.07 0.290039H0.0699463V4205.29H1903.07V0.290039Z" fill="white"/>
</mask>
<g mask="url(#mask0_581_471)">
<path d="M67.93 3381.64C140.73 3412.83 217.38 3453.96 248.33 3526.86C270.25 3578.49 265.23 3637.73 281.9 3691.28C302.19 3756.42 352.9 3807.74 407.74 3848.28C462.58 3888.82 523.23 3921.47 575.74 3965C680.52 4051.82 754.29 4182.22 881.5 4230.52C864.61 4230.06 847.73 4229.14 830.84 4229.14H-88.25C-53.58 4036.56 -57.63 3837.25 -95.96 3645.37C-105.05 3599.82 -95.96 3543.25 -95.96 3496.97C-95.96 3445.36 -93.4501 3392.33 -96.3901 3341.14C-37.4101 3342.57 13.68 3358.4 67.93 3381.64Z" fill="#2F52A0" fill-opacity="0.05"/>
<path d="M1803 854.41C1726.81 821.77 1646.6 778.73 1614.21 702.41C1591.27 648.41 1596.53 586.41 1579.08 530.34C1557.85 462.17 1504.79 408.46 1447.39 366C1389.99 323.54 1326.53 289.43 1271.54 243.87C1161.89 153.02 1084.69 16.55 951.54 -34C969.21 -33.52 986.87 -32.55 1004.54 -32.55H1966.41C1930.13 168.99 1934.36 377.56 1974.47 578.38C1983.99 626.04 1974.47 685.24 1974.47 733.68C1974.47 787.68 1971.85 843.18 1974.93 896.75C1913.25 895.3 1859.77 878.73 1803 854.41Z" fill="#2F52A0" fill-opacity="0.05"/>
</g>
</svg>
