<svg width="1903" height="636" viewBox="0 0 1903 636" fill="none" xmlns="http://www.w3.org/2000/svg">
<mask id="mask0_954_154" style="mask-type:alpha" maskUnits="userSpaceOnUse" x="0" y="0" width="1903" height="636">
<rect width="1903" height="636" fill="#D9D9D9"/>
</mask>
<g mask="url(#mask0_954_154)">
<path d="M1796.66 298.194C1796.66 298.194 1767.66 363.801 1761.16 386.462C1759.79 391.227 1756.44 395.145 1751.85 397.239L1731.65 406.452C1727.29 408.44 1722.32 408.593 1717.84 406.864C1696.11 398.463 1629.75 381.214 1629.75 381.214C1625.25 379.096 1620.92 384.814 1624.55 388.085L1728.97 482.283L1806.66 584.705C1809.34 587.682 1814.52 585.281 1813.88 581.375L1785.24 486.436C1785.53 486.271 1785.49 486.295 1785.78 486.13L1850.53 555.49C1853.76 558.785 1859.33 555.514 1857.87 551.172L1819.37 440.267L1805.33 298.547C1804.84 293.923 1797.94 293.652 1796.66 298.194ZM1801.03 409.782C1801.68 411.158 1802.05 412.582 1802.18 414.006C1802.34 415.876 1802.09 417.747 1801.45 419.488L1792.56 448.091C1792.5 448.256 1792.39 448.374 1792.23 448.433C1792.09 448.503 1791.92 448.515 1791.76 448.456C1791.76 448.456 1762.05 440.479 1755.98 430.325C1752.38 424.289 1755.78 416.394 1762.29 413.429C1767.05 411.252 1772.49 412.158 1776.24 415.312C1776.19 410.476 1778.98 405.816 1783.76 403.64C1790.26 400.675 1798.01 403.428 1801.03 409.782Z" fill="#2F52A0" fill-opacity="0.05"/>
<path d="M1756.38 318.478C1747.4 293.123 1719.76 279.804 1694.63 288.746C1689.88 290.44 1685.57 292.805 1681.75 295.7C1662.03 281.698 1636.76 269.238 1627.51 288.746C1611.52 322.502 1570.39 361.188 1570.39 361.188C1570.39 361.188 1601.49 377.837 1633.86 334.186C1645.26 318.831 1657.76 312.16 1669.18 309.96C1662.24 321.914 1660.4 336.762 1665.4 350.858C1674.37 376.213 1702.02 389.532 1727.15 380.59C1752.27 371.648 1765.36 343.834 1756.38 318.478Z" fill="#2F52A0" fill-opacity="0.05"/>
<path d="M1937.58 282.216C1930.03 282.216 1922.71 283.134 1915.68 284.84L1914.02 282.557L1914.21 257.661C1914.81 257.684 1915.4 257.755 1916.01 257.755C1942.7 257.755 1964.33 235.953 1964.33 209.056C1964.33 182.159 1942.7 160.357 1916.01 160.357C1889.32 160.357 1867.69 182.159 1867.69 209.056C1867.69 227.152 1877.51 242.918 1892.04 251.307C1878.84 266.438 1864.64 284.569 1864.34 292.947C1864.23 295.994 1868.4 300.689 1875.16 306.277C1856.01 323.55 1843.95 348.646 1843.95 376.59C1843.95 428.701 1885.87 470.941 1937.58 470.941C1989.28 470.941 2031.2 428.701 2031.2 376.59C2031.21 324.456 1989.28 282.216 1937.58 282.216ZM1937.58 428.278C1909.23 428.278 1886.26 405.122 1886.26 376.567C1886.26 357.282 1896.76 340.493 1912.3 331.598C1929.08 341.881 1946.85 351.917 1959.49 358.871C1963.63 361.153 1967.95 356.153 1965.15 352.317L1945.53 325.526C1970.09 329.374 1988.91 350.729 1988.91 376.567C1988.9 405.122 1965.92 428.278 1937.58 428.278Z" fill="#2F52A0" fill-opacity="0.05"/>
<path d="M1792.84 181.277C1798.97 176.241 1805.41 171.287 1813.03 168.299C1814.89 167.522 1816.72 166.64 1818.62 165.981L1824.57 164.687C1828.53 163.875 1832.44 162.792 1836.48 163.298C1844.08 162.851 1851.28 164.31 1858.04 166.781C1859.45 141.52 1849.17 121.353 1849.17 121.353C1792.31 136.543 1775.02 179.771 1770.28 212.468C1775.79 201.043 1783.02 190.219 1792.84 181.277Z" fill="#2F52A0" fill-opacity="0.05"/>
<path d="M1837.67 176.229C1824.92 178.782 1813.54 184.735 1803.87 193.63C1793.93 202.22 1786 213.632 1778.43 225.375C1775.07 230.775 1769.6 252.33 1769.6 252.33C1832.28 234.74 1852.63 203.031 1857.12 175.217C1850.45 174.676 1843.95 174.711 1837.67 176.229Z" fill="#2F52A0" fill-opacity="0.05"/>
<path d="M1636.52 442.091C1627.39 441.149 1618.02 440.49 1608.74 442.479C1606.44 442.926 1604.11 443.244 1601.85 443.832L1595.26 446.409C1590.91 448.162 1586.44 449.632 1582.84 452.715C1575.2 457.174 1569.14 463.21 1564.15 469.952C1546.81 446.373 1544 420.218 1544 420.218C1608.73 398.392 1652.83 429.183 1678.13 457.822C1665.57 450.303 1651.71 444.456 1636.52 442.091Z" fill="#2F52A0" fill-opacity="0.05"/>
<path d="M1589.88 466.022C1603.85 460.304 1618.66 458.751 1633.65 461.175C1648.74 463.104 1663.63 469.07 1678.4 475.6C1685.08 478.682 1704.03 496.049 1704.03 496.049C1632.15 519.286 1592.35 501.649 1570.4 477.565C1576.53 472.717 1582.83 468.587 1589.88 466.022Z" fill="#2F52A0" fill-opacity="0.05"/>
<path d="M1595.46 535.477C1591.02 539.795 1586.59 544.36 1583.57 550.043C1582.8 551.431 1581.94 552.772 1581.25 554.196L1579.7 558.726C1578.7 561.75 1577.5 564.703 1577.51 567.915C1576.44 573.821 1576.89 579.587 1578.15 585.105C1558.57 583.811 1544.01 573.869 1544.01 573.869C1561.07 530.841 1595.99 521.405 1621.62 520.781C1612.29 524.017 1603.27 528.652 1595.46 535.477Z" fill="#2F52A0" fill-opacity="0.05"/>
<path d="M1587.34 570.069C1590.5 560.35 1596.17 551.996 1603.93 545.29C1611.48 538.324 1621.01 533.194 1630.78 528.394C1635.25 526.276 1652.37 524.029 1652.37 524.029C1632.91 571.386 1606.58 584.305 1584.74 585.188C1584.93 579.893 1585.58 574.834 1587.34 570.069Z" fill="#2F52A0" fill-opacity="0.05"/>
<path d="M1686.44 257.661C1690.63 256.743 1694.9 255.661 1698.74 253.413C1699.7 252.872 1700.69 252.402 1701.61 251.802L1704.17 249.684C1705.85 248.26 1707.64 246.954 1708.78 245.048C1711.54 241.942 1713.37 238.365 1714.61 234.635C1725.73 242.577 1730.75 253.802 1730.75 253.802C1705.12 273.004 1681.04 265.779 1665.65 256.755C1672.33 258.273 1679.34 258.837 1686.44 257.661Z" fill="#2F52A0" fill-opacity="0.05"/>
<path d="M1703.73 240.177C1698.34 244.765 1691.97 247.636 1684.95 248.754C1677.96 250.107 1670.48 249.636 1662.96 248.907C1659.55 248.519 1648.6 243.565 1648.6 243.565C1677.22 222.681 1697.47 224.693 1710.72 232.176C1708.7 235.235 1706.49 238 1703.73 240.177Z" fill="#2F52A0" fill-opacity="0.05"/>
<path d="M1906.85 528.781C1906.95 534.288 1906.88 539.923 1905.26 545.383C1904.88 546.736 1904.58 548.112 1904.13 549.43L1902.28 553.242C1901.03 555.76 1899.95 558.361 1897.96 560.361C1894.96 564.714 1891.11 568.044 1886.89 570.703C1899.93 582.233 1915.19 585.187 1915.19 585.187C1931.21 547.548 1915.24 519.663 1899.62 503.132C1903.44 511.003 1906.19 519.58 1906.85 528.781Z" fill="#2F52A0" fill-opacity="0.05"/>
<path d="M1890.46 555.501C1894.52 547.43 1896.15 538.653 1895.46 529.558C1895.06 520.439 1892.29 511.238 1889.16 502.096C1887.67 497.955 1878.37 485.765 1878.37 485.765C1861.16 527.616 1869.61 552.278 1882.71 566.585C1885.86 563.161 1888.61 559.596 1890.46 555.501Z" fill="#2F52A0" fill-opacity="0.05"/>
<path d="M1707.59 556.42C1716.02 556.42 1722.85 549.535 1722.85 541.042C1722.85 532.549 1716.02 525.664 1707.59 525.664C1699.16 525.664 1692.33 532.549 1692.33 541.042C1692.33 549.535 1699.16 556.42 1707.59 556.42Z" fill="#2F52A0" fill-opacity="0.05"/>
<path d="M1770.29 299.759C1778.71 299.759 1785.54 292.874 1785.54 284.381C1785.54 275.888 1778.71 269.003 1770.29 269.003C1761.86 269.003 1755.03 275.888 1755.03 284.381C1755.03 292.874 1761.86 299.759 1770.29 299.759Z" fill="#2F52A0" fill-opacity="0.05"/>
<path d="M2323 234.27C2323 244.518 2311.99 250.931 2303.18 245.801L1933.5 30.7442L1563.82 245.801C1555.01 250.931 1544 244.518 1544 234.27C1544 229.517 1546.52 225.116 1550.61 222.74L1933.5 0L2316.39 222.74C2320.49 225.116 2323 229.505 2323 234.27Z" fill="#2F52A0" fill-opacity="0.05"/>
</g>
</svg>
