<svg width="1512" height="832" viewBox="0 0 1512 832" fill="none" xmlns="http://www.w3.org/2000/svg">
<mask id="mask0_541_281" style="mask-type:alpha" maskUnits="userSpaceOnUse" x="0" y="0" width="1903" height="832">
<rect width="1903" height="832" fill="white"/>
</mask>
<g mask="url(#mask0_541_281)">
<path d="M496.315 801.362C541.003 801.362 577.231 765.135 577.231 720.447C577.231 675.758 541.003 639.531 496.315 639.531C451.627 639.531 415.399 675.758 415.399 720.447C415.399 765.135 451.627 801.362 496.315 801.362Z" fill="#2F52A0" fill-opacity="0.05"/>
<path d="M326.975 939.122L330.202 720.544C330.026 712.175 342.032 710.142 345.317 717.963C345.317 717.963 401.555 793.521 417.101 831.261C420.073 838.476 425.978 844.049 433.409 846.415L474.63 859.536C481.571 861.746 489.061 860.964 495.396 857.385C529.714 837.948 645.084 790.842 645.084 790.842C652.476 786.032 661.373 795.281 655.761 801.949L494.673 993.835L382.177 1194.42C378.188 1200.35 368.567 1197.22 368.782 1190.1L397.175 1014.05C396.667 1013.8 396.686 1013.8 396.178 1013.55L363.503 1045.07C356.952 1051.38 347.566 1053.77 338.786 1051.34C326.878 1048.06 318.997 1036.78 320.014 1024.48L326.975 939.122Z" fill="#2F52A0" fill-opacity="0.05"/>
<path d="M125.194 694.029C112.562 694.029 100.301 695.554 88.5295 698.39L85.7334 694.596L86.0657 653.219C87.063 653.258 88.0603 653.376 89.0771 653.376C133.778 653.376 170.012 617.141 170.012 572.44C170.012 527.739 133.778 491.505 89.0771 491.505C44.376 491.505 8.14194 527.739 8.14194 572.44C8.14194 602.515 24.5871 628.718 48.9321 642.66C26.8162 667.807 3.03829 697.94 2.52988 711.862C2.35389 716.927 9.3348 724.729 20.6567 734.017C-11.4123 762.723 -31.6118 804.432 -31.6118 850.874C-31.6118 937.48 38.5879 1007.68 125.194 1007.68C211.8 1007.68 282 937.48 282 850.874C282.019 764.229 211.8 694.029 125.194 694.029ZM125.194 936.776C77.716 936.776 39.2529 898.293 39.2529 850.835C39.2529 818.785 56.8323 790.881 82.859 776.098C110.958 793.189 140.72 809.869 161.897 821.425C168.839 825.219 176.074 816.908 171.381 810.533L138.51 766.008C179.653 772.402 211.174 807.893 211.174 850.835C211.155 898.293 172.672 936.776 125.194 936.776Z" fill="#2F52A0" fill-opacity="0.05"/>
<path d="M642.796 739.923C656.911 739.923 668.354 728.48 668.354 714.365C668.354 700.25 656.911 688.808 642.796 688.808C628.681 688.808 617.239 700.25 617.239 714.365C617.239 728.48 628.681 739.923 642.796 739.923Z" fill="#2F52A0" fill-opacity="0.05"/>
<path d="M118.37 465.928C132.485 465.928 143.927 454.486 143.927 440.371C143.927 426.256 132.485 414.813 118.37 414.813C104.255 414.813 92.8125 426.256 92.8125 440.371C92.8125 454.486 104.255 465.928 118.37 465.928Z" fill="#2F52A0" fill-opacity="0.05"/>
<path d="M300.44 495.592C292.56 471.325 278.95 451.028 276.056 424.845C263.033 433.527 254.077 440.644 255.094 457.852C239.568 448.759 227.209 472.186 233.955 484.505C210.979 491.935 197.604 513.367 217.628 532.178C204.898 544.634 214.518 558.987 227.346 566.691C218.547 570.72 211.116 576.938 206.795 586.989C198.699 605.917 212.993 616.379 230.729 618.98C264.05 623.849 298.504 566.711 298.504 566.652C298.797 566.32 299.091 566.007 299.345 565.616C311.43 547.861 306.463 514.13 300.44 495.592Z" fill="#2F52A0" fill-opacity="0.05"/>
<path d="M384.171 547.528C410.257 543.872 435.247 547.313 460.863 538.181C458.693 554.177 456.131 565.714 439.706 572.558C455.154 582.843 439.021 604.92 424.512 604.236C428.012 628.913 414.168 651.009 387.652 640.939C381.845 658.381 364.167 655.937 351.242 647.529C351.477 657.521 349.072 667.239 341.68 675.785C327.777 691.858 311.605 683.333 301.183 668.041C281.609 639.316 319.056 581.513 319.114 581.474C319.29 581.064 319.447 580.653 319.701 580.223C330.71 560.942 364.246 550.305 384.171 547.528Z" fill="#2F52A0" fill-opacity="0.05"/>
<path d="M381.688 518.451C375.685 518.803 369.721 520.015 364.03 521.99C358.418 524.259 352.982 526.8 347.409 529.127C341.875 531.552 336.596 534.759 332.118 538.963C330.182 540.743 328.481 542.796 326.956 544.947C326.388 544.536 325.782 544.184 325.137 543.911C326.212 541.662 327.132 539.354 327.738 536.949C329.283 531.044 329.537 524.943 329.009 518.998C328.344 513.074 327.953 507.168 327.229 501.243C326.213 495.377 324.374 489.667 321.754 484.348C321.734 484.309 321.676 484.27 321.637 484.29C321.578 484.309 321.539 484.348 321.559 484.426C322.771 490.254 324.12 495.944 325.45 501.634C327.073 507.266 328.168 513.152 327.816 519.057C327.562 524.943 326.897 530.79 325.567 536.441C325 538.787 324.257 541.075 323.397 543.324C318.43 542.17 313.209 544.888 311.429 549.816C310.041 553.649 311.156 557.716 313.874 560.317C309.181 563.328 300.733 569.624 294.632 579.226C285.813 593.148 285.461 608.596 285.461 608.596C285.461 608.596 299.384 601.498 308.223 587.595C314.245 578.091 316.338 567.865 317.042 562.331C317.218 562.389 317.355 562.487 317.53 562.546C322.771 564.325 328.559 561.509 330.436 556.249C331.746 552.573 330.788 548.721 328.324 546.12C329.986 544.165 331.746 542.327 333.643 540.586C338.004 536.676 342.853 533.253 347.957 530.164C353.041 526.977 358.77 525.06 364.558 523.692C370.268 522.049 375.959 520.426 381.727 518.646C381.786 518.627 381.805 518.588 381.805 518.529C381.805 518.49 381.747 518.451 381.688 518.451Z" fill="#2F52A0" fill-opacity="0.05"/>
<path d="M770.74 614.345C770.74 631.377 752.3 642.034 737.536 633.508L118.37 276.095L-500.797 633.508C-515.56 642.034 -534 631.377 -534 614.345C-534 606.445 -529.776 599.132 -522.932 595.182L118.37 225L759.672 595.182C766.536 599.132 770.74 606.426 770.74 614.345Z" fill="#2F52A0" fill-opacity="0.05"/>
<path d="M1459.17 398.583C1459.17 398.583 1410.6 507.618 1399.71 545.28C1397.42 553.199 1391.81 559.711 1384.12 563.191L1350.3 578.502C1342.98 581.807 1334.67 582.061 1327.16 579.187C1290.77 565.225 1179.63 536.559 1179.63 536.559C1172.08 533.039 1164.82 542.542 1170.9 547.978L1345.8 704.53L1475.93 874.75C1480.41 879.697 1489.09 875.708 1488.02 869.216L1440.05 711.432C1440.54 711.159 1440.46 711.198 1440.95 710.924L1549.4 826.197C1554.81 831.672 1564.14 826.236 1561.7 819.02L1497.21 634.701L1473.7 399.17C1472.88 391.485 1461.32 391.035 1459.17 398.583ZM1466.49 584.036C1467.58 586.324 1468.21 588.69 1468.42 591.056C1468.7 594.165 1468.27 597.274 1467.19 600.168L1452.31 647.705C1452.21 647.979 1452.02 648.174 1451.76 648.272C1451.53 648.389 1451.23 648.409 1450.96 648.311C1450.96 648.311 1401.21 635.053 1391.05 618.178C1385 608.147 1390.71 595.026 1401.61 590.098C1409.58 586.481 1418.7 587.986 1424.97 593.227C1424.89 585.19 1429.57 577.446 1437.57 573.829C1448.46 568.901 1461.44 573.477 1466.49 584.036Z" fill="#2F52A0" fill-opacity="0.05"/>
<path d="M1391.71 432.295C1376.67 390.156 1330.37 368.02 1288.29 382.881C1280.33 385.697 1273.11 389.628 1266.72 394.438C1233.69 371.169 1191.36 350.46 1175.87 382.881C1149.08 438.983 1080.19 503.277 1080.19 503.277C1080.19 503.277 1132.28 530.946 1186.51 458.4C1205.59 432.882 1226.54 421.795 1245.66 418.138C1234.05 438.005 1230.96 462.683 1239.32 486.109C1254.36 528.248 1300.67 550.384 1342.75 535.522C1384.83 520.661 1406.75 474.435 1391.71 432.295Z" fill="#2F52A0" fill-opacity="0.05"/>
<path d="M1452.78 204.273C1463.05 195.903 1473.84 187.671 1486.59 182.704C1489.72 181.414 1492.77 179.947 1495.96 178.852L1505.93 176.701C1512.56 175.352 1519.11 173.553 1525.87 174.394C1538.6 173.651 1550.67 176.076 1561.99 180.182C1564.34 138.199 1547.13 104.683 1547.13 104.683C1451.9 129.927 1422.94 201.77 1415 256.111C1424.23 237.124 1436.33 219.134 1452.78 204.273Z" fill="#2F52A0" fill-opacity="0.05"/>
<path d="M1527.87 195.884C1506.52 200.127 1487.45 210.022 1471.26 224.805C1454.6 239.079 1441.32 258.047 1428.65 277.562C1423.02 286.538 1413.85 322.361 1413.85 322.361C1518.83 293.127 1552.92 240.429 1560.45 194.202C1549.26 193.303 1538.39 193.361 1527.87 195.884Z" fill="#2F52A0" fill-opacity="0.05"/>
<path d="M1190.97 637.732C1175.68 636.168 1159.97 635.073 1144.43 638.378C1140.58 639.121 1136.68 639.649 1132.89 640.626L1121.86 644.909C1114.57 647.822 1107.08 650.267 1101.06 655.39C1088.25 662.801 1078.1 672.832 1069.75 684.037C1040.71 644.85 1036 601.381 1036 601.381C1144.41 565.108 1218.28 616.281 1260.66 663.877C1239.62 651.381 1216.41 641.663 1190.97 637.732Z" fill="#2F52A0" fill-opacity="0.05"/>
<path d="M1112.85 677.506C1136.24 668.002 1161.05 665.421 1186.16 669.449C1211.42 672.656 1236.37 682.57 1261.11 693.423C1272.29 698.546 1304.03 727.408 1304.03 727.408C1183.64 766.028 1116.97 736.716 1080.21 696.689C1090.48 688.632 1101.04 681.769 1112.85 677.506Z" fill="#2F52A0" fill-opacity="0.05"/>
<path d="M1122.2 792.935C1114.75 800.111 1107.33 807.698 1102.27 817.143C1100.98 819.45 1099.55 821.679 1098.4 824.045L1095.8 831.574C1094.12 836.599 1092.1 841.507 1092.12 846.846C1090.34 856.662 1091.08 866.244 1093.2 875.415C1060.4 873.264 1036.02 856.74 1036.02 856.74C1064.59 785.23 1123.08 769.548 1166 768.511C1150.37 773.889 1135.28 781.593 1122.2 792.935Z" fill="#2F52A0" fill-opacity="0.05"/>
<path d="M1108.59 850.424C1113.88 834.273 1123.37 820.389 1136.37 809.243C1149.02 797.667 1164.98 789.141 1181.35 781.163C1188.84 777.643 1217.5 773.909 1217.5 773.909C1184.91 852.614 1140.81 874.085 1104.22 875.552C1104.56 866.752 1105.63 858.344 1108.59 850.424Z" fill="#2F52A0" fill-opacity="0.05"/>
<path d="M1274.56 331.219C1281.58 329.694 1288.74 327.895 1295.17 324.16C1296.78 323.261 1298.44 322.478 1299.98 321.481L1304.27 317.961C1307.08 315.595 1310.07 313.425 1311.99 310.257C1316.6 305.094 1319.67 299.15 1321.75 292.951C1340.38 306.15 1348.79 324.805 1348.79 324.805C1305.85 356.718 1265.53 344.712 1239.76 329.713C1250.94 332.236 1262.67 333.175 1274.56 331.219Z" fill="#2F52A0" fill-opacity="0.05"/>
<path d="M1303.52 302.162C1294.51 309.788 1283.83 314.559 1272.08 316.416C1260.37 318.665 1247.83 317.883 1235.24 316.671C1229.53 316.025 1211.19 307.793 1211.19 307.793C1259.13 273.084 1293.04 276.428 1315.24 288.865C1311.85 293.949 1308.16 298.544 1303.52 302.162Z" fill="#2F52A0" fill-opacity="0.05"/>
<path d="M1309.99 827.741C1324.11 827.741 1335.55 816.299 1335.55 802.184C1335.55 788.069 1324.11 776.626 1309.99 776.626C1295.88 776.626 1284.44 788.069 1284.44 802.184C1284.44 816.299 1295.88 827.741 1309.99 827.741Z" fill="#2F52A0" fill-opacity="0.05"/>
<path d="M1415 401.184C1429.12 401.184 1440.56 389.742 1440.56 375.627C1440.56 361.512 1429.12 350.069 1415 350.069C1400.89 350.069 1389.44 361.512 1389.44 375.627C1389.44 389.742 1400.89 401.184 1415 401.184Z" fill="#2F52A0" fill-opacity="0.05"/>
<path d="M2340.74 292.345C2340.74 309.377 2322.3 320.034 2307.54 311.508L1688.37 -45.9047L1069.2 311.508C1054.44 320.034 1036 309.377 1036 292.345C1036 284.445 1040.22 277.132 1047.07 273.182L1688.37 -97L2329.67 273.182C2336.54 277.132 2340.74 284.426 2340.74 292.345Z" fill="#2F52A0" fill-opacity="0.05"/>
</g>
</svg>
