<svg width="1516" height="1091" viewBox="0 0 1516 1091" fill="none" xmlns="http://www.w3.org/2000/svg">
<mask id="mask0_451_211" style="mask-type:alpha" maskUnits="userSpaceOnUse" x="0" y="0" width="1516" height="1091">
<rect width="1516" height="1091" fill="white"/>
</mask>
<g mask="url(#mask0_451_211)">
<path d="M1194.32 515.107C1246.12 515.107 1288.11 473.113 1288.11 421.311C1288.11 369.509 1246.12 327.515 1194.32 327.515C1142.52 327.515 1100.52 369.509 1100.52 421.311C1100.52 473.113 1142.52 515.107 1194.32 515.107Z" fill="#2F52A0" fill-opacity="0.04"/>
<path d="M998.024 674.795L1001.76 421.424C1001.56 411.723 1015.48 409.365 1019.29 418.432C1019.29 418.432 1084.48 506.017 1102.5 549.764C1105.94 558.128 1112.79 564.588 1121.4 567.331L1169.18 582.541C1177.23 585.102 1185.91 584.195 1193.25 580.047C1233.03 557.516 1366.77 502.912 1366.77 502.912C1375.34 497.336 1385.65 508.057 1379.14 515.786L1192.41 738.217L1062.01 970.734C1057.39 977.602 1046.24 973.975 1046.49 965.724L1079.4 761.654C1078.81 761.359 1078.83 761.36 1078.24 761.065L1040.37 797.604C1032.77 804.925 1021.89 807.691 1011.71 804.88C997.91 801.072 988.775 787.993 989.954 773.736L998.024 674.795Z" fill="#2F52A0" fill-opacity="0.04"/>
<path d="M1016.38 844.051C1016.8 833.155 1008.31 823.98 997.416 823.558C986.52 823.136 977.345 831.627 976.923 842.523C976.501 853.419 984.992 862.594 995.888 863.016C1006.78 863.438 1015.96 854.947 1016.38 844.051Z" fill="#2F52A0" fill-opacity="0.04"/>
<path d="M973.747 944.009C988.206 944.009 999.927 932.288 999.927 917.829C999.927 903.37 988.206 891.649 973.747 891.649C959.288 891.649 947.567 903.37 947.567 917.829C947.567 932.288 959.288 944.009 973.747 944.009Z" fill="#2F52A0" fill-opacity="0.04"/>
<path d="M490.534 421.469C490.534 421.469 434.229 547.86 421.604 591.516C418.952 600.697 412.446 608.245 403.538 612.279L364.324 630.027C355.847 633.858 346.214 634.153 337.509 630.821C295.326 614.637 166.488 581.407 166.488 581.407C157.738 577.327 149.329 588.343 156.378 594.644L359.111 776.115L509.959 973.431C515.15 979.166 525.214 974.542 523.967 967.016L468.365 784.117C468.932 783.8 468.842 783.845 469.408 783.528L595.119 917.149C601.397 923.496 612.21 917.194 609.376 908.83L534.621 695.172L507.375 422.15C506.423 413.241 493.027 412.72 490.534 421.469ZM499.011 636.442C500.28 639.094 501.006 641.837 501.255 644.58C501.572 648.184 501.074 651.788 499.827 655.142L482.578 710.246C482.464 710.563 482.238 710.79 481.943 710.903C481.671 711.039 481.331 711.061 481.014 710.948C481.014 710.948 423.349 695.58 411.562 676.019C404.558 664.391 411.177 649.181 423.802 643.469C433.051 639.276 443.613 641.021 450.889 647.096C450.799 637.78 456.216 628.803 465.487 624.61C478.112 618.898 493.163 624.202 499.011 636.442Z" fill="#2F52A0" fill-opacity="0.04"/>
<path d="M412.333 460.547C394.902 411.7 341.227 386.041 292.448 403.268C283.222 406.532 274.858 411.088 267.446 416.664C229.162 389.691 180.088 365.686 162.136 403.268C131.082 468.299 51.2269 542.828 51.2269 542.828C51.2269 542.828 111.612 574.902 174.467 490.808C196.59 461.227 220.866 448.375 243.034 444.137C229.57 467.166 225.989 495.772 235.69 522.927C253.121 571.774 306.796 597.433 355.575 580.206C404.354 562.979 429.764 509.394 412.333 460.547Z" fill="#2F52A0" fill-opacity="0.04"/>
<path d="M764.123 390.688C749.48 390.688 735.268 392.456 721.623 395.743L718.382 391.345L718.767 343.382C719.923 343.428 721.079 343.563 722.257 343.563C774.074 343.563 816.076 301.562 816.076 249.745C816.076 197.929 774.074 155.927 722.257 155.927C670.441 155.927 628.439 197.929 628.439 249.745C628.439 284.607 647.502 314.981 675.722 331.142C650.086 360.292 622.523 395.221 621.934 411.36C621.73 417.231 629.822 426.275 642.946 437.042C605.772 470.317 582.357 518.665 582.357 572.499C582.357 672.891 663.731 754.265 764.123 754.265C864.515 754.265 945.889 672.891 945.889 572.499C945.912 472.062 864.515 390.688 764.123 390.688ZM764.123 672.075C709.088 672.075 664.502 627.466 664.502 572.454C664.502 535.303 684.88 502.957 715.05 485.821C747.622 505.632 782.121 524.967 806.669 538.363C814.716 542.76 823.102 533.127 817.662 525.737L779.559 474.125C827.251 481.537 863.79 522.677 863.79 572.454C863.767 627.466 819.158 672.075 764.123 672.075Z" fill="#2F52A0" fill-opacity="0.04"/>
<path d="M483.122 196.229C495.022 186.527 507.534 176.984 522.313 171.227C525.94 169.731 529.476 168.031 533.171 166.762L544.731 164.268C552.415 162.704 560.008 160.619 567.851 161.594C582.607 160.732 596.593 163.543 609.717 168.303C612.437 119.637 592.49 80.7863 592.49 80.7863C482.102 110.049 448.533 193.327 439.33 256.319C450.029 234.309 464.059 213.455 483.122 196.229Z" fill="#2F52A0" fill-opacity="0.04"/>
<path d="M570.163 186.505C545.411 191.423 523.311 202.893 504.542 220.029C485.23 236.576 469.839 258.563 455.151 281.184C448.623 291.588 437.992 333.114 437.992 333.114C559.691 299.227 599.199 238.14 607.926 184.555C594.961 183.513 582.358 183.581 570.163 186.505Z" fill="#2F52A0" fill-opacity="0.04"/>
<path d="M1278.46 829.746C1266.38 842.824 1254.41 856.606 1246.66 873.334C1244.66 877.437 1242.44 881.403 1240.72 885.574L1237 898.789C1234.62 907.584 1231.67 916.22 1232.24 925.377C1230.18 942.4 1232.42 958.811 1236.98 974.338C1180.42 973.952 1136.88 948.044 1136.88 948.044C1178.75 822.311 1277.62 789.489 1351.22 783.369C1324.97 794.181 1299.81 808.915 1278.46 829.746Z" fill="#2F52A0" fill-opacity="0.04"/>
<path d="M1260.91 929.843C1268.39 901.554 1283.29 876.757 1304.48 856.288C1325.04 835.117 1351.6 818.888 1378.9 803.52C1391.41 796.72 1440.28 787.404 1440.28 787.404C1392.22 925.876 1318.65 967.243 1255.95 973.431C1255.63 958.335 1256.63 943.76 1260.91 929.843Z" fill="#2F52A0" fill-opacity="0.04"/>
<path d="M179.635 698.686C161.91 696.872 143.708 695.603 125.688 699.434C121.222 700.295 116.712 700.907 112.314 702.04L99.5302 707.004C91.0755 710.382 82.394 713.215 75.4126 719.154C60.5658 727.744 48.8017 739.373 39.1229 752.361C5.4626 706.936 0 656.548 0 656.548C125.665 614.501 211.301 673.82 260.42 728.991C236.03 714.507 209.125 703.242 179.635 698.686Z" fill="#2F52A0" fill-opacity="0.04"/>
<path d="M89.081 744.79C116.191 733.774 144.955 730.782 174.059 735.451C203.345 739.169 232.268 750.661 260.941 763.241C273.907 769.18 310.695 802.636 310.695 802.636C171.135 847.403 93.8638 813.426 51.25 767.026C63.1501 757.688 75.3902 749.731 89.081 744.79Z" fill="#2F52A0" fill-opacity="0.04"/>
<path d="M1484.11 670.216C1475.8 661.58 1467 652.989 1456.05 647.119C1453.38 645.623 1450.79 643.968 1448.05 642.631L1439.32 639.616C1433.5 637.666 1427.81 635.332 1421.62 635.354C1410.24 633.292 1399.14 634.153 1388.51 636.601C1391 598.589 1410.15 570.323 1410.15 570.323C1493.05 603.439 1511.22 671.236 1512.43 720.99C1506.21 702.902 1497.28 685.403 1484.11 670.216Z" fill="#2F52A0" fill-opacity="0.04"/>
<path d="M1417.5 654.463C1436.22 660.605 1452.31 671.599 1465.23 686.672C1478.65 701.338 1488.53 719.834 1497.78 738.806C1501.86 747.487 1506.19 780.717 1506.19 780.717C1414.96 742.931 1390.07 691.818 1388.37 649.408C1398.55 649.793 1408.32 651.04 1417.5 654.463Z" fill="#2F52A0" fill-opacity="0.04"/>
<path d="M99.9158 878.593C91.2797 886.911 82.689 895.706 76.8183 906.654C75.3222 909.329 73.6676 911.913 72.3303 914.656L69.3155 923.383C67.3662 929.208 65.0315 934.897 65.0541 941.085C62.9914 952.464 63.8529 963.571 66.3009 974.202C28.2886 971.708 0.0228271 952.555 0.0228271 952.555C33.1392 869.662 100.936 851.483 150.69 850.282C132.579 856.515 115.08 865.446 99.9158 878.593Z" fill="#2F52A0" fill-opacity="0.04"/>
<path d="M84.1393 945.234C90.282 926.511 101.275 910.417 116.349 897.497C131.014 884.078 149.511 874.195 168.483 864.947C177.164 860.867 210.394 856.538 210.394 856.538C172.608 947.772 121.494 972.66 79.0845 974.36C79.4698 964.16 80.7166 954.414 84.1393 945.234Z" fill="#2F52A0" fill-opacity="0.04"/>
<path d="M276.537 343.382C284.674 341.614 292.97 339.529 300.428 335.199C302.286 334.157 304.213 333.25 306.004 332.094L310.968 328.014C314.232 325.271 317.7 322.755 319.921 319.083C325.27 313.099 328.829 306.208 331.232 299.023C352.833 314.323 362.58 335.947 362.58 335.947C312.804 372.94 266.065 359.022 236.19 341.637C249.155 344.561 262.755 345.649 276.537 343.382Z" fill="#2F52A0" fill-opacity="0.04"/>
<path d="M310.106 309.699C299.656 318.539 287.28 324.07 273.657 326.223C260.08 328.83 245.55 327.923 230.953 326.518C224.334 325.77 203.073 316.227 203.073 316.227C258.652 275.994 297.956 279.87 323.683 294.286C319.762 300.179 315.478 305.506 310.106 309.699Z" fill="#2F52A0" fill-opacity="0.04"/>
<path d="M704.464 865.695C704.668 876.303 704.532 887.161 701.381 897.678C700.656 900.285 700.067 902.937 699.183 905.476L695.601 912.82C693.176 917.67 691.068 922.68 687.215 926.533C681.389 934.92 673.909 941.335 665.726 946.457C691.045 968.671 720.671 974.36 720.671 974.36C751.77 901.849 720.761 848.129 690.433 816.282C697.845 831.446 703.195 847.97 704.464 865.695Z" fill="#2F52A0" fill-opacity="0.04"/>
<path d="M672.663 917.172C680.528 901.622 683.701 884.713 682.364 867.191C681.593 849.624 676.199 831.899 670.124 814.287C667.245 806.308 649.18 782.825 649.18 782.825C615.769 863.451 632.179 910.961 657.612 938.524C663.732 931.928 669.059 925.06 672.663 917.172Z" fill="#2F52A0" fill-opacity="0.04"/>
<path d="M898.538 880.066C885.324 887.524 871.565 894.754 856.197 897.928C852.411 898.789 848.694 899.854 844.886 900.466L833.213 900.965C825.46 901.214 817.708 901.985 810.251 899.718C795.722 898.109 782.575 893.054 770.584 886.232C759.862 933.175 772.828 974.338 772.828 974.338C885.21 964.16 931.723 888.634 951.171 828.816C937.095 848.468 919.959 866.443 898.538 880.066Z" fill="#2F52A0" fill-opacity="0.04"/>
<path d="M812.132 875.079C837.043 874.399 860.481 866.897 881.606 853.319C903.163 840.399 921.817 821.563 939.86 801.956C947.93 792.912 965.202 754.22 965.202 754.22C841.055 767.004 792.412 819.931 775.027 870.682C787.494 873.901 799.779 875.918 812.132 875.079Z" fill="#2F52A0" fill-opacity="0.04"/>
<path d="M1308.29 734.499C1324.65 734.499 1337.91 721.235 1337.91 704.874C1337.91 688.512 1324.65 675.248 1308.29 675.248C1291.93 675.248 1278.66 688.512 1278.66 704.874C1278.66 721.235 1291.93 734.499 1308.29 734.499Z" fill="#2F52A0" fill-opacity="0.04"/>
<path d="M1364.12 443.887C1380.48 443.887 1393.74 430.623 1393.74 414.262C1393.74 397.9 1380.48 384.636 1364.12 384.636C1347.75 384.636 1334.49 397.9 1334.49 414.262C1334.49 430.623 1347.75 443.887 1364.12 443.887Z" fill="#2F52A0" fill-opacity="0.04"/>
<path d="M756.213 126.279C772.575 126.279 785.839 113.015 785.839 96.6532C785.839 80.2914 772.575 67.0274 756.213 67.0274C739.851 67.0274 726.587 80.2914 726.587 96.6532C726.587 113.015 739.851 126.279 756.213 126.279Z" fill="#2F52A0" fill-opacity="0.04"/>
<path d="M317.609 918.94C333.97 918.94 347.234 905.676 347.234 889.314C347.234 872.952 333.97 859.688 317.609 859.688C301.247 859.688 287.983 872.952 287.983 889.314C287.983 905.676 301.247 918.94 317.609 918.94Z" fill="#2F52A0" fill-opacity="0.04"/>
<path d="M439.33 424.484C455.692 424.484 468.955 411.22 468.955 394.859C468.955 378.497 455.692 365.233 439.33 365.233C422.968 365.233 409.704 378.497 409.704 394.859C409.704 411.22 422.968 424.484 439.33 424.484Z" fill="#2F52A0" fill-opacity="0.04"/>
<path d="M967.264 160.664C958.129 132.535 942.353 109.006 938.999 78.6555C923.903 88.7196 913.521 96.9704 914.7 116.917C896.702 106.377 882.377 133.532 890.197 147.812C863.563 156.426 848.059 181.269 871.27 203.074C856.514 217.513 867.666 234.15 882.535 243.081C872.335 247.751 863.722 254.959 858.713 266.609C849.329 288.551 865.898 300.678 886.457 303.692C925.081 309.337 965.02 243.104 965.02 243.036C965.36 242.651 965.7 242.288 965.995 241.834C980.003 221.253 974.246 182.153 967.264 160.664Z" fill="#2F52A0" fill-opacity="0.04"/>
<path d="M1064.32 220.868C1094.56 216.629 1123.53 220.618 1153.22 210.033C1150.71 228.574 1147.74 241.948 1128.7 249.881C1146.6 261.804 1127.9 287.395 1111.09 286.602C1115.14 315.207 1099.1 340.821 1068.36 329.147C1061.63 349.366 1041.14 346.533 1026.15 336.786C1026.43 348.369 1023.64 359.634 1015.07 369.54C998.953 388.172 980.207 378.289 968.126 360.564C945.436 327.266 988.843 260.263 988.911 260.217C989.115 259.741 989.297 259.265 989.591 258.767C1002.35 236.417 1041.23 224.086 1064.32 220.868Z" fill="#2F52A0" fill-opacity="0.04"/>
<path d="M1061.45 187.162C1054.49 187.57 1047.57 188.975 1040.98 191.265C1034.47 193.894 1028.17 196.84 1021.71 199.538C1015.3 202.349 1009.18 206.066 1003.98 210.939C1001.74 213.002 999.768 215.382 998 217.876C997.343 217.4 996.64 216.991 995.892 216.674C997.139 214.067 998.204 211.393 998.907 208.605C1000.7 201.759 1000.99 194.687 1000.38 187.797C999.61 180.928 999.156 174.083 998.318 167.215C997.139 160.415 995.008 153.796 991.971 147.631C991.948 147.586 991.88 147.54 991.835 147.563C991.767 147.586 991.722 147.631 991.744 147.721C993.15 154.476 994.714 161.072 996.255 167.668C998.136 174.196 999.406 181.019 998.998 187.865C998.703 194.687 997.933 201.465 996.391 208.015C995.734 210.735 994.873 213.387 993.875 215.994C988.118 214.657 982.065 217.808 980.003 223.52C978.393 227.962 979.685 232.677 982.836 235.692C977.396 239.182 967.604 246.481 960.532 257.61C950.309 273.749 949.901 291.656 949.901 291.656C949.901 291.656 966.04 283.428 976.286 267.312C983.267 256.296 985.692 244.441 986.508 238.026C986.712 238.094 986.871 238.208 987.075 238.276C993.15 240.338 999.859 237.074 1002.04 230.977C1003.55 226.715 1002.44 222.25 999.587 219.236C1001.51 216.969 1003.55 214.838 1005.75 212.821C1010.81 208.288 1016.43 204.321 1022.34 200.739C1028.24 197.045 1034.88 194.823 1041.59 193.237C1048.21 191.333 1054.8 189.451 1061.49 187.388C1061.56 187.366 1061.58 187.321 1061.58 187.253C1061.58 187.207 1061.51 187.162 1061.45 187.162Z" fill="#2F52A0" fill-opacity="0.04"/>
<path d="M1512.43 298.32C1512.43 318.063 1491.05 330.417 1473.94 320.534L756.213 -93.7714L38.4883 320.534C21.3748 330.417 0 318.063 0 298.32C0 289.163 4.89599 280.685 12.8294 276.107L756.213 -153L1499.6 276.107C1507.55 280.685 1512.43 289.14 1512.43 298.32Z" fill="#2F52A0" fill-opacity="0.04"/>
</g>
</svg>
