<svg width="1516" height="683" viewBox="0 0 1516 683" fill="none" xmlns="http://www.w3.org/2000/svg">
<mask id="mask0_451_212" style="mask-type:alpha" maskUnits="userSpaceOnUse" x="0" y="0" width="1512" height="683">
<rect width="1512" height="683" fill="white"/>
</mask>
<g mask="url(#mask0_451_212)">
<path d="M1444.52 266.588C1444.52 266.588 1414.96 332.941 1408.34 355.86C1406.94 360.679 1403.53 364.642 1398.85 366.76L1378.26 376.077C1373.81 378.088 1368.76 378.243 1364.19 376.494C1342.04 367.997 1274.4 350.552 1274.4 350.552C1269.81 348.41 1265.4 354.194 1269.1 357.502L1375.53 452.771L1454.72 556.359C1457.45 559.369 1462.73 556.942 1462.07 552.991L1432.88 456.972C1433.18 456.805 1433.13 456.829 1433.43 456.662L1499.43 526.812C1502.72 530.144 1508.4 526.835 1506.91 522.444L1467.67 410.277L1453.36 266.945C1452.86 262.268 1445.83 261.994 1444.52 266.588ZM1448.97 379.445C1449.64 380.837 1450.02 382.277 1450.15 383.717C1450.32 385.609 1450.06 387.501 1449.4 389.262L1440.35 418.191C1440.29 418.357 1440.17 418.476 1440.01 418.536C1439.87 418.607 1439.69 418.619 1439.52 418.559C1439.52 418.559 1409.25 410.491 1403.06 400.222C1399.39 394.117 1402.86 386.133 1409.49 383.134C1414.34 380.932 1419.89 381.849 1423.71 385.038C1423.66 380.147 1426.51 375.435 1431.37 373.233C1438 370.234 1445.9 373.019 1448.97 379.445Z" fill="#2F52A0" fill-opacity="0.05"/>
<path d="M1403.47 287.103C1394.32 261.459 1366.14 247.988 1340.53 257.032C1335.69 258.746 1331.3 261.138 1327.41 264.065C1307.31 249.904 1281.54 237.302 1272.12 257.032C1255.82 291.173 1213.89 330.299 1213.89 330.299C1213.89 330.299 1245.59 347.137 1278.59 302.989C1290.21 287.46 1302.95 280.713 1314.59 278.487C1307.52 290.578 1305.64 305.595 1310.73 319.851C1319.88 345.495 1348.06 358.966 1373.67 349.922C1399.28 340.878 1412.62 312.747 1403.47 287.103Z" fill="#2F52A0" fill-opacity="0.05"/>
<path d="M1588.15 250.428C1580.47 250.428 1573 251.356 1565.84 253.081L1564.14 250.773L1564.34 225.593C1564.95 225.617 1565.56 225.688 1566.17 225.688C1593.38 225.688 1615.43 203.638 1615.43 176.435C1615.43 149.232 1593.38 127.182 1566.17 127.182C1538.97 127.182 1516.92 149.232 1516.92 176.435C1516.92 194.737 1526.93 210.683 1541.74 219.167C1528.29 234.47 1513.81 252.808 1513.51 261.28C1513.4 264.362 1517.65 269.11 1524.54 274.763C1505.02 292.232 1492.73 317.614 1492.73 345.876C1492.73 398.58 1535.45 441.3 1588.15 441.3C1640.86 441.3 1683.58 398.58 1683.58 345.876C1683.59 293.148 1640.86 250.428 1588.15 250.428ZM1588.15 398.151C1559.26 398.151 1535.85 374.733 1535.85 345.852C1535.85 326.348 1546.55 309.367 1562.39 300.371C1579.49 310.771 1597.6 320.922 1610.49 327.955C1614.71 330.263 1619.12 325.206 1616.26 321.327L1596.26 294.231C1621.29 298.122 1640.48 319.72 1640.48 345.852C1640.46 374.733 1617.05 398.151 1588.15 398.151Z" fill="#2F52A0" fill-opacity="0.05"/>
<path d="M1440.63 148.34C1446.88 143.247 1453.45 138.237 1461.21 135.214C1463.11 134.429 1464.97 133.536 1466.91 132.87L1472.98 131.561C1477.01 130.74 1481 129.645 1485.11 130.157C1492.86 129.705 1500.2 131.18 1507.09 133.679C1508.52 108.13 1498.05 87.7342 1498.05 87.7342C1440.1 103.097 1422.47 146.816 1417.64 179.886C1423.26 168.331 1430.62 157.383 1440.63 148.34Z" fill="#2F52A0" fill-opacity="0.05"/>
<path d="M1486.33 143.235C1473.33 145.817 1461.73 151.838 1451.88 160.834C1441.74 169.521 1433.66 181.064 1425.95 192.94C1422.52 198.402 1416.94 220.202 1416.94 220.202C1480.83 202.412 1501.57 170.342 1506.15 142.211C1499.35 141.664 1492.73 141.7 1486.33 143.235Z" fill="#2F52A0" fill-opacity="0.05"/>
<path d="M1281.31 412.122C1272 411.17 1262.44 410.503 1252.98 412.514C1250.64 412.967 1248.27 413.288 1245.96 413.883L1239.25 416.489C1234.81 418.262 1230.26 419.749 1226.59 422.867C1218.8 427.377 1212.62 433.482 1207.54 440.3C1189.87 416.453 1187 390 1187 390C1252.97 367.926 1297.93 399.068 1323.72 428.032C1310.91 420.428 1296.79 414.514 1281.31 412.122Z" fill="#2F52A0" fill-opacity="0.05"/>
<path d="M1233.77 436.326C1248 430.543 1263.1 428.972 1278.38 431.423C1293.75 433.375 1308.94 439.408 1323.99 446.012C1330.8 449.13 1350.11 466.694 1350.11 466.694C1276.84 490.196 1236.28 472.358 1213.91 448C1220.15 443.097 1226.58 438.92 1233.77 436.326Z" fill="#2F52A0" fill-opacity="0.05"/>
<path d="M1239.45 506.57C1234.92 510.937 1230.41 515.555 1227.33 521.302C1226.54 522.706 1225.67 524.063 1224.97 525.503L1223.39 530.084C1222.37 533.142 1221.14 536.129 1221.15 539.378C1220.07 545.351 1220.52 551.182 1221.81 556.763C1201.85 555.454 1187.01 545.399 1187.01 545.399C1204.4 501.882 1239.99 492.338 1266.11 491.707C1256.6 494.98 1247.42 499.668 1239.45 506.57Z" fill="#2F52A0" fill-opacity="0.05"/>
<path d="M1231.17 541.556C1234.4 531.726 1240.17 523.277 1248.08 516.495C1255.78 509.45 1265.49 504.262 1275.45 499.407C1280.01 497.265 1297.45 494.992 1297.45 494.992C1277.62 542.888 1250.78 555.954 1228.52 556.847C1228.72 551.492 1229.37 546.375 1231.17 541.556Z" fill="#2F52A0" fill-opacity="0.05"/>
<path d="M1332.18 225.593C1336.45 224.665 1340.8 223.57 1344.72 221.297C1345.7 220.75 1346.71 220.274 1347.65 219.667L1350.25 217.525C1351.97 216.085 1353.79 214.764 1354.95 212.836C1357.76 209.695 1359.63 206.077 1360.89 202.305C1372.23 210.337 1377.35 221.69 1377.35 221.69C1351.22 241.11 1326.68 233.804 1311 224.677C1317.8 226.212 1324.94 226.783 1332.18 225.593Z" fill="#2F52A0" fill-opacity="0.05"/>
<path d="M1349.8 207.91C1344.32 212.551 1337.82 215.454 1330.67 216.585C1323.54 217.953 1315.91 217.477 1308.25 216.739C1304.77 216.347 1293.61 211.337 1293.61 211.337C1322.79 190.215 1343.42 192.25 1356.93 199.818C1354.87 202.912 1352.62 205.708 1349.8 207.91Z" fill="#2F52A0" fill-opacity="0.05"/>
<path d="M1540.14 526.824C1544.27 518.66 1545.93 509.783 1545.23 500.585C1544.83 491.362 1541.99 482.057 1538.8 472.811C1537.29 468.622 1527.81 456.294 1527.81 456.294C1510.27 498.621 1518.88 523.563 1532.24 538.033C1535.45 534.57 1538.25 530.965 1540.14 526.824Z" fill="#2F52A0" fill-opacity="0.05"/>
<path d="M1353.74 527.752C1362.33 527.752 1369.29 520.789 1369.29 512.199C1369.29 503.609 1362.33 496.646 1353.74 496.646C1345.15 496.646 1338.19 503.609 1338.19 512.199C1338.19 520.789 1345.15 527.752 1353.74 527.752Z" fill="#2F52A0" fill-opacity="0.05"/>
<path d="M1417.64 268.17C1426.23 268.17 1433.19 261.207 1433.19 252.617C1433.19 244.028 1426.23 237.064 1417.64 237.064C1409.05 237.064 1402.09 244.028 1402.09 252.617C1402.09 261.207 1409.05 268.17 1417.64 268.17Z" fill="#2F52A0" fill-opacity="0.05"/>
<path d="M1981 201.936C1981 212.301 1969.78 218.786 1960.79 213.598L1584 -3.9059L1207.21 213.598C1198.22 218.786 1187 212.301 1187 201.936C1187 197.129 1189.57 192.678 1193.74 190.274L1584 -35L1974.26 190.274C1978.44 192.678 1981 197.117 1981 201.936Z" fill="#2F52A0" fill-opacity="0.05"/>
</g>
</svg>
