<svg width="1520" height="516" viewBox="0 0 1520 516" fill="none" xmlns="http://www.w3.org/2000/svg">
<mask id="mask0_384_278" style="mask-type:alpha" maskUnits="userSpaceOnUse" x="0" y="0" width="1520" height="509">
<rect width="1520" height="509" fill="#D9D9D9"/>
</mask>
<g mask="url(#mask0_384_278)">
<path d="M1514.46 372.789C1521.36 367.133 1528.34 361.122 1533.37 353.345C1534.61 351.488 1536.03 349.632 1537.18 347.688L1539.91 341.413C1541.68 337.259 1543.8 333.105 1544.16 328.509C1546.37 320.2 1546.45 311.892 1545.31 303.849C1573.41 308.003 1593.21 324.001 1593.21 324.001C1563.51 383.484 1512.08 392.852 1475.13 390.731C1488.92 387.196 1502.44 381.628 1514.46 372.789Z" fill="#52AE32"/>
<path d="M1514.46 372.789C1521.36 367.133 1528.34 361.122 1533.37 353.345C1534.61 351.488 1536.03 349.632 1537.18 347.688L1539.91 341.413C1541.68 337.259 1543.8 333.105 1544.16 328.509C1546.37 320.2 1546.45 311.892 1545.31 303.849C1573.41 308.003 1593.21 324.001 1593.21 324.001C1563.51 383.484 1512.08 392.852 1475.13 390.731C1488.92 387.196 1502.44 381.628 1514.46 372.789Z" fill="black" fill-opacity="0.2"/>
<path d="M1530.28 324.266C1524.54 337.789 1515.43 349.102 1503.41 357.764C1491.66 366.867 1477.34 373.054 1462.76 378.711C1456.04 381.186 1431.12 382.423 1431.12 382.423C1464.79 317.019 1504.21 301.64 1535.85 302.965C1534.88 310.478 1533.37 317.637 1530.28 324.266Z" fill="#52AE32"/>
<path d="M1530.28 324.266C1524.54 337.789 1515.43 349.102 1503.41 357.764C1491.66 366.867 1477.34 373.054 1462.76 378.711C1456.04 381.186 1431.12 382.423 1431.12 382.423C1464.79 317.019 1504.21 301.64 1535.85 302.965C1534.88 310.478 1533.37 317.637 1530.28 324.266Z" fill="black" fill-opacity="0.2"/>
<path d="M1478.93 280.604C1479.02 274.594 1478.93 268.407 1477.17 262.485C1476.72 260.983 1476.46 259.48 1475.93 258.066L1473.9 253.912C1472.48 251.172 1471.33 248.344 1469.12 246.134C1465.85 241.361 1461.61 237.738 1456.93 234.821C1471.33 222.182 1488.13 219 1488.13 219C1505.8 260.187 1488.21 290.68 1470.98 308.799C1475.22 300.049 1478.23 290.68 1478.93 280.604Z" fill="#52AE32"/>
<path d="M1478.93 280.604C1479.02 274.594 1478.93 268.407 1477.17 262.485C1476.72 260.983 1476.46 259.48 1475.93 258.066L1473.9 253.912C1472.48 251.172 1471.33 248.344 1469.12 246.134C1465.85 241.361 1461.61 237.738 1456.93 234.821C1471.33 222.182 1488.13 219 1488.13 219C1505.8 260.187 1488.21 290.68 1470.98 308.799C1475.22 300.049 1478.23 290.68 1478.93 280.604Z" fill="black" fill-opacity="0.2"/>
<path d="M1460.91 251.349C1465.32 260.187 1467.18 269.821 1466.38 279.72C1465.94 289.708 1462.85 299.783 1459.4 309.771C1457.81 314.278 1447.47 327.625 1447.47 327.625C1428.47 281.841 1437.84 254.884 1452.24 239.24C1455.87 242.952 1458.87 246.93 1460.91 251.349Z" fill="#52AE32"/>
<path d="M1460.91 251.349C1465.32 260.187 1467.18 269.821 1466.38 279.72C1465.94 289.708 1462.85 299.783 1459.4 309.771C1457.81 314.278 1447.47 327.625 1447.47 327.625C1428.47 281.841 1437.84 254.884 1452.24 239.24C1455.87 242.952 1458.87 246.93 1460.91 251.349Z" fill="black" fill-opacity="0.2"/>
<path d="M1387.37 364.569C1381.54 358.736 1381.54 349.367 1387.37 343.534C1393.21 337.7 1402.58 337.7 1408.41 343.534C1414.24 349.367 1414.24 358.736 1408.41 364.569C1402.58 370.403 1393.21 370.403 1387.37 364.569Z" fill="#FBBA00"/>
<path d="M26.6562 422.157C38.167 402.292 43.6176 380.276 43.1782 357.15C43.4785 333.999 37.704 310.269 31.0529 286.63C27.8558 275.921 5.86496 243.689 5.86496 243.689C-44.1272 347.245 -26.1307 410.975 5.27556 449.143C13.8103 440.904 21.3242 432.254 26.6562 422.157Z" fill="#FBBA00"/>
<path d="M99.0423 315.433C104.423 312.612 110.029 309.89 116.225 308.822C117.753 308.528 119.256 308.146 120.789 307.952L125.471 307.898C128.585 307.898 131.689 307.689 134.66 308.688C140.456 309.521 145.658 311.714 150.381 314.591C155.272 295.925 150.598 279.27 150.598 279.27C105.442 281.908 85.8524 311.581 77.2998 335.299C83.1878 327.608 90.2809 320.619 99.0423 315.433Z" fill="#52AE32"/>
<path d="M133.591 318.53C123.597 318.48 114.116 321.187 105.484 326.367C96.6787 331.265 88.9707 338.583 81.4878 346.211C78.133 349.735 70.7268 365.008 70.7268 365.008C120.634 361.461 140.79 340.881 148.395 320.763C143.44 319.329 138.558 318.362 133.591 318.53Z" fill="#52AE32"/>
<path d="M62.3476 318.096C56.8753 318.359 52.2261 314.135 51.9634 308.663C51.7007 303.191 55.924 298.541 61.3963 298.279C66.8687 298.016 71.5179 302.239 71.7806 307.712C72.0433 313.184 67.82 317.833 62.3476 318.096Z" fill="#E60064"/>
<path d="M1279.6 41.2762C1335.65 41.2762 1381.08 -4.1572 1381.08 -60.2021C1381.08 -116.247 1335.65 -161.68 1279.6 -161.68C1223.56 -161.68 1178.12 -116.247 1178.12 -60.2021C1178.12 -4.1572 1223.56 41.2762 1279.6 41.2762Z" fill="#2F52A0" fill-opacity="0.04"/>
<path d="M1067.23 214.044L1071.28 -60.0796C1071.06 -70.5757 1086.11 -73.126 1090.23 -63.3166C1090.23 -63.3166 1160.76 31.4421 1180.26 78.7725C1183.99 87.8217 1191.39 94.8109 1200.71 97.7782L1252.41 114.234C1261.11 117.005 1270.51 116.024 1278.45 111.536C1321.49 87.1595 1466.18 28.0826 1466.18 28.0826C1475.45 22.0498 1486.61 33.6493 1479.57 42.0118L1277.54 282.661L1136.46 534.224C1131.46 541.654 1119.39 537.73 1119.66 528.804L1155.27 308.018C1154.63 307.7 1154.66 307.7 1154.02 307.381L1113.04 346.913C1104.82 354.834 1093.05 357.826 1082.04 354.785C1067.11 350.665 1057.22 336.515 1058.5 321.09L1067.23 214.044Z" fill="#2F52A0" fill-opacity="0.04"/>
<path d="M1087.09 397.164C1087.55 385.376 1078.36 375.449 1066.57 374.993C1054.78 374.536 1044.86 383.722 1044.4 395.511C1043.94 407.3 1053.13 417.226 1064.92 417.683C1076.71 418.139 1086.63 408.953 1087.09 397.164Z" fill="#2F52A0" fill-opacity="0.04"/>
<path d="M1040.96 505.31C1056.61 505.31 1069.29 492.629 1069.29 476.985C1069.29 461.342 1056.61 448.661 1040.96 448.661C1025.32 448.661 1012.64 461.342 1012.64 476.985C1012.64 492.629 1025.32 505.31 1040.96 505.31Z" fill="#2F52A0" fill-opacity="0.04"/>
<path d="M518.172 -60.0307C518.172 -60.0307 457.255 76.7125 443.596 123.945C440.726 133.877 433.688 142.043 424.051 146.408L381.625 165.61C372.453 169.755 362.031 170.073 352.614 166.468C306.975 148.959 167.584 113.007 167.584 113.007C158.117 108.593 149.019 120.511 156.646 127.329L375.985 323.664L539.188 537.142C544.804 543.346 555.693 538.343 554.344 530.201L494.188 332.321C494.801 331.978 494.703 332.027 495.316 331.683L631.323 476.25C638.116 483.116 649.814 476.299 646.749 467.249L565.87 236.091L536.393 -59.2949C535.363 -68.9326 520.869 -69.4968 518.172 -60.0307ZM527.344 172.55C528.717 175.419 529.502 178.387 529.771 181.354C530.115 185.254 529.575 189.153 528.226 192.782L509.564 252.399C509.441 252.742 509.196 252.988 508.877 253.11C508.583 253.257 508.215 253.282 507.872 253.159C507.872 253.159 445.484 236.532 432.732 215.369C425.154 202.788 432.315 186.333 445.975 180.153C455.98 175.616 467.408 177.504 475.28 184.076C475.182 173.997 481.043 164.286 491.073 159.749C504.733 153.569 521.017 159.308 527.344 172.55Z" fill="#2F52A0" fill-opacity="0.04"/>
<path d="M433.566 -17.7519C414.707 -70.6001 356.635 -98.3608 303.861 -79.7229C293.88 -76.1915 284.831 -71.2622 276.811 -65.2294C235.391 -94.4124 182.298 -120.383 162.875 -79.7229C129.278 -9.36494 42.8816 71.2685 42.8816 71.2685C42.8816 71.2685 108.212 105.969 176.216 14.9869C200.151 -17.0163 226.416 -30.921 250.4 -35.5069C235.833 -10.591 231.958 20.3577 242.454 49.7368C261.312 102.585 319.384 130.346 372.159 111.708C424.933 93.0699 452.424 35.0962 433.566 -17.7519Z" fill="#2F52A0" fill-opacity="0.04"/>
<path d="M814.171 -93.3333C798.329 -93.3333 782.953 -91.4206 768.189 -87.8646L764.683 -92.6224L765.099 -144.514C766.35 -144.465 767.601 -144.318 768.876 -144.318C824.937 -144.318 870.379 -189.76 870.379 -245.821C870.379 -301.881 824.937 -347.324 768.876 -347.324C712.815 -347.324 667.373 -301.881 667.373 -245.821C667.373 -208.104 687.998 -175.242 718.529 -157.757C690.793 -126.219 660.973 -88.4286 660.335 -70.9679C660.114 -64.6163 668.869 -54.8315 683.068 -43.1829C642.85 -7.18233 617.517 45.1264 617.517 103.37C617.517 211.984 705.556 300.024 814.171 300.024C922.786 300.024 1010.83 211.984 1010.83 103.37C1010.85 -5.294 922.786 -93.3333 814.171 -93.3333ZM814.171 211.102C754.628 211.102 706.39 162.839 706.39 103.321C706.39 63.1266 728.437 28.1316 761.078 9.5918C796.318 31.0254 833.643 51.9441 860.202 66.4375C868.908 71.195 877.981 60.7724 872.096 52.7777L830.872 -3.06242C882.469 4.95678 922.001 49.467 922.001 103.321C921.977 162.839 873.714 211.102 814.171 211.102Z" fill="#2F52A0" fill-opacity="0.04"/>
<path d="M1370.63 381.687C1357.56 395.837 1344.62 410.747 1336.23 428.846C1334.07 433.285 1331.67 437.576 1329.8 442.089L1325.78 456.386C1323.21 465.901 1320.02 475.244 1320.63 485.152C1318.4 503.569 1320.83 521.324 1325.76 538.123C1264.57 537.706 1217.46 509.676 1217.46 509.676C1262.76 373.644 1369.73 338.133 1449.36 331.512C1420.96 343.21 1393.74 359.15 1370.63 381.687Z" fill="#2F52A0" fill-opacity="0.04"/>
<path d="M1351.65 489.983C1359.75 459.378 1375.86 432.549 1398.79 410.404C1421.03 387.499 1449.77 369.941 1479.3 353.314C1492.84 345.957 1545.71 335.877 1545.71 335.877C1493.72 485.692 1414.11 530.447 1346.28 537.142C1345.94 520.809 1347.02 505.041 1351.65 489.983Z" fill="#2F52A0" fill-opacity="0.04"/>
<path d="M181.808 239.892C162.63 237.93 142.938 236.557 123.442 240.701C118.611 241.633 113.731 242.296 108.973 243.522L95.1417 248.892C85.9944 252.546 76.6019 255.612 69.0486 262.037C52.9857 271.331 40.258 283.912 29.7865 297.964C-6.63097 248.819 -12.541 194.303 -12.541 194.303C123.417 148.812 216.067 212.99 269.21 272.68C242.822 257.01 213.713 244.822 181.808 239.892Z" fill="#2F52A0" fill-opacity="0.04"/>
<path d="M83.8365 289.773C113.167 277.854 144.287 274.617 175.775 279.669C207.46 283.691 238.751 296.125 269.774 309.735C283.801 316.16 323.603 352.357 323.603 352.357C172.612 400.791 89.011 364.03 42.9067 313.831C55.7816 303.727 69.0243 295.119 83.8365 289.773Z" fill="#2F52A0" fill-opacity="0.04"/>
<path d="M1593.14 209.091C1584.14 199.747 1574.62 190.453 1562.78 184.101C1559.88 182.483 1557.09 180.692 1554.12 179.246L1544.68 175.984C1538.38 173.875 1532.22 171.349 1525.53 171.373C1513.21 169.142 1501.2 170.074 1489.7 172.722C1492.39 131.596 1513.12 101.016 1513.12 101.016C1602.8 136.844 1622.47 210.194 1623.77 264.023C1617.05 244.454 1607.38 225.521 1593.14 209.091Z" fill="#2F52A0" fill-opacity="0.04"/>
<path d="M1521.06 192.047C1541.32 198.693 1558.73 210.586 1572.71 226.895C1587.23 242.761 1597.92 262.772 1607.92 283.299C1612.34 292.691 1617.02 328.643 1617.02 328.643C1518.32 287.762 1491.39 232.462 1489.55 186.578C1500.56 186.995 1511.13 188.344 1521.06 192.047Z" fill="#2F52A0" fill-opacity="0.04"/>
<path d="M95.5588 434.535C86.2153 443.535 76.9209 453.051 70.5693 464.895C68.9508 467.789 67.1606 470.585 65.7137 473.552L62.4521 482.994C60.343 489.296 57.8171 495.452 57.8416 502.147C55.61 514.457 56.542 526.474 59.1905 537.975C18.0646 535.278 -12.5164 514.556 -12.5164 514.556C23.3125 424.873 96.6624 405.205 150.492 403.906C130.897 410.649 111.965 420.312 95.5588 434.535Z" fill="#2F52A0" fill-opacity="0.04"/>
<path d="M78.4898 506.635C85.1357 486.378 97.0295 468.966 113.338 454.988C129.204 440.47 149.216 429.778 169.742 419.772C179.134 415.358 215.086 410.674 215.086 410.674C174.205 509.381 118.904 536.308 73.021 538.147C73.4379 527.112 74.7868 516.567 78.4898 506.635Z" fill="#2F52A0" fill-opacity="0.04"/>
<path d="M749.625 420.581C749.846 432.058 749.699 443.805 746.29 455.184C745.506 458.004 744.868 460.874 743.912 463.62L740.037 471.566C737.413 476.814 735.132 482.234 730.963 486.403C724.661 495.476 716.568 502.416 707.715 507.959C735.108 531.992 767.16 538.147 767.16 538.147C800.806 459.697 767.258 401.576 734.445 367.12C742.464 383.527 748.252 401.404 749.625 420.581Z" fill="#2F52A0" fill-opacity="0.04"/>
<path d="M715.219 476.274C723.729 459.451 727.162 441.157 725.715 422.2C724.881 403.194 719.045 384.017 712.472 364.962C709.358 356.33 689.813 330.923 689.813 330.923C653.665 418.154 671.42 469.555 698.935 499.375C705.557 492.239 711.32 484.809 715.219 476.274Z" fill="#2F52A0" fill-opacity="0.04"/>
<path d="M959.596 436.13C945.299 444.198 930.413 452.021 913.786 455.454C909.691 456.386 905.669 457.539 901.549 458.201L888.919 458.74C880.532 459.01 872.145 459.844 864.077 457.391C848.358 455.65 834.134 450.181 821.161 442.8C809.561 493.588 823.589 538.123 823.589 538.123C945.176 527.112 995.498 445.399 1016.54 380.682C1001.31 401.943 982.771 421.391 959.596 436.13Z" fill="#2F52A0" fill-opacity="0.04"/>
<path d="M866.113 430.734C893.064 429.998 918.422 421.881 941.278 407.192C964.6 393.213 984.782 372.834 1004.3 351.621C1013.03 341.836 1031.72 299.975 1031.72 299.975C897.405 313.806 844.778 371.069 825.968 425.977C839.456 429.459 852.748 431.641 866.113 430.734Z" fill="#2F52A0" fill-opacity="0.04"/>
<path d="M1402.91 278.639C1420.61 278.639 1434.96 264.289 1434.96 246.587C1434.96 228.885 1420.61 214.535 1402.91 214.535C1385.21 214.535 1370.85 228.885 1370.85 246.587C1370.85 264.289 1385.21 278.639 1402.91 278.639Z" fill="#2F52A0" fill-opacity="0.04"/>
<path d="M331.083 478.187C348.785 478.187 363.135 463.837 363.135 446.135C363.135 428.433 348.785 414.083 331.083 414.083C313.381 414.083 299.031 428.433 299.031 446.135C299.031 463.837 313.381 478.187 331.083 478.187Z" fill="#2F52A0" fill-opacity="0.04"/>
</g>
</svg>
