<svg width="1520" height="1162" viewBox="0 0 1520 1162" fill="none" xmlns="http://www.w3.org/2000/svg">
<mask id="mask0_489_264" style="mask-type:alpha" maskUnits="userSpaceOnUse" x="0" y="0" width="1520" height="1162">
<rect width="1520" height="1162" fill="#D9D9D9"/>
</mask>
<g mask="url(#mask0_489_264)">
<rect x="4" width="1512" height="1159" fill="#2F52A0" fill-opacity="0.05"/>
<path d="M1514.46 1136.79C1521.36 1131.13 1528.34 1125.12 1533.37 1117.34C1534.61 1115.49 1536.03 1113.63 1537.18 1111.69L1539.91 1105.41C1541.68 1101.26 1543.8 1097.1 1544.16 1092.51C1546.37 1084.2 1546.45 1075.89 1545.31 1067.85C1573.41 1072 1593.21 1088 1593.21 1088C1563.51 1147.48 1512.08 1156.85 1475.13 1154.73C1488.92 1151.2 1502.44 1145.63 1514.46 1136.79Z" fill="#52AE32"/>
<path d="M1514.46 1136.79C1521.36 1131.13 1528.34 1125.12 1533.37 1117.34C1534.61 1115.49 1536.03 1113.63 1537.18 1111.69L1539.91 1105.41C1541.68 1101.26 1543.8 1097.1 1544.16 1092.51C1546.37 1084.2 1546.45 1075.89 1545.31 1067.85C1573.41 1072 1593.21 1088 1593.21 1088C1563.51 1147.48 1512.08 1156.85 1475.13 1154.73C1488.92 1151.2 1502.44 1145.63 1514.46 1136.79Z" fill="black" fill-opacity="0.2"/>
<path d="M1530.28 1088.27C1524.54 1101.79 1515.43 1113.1 1503.41 1121.76C1491.66 1130.87 1477.34 1137.05 1462.76 1142.71C1456.04 1145.19 1431.12 1146.42 1431.12 1146.42C1464.79 1081.02 1504.21 1065.64 1535.85 1066.97C1534.88 1074.48 1533.37 1081.64 1530.28 1088.27Z" fill="#52AE32"/>
<path d="M1530.28 1088.27C1524.54 1101.79 1515.43 1113.1 1503.41 1121.76C1491.66 1130.87 1477.34 1137.05 1462.76 1142.71C1456.04 1145.19 1431.12 1146.42 1431.12 1146.42C1464.79 1081.02 1504.21 1065.64 1535.85 1066.97C1534.88 1074.48 1533.37 1081.64 1530.28 1088.27Z" fill="black" fill-opacity="0.2"/>
<path d="M1478.93 1044.6C1479.02 1038.59 1478.93 1032.41 1477.17 1026.49C1476.72 1024.98 1476.46 1023.48 1475.93 1022.07L1473.9 1017.91C1472.48 1015.17 1471.33 1012.34 1469.12 1010.13C1465.85 1005.36 1461.61 1001.74 1456.93 998.821C1471.33 986.182 1488.13 983 1488.13 983C1505.8 1024.19 1488.21 1054.68 1470.98 1072.8C1475.22 1064.05 1478.23 1054.68 1478.93 1044.6Z" fill="#52AE32"/>
<path d="M1478.93 1044.6C1479.02 1038.59 1478.93 1032.41 1477.17 1026.49C1476.72 1024.98 1476.46 1023.48 1475.93 1022.07L1473.9 1017.91C1472.48 1015.17 1471.33 1012.34 1469.12 1010.13C1465.85 1005.36 1461.61 1001.74 1456.93 998.821C1471.33 986.182 1488.13 983 1488.13 983C1505.8 1024.19 1488.21 1054.68 1470.98 1072.8C1475.22 1064.05 1478.23 1054.68 1478.93 1044.6Z" fill="black" fill-opacity="0.2"/>
<path d="M1460.91 1015.35C1465.32 1024.19 1467.18 1033.82 1466.38 1043.72C1465.94 1053.71 1462.85 1063.78 1459.4 1073.77C1457.81 1078.28 1447.47 1091.62 1447.47 1091.62C1428.47 1045.84 1437.84 1018.88 1452.24 1003.24C1455.87 1006.95 1458.87 1010.93 1460.91 1015.35Z" fill="#52AE32"/>
<path d="M1460.91 1015.35C1465.32 1024.19 1467.18 1033.82 1466.38 1043.72C1465.94 1053.71 1462.85 1063.78 1459.4 1073.77C1457.81 1078.28 1447.47 1091.62 1447.47 1091.62C1428.47 1045.84 1437.84 1018.88 1452.24 1003.24C1455.87 1006.95 1458.87 1010.93 1460.91 1015.35Z" fill="black" fill-opacity="0.2"/>
<path d="M1387.37 1128.57C1381.54 1122.74 1381.54 1113.37 1387.37 1107.53C1393.21 1101.7 1402.58 1101.7 1408.41 1107.53C1414.24 1113.37 1414.24 1122.74 1408.41 1128.57C1402.58 1134.4 1393.21 1134.4 1387.37 1128.57Z" fill="#FBBA00"/>
<path d="M26.6562 1125.38C38.167 1105.51 43.6176 1083.5 43.1782 1060.37C43.4785 1037.22 37.704 1013.49 31.0529 989.852C27.8558 979.143 5.86496 946.911 5.86496 946.911C-44.1272 1050.47 -26.1307 1114.2 5.27556 1152.37C13.8103 1144.13 21.3242 1135.48 26.6562 1125.38Z" fill="#FBBA00"/>
<path d="M99.0423 1018.66C104.423 1015.83 110.029 1013.11 116.225 1012.04C117.753 1011.75 119.256 1011.37 120.789 1011.17L125.471 1011.12C128.585 1011.12 131.689 1010.91 134.66 1011.91C140.456 1012.74 145.658 1014.94 150.381 1017.81C155.272 999.147 150.598 982.492 150.598 982.492C105.442 985.13 85.8524 1014.8 77.2998 1038.52C83.1878 1030.83 90.2809 1023.84 99.0423 1018.66Z" fill="#52AE32"/>
<path d="M133.591 1021.75C123.597 1021.7 114.116 1024.41 105.484 1029.59C96.6787 1034.49 88.9707 1041.81 81.4878 1049.43C78.133 1052.96 70.7268 1068.23 70.7268 1068.23C120.634 1064.68 140.79 1044.1 148.395 1023.99C143.44 1022.55 138.558 1021.58 133.591 1021.75Z" fill="#52AE32"/>
<path d="M62.3476 1021.32C56.8753 1021.58 52.2261 1017.36 51.9634 1011.89C51.7007 1006.41 55.924 1001.76 61.3963 1001.5C66.8687 1001.24 71.5179 1005.46 71.7806 1010.93C72.0433 1016.41 67.82 1021.06 62.3476 1021.32Z" fill="#E60064"/>
<path d="M1279.6 644.831C1335.65 644.831 1381.08 599.397 1381.08 543.352C1381.08 487.307 1335.65 441.874 1279.6 441.874C1223.56 441.874 1178.12 487.307 1178.12 543.352C1178.12 599.397 1223.56 644.831 1279.6 644.831Z" fill="#2F52A0" fill-opacity="0.04"/>
<path d="M1067.23 817.599L1071.28 543.475C1071.06 532.979 1086.11 530.429 1090.23 540.238C1090.23 540.238 1160.76 634.997 1180.26 682.327C1183.99 691.376 1191.39 698.365 1200.71 701.333L1252.41 717.788C1261.11 720.559 1270.51 719.578 1278.45 715.09C1321.49 690.714 1466.18 631.637 1466.18 631.637C1475.45 625.604 1486.61 637.204 1479.57 645.566L1277.54 886.216L1136.46 1137.78C1131.46 1145.21 1119.39 1141.28 1119.66 1132.36L1155.27 911.573C1154.63 911.254 1154.66 911.254 1154.02 910.936L1113.04 950.467C1104.82 958.389 1093.05 961.38 1082.04 958.339C1067.11 954.219 1057.22 940.069 1058.5 924.644L1067.23 817.599Z" fill="#2F52A0" fill-opacity="0.04"/>
<path d="M1087.09 1000.72C1087.55 988.93 1078.36 979.004 1066.57 978.547C1054.78 978.091 1044.86 987.277 1044.4 999.065C1043.94 1010.85 1053.13 1020.78 1064.92 1021.24C1076.71 1021.69 1086.63 1012.51 1087.09 1000.72Z" fill="#2F52A0" fill-opacity="0.04"/>
<path d="M1040.96 1108.86C1056.61 1108.86 1069.29 1096.18 1069.29 1080.54C1069.29 1064.9 1056.61 1052.22 1040.96 1052.22C1025.32 1052.22 1012.64 1064.9 1012.64 1080.54C1012.64 1096.18 1025.32 1108.86 1040.96 1108.86Z" fill="#2F52A0" fill-opacity="0.04"/>
<path d="M518.172 543.524C518.172 543.524 457.255 680.267 443.596 727.499C440.726 737.431 433.688 745.598 424.051 749.963L381.625 769.165C372.453 773.309 362.031 773.628 352.614 770.023C306.975 752.513 167.584 716.562 167.584 716.562C158.117 712.148 149.019 724.066 156.646 730.884L375.985 927.219L539.188 1140.7C544.804 1146.9 555.693 1141.9 554.344 1133.76L494.188 935.876C494.801 935.532 494.703 935.581 495.316 935.238L631.323 1079.8C638.116 1086.67 649.814 1079.85 646.749 1070.8L565.87 839.645L536.393 544.26C535.363 534.622 520.869 534.058 518.172 543.524ZM527.344 776.105C528.717 778.974 529.502 781.942 529.771 784.909C530.115 788.808 529.575 792.707 528.226 796.337L509.564 855.953C509.441 856.297 509.196 856.542 508.877 856.665C508.583 856.812 508.215 856.836 507.872 856.714C507.872 856.714 445.484 840.087 432.732 818.923C425.154 806.342 432.315 789.887 445.975 783.707C455.98 779.17 467.408 781.059 475.28 787.631C475.182 777.552 481.043 767.84 491.073 763.304C504.733 757.124 521.017 762.862 527.344 776.105Z" fill="#2F52A0" fill-opacity="0.04"/>
<path d="M433.566 585.803C414.707 532.954 356.635 505.194 303.861 523.832C293.88 527.363 284.831 532.292 276.811 538.325C235.391 509.142 182.298 483.172 162.875 523.832C129.278 594.19 42.8816 674.823 42.8816 674.823C42.8816 674.823 108.212 709.524 176.216 618.541C200.151 586.538 226.416 572.633 250.4 568.048C235.833 592.963 231.958 623.912 242.454 653.291C261.312 706.14 319.384 733.9 372.159 715.262C424.933 696.624 452.424 638.651 433.566 585.803Z" fill="#2F52A0" fill-opacity="0.04"/>
<path d="M814.171 510.221C798.329 510.221 782.953 512.134 768.189 515.69L764.683 510.932L765.099 459.041C766.35 459.09 767.601 459.237 768.876 459.237C824.937 459.237 870.379 413.795 870.379 357.734C870.379 301.673 824.937 256.231 768.876 256.231C712.815 256.231 667.373 301.673 667.373 357.734C667.373 395.451 687.998 428.313 718.529 445.798C690.793 477.335 660.973 515.126 660.335 532.587C660.114 538.938 668.869 548.723 683.068 560.372C642.85 596.372 617.517 648.681 617.517 706.924C617.517 815.539 705.556 903.578 814.171 903.578C922.786 903.578 1010.83 815.539 1010.83 706.924C1010.85 598.261 922.786 510.221 814.171 510.221ZM814.171 814.656C754.628 814.656 706.39 766.394 706.39 706.875C706.39 666.681 728.437 631.686 761.078 613.146C796.318 634.58 833.643 655.499 860.202 669.992C868.908 674.75 877.981 664.327 872.096 656.332L830.872 600.492C882.469 608.511 922.001 653.021 922.001 706.875C921.977 766.394 873.714 814.656 814.171 814.656Z" fill="#2F52A0" fill-opacity="0.04"/>
<path d="M510.153 299.834C523.028 289.338 536.565 279.013 552.555 272.784C556.478 271.166 560.304 269.326 564.302 267.953L576.809 265.256C585.122 263.564 593.337 261.307 601.822 262.362C617.787 261.43 632.918 264.471 647.117 269.621C650.06 216.969 628.479 174.936 628.479 174.936C509.05 206.595 472.731 296.695 462.774 364.846C474.349 341.033 489.529 318.472 510.153 299.834Z" fill="#2F52A0" fill-opacity="0.04"/>
<path d="M604.323 289.313C577.544 294.635 553.633 307.044 533.328 325.584C512.434 343.486 495.782 367.273 479.891 391.748C472.828 403.004 461.327 447.931 461.327 447.931C592.993 411.269 635.738 345.178 645.18 287.204C631.152 286.076 617.517 286.15 604.323 289.313Z" fill="#2F52A0" fill-opacity="0.04"/>
<path d="M1370.63 985.242C1357.56 999.392 1344.62 1014.3 1336.23 1032.4C1334.07 1036.84 1331.67 1041.13 1329.8 1045.64L1325.78 1059.94C1323.21 1069.46 1320.02 1078.8 1320.63 1088.71C1318.4 1107.12 1320.83 1124.88 1325.76 1141.68C1264.57 1141.26 1217.46 1113.23 1217.46 1113.23C1262.76 977.198 1369.73 941.688 1449.36 935.067C1420.96 946.764 1393.74 962.705 1370.63 985.242Z" fill="#2F52A0" fill-opacity="0.04"/>
<path d="M1351.65 1093.54C1359.75 1062.93 1375.86 1036.1 1398.79 1013.96C1421.03 991.054 1449.77 973.495 1479.3 956.868C1492.84 949.511 1545.71 939.432 1545.71 939.432C1493.72 1089.25 1414.11 1134 1346.28 1140.7C1345.94 1124.36 1347.02 1108.6 1351.65 1093.54Z" fill="#2F52A0" fill-opacity="0.04"/>
<path d="M181.808 843.447C162.63 841.485 142.938 840.112 123.442 844.256C118.611 845.188 113.731 845.85 108.973 847.076L95.1417 852.447C85.9944 856.101 76.6019 859.166 69.0486 865.591C52.9857 874.886 40.258 887.466 29.7865 901.518C-6.63097 852.373 -12.541 797.857 -12.541 797.857C123.417 752.366 216.067 816.544 269.21 876.235C242.822 860.564 213.713 848.376 181.808 843.447Z" fill="#2F52A0" fill-opacity="0.04"/>
<path d="M83.8365 893.327C113.167 881.409 144.287 878.172 175.775 883.224C207.46 887.246 238.751 899.679 269.774 913.29C283.801 919.715 323.603 955.911 323.603 955.911C172.612 1004.35 89.011 967.585 42.9067 917.385C55.7816 907.281 69.0243 898.674 83.8365 893.327Z" fill="#2F52A0" fill-opacity="0.04"/>
<path d="M1593.14 812.645C1584.14 803.302 1574.62 794.007 1562.78 787.656C1559.88 786.037 1557.09 784.247 1554.12 782.8L1544.68 779.538C1538.38 777.429 1532.22 774.903 1525.53 774.928C1513.21 772.696 1501.2 773.628 1489.7 776.277C1492.39 735.151 1513.12 704.57 1513.12 704.57C1602.8 740.399 1622.47 813.749 1623.77 867.578C1617.05 848.008 1607.38 829.076 1593.14 812.645Z" fill="#2F52A0" fill-opacity="0.04"/>
<path d="M1521.06 795.601C1541.32 802.247 1558.73 814.141 1572.71 830.449C1587.23 846.316 1597.92 866.327 1607.92 886.853C1612.34 896.246 1617.02 932.197 1617.02 932.197C1518.32 891.316 1491.39 836.016 1489.55 790.133C1500.56 790.549 1511.13 791.898 1521.06 795.601Z" fill="#2F52A0" fill-opacity="0.04"/>
<path d="M95.5588 1038.09C86.2153 1047.09 76.9209 1056.61 70.5693 1068.45C68.9508 1071.34 67.1606 1074.14 65.7137 1077.11L62.4521 1086.55C60.343 1092.85 57.8171 1099.01 57.8416 1105.7C55.61 1118.01 56.542 1130.03 59.1905 1141.53C18.0646 1138.83 -12.5164 1118.11 -12.5164 1118.11C23.3125 1028.43 96.6624 1008.76 150.492 1007.46C130.897 1014.2 111.965 1023.87 95.5588 1038.09Z" fill="#2F52A0" fill-opacity="0.04"/>
<path d="M78.4898 1110.19C85.1357 1089.93 97.0295 1072.52 113.338 1058.54C129.204 1044.02 149.216 1033.33 169.742 1023.33C179.134 1018.91 215.086 1014.23 215.086 1014.23C174.205 1112.94 118.904 1139.86 73.021 1141.7C73.4379 1130.67 74.7868 1120.12 78.4898 1110.19Z" fill="#2F52A0" fill-opacity="0.04"/>
<path d="M286.646 459.041C295.45 457.128 304.426 454.872 312.494 450.188C314.505 449.06 316.59 448.079 318.527 446.828L323.898 442.414C327.429 439.446 331.181 436.724 333.584 432.751C339.372 426.277 343.222 418.822 345.822 411.048C369.192 427.601 379.738 450.997 379.738 450.997C325.884 491.019 275.317 475.962 242.995 457.152C257.022 460.316 271.736 461.493 286.646 459.041Z" fill="#2F52A0" fill-opacity="0.04"/>
<path d="M322.965 422.599C311.66 432.163 298.27 438.146 283.531 440.476C268.842 443.296 253.122 442.315 237.329 440.795C230.168 439.986 207.165 429.661 207.165 429.661C267.297 386.132 309.821 390.326 337.655 405.923C333.412 412.299 328.777 418.062 322.965 422.599Z" fill="#2F52A0" fill-opacity="0.04"/>
<path d="M749.625 1024.14C749.846 1035.61 749.699 1047.36 746.29 1058.74C745.506 1061.56 744.868 1064.43 743.912 1067.17L740.037 1075.12C737.413 1080.37 735.132 1085.79 730.963 1089.96C724.661 1099.03 716.568 1105.97 707.715 1111.51C735.108 1135.55 767.16 1141.7 767.16 1141.7C800.806 1063.25 767.258 1005.13 734.445 970.675C742.464 987.081 748.252 1004.96 749.625 1024.14Z" fill="#2F52A0" fill-opacity="0.04"/>
<path d="M715.219 1079.83C723.729 1063.01 727.162 1044.71 725.715 1025.75C724.881 1006.75 719.045 987.571 712.472 968.517C709.358 959.884 689.813 934.478 689.813 934.478C653.665 1021.71 671.42 1073.11 698.935 1102.93C705.557 1095.79 711.32 1088.36 715.219 1079.83Z" fill="#2F52A0" fill-opacity="0.04"/>
<path d="M959.596 1039.68C945.299 1047.75 930.413 1055.58 913.786 1059.01C909.691 1059.94 905.669 1061.09 901.549 1061.76L888.919 1062.29C880.532 1062.56 872.145 1063.4 864.077 1060.95C848.358 1059.2 834.134 1053.74 821.161 1046.35C809.561 1097.14 823.589 1141.68 823.589 1141.68C945.176 1130.67 995.498 1048.95 1016.54 984.236C1001.31 1005.5 982.771 1024.95 959.596 1039.68Z" fill="#2F52A0" fill-opacity="0.04"/>
<path d="M866.113 1034.29C893.064 1033.55 918.422 1025.44 941.278 1010.75C964.6 996.768 984.782 976.389 1004.3 955.176C1013.03 945.391 1031.72 903.529 1031.72 903.529C897.405 917.361 844.778 974.623 825.968 1029.53C839.456 1033.01 852.748 1035.2 866.113 1034.29Z" fill="#2F52A0" fill-opacity="0.04"/>
<path d="M1402.91 882.194C1420.61 882.194 1434.96 867.844 1434.96 850.142C1434.96 832.44 1420.61 818.089 1402.91 818.089C1385.21 818.089 1370.85 832.44 1370.85 850.142C1370.85 867.844 1385.21 882.194 1402.91 882.194Z" fill="#2F52A0" fill-opacity="0.04"/>
<path d="M1463.31 567.778C1481.01 567.778 1495.36 553.428 1495.36 535.726C1495.36 518.024 1481.01 503.673 1463.31 503.673C1445.61 503.673 1431.26 518.024 1431.26 535.726C1431.26 553.428 1445.61 567.778 1463.31 567.778Z" fill="#2F52A0" fill-opacity="0.04"/>
<path d="M805.612 224.154C823.314 224.154 837.665 209.804 837.665 192.102C837.665 174.4 823.314 160.05 805.612 160.05C787.91 160.05 773.56 174.4 773.56 192.102C773.56 209.804 787.91 224.154 805.612 224.154Z" fill="#2F52A0" fill-opacity="0.04"/>
<path d="M331.083 1081.74C348.785 1081.74 363.135 1067.39 363.135 1049.69C363.135 1031.99 348.785 1017.64 331.083 1017.64C313.381 1017.64 299.031 1031.99 299.031 1049.69C299.031 1067.39 313.381 1081.74 331.083 1081.74Z" fill="#2F52A0" fill-opacity="0.04"/>
<path d="M462.774 546.785C480.476 546.785 494.826 532.435 494.826 514.733C494.826 497.031 480.476 482.681 462.774 482.681C445.072 482.681 430.721 497.031 430.721 514.733C430.721 532.435 445.072 546.785 462.774 546.785Z" fill="#2F52A0" fill-opacity="0.04"/>
<path d="M1033.95 261.357C1024.07 230.923 1007 205.467 1003.37 172.63C987.038 183.519 975.806 192.445 977.081 214.026C957.61 202.623 942.111 232.002 950.571 247.452C921.756 256.771 904.982 283.648 930.094 307.24C914.129 322.861 926.195 340.862 942.282 350.524C931.247 355.576 921.928 363.374 916.508 375.979C906.356 399.718 924.282 412.838 946.525 416.1C988.313 422.206 1031.52 350.548 1031.52 350.475C1031.89 350.058 1032.26 349.666 1032.58 349.175C1047.73 326.908 1041.5 284.605 1033.95 261.357Z" fill="#2F52A0" fill-opacity="0.04"/>
<path d="M1138.96 326.491C1171.68 321.905 1203.02 326.221 1235.14 314.768C1232.42 334.829 1229.21 349.298 1208.61 357.881C1227.98 370.78 1207.75 398.467 1189.55 397.609C1193.94 428.558 1176.58 456.269 1143.33 443.64C1136.04 465.515 1113.87 462.449 1097.66 451.904C1097.96 464.436 1094.94 476.624 1085.67 487.34C1068.23 507.499 1047.95 496.807 1034.88 477.629C1010.33 441.604 1057.3 369.113 1057.37 369.064C1057.59 368.549 1057.79 368.034 1058.11 367.494C1071.91 343.314 1113.97 329.973 1138.96 326.491Z" fill="#2F52A0" fill-opacity="0.04"/>
<path d="M1135.85 290.024C1128.32 290.466 1120.84 291.986 1113.7 294.463C1106.66 297.308 1099.85 300.496 1092.86 303.414C1085.92 306.455 1079.29 310.477 1073.68 315.749C1071.25 317.981 1069.12 320.556 1067.2 323.254C1066.49 322.739 1065.73 322.297 1064.92 321.954C1066.27 319.134 1067.43 316.24 1068.19 313.223C1070.12 305.817 1070.44 298.166 1069.78 290.711C1068.95 283.28 1068.46 275.874 1067.55 268.443C1066.27 261.086 1063.97 253.926 1060.68 247.255C1060.66 247.206 1060.58 247.157 1060.53 247.182C1060.46 247.206 1060.41 247.255 1060.44 247.353C1061.96 254.661 1063.65 261.798 1065.32 268.934C1067.35 275.997 1068.73 283.379 1068.28 290.785C1067.96 298.166 1067.13 305.499 1065.46 312.586C1064.75 315.529 1063.82 318.398 1062.74 321.218C1056.51 319.771 1049.96 323.18 1047.73 329.36C1045.99 334.167 1047.39 339.268 1050.8 342.529C1044.91 346.306 1034.32 354.202 1026.67 366.243C1015.61 383.704 1015.17 403.078 1015.17 403.078C1015.17 403.078 1032.63 394.176 1043.71 376.739C1051.26 364.821 1053.89 351.995 1054.77 345.055C1054.99 345.129 1055.16 345.251 1055.38 345.325C1061.96 347.557 1069.22 344.025 1071.57 337.428C1073.21 332.818 1072.01 327.987 1068.92 324.725C1071.01 322.273 1073.21 319.968 1075.59 317.785C1081.06 312.88 1087.14 308.589 1093.54 304.714C1099.92 300.717 1107.1 298.313 1114.36 296.597C1121.52 294.537 1128.66 292.501 1135.9 290.269C1135.97 290.245 1135.99 290.196 1135.99 290.122C1135.99 290.073 1135.92 290.024 1135.85 290.024Z" fill="#2F52A0" fill-opacity="0.04"/>
<path d="M1623.77 410.288C1623.77 431.648 1600.64 445.013 1582.13 434.321L805.613 -13.92L29.0999 434.321C10.5846 445.013 -12.541 431.648 -12.541 410.288C-12.541 400.38 -7.244 391.208 1.33923 386.255L805.613 -78L1609.89 386.255C1618.49 391.208 1623.77 400.356 1623.77 410.288Z" fill="#2F52A0" fill-opacity="0.04"/>
</g>
</svg>
