<svg width="1516" height="2363" viewBox="0 0 1516 2363" fill="none" xmlns="http://www.w3.org/2000/svg">
<mask id="mask0_653_2738" style="mask-type:alpha" maskUnits="userSpaceOnUse" x="0" y="0" width="1516" height="2363">
<rect width="1516" height="2363" fill="#D9D9D9"/>
</mask>
<g mask="url(#mask0_653_2738)">
<path d="M1344.17 163.583C1344.17 163.583 1295.6 272.618 1284.71 310.279C1282.42 318.199 1276.81 324.711 1269.12 328.191L1235.29 343.502C1227.98 346.807 1219.67 347.061 1212.16 344.187C1175.77 330.225 1064.63 301.558 1064.63 301.558C1057.08 298.039 1049.82 307.542 1055.9 312.978L1230.8 469.529L1360.93 639.75C1365.41 644.697 1374.09 640.708 1373.02 634.216L1325.05 476.432C1325.54 476.158 1325.46 476.197 1325.95 475.924L1434.4 591.196C1439.81 596.672 1449.14 591.235 1446.7 584.02L1382.21 399.701L1358.7 164.17C1357.88 156.485 1346.32 156.035 1344.17 163.583ZM1351.49 349.036C1352.58 351.324 1353.21 353.69 1353.42 356.056C1353.7 359.165 1353.27 362.274 1352.19 365.168L1337.31 412.705C1337.21 412.979 1337.02 413.174 1336.76 413.272C1336.53 413.389 1336.23 413.409 1335.96 413.311C1335.96 413.311 1286.21 400.053 1276.05 383.178C1270 373.147 1275.71 360.026 1286.61 355.098C1294.58 351.48 1303.7 352.986 1309.97 358.227C1309.89 350.19 1314.57 342.446 1322.57 338.829C1333.46 333.901 1346.44 338.477 1351.49 349.036Z" fill="#E60064" fill-opacity="0.05"/>
<path d="M1276.71 197.295C1261.67 155.156 1215.37 133.02 1173.29 147.881C1165.33 150.697 1158.11 154.628 1151.72 159.438C1118.69 136.169 1076.36 115.46 1060.87 147.881C1034.08 203.983 965.192 268.277 965.192 268.277C965.192 268.277 1017.28 295.946 1071.51 223.4C1090.59 197.882 1111.54 186.795 1130.66 183.138C1119.05 203.005 1115.96 227.683 1124.32 251.109C1139.36 293.248 1185.67 315.384 1227.75 300.522C1269.83 285.661 1291.75 239.435 1276.71 197.295Z" fill="#E60064" fill-opacity="0.05"/>
<path d="M1580.19 137.029C1567.56 137.029 1555.3 138.554 1543.53 141.389L1540.73 137.596L1541.07 96.2189C1542.06 96.258 1543.06 96.3753 1544.08 96.3753C1588.78 96.3753 1625.01 60.1412 1625.01 15.4401C1625.01 -29.261 1588.78 -65.4951 1544.08 -65.4951C1499.38 -65.4951 1463.14 -29.261 1463.14 15.4401C1463.14 45.5146 1479.59 71.7174 1503.93 85.6596C1481.82 110.806 1458.04 140.94 1457.53 154.862C1457.35 159.927 1464.34 167.729 1475.66 177.017C1443.59 205.723 1423.39 247.432 1423.39 293.873C1423.39 380.479 1493.59 450.679 1580.19 450.679C1666.8 450.679 1737 380.479 1737 293.873C1737.02 207.228 1666.8 137.029 1580.19 137.029ZM1580.19 379.776C1532.72 379.776 1494.25 341.293 1494.25 293.834C1494.25 261.785 1511.83 233.881 1537.86 219.098C1565.96 236.188 1595.72 252.868 1616.9 264.425C1623.84 268.218 1631.07 259.908 1626.38 253.533L1593.51 209.008C1634.65 215.402 1666.17 250.893 1666.17 293.834C1666.16 341.293 1627.67 379.776 1580.19 379.776Z" fill="#E60064" fill-opacity="0.05"/>
<path d="M1337.78 -30.7276C1348.05 -39.0968 1358.84 -47.3292 1371.59 -52.296C1374.72 -53.5866 1377.77 -55.0531 1380.96 -56.1481L1390.93 -58.2991C1397.56 -59.6483 1404.11 -61.4474 1410.87 -60.6066C1423.6 -61.3496 1435.67 -58.9247 1446.99 -54.8183C1449.34 -96.8014 1432.13 -130.317 1432.13 -130.317C1336.9 -105.073 1307.94 -33.2305 1300 21.1108C1309.23 2.12363 1321.34 -15.8663 1337.78 -30.7276Z" fill="#E60064" fill-opacity="0.05"/>
<path d="M1412.87 -39.1162C1391.52 -34.873 1372.45 -24.9784 1356.26 -10.1954C1339.6 4.07925 1326.32 23.0469 1313.65 42.562C1308.02 51.5374 1298.85 87.361 1298.85 87.361C1403.83 58.1273 1437.92 5.42845 1445.45 -40.7979C1434.26 -41.6974 1423.39 -41.6387 1412.87 -39.1162Z" fill="#E60064" fill-opacity="0.05"/>
<path d="M1075.97 402.732C1060.68 401.168 1044.97 400.073 1029.43 403.378C1025.58 404.121 1021.68 404.649 1017.89 405.626L1006.86 409.909C999.569 412.822 992.08 415.267 986.057 420.39C973.249 427.801 963.1 437.832 954.751 449.037C925.712 409.85 921 366.381 921 366.381C1029.41 330.108 1103.28 381.281 1145.66 428.877C1124.62 416.381 1101.41 406.663 1075.97 402.732Z" fill="#E60064" fill-opacity="0.05"/>
<path d="M997.849 442.506C1021.24 433.002 1046.05 430.421 1071.16 434.449C1096.42 437.656 1121.37 447.57 1146.11 458.423C1157.29 463.546 1189.03 492.408 1189.03 492.408C1068.64 531.028 1001.97 501.716 965.213 461.688C975.479 453.632 986.038 446.768 997.849 442.506Z" fill="#E60064" fill-opacity="0.05"/>
<path d="M1007.2 557.935C999.745 565.111 992.334 572.698 987.269 582.143C985.979 584.451 984.551 586.68 983.398 589.046L980.797 596.574C979.115 601.6 977.101 606.508 977.121 611.846C975.341 621.662 976.084 631.244 978.196 640.415C945.404 638.264 921.02 621.741 921.02 621.741C949.588 550.231 1008.08 534.548 1051 533.512C1035.37 538.889 1020.28 546.594 1007.2 557.935Z" fill="#E60064" fill-opacity="0.05"/>
<path d="M993.585 615.425C998.885 599.273 1008.37 585.389 1021.37 574.243C1034.02 562.667 1049.98 554.141 1066.35 546.163C1073.84 542.643 1102.5 538.909 1102.5 538.909C1069.91 617.615 1025.81 639.085 989.225 640.552C989.557 631.752 990.633 623.344 993.585 615.425Z" fill="#E60064" fill-opacity="0.05"/>
<path d="M1159.56 96.219C1166.58 94.6938 1173.74 92.8948 1180.17 89.16C1181.78 88.2605 1183.44 87.4783 1184.98 86.481L1189.27 82.9612C1192.08 80.5951 1195.07 78.4245 1196.99 75.2567C1201.6 70.0943 1204.67 64.1499 1206.75 57.9512C1225.38 71.1503 1233.79 89.8052 1233.79 89.8052C1190.85 121.718 1150.53 109.711 1124.76 94.7133C1135.94 97.2358 1147.67 98.1745 1159.56 96.219Z" fill="#E60064" fill-opacity="0.05"/>
<path d="M1188.52 67.1614C1179.51 74.7875 1168.83 79.5586 1157.08 81.4163C1145.37 83.665 1132.83 82.8829 1120.24 81.6705C1114.53 81.0252 1096.19 72.793 1096.19 72.793C1144.13 38.0842 1178.04 41.4278 1200.23 53.8644C1196.85 58.9485 1193.16 63.5438 1188.52 67.1614Z" fill="#E60064" fill-opacity="0.05"/>
<path d="M1528.73 546.809C1528.9 555.96 1528.79 565.327 1526.07 574.4C1525.44 576.649 1524.93 578.937 1524.17 581.127L1521.08 587.462C1518.99 591.647 1517.17 595.968 1513.85 599.293C1508.82 606.528 1502.37 612.061 1495.31 616.481C1517.15 635.644 1542.71 640.552 1542.71 640.552C1569.54 577.998 1542.79 531.654 1516.62 504.181C1523.02 517.262 1527.63 531.517 1528.73 546.809Z" fill="#E60064" fill-opacity="0.05"/>
<path d="M1501.29 591.217C1508.08 577.802 1510.82 563.215 1509.66 548.099C1509 532.945 1504.34 517.653 1499.1 502.46C1496.62 495.577 1481.03 475.318 1481.03 475.318C1452.21 544.873 1466.37 585.859 1488.31 609.637C1493.59 603.946 1498.18 598.022 1501.29 591.217Z" fill="#E60064" fill-opacity="0.05"/>
<path d="M1194.99 592.741C1209.11 592.741 1220.55 581.299 1220.55 567.184C1220.55 553.069 1209.11 541.626 1194.99 541.626C1180.88 541.626 1169.44 553.069 1169.44 567.184C1169.44 581.299 1180.88 592.741 1194.99 592.741Z" fill="#E60064" fill-opacity="0.05"/>
<path d="M1300 166.184C1314.12 166.184 1325.56 154.742 1325.56 140.627C1325.56 126.512 1314.12 115.069 1300 115.069C1285.89 115.069 1274.44 126.512 1274.44 140.627C1274.44 154.742 1285.89 166.184 1300 166.184Z" fill="#E60064" fill-opacity="0.05"/>
<path d="M2225.74 57.3452C2225.74 74.377 2207.3 85.034 2192.54 76.5083L1573.37 -280.905L954.203 76.5083C939.44 85.034 921 74.377 921 57.3452C921 49.4453 925.224 42.1319 932.068 38.182L1573.37 -332L2214.67 38.182C2221.54 42.1319 2225.74 49.4258 2225.74 57.3452Z" fill="#E60064" fill-opacity="0.05"/>
<path d="M402.086 1712.84C443.555 1712.84 477.172 1679.22 477.172 1637.75C477.172 1596.28 443.555 1562.67 402.086 1562.67C360.617 1562.67 327 1596.28 327 1637.75C327 1679.22 360.617 1712.84 402.086 1712.84Z" fill="#E60064" fill-opacity="0.05"/>
<path d="M244.947 1840.67L247.941 1637.84C247.778 1630.08 258.919 1628.19 261.967 1635.45C261.967 1635.45 314.154 1705.56 328.579 1740.58C331.338 1747.28 336.817 1752.45 343.713 1754.65L381.964 1766.82C388.405 1768.87 395.355 1768.15 401.234 1764.83C433.079 1746.79 540.138 1703.08 540.138 1703.08C546.997 1698.61 555.253 1707.2 550.045 1713.38L400.563 1891.44L296.172 2077.58C292.47 2083.08 283.542 2080.18 283.742 2073.57L310.089 1910.21C309.617 1909.97 309.636 1909.97 309.164 1909.74L278.843 1938.99C272.764 1944.85 264.054 1947.06 255.907 1944.81C244.856 1941.76 237.543 1931.29 238.487 1919.88L244.947 1840.67Z" fill="#E60064" fill-opacity="0.05"/>
<path d="M259.642 1976.17C259.98 1967.45 253.183 1960.1 244.46 1959.76C235.738 1959.43 228.393 1966.22 228.055 1974.94C227.717 1983.67 234.514 1991.01 243.237 1991.35C251.96 1991.69 259.304 1984.89 259.642 1976.17Z" fill="#E60064" fill-opacity="0.05"/>
<path d="M225.513 2056.19C237.088 2056.19 246.471 2046.8 246.471 2035.23C246.471 2023.66 237.088 2014.27 225.513 2014.27C213.938 2014.27 204.555 2023.66 204.555 2035.23C204.555 2046.8 213.938 2056.19 225.513 2056.19Z" fill="#E60064" fill-opacity="0.05"/>
<path d="M57.7019 1613.24C45.9799 1613.24 34.6027 1614.65 23.6791 1617.28L21.0845 1613.76L21.3928 1575.37C22.3182 1575.4 23.2437 1575.51 24.1873 1575.51C65.6679 1575.51 99.2915 1541.89 99.2915 1500.41C99.2915 1458.93 65.6679 1425.3 24.1873 1425.3C-17.2933 1425.3 -50.9169 1458.93 -50.9169 1500.41C-50.9169 1528.32 -35.6566 1552.63 -13.0655 1565.57C-33.588 1588.9 -55.6529 1616.87 -56.1247 1629.79C-56.288 1634.49 -49.81 1641.73 -39.3038 1650.35C-69.0624 1676.98 -87.8066 1715.69 -87.8066 1758.78C-87.8066 1839.15 -22.6644 1904.29 57.7019 1904.29C138.068 1904.29 203.211 1839.15 203.211 1758.78C203.229 1678.38 138.068 1613.24 57.7019 1613.24ZM57.7019 1838.5C13.6447 1838.5 -22.0474 1802.79 -22.0474 1758.75C-22.0474 1729.01 -5.73452 1703.11 18.4171 1689.39C44.4922 1705.25 72.1095 1720.73 91.7611 1731.46C98.2027 1734.98 104.916 1727.26 100.562 1721.35L70.0591 1680.03C108.237 1685.96 137.488 1718.9 137.488 1758.75C137.47 1802.79 101.759 1838.5 57.7019 1838.5Z" fill="#E60064" fill-opacity="0.05"/>
<path d="M469.442 1964.72C459.771 1975.19 450.19 1986.22 443.984 1999.61C442.387 2002.89 440.609 2006.07 439.23 2009.41L436.254 2019.99C434.349 2027.03 431.99 2033.94 432.443 2041.27C430.792 2054.9 432.589 2068.04 436.236 2080.47C390.963 2080.16 356.105 2059.42 356.105 2059.42C389.62 1958.76 468.771 1932.49 527.689 1927.59C506.677 1936.25 486.535 1948.04 469.442 1964.72Z" fill="#E60064" fill-opacity="0.05"/>
<path d="M455.397 2044.85C461.385 2022.2 473.307 2002.35 490.273 1985.96C506.731 1969.02 527.997 1956.02 549.845 1943.72C559.861 1938.28 598.982 1930.82 598.982 1930.82C560.514 2041.67 501.614 2074.79 451.423 2079.74C451.169 2067.65 451.968 2055.99 455.397 2044.85Z" fill="#E60064" fill-opacity="0.05"/>
<path d="M634.076 1837.01C627.416 1830.09 620.376 1823.22 611.612 1818.52C609.47 1817.32 607.402 1816 605.206 1814.92L598.22 1812.51C593.557 1810.95 589.002 1809.08 584.049 1809.1C574.94 1807.45 566.048 1808.14 557.538 1810.1C559.534 1779.67 574.867 1757.04 574.867 1757.04C641.225 1783.55 655.778 1837.82 656.739 1877.65C651.767 1863.17 644.618 1849.17 634.076 1837.01Z" fill="#E60064" fill-opacity="0.05"/>
<path d="M580.747 1824.4C595.735 1829.31 608.618 1838.11 618.961 1850.18C629.703 1861.92 637.615 1876.73 645.018 1891.92C648.284 1898.87 651.75 1925.47 651.75 1925.47C578.714 1895.22 558.791 1854.3 557.43 1820.35C565.577 1820.66 573.398 1821.66 580.747 1824.4Z" fill="#E60064" fill-opacity="0.05"/>
<path d="M9.9432 1993.49C10.1065 2001.99 9.99766 2010.68 7.47544 2019.1C6.89479 2021.18 6.42306 2023.31 5.71538 2025.34L2.84825 2031.22C0.906684 2035.1 -0.780758 2039.11 -3.86549 2042.2C-8.52888 2048.91 -14.5169 2054.05 -21.0674 2058.15C-0.798868 2075.93 22.9173 2080.48 22.9173 2080.48C47.8129 2022.44 22.9897 1979.43 -1.28897 1953.94C4.6446 1966.08 8.92705 1979.3 9.9432 1993.49Z" fill="#E60064" fill-opacity="0.05"/>
<path d="M165.306 2005C154.727 2010.97 143.712 2016.76 131.41 2019.3C128.379 2019.99 125.404 2020.84 122.355 2021.33L113.01 2021.73C106.805 2021.93 100.599 2022.55 94.6289 2020.73C82.9977 2019.44 72.4733 2015.4 62.8743 2009.93C54.2915 2047.51 64.6707 2080.47 64.6707 2080.47C154.636 2072.32 191.87 2011.86 207.439 1963.97C196.171 1979.7 182.453 1994.09 165.306 2005Z" fill="#E60064" fill-opacity="0.05"/>
<path d="M96.1348 2001.01C116.077 2000.46 134.839 1994.46 151.751 1983.59C169.007 1973.24 183.941 1958.17 198.385 1942.47C204.844 1935.23 218.671 1904.25 218.671 1904.25C119.289 1914.49 80.3483 1956.86 66.4307 1997.49C76.4107 2000.06 86.2455 2001.68 96.1348 2001.01Z" fill="#E60064" fill-opacity="0.05"/>
<path d="M493.322 1888.47C506.42 1888.47 517.038 1877.85 517.038 1864.75C517.038 1851.65 506.42 1841.04 493.322 1841.04C480.224 1841.04 469.605 1851.65 469.605 1864.75C469.605 1877.85 480.224 1888.47 493.322 1888.47Z" fill="#E60064" fill-opacity="0.05"/>
<path d="M538.014 1655.82C551.112 1655.82 561.73 1645.21 561.73 1632.11C561.73 1619.01 551.112 1608.39 538.014 1608.39C524.916 1608.39 514.298 1619.01 514.298 1632.11C514.298 1645.21 524.916 1655.82 538.014 1655.82Z" fill="#E60064" fill-opacity="0.05"/>
<path d="M51.3704 1401.57C64.4684 1401.57 75.0866 1390.95 75.0866 1377.85C75.0866 1364.76 64.4684 1354.14 51.3704 1354.14C38.2723 1354.14 27.6543 1364.76 27.6543 1377.85C27.6543 1390.95 38.2723 1401.57 51.3704 1401.57Z" fill="#E60064" fill-opacity="0.05"/>
<path d="M220.322 1429.1C213.01 1406.58 200.38 1387.74 197.695 1363.45C185.61 1371.5 177.299 1378.11 178.243 1394.08C163.836 1385.64 152.367 1407.38 158.628 1418.81C137.307 1425.7 124.895 1445.59 143.476 1463.05C131.663 1474.61 140.591 1487.92 152.494 1495.07C144.329 1498.81 137.434 1504.58 133.424 1513.91C125.912 1531.47 139.176 1541.18 155.634 1543.6C186.554 1548.11 218.526 1495.09 218.526 1495.04C218.798 1494.73 219.07 1494.44 219.306 1494.08C230.52 1477.6 225.911 1446.3 220.322 1429.1Z" fill="#E60064" fill-opacity="0.05"/>
<path d="M298.021 1477.29C322.227 1473.9 345.417 1477.09 369.188 1468.62C367.174 1483.46 364.797 1494.17 349.555 1500.52C363.89 1510.06 348.919 1530.55 335.456 1529.91C338.704 1552.81 325.857 1573.32 301.251 1563.97C295.862 1580.16 279.459 1577.89 267.464 1570.09C267.682 1579.36 265.45 1588.38 258.591 1596.31C245.69 1611.22 230.683 1603.31 221.012 1589.12C202.848 1562.47 237.597 1508.83 237.651 1508.79C237.815 1508.41 237.96 1508.03 238.196 1507.63C248.412 1489.74 279.531 1479.87 298.021 1477.29Z" fill="#E60064" fill-opacity="0.05"/>
<path d="M295.717 1450.31C290.146 1450.64 284.612 1451.76 279.331 1453.59C274.124 1455.7 269.079 1458.06 263.908 1460.22C258.772 1462.47 253.873 1465.44 249.718 1469.34C247.922 1470.99 246.343 1472.9 244.928 1474.9C244.401 1474.52 243.839 1474.19 243.24 1473.93C244.238 1471.85 245.091 1469.71 245.653 1467.47C247.087 1461.99 247.323 1456.33 246.833 1450.82C246.216 1445.32 245.853 1439.84 245.182 1434.34C244.238 1428.9 242.532 1423.6 240.101 1418.66C240.083 1418.63 240.028 1418.59 239.992 1418.61C239.938 1418.63 239.901 1418.66 239.919 1418.74C241.044 1424.14 242.296 1429.42 243.53 1434.7C245.036 1439.93 246.052 1445.39 245.726 1450.87C245.49 1456.33 244.873 1461.76 243.639 1467C243.113 1469.18 242.424 1471.3 241.625 1473.39C237.016 1472.32 232.171 1474.84 230.52 1479.41C229.232 1482.97 230.266 1486.75 232.788 1489.16C228.433 1491.95 220.594 1497.8 214.933 1506.71C206.749 1519.62 206.423 1533.96 206.423 1533.96C206.423 1533.96 219.342 1527.37 227.544 1514.47C233.133 1505.65 235.075 1496.16 235.728 1491.03C235.891 1491.08 236.018 1491.17 236.182 1491.23C241.044 1492.88 246.416 1490.27 248.157 1485.38C249.373 1481.97 248.484 1478.4 246.198 1475.98C247.74 1474.17 249.373 1472.46 251.133 1470.85C255.18 1467.22 259.68 1464.05 264.416 1461.18C269.134 1458.22 274.45 1456.44 279.821 1455.17C285.12 1453.65 290.4 1452.14 295.753 1450.49C295.808 1450.47 295.826 1450.44 295.826 1450.38C295.826 1450.35 295.771 1450.31 295.717 1450.31Z" fill="#E60064" fill-opacity="0.05"/>
<path d="M656.74 1539.29C656.74 1555.1 639.628 1564.99 625.929 1557.08L51.3697 1225.41L-523.189 1557.08C-536.889 1564.99 -554 1555.1 -554 1539.29C-554 1531.96 -550.081 1525.18 -543.73 1521.51L51.3697 1178L646.469 1521.51C652.838 1525.18 656.74 1531.95 656.74 1539.29Z" fill="#E60064" fill-opacity="0.05"/>
</g>
</svg>
