<svg width="1520" height="1303" viewBox="0 0 1520 1303" fill="none" xmlns="http://www.w3.org/2000/svg">
<path d="M1509.89 729.925C1535.29 709.09 1561.01 686.953 1579.57 658.305C1584.13 651.468 1589.34 644.632 1593.57 637.47L1603.66 614.356C1610.18 599.056 1617.99 583.755 1619.29 566.827C1627.43 536.226 1627.76 505.625 1623.53 476C1727.07 491.301 1800 550.224 1800 550.224C1690.6 769.315 1501.1 803.823 1365 796.01C1415.47 782.988 1465.28 762.479 1509.89 729.925Z" fill="#2F52A0" fill-opacity="0.05"/>
<path d="M1567.48 550.754C1546.31 600.571 1512.75 642.248 1468.45 674.157C1425.13 707.694 1372.36 730.486 1318.61 751.325C1293.86 760.442 1202 765 1202 765C1326.11 524.054 1471.39 467.399 1588 472.283C1584.74 499.96 1578.88 526.333 1567.48 550.754Z" fill="#2F52A0" fill-opacity="0.05"/>
<path d="M1379.06 390.074C1379.39 367.92 1379.06 345.115 1372.55 323.287C1370.92 317.749 1369.95 312.211 1367.99 306.998L1360.51 291.686C1355.3 281.587 1351.07 271.161 1342.93 263.017C1330.88 245.424 1315.25 232.067 1298 221.316C1351.07 174.728 1412.92 163 1412.92 163C1478.03 314.817 1413.25 427.214 1349.76 494C1365.06 461.747 1376.46 427.214 1379.06 390.074Z" fill="#2F52A0" fill-opacity="0.05"/>
<path d="M1312.09 282.525C1328.42 315.025 1335.28 350.45 1332.34 386.85C1330.7 423.575 1319.27 460.625 1306.54 497.35C1300.66 513.925 1262.45 563 1262.45 563C1192.24 394.65 1226.86 295.525 1280.09 238C1293.48 251.65 1304.58 266.275 1312.09 282.525Z" fill="#2F52A0" fill-opacity="0.05"/>
<path d="M1041.16 699.843C1019.61 678.3 1019.61 643.7 1041.16 622.157C1062.7 600.614 1097.3 600.614 1118.84 622.157C1140.39 643.7 1140.39 678.3 1118.84 699.843C1097.3 721.386 1062.37 721.386 1041.16 699.843Z" fill="#2F52A0" fill-opacity="0.05"/>
<path d="M-137.892 1215.92C-163.288 1195.09 -189.01 1172.95 -207.569 1144.3C-212.128 1137.47 -217.338 1130.63 -221.571 1123.47L-231.664 1100.36C-238.176 1085.06 -245.99 1069.76 -247.292 1052.83C-255.432 1022.23 -255.758 991.625 -251.525 962C-355.066 977.301 -428 1036.22 -428 1036.22C-318.599 1255.32 -129.1 1289.82 7 1282.01C-43.4678 1268.99 -93.2847 1248.48 -137.892 1215.92Z" fill="#2F52A0" fill-opacity="0.05"/>
<path d="M-195.478 1036.75C-174.305 1086.57 -140.754 1128.25 -96.4536 1160.16C-53.1304 1193.69 -0.360657 1216.49 53.3862 1237.32C78.1423 1246.44 170 1251 170 1251C45.8937 1010.05 -99.3857 953.399 -216 958.283C-212.743 985.96 -206.879 1012.33 -195.478 1036.75Z" fill="#2F52A0" fill-opacity="0.05"/>
<path d="M-7.06308 876.074C-7.38863 853.92 -7.06367 831.115 -0.552559 809.287C1.07523 803.749 2.05237 798.211 4.0057 792.998L11.4928 777.686C16.7017 767.587 20.9342 757.161 29.0731 749.017C41.1187 731.424 56.7455 718.067 74 707.316C20.9344 660.728 -40.9212 649 -40.9212 649C-106.032 800.817 -41.2466 913.214 22.2367 980C6.93562 947.747 -4.45863 913.214 -7.06308 876.074Z" fill="#2F52A0" fill-opacity="0.05"/>
<path d="M59.909 768.525C43.581 801.025 36.7234 836.45 39.6624 872.85C41.2952 909.575 52.7251 946.625 65.461 983.35C71.339 999.925 109.546 1049 109.546 1049C179.756 880.65 145.142 781.525 91.9123 724C78.5233 737.65 67.4199 752.275 59.909 768.525Z" fill="#2F52A0" fill-opacity="0.05"/>
<path d="M330.843 1185.84C352.386 1164.3 352.386 1129.7 330.843 1108.16C309.3 1086.61 274.7 1086.61 253.157 1108.16C231.614 1129.7 231.614 1164.3 253.157 1185.84C274.7 1207.39 309.626 1207.39 330.843 1185.84Z" fill="#2F52A0" fill-opacity="0.05"/>
</svg>
