<svg width="1520" height="751" viewBox="0 0 1520 751" fill="none" xmlns="http://www.w3.org/2000/svg">
<mask id="mask0_520_604" style="mask-type:alpha" maskUnits="userSpaceOnUse" x="-23" y="0" width="1903" height="802">
<rect x="-23" width="1903" height="802" fill="white"/>
</mask>
<g mask="url(#mask0_520_604)">
<path d="M1375.96 532.295C1375.96 532.295 1345.55 600.564 1338.73 624.145C1337.29 629.103 1333.78 633.18 1328.97 635.36L1307.79 644.946C1303.21 647.015 1298 647.175 1293.3 645.375C1270.52 636.633 1200.93 618.684 1200.93 618.684C1196.2 616.481 1191.66 622.431 1195.47 625.834L1304.97 723.855L1386.45 830.433C1389.25 833.531 1394.69 831.033 1394.02 826.968L1363.98 728.177C1364.29 728.005 1364.24 728.03 1364.55 727.858L1432.45 800.033C1435.84 803.461 1441.68 800.057 1440.15 795.539L1399.77 680.134L1385.05 532.663C1384.54 527.851 1377.3 527.569 1375.96 532.295ZM1380.54 648.411C1381.22 649.844 1381.61 651.325 1381.75 652.807C1381.92 654.753 1381.65 656.7 1380.98 658.512L1371.66 688.275C1371.6 688.447 1371.48 688.569 1371.32 688.631C1371.17 688.704 1370.99 688.716 1370.82 688.655C1370.82 688.655 1339.67 680.354 1333.3 669.788C1329.52 663.507 1333.09 655.292 1339.91 652.207C1344.91 649.942 1350.61 650.884 1354.54 654.166C1354.5 649.134 1357.42 644.285 1362.43 642.02C1369.25 638.935 1377.38 641.8 1380.54 648.411Z" fill="#2F52A0" fill-opacity="0.05"/>
<path d="M1333.72 553.403C1324.3 527.018 1295.31 513.159 1268.96 522.464C1263.98 524.227 1259.46 526.688 1255.46 529.7C1234.78 515.13 1208.27 502.164 1198.58 522.464C1181.8 557.59 1138.67 597.846 1138.67 597.846C1138.67 597.846 1171.29 615.17 1205.24 569.748C1217.19 553.77 1230.3 546.828 1242.27 544.539C1235 556.978 1233.07 572.429 1238.31 587.097C1247.72 613.481 1276.71 627.34 1303.06 618.036C1329.41 608.731 1343.13 579.787 1333.72 553.403Z" fill="#2F52A0" fill-opacity="0.05"/>
<path d="M1523.74 515.669C1515.83 515.669 1508.15 516.624 1500.78 518.399L1499.03 516.024L1499.24 490.117C1499.86 490.142 1500.49 490.215 1501.12 490.215C1529.11 490.215 1551.8 467.528 1551.8 439.54C1551.8 411.551 1529.11 388.865 1501.12 388.865C1473.13 388.865 1450.45 411.551 1450.45 439.54C1450.45 458.37 1460.74 474.776 1475.99 483.506C1462.14 499.251 1447.25 518.118 1446.93 526.835C1446.82 530.006 1451.19 534.891 1458.28 540.707C1438.2 558.68 1425.56 584.795 1425.56 613.873C1425.56 668.099 1469.51 712.052 1523.74 712.052C1577.96 712.052 1621.91 668.099 1621.91 613.873C1621.93 559.622 1577.96 515.669 1523.74 515.669ZM1523.74 667.658C1494.01 667.658 1469.93 643.563 1469.93 613.848C1469.93 593.781 1480.93 576.31 1497.23 567.054C1514.82 577.755 1533.46 588.199 1546.72 595.434C1551.06 597.81 1555.59 592.606 1552.65 588.615L1532.07 560.737C1557.83 564.74 1577.57 586.962 1577.57 613.848C1577.56 643.563 1553.46 667.658 1523.74 667.658Z" fill="#2F52A0" fill-opacity="0.05"/>
<path d="M1371.95 410.633C1378.38 405.393 1385.14 400.238 1393.12 397.129C1395.08 396.321 1396.99 395.402 1398.99 394.717L1405.23 393.37C1409.38 392.525 1413.48 391.399 1417.72 391.925C1425.69 391.46 1433.24 392.978 1440.33 395.549C1441.8 369.263 1431.03 348.278 1431.03 348.278C1371.4 364.084 1353.27 409.066 1348.3 443.09C1354.08 431.202 1361.66 419.938 1371.95 410.633Z" fill="#2F52A0" fill-opacity="0.05"/>
<path d="M1418.97 405.381C1405.6 408.038 1393.66 414.233 1383.52 423.489C1373.09 432.426 1364.78 444.302 1356.85 456.521C1353.32 462.141 1347.58 484.571 1347.58 484.571C1413.31 466.267 1434.65 433.271 1439.37 404.328C1432.36 403.765 1425.56 403.801 1418.97 405.381Z" fill="#2F52A0" fill-opacity="0.05"/>
<path d="M1208.03 682.031C1198.45 681.052 1188.62 680.366 1178.89 682.435C1176.48 682.901 1174.04 683.231 1171.67 683.843L1164.76 686.525C1160.19 688.349 1155.5 689.879 1151.73 693.087C1143.71 697.727 1137.36 704.008 1132.13 711.024C1113.95 686.488 1111 659.271 1111 659.271C1178.88 636.56 1225.13 668.6 1251.66 698.401C1238.49 690.577 1223.96 684.492 1208.03 682.031Z" fill="#2F52A0" fill-opacity="0.05"/>
<path d="M1159.12 706.935C1173.76 700.984 1189.3 699.368 1205.02 701.89C1220.84 703.898 1236.46 710.106 1251.95 716.901C1258.95 720.108 1278.82 738.18 1278.82 738.18C1203.44 762.36 1161.7 744.007 1138.68 718.945C1145.11 713.901 1151.72 709.604 1159.12 706.935Z" fill="#2F52A0" fill-opacity="0.05"/>
<path d="M1260.37 490.117C1264.76 489.162 1269.25 488.036 1273.27 485.697C1274.28 485.134 1275.32 484.644 1276.29 484.02L1278.97 481.816C1280.73 480.335 1282.6 478.975 1283.8 476.992C1286.69 473.76 1288.61 470.038 1289.91 466.157C1301.58 474.421 1306.84 486.101 1306.84 486.101C1279.96 506.082 1254.71 498.565 1238.58 489.174C1245.58 490.754 1252.92 491.341 1260.37 490.117Z" fill="#2F52A0" fill-opacity="0.05"/>
<path d="M1278.5 471.923C1272.86 476.698 1266.17 479.686 1258.81 480.849C1251.48 482.257 1243.63 481.767 1235.75 481.008C1232.17 480.604 1220.69 475.449 1220.69 475.449C1250.71 453.718 1271.94 455.811 1285.83 463.598C1283.72 466.781 1281.4 469.658 1278.5 471.923Z" fill="#2F52A0" fill-opacity="0.05"/>
<path d="M1491.51 772.24C1491.62 777.97 1491.55 783.835 1489.85 789.516C1489.45 790.924 1489.14 792.356 1488.66 793.727L1486.72 797.694C1485.41 800.314 1484.28 803.02 1482.19 805.101C1479.05 809.631 1475.01 813.096 1470.59 815.863C1484.26 827.862 1500.27 830.935 1500.27 830.935C1517.06 791.768 1500.31 762.752 1483.93 745.55C1487.94 753.741 1490.83 762.666 1491.51 772.24Z" fill="#2F52A0" fill-opacity="0.05"/>
<path d="M1474.33 800.045C1478.58 791.646 1480.3 782.512 1479.57 773.048C1479.16 763.56 1476.24 753.985 1472.96 744.472C1471.41 740.163 1461.65 727.479 1461.65 727.479C1443.6 771.028 1452.47 796.69 1466.2 811.578C1469.51 808.015 1472.39 804.306 1474.33 800.045Z" fill="#2F52A0" fill-opacity="0.05"/>
<path d="M1519.46 372.85C1528.3 372.85 1535.46 365.686 1535.46 356.848C1535.46 348.01 1528.3 340.846 1519.46 340.846C1510.62 340.846 1503.46 348.01 1503.46 356.848C1503.46 365.686 1510.62 372.85 1519.46 372.85Z" fill="#2F52A0" fill-opacity="0.05"/>
<path d="M1348.3 533.924C1357.14 533.924 1364.3 526.759 1364.3 517.922C1364.3 509.084 1357.14 501.92 1348.3 501.92C1339.46 501.92 1332.3 509.084 1332.3 517.922C1332.3 526.759 1339.46 533.924 1348.3 533.924Z" fill="#2F52A0" fill-opacity="0.05"/>
<path d="M1927.92 465.777C1927.92 476.441 1916.38 483.114 1907.14 477.776L1519.46 253.992L1131.79 477.776C1122.55 483.114 1111 476.441 1111 465.777C1111 460.831 1113.64 456.252 1117.93 453.779L1519.46 222L1921 453.779C1925.29 456.252 1927.92 460.819 1927.92 465.777Z" fill="#2F52A0" fill-opacity="0.05"/>
</g>
</svg>
