<?xml version="1.0" encoding="utf-8"?>
<!-- Generator: Adobe Illustrator 25.4.1, SVG Export Plug-In . SVG Version: 6.00 Build 0)  -->
<svg version="1.1" id="Capa_1" xmlns="http://www.w3.org/2000/svg" xmlns:xlink="http://www.w3.org/1999/xlink" x="0px" y="0px"
	 viewBox="0 0 1512 832" style="enable-background:new 0 0 1512 832;" xml:space="preserve">
<style type="text/css">
	.st0{fill:#FFFFFF;filter:url(#Adobe_OpacityMaskFilter);}
	.st1{mask:url(#mask0_880_100_00000181068143780182401330000010032269102566974346_);}
	.st2{fill:#2F52A0;fill-opacity:5.000000e-02;}
</style>
<defs>
	<filter id="Adobe_OpacityMaskFilter" filterUnits="userSpaceOnUse" x="-557.5" y="110.4" width="1069.7" height="797.4">
		<feColorMatrix  type="matrix" values="1 0 0 0 0  0 1 0 0 0  0 0 1 0 0  0 0 0 1 0"/>
	</filter>
</defs>
<mask maskUnits="userSpaceOnUse" x="-557.5" y="110.4" width="1069.7" height="797.4" id="mask0_880_100_00000181068143780182401330000010032269102566974346_">
	<rect x="-3.7" y="-107.1" class="st0" width="2155.5" height="942.4"/>
</mask>
<g class="st1">
	<path class="st2" d="M287.2,582.9c36.6,0,66.3-29.7,66.3-66.3c0-36.6-29.7-66.3-66.3-66.3c-36.6,0-66.3,29.7-66.3,66.3
		C220.9,553.2,250.6,582.9,287.2,582.9z"/>
	<path class="st2" d="M148.4,695.9l2.6-179.2c-0.1-6.9,9.7-8.5,12.4-2.1c0,0,46.1,61.9,58.9,92.9c2.4,5.9,7.3,10.5,13.4,12.4
		l33.8,10.8c5.7,1.8,11.8,1.2,17-1.8c28.1-15.9,122.7-54.6,122.7-54.6c6.1-3.9,13.4,3.6,8.8,9.1L285.8,740.7l-92.2,164.5
		c-3.3,4.9-11.2,2.3-11-3.5l23.3-144.3c-0.4-0.2-0.4-0.2-0.8-0.4l-26.8,25.8c-5.4,5.2-13.1,7.1-20.3,5.1c-9.8-2.7-16.2-11.9-15.4-22
		L148.4,695.9z"/>
	<path class="st2" d="M161.3,815.6c0.3-7.7-5.7-14.2-13.4-14.5c-7.7-0.3-14.2,5.7-14.5,13.4c-0.3,7.7,5.7,14.2,13.4,14.5
		C154.6,829.3,161,823.3,161.3,815.6z"/>
	<path class="st2" d="M-17.1,494.9c-10.4,0-20.4,1.3-30.1,3.6l-2.3-3.1l0.3-33.9c0.8,0,1.6,0.1,2.5,0.1c36.6,0,66.4-29.7,66.4-66.4
		c0-36.6-29.7-66.4-66.4-66.4c-36.6,0-66.4,29.7-66.4,66.4c0,24.7,13.5,46.1,33.4,57.6c-18.1,20.6-37.6,45.3-38,56.7
		c-0.1,4.2,5.6,10.5,14.9,18.2c-26.3,23.5-42.9,57.7-42.9,95.8c0,71,57.6,128.6,128.6,128.6s128.6-57.6,128.6-128.6
		C111.5,552.5,53.9,494.9-17.1,494.9z M-17.1,694c-38.9,0-70.5-31.6-70.5-70.5c0-26.3,14.4-49.2,35.8-61.3
		c23,14,47.4,27.7,64.8,37.2c5.7,3.1,11.6-3.7,7.8-8.9L-6.2,554c33.7,5.2,59.6,34.3,59.6,69.5C53.4,662.4,21.8,694-17.1,694z"/>
	<path class="st2" d="M346.7,805.5c-8.5,9.3-17,19-22.5,30.8c-1.4,2.9-3,5.7-4.2,8.7l-2.6,9.3c-1.7,6.2-3.8,12.3-3.4,18.8
		c-1.5,12,0.1,23.6,3.4,34.6c-40-0.3-70.8-18.6-70.8-18.6c29.6-88.9,99.5-112.1,151.6-116.5C379.6,780.3,361.8,790.8,346.7,805.5z"
		/>
	<path class="st2" d="M334.3,876.3c5.3-20,15.8-37.5,30.8-52c14.5-15,33.3-26.5,52.6-37.3c8.8-4.8,43.4-11.4,43.4-11.4
		c-34,97.9-86,127.2-130.4,131.6C330.6,896.4,331.3,886.1,334.3,876.3z"/>
	<path class="st2" d="M492.2,692.7c-5.9-6.1-12.1-12.2-19.8-16.3c-1.9-1.1-3.7-2.2-5.7-3.2l-6.2-2.1c-4.1-1.4-8.1-3-12.5-3
		c-8-1.5-15.9-0.8-23.4,0.9c1.8-26.9,15.3-46.9,15.3-46.9c58.6,23.4,71.5,71.4,72.3,106.6C507.8,715.8,501.5,703.4,492.2,692.7z"/>
	<path class="st2" d="M445,681.5c13.2,4.3,24.6,12.1,33.8,22.8c9.5,10.4,16.5,23.5,23,36.9c2.9,6.1,5.9,29.6,5.9,29.6
		c-64.5-26.7-82.1-62.9-83.3-92.9C431.6,678.2,438.6,679.1,445,681.5z"/>
	<path class="st2" d="M78,841.1c-9.3,5.3-19.1,10.4-29.9,12.6c-2.7,0.6-5.3,1.4-8,1.8l-8.3,0.4c-5.5,0.2-11,0.7-16.2-0.9
		c-10.3-1.1-19.6-4.7-28.1-9.5c-7.6,33.2,1.6,62.3,1.6,62.3c79.5-7.2,112.4-60.6,126.1-102.9C105.3,818.7,93.1,831.4,78,841.1z"/>
	<path class="st2" d="M16.9,837.5c17.6-0.5,34.2-5.8,49.1-15.4c15.2-9.1,28.4-22.5,41.2-36.3c5.7-6.4,17.9-33.8,17.9-33.8
		c-87.8,9-122.2,46.5-134.5,82.4C-0.6,836.7,8.1,838.1,16.9,837.5z"/>
	<path class="st2" d="M367.8,738.1c11.6,0,21-9.4,21-21s-9.4-21-21-21c-11.6,0-21,9.4-21,21S356.2,738.1,367.8,738.1z"/>
	<path class="st2" d="M407.3,532.6c11.6,0,21-9.4,21-21c0-11.6-9.4-21-21-21c-11.6,0-21,9.4-21,21
		C386.3,523.2,395.7,532.6,407.3,532.6z"/>
	<path class="st2" d="M126.6,332.3c-6.5-19.9-17.6-36.5-20-58c-10.7,7.1-18,13-17.2,27.1c-12.7-7.5-22.9,11.8-17.3,21.9
		c-18.8,6.1-29.8,23.7-13.4,39.1c-10.4,10.2-2.5,22,8,28.3c-7.2,3.3-13.3,8.4-16.8,16.6c-6.6,15.5,5.1,24.1,19.6,26.2
		c27.3,4,55.6-42.9,55.6-42.9c0.2-0.3,0.5-0.5,0.7-0.8C135.6,375.1,131.5,347.4,126.6,332.3z"/>
	<path class="st2" d="M195.2,374.8c21.4-3,41.9-0.2,62.9-7.7c-1.8,13.1-3.9,22.6-17.3,28.2c12.7,8.4-0.6,26.5-12.5,26
		c2.9,20.2-8.5,38.3-30.2,30.1c-4.8,14.3-19.3,12.3-29.9,5.4c0.2,8.2-1.8,16.2-7.8,23.2c-11.4,13.2-24.7,6.2-33.2-6.3
		c-16-23.6,14.7-70.9,14.7-71c0.1-0.3,0.3-0.7,0.5-1C151.4,385.8,178.9,377.1,195.2,374.8z"/>
	<path class="st2" d="M193.2,351c-4.9,0.3-9.8,1.3-14.5,2.9c-4.6,1.9-9.1,3.9-13.6,5.9c-4.5,2-8.9,4.6-12.5,8.1
		c-1.6,1.5-3,3.1-4.2,4.9c-0.5-0.3-1-0.6-1.5-0.8c0.9-1.8,1.6-3.7,2.1-5.7c1.3-4.8,1.5-9.8,1-14.7c-0.5-4.9-0.9-9.7-1.5-14.6
		c-0.8-4.8-2.3-9.5-4.5-13.9c0,0-0.1-0.1-0.1,0c0,0-0.1,0-0.1,0.1c1,4.8,2.1,9.4,3.2,14.1c1.3,4.6,2.2,9.4,1.9,14.3
		c-0.2,4.8-0.8,9.6-1.8,14.3c-0.5,1.9-1.1,3.8-1.8,5.6c-4.1-0.9-8.4,1.3-9.8,5.3c-1.1,3.1-0.2,6.5,2,8.6
		c-3.8,2.5-10.8,7.6-15.8,15.5c-7.2,11.4-7.5,24.1-7.5,24.1s11.4-5.8,18.7-17.2c4.9-7.8,6.7-16.2,7.2-20.7c0.1,0,0.3,0.1,0.4,0.2
		c4.3,1.5,9-0.9,10.6-5.2c1.1-3,0.3-6.2-1.7-8.3c1.4-1.6,2.8-3.1,4.4-4.5c3.6-3.2,7.6-6,11.7-8.5c4.2-2.6,8.9-4.2,13.6-5.3
		c4.7-1.3,9.3-2.7,14.1-4.1C193.3,351.1,193.3,351.1,193.2,351C193.3,351,193.3,351,193.2,351z"/>
	<path class="st2" d="M512.2,429.6c0,14-15.1,22.7-27.2,15.7l-507.6-293l-507.6,293c-12.1,7-27.2-1.7-27.2-15.7
		c0-6.5,3.5-12.5,9.1-15.7l525.8-303.5l525.8,303.5C508.7,417.1,512.2,423.1,512.2,429.6z"/>
</g>
</svg>
