<svg width="1903" height="3518" viewBox="0 0 1903 3518" fill="none" xmlns="http://www.w3.org/2000/svg">
<mask id="mask0_524_660" style="mask-type:alpha" maskUnits="userSpaceOnUse" x="0" y="0" width="1903" height="3518">
<rect width="1903" height="3518" fill="#F9F9F9"/>
</mask>
<g mask="url(#mask0_524_660)">
<path d="M1790.17 421.583C1790.17 421.583 1741.6 530.618 1730.71 568.279C1728.42 576.199 1722.81 582.711 1715.12 586.191L1681.3 601.502C1673.98 604.807 1665.67 605.061 1658.16 602.187C1621.77 588.225 1510.63 559.558 1510.63 559.558C1503.08 556.039 1495.82 565.542 1501.9 570.978L1676.8 727.529L1806.93 897.75C1811.41 902.697 1820.09 898.708 1819.02 892.216L1771.05 734.432C1771.54 734.158 1771.46 734.197 1771.95 733.924L1880.4 849.196C1885.81 854.672 1895.14 849.235 1892.7 842.02L1828.21 657.701L1804.7 422.17C1803.88 414.485 1792.32 414.035 1790.17 421.583ZM1797.49 607.036C1798.58 609.324 1799.21 611.69 1799.42 614.056C1799.7 617.165 1799.27 620.274 1798.19 623.168L1783.31 670.705C1783.21 670.979 1783.02 671.174 1782.76 671.272C1782.53 671.389 1782.23 671.409 1781.96 671.311C1781.96 671.311 1732.21 658.053 1722.05 641.178C1716 631.147 1721.71 618.026 1732.61 613.098C1740.58 609.48 1749.7 610.986 1755.97 616.227C1755.89 608.19 1760.57 600.446 1768.57 596.829C1779.46 591.901 1792.44 596.477 1797.49 607.036Z" fill="#2F52A0" fill-opacity="0.05"/>
<path d="M1722.71 455.295C1707.67 413.156 1661.37 391.02 1619.29 405.881C1611.33 408.697 1604.11 412.628 1597.72 417.438C1564.69 394.169 1522.36 373.46 1506.87 405.881C1480.08 461.983 1411.19 526.277 1411.19 526.277C1411.19 526.277 1463.28 553.946 1517.51 481.4C1536.59 455.882 1557.54 444.795 1576.66 441.138C1565.05 461.005 1561.96 485.683 1570.32 509.109C1585.36 551.248 1631.67 573.384 1673.75 558.522C1715.83 543.661 1737.75 497.435 1722.71 455.295Z" fill="#2F52A0" fill-opacity="0.05"/>
<path d="M2026.19 395.029C2013.56 395.029 2001.3 396.554 1989.53 399.389L1986.73 395.596L1987.07 354.219C1988.06 354.258 1989.06 354.375 1990.08 354.375C2034.78 354.375 2071.01 318.141 2071.01 273.44C2071.01 228.739 2034.78 192.505 1990.08 192.505C1945.38 192.505 1909.14 228.739 1909.14 273.44C1909.14 303.515 1925.59 329.717 1949.93 343.66C1927.82 368.806 1904.04 398.94 1903.53 412.862C1903.35 417.927 1910.34 425.729 1921.66 435.017C1889.59 463.723 1869.39 505.432 1869.39 551.873C1869.39 638.479 1939.59 708.679 2026.19 708.679C2112.8 708.679 2183 638.479 2183 551.873C2183.02 465.228 2112.8 395.029 2026.19 395.029ZM2026.19 637.776C1978.72 637.776 1940.25 599.293 1940.25 551.834C1940.25 519.785 1957.83 491.881 1983.86 477.098C2011.96 494.188 2041.72 510.868 2062.9 522.425C2069.84 526.218 2077.07 517.908 2072.38 511.533L2039.51 467.008C2080.65 473.402 2112.17 508.893 2112.17 551.834C2112.15 599.293 2073.67 637.776 2026.19 637.776Z" fill="#2F52A0" fill-opacity="0.05"/>
<path d="M1783.78 227.272C1794.05 218.903 1804.84 210.671 1817.59 205.704C1820.72 204.413 1823.77 202.947 1826.96 201.852L1836.93 199.701C1843.56 198.352 1850.11 196.553 1856.87 197.393C1869.6 196.65 1881.67 199.075 1892.99 203.182C1895.34 161.199 1878.13 127.683 1878.13 127.683C1782.9 152.927 1753.94 224.769 1746 279.111C1755.23 260.124 1767.33 242.134 1783.78 227.272Z" fill="#2F52A0" fill-opacity="0.05"/>
<path d="M1858.87 218.884C1837.52 223.127 1818.45 233.022 1802.26 247.805C1785.6 262.079 1772.32 281.047 1759.65 300.562C1754.02 309.537 1744.85 345.361 1744.85 345.361C1849.83 316.127 1883.92 263.428 1891.45 217.202C1880.26 216.303 1869.39 216.361 1858.87 218.884Z" fill="#2F52A0" fill-opacity="0.05"/>
<path d="M1521.97 660.732C1506.68 659.168 1490.97 658.073 1475.43 661.378C1471.58 662.121 1467.68 662.649 1463.89 663.626L1452.86 667.909C1445.57 670.822 1438.08 673.267 1432.06 678.39C1419.25 685.801 1409.1 695.832 1400.75 707.037C1371.71 667.85 1367 624.381 1367 624.381C1475.41 588.108 1549.28 639.281 1591.66 686.877C1570.62 674.381 1547.41 664.663 1521.97 660.732Z" fill="#2F52A0" fill-opacity="0.05"/>
<path d="M1443.85 700.506C1467.24 691.002 1492.05 688.421 1517.16 692.449C1542.42 695.656 1567.37 705.57 1592.11 716.423C1603.29 721.546 1635.03 750.408 1635.03 750.408C1514.64 789.028 1447.97 759.716 1411.21 719.688C1421.48 711.632 1432.04 704.768 1443.85 700.506Z" fill="#2F52A0" fill-opacity="0.05"/>
<path d="M1453.2 815.935C1445.75 823.111 1438.33 830.698 1433.27 840.143C1431.98 842.451 1430.55 844.68 1429.4 847.046L1426.8 854.574C1425.12 859.6 1423.1 864.508 1423.12 869.846C1421.34 879.662 1422.08 889.244 1424.2 898.415C1391.4 896.264 1367.02 879.741 1367.02 879.741C1395.59 808.231 1454.08 792.548 1497 791.512C1481.37 796.889 1466.28 804.594 1453.2 815.935Z" fill="#2F52A0" fill-opacity="0.05"/>
<path d="M1439.59 873.425C1444.88 857.273 1454.37 843.389 1467.37 832.243C1480.02 820.667 1495.98 812.141 1512.35 804.163C1519.84 800.643 1548.5 796.909 1548.5 796.909C1515.91 875.615 1471.81 897.085 1435.22 898.552C1435.56 889.752 1436.63 881.344 1439.59 873.425Z" fill="#2F52A0" fill-opacity="0.05"/>
<path d="M1605.56 354.219C1612.58 352.694 1619.74 350.895 1626.17 347.16C1627.78 346.26 1629.44 345.478 1630.98 344.481L1635.27 340.961C1638.08 338.595 1641.07 336.424 1642.99 333.257C1647.6 328.094 1650.67 322.15 1652.75 315.951C1671.38 329.15 1679.79 347.805 1679.79 347.805C1636.85 379.718 1596.53 367.711 1570.76 352.713C1581.94 355.236 1593.67 356.174 1605.56 354.219Z" fill="#2F52A0" fill-opacity="0.05"/>
<path d="M1634.52 325.161C1625.51 332.788 1614.83 337.559 1603.08 339.416C1591.37 341.665 1578.83 340.883 1566.24 339.67C1560.53 339.025 1542.19 330.793 1542.19 330.793C1590.13 296.084 1624.04 299.428 1646.24 311.864C1642.85 316.948 1639.16 321.544 1634.52 325.161Z" fill="#2F52A0" fill-opacity="0.05"/>
<path d="M1947.29 849.217C1954.08 835.802 1956.82 821.215 1955.66 806.099C1955 790.945 1950.34 775.653 1945.1 760.46C1942.62 753.577 1927.03 733.318 1927.03 733.318C1898.21 802.873 1912.37 843.859 1934.31 867.637C1939.59 861.946 1944.18 856.022 1947.29 849.217Z" fill="#2F52A0" fill-opacity="0.05"/>
<path d="M1640.99 850.741C1655.11 850.741 1666.55 839.299 1666.55 825.184C1666.55 811.069 1655.11 799.626 1640.99 799.626C1626.88 799.626 1615.44 811.069 1615.44 825.184C1615.44 839.299 1626.88 850.741 1640.99 850.741Z" fill="#2F52A0" fill-opacity="0.05"/>
<path d="M1746 424.184C1760.12 424.184 1771.56 412.742 1771.56 398.627C1771.56 384.512 1760.12 373.069 1746 373.069C1731.89 373.069 1720.44 384.512 1720.44 398.627C1720.44 412.742 1731.89 424.184 1746 424.184Z" fill="#2F52A0" fill-opacity="0.05"/>
<path d="M2671.74 315.345C2671.74 332.377 2653.3 343.034 2638.54 334.508L2019.37 -22.9047L1400.2 334.508C1385.44 343.034 1367 332.377 1367 315.345C1367 307.445 1371.22 300.132 1378.07 296.182L2019.37 -74L2660.67 296.182C2667.54 300.132 2671.74 307.426 2671.74 315.345Z" fill="#2F52A0" fill-opacity="0.05"/>
</g>
</svg>
