<svg width="46" height="46" viewBox="0 0 46 46" fill="none" xmlns="http://www.w3.org/2000/svg">
<path fill-rule="evenodd" clip-rule="evenodd" d="M45.2192 23.0472C45.2192 10.7496 35.3077 0.77832 23.084 0.77832C10.8602 0.77832 0.948792 10.7496 0.948792 23.0472C0.948792 34.1618 9.04197 43.3746 19.6254 45.0467V29.4863H14.0036V23.0472H19.6254V18.1411C19.6254 12.561 22.9308 9.47612 27.9863 9.47612C30.4084 9.47612 32.942 9.91155 32.942 9.91155V15.3923H30.1495C27.4013 15.3923 26.5416 17.1082 26.5416 18.8718V23.0472H32.6802L31.6999 29.4863H26.5426V45.0487C37.126 43.3775 45.2192 34.1648 45.2192 23.0472Z" fill="#2F52A0"/>
<path fill-rule="evenodd" clip-rule="evenodd" d="M45.2192 23.0472C45.2192 10.7496 35.3077 0.77832 23.084 0.77832C10.8602 0.77832 0.948792 10.7496 0.948792 23.0472C0.948792 34.1618 9.04197 43.3746 19.6254 45.0467V29.4863H14.0036V23.0472H19.6254V18.1411C19.6254 12.561 22.9308 9.47612 27.9863 9.47612C30.4084 9.47612 32.942 9.91155 32.942 9.91155V15.3923H30.1495C27.4013 15.3923 26.5416 17.1082 26.5416 18.8718V23.0472H32.6802L31.6999 29.4863H26.5426V45.0487C37.126 43.3775 45.2192 34.1648 45.2192 23.0472Z" fill="black" fill-opacity="0.2"/>
</svg>
