<svg width="170" height="170" viewBox="0 0 170 170" fill="none" xmlns="http://www.w3.org/2000/svg">
<g clip-path="url(#clip0_289_140)">
<path d="M85.0074 170C131.849 170 169.822 132.014 169.822 85.1556C169.822 38.2974 131.849 0.311279 85.0074 0.311279C38.1655 0.311279 0.192627 38.2974 0.192627 85.1556C0.192627 132.014 38.1655 170 85.0074 170Z" fill="#C31D2F"/>
<path d="M84.7555 52.9553L52.8777 36.5735C52.0774 36.1584 51.0845 36.4697 50.6695 37.2703C49.6321 39.2717 48.9208 41.4213 48.1205 43.5117C47.6018 44.8904 47.0831 46.2543 46.5644 47.6331C44.9194 51.9917 43.2595 56.3503 41.6145 60.7089C39.7027 65.7642 37.791 70.8196 35.8792 75.8602C34.1897 80.3225 32.5002 84.7849 30.8107 89.2621C29.8326 91.8565 28.8397 94.4509 27.8616 97.0601C27.7726 97.2973 27.6837 97.5197 27.5948 97.7569C27.2688 98.6168 27.58 99.5804 28.3506 100.084L58.6871 120.321C58.8057 120.41 58.9539 120.439 59.1021 120.425L99.5903 116.807C100.213 116.748 100.746 116.348 100.969 115.769L124.043 55.9055C124.458 54.8381 123.688 53.6966 122.546 53.6817L84.7555 52.9553Z" fill="white" stroke="white" stroke-width="0.7068" stroke-miterlimit="10"/>
<path d="M103.651 69.4262L88.8606 68.7146C88.4012 68.6998 88.0307 69.0407 88.001 69.5003L87.8825 71.8427C87.8677 72.0651 87.9418 72.2726 88.09 72.4357C88.2382 72.5988 88.4456 72.6877 88.6531 72.7025L103.443 73.4142C103.458 73.4142 103.473 73.4142 103.488 73.4142C103.918 73.4142 104.288 73.0732 104.303 72.6284L104.422 70.286C104.436 70.0637 104.362 69.8561 104.214 69.693C104.081 69.53 103.873 69.4262 103.651 69.4262Z" fill="#C31D2F"/>
<path d="M100.865 78.0395L86.0745 77.3279C85.615 77.313 85.2445 77.654 85.2149 78.1136L85.0963 80.456C85.0815 80.6783 85.1556 80.8859 85.3038 81.049C85.452 81.212 85.6595 81.301 85.867 81.3158L100.657 82.0274C100.672 82.0274 100.687 82.0274 100.702 82.0274C101.132 82.0274 101.502 81.6865 101.517 81.2417L101.635 78.8993C101.65 78.6769 101.576 78.4694 101.428 78.3063C101.28 78.1432 101.072 78.0395 100.865 78.0395Z" fill="#C31D2F"/>
<path d="M98.0342 86.4899L83.2439 85.7783C82.7845 85.7635 82.414 86.1044 82.3843 86.564L82.2658 88.9064C82.251 89.1288 82.3251 89.3363 82.4733 89.4994C82.6215 89.6625 82.8289 89.7514 83.0364 89.7663L97.8268 90.4779C97.8416 90.4779 97.8564 90.4779 97.8712 90.4779C98.301 90.4779 98.6715 90.1369 98.6863 89.6921L98.8049 87.3498C98.8197 87.1274 98.7456 86.9198 98.5974 86.7568C98.464 86.5937 98.2565 86.5047 98.0342 86.4899Z" fill="#C31D2F"/>
<path d="M69.1501 63.7035L56.0196 56.8542C55.827 56.7505 55.6047 56.7356 55.3972 56.7949C55.1897 56.8542 55.0119 57.0025 54.9229 57.1952L53.8411 59.2856C53.6336 59.6858 53.7818 60.1751 54.1819 60.3975L67.3124 67.2467C67.431 67.306 67.5644 67.3356 67.6978 67.3356C67.7867 67.3356 67.8608 67.3208 67.9497 67.2911C68.1572 67.2318 68.335 67.0836 68.4239 66.8909L69.5058 64.8005C69.6985 64.4151 69.5503 63.911 69.1501 63.7035Z" fill="#C31D2F"/>
<path d="M66.3342 71.4571L53.2037 64.6079C53.011 64.5041 52.7887 64.4893 52.5813 64.5486C52.3738 64.6079 52.1959 64.7562 52.107 64.9489L51.0252 67.0392C50.8177 67.4395 50.9659 67.9287 51.366 68.1511L64.4965 75.0003C64.6151 75.0596 64.7485 75.0893 64.8818 75.0893C64.9708 75.0893 65.0449 75.0745 65.1338 75.0448C65.3413 74.9855 65.5191 74.8373 65.608 74.6445L66.6899 72.5542C66.8825 72.1687 66.7343 71.6795 66.3342 71.4571Z" fill="#C31D2F"/>
<path d="M62.8071 80.6339L49.6766 73.7847C49.2765 73.5772 48.7874 73.7254 48.5651 74.1257L47.4832 76.216C47.3795 76.4088 47.3647 76.6312 47.424 76.8387C47.4832 77.0463 47.6314 77.2242 47.8241 77.3131L60.9546 84.1623C61.0732 84.2216 61.2065 84.2513 61.3399 84.2513C61.4288 84.2513 61.5029 84.2365 61.5919 84.2068C61.7993 84.1475 61.9772 83.9992 62.0661 83.8065L63.148 81.7162C63.3554 81.3307 63.2072 80.8415 62.8071 80.6339Z" fill="#C31D2F"/>
<path d="M60.3618 115.503C60.2581 115.503 60.1395 115.488 60.0358 115.443C59.5467 115.265 59.3096 114.717 59.4875 114.228L81.3914 56.6912C81.5692 56.2019 82.1176 55.9647 82.6066 56.1426C83.0957 56.3205 83.3328 56.8691 83.155 57.3583L61.2362 114.895C61.1028 115.265 60.7472 115.503 60.3618 115.503Z" fill="#C31D2F"/>
<path d="M27.002 128.831L17.2653 136.199C23.6379 144.575 31.4776 151.646 40.3548 157.132L46.7422 146.769C39.1099 142.055 32.4113 135.961 27.002 128.831Z" fill="#F49A2C"/>
<path d="M155.18 104.754L166.784 108.031C169.6 98.1721 170.637 87.6907 169.63 77.0166L157.625 78.1433C157.833 80.3523 157.937 82.576 157.937 84.8295C157.937 91.738 156.973 98.4241 155.18 104.754Z" fill="#E7422F"/>
<path d="M12.4784 78.336L0.355681 77.2241C-0.355679 84.8591 -0.014819 92.7312 1.482 100.633C1.97106 103.213 2.56386 105.763 3.27522 108.238L14.983 104.888C13.1601 98.513 12.182 91.7824 12.182 84.8294C12.182 82.6353 12.2858 80.4708 12.4784 78.336Z" fill="#407F46"/>
<path d="M35.8051 31.1771L27.669 22.282C19.9329 29.3536 13.5752 37.8039 8.90686 47.1586L19.7254 52.5253C23.7417 44.4456 29.2102 37.2109 35.8051 31.1771Z" fill="#62B133"/>
<path d="M123.45 146.724L129.867 157.043C138.834 151.468 146.599 144.293 152.853 136.006L143.191 128.741C137.781 135.887 131.083 141.995 123.45 146.724Z" fill="#FBC208"/>
<path d="M152.883 135.976C159.152 127.659 163.879 118.201 166.769 108.09L155.165 104.814C152.675 113.561 148.585 121.64 143.22 128.712L152.883 135.976Z" fill="#2CBAE0"/>
<path d="M3.29004 108.298C6.23922 118.601 11.0261 127.985 17.2356 136.154L26.9724 128.786C21.6224 121.729 17.5172 113.679 15.0126 104.947L3.29004 108.298Z" fill="#BE8A30"/>
<path d="M8.89202 47.2031C4.28301 56.4688 1.33383 66.6092 0.355713 77.1648L12.4785 78.2766C13.2936 69.1147 15.813 60.442 19.7106 52.5847L8.89202 47.2031Z" fill="#1595D3"/>
<path d="M142.138 22.1043C134.388 15.092 125.392 9.51772 115.625 5.7373L111.313 16.9006C119.775 20.1622 127.481 24.9655 134.076 30.9697L142.138 22.1043Z" fill="#DDA639"/>
<path d="M150.275 52.3179L161.034 46.9512C156.292 37.4631 149.845 29.1017 142.183 22.1487L134.121 30.9993C140.745 37.0183 146.244 44.2382 150.275 52.3179Z" fill="#4B9D38"/>
<path d="M111.268 16.8709L115.581 5.70752C105.963 1.98641 95.5888 -0.0149875 84.9185 -0.00016237L84.9333 12.023C84.9777 12.023 85.0074 12.023 85.0518 12.023C94.2995 12.023 103.132 13.7428 111.268 16.8709Z" fill="#E5263C"/>
<path d="M84.874 0C79.7315 0.0148252 74.5149 0.48923 69.2834 1.46769C64.052 2.44615 59.0132 3.89901 54.2263 5.75216L58.5834 16.96C66.7344 13.7874 75.6116 12.0232 84.874 12.0084V0Z" fill="#19496B"/>
<path d="M169.629 76.9572C169.392 74.3925 169.022 71.7981 168.533 69.2185C167.036 61.3167 164.502 53.8597 161.064 46.9956L150.304 52.3623C154.231 60.2345 156.781 68.9072 157.625 78.0839L169.629 76.9572Z" fill="#C31D2F"/>
<path d="M54.1671 5.78174C44.2229 9.6511 35.3013 15.2847 27.6986 22.2377L35.8348 31.1327C42.4 25.1137 50.0916 20.2807 58.5242 16.9896L54.1671 5.78174Z" fill="#00699E"/>
<path d="M40.3993 157.161C49.232 162.617 59.0873 166.472 69.4613 168.414L71.6843 156.42C62.7034 154.76 54.2856 151.439 46.7867 146.813L40.3993 157.161Z" fill="#DD1569"/>
<path d="M71.7435 156.42L69.5205 168.414C79.5536 170.282 90.0906 170.371 100.702 168.369L98.4491 156.405C94.1069 157.206 89.646 157.636 85.0667 157.636C80.5169 157.636 76.0561 157.221 71.7435 156.42Z" fill="#EC6A30"/>
<path d="M100.746 168.369C111.357 166.368 121.139 162.469 129.808 157.087L123.391 146.769C115.892 151.409 107.475 154.73 98.4937 156.405L100.746 168.369Z" fill="#A21B43"/>
<path d="M85.037 84.9924L85.0222 84.9775V85.0072L85.0519 85.0665L85.037 84.9924Z" fill="#F49A2C"/>
<path d="M85.0371 84.9922L85.1103 85.0361L85.0664 84.9775L85.0371 84.9629V84.9922Z" fill="#F49A2C"/>
<path d="M85.0222 84.9777L85.037 84.9925L85.0222 84.9629V84.9777Z" fill="#F49A2C"/>
<path d="M85.037 84.9925V84.9629H85.0222L85.037 84.9925Z" fill="#F49A2C"/>
<path d="M85.0519 84.948L85.0667 84.9776L85.1408 84.9925L85.0815 84.948H85.0519Z" fill="#F49A2C"/>
<path d="M85.0371 84.9628L85.0668 84.9776L85.0371 84.948V84.9628Z" fill="#F49A2C"/>
<path d="M85.0371 84.948L85.0668 84.9776L85.0519 84.948H85.0371Z" fill="#F49A2C"/>
<path d="M85.0222 84.948V84.9622H85.0364V84.948H85.0222Z" fill="#F49A2C"/>
<path d="M85.0815 84.9185L85.0519 84.9333L85.0815 84.9481L85.1556 84.9333L85.0815 84.9185Z" fill="#F49A2C"/>
<path d="M85.0371 84.9331L85.081 84.9478L85.0518 84.9331H85.0371Z" fill="#F49A2C"/>
<path d="M85.081 84.9478L85.0371 84.9331L85.0518 84.9478H85.081Z" fill="#F49A2C"/>
<path d="M85.0371 84.9473H85.0513L85.0371 84.9331V84.9473Z" fill="#F49A2C"/>
<path d="M85.0815 84.9183L85.1408 84.8887H85.0667L85.0519 84.9183H85.0815Z" fill="#F49A2C"/>
<path d="M85.0518 84.9331L85.081 84.9185H85.0371L85.0518 84.9331Z" fill="#F49A2C"/>
<path d="M85.0371 84.9185V84.9327H85.0513L85.0371 84.9185Z" fill="#F49A2C"/>
<path d="M85.0222 84.9331V84.9473H85.0364V84.9331H85.0222Z" fill="#F49A2C"/>
<path d="M85.0665 84.8879L85.1251 84.8293L85.0519 84.8733V84.8879H85.0665Z" fill="#F49A2C"/>
<path d="M85.0371 84.9035L85.0519 84.9183L85.0668 84.8887L85.0371 84.9035Z" fill="#F49A2C"/>
<path d="M85.0668 84.8887H85.0519L85.0371 84.9035L85.0668 84.8887Z" fill="#F49A2C"/>
<path d="M85.0371 84.9178H85.0513L85.0371 84.9036V84.9178Z" fill="#F49A2C"/>
<path d="M85.0518 84.8731L85.081 84.7998L85.0371 84.8584V84.8731H85.0518Z" fill="#F49A2C"/>
<path d="M85.0371 84.888H85.0513V84.8738L85.0371 84.888Z" fill="#F49A2C"/>
<path d="M85.0513 84.8738H85.0371V84.888L85.0513 84.8738Z" fill="#F49A2C"/>
<path d="M85.0371 84.9029L85.0513 84.8887H85.0371V84.9029Z" fill="#F49A2C"/>
<path d="M85.0371 84.9333H85.0074H85.0371V84.9185V84.9333Z" fill="#F49A2C"/>
<path d="M85.0371 84.859V84.77L85.0074 84.8441V84.8738L85.0371 84.859Z" fill="#F49A2C"/>
<path d="M85.0222 84.8888L85.037 84.874V84.8591L85.0222 84.8888Z" fill="#F49A2C"/>
<path d="M85.0371 84.8591L85.0074 84.874L85.0223 84.8888L85.0371 84.8591Z" fill="#F49A2C"/>
<path d="M85.037 84.8886V84.8738L85.0222 84.8886V84.9034L85.037 84.8886Z" fill="#F49A2C"/>
<path d="M85.0222 84.9029L85.0364 84.8887L85.0222 84.9029Z" fill="#F49A2C"/>
<path d="M85.0364 84.9178V84.9036H85.0222L85.0364 84.9178Z" fill="#F49A2C"/>
<path d="M85.0222 84.9178H85.0364L85.0222 84.9036V84.9178Z" fill="#F49A2C"/>
<path d="M85.0074 84.9333L85.0371 84.9185H85.0223L85.0074 84.9333Z" fill="#F49A2C"/>
<path d="M85.0074 84.9333H85.0371V84.9185L85.0074 84.9333Z" fill="#F49A2C"/>
<path d="M85.0371 84.9185L85.0074 84.9333L85.0371 84.9185Z" fill="#F49A2C"/>
<path d="M84.9926 84.8738L85.0074 84.8441L84.9778 84.77V84.859L84.9926 84.8738Z" fill="#F49A2C"/>
<path d="M85.0072 84.8442L84.9926 84.8735L85.0072 84.8882V84.8442Z" fill="#F49A2C"/>
<path d="M85.0217 84.888L85.0074 84.8738V84.888H85.0217Z" fill="#F49A2C"/>
<path d="M85.0217 84.8887H85.0074V84.9029L85.0217 84.8887Z" fill="#F49A2C"/>
<path d="M85.0074 84.9029H85.0217V84.8887L85.0074 84.9029Z" fill="#F49A2C"/>
<path d="M85.0074 84.9332L85.0223 84.9184V84.9036L85.0074 84.9332Z" fill="#F49A2C"/>
<path d="M85.0217 84.9185L85.0074 84.9327L85.0217 84.9185Z" fill="#F49A2C"/>
<path d="M85.0074 84.9327L85.0217 84.9185L85.0074 84.9327Z" fill="#F49A2C"/>
<path d="M84.977 84.8731V84.8584L84.9185 84.7998L84.9477 84.8731H84.977Z" fill="#F49A2C"/>
<path d="M84.9926 84.8888L84.9778 84.8591V84.874L84.9926 84.8888Z" fill="#F49A2C"/>
<path d="M84.9926 84.874L84.9778 84.8591L84.9926 84.8888V84.874Z" fill="#F49A2C"/>
<path d="M84.9926 84.888H85.0068L84.9926 84.8738V84.888Z" fill="#F49A2C"/>
<path d="M85.0223 84.9036L85.0074 84.9332L85.0223 84.9036H85.0074H85.0223Z" fill="#F49A2C"/>
<path d="M85.0074 84.9332L85.0223 84.9036L85.0074 84.9332Z" fill="#F49A2C"/>
<path d="M85.0074 84.9332L85.0223 84.9036L85.0074 84.9332Z" fill="#F49A2C"/>
<path d="M84.9475 84.8733L84.8889 84.8293L84.9329 84.8879H84.9621L84.9475 84.8733Z" fill="#F49A2C"/>
<path d="M84.9778 84.8886L84.9481 84.8738L84.9629 84.8886H84.9778Z" fill="#F49A2C"/>
<path d="M84.9481 84.8738L84.9778 84.8886V84.8738H84.9481Z" fill="#F49A2C"/>
<path d="M84.9778 84.9034L84.9926 84.8886L84.9778 84.8738V84.8886V84.9034Z" fill="#F49A2C"/>
<path d="M84.992 84.8887L84.9778 84.9029H84.992V84.8887Z" fill="#F49A2C"/>
<path d="M84.9926 84.9029L85.0068 84.8887H84.9926V84.9029Z" fill="#F49A2C"/>
<path d="M85.0068 84.9029V84.8887L84.9926 84.9029H85.0068Z" fill="#F49A2C"/>
<path d="M85.0223 84.9036H85.0074V84.9332L85.0223 84.9036Z" fill="#F49A2C"/>
<path d="M84.9482 84.9183L84.9334 84.8887H84.8593L84.9334 84.9183H84.9482Z" fill="#F49A2C"/>
<path d="M84.963 84.9035V84.8887H84.9333L84.963 84.9035Z" fill="#F49A2C"/>
<path d="M84.963 84.9035L84.9333 84.8887L84.9482 84.9183L84.963 84.9035Z" fill="#F49A2C"/>
<path d="M84.9772 84.9029V84.8887H84.963V84.9029H84.9772Z" fill="#F49A2C"/>
<path d="M84.9926 84.9036L85.0074 84.9332V84.9036H84.9926Z" fill="#F49A2C"/>
<path d="M84.9482 84.9333L84.9334 84.9185L84.8593 84.9333L84.9334 84.9481L84.9482 84.9333Z" fill="#F49A2C"/>
<path d="M84.963 84.9185H84.9333L84.9482 84.9333L84.963 84.9185Z" fill="#F49A2C"/>
<path d="M84.9623 84.9178V84.9036L84.9481 84.9178H84.9623Z" fill="#F49A2C"/>
<path d="M84.963 84.9036V84.9178H84.9772L84.963 84.9036Z" fill="#F49A2C"/>
<path d="M84.9772 84.9178V84.9036H84.963L84.9772 84.9178Z" fill="#F49A2C"/>
<path d="M84.9926 84.9036L85.0074 84.9332L84.9926 84.9036H84.9778H84.9926Z" fill="#F49A2C"/>
<path d="M84.9926 84.9036L85.0074 84.9332L84.9926 84.9036Z" fill="#F49A2C"/>
<path d="M84.9926 84.9036L85.0074 84.9332L84.9926 84.9036Z" fill="#F49A2C"/>
<path d="M84.9333 84.948L84.874 84.9925L84.9481 84.9776L84.9629 84.948H84.9333Z" fill="#F49A2C"/>
<path d="M84.963 84.9331H84.9482L84.9333 84.9479L84.963 84.9331Z" fill="#F49A2C"/>
<path d="M84.9333 84.9479H84.963V84.9331L84.9333 84.9479Z" fill="#F49A2C"/>
<path d="M84.9623 84.9327V84.9185L84.9481 84.9327H84.9623Z" fill="#F49A2C"/>
<path d="M84.963 84.9185V84.9327L84.9772 84.9185H84.963Z" fill="#F49A2C"/>
<path d="M84.9778 84.9184L85.0074 84.9332L84.9778 84.9036V84.9184Z" fill="#F49A2C"/>
<path d="M84.9926 84.9036H84.9778L85.0074 84.9332L84.9926 84.9036Z" fill="#F49A2C"/>
<path d="M84.9778 84.9036L85.0074 84.9332L84.9778 84.9036Z" fill="#F49A2C"/>
<path d="M84.9476 84.9775L84.9037 85.0361L84.9623 84.9922V84.9629L84.9476 84.9775Z" fill="#F49A2C"/>
<path d="M84.9629 84.948L84.9481 84.9776L84.9629 84.948Z" fill="#F49A2C"/>
<path d="M84.9481 84.9776L84.9629 84.9628V84.948L84.9481 84.9776Z" fill="#F49A2C"/>
<path d="M84.963 84.9473H84.9772L84.963 84.9331V84.9473Z" fill="#F49A2C"/>
<path d="M84.963 84.9331L84.9772 84.9473V84.9331H84.963Z" fill="#F49A2C"/>
<path d="M84.9772 84.9327V84.9185L84.963 84.9327H84.9772Z" fill="#F49A2C"/>
<path d="M84.9778 84.9185L85.0074 84.9333L84.9778 84.9185Z" fill="#F49A2C"/>
<path d="M85.0074 84.9333L84.9778 84.9185L85.0074 84.9333Z" fill="#F49A2C"/>
<path d="M84.9778 84.9185L85.0074 84.9333L84.9778 84.9185Z" fill="#F49A2C"/>
<path d="M84.9926 85.0072L85.0074 85.0813L85.0222 85.0072L85.0074 84.9775L84.9926 85.0072Z" fill="#F49A2C"/>
<path d="M85.0074 84.9775L85.0221 85.0068L85.0074 84.9629V84.9775Z" fill="#F49A2C"/>
<path d="M85.0074 84.9629L85.0221 85.0068V84.9775L85.0074 84.9629Z" fill="#F49A2C"/>
<path d="M85.0217 84.9629H85.0074L85.0217 84.9771V84.9629Z" fill="#F49A2C"/>
<path d="M85.0223 84.9331H85.0074H85.0223V84.9479V84.9331H85.0371H85.0223Z" fill="#F49A2C"/>
<path d="M84.9629 84.9924L84.9481 85.0665L84.9926 85.0072L84.9778 84.9775L84.9629 84.9924Z" fill="#F49A2C"/>
<path d="M84.9778 84.9775L84.9924 85.0068V84.9629L84.9778 84.9775Z" fill="#F49A2C"/>
<path d="M84.9926 84.9629V85.0068L85.0072 84.9775L84.9926 84.9629Z" fill="#F49A2C"/>
<path d="M84.9926 84.9629L85.0068 84.9771V84.9629H84.9926Z" fill="#F49A2C"/>
<path d="M85.0217 84.948H85.0074V84.9622H85.0217V84.948Z" fill="#F49A2C"/>
<path d="M85.0217 84.9473L85.0074 84.9331L85.0217 84.9473Z" fill="#F49A2C"/>
<path d="M85.0217 84.9473L85.0074 84.9331L85.0217 84.9473Z" fill="#F49A2C"/>
<path d="M85.0074 84.9331L85.0217 84.9473V84.9331H85.0074Z" fill="#F49A2C"/>
<path d="M84.9778 84.9629H84.963V84.9925L84.9778 84.9629Z" fill="#F49A2C"/>
<path d="M84.9778 84.9629L84.963 84.9925L84.9778 84.9777V84.9629Z" fill="#F49A2C"/>
<path d="M84.9778 84.9629V84.9771L84.992 84.9629H84.9778Z" fill="#F49A2C"/>
<path d="M84.9926 84.9622H85.0068V84.948L84.9926 84.9622Z" fill="#F49A2C"/>
<path d="M85.0217 84.9473L85.0074 84.9331V84.9473H85.0217Z" fill="#F49A2C"/>
<path d="M85.0217 84.9473L85.0074 84.9331L85.0217 84.9473Z" fill="#F49A2C"/>
<path d="M85.0217 84.9473L85.0074 84.9331L85.0217 84.9473Z" fill="#F49A2C"/>
<path d="M84.963 84.948V84.9622H84.9772V84.948H84.963Z" fill="#F49A2C"/>
<path d="M84.9778 84.9622H84.992V84.948L84.9778 84.9622Z" fill="#F49A2C"/>
<path d="M84.992 84.948H84.9778V84.9622L84.992 84.948Z" fill="#F49A2C"/>
<path d="M84.9926 84.9622L85.0068 84.948H84.9926V84.9622Z" fill="#F49A2C"/>
<path d="M85.0068 84.9331V84.9473H84.9926H85.0068V84.9331Z" fill="#F49A2C"/>
<path d="M85.0068 84.9331L84.9926 84.9473L85.0068 84.9331Z" fill="#F49A2C"/>
<path d="M85.0068 84.9331L84.9926 84.9473H85.0068V84.9331Z" fill="#F49A2C"/>
<path d="M84.9926 84.9473L85.0068 84.9331L84.9926 84.9473Z" fill="#F49A2C"/>
<path d="M85.0074 84.9331L84.9778 84.9479H84.9926L85.0074 84.9331Z" fill="#F49A2C"/>
<path d="M84.9926 84.9473L85.0068 84.9331L84.9926 84.9473Z" fill="#F49A2C"/>
<path d="M85.0068 84.9331L84.9926 84.9473L85.0068 84.9331Z" fill="#F49A2C"/>
<path d="M84.9778 84.9479L85.0074 84.9331H84.9778V84.9479Z" fill="#F49A2C"/>
<path d="M84.9778 84.9479L85.0074 84.9331L84.9778 84.9479Z" fill="#F49A2C"/>
<path d="M84.9778 84.9479L85.0074 84.9331L84.9778 84.9479Z" fill="#F49A2C"/>
<path d="M84.9778 84.9333H85.0074H84.9778V84.9185V84.9333Z" fill="#F49A2C"/>
<path d="M84.9778 84.9185V84.9333H85.0074L84.9778 84.9185Z" fill="#F49A2C"/>
<path d="M85.0074 84.9333L84.9778 84.9185L85.0074 84.9333Z" fill="#F49A2C"/>
<path d="M120.19 122.218C120.101 122.218 120.012 122.203 119.923 122.189C119.464 122.1 119.079 121.818 118.871 121.403L117.019 117.741C116.722 117.163 116.841 116.466 117.315 116.007L144.376 89.9588C144.539 89.7957 144.732 89.6771 144.939 89.5882L153.164 86.1636C153.491 86.0301 153.846 86.1191 154.083 86.3711C154.32 86.6231 154.365 86.9938 154.202 87.3051L150.527 94.3322C150.482 94.4212 150.423 94.4953 150.363 94.5546L150.215 94.688L121.213 121.818C120.916 122.07 120.561 122.218 120.19 122.218Z" fill="white" stroke="white" stroke-width="0.7068" stroke-miterlimit="10"/>
<path d="M126.652 113.427L125.718 112.419C125.629 112.33 125.525 112.256 125.422 112.226C125.318 112.197 125.214 112.211 125.155 112.271L120.753 116.021C120.62 116.14 120.65 116.392 120.827 116.585L121.761 117.593C121.85 117.682 121.954 117.756 122.057 117.786C122.161 117.815 122.265 117.801 122.324 117.741L126.726 113.99C126.726 113.99 126.741 113.99 126.741 113.976C126.859 113.857 126.829 113.62 126.652 113.427Z" fill="#C31D2F"/>
</g>
<defs>
<clipPath id="clip0_289_140">
<rect width="170" height="170" fill="white"/>
</clipPath>
</defs>
</svg>
