<svg width="170" height="170" viewBox="0 0 170 170" fill="none" xmlns="http://www.w3.org/2000/svg">
<g clip-path="url(#clip0_289_454)">
<path d="M85.1704 169.733C132.012 169.733 169.985 131.76 169.985 84.9184C169.985 38.0765 132.012 0.103638 85.1704 0.103638C38.3285 0.103638 0.355682 38.0765 0.355682 84.9184C0.355682 131.76 38.3285 169.733 85.1704 169.733Z" fill="#62B133"/>
<path d="M123.717 128.667H117.611H111.506H105.4H99.2939H93.188H87.0822H80.9764H74.8409H73.2404L74.7668 102.969L74.8261 102.717L74.9002 102.599C75.656 102.436 76.7527 102.287 77.5678 102.184C81.0801 101.724 84.711 101.235 86.0152 98.7899C86.3116 98.2416 86.8747 97.96 87.7788 97.5598C90.2537 96.4632 92.5211 94.9219 90.7428 89.2606C90.476 88.4011 90.2389 87.7786 90.061 87.2896C90.9502 86.8153 92.4026 85.9706 94.507 84.207C96.982 82.1322 97.5748 78.368 98.1379 74.7371C98.4195 72.929 98.6863 71.2247 99.1605 70.0688C100.939 65.6672 97.5451 60.4358 94.2551 55.3822C92.2099 52.2255 90.2685 49.2319 89.9869 47.083C89.5572 43.7485 86.7414 41.1253 82.0731 39.6878C74.6779 37.4055 63.5629 38.4577 58.5389 44.1042C52.9073 50.4323 53.6187 53.8557 54.8339 56.8197C54.997 57.2347 55.2044 57.7385 55.1748 57.9164C55.1748 57.9164 55.1007 58.2721 54.0485 58.9686C43.63 65.8895 47.9575 72.6178 50.0323 75.8486C50.3138 76.2932 50.5806 76.7081 50.7584 77.0342C51.6921 78.7829 53.9003 80.1612 56.4641 81.4505C55.2193 82.236 54.2263 83.3919 53.5446 84.9036C52.0774 88.1491 52.2849 93.1435 53.2482 94.2994C57.1755 99.0715 63.963 101.665 67.4754 102.747L67.2531 128.667H62.6144H56.5086H50.4028H44.2969H38.1911V134.773H44.2969H50.4028H56.5086H62.6144H68.7203H74.8261H80.9319H87.0378H93.1436H99.2494H105.355H111.461H117.567H123.673H129.779V128.667H123.717Z" fill="white" stroke="white" stroke-width="0.6586" stroke-miterlimit="10"/>
<path d="M27.002 128.786L17.2653 136.151C23.6379 144.524 31.4776 151.594 40.3548 157.077L46.7422 146.718C39.1099 142.005 32.4113 135.914 27.002 128.786Z" fill="#F49A2C"/>
<path d="M155.18 104.718L166.784 107.993C169.6 98.1379 170.637 87.6601 169.629 76.9897L157.625 78.1161C157.833 80.3242 157.937 82.5472 157.937 84.7999C157.937 91.706 156.973 98.3898 155.18 104.718Z" fill="#E7422F"/>
<path d="M12.4784 78.3088L0.355681 77.1973C-0.355679 84.8296 -0.014819 92.699 1.482 100.598C1.97106 103.177 2.56386 105.726 3.27522 108.201L14.983 104.851C13.1601 98.4788 12.182 91.7505 12.182 84.7999C12.182 82.6066 12.2858 80.4428 12.4784 78.3088Z" fill="#407F46"/>
<path d="M35.8051 31.1664L27.6689 22.2744C19.9329 29.3435 13.5751 37.7909 8.9068 47.1423L19.7254 52.5072C23.7416 44.4303 29.2102 37.1981 35.8051 31.1664Z" fill="#62B133"/>
<path d="M123.45 146.673L129.867 156.988C138.834 151.416 146.599 144.243 152.853 135.959L143.191 128.697C137.781 135.84 131.083 141.946 123.45 146.673Z" fill="#FBC208"/>
<path d="M152.883 135.929C159.152 127.615 163.879 118.16 166.769 108.052L155.165 104.777C152.675 113.521 148.585 121.598 143.22 128.667L152.883 135.929Z" fill="#2CBAE0"/>
<path d="M3.29004 108.26C6.23922 118.56 11.0261 127.941 17.2356 136.107L26.9724 128.741C21.6224 121.687 17.5172 113.64 15.0126 104.911L3.29004 108.26Z" fill="#BE8A30"/>
<path d="M8.89199 47.1868C4.28298 56.4493 1.3338 66.5861 0.355682 77.1379L12.4784 78.2494C13.2935 69.0907 15.8129 60.421 19.7106 52.5664L8.89199 47.1868Z" fill="#1595D3"/>
<path d="M142.138 22.0965C134.388 15.0866 125.392 9.51432 115.625 5.73523L111.313 16.8947C119.775 20.1551 127.481 24.9567 134.076 30.9588L142.138 22.0965Z" fill="#DDA639"/>
<path d="M150.275 52.2997L161.034 46.9348C156.292 37.45 149.845 29.0916 142.183 22.141L134.121 30.9885C140.745 37.0054 146.244 44.2228 150.275 52.2997Z" fill="#4B9D38"/>
<path d="M111.268 16.8651L115.581 5.70565C105.963 1.98584 95.5889 -0.0148603 84.9185 -4.03277e-05L84.9333 12.019C84.9778 12.019 85.0074 12.019 85.0519 12.019C94.2995 12.019 103.132 13.7381 111.268 16.8651Z" fill="#E5263C"/>
<path d="M84.874 0C79.7315 0.01482 74.5149 0.489059 69.2834 1.46718C64.052 2.4453 59.0132 3.89766 54.2263 5.75015L58.5834 16.9541C66.7344 13.7826 75.6116 12.019 84.874 12.0042V0Z" fill="#19496B"/>
<path d="M169.629 76.9304C169.392 74.3666 169.022 71.7731 168.533 69.1944C167.036 61.2953 164.502 53.8409 161.064 46.9792L150.304 52.3441C154.231 60.2135 156.781 68.8832 157.625 78.0567L169.629 76.9304Z" fill="#C31D2F"/>
<path d="M54.167 5.77979C44.2228 9.6478 35.3012 15.2794 27.6985 22.23L35.8347 31.122C42.4 25.105 50.0915 20.2737 58.5241 16.9837L54.167 5.77979Z" fill="#00699E"/>
<path d="M40.3993 157.107C49.232 162.56 59.0873 166.414 69.4612 168.355L71.6842 156.366C62.7033 154.706 54.2856 151.386 46.7867 146.762L40.3993 157.107Z" fill="#DD1569"/>
<path d="M71.7435 156.366L69.5205 168.355C79.5537 170.222 90.0907 170.311 100.702 168.311L98.4491 156.351C94.1069 157.151 89.6461 157.581 85.0667 157.581C80.517 157.581 76.0561 157.166 71.7435 156.366Z" fill="#EC6A30"/>
<path d="M100.746 168.31C111.357 166.31 121.139 162.412 129.808 157.032L123.391 146.718C115.892 151.356 107.474 154.676 98.4936 156.351L100.746 168.31Z" fill="#A21B43"/>
<path d="M85.037 84.9628L85.0222 84.948V84.9776L85.0519 85.0369L85.037 84.9628Z" fill="#F49A2C"/>
<path d="M85.037 84.963L85.1111 85.0074L85.0667 84.9482L85.037 84.9333V84.963Z" fill="#F49A2C"/>
<path d="M85.0222 84.9482L85.037 84.963L85.0222 84.9333V84.9482Z" fill="#F49A2C"/>
<path d="M85.037 84.963V84.9333H85.0222L85.037 84.963Z" fill="#F49A2C"/>
<path d="M85.0519 84.9185L85.0667 84.9481L85.1408 84.9629L85.0815 84.9185H85.0519Z" fill="#F49A2C"/>
<path d="M85.037 84.9333L85.0667 84.9481L85.037 84.9185V84.9333Z" fill="#F49A2C"/>
<path d="M85.037 84.9185L85.0667 84.9481L85.0519 84.9185H85.037Z" fill="#F49A2C"/>
<path d="M85.0222 84.9185V84.9333H85.037V84.9185H85.0222Z" fill="#F49A2C"/>
<path d="M85.0815 84.8889L85.0519 84.9037L85.0815 84.9186L85.1556 84.9037L85.0815 84.8889Z" fill="#F49A2C"/>
<path d="M85.037 84.9036L85.0815 84.9184L85.0519 84.9036H85.037Z" fill="#F49A2C"/>
<path d="M85.0815 84.9184L85.037 84.9036L85.0519 84.9184H85.0815Z" fill="#F49A2C"/>
<path d="M85.037 84.9184H85.0519L85.037 84.9036V84.9184Z" fill="#F49A2C"/>
<path d="M85.0815 84.8888L85.1408 84.8591H85.0667L85.0519 84.8888H85.0815Z" fill="#F49A2C"/>
<path d="M85.0519 84.9037L85.0815 84.8889H85.037L85.0519 84.9037Z" fill="#F49A2C"/>
<path d="M85.037 84.8889V84.9037H85.0519L85.037 84.8889Z" fill="#F49A2C"/>
<path d="M85.0222 84.9036V84.9184H85.037V84.9036H85.0222Z" fill="#F49A2C"/>
<path d="M85.0667 84.8591L85.126 84.7998L85.0519 84.8443V84.8591H85.0667Z" fill="#F49A2C"/>
<path d="M85.037 84.874L85.0519 84.8888L85.0667 84.8591L85.037 84.874Z" fill="#F49A2C"/>
<path d="M85.0667 84.8591H85.0519L85.037 84.874L85.0667 84.8591Z" fill="#F49A2C"/>
<path d="M85.037 84.8888H85.0519L85.037 84.874V84.8888Z" fill="#F49A2C"/>
<path d="M85.0519 84.8444L85.0815 84.7703L85.037 84.8295V84.8444H85.0519Z" fill="#F49A2C"/>
<path d="M85.037 84.8591H85.0519V84.8442L85.037 84.8591Z" fill="#F49A2C"/>
<path d="M85.0519 84.8442H85.037V84.8591L85.0519 84.8442Z" fill="#F49A2C"/>
<path d="M85.037 84.874L85.0519 84.8591H85.037V84.874Z" fill="#F49A2C"/>
<path d="M85.037 84.9037H85.0074H85.037H85.0222H85.037V84.8889V84.9037Z" fill="#F49A2C"/>
<path d="M85.037 84.8296V84.7407L85.0074 84.8148V84.8445L85.037 84.8296Z" fill="#F49A2C"/>
<path d="M85.0222 84.8592L85.037 84.8444V84.8296L85.0222 84.8592Z" fill="#F49A2C"/>
<path d="M85.037 84.8296L85.0074 84.8444L85.0222 84.8592L85.037 84.8296Z" fill="#F49A2C"/>
<path d="M85.037 84.8591V84.8442L85.0222 84.8591V84.8739L85.037 84.8591Z" fill="#F49A2C"/>
<path d="M85.0222 84.874L85.037 84.8591L85.0222 84.874Z" fill="#F49A2C"/>
<path d="M85.037 84.8888V84.874H85.0222L85.037 84.8888Z" fill="#F49A2C"/>
<path d="M85.0222 84.8888H85.037L85.0222 84.874V84.8888Z" fill="#F49A2C"/>
<path d="M85.0074 84.9037L85.037 84.8889H85.0222L85.0074 84.9037Z" fill="#F49A2C"/>
<path d="M85.0074 84.9037H85.037V84.8889L85.0074 84.9037Z" fill="#F49A2C"/>
<path d="M85.037 84.8889L85.0074 84.9037L85.037 84.8889Z" fill="#F49A2C"/>
<path d="M84.9926 84.8445L85.0074 84.8148L84.9778 84.7407V84.8296L84.9926 84.8445Z" fill="#F49A2C"/>
<path d="M85.0074 84.8147L84.9926 84.8443L85.0074 84.8592V84.8147Z" fill="#F49A2C"/>
<path d="M85.0222 84.8591L85.0074 84.8442V84.8591H85.0222Z" fill="#F49A2C"/>
<path d="M85.0222 84.8591H85.0074V84.874L85.0222 84.8591Z" fill="#F49A2C"/>
<path d="M85.0074 84.874H85.0222V84.8591L85.0074 84.874Z" fill="#F49A2C"/>
<path d="M85.0074 84.9037L85.0222 84.8888V84.874L85.0074 84.9037Z" fill="#F49A2C"/>
<path d="M85.0222 84.8889L85.0074 84.9037L85.0222 84.8889Z" fill="#F49A2C"/>
<path d="M85.0074 84.9037L85.0222 84.8889L85.0074 84.9037Z" fill="#F49A2C"/>
<path d="M84.9778 84.8444V84.8295L84.9185 84.7703L84.9481 84.8444H84.9778Z" fill="#F49A2C"/>
<path d="M84.9926 84.8592L84.9778 84.8296V84.8444L84.9926 84.8592Z" fill="#F49A2C"/>
<path d="M84.9926 84.8444L84.9778 84.8296L84.9926 84.8592V84.8444Z" fill="#F49A2C"/>
<path d="M84.9926 84.8591H85.0074L84.9926 84.8442V84.8591Z" fill="#F49A2C"/>
<path d="M85.0222 84.874L85.0074 84.9037L85.0222 84.874H85.0074H85.0222Z" fill="#F49A2C"/>
<path d="M85.0074 84.9037L85.0222 84.874L85.0074 84.9037Z" fill="#F49A2C"/>
<path d="M85.0074 84.9037L85.0222 84.874L85.0074 84.9037Z" fill="#F49A2C"/>
<path d="M84.9481 84.8443L84.8889 84.7998L84.9333 84.8591H84.963L84.9481 84.8443Z" fill="#F49A2C"/>
<path d="M84.9778 84.8591L84.9481 84.8442L84.9629 84.8591H84.9778Z" fill="#F49A2C"/>
<path d="M84.9481 84.8442L84.9778 84.8591V84.8442H84.9481Z" fill="#F49A2C"/>
<path d="M84.9778 84.8739L84.9926 84.8591L84.9778 84.8442V84.8591V84.8739Z" fill="#F49A2C"/>
<path d="M84.9926 84.8591L84.9778 84.874H84.9926V84.8591Z" fill="#F49A2C"/>
<path d="M84.9926 84.874L85.0074 84.8591H84.9926V84.874Z" fill="#F49A2C"/>
<path d="M85.0074 84.874V84.8591L84.9926 84.874H85.0074Z" fill="#F49A2C"/>
<path d="M85.0222 84.874H85.0074V84.9037L85.0222 84.874Z" fill="#F49A2C"/>
<path d="M84.9481 84.8888L84.9333 84.8591H84.8592L84.9333 84.8888H84.9481Z" fill="#F49A2C"/>
<path d="M84.963 84.874V84.8591H84.9333L84.963 84.874Z" fill="#F49A2C"/>
<path d="M84.963 84.874L84.9333 84.8591L84.9481 84.8888L84.963 84.874Z" fill="#F49A2C"/>
<path d="M84.9778 84.874V84.8591H84.963V84.874H84.9778Z" fill="#F49A2C"/>
<path d="M84.9926 84.874L85.0074 84.9037V84.8888V84.874H84.9926Z" fill="#F49A2C"/>
<path d="M84.9481 84.9037L84.9333 84.8889L84.8592 84.9037L84.9333 84.9186L84.9481 84.9037Z" fill="#F49A2C"/>
<path d="M84.963 84.8889H84.9333L84.9481 84.9037L84.963 84.8889Z" fill="#F49A2C"/>
<path d="M84.9629 84.8888V84.874L84.9481 84.8888H84.9629Z" fill="#F49A2C"/>
<path d="M84.963 84.874V84.8888H84.9778L84.963 84.874Z" fill="#F49A2C"/>
<path d="M84.9778 84.8888V84.874H84.963L84.9778 84.8888Z" fill="#F49A2C"/>
<path d="M84.9926 84.874L85.0074 84.9037L84.9926 84.874H84.9778H84.9926Z" fill="#F49A2C"/>
<path d="M84.9926 84.874L85.0074 84.9037L84.9926 84.874Z" fill="#F49A2C"/>
<path d="M84.9926 84.874L85.0074 84.9037L84.9926 84.874Z" fill="#F49A2C"/>
<path d="M84.9333 84.9185L84.874 84.9629L84.9481 84.9481L84.9629 84.9185H84.9333Z" fill="#F49A2C"/>
<path d="M84.963 84.9036H84.9481L84.9333 84.9184L84.963 84.9036Z" fill="#F49A2C"/>
<path d="M84.9333 84.9184H84.963V84.9036L84.9333 84.9184Z" fill="#F49A2C"/>
<path d="M84.9629 84.9037V84.8889L84.9481 84.9037H84.9629Z" fill="#F49A2C"/>
<path d="M84.963 84.8889V84.9037L84.9778 84.8889H84.963Z" fill="#F49A2C"/>
<path d="M84.9778 84.8888L85.0074 84.9037L84.9778 84.874V84.8888Z" fill="#F49A2C"/>
<path d="M84.9926 84.874H84.9778L85.0074 84.9037L84.9926 84.874Z" fill="#F49A2C"/>
<path d="M84.9778 84.874L85.0074 84.9037L84.9778 84.874Z" fill="#F49A2C"/>
<path d="M84.9481 84.9482L84.9037 85.0074L84.9629 84.963V84.9333L84.9481 84.9482Z" fill="#F49A2C"/>
<path d="M84.9629 84.9185L84.9481 84.9481L84.9629 84.9185Z" fill="#F49A2C"/>
<path d="M84.9481 84.9481L84.9629 84.9333V84.9185L84.9481 84.9481Z" fill="#F49A2C"/>
<path d="M84.963 84.9184H84.9778L84.963 84.9036V84.9184Z" fill="#F49A2C"/>
<path d="M84.963 84.9036L84.9778 84.9184V84.9036H84.963Z" fill="#F49A2C"/>
<path d="M84.9778 84.9037V84.8889L84.963 84.9037H84.9778Z" fill="#F49A2C"/>
<path d="M84.9778 84.8889L85.0074 84.9037L84.9778 84.8889Z" fill="#F49A2C"/>
<path d="M85.0074 84.9037L84.9778 84.8889L85.0074 84.9037Z" fill="#F49A2C"/>
<path d="M84.9778 84.8889L85.0074 84.9037L84.9778 84.8889Z" fill="#F49A2C"/>
<path d="M84.9926 84.9776L85.0074 85.0517L85.0222 84.9776L85.0074 84.948L84.9926 84.9776Z" fill="#F49A2C"/>
<path d="M85.0074 84.9482L85.0222 84.9778L85.0074 84.9333V84.9482Z" fill="#F49A2C"/>
<path d="M85.0074 84.9333L85.0222 84.9778V84.9482L85.0074 84.9333Z" fill="#F49A2C"/>
<path d="M85.0222 84.9333H85.0074L85.0222 84.9482V84.9333Z" fill="#F49A2C"/>
<path d="M85.0222 84.9036H85.0074H85.0222V84.9184V84.9036Z" fill="#F49A2C"/>
<path d="M84.9629 84.9628L84.9481 85.0369L84.9926 84.9776L84.9778 84.948L84.9629 84.9628Z" fill="#F49A2C"/>
<path d="M84.9778 84.9482L84.9926 84.9778V84.9333L84.9778 84.9482Z" fill="#F49A2C"/>
<path d="M84.9926 84.9333V84.9778L85.0074 84.9482L84.9926 84.9333Z" fill="#F49A2C"/>
<path d="M84.9926 84.9333L85.0074 84.9482V84.9333H84.9926Z" fill="#F49A2C"/>
<path d="M85.0222 84.9185H85.0074V84.9333H85.0222V84.9185Z" fill="#F49A2C"/>
<path d="M85.0222 84.9184L85.0074 84.9036L85.0222 84.9184Z" fill="#F49A2C"/>
<path d="M85.0222 84.9184L85.0074 84.9036L85.0222 84.9184Z" fill="#F49A2C"/>
<path d="M85.0074 84.9036L85.0222 84.9184V84.9036H85.0074Z" fill="#F49A2C"/>
<path d="M84.9778 84.9333H84.963V84.963L84.9778 84.9333Z" fill="#F49A2C"/>
<path d="M84.9778 84.9333L84.963 84.963L84.9778 84.9482V84.9333Z" fill="#F49A2C"/>
<path d="M84.9778 84.9333V84.9482L84.9926 84.9333H84.9778Z" fill="#F49A2C"/>
<path d="M84.9926 84.9333H85.0074V84.9185L84.9926 84.9333Z" fill="#F49A2C"/>
<path d="M85.0222 84.9184L85.0074 84.9036V84.9184H85.0222Z" fill="#F49A2C"/>
<path d="M85.0222 84.9184L85.0074 84.9036L85.0222 84.9184Z" fill="#F49A2C"/>
<path d="M85.0222 84.9184L85.0074 84.9036L85.0222 84.9184Z" fill="#F49A2C"/>
<path d="M84.963 84.9185V84.9333H84.9778V84.9185H84.963Z" fill="#F49A2C"/>
<path d="M84.9778 84.9333H84.9926V84.9185L84.9778 84.9333Z" fill="#F49A2C"/>
<path d="M84.9926 84.9185H84.9778V84.9333L84.9926 84.9185Z" fill="#F49A2C"/>
<path d="M84.9926 84.9333L85.0074 84.9185H84.9926V84.9333Z" fill="#F49A2C"/>
<path d="M85.0074 84.9036V84.9184H84.9926H85.0074V84.9036Z" fill="#F49A2C"/>
<path d="M85.0074 84.9036L84.9926 84.9184L85.0074 84.9036Z" fill="#F49A2C"/>
<path d="M85.0074 84.9036L84.9926 84.9184H85.0074V84.9036Z" fill="#F49A2C"/>
<path d="M84.9926 84.9184L85.0074 84.9036L84.9926 84.9184Z" fill="#F49A2C"/>
<path d="M85.0074 84.9036L84.9778 84.9184H84.9926L85.0074 84.9036Z" fill="#F49A2C"/>
<path d="M84.9926 84.9184L85.0074 84.9036L84.9926 84.9184Z" fill="#F49A2C"/>
<path d="M85.0074 84.9036L84.9926 84.9184L85.0074 84.9036Z" fill="#F49A2C"/>
<path d="M84.9778 84.9036H85.0074H84.9778V84.9184V84.9036Z" fill="#F49A2C"/>
<path d="M84.9778 84.9036V84.9184L85.0074 84.9036H84.9778Z" fill="#F49A2C"/>
<path d="M84.9778 84.9184L85.0074 84.9036L84.9778 84.9184Z" fill="#F49A2C"/>
<path d="M84.9778 84.9037H85.0074H84.9778V84.8889V84.9037Z" fill="#F49A2C"/>
<path d="M84.9778 84.8889V84.9037H85.0074L84.9778 84.8889Z" fill="#F49A2C"/>
<path d="M85.0074 84.9037L84.9778 84.8889L85.0074 84.9037Z" fill="#F49A2C"/>
<path d="M65.8303 58.8797C65.7859 58.9094 64.9412 56.3159 64.8967 56.1529C64.5262 54.3596 64.6003 52.4034 65.6377 50.8473C66.5862 49.4246 68.1719 48.5947 69.7725 48.1204C71.4619 47.6166 73.3441 47.4387 75.1225 47.5128C75.9672 47.5425 77.0046 47.5869 77.3603 48.5354C77.6863 49.3653 77.3751 50.4027 76.5304 50.8029C76.071 51.0252 75.6115 50.9214 75.1225 50.9362C74.3963 50.9659 73.6849 51.0696 72.9736 51.1141C70.884 51.2178 68.6906 52.0033 68.661 54.4338C68.6462 55.5304 68.9722 56.5826 69.402 57.5756C69.6835 58.2128 70.6024 59.2354 70.469 59.932C70.3949 60.3469 70.0985 60.6878 69.7576 60.9249C67.4754 62.4662 57.6497 68.6313 63.1776 71.6842C63.7704 72.0102 64.2298 72.3659 64.8671 72.5882C65.7563 72.8846 66.5121 73.2255 67.2382 73.9072C67.6236 74.7816 67.1938 75.819 66.4083 76.2932C65.4302 76.8712 64.4817 76.4266 63.5184 76.0561C61.5326 75.2855 59.5467 74.0109 58.4352 72.1584C55.1896 66.7343 62.0068 61.4436 65.8303 58.8797Z" fill="#62B133"/>
<path d="M120.012 53.3666C120.012 53.3666 126.666 48.2538 133.246 56.4344C133.75 57.5755 134.388 59.5762 132.92 60.332C131.75 60.9248 130.164 60.3617 129.126 59.7541C127.985 59.102 127.2 57.8275 125.925 57.4421C124.903 57.1309 124.088 57.4273 123.213 57.946C121.435 58.9982 120.146 62.4513 117.626 61.4139C115.729 60.6284 115.952 58.3906 115.418 56.7456C114.944 55.2932 114.025 53.7075 112.35 53.5297C111.98 53.4852 111.609 53.5297 111.239 53.6038C110.379 53.7668 109.505 54.0187 108.705 54.3892C108.127 54.656 107.667 55.0709 107.015 55.145C106.259 55.2191 105.474 54.982 104.896 54.493C104.17 53.8705 103.799 52.8479 103.947 51.9143C104.229 50.2248 106.007 49.4097 107.445 48.8614C108.793 48.3427 110.231 48.0166 111.683 47.987C115.433 47.8981 118.382 50.0766 120.012 53.3666Z" fill="white" stroke="white" stroke-miterlimit="10"/>
<path d="M127.17 79.0498C127.17 79.0498 133.824 73.9369 140.405 82.1175C140.908 83.2586 141.546 85.2593 140.078 86.0152C138.908 86.608 137.322 86.0448 136.285 85.4372C135.143 84.7851 134.358 83.5106 133.083 83.1253C132.061 82.814 131.246 83.1104 130.371 83.6291C128.593 84.6814 127.304 88.1344 124.784 87.097C122.887 86.3116 123.11 84.0737 122.576 82.4287C122.102 80.9764 121.183 79.3906 119.508 79.2128C119.138 79.1683 118.767 79.2128 118.397 79.2869C117.537 79.4499 116.663 79.7018 115.863 80.0723C115.285 80.3391 114.825 80.7541 114.173 80.8282C113.417 80.9023 112.632 80.6651 112.054 80.1761C111.328 79.5536 110.957 78.5311 111.105 77.5974C111.387 75.9079 113.165 75.0928 114.603 74.5445C115.952 74.0258 117.389 73.6997 118.841 73.6701C122.591 73.5812 125.54 75.7597 127.17 79.0498Z" fill="white"/>
<path d="M126.963 79.939C126.726 79.7464 126.474 79.5093 126.281 79.2129C126.237 79.1388 126.192 79.0647 126.148 79.0054L126.088 78.9016L126.059 78.8424L125.955 78.6497C125.881 78.5163 125.822 78.3829 125.733 78.2496L125.496 77.8642C125.155 77.3604 124.784 76.8861 124.354 76.4563C123.925 76.0266 123.45 75.6412 122.947 75.3152C122.428 75.004 121.88 74.7372 121.302 74.5446C120.724 74.3519 120.116 74.2333 119.508 74.1741C119.197 74.1592 118.886 74.1296 118.575 74.1444C118.263 74.1444 117.952 74.1741 117.641 74.2037C116.381 74.3371 115.151 74.6779 113.966 75.167C113.669 75.2856 113.388 75.4189 113.106 75.5671C112.839 75.7153 112.573 75.8932 112.335 76.0858C112.098 76.2785 111.891 76.5008 111.728 76.7379C111.565 76.975 111.431 77.2566 111.372 77.5382C111.239 78.1162 111.328 78.7534 111.609 79.287C111.876 79.8353 112.365 80.2651 112.928 80.4726C113.21 80.5911 113.521 80.6504 113.832 80.6652C113.98 80.6652 114.144 80.6652 114.292 80.6356C114.44 80.6059 114.588 80.5615 114.722 80.5022C115.003 80.3836 115.285 80.2058 115.581 80.0428C115.729 79.9687 115.892 79.8946 116.04 79.8353C116.189 79.776 116.352 79.7167 116.5 79.6575C117.122 79.4352 117.76 79.2721 118.412 79.1684C118.738 79.1091 119.079 79.0795 119.419 79.1091C119.76 79.1388 120.086 79.2129 120.398 79.3611C121.005 79.6575 121.509 80.1465 121.865 80.7097C122.235 81.2728 122.487 81.8805 122.68 82.5177C122.872 83.155 122.961 83.807 123.08 84.4443C123.139 84.7555 123.228 85.0816 123.332 85.378C123.436 85.6744 123.584 85.9708 123.762 86.2375C123.954 86.4895 124.191 86.7118 124.458 86.8748C124.532 86.9192 124.606 86.9489 124.666 86.9785C124.74 87.0082 124.814 87.0526 124.888 87.0674C124.962 87.0971 125.036 87.1267 125.11 87.1415C125.184 87.1564 125.259 87.186 125.347 87.186C125.659 87.2305 125.985 87.2156 126.281 87.1267C126.577 87.0378 126.859 86.8748 127.126 86.6821C127.645 86.2968 128.074 85.8077 128.504 85.3187C128.934 84.8296 129.349 84.3109 129.868 83.8811C130.001 83.7774 130.134 83.6737 130.268 83.5848C130.416 83.4958 130.549 83.4217 130.697 83.3328C130.994 83.1698 131.305 83.0512 131.631 82.9623C131.957 82.8882 132.313 82.8586 132.654 82.903C132.995 82.9475 133.321 83.0512 133.632 83.1994C134.239 83.5106 134.743 83.9701 135.218 84.3998C135.455 84.6221 135.707 84.8296 135.959 85.0075L136.151 85.1408C136.21 85.1853 136.285 85.2149 136.359 85.2594C136.492 85.3335 136.64 85.4076 136.788 85.4817C137.366 85.7633 137.974 85.9559 138.596 86.0152C138.908 86.0449 139.204 86.03 139.501 85.9559C139.575 85.9411 139.649 85.9115 139.708 85.8967C139.782 85.8818 139.841 85.8374 139.915 85.8077C140.049 85.7485 140.167 85.6744 140.271 85.5854C140.479 85.4076 140.612 85.1705 140.671 84.8889C140.731 84.6221 140.731 84.3109 140.686 84.0145C140.642 83.7181 140.568 83.4217 140.464 83.1253C140.36 82.8289 140.242 82.5325 140.108 82.251L140.153 82.3251C139.352 81.3766 138.463 80.517 137.47 79.8205L137.1 79.5537L136.714 79.3166L136.522 79.198C136.462 79.1684 136.388 79.1239 136.329 79.0943L135.929 78.8868C135.381 78.6349 134.817 78.4422 134.254 78.3088C133.676 78.1755 133.098 78.1162 132.52 78.1014C131.942 78.1014 131.364 78.1755 130.801 78.3088C130.238 78.4422 129.69 78.6201 129.171 78.8868C128.904 79.0054 128.652 79.1536 128.415 79.3018C128.297 79.3759 128.178 79.45 128.059 79.5389C128 79.5834 127.941 79.613 127.896 79.6575C127.867 79.6723 127.852 79.7019 127.822 79.7167L127.793 79.7464L127.778 79.7612C127.793 79.7612 127.763 79.776 127.733 79.7908C127.674 79.8353 127.6 79.8649 127.511 79.8946C127.289 79.9687 127.111 79.9687 126.963 79.939Z" fill="white"/>
</g>
<defs>
<clipPath id="clip0_289_454">
<rect width="170" height="169.793" fill="white"/>
</clipPath>
</defs>
</svg>
