<svg width="46" height="46" viewBox="0 0 46 46" fill="none" xmlns="http://www.w3.org/2000/svg">
<circle cx="22.775" cy="22.775" r="22.775" fill="#52AE32"/>
<path d="M33.5067 12.3594C30.7009 9.54687 26.9643 8 22.9933 8C14.7969 8 8.12723 14.6696 8.12723 22.8661C8.12723 25.4844 8.81027 28.0424 10.1094 30.2991L8 38L15.8817 35.9308C18.0513 37.1161 20.4955 37.7388 22.9866 37.7388H22.9933C31.183 37.7388 38 31.0692 38 22.8728C38 18.9018 36.3125 15.1719 33.5067 12.3594ZM22.9933 35.2344C20.7701 35.2344 18.5937 34.6384 16.6987 33.5134L16.25 33.2455L11.5759 34.471L12.8214 29.9107L12.5268 29.442C11.2879 27.4732 10.6384 25.2031 10.6384 22.8661C10.6384 16.0558 16.183 10.5112 23 10.5112C26.3013 10.5112 29.4018 11.7969 31.7321 14.1339C34.0625 16.471 35.4955 19.5714 35.4888 22.8728C35.4888 29.6897 29.8036 35.2344 22.9933 35.2344ZM29.7701 25.9799C29.4018 25.7924 27.5737 24.8951 27.2321 24.7746C26.8906 24.6473 26.6429 24.5871 26.3951 24.9621C26.1473 25.3371 25.4375 26.1674 25.2165 26.4219C25.0022 26.6696 24.7812 26.7031 24.4129 26.5156C22.2299 25.4241 20.7969 24.567 19.3571 22.096C18.9754 21.4397 19.7388 21.4866 20.4487 20.067C20.5692 19.8192 20.5089 19.6049 20.4152 19.4174C20.3214 19.2299 19.5781 17.4018 19.2701 16.6585C18.9687 15.9353 18.6607 16.0357 18.433 16.0223C18.2187 16.0089 17.971 16.0089 17.7232 16.0089C17.4754 16.0089 17.0737 16.1027 16.7321 16.471C16.3906 16.846 15.433 17.7433 15.433 19.5714C15.433 21.3996 16.7656 23.1674 16.9464 23.4152C17.1339 23.6629 19.5647 27.4129 23.2946 29.0268C25.6518 30.0446 26.5759 30.1317 27.7545 29.9576C28.471 29.8504 29.9509 29.0603 30.2589 28.1897C30.567 27.3192 30.567 26.5759 30.4732 26.4219C30.3862 26.2545 30.1384 26.1607 29.7701 25.9799Z" fill="white"/>
</svg>
