<svg width="47" height="46" viewBox="0 0 47 46" fill="none" xmlns="http://www.w3.org/2000/svg">
<path d="M23.4863 0C11.0288 0 0.915527 10.1133 0.915527 22.5708C0.915527 35.0618 11.0288 45.1416 23.4863 45.1416C35.9437 45.1416 46.057 35.0283 46.057 22.5708C46.0905 10.1133 35.9772 0 23.4863 0ZM12 10.984H35.0396C35.5419 10.984 36.0107 11.0845 36.4461 11.2854C36.3456 11.3524 36.2451 11.4193 36.1447 11.5198L25.8639 23.2071C25.2611 23.8768 24.4239 24.2787 23.5198 24.2787C22.6156 24.2787 21.7784 23.8768 21.1756 23.2071L10.694 11.3189C10.694 11.2854 10.6605 11.2854 10.627 11.2519C11.0288 11.0845 11.4977 10.984 12 10.984ZM38.5558 30.6079C38.5558 32.5837 36.9484 34.1576 35.0061 34.1576H12C10.0242 34.1576 8.45028 32.5502 8.45028 30.6079V14.5337C8.45028 13.864 8.6512 13.2277 8.95259 12.6919C8.98608 12.7254 8.98608 12.7589 9.01957 12.7589L19.5012 24.647C20.5059 25.8191 21.9793 26.4554 23.5198 26.4554C25.0602 26.4554 26.5337 25.7856 27.5383 24.647L37.8191 12.9598C37.9195 12.8593 37.9865 12.7254 38.02 12.6249C38.3549 13.1607 38.5558 13.8305 38.5558 14.5002V30.6079Z" fill="#F39200"/>
</svg>
