<svg width="47" height="46" viewBox="0 0 47 46" fill="none" xmlns="http://www.w3.org/2000/svg">
<circle cx="23.3101" cy="22.8194" r="22.8194" fill="#E60064"/>
<path d="M29.6486 10.1417C31.3283 10.1467 32.9378 10.8162 34.1255 12.0039C35.3132 13.1917 35.9827 14.8012 35.9877 16.4809V29.1578C35.9827 30.8376 35.3132 32.447 34.1255 33.6348C32.9378 34.8225 31.3283 35.492 29.6486 35.497H16.9716C15.2919 35.492 13.6824 34.8225 12.4947 33.6348C11.3069 32.447 10.6374 30.8376 10.6324 29.1578V16.4809C10.6374 14.8012 11.3069 13.1917 12.4947 12.0039C13.6824 10.8162 15.2919 10.1467 16.9716 10.1417H29.6486ZM29.6486 7.60645H16.9716C12.0906 7.60645 8.09717 11.5998 8.09717 16.4809V29.1578C8.09717 34.0389 12.0906 38.0323 16.9716 38.0323H29.6486C34.5296 38.0323 38.523 34.0389 38.523 29.1578V16.4809C38.523 11.5998 34.5296 7.60645 29.6486 7.60645Z" fill="white"/>
<path d="M31.5502 16.481C31.1741 16.481 30.8064 16.3694 30.4937 16.1605C30.181 15.9515 29.9372 15.6545 29.7933 15.3071C29.6494 14.9596 29.6117 14.5772 29.6851 14.2084C29.7585 13.8395 29.9396 13.5007 30.2055 13.2347C30.4715 12.9688 30.8103 12.7876 31.1792 12.7143C31.5481 12.6409 31.9304 12.6786 32.2779 12.8225C32.6254 12.9664 32.9224 13.2102 33.1313 13.5229C33.3403 13.8356 33.4518 14.2032 33.4518 14.5793C33.4523 14.8292 33.4035 15.0767 33.3081 15.3077C33.2128 15.5387 33.0727 15.7485 32.896 15.9252C32.7193 16.1019 32.5095 16.2419 32.2785 16.3373C32.0476 16.4327 31.8 16.4815 31.5502 16.481ZM23.3101 17.7483C24.3131 17.7483 25.2935 18.0457 26.1275 18.6029C26.9614 19.1601 27.6114 19.9521 27.9952 20.8788C28.3791 21.8054 28.4795 22.8251 28.2838 23.8088C28.0882 24.7925 27.6052 25.6961 26.8959 26.4053C26.1867 27.1145 25.2831 27.5975 24.2994 27.7932C23.3157 27.9889 22.296 27.8885 21.3694 27.5046C20.4428 27.1208 19.6508 26.4708 19.0935 25.6369C18.5363 24.8029 18.2389 23.8224 18.2389 22.8195C18.2403 21.4749 18.7751 20.1859 19.7258 19.2352C20.6765 18.2844 21.9655 17.7497 23.3101 17.7483ZM23.3101 15.213C21.8057 15.213 20.335 15.6591 19.0842 16.4949C17.8333 17.3307 16.8583 18.5187 16.2826 19.9086C15.7069 21.2985 15.5563 22.8279 15.8498 24.3034C16.1433 25.7789 16.8677 27.1342 17.9315 28.198C18.9953 29.2618 20.3506 29.9863 21.8261 30.2798C23.3016 30.5732 24.831 30.4226 26.2209 29.8469C27.6108 29.2712 28.7988 28.2962 29.6346 27.0454C30.4704 25.7945 30.9165 24.3239 30.9165 22.8195C30.9165 20.8021 30.1151 18.8674 28.6886 17.4409C27.2622 16.0144 25.3274 15.213 23.3101 15.213Z" fill="white"/>
</svg>
