<svg width="46" height="46" viewBox="0 0 46 46" fill="none" xmlns="http://www.w3.org/2000/svg">
<path d="M30.2751 10.6309H15.3403V29.5567H30.2751V10.6309Z" fill="#52AE32"/>
<path d="M22.7739 31.3853C21.7264 31.3853 20.9155 32.1978 20.9155 33.2135C20.9155 34.2292 21.7602 35.0756 22.7739 35.0756C23.8213 35.0756 24.6323 34.2631 24.6323 33.2135C24.6661 32.2317 23.8213 31.3853 22.7739 31.3853Z" fill="#52AE32"/>
<path d="M22.7739 0C10.2043 0 0 10.2247 0 22.8194C0 35.414 10.2043 45.6387 22.7739 45.6387C35.3435 45.6387 45.5478 35.414 45.5478 22.8194C45.5478 10.2247 35.3773 0 22.7739 0ZM33.1472 34.7708C33.1472 36.599 31.6604 38.0887 29.802 38.0887H15.7795C13.9211 38.0887 12.4344 36.599 12.4344 34.7708V10.9018C12.4344 9.07358 13.9211 7.58389 15.7795 7.58389H29.802C31.6604 7.58389 33.1472 9.07358 33.1472 10.9018V34.7708Z" fill="#52AE32"/>
</svg>
