<?xml version="1.0" encoding="utf-8"?>
<!-- Generator: Adobe Illustrator 25.4.1, SVG Export Plug-In . SVG Version: 6.00 Build 0)  -->
<svg version="1.1" id="Capa_1" xmlns="http://www.w3.org/2000/svg" xmlns:xlink="http://www.w3.org/1999/xlink" x="0px" y="0px"
	 viewBox="0 0 40 40" style="enable-background:new 0 0 40 40;" xml:space="preserve">
<style type="text/css">
	.st0{clip-path:url(#SVGID_00000170267890650713717890000000796691611051779765_);fill:#D80027;}
	.st1{clip-path:url(#SVGID_00000170267890650713717890000000796691611051779765_);fill:#0152B3;}
	.st2{clip-path:url(#SVGID_00000170267890650713717890000000796691611051779765_);fill:#FFFFFF;}
</style>
<g>
	<g>
		<defs>
			<circle id="SVGID_1_" cx="20" cy="20" r="20"/>
		</defs>
		<use xlink:href="#SVGID_1_"  style="overflow:visible;fill:#FFFFFF;"/>
		<clipPath id="SVGID_00000078040328502678841160000002023577708533128113_">
			<use xlink:href="#SVGID_1_"  style="overflow:visible;"/>
		</clipPath>
		
			<rect x="-2.13" y="4.28" style="clip-path:url(#SVGID_00000078040328502678841160000002023577708533128113_);fill:#D80027;" width="44.27" height="5.26"/>
		
			<rect x="-2.13" y="14.35" style="clip-path:url(#SVGID_00000078040328502678841160000002023577708533128113_);fill:#D80027;" width="44.27" height="5.26"/>
		
			<rect x="-2.13" y="24.81" style="clip-path:url(#SVGID_00000078040328502678841160000002023577708533128113_);fill:#D80027;" width="44.27" height="5.26"/>
		
			<rect x="-2.13" y="35.55" style="clip-path:url(#SVGID_00000078040328502678841160000002023577708533128113_);fill:#D80027;" width="44.27" height="5.26"/>
		
			<rect x="-2.28" y="-1.25" style="clip-path:url(#SVGID_00000078040328502678841160000002023577708533128113_);fill:#0152B3;" width="22.28" height="21.25"/>
		<polygon style="clip-path:url(#SVGID_00000078040328502678841160000002023577708533128113_);fill:#FFFFFF;" points="18.25,3.15 
			16.13,3.15 15.51,1.13 14.88,3.15 12.76,3.15 14.46,4.38 13.8,6.32 15.51,5.1 17.21,6.32 16.55,4.38 		"/>
		<polygon style="clip-path:url(#SVGID_00000078040328502678841160000002023577708533128113_);fill:#FFFFFF;" points="11.11,3.15 
			8.99,3.15 8.37,1.13 7.75,3.15 5.63,3.15 7.33,4.38 6.66,6.32 8.37,5.1 10.08,6.32 9.41,4.38 		"/>
		<polygon style="clip-path:url(#SVGID_00000078040328502678841160000002023577708533128113_);fill:#FFFFFF;" points="18.25,8.94 
			16.13,8.94 15.51,6.92 14.88,8.94 12.76,8.94 14.46,10.17 13.8,12.11 15.51,10.88 17.21,12.11 16.55,10.17 		"/>
		<polygon style="clip-path:url(#SVGID_00000078040328502678841160000002023577708533128113_);fill:#FFFFFF;" points="11.11,8.94 
			8.99,8.94 8.37,6.92 7.75,8.94 5.63,8.94 7.33,10.17 6.66,12.11 8.37,10.88 10.08,12.11 9.41,10.17 		"/>
		<polygon style="clip-path:url(#SVGID_00000078040328502678841160000002023577708533128113_);fill:#FFFFFF;" points="3.9,8.94 
			1.78,8.94 1.16,6.92 0.54,8.94 -1.58,8.94 0.12,10.17 -0.55,12.11 1.16,10.88 2.87,12.11 2.21,10.17 		"/>
		<polygon style="clip-path:url(#SVGID_00000078040328502678841160000002023577708533128113_);fill:#FFFFFF;" points="18.25,14.81 
			16.13,14.81 15.51,12.79 14.88,14.81 12.76,14.81 14.46,16.05 13.8,17.99 15.51,16.76 17.21,17.99 16.55,16.05 		"/>
		<polygon style="clip-path:url(#SVGID_00000078040328502678841160000002023577708533128113_);fill:#FFFFFF;" points="11.11,14.81 
			8.99,14.81 8.37,12.79 7.75,14.81 5.63,14.81 7.33,16.05 6.66,17.99 8.37,16.76 10.08,17.99 9.41,16.05 		"/>
		<polygon style="clip-path:url(#SVGID_00000078040328502678841160000002023577708533128113_);fill:#FFFFFF;" points="3.9,14.81 
			1.78,14.81 1.16,12.79 0.54,14.81 -1.58,14.81 0.12,16.05 -0.55,17.99 1.16,16.76 2.87,17.99 2.21,16.05 		"/>
	</g>
</g>
</svg>
