<svg width="99" height="127" viewBox="0 0 99 127" fill="none" xmlns="http://www.w3.org/2000/svg">
<g clip-path="url(#clip0_720_348)">
<path d="M1.54993 82.86C2.20993 82.93 2.39992 83.86 2.41992 84.66C2.41992 86.87 2.34991 87.98 2.34991 89.08C2.34991 90.4 2.41992 93.28 2.44992 93.72H5.29993C5.73993 93.72 6.03993 93.72 6.79993 93.72C7.55993 93.72 7.74992 94.6601 7.44992 95.2601C6.94636 95.6376 6.3289 95.8316 5.69992 95.8101C5.18992 95.8101 4.69992 95.8101 4.19992 95.8101C3.19992 95.8101 0.879907 96.0201 0.529907 95.4401C0.242942 94.6434 0.140382 93.7921 0.229919 92.9501C0.229919 92.0501 0.159912 91.0201 0.159912 89.9501C0.159912 88.0101 0.159912 86.33 0.159912 84.65C0.159912 82.97 0.229927 82.69 1.54993 82.86Z" fill="#2F52A0"/>
<path d="M8.9201 94.9401C11.5301 87.8801 13.4201 83.68 13.6501 83.22C13.7508 83.0503 13.8995 82.9141 14.0774 82.8287C14.2554 82.7433 14.4547 82.7124 14.6501 82.7401C15.2965 82.7235 15.9253 82.9521 16.4101 83.3801C17.2889 85.2719 17.9821 87.2444 18.4801 89.27C18.9207 91.1202 19.4683 92.9433 20.1201 94.7301C20.1647 95.0718 20.1091 95.4192 19.9601 95.7301C19.721 95.9095 19.429 96.0045 19.1301 96.0001C18.6701 96.0001 18.2101 95.77 18.1301 95.52C17.6862 94.2532 17.332 92.9567 17.0701 91.6401C16.4201 91.6401 15.6101 91.6401 14.9201 91.6401H14.0401C13.4958 91.6278 12.9513 91.6511 12.4101 91.71C12.4101 91.85 11.6901 93.7101 11.2501 94.8501L10.9301 95.7001C10.7063 95.9543 10.4103 96.1345 10.0817 96.2166C9.75308 96.2988 9.40724 96.279 9.09008 96.16C8.95008 95.95 8.63011 95.79 8.90011 94.96L8.9201 94.9401ZM14.7401 85.6901C14.3701 86.6901 13.7401 88.5001 13.1701 89.8901C13.6801 89.8901 14.4101 89.96 15.1101 89.96C15.6401 89.96 16.1101 89.96 16.5401 89.91C16.1291 88.2727 15.6351 86.6573 15.0601 85.0701C15.0244 85.0743 14.9912 85.0904 14.9658 85.1158C14.9404 85.1412 14.9243 85.1744 14.9201 85.21L14.7401 85.6901Z" fill="#2F52A0"/>
<path d="M27.88 84.1C27.8757 83.8646 27.9546 83.6353 28.1028 83.4524C28.2509 83.2695 28.4589 83.1447 28.69 83.1C29.49 83.1 29.96 83.1 30.44 83.1H32.08C32.65 83.1 33.21 83.1 33.74 83.1C34.48 83.1 34.13 84.95 33.69 84.95C33.25 84.95 32.69 84.95 32.26 84.95C31.83 84.95 31.41 84.95 30.99 84.95C30.6772 84.9251 30.3628 84.9251 30.05 84.95C30.05 85.29 30.05 85.61 30.05 85.95C30.0851 86.5328 30.0851 87.1172 30.05 87.7C30.05 87.8 30.1 87.86 30.19 87.86H30.28H31.18C31.5686 87.8376 31.9581 87.885 32.33 88C32.96 88.23 32.59 89.2 32.38 89.34C31.7946 89.5792 31.1579 89.6652 30.53 89.59H30.17C30.17 89.59 30.1 89.59 30.1 89.7C30.0347 90.0965 30.0113 90.4986 30.03 90.9C30.03 91.46 30.03 92.08 30.03 92.7C30.03 93.32 30.03 93.7 30.03 94.08C30.0576 94.5528 30.0206 95.0272 29.92 95.49C29.67 95.74 28.03 95.72 27.92 95.42C27.7388 94.2694 27.6751 93.1034 27.73 91.94V89.2C27.86 87.07 27.9 84.45 27.88 84.1Z" fill="#2F52A0"/>
<path d="M37.96 94.52C37.96 94.98 37.1 96.09 36.37 95.81C35.81 95.58 35.79 95.31 35.77 94.73C35.77 93.09 35.77 91.94 35.77 90.07C35.77 89.75 35.77 88.46 35.77 87.67C35.77 86.22 35.77 84.4 35.84 83.57C36 82.95 36.11 82.67 36.84 82.65C37.42 82.58 37.84 83.04 37.95 83.65C38.06 84.26 38.04 85.71 38.04 87.07C38.04 87.87 38.04 88.64 38.09 89.07L37.96 94.52Z" fill="#2F52A0"/>
<path d="M40.9499 82.92C42.0399 83.15 43.3299 85.9201 43.9499 87.2601C44.7534 88.9261 45.6446 90.5484 46.6199 92.1201C46.6699 90.3301 46.7399 88.83 46.7199 87.79C46.7199 87.12 46.6199 86.45 46.5999 85.79C46.5307 84.972 46.5073 84.1507 46.5299 83.33C46.5519 83.116 46.6515 82.9174 46.81 82.7719C46.9684 82.6263 47.1748 82.5438 47.3899 82.54C47.6803 82.5601 47.955 82.6794 48.168 82.8778C48.381 83.0762 48.5193 83.3418 48.5599 83.6301C48.6299 84.6301 48.6499 85.54 48.6499 86.42C48.6499 86.81 48.6499 87.2 48.6499 89.28C48.6499 90.94 48.5599 94.37 48.1899 95.22C48.0699 95.64 47.5699 95.8201 47.0599 95.8201C46.6922 95.8362 46.3329 95.7068 46.0599 95.46C45.2442 94.1099 44.5064 92.7143 43.8499 91.28C43.6599 90.94 43.4099 90.43 43.2199 90.04C42.7213 88.8934 42.1294 87.7897 41.4499 86.7401C41.4499 88.7401 41.4999 89.7401 41.4999 90.6401C41.4999 91.7701 41.5599 92.57 41.5599 93.36C41.6246 93.9891 41.5211 94.6241 41.2599 95.2001C41.131 95.3723 40.9655 95.5136 40.7752 95.614C40.585 95.7143 40.3748 95.771 40.1599 95.78C40.0571 95.7926 39.9528 95.7836 39.8537 95.7534C39.7547 95.7231 39.6631 95.6724 39.5849 95.6046C39.5066 95.5367 39.4435 95.4532 39.3996 95.3594C39.3557 95.2656 39.3319 95.1636 39.3299 95.0601C39.3299 90.4701 39.3299 89.64 39.3299 88.79C39.3299 87.94 39.3999 87.1301 39.3299 86.3201C39.3299 85.9101 39.3299 85.4001 39.3299 83.4401C39.2899 82.4601 40.3999 82.92 40.9499 82.92Z" fill="#2F52A0"/>
<path d="M58.6401 94.86C57.6174 95.6134 56.3556 95.9688 55.0901 95.86C53.6819 95.6391 52.3984 94.9241 51.4694 93.843C50.5404 92.7619 50.0266 91.3854 50.0201 89.96C50.0088 89.0499 50.1164 88.1423 50.3401 87.26C51.0101 85 52.7801 82.93 55.2101 82.93C56.0767 82.847 56.9457 83.0624 57.6732 83.5407C58.4006 84.019 58.9429 84.7315 59.2101 85.56C59.3901 86.32 58.3701 87.22 57.6401 86.39L57.3101 85.97C57.1251 85.6494 56.8661 85.3778 56.5547 85.1777C56.2433 84.9776 55.8885 84.855 55.5201 84.82C54.0601 84.7 52.8201 86.99 52.5201 88.14C52.428 88.6112 52.3811 89.09 52.3801 89.57C52.3801 91.5 53.3001 93.72 55.6301 94.09C56.0558 94.0511 56.4693 93.9266 56.8457 93.7238C57.222 93.5211 57.5535 93.2442 57.8201 92.91L58.1401 92.59C58.334 92.4558 58.5643 92.3839 58.8001 92.3839C59.0359 92.3839 59.2662 92.4558 59.4601 92.59C59.7901 93.02 59.3301 94.29 58.6401 94.86Z" fill="#2F52A0"/>
<path d="M60.79 94.94C63.39 87.88 65.28 83.68 65.51 83.22C65.6152 83.0546 65.7647 82.922 65.9414 82.8372C66.1182 82.7523 66.3151 82.7187 66.51 82.74C67.1531 82.7249 67.7783 82.9536 68.26 83.38C69.1388 85.2718 69.832 87.2443 70.33 89.27C70.7752 91.1189 71.3227 92.9417 71.97 94.73C72.0146 95.0718 71.959 95.4192 71.81 95.73C71.5723 95.9122 71.2794 96.0075 70.98 96C70.52 96 70.06 95.77 69.98 95.52C69.5361 94.2531 69.1819 92.9566 68.92 91.64C68.27 91.64 67.46 91.64 66.77 91.64H65.9C65.3524 91.628 64.8045 91.6513 64.26 91.71C64.26 91.85 63.54 93.71 63.11 94.85L62.78 95.7C62.5561 95.9543 62.2602 96.1344 61.9316 96.2166C61.603 96.2987 61.2571 96.279 60.94 96.16C60.8 95.95 60.48 95.79 60.75 94.96L60.79 94.94ZM66.6 85.69C66.23 86.69 65.6 88.5 65.03 89.89C65.54 89.89 66.27 89.96 66.97 89.96C67.5 89.96 67.97 89.96 68.4 89.91C67.989 88.2726 67.495 86.6572 66.92 85.07C66.8843 85.0742 66.8511 85.0903 66.8257 85.1157C66.8003 85.1411 66.7842 85.1743 66.78 85.21L66.6 85.69Z" fill="#2F52A0"/>
<path d="M79.7599 89.31C79.7599 88.76 79.7599 86.38 79.7599 85.81C79.7599 85.24 79.71 84.61 79.71 83.87C79.71 83.78 79.92 82.79 80.71 82.79C81.08 82.79 81.7099 82.79 82.2799 82.79C83.092 82.7678 83.9039 82.8382 84.7 83C87.63 83.78 88.97 86.7601 88.92 89.5701C88.92 92.8201 87.86 95.31 85.14 95.93C84.0805 96.1772 82.9977 96.3113 81.9099 96.33C80.7599 96.33 79.8399 96.07 79.8399 95.38C79.7399 88.62 79.7599 89.86 79.7599 89.31ZM82.02 84.77V88.62C82.02 89.38 82.02 90.1 82.02 90.81V94.27C82.02 94.27 82.2299 94.27 82.4799 94.27C83.6099 94.27 85.6199 93.85 85.9399 93.34C86.5298 92.3295 86.8114 91.1685 86.7499 90C86.7499 89.88 86.7499 89.77 86.7499 89.65C86.7999 88.34 86.4999 86.38 85.4099 85.65C84.5684 85.0797 83.5656 84.7957 82.55 84.84C82.372 84.8276 82.195 84.8042 82.02 84.77Z" fill="#2F52A0"/>
<path d="M90.33 84.47C90.33 83.96 90.6899 82.92 91.4999 82.92C93.4999 82.92 94.82 82.76 96.11 82.76C96.5109 82.7613 96.9115 82.7846 97.3099 82.83C97.561 82.8667 97.7911 82.9906 97.96 83.18C98.33 83.66 97.7999 84.49 97.1299 84.68C96.3152 84.7488 95.4973 84.7722 94.68 84.75C93.78 84.75 92.9099 84.75 92.3799 84.81C92.3799 85.39 92.3799 85.74 92.3799 86.13C92.3799 87.47 92.3799 87.24 92.3799 87.81C92.9099 87.81 93.2399 87.74 93.9099 87.74C94.4175 87.7347 94.925 87.7581 95.43 87.81C96.03 87.9 96.1 89.1 95.7 89.47C95.3 89.84 93.6099 89.8 92.4099 89.8C92.4099 90.21 92.4099 90.63 92.4099 90.99C92.4099 91.82 92.41 92.4 92.36 93.12V93.76C92.6697 93.7771 92.9802 93.7771 93.29 93.76C94.21 93.76 95.38 93.76 96.01 93.69C96.88 93.69 97.8999 93.43 98.4699 94.17V94.24C98.7499 94.7 99.12 95.37 98.29 95.6C97.8726 95.7316 97.4376 95.799 96.9999 95.8C96.2899 95.8 95.5999 95.8 94.8799 95.9C94.1599 96 93.1499 95.99 92.4099 95.99C91.4099 95.99 90.6799 95.87 90.4099 95.5C90.1295 94.7192 90.027 93.8855 90.11 93.06C90.11 91.26 90.11 89.72 90.11 88.17C90.11 86.62 90.3 84.77 90.33 84.47Z" fill="#2F52A0"/>
<path d="M9.31 100.79C12.06 100.79 14.31 101.1 16.45 101.1C17.64 101.27 18.53 101.5 18.53 102.56C18.53 103.62 18.04 104.42 16.71 104.42C15.16 104.42 11.97 104.29 11.53 104.29C11.44 104.29 11.39 104.29 11.39 104.42C11.48 105.42 11.48 106.42 11.48 107.48C11.48 109.83 11.35 112.31 11.35 114.79C11.35 116.52 11.62 117.45 11.62 120.64C11.62 122.86 11.31 125.25 10.2 125.83C9.70461 126.026 9.18171 126.144 8.65002 126.18C7.76002 126.18 7.32001 124.63 7.32001 123.08C7.32001 121 7.32001 119.22 7.32001 117.45C7.32001 116.12 7.46002 114.53 7.46002 111.82C7.46002 109.11 7.37003 107.61 7.37003 105.93C7.37003 105.84 7.37003 104.42 7.37003 104.38C7.08724 104.355 6.80281 104.355 6.52002 104.38C5.33002 104.38 4.00001 104.56 2.76001 104.56C2.29808 104.583 1.83506 104.553 1.38 104.47C1.00829 104.423 0.665438 104.245 0.412659 103.968C0.159879 103.692 0.0136181 103.334 0 102.96C0 100.43 5.85 100.79 9.31 100.79Z" fill="#2F52A0"/>
<path d="M28.0599 120.29C25.7782 120.135 23.6379 119.13 22.062 117.472C20.4862 115.815 19.5897 113.627 19.5499 111.34C19.4599 107.08 22.3399 101.34 28.9499 101.59C31.1513 101.704 33.2293 102.642 34.7722 104.216C36.3151 105.79 37.2101 107.887 37.2799 110.09C37.3699 115.86 33.5999 120.24 28.0599 120.29ZM29.6099 121.71C31.0299 121.71 32.7599 121.84 33.9499 121.84C34.9499 121.93 36.2099 122.06 36.4799 122.77C37.8099 125.77 34.9699 125.65 33.1599 125.61C32.1599 125.61 31.0299 125.61 28.2399 125.61C26.8599 125.61 25.5299 125.48 24.2399 125.48C22.5499 125.3 20.5599 124.99 20.1599 123.31C19.7599 121.63 21.3599 121.4 23.6199 121.4L29.6099 121.71ZM28.3199 105.53C25.3999 105.66 23.6299 108.14 23.4499 111.11C23.4148 111.774 23.5109 112.438 23.7327 113.065C23.9545 113.692 24.2977 114.269 24.7425 114.763C25.1873 115.257 25.7252 115.658 26.3253 115.944C26.9254 116.23 27.576 116.396 28.2399 116.43C31.5999 116.43 33.5999 113.11 33.4699 110.36C33.4077 109.044 32.8352 107.803 31.8738 106.901C30.9125 106 29.6377 105.508 28.3199 105.53Z" fill="#2F52A0"/>
<path d="M39.7999 113.55C39.7999 112.49 39.7999 107.92 39.7199 106.81C39.6399 105.7 39.6299 104.51 39.6299 103.09C39.6299 102.91 40.0299 101.01 41.5299 101.01C42.2399 101.01 43.5299 100.92 44.5299 100.92C46.0901 100.875 47.6503 101.01 49.1799 101.32C54.8099 102.83 57.3799 108.54 57.2899 113.95C57.2899 120.2 55.2899 124.95 50.0199 126.18C47.9853 126.648 45.9074 126.903 43.8199 126.94C41.5999 126.94 39.8199 126.45 39.8199 125.12C39.7599 112.22 39.7999 114.66 39.7999 113.55ZM44.1499 104.82V112.22C44.0999 113.68 44.0999 115.06 44.0999 116.43V123.08C44.1499 122.99 44.4999 123.08 44.9899 123.08C47.1599 123.08 50.9899 122.28 51.6399 121.3C53.0999 119.18 53.1399 116.56 53.1899 114.88C53.1899 114.66 53.1899 114.43 53.1899 114.21C53.2799 111.69 52.7099 107.92 50.6199 106.41C49.2499 105.22 46.7199 104.86 45.1299 104.86C44.8035 104.88 44.4763 104.88 44.1499 104.86V104.82Z" fill="#2F52A0"/>
<path d="M68.2299 120.29C65.9499 120.131 63.8121 119.124 62.2372 117.467C60.6623 115.811 59.7643 113.625 59.7199 111.34C59.6399 107.08 62.5199 101.34 69.1199 101.59C71.3221 101.702 73.4015 102.638 74.9448 104.213C76.4881 105.788 77.3824 107.886 77.4499 110.09C77.5199 115.86 73.7499 120.24 68.2299 120.29ZM69.7899 121.71C71.1999 121.71 72.9299 121.84 74.1299 121.84C75.1299 121.93 76.3899 122.06 76.6499 122.77C77.9799 125.77 75.1499 125.65 73.3299 125.61C72.3299 125.61 71.1999 125.61 68.4099 125.61C67.0399 125.61 65.7099 125.48 64.4099 125.48C62.7299 125.3 60.7299 124.99 60.3299 123.31C59.9299 121.63 61.5299 121.4 63.7899 121.4L69.7899 121.71ZM68.4999 105.53C65.5699 105.66 63.7999 108.14 63.6199 111.11C63.5518 112.45 64.0177 113.763 64.9156 114.76C65.8134 115.757 67.07 116.358 68.4099 116.43C71.7799 116.43 73.7699 113.11 73.6399 110.36C73.5802 109.041 73.007 107.797 72.0429 106.895C71.0788 105.992 69.8002 105.503 68.4799 105.53H68.4999Z" fill="#2F52A0"/>
<path d="M98.88 118.07C98.7927 120.171 97.9265 122.163 96.45 123.66C94.6573 125.294 92.3155 126.193 89.89 126.18C87.27 126.32 82.53 125.83 80.36 121.97C79.74 120.82 79.5601 119.62 80.4901 118.83C81.7301 117.72 83.06 118.6 83.95 120.2C84.7 121.62 86.7 122.28 88.03 122.68C88.5234 122.78 89.0267 122.824 89.53 122.81C91.53 122.81 94.4101 122.06 94.9001 119.4C95.4301 116.4 91.66 115.06 87.8 113.77C83.94 112.48 79.8 110.94 79.8 107.44C79.8 103.94 83.61 100.34 88.09 100.44C90 100.44 92.7901 100.66 94.5201 101.68C95.9747 102.55 97.084 103.896 97.66 105.49C97.7939 105.709 97.8726 105.958 97.8893 106.214C97.906 106.471 97.8603 106.728 97.7561 106.963C97.6519 107.198 97.4923 107.404 97.291 107.564C97.0896 107.723 96.8525 107.832 96.6 107.88C96.0307 107.818 95.4832 107.626 94.9996 107.319C94.516 107.012 94.109 106.599 93.81 106.11C92.97 104.43 90.4801 103.98 88.6201 104.03C87.5101 104.03 84.41 105.09 84.06 107.03C84.06 108.03 85.65 109.11 86.41 109.51C86.98 109.73 87.91 110.13 89.07 110.57C92.57 111.81 97.6601 113.67 98.4601 115.76C98.7493 116.495 98.892 117.28 98.88 118.07Z" fill="#2F52A0"/>
<path d="M78.09 43.68C81.4755 43.68 84.22 40.9355 84.22 37.55C84.22 34.1645 81.4755 31.42 78.09 31.42C74.7045 31.42 71.96 34.1645 71.96 37.55C71.96 40.9355 74.7045 43.68 78.09 43.68Z" fill="#E60064"/>
<path d="M65.2301 54.13L65.4801 37.57C65.4831 37.4335 65.5334 37.3023 65.6224 37.1987C65.7114 37.0952 65.8335 37.0256 65.968 37.002C66.1025 36.9784 66.241 37.0022 66.3599 37.0693C66.4788 37.1364 66.5708 37.2427 66.6201 37.37C66.6201 37.37 70.8901 43.1 72.0701 45.96C72.1792 46.2296 72.3457 46.4722 72.5582 46.6708C72.7706 46.8694 73.0238 47.0193 73.3001 47.11L76.4301 48.11C76.689 48.1912 76.9616 48.2189 77.2315 48.1914C77.5014 48.1639 77.7629 48.0818 78.0001 47.95C80.6001 46.48 89.3401 42.9 89.3401 42.9C89.9101 42.54 90.5801 43.24 90.1501 43.75L77.9401 58.29L69.4201 73.49C69.3495 73.5799 69.2532 73.6461 69.1439 73.6797C69.0346 73.7132 68.9177 73.7125 68.8088 73.6777C68.7 73.6429 68.6044 73.5755 68.5349 73.4848C68.4654 73.394 68.4253 73.2842 68.4201 73.17L70.5801 59.86H70.5001L68.0201 62.25C67.7774 62.4863 67.4771 62.6549 67.149 62.7392C66.821 62.8234 66.4766 62.8202 66.1501 62.73C65.725 62.6016 65.3546 62.3354 65.0975 61.9733C64.8404 61.6111 64.7111 61.1737 64.7301 60.73L65.2301 54.13Z" fill="#E60064"/>
<path d="M65.1501 66.44C65.8626 66.44 66.4401 65.8624 66.4401 65.15C66.4401 64.4375 65.8626 63.86 65.1501 63.86C64.4377 63.86 63.8601 64.4375 63.8601 65.15C63.8601 65.8624 64.4377 66.44 65.1501 66.44Z" fill="#E60064"/>
<path d="M63.67 71.7301C64.6144 71.7301 65.38 70.9645 65.38 70.0201C65.38 69.0757 64.6144 68.3101 63.67 68.3101C62.7256 68.3101 61.96 69.0757 61.96 70.0201C61.96 70.9645 62.7256 71.7301 63.67 71.7301Z" fill="#E60064"/>
<path d="M32.07 37.57C32.07 37.57 28.39 45.83 27.57 48.69C27.4822 48.9883 27.3301 49.2637 27.1245 49.4969C26.919 49.7301 26.6648 49.9155 26.38 50.04L23.82 51.2101C23.2592 51.4396 22.6307 51.4396 22.07 51.2101C19.31 50.1501 10.88 47.97 10.88 47.97C10.31 47.71 9.75996 48.4301 10.22 48.8401L23.48 60.7101L33.34 73.6101C33.4178 73.6877 33.5175 73.7397 33.6257 73.7592C33.7339 73.7786 33.8455 73.7646 33.9455 73.7189C34.0456 73.6733 34.1293 73.5982 34.1854 73.5037C34.2416 73.4092 34.2676 73.2998 34.26 73.1901L30.62 61.19H30.69L38.91 69.9301C38.9981 70.0156 39.112 70.0697 39.2339 70.0842C39.3559 70.0987 39.4792 70.0727 39.5849 70.0101C39.6907 69.9476 39.7729 69.8521 39.819 69.7382C39.8651 69.6243 39.8724 69.4985 39.84 69.38L34.96 55.38L33.17 37.5301C33.133 37.4103 33.0575 37.3061 32.9553 37.2335C32.8531 37.161 32.7299 37.1241 32.6046 37.1287C32.4794 37.1332 32.3591 37.1789 32.2625 37.2587C32.1658 37.3385 32.0982 37.4479 32.07 37.57ZM32.63 51.63C32.7101 51.7961 32.7577 51.976 32.77 52.16C32.7952 52.3939 32.7644 52.6305 32.68 52.85L31.55 56.4501C31.5542 56.4665 31.5542 56.4837 31.55 56.5001H31.49C31.49 56.5001 27.72 55.5001 26.95 54.2101C26.8526 54.0194 26.7962 53.8105 26.7841 53.5967C26.7721 53.3829 26.8047 53.169 26.88 52.9685C26.9553 52.7681 27.0715 52.5856 27.2213 52.4326C27.3711 52.2796 27.5512 52.1595 27.75 52.0801C28.038 51.9507 28.3564 51.9047 28.6693 51.9471C28.9821 51.9895 29.2768 52.1187 29.52 52.32C29.5252 52.0042 29.6226 51.6968 29.8003 51.4356C29.978 51.1744 30.2281 50.9709 30.52 50.85C30.9059 50.6962 31.3351 50.6907 31.7248 50.8348C32.1145 50.9788 32.437 51.2621 32.63 51.63Z" fill="#FBBA00"/>
<path d="M26.9601 40.12C26.4125 38.5873 25.2805 37.3337 23.8115 36.6329C22.3425 35.9321 20.6559 35.8412 19.1201 36.38C18.5334 36.5871 17.9806 36.8803 17.4801 37.25C14.9801 35.49 11.7701 33.92 10.6001 36.38C8.6001 40.63 3.3501 45.5 3.3501 45.5C3.3501 45.5 7.29012 47.6 11.4001 42.1C12.4521 40.5469 14.0587 39.4556 15.8901 39.05C15.437 39.8206 15.1592 40.6814 15.0762 41.5715C14.9932 42.4615 15.1072 43.3589 15.4101 44.2C15.9511 45.7316 17.0785 46.9856 18.5441 47.686C20.0097 48.3865 21.6935 48.476 23.2251 47.935C24.7567 47.3939 26.0107 46.2666 26.7112 44.801C27.4116 43.3354 27.5012 41.6516 26.9601 40.12Z" fill="#FBBA00"/>
<path d="M49.9599 35.56C49.0412 35.5511 48.1247 35.6518 47.2299 35.86L47.0199 35.57V32.43H47.2299C48.7226 32.4417 50.1685 31.9093 51.2971 30.9322C52.4257 29.9552 53.1597 28.6004 53.3617 27.1214C53.5638 25.6424 53.2202 24.1404 52.3951 22.8964C51.57 21.6524 50.3199 20.7515 48.8788 20.3624C47.4376 19.9733 45.904 20.1225 44.5649 20.7822C43.2258 21.4419 42.1729 22.5668 41.6031 23.9466C41.0334 25.3263 40.9857 26.8664 41.4692 28.2787C41.9527 29.691 42.9341 30.8789 44.2299 31.62C42.5499 33.53 40.7499 35.81 40.7099 36.87C40.7099 37.25 41.2299 37.87 42.0899 38.54C40.0113 40.386 38.6454 42.902 38.2294 45.6507C37.8134 48.3994 38.3736 51.2069 39.8128 53.5854C41.252 55.9638 43.4791 57.7628 46.107 58.6696C48.7349 59.5764 51.5975 59.5337 54.1972 58.549C56.7969 57.5643 58.9694 55.6997 60.3371 53.2794C61.7047 50.8591 62.1811 48.0361 61.6833 45.3011C61.1856 42.566 59.7452 40.0919 57.6126 38.3086C55.4799 36.5253 52.7898 35.5457 50.0099 35.54L49.9599 35.56ZM49.9599 53.96C48.5203 53.9625 47.1204 53.4878 45.9794 52.61C44.8383 51.7323 44.0203 50.5011 43.6534 49.109C43.2866 47.717 43.3914 46.2425 43.9517 44.9164C44.512 43.5903 45.496 42.4873 46.7499 41.78C48.8799 43.07 51.1399 44.34 52.7499 45.21C52.8614 45.2699 52.9899 45.2904 53.1145 45.2679C53.2391 45.2454 53.3524 45.1814 53.4359 45.0863C53.5195 44.9911 53.5683 44.8705 53.5745 44.744C53.5806 44.6176 53.5438 44.4928 53.4699 44.39L50.9799 41.01C52.7038 41.1426 54.3044 41.9546 55.4296 43.2673C56.5548 44.5801 57.1125 46.2861 56.9799 48.01C56.8473 49.7339 56.0353 51.3345 54.7225 52.4597C53.4098 53.585 51.7038 54.1426 49.9799 54.01L49.9599 53.96Z" fill="#2F52A0"/>
<path d="M31.59 22.86C32.3516 22.1845 33.2157 21.6344 34.15 21.23C34.39 21.13 34.62 21.0201 34.86 20.9301L35.62 20.7701C36.1103 20.6293 36.6207 20.5719 37.13 20.6C38.0631 20.5536 38.9959 20.7 39.87 21.0301C39.9537 19.0607 39.5663 17.0997 38.74 15.3101C31.52 17.2301 29.33 22.67 28.74 26.79C29.4287 25.3091 30.3963 23.9748 31.59 22.86Z" fill="#52AE32"/>
<path d="M37.2799 22.21C35.6742 22.5273 34.1887 23.2857 32.9899 24.4C31.73 25.5743 30.6425 26.921 29.7599 28.4C29.2921 29.4966 28.9174 30.6305 28.6399 31.79C36.5899 29.58 39.1799 25.58 39.7499 22.08C38.925 21.9871 38.0904 22.031 37.2799 22.21Z" fill="#52AE32"/>
<path d="M83.5901 64.27C82.7502 65.1039 82.0482 66.0659 81.5101 67.12C81.3801 67.38 81.2401 67.64 81.1201 67.92L80.8801 68.78C80.6788 69.3382 80.5739 69.9266 80.5701 70.52C80.4501 71.5966 80.5556 72.6864 80.8801 73.72C78.5901 73.6821 76.3432 73.0921 74.3301 72C77.0701 63.78 83.5401 61.63 88.3301 61.23C86.5693 61.9291 84.9599 62.9613 83.5901 64.27Z" fill="#52AE32"/>
<path d="M82.4401 70.86C82.9309 69.0256 83.9168 67.3616 85.2901 66.05C86.7446 64.6786 88.3839 63.5174 90.1601 62.6C91.463 62.1428 92.8006 61.7917 94.1601 61.55C91.0201 70.6 86.2101 73.31 82.1101 73.71C82.067 72.7485 82.1784 71.7863 82.4401 70.86Z" fill="#52AE32"/>
<path d="M11.74 55.7C10.5716 55.5276 9.38304 55.5445 8.22 55.7501C7.9239 55.7913 7.63016 55.848 7.34 55.92L6.51001 56.2401C5.94169 56.415 5.40738 56.6855 4.93002 57.04C3.99778 57.5945 3.18804 58.3329 2.55002 59.2101C1.20843 57.3554 0.333705 55.2046 0 52.94C8.21 50.19 13.81 54.0701 17 57.6801C15.3925 56.6835 13.6056 56.0109 11.74 55.7Z" fill="#52AE32"/>
<path d="M5.82007 58.71C7.58204 57.9992 9.5059 57.7881 11.3801 58.0999C13.3508 58.4315 15.2636 59.0445 17.0601 59.9199C18.2144 60.6827 19.3017 61.5425 20.3101 62.4899C11.1901 65.4199 6.13006 63.1999 3.31006 60.1599C4.06288 59.5442 4.91055 59.0545 5.82007 58.71Z" fill="#52AE32"/>
<path d="M97.04 53.86C96.5097 53.2671 95.8928 52.758 95.2101 52.3499L94.6801 52.06L94.11 51.86C93.7402 51.7071 93.3489 51.6126 92.95 51.58C92.2314 51.4638 91.4966 51.4944 90.79 51.67C90.9055 50.1312 91.3891 48.6428 92.2 47.33C94.2054 48.0657 95.9295 49.4117 97.1296 51.1787C98.3297 52.9457 98.9454 55.0447 98.89 57.18C98.4888 55.9663 97.861 54.8397 97.04 53.86Z" fill="#52AE32"/>
<path d="M92.6801 52.8C93.8956 53.2004 94.9759 53.9309 95.8 54.91C96.6704 55.9382 97.3878 57.0867 97.9301 58.32C98.1899 59.2163 98.3739 60.1329 98.48 61.06C92.48 58.59 90.89 55.25 90.78 52.47C91.4265 52.482 92.0674 52.5933 92.6801 52.8Z" fill="#52AE32"/>
<path d="M6.53 67.46C5.93164 67.9849 5.4218 68.6029 5.02002 69.29C4.92002 69.47 4.81001 69.64 4.73001 69.82L4.53 70.39C4.37243 70.7583 4.27778 71.1504 4.25 71.55C4.12567 72.2677 4.15294 73.0034 4.33002 73.71C2.79464 73.5933 1.30969 73.1098 0 72.3C0.735697 70.2947 2.08182 68.5706 3.84882 67.3705C5.61582 66.1703 7.7147 65.5546 9.85001 65.61C8.63525 66.0088 7.50823 66.6368 6.53 67.46Z" fill="#52AE32"/>
<path d="M5.49991 71.86C5.89863 70.6409 6.62933 69.557 7.60992 68.73C8.63624 67.8647 9.78119 67.1508 11.0099 66.61C11.9062 66.3502 12.8228 66.1662 13.7499 66.0601C11.2799 72.0601 7.93992 73.6501 5.16992 73.7601C5.17121 73.1126 5.28279 72.47 5.49991 71.86Z" fill="#52AE32"/>
<path d="M18.08 32.4601C18.6247 32.3668 19.1512 32.1879 19.64 31.9301C19.76 31.8601 19.8899 31.8 19.9999 31.72L20.33 31.4601C20.5521 31.2979 20.7478 31.1022 20.9099 30.88C21.2486 30.4983 21.501 30.0481 21.65 29.5601C22.5207 30.1872 23.2245 31.0181 23.7 31.98C22.5355 32.8994 21.1117 33.4297 19.6296 33.4961C18.1475 33.5625 16.6819 33.1616 15.4399 32.35C16.3045 32.5572 17.2011 32.5946 18.08 32.4601Z" fill="#52AE32"/>
<path d="M20.23 30.2599C19.553 30.835 18.7285 31.2091 17.85 31.34C16.9245 31.4703 15.9854 31.4703 15.06 31.34C14.4362 31.1661 13.8276 30.942 13.24 30.6699C16.87 28.0399 19.44 28.2899 21.12 29.2299C20.8885 29.6246 20.5868 29.9736 20.23 30.2599Z" fill="#52AE32"/>
<path d="M46.06 66.62C46.0978 67.3228 46.0304 68.0272 45.86 68.71C45.81 68.88 45.7701 69.05 45.7101 69.22L45.48 69.7C45.3437 70.0233 45.1582 70.3235 44.9301 70.59C44.5554 71.1157 44.0794 71.5611 43.53 71.9C44.5629 72.7866 45.7944 73.411 47.1201 73.72C47.9148 72.0048 48.1494 70.0829 47.7904 68.2269C47.4314 66.3709 46.4971 64.6751 45.1201 63.38C45.6415 64.3884 45.9608 65.4891 46.06 66.62Z" fill="#52AE32"/>
<path d="M43.98 69.9799C44.4868 68.9684 44.7081 67.8379 44.62 66.71C44.509 65.5261 44.2399 64.3624 43.82 63.25C43.42 62.5304 42.9618 61.8448 42.45 61.2C40.26 66.47 41.33 69.58 43 71.38C43.3994 70.9687 43.7303 70.496 43.98 69.9799Z" fill="#52AE32"/>
<path d="M58.75 67.5601C57.8934 68.0901 56.9586 68.4815 55.98 68.72C55.73 68.78 55.49 68.85 55.24 68.89H54.48C53.9791 68.949 53.4718 68.9219 52.98 68.8101C52.0614 68.7013 51.1757 68.4015 50.38 67.9301C49.9678 69.8343 50.0192 71.8098 50.5299 73.6901C57.8799 73.0301 60.92 68.0901 62.19 64.1801C61.2712 65.5174 60.1032 66.665 58.75 67.5601Z" fill="#52AE32"/>
<path d="M53.0999 67.2299C54.7152 67.1839 56.2863 66.6925 57.6399 65.81C59.0607 64.8735 60.3431 63.7425 61.4499 62.45C62.0888 61.4578 62.6441 60.4142 63.1099 59.33C54.9899 60.16 51.8099 63.6199 50.6699 66.9399C51.4597 67.1635 52.2797 67.2614 53.0999 67.2299Z" fill="#52AE32"/>
<path d="M85.5401 58.03C86.6115 58.03 87.4801 57.1615 87.4801 56.09C87.4801 55.0186 86.6115 54.15 85.5401 54.15C84.4687 54.15 83.6001 55.0186 83.6001 56.09C83.6001 57.1615 84.4687 58.03 85.5401 58.03Z" fill="#F39200"/>
<path d="M89.2 39.03C90.2714 39.03 91.14 38.1615 91.14 37.09C91.14 36.0186 90.2714 35.15 89.2 35.15C88.1286 35.15 87.26 36.0186 87.26 37.09C87.26 38.1615 88.1286 39.03 89.2 39.03Z" fill="#F39200"/>
<path d="M49.45 18.26C50.5214 18.26 51.39 17.3914 51.39 16.32C51.39 15.2486 50.5214 14.38 49.45 14.38C48.3786 14.38 47.51 15.2486 47.51 16.32C47.51 17.3914 48.3786 18.26 49.45 18.26Z" fill="#F39200"/>
<path d="M20.7701 70.1C21.8415 70.1 22.7101 69.2314 22.7101 68.16C22.7101 67.0885 21.8415 66.22 20.7701 66.22C19.6986 66.22 18.8301 67.0885 18.8301 68.16C18.8301 69.2314 19.6986 70.1 20.7701 70.1Z" fill="#F39200"/>
<path d="M28.73 37.76C29.8015 37.76 30.67 36.8914 30.67 35.82C30.67 34.7486 29.8015 33.88 28.73 33.88C27.6586 33.88 26.79 34.7486 26.79 35.82C26.79 36.8914 27.6586 37.76 28.73 37.76Z" fill="#F39200"/>
<path d="M63.2299 20.52C62.6399 18.68 61.5999 17.14 61.3799 15.15C60.3799 15.81 59.7199 16.35 59.7899 17.66C58.6199 16.97 57.6799 18.74 58.1899 19.66C56.4499 20.22 55.4399 21.84 56.9499 23.27C55.9499 24.21 56.7199 25.27 57.6899 25.89C56.9909 26.178 56.4314 26.7267 56.1299 27.42C55.5199 28.86 56.5999 29.65 57.9499 29.85C60.4699 30.22 63.0799 25.85 63.0899 25.85L63.1499 25.77C64.0799 24.48 63.6999 21.92 63.2299 20.52Z" fill="#00A8A8"/>
<path d="M69.59 24.45C71.59 24.18 73.4601 24.45 75.4001 23.74C75.2401 24.96 75.0401 25.83 73.8001 26.35C74.9701 27.13 73.7501 28.8 72.6501 28.75C72.9101 30.62 71.8601 32.3 69.8501 31.53C69.4101 32.85 68.07 32.67 67.09 32.03C67.1379 32.8099 66.8796 33.5776 66.3701 34.17C65.3201 35.39 64.0901 34.74 63.3001 33.59C61.8201 31.41 64.6601 27.03 64.6601 27.02C64.6563 26.9901 64.6563 26.9599 64.6601 26.93C65.5401 25.47 68.08 24.66 69.59 24.45Z" fill="#00A8A8"/>
<path d="M69.3999 22.2501C68.9427 22.2762 68.4915 22.3671 68.0599 22.5201L66.7999 23.0601C66.3779 23.2408 65.9892 23.4909 65.6499 23.8C65.5009 23.9391 65.3669 24.0932 65.2499 24.26C65.2103 24.2277 65.1666 24.2008 65.1199 24.1801C65.2024 24.0108 65.2661 23.8331 65.3099 23.6501C65.4226 23.2061 65.4565 22.7457 65.4099 22.29C65.3599 21.84 65.3299 21.39 65.2699 20.95C65.1988 20.5019 65.0605 20.067 64.8599 19.66L65.1599 20.9601C65.2889 21.3879 65.3496 21.8333 65.3399 22.2801C65.324 22.7244 65.2671 23.1662 65.1699 23.6C65.1238 23.7767 65.067 23.9503 64.9999 24.1201C64.8147 24.0799 64.6213 24.1085 64.4557 24.2005C64.2901 24.2925 64.1636 24.4416 64.0999 24.6201C64.0498 24.755 64.0402 24.9016 64.0722 25.0419C64.1041 25.1822 64.1763 25.3101 64.2799 25.41C63.7004 25.7858 63.2036 26.2758 62.8199 26.85C62.4148 27.5238 62.1781 28.2853 62.1299 29.07C62.821 28.6837 63.4105 28.1388 63.8499 27.48C64.2101 26.8963 64.4387 26.2411 64.5199 25.5601C64.6164 25.595 64.7189 25.6106 64.8214 25.6059C64.924 25.6012 65.0246 25.5763 65.1175 25.5327C65.2104 25.489 65.2937 25.4274 65.3628 25.3515C65.4319 25.2755 65.4852 25.1867 65.5199 25.0901C65.566 24.9593 65.5754 24.8185 65.5472 24.6827C65.519 24.547 65.4542 24.4216 65.3599 24.32C65.4829 24.1705 65.6166 24.0302 65.7599 23.9001C66.0938 23.6028 66.4555 23.3383 66.8399 23.11C67.2309 22.8802 67.6563 22.7148 68.0999 22.6201C68.5399 22.4901 68.9699 22.37 69.3999 22.23V22.2501Z" fill="#00A8A8"/>
<path d="M98.89 29.52C98.8892 29.8145 98.8109 30.1036 98.6631 30.3583C98.5153 30.613 98.3031 30.8244 98.0479 30.9712C97.7926 31.1181 97.5033 31.1953 97.2088 31.1951C96.9143 31.1949 96.6251 31.1172 96.37 30.97L49.44 3.85999L2.51002 30.95C2.25575 31.098 1.96688 31.1762 1.67268 31.1766C1.37848 31.1771 1.08939 31.0998 0.834638 30.9527C0.579891 30.8055 0.368559 30.5937 0.221998 30.3386C0.0754372 30.0835 -0.00115717 29.7942 1.32143e-05 29.5C0.000132987 29.2044 0.0777773 28.9141 0.225172 28.6579C0.372566 28.4017 0.584553 28.1886 0.84001 28.04L49.44 -0.0200195L98.05 28.04C98.3055 28.1886 98.5175 28.4017 98.6649 28.6579C98.8123 28.9141 98.8899 29.2044 98.89 29.5V29.52Z" fill="#2F52A0"/>
</g>
<defs>
<clipPath id="clip0_720_348">
<rect width="98.89" height="126.93" fill="white"/>
</clipPath>
</defs>
</svg>
