<svg width="53" height="53" viewBox="0 0 53 53" fill="none" xmlns="http://www.w3.org/2000/svg">
<g clip-path="url(#clip0_728_401)">
<path d="M0 26.02C0 31.1623 1.52492 36.1892 4.38184 40.4648C7.23875 44.7405 11.2994 48.073 16.0503 50.0408C20.8012 52.0087 26.0289 52.5236 31.0724 51.5204C36.1159 50.5172 40.7486 48.041 44.3848 44.4048C48.0209 40.7686 50.4973 36.1359 51.5005 31.0923C52.5037 26.0488 51.9888 20.8211 50.0209 16.0703C48.053 11.3194 44.7205 7.25871 40.4448 4.40179C36.1691 1.54488 31.1423 0.0200195 26 0.0200195C19.1044 0.0200195 12.4912 2.75925 7.61523 7.63519C2.73929 12.5111 0 19.1244 0 26.02ZM49.48 26.02C49.482 30.6608 48.1076 35.1979 45.5305 39.0574C42.9535 42.9169 39.2896 45.9254 35.0024 47.7023C30.7153 49.4791 25.9974 49.9446 21.4457 49.0397C16.894 48.1348 12.7128 45.9003 9.43127 42.6187C6.14973 39.3372 3.91527 35.1561 3.01038 30.6044C2.10549 26.0526 2.57091 21.3348 4.34778 17.0476C6.12465 12.7604 9.13304 9.09659 12.9926 6.51953C16.8521 3.94247 21.3892 2.56803 26.03 2.57001C32.2485 2.57266 38.2116 5.04413 42.6088 9.44128C47.0059 13.8384 49.4773 19.8015 49.48 26.02Z" fill="#1D1D1B"/>
<path d="M6.22998 26.02C6.22998 29.9361 7.39124 33.7642 9.56689 37.0203C11.7425 40.2764 14.8349 42.8142 18.4529 44.3128C22.0709 45.8114 26.052 46.2035 29.8928 45.4395C33.7336 44.6755 37.2617 42.7898 40.0308 40.0207C42.7998 37.2516 44.6856 33.7236 45.4496 29.8828C46.2136 26.0419 45.8215 22.0608 44.3229 18.4429C42.8243 14.8249 40.2864 11.7325 37.0303 9.55688C33.7742 7.38123 29.9461 6.21997 26.03 6.21997C20.7804 6.22527 15.7472 8.31307 12.0352 12.0251C8.32308 15.7372 6.23528 20.7704 6.22998 26.02ZM27.17 14.13V26.66L36.88 36.74C37.0947 37.026 37.197 37.381 37.1674 37.7374C37.1377 38.0939 36.9782 38.427 36.7192 38.6737C36.4602 38.9204 36.1197 39.0634 35.7622 39.0756C35.4047 39.0878 35.0553 38.9684 34.78 38.74L24.67 28.24C24.4096 27.9719 24.2627 27.6137 24.26 27.24V14.13C24.2433 13.9288 24.2686 13.7263 24.3341 13.5353C24.3996 13.3444 24.5041 13.1691 24.6409 13.0205C24.7776 12.872 24.9436 12.7534 25.1285 12.6722C25.3134 12.5911 25.5132 12.5493 25.7151 12.5493C25.917 12.5493 26.1166 12.5911 26.3015 12.6722C26.4864 12.7534 26.6526 12.872 26.7893 13.0205C26.926 13.1691 27.0304 13.3444 27.0959 13.5353C27.1615 13.7263 27.1867 13.9288 27.17 14.13Z" fill="#3C3C3B"/>
<path d="M2.57007 26.0201C2.56809 30.6605 3.94231 35.1972 6.51892 39.0565C9.09554 42.9158 12.7588 45.9243 17.0454 47.7014C21.332 49.4786 26.0493 49.9445 30.6007 49.0405C35.1522 48.1364 39.3333 45.9029 42.6152 42.6223C45.8972 39.3418 48.1326 35.1616 49.0386 30.6105C49.9446 26.0595 49.4805 21.342 47.7052 17.0546C45.9299 12.7673 42.9229 9.10274 39.0647 6.52448C35.2065 3.94621 30.6704 2.57007 26.03 2.57007C19.8098 2.57007 13.8441 5.04036 9.44483 9.43781C5.04551 13.8352 2.57272 19.7998 2.57007 26.0201ZM45.8301 26.0201C45.8301 29.9362 44.6688 33.7642 42.4932 37.0203C40.3175 40.2764 37.2252 42.8143 33.6072 44.3129C29.9892 45.8115 26.0081 46.2036 22.1672 45.4396C18.3264 44.6756 14.7984 42.7898 12.0293 40.0208C9.26022 37.2517 7.37446 33.7236 6.61048 29.8828C5.84649 26.042 6.23857 22.0609 7.73718 18.4429C9.2358 14.825 11.7737 11.7326 15.0298 9.55695C18.2859 7.38129 22.114 6.22003 26.03 6.22003C31.2797 6.22533 36.3128 8.31313 40.0249 12.0252C43.737 15.7373 45.8248 20.7704 45.8301 26.0201Z" fill="white"/>
<path d="M25.7201 12.67C25.3329 12.67 24.9614 12.8239 24.6876 13.0977C24.4138 13.3715 24.26 13.7428 24.26 14.1301V27.2401C24.2627 27.6138 24.4096 27.972 24.67 28.2401L34.78 38.7401C35.0553 38.9685 35.4047 39.0879 35.7622 39.0757C36.1197 39.0635 36.4602 38.9204 36.7192 38.6738C36.9782 38.4271 37.1377 38.0939 37.1674 37.7375C37.197 37.381 37.0947 37.0261 36.88 36.7401L27.17 26.66V14.1301C27.1701 13.7446 27.0176 13.3747 26.746 13.1012C26.4743 12.8277 26.1056 12.6727 25.7201 12.67Z" fill="white"/>
</g>
<defs>
<clipPath id="clip0_728_401">
<rect width="52.05" height="52.05" fill="white"/>
</clipPath>
</defs>
</svg>
