<svg width="325" height="358" viewBox="0 0 325 358" fill="none" xmlns="http://www.w3.org/2000/svg">
<path d="M58.3953 292.84H40.0522V344.301C40.0559 348.442 41.6919 352.417 44.6067 355.365C45.4251 356.192 46.3987 356.851 47.4722 357.303C48.5456 357.755 49.6978 357.992 50.8629 357.999H65.79C66.9673 357.999 68.1329 357.766 69.2195 357.314C70.3061 356.861 71.2923 356.199 72.1212 355.365C75.0326 352.415 76.6642 348.441 76.6632 344.301V292.84H58.3953Z" fill="#383838"/>
<path d="M46.6339 356.863V292.84H45.0323V355.752C45.5215 356.182 46.0589 356.556 46.6339 356.863Z" fill="#080A07"/>
<path d="M55.017 292.828H53.403V357.987H55.017V292.828Z" fill="#080A07"/>
<path d="M63.3878 292.828H61.7737V357.987H63.3878V292.828Z" fill="#080A07"/>
<path d="M71.7585 355.727V292.84H70.1444V356.888C70.724 356.562 71.2653 356.173 71.7585 355.727Z" fill="#080A07"/>
<path d="M266.5 292.84H284.843V344.301C284.839 348.442 283.203 352.417 280.288 355.365C279.462 356.2 278.478 356.863 277.394 357.315C276.309 357.767 275.145 358 273.969 357.999H259.042C257.865 357.999 256.699 357.766 255.613 357.314C254.526 356.861 253.54 356.199 252.711 355.365C249.8 352.415 248.168 348.441 248.169 344.301V292.84H266.5Z" fill="#383838"/>
<path d="M278.261 356.863V292.84H279.863V355.752C279.373 356.182 278.836 356.556 278.261 356.863Z" fill="#080A07"/>
<path d="M271.504 292.828H269.89V357.987H271.504V292.828Z" fill="#080A07"/>
<path d="M263.121 292.828H261.507V357.987H263.121V292.828Z" fill="#080A07"/>
<path d="M253.136 355.727V292.84H254.751V356.888C254.171 356.562 253.63 356.173 253.136 355.727Z" fill="#080A07"/>
<g style="mix-blend-mode:multiply">
<path d="M258.467 355.864C257.108 354.835 255.998 353.517 255.216 352.004C254.435 350.492 254.002 348.824 253.95 347.123C253.941 345.145 254.326 343.184 255.081 341.355C255.835 339.525 256.946 337.863 258.347 336.464C259.749 335.065 261.414 333.957 263.247 333.204C265.08 332.451 267.045 332.067 269.027 332.075H284.843V292.84H248.169V344.301C248.168 348.441 249.8 352.415 252.711 355.365C253.54 356.199 254.526 356.861 255.613 357.314C256.699 357.766 257.865 357.999 259.042 357.999H264.76C262.496 358.022 260.29 357.279 258.504 355.889L258.467 355.864Z" fill="#9DA8B2"/>
</g>
<g style="mix-blend-mode:multiply">
<path d="M48.2979 355.864C46.9397 354.835 45.8291 353.517 45.0476 352.004C44.2661 350.492 43.8333 348.824 43.781 347.123C43.7727 345.15 44.155 343.195 44.9059 341.369C45.6567 339.544 46.7614 337.885 48.1564 336.487C49.5515 335.089 51.2095 333.979 53.0353 333.222C54.861 332.465 56.8186 332.075 58.7957 332.075H76.6632V292.84H40.0522V344.301C40.0559 348.442 41.6919 352.417 44.6067 355.365C45.4251 356.192 46.3987 356.851 47.4722 357.303C48.5456 357.755 49.6978 357.992 50.8629 357.999H54.529C52.2644 358.022 50.059 357.279 48.2728 355.889L48.2979 355.864Z" fill="#9DA8B2"/>
</g>
<path d="M162.447 -0.00219727C99.5232 0.359938 64.5515 13.7965 45.7956 27.2454C27.0271 40.9816 24.3995 54.7177 25.0377 61.848C26.5141 76.0462 27.6778 87.085 27.6778 87.085C117.195 76.2293 207.7 76.2293 297.217 87.085C297.217 87.085 298.368 76.0462 299.857 61.848C300.495 54.6678 297.905 40.9566 279.099 27.2454C260.344 13.7965 225.372 0.359938 162.447 -0.00219727Z" fill="#FFD930"/>
<path d="M42.705 69.3154C42.0794 62.1351 44.6569 48.424 63.4629 34.7128C82.2313 21.2639 117.203 7.82732 180.115 7.46518C218.603 7.67747 246.605 12.7975 266.875 19.8154C246.355 9.23856 213.66 0.284928 162.447 -0.0147705C99.5232 0.347365 64.5515 13.7839 45.7956 27.2329C27.0271 40.969 24.3995 54.7051 25.0377 61.8355C26.5141 76.0336 27.6778 87.0725 27.6778 87.0725C33.2416 86.3982 38.8053 85.7654 44.3691 85.1744L42.705 69.3154Z" fill="#FFD930"/>
<path d="M47.8476 98.3736L47.5098 112.709L58.6582 112.909C58.6582 112.909 57.3069 102.669 56.0306 97.4496L47.8476 98.3736Z" fill="#FDCEA4"/>
<path d="M30.493 145.251C40.3402 136.51 45.7955 117.155 44.0313 104.905L59.6841 104.992C63.4378 120.739 58.9084 143.628 50.6503 157.539C45.27 153.218 37.2246 150.221 30.418 149.035L30.493 145.251Z" fill="#65BED5"/>
<path d="M57.5821 92.9665L58.6831 85.2244C58.7379 84.9327 58.7328 84.6327 58.6683 84.343C58.6038 84.0533 58.4812 83.7796 58.3078 83.5385C58.0667 83.2072 57.7058 82.9831 57.3016 82.9132C56.8975 82.8432 56.4819 82.9332 56.1432 83.1641C55.8453 83.3775 55.629 83.6857 55.53 84.0381L54.0286 90.7312L54.2913 82.6644C54.3031 82.397 54.2528 82.1306 54.1443 81.8858C54.0358 81.641 53.872 81.4246 53.6657 81.2535C53.4848 81.1029 53.2753 80.9903 53.0496 80.923C52.8239 80.8557 52.5869 80.8349 52.3529 80.8617C52.1189 80.8886 51.8927 80.9627 51.6882 81.0794C51.4837 81.1961 51.3051 81.353 51.1633 81.5407C50.7535 82.0855 50.526 82.7452 50.5127 83.4263L50.4376 90.5065L49.324 83.526C49.2714 83.1397 49.0748 82.7877 48.7734 82.5397C48.4521 82.2627 48.0363 82.1197 47.6123 82.1406C47.1882 82.1616 46.7886 82.3447 46.4962 82.6519L46.3335 82.8394C46.1616 83.0159 46.0318 83.2287 45.9538 83.4622C45.8758 83.6958 45.8517 83.9437 45.8831 84.1878L46.9717 92.2425L57.5821 92.9665Z" fill="#FDCEA4"/>
<path d="M59.6716 95.1519L62.0364 88.9082C62.1446 88.66 62.2004 88.3924 62.2004 88.1217C62.2004 87.851 62.1446 87.583 62.0364 87.3348C61.871 86.9959 61.5808 86.734 61.2264 86.6037C60.8719 86.4734 60.4808 86.4849 60.1346 86.6357C59.8299 86.779 59.5829 87.0209 59.4338 87.3223L56.7812 92.717L59.6716 95.1519Z" fill="#FDCEA4"/>
<path d="M42.9426 94.2902L41.241 89.9696C41.4382 89.6012 41.7345 89.2949 42.0965 89.0852C42.4585 88.8754 42.8718 88.7705 43.2902 88.7821C43.7087 88.7938 44.1156 88.9214 44.4653 89.151C44.8149 89.3806 45.0936 89.7029 45.27 90.0818L47.3845 95.1767L46.8715 100.871C45.2074 99.3976 43.856 96.3007 42.9426 94.2902Z" fill="#FDCEA4"/>
<path d="M46.8715 95.1394V91.0685L59.8843 92.9666L59.7217 95.9638C59.7217 96.1636 59.7216 96.3758 59.6341 96.5756C59.2718 98.4124 58.2271 100.045 56.7094 101.145C55.1917 102.245 53.3133 102.731 51.4511 102.507L50.4751 102.407C49.3723 102.297 48.3187 101.896 47.4221 101.246L46.7839 100.759L46.8715 95.1394Z" fill="#FDCEA4"/>
<path d="M316.724 137.372C319.727 139.157 322.066 140.356 323.23 140.918C323.805 140.604 324.357 140.249 324.882 139.857C324.882 139.857 321.941 138.508 317.587 135.923C313.233 133.338 310.655 131.39 310.655 131.39C310.558 132.043 310.508 132.703 310.505 133.363C311.556 134.113 313.783 135.586 316.724 137.372Z" fill="white"/>
<path d="M283.028 94.6149L283.153 108.95H272.005C272.005 108.95 273.506 98.7356 274.845 93.5283L283.028 94.6149Z" fill="#FDCEA4"/>
<path d="M273.356 89.0707L272.368 81.316C272.319 81.0246 272.329 80.726 272.398 80.4386C272.467 80.1512 272.593 79.8807 272.768 79.6426C272.891 79.4728 273.046 79.3289 273.225 79.2198C273.404 79.1106 273.603 79.0384 273.811 79.007C274.018 78.9756 274.23 78.9856 274.433 79.0368C274.637 79.0881 274.828 79.1795 274.995 79.3054C275.293 79.5188 275.509 79.8271 275.608 80.1795L277.01 86.8979L276.86 78.8186C276.855 78.5515 276.911 78.2865 277.023 78.0442C277.136 77.8019 277.303 77.5884 277.51 77.4198C277.693 77.2683 277.905 77.1563 278.133 77.0909C278.361 77.0254 278.6 77.008 278.836 77.0397C279.071 77.0714 279.297 77.1515 279.5 77.275C279.702 77.3985 279.877 77.5626 280.013 77.757C280.419 78.303 280.642 78.9628 280.651 79.6426V86.7229L281.902 79.7551C281.968 79.3739 282.167 79.0284 282.465 78.7811C282.789 78.5072 283.207 78.3686 283.631 78.3942C284.055 78.4198 284.453 78.6074 284.742 78.9183L284.905 79.1057C285.075 79.2854 285.202 79.5013 285.275 79.7371C285.349 79.973 285.368 80.2225 285.33 80.4667L284.079 88.5088L273.356 89.0707Z" fill="#FDCEA4"/>
<path d="M271.242 91.231L268.964 84.8998C268.873 84.645 268.833 84.3747 268.848 84.1044C268.863 83.8341 268.933 83.5694 269.052 83.3264C269.219 82.9897 269.511 82.7312 269.866 82.6054C270.221 82.4795 270.611 82.4962 270.954 82.652C271.264 82.7931 271.513 83.0415 271.655 83.3514L274.232 88.7835L271.242 91.231Z" fill="#FDCEA4"/>
<path d="M287.983 90.5441L289.747 86.2485C289.547 85.8418 289.229 85.5049 288.834 85.282C288.438 85.0592 287.985 84.9609 287.533 84.9997C287.147 85.0356 286.777 85.169 286.457 85.3875C286.137 85.606 285.879 85.9024 285.706 86.2485L283.529 91.3184L283.954 97.025C285.656 95.6763 287.045 92.592 287.983 90.5441Z" fill="#FDCEA4"/>
<path d="M284.042 91.3931L284.129 87.3221L271.092 89.0331L271.204 92.0299L271.279 92.6418C271.629 94.4791 272.656 96.1195 274.156 97.2401C275.656 98.3608 277.522 98.8809 279.387 98.6983L280.363 98.6108C281.463 98.5083 282.519 98.1258 283.429 97.4996L284.079 97.0124L284.042 91.3931Z" fill="#FDCEA4"/>
<path d="M162.448 15.8691C86.1978 15.8691 32.858 37.0978 35.448 59.9748C37.6877 83.1015 37.7002 83.2637 37.7002 83.2637C120.606 73.9897 204.29 73.9897 287.195 83.2637C287.195 83.2637 287.195 83.1015 289.447 59.9748C292.037 37.1228 238.71 15.9191 162.448 15.8691Z" fill="#D3B124"/>
<path d="M65.8654 65.8313C63.5006 44.9399 112.248 25.5718 181.929 25.5219C227.749 25.5219 264.51 33.9385 283.641 45.6143C267.951 28.956 222.256 15.9066 162.448 15.8691C86.1978 15.8691 32.858 37.0978 35.448 59.9748C37.6877 83.1015 37.7002 83.2637 37.7002 83.2637C47.5432 82.1648 57.4029 81.1952 67.2793 80.3543C66.9665 77.2075 66.5285 72.5995 65.8654 65.8313Z" fill="#BFA021"/>
<path d="M60.2972 62.8972C58.9882 63.0374 57.6643 62.9184 56.4014 62.5472C55.1385 62.176 53.9613 61.5597 52.9374 60.7339C51.9134 59.908 51.0627 58.8887 50.4341 57.7342C49.8055 56.5798 49.4112 55.3128 49.2739 54.006C49.1087 51.3188 50.0119 48.6749 51.7874 46.648C53.563 44.6212 56.0677 43.375 58.7582 43.1795C60.0749 43.038 61.4067 43.1586 62.6763 43.5344C63.946 43.9102 65.1282 44.5337 66.1547 45.3688C67.1811 46.2039 68.0314 47.2341 68.6561 48.3995C69.2808 49.5648 69.6676 50.8423 69.7941 52.1579C69.9224 54.8293 69.0023 57.4454 67.2291 59.4507C65.4558 61.4559 62.9691 62.6923 60.2972 62.8972Z" fill="#FFBF1C"/>
<path d="M67.8672 52.32C67.978 54.4923 67.2342 56.622 65.7944 58.2548C64.3546 59.8877 62.3326 60.8947 60.1596 61.0612C59.0948 61.1788 58.0172 61.0848 56.9891 60.7843C55.9609 60.4838 55.0026 59.9829 54.1696 59.3106C53.3366 58.6383 52.6453 57.8079 52.1357 56.8674C51.6262 55.9269 51.3084 54.895 51.2008 53.8312C51.0803 51.6565 51.8206 49.5216 53.2623 47.8866C54.704 46.2515 56.7317 45.2472 58.9084 45.09C59.974 44.9672 61.0535 45.0577 62.0838 45.3562C63.114 45.6546 64.0743 46.1552 64.9084 46.8284C65.7426 47.5016 66.4339 48.3338 66.9419 49.2768C67.4499 50.2197 67.7645 51.2543 67.8672 52.32Z" fill="#CC4D08"/>
<path d="M83.345 61.0487C82.0324 61.1652 80.7097 61.0222 79.4528 60.6273C78.1959 60.2325 77.0295 59.5939 76.0204 58.7481C75.0114 57.9024 74.1796 56.8659 73.5728 55.6985C72.966 54.5312 72.5961 53.2559 72.4843 51.9456C72.3617 49.2569 73.31 46.6288 75.1221 44.6355C76.9342 42.6421 79.463 41.4453 82.1563 41.3063C83.4776 41.1884 84.8092 41.3338 86.0737 41.734C87.3382 42.1343 88.5103 42.7813 89.5221 43.6376C90.5338 44.494 91.3649 45.5423 91.967 46.722C92.5691 47.9017 92.9303 49.1891 93.0294 50.5094C93.1119 53.1798 92.1454 55.7766 90.336 57.7457C88.5266 59.7148 86.0178 60.9001 83.345 61.0487Z" fill="#FFBF1C"/>
<path d="M91.065 50.5843C91.137 52.7539 90.3549 54.8653 88.8862 56.4665C87.4175 58.0676 85.379 59.0312 83.2073 59.1508C81.0636 59.3203 78.9397 58.6369 77.2989 57.2497C75.6581 55.8624 74.6336 53.8838 74.4487 51.7456C74.3533 49.5637 75.1257 47.4326 76.5974 45.8165C78.0691 44.2003 80.1211 43.2301 82.3064 43.1169C83.3745 43.0248 84.4503 43.1456 85.4711 43.4723C86.4919 43.7991 87.4373 44.3252 88.2524 45.0202C89.0675 45.7151 89.736 46.5652 90.2189 47.5204C90.7017 48.4756 90.9893 49.5171 91.065 50.5843Z" fill="#560B08"/>
<path d="M162.447 153.505C117.841 153.505 77.0011 195.801 32.6201 201.17C37.0369 240.418 37.6876 240.056 42.1044 279.304C122.04 269.63 202.855 269.63 282.79 279.304C287.207 240.056 287.795 240.418 292.275 201.17C247.894 195.801 207.054 153.505 162.447 153.505Z" fill="#C27E01"/>
<path d="M162.447 281.602C114.941 281.599 67.4847 284.644 20.3704 290.717C20.996 295.513 21.6174 300.304 22.2347 305.09C22.2347 305.09 26.8642 329.891 38.5006 328.517C44.2938 327.78 75.2367 324.359 104.816 322.898C134.37 321.149 162.535 321.362 162.522 321.324C162.51 321.287 190.675 321.149 220.229 322.898C249.795 324.359 280.738 327.78 286.544 328.517C298.105 329.891 302.81 305.103 302.81 305.09C303.435 300.295 304.057 295.504 304.674 290.717C257.51 284.638 210.003 281.593 162.447 281.602Z" fill="#141414"/>
<path d="M286.406 71.5007C204.017 62.4265 120.878 62.4265 38.4883 71.5007C33.9866 71.9616 29.8503 74.1802 26.9813 77.6728C24.1122 81.1654 22.7434 85.6485 23.1733 90.1444C26.3264 119.178 29.4294 172.137 32.62 201.17C118.831 190.331 206.064 190.331 292.275 201.17C295.415 172.137 298.531 119.178 301.721 90.1444C302.151 85.6485 300.783 81.1654 297.914 77.6728C295.045 74.1802 290.908 71.9616 286.406 71.5007Z" fill="#FFBF1C"/>
<path d="M36.3614 196.213C33.446 168.441 30.5306 116.73 27.6028 88.9581C26.9146 82.577 32.2948 76.6705 39.5895 75.8713C79.438 71.4941 119.493 69.2516 159.582 69.1532C159.645 100.984 159.72 156.752 159.782 188.583C118.527 188.693 77.3148 191.241 36.3614 196.213Z" fill="#141414"/>
<path d="M38.6134 193.253C35.8482 166.405 33.0955 115.619 30.3303 88.7709C29.8173 83.7759 34.0089 79.1678 39.702 78.5435C78.6136 74.2767 117.722 72.0386 156.867 71.8379C156.992 101.895 157.117 155.866 157.255 185.923C117.6 186.113 77.9888 188.561 38.6134 193.253Z" fill="#A3FFF1"/>
<path d="M288.534 196.213C291.449 168.441 294.364 116.73 297.292 88.9581C297.968 82.577 292.613 76.6705 285.305 75.8713C245.457 71.4941 205.402 69.2516 165.313 69.1532C165.25 100.984 165.175 156.752 165.113 188.583C206.368 188.693 247.58 191.241 288.534 196.213Z" fill="#141414"/>
<path d="M286.256 193.253C289.022 166.405 291.774 115.619 294.539 88.7709C295.052 83.7759 290.873 79.1678 285.168 78.5435C246.256 74.2763 207.148 72.0382 168.003 71.8379C167.878 101.895 167.753 155.866 167.615 185.923C207.27 186.113 246.881 188.561 286.256 193.253Z" fill="#A3FFF1"/>
<g style="mix-blend-mode:multiply">
<path d="M97.6214 136.473C107.393 124.26 117.966 112.622 128.902 101.408C137.448 92.6668 146.419 83.9256 156.905 77.2947C156.905 75.4091 156.905 73.5487 156.905 71.8379C117.759 72.0386 78.6512 74.2767 39.7396 78.5435C34.0465 79.1678 29.8549 83.7759 30.3679 88.7709C33.1331 115.619 35.8858 166.405 38.651 193.253C46.0208 192.379 53.403 191.605 60.7853 190.881C71.7508 171.893 84.0608 153.711 97.6214 136.473Z" fill="#C4E2FF"/>
</g>
<g style="mix-blend-mode:multiply">
<path d="M225.422 136.56C247.077 118.188 270.197 101.608 294.552 86.985C294.051 82.7268 290.21 79.0929 285.193 78.5435C246.281 74.2763 207.173 72.0382 168.028 71.8379C167.903 101.895 167.778 155.866 167.64 185.923C171.656 185.923 175.673 185.998 179.689 186.06C193.666 168.366 208.317 151.283 225.422 136.56Z" fill="#C4E2FF"/>
</g>
<path d="M264.597 62.8972C265.907 63.0374 267.23 62.9184 268.493 62.5472C269.756 62.176 270.933 61.5597 271.957 60.7339C272.981 59.908 273.832 58.8887 274.461 57.7342C275.089 56.5798 275.483 55.3128 275.621 54.006C275.786 51.3188 274.883 48.6749 273.107 46.648C271.332 44.6212 268.827 43.375 266.136 43.1795C264.82 43.038 263.488 43.1586 262.218 43.5344C260.949 43.9102 259.767 44.5337 258.74 45.3688C257.714 46.2039 256.863 47.2341 256.239 48.3995C255.614 49.5648 255.227 50.8423 255.101 52.1579C254.975 54.8285 255.897 57.4428 257.669 59.4473C259.442 61.4518 261.927 62.6892 264.597 62.8972Z" fill="#FFBF1C"/>
<path d="M257.028 52.32C256.92 54.4935 257.667 56.6233 259.109 58.2558C260.551 59.8883 262.574 60.8947 264.748 61.0612C265.812 61.1787 266.889 61.0847 267.916 60.784C268.944 60.4834 269.901 59.9821 270.733 59.3097C271.565 58.6373 272.255 57.8069 272.763 56.8665C273.272 55.926 273.588 54.8945 273.694 53.8312C273.815 51.6565 273.074 49.5216 271.633 47.8866C270.191 46.2515 268.163 45.2472 265.987 45.09C264.921 44.9672 263.841 45.0577 262.811 45.3562C261.781 45.6546 260.821 46.1552 259.987 46.8284C259.152 47.5016 258.461 48.3338 257.953 49.2768C257.445 50.2197 257.13 51.2543 257.028 52.32Z" fill="#CC4D08"/>
<path d="M241.55 61.0487C242.862 61.1652 244.185 61.0222 245.442 60.6273C246.699 60.2325 247.865 59.5939 248.874 58.7481C249.883 57.9024 250.715 56.8659 251.322 55.6985C251.929 54.5312 252.299 53.2559 252.411 51.9456C252.533 49.2569 251.585 46.6288 249.773 44.6355C247.961 42.6421 245.432 41.4453 242.739 41.3063C241.417 41.1884 240.086 41.3338 238.821 41.734C237.557 42.1343 236.385 42.7813 235.373 43.6376C234.361 44.494 233.53 45.5423 232.928 46.722C232.326 47.9017 231.965 49.1891 231.865 50.5094C231.783 53.1798 232.749 55.7766 234.559 57.7457C236.368 59.7148 238.877 60.9001 241.55 61.0487Z" fill="#FFBF1C"/>
<path d="M233.805 50.5843C233.73 52.7547 234.511 54.8679 235.98 56.4697C237.449 58.0716 239.49 59.0343 241.663 59.1508C243.806 59.3202 245.93 58.6368 247.571 57.2496C249.212 55.8624 250.236 53.8837 250.421 51.7455C250.517 49.5637 249.744 47.4326 248.273 45.8164C246.801 44.2002 244.749 43.23 242.564 43.1168C241.496 43.0264 240.421 43.1485 239.401 43.4759C238.381 43.8034 237.436 44.3297 236.621 45.0244C235.806 45.719 235.138 46.568 234.654 47.5225C234.171 48.4769 233.882 49.5176 233.805 50.5843Z" fill="#560B08"/>
<path d="M185.295 312.62C170.072 312.354 154.84 312.354 139.6 312.62C137.098 312.62 135.071 311.072 135.008 309.036L134.633 296.786C134.57 294.751 136.572 293.04 139.1 293.04C154.665 292.765 170.23 292.765 185.795 293.04C188.298 293.04 190.325 294.763 190.262 296.786L189.912 309.074C189.824 311.072 187.76 312.67 185.295 312.62Z" fill="#FFBF1C"/>
<path d="M183.33 194.552C183.18 166.247 183.034 137.983 182.892 109.762C182.892 101.146 191.789 94.24 202.912 94.4648C222.098 94.8478 241.308 95.4888 260.544 96.3879C271.68 96.8999 280.275 104.38 279.762 112.971C278.186 141.184 276.605 169.389 275.02 197.586L183.33 194.552Z" fill="#383838"/>
<path d="M133.294 197.661C109.729 198.002 86.1894 199.118 62.6747 201.008C54.7294 201.645 47.7475 195.251 47.0594 186.597C45.7664 169.623 44.4693 152.656 43.168 135.698C42.795 131.578 44.0695 127.478 46.7134 124.292C49.3574 121.106 53.1563 119.093 57.2819 118.691C82.3064 116.684 107.331 115.502 132.356 115.144C134.395 115.146 136.413 115.552 138.293 116.34C140.173 117.127 141.877 118.281 143.306 119.732C144.735 121.184 145.86 122.905 146.616 124.795C147.372 126.685 147.743 128.706 147.708 130.741V181.827C147.708 190.506 141.252 197.536 133.294 197.661Z" fill="#383838"/>
<path d="M264.773 161.048C261.182 155.616 252.686 150.484 229.989 150.521C207.291 150.559 198.783 155.616 195.192 161.048C192.577 164.994 190.075 183.525 188.035 193.253H271.867C269.89 183.55 267.388 164.994 264.773 161.048Z" fill="#20548D"/>
<path d="M239.548 144.315H220.73V155.141H239.548V144.315Z" fill="#FDCEA4"/>
<path d="M229.951 155.154H224.02L225.271 157.651C225.271 157.651 226.523 159.937 227.974 162.546L230.014 163.071L232.041 162.546C233.505 159.937 234.743 157.651 234.743 157.651L235.995 155.154H229.951Z" fill="#2B2B2B"/>
<path d="M232.341 162.571L229.989 161.86L227.636 162.571C227.636 162.571 222.131 187.459 223.758 201.282L230.014 208.937L236.27 201.282C237.834 187.459 232.341 162.571 232.341 162.571Z" fill="#2B2B2B"/>
<path d="M241.212 147.986L243.715 151.17L236.695 163.046C236.695 163.046 235.594 160.761 233.943 157.776C232.291 154.792 230.051 155.104 230.051 155.104L241.212 147.986Z" fill="#2D7BCF"/>
<path d="M218.778 147.986L216.275 151.17L223.295 163.046C223.295 163.046 224.396 160.761 226.047 157.776C227.699 154.792 229.951 155.104 229.951 155.104L218.778 147.986Z" fill="#2D7BCF"/>
<path d="M219.628 166.942H204.889V170.588H219.628V166.942Z" fill="#FFFDFF"/>
<path d="M255.138 129.33H252.924V116.843H256.515C257.4 116.828 258.274 117.048 259.046 117.48C259.818 117.913 260.462 118.542 260.911 119.304C261.36 120.066 261.599 120.933 261.602 121.817C261.606 122.701 261.374 123.57 260.931 124.335L259.68 126.608C259.237 127.426 258.581 128.11 257.782 128.589C256.983 129.067 256.07 129.324 255.138 129.33Z" fill="#BC5A3D"/>
<path d="M200.873 126.508L199.621 124.223C199.176 123.453 198.944 122.58 198.95 121.691C198.956 120.803 199.198 119.933 199.654 119.169C200.109 118.406 200.76 117.777 201.539 117.349C202.319 116.92 203.199 116.706 204.088 116.73H207.679V129.217H205.465C204.524 129.227 203.599 128.979 202.79 128.502C201.981 128.024 201.318 127.334 200.873 126.508Z" fill="#BC5A3D"/>
<path d="M203.288 127.894C203.901 121.65 204.539 115.406 204.977 109.225C206.04 97.1998 216.901 87.4473 230.452 87.4847C244.002 87.5222 254.776 97.3373 255.777 109.363C256.214 115.606 256.765 121.85 257.316 128.031C258.567 139.907 246.317 150.509 230.201 150.509C214.098 150.409 201.974 139.757 203.288 127.894Z" fill="#CE684D"/>
<path d="M247.468 118.241C247.468 118.241 247.393 112.896 242.263 112.909C237.521 112.909 237.158 118.616 237.158 118.616C238.731 119.549 240.54 120.009 242.368 119.943C244.197 119.876 245.967 119.286 247.468 118.241Z" fill="white"/>
<path d="M238.497 116.218C238.497 115.497 238.711 114.792 239.113 114.192C239.514 113.593 240.085 113.125 240.752 112.849C241.42 112.573 242.155 112.501 242.863 112.642C243.572 112.783 244.223 113.13 244.734 113.64C245.245 114.15 245.593 114.799 245.734 115.507C245.875 116.214 245.803 116.947 245.526 117.614C245.25 118.28 244.781 118.849 244.18 119.25C243.58 119.651 242.873 119.864 242.151 119.864C241.67 119.866 241.195 119.773 240.751 119.59C240.306 119.408 239.903 119.139 239.564 118.8C239.224 118.461 238.955 118.059 238.772 117.615C238.589 117.172 238.495 116.698 238.497 116.218Z" fill="#1D1D1B"/>
<path d="M240.624 116.218C240.624 115.817 240.784 115.433 241.068 115.15C241.351 114.866 241.737 114.707 242.138 114.707C242.54 114.707 242.925 114.866 243.209 115.15C243.493 115.433 243.652 115.817 243.652 116.218C243.652 116.417 243.613 116.613 243.537 116.796C243.461 116.98 243.349 117.146 243.209 117.286C243.068 117.427 242.901 117.538 242.717 117.614C242.534 117.69 242.337 117.729 242.138 117.729C241.939 117.729 241.742 117.69 241.559 117.614C241.375 117.538 241.208 117.427 241.068 117.286C240.927 117.146 240.815 116.98 240.739 116.796C240.663 116.613 240.624 116.417 240.624 116.218Z" fill="#121010"/>
<path d="M239.598 114.819C239.598 114.634 239.653 114.453 239.756 114.299C239.859 114.145 240.006 114.025 240.177 113.954C240.349 113.883 240.538 113.865 240.72 113.901C240.902 113.937 241.069 114.026 241.2 114.157C241.331 114.288 241.421 114.455 241.457 114.637C241.493 114.819 241.475 115.007 241.404 115.178C241.332 115.349 241.212 115.496 241.058 115.598C240.904 115.701 240.722 115.756 240.537 115.756C240.288 115.756 240.049 115.657 239.873 115.482C239.697 115.306 239.598 115.068 239.598 114.819Z" fill="white"/>
<path d="M212.934 118.304C212.934 118.304 212.934 112.959 218.114 112.946C222.857 112.946 223.245 118.641 223.245 118.641C221.675 119.579 219.868 120.046 218.04 119.986C216.211 119.927 214.439 119.342 212.934 118.304Z" fill="white"/>
<path d="M214.561 116.256C214.561 115.535 214.775 114.829 215.177 114.23C215.578 113.63 216.149 113.163 216.816 112.887C217.484 112.611 218.219 112.539 218.927 112.679C219.636 112.82 220.287 113.167 220.798 113.677C221.309 114.187 221.657 114.837 221.798 115.544C221.939 116.251 221.867 116.985 221.59 117.651C221.314 118.317 220.845 118.887 220.244 119.287C219.644 119.688 218.937 119.902 218.215 119.902C217.734 119.904 217.258 119.811 216.814 119.628C216.37 119.445 215.967 119.177 215.627 118.838C215.288 118.499 215.019 118.096 214.836 117.653C214.653 117.21 214.559 116.735 214.561 116.256Z" fill="#1D1D1B"/>
<path d="M216.701 116.256C216.701 115.957 216.789 115.665 216.956 115.416C217.122 115.168 217.359 114.974 217.635 114.86C217.912 114.746 218.216 114.716 218.51 114.774C218.804 114.832 219.074 114.976 219.285 115.187C219.497 115.399 219.641 115.668 219.7 115.961C219.758 116.254 219.728 116.558 219.613 116.834C219.499 117.11 219.305 117.346 219.056 117.512C218.807 117.678 218.514 117.767 218.215 117.767C218.016 117.767 217.819 117.728 217.635 117.652C217.452 117.576 217.285 117.464 217.144 117.324C217.004 117.184 216.892 117.017 216.816 116.834C216.74 116.651 216.701 116.454 216.701 116.256Z" fill="#121010"/>
<path d="M215.662 114.857C215.662 114.672 215.717 114.491 215.82 114.337C215.923 114.183 216.07 114.063 216.241 113.992C216.413 113.921 216.602 113.902 216.784 113.938C216.966 113.975 217.133 114.064 217.264 114.195C217.395 114.326 217.485 114.493 217.521 114.674C217.557 114.856 217.539 115.044 217.468 115.215C217.397 115.387 217.276 115.533 217.122 115.636C216.968 115.739 216.786 115.794 216.601 115.794C216.477 115.795 216.354 115.772 216.239 115.726C216.125 115.679 216.021 115.61 215.933 115.523C215.846 115.436 215.777 115.332 215.73 115.217C215.684 115.103 215.661 114.98 215.662 114.857Z" fill="white"/>
<path d="M247.468 118.241C247.484 118 247.484 117.758 247.468 117.517C247.461 116.853 247.342 116.194 247.118 115.569C246.965 115.127 246.755 114.707 246.492 114.32C246.342 114.12 246.18 113.921 246.004 113.721C245.811 113.537 245.606 113.366 245.391 113.209C244.925 112.882 244.404 112.641 243.852 112.497C243.284 112.354 242.699 112.283 242.113 112.285L241.325 112.36C241.025 112.434 240.712 112.497 240.424 112.584C239.893 112.795 239.402 113.095 238.973 113.471C238.581 113.831 238.251 114.253 237.997 114.72C237.758 115.11 237.572 115.53 237.446 115.969C237.245 116.591 237.131 117.238 237.108 117.891C237.087 118.137 237.087 118.383 237.108 118.628C237.108 118.628 237.108 118.366 237.321 117.941C237.517 117.351 237.764 116.779 238.059 116.231C238.147 116.057 238.247 115.89 238.359 115.731C238.46 115.55 238.578 115.379 238.71 115.219C238.976 114.883 239.283 114.581 239.623 114.32C239.799 114.192 239.983 114.075 240.174 113.971C240.374 113.871 240.587 113.808 240.787 113.708L241.412 113.558H242.188H242.876C243.108 113.584 243.337 113.621 243.565 113.671C244.001 113.771 244.422 113.931 244.816 114.145C245.016 114.245 245.166 114.395 245.354 114.507L245.804 114.932C246.069 115.229 246.304 115.551 246.505 115.894C246.81 116.428 247.057 116.993 247.243 117.579C247.368 118.016 247.468 118.241 247.468 118.241Z" fill="#EDAF77"/>
<path d="M212.935 118.304C212.985 118.067 213.047 117.834 213.122 117.604C213.3 117.013 213.544 116.444 213.848 115.906C214.049 115.57 214.279 115.253 214.536 114.957L214.999 114.532C215.174 114.42 215.324 114.27 215.524 114.158C215.916 113.94 216.338 113.78 216.776 113.683C217.006 113.627 217.24 113.589 217.476 113.571H218.152H218.928L219.553 113.721C219.754 113.821 219.966 113.883 220.167 113.983C220.359 114.085 220.543 114.202 220.717 114.333C221.063 114.587 221.371 114.89 221.63 115.232C221.765 115.388 221.887 115.555 221.993 115.731C222.105 115.89 222.206 116.057 222.294 116.231C222.589 116.779 222.836 117.351 223.032 117.941C223.182 118.366 223.257 118.628 223.257 118.628C223.271 118.383 223.271 118.137 223.257 117.891C223.224 117.238 223.106 116.592 222.907 115.969C222.775 115.532 222.59 115.112 222.356 114.72C222.097 114.253 221.763 113.831 221.368 113.471C220.939 113.088 220.442 112.787 219.904 112.584C219.616 112.497 219.316 112.434 219.015 112.36L218.227 112.285C217.64 112.287 217.056 112.363 216.488 112.51C215.937 112.654 215.416 112.895 214.949 113.221C214.731 113.379 214.526 113.555 214.336 113.746L213.848 114.333C213.59 114.72 213.384 115.14 213.235 115.581C213.012 116.203 212.893 116.857 212.884 117.517C212.877 117.78 212.894 118.043 212.935 118.304Z" fill="#EDAF77"/>
<path d="M220.267 108.826C220.485 108.819 220.7 108.77 220.9 108.68C221.099 108.591 221.279 108.463 221.429 108.304C221.578 108.145 221.696 107.958 221.773 107.754C221.851 107.55 221.887 107.333 221.881 107.115C221.874 106.897 221.825 106.682 221.735 106.483C221.645 106.284 221.517 106.105 221.358 105.955C221.199 105.806 221.012 105.689 220.807 105.611C220.603 105.534 220.385 105.497 220.166 105.504L218.915 105.629C215.886 105.943 213.094 107.41 211.12 109.725L211.671 109.5C213.26 108.868 214.966 108.579 216.676 108.651L220.267 108.826Z" fill="#7A422A"/>
<path d="M243.452 108.676C245.162 108.591 246.871 108.88 248.457 109.525L249.02 109.75C247.049 107.428 244.257 105.957 241.225 105.641L239.974 105.504C239.743 105.479 239.51 105.502 239.289 105.571C239.068 105.641 238.863 105.755 238.689 105.907C238.514 106.06 238.373 106.246 238.275 106.455C238.176 106.665 238.122 106.892 238.116 107.124C238.11 107.355 238.152 107.585 238.239 107.799C238.327 108.013 238.458 108.207 238.624 108.368C238.791 108.529 238.989 108.654 239.206 108.735C239.423 108.816 239.655 108.851 239.886 108.838L243.452 108.676Z" fill="#7A422A"/>
<path d="M219.453 123.673C219.528 123.679 219.604 123.679 219.678 123.673L219.241 123.736L219.453 123.673Z" fill="#1A120D"/>
<path d="M227.148 116.767C227.019 115.696 226.634 114.671 226.024 113.78C225.414 112.889 224.598 112.157 223.645 111.647C219.939 110.011 215.765 109.772 211.896 110.973C210.878 111.476 210.016 112.247 209.403 113.201C208.79 114.156 208.45 115.259 208.417 116.393C208.417 117.394 208.618 118.385 209.008 119.307C209.397 120.229 209.968 121.064 210.687 121.763C211.405 122.461 212.257 123.009 213.191 123.373C214.125 123.738 215.122 123.912 216.125 123.885H216.338L219.241 123.711L219.679 123.648C223.833 123.011 227.198 119.902 227.148 116.767ZM219.328 123.173H219.141H218.965L216.613 123.323H216.438C214.779 123.323 213.187 122.666 212.014 121.495C210.841 120.324 210.182 118.736 210.182 117.08C210.2 116.142 210.473 115.226 210.971 114.43C211.468 113.634 212.173 112.987 213.01 112.559C216.164 111.557 219.579 111.758 222.594 113.121C223.374 113.556 224.039 114.17 224.533 114.913C225.027 115.656 225.336 116.506 225.434 117.392C225.459 120.077 222.707 122.661 219.328 123.198V123.173Z" fill="#1A120D"/>
<path d="M240.924 123.636L241.362 123.698L244.253 123.873H244.478C245.48 123.899 246.478 123.725 247.412 123.361C248.346 122.996 249.198 122.449 249.916 121.75C250.635 121.052 251.206 120.217 251.595 119.295C251.985 118.372 252.186 117.381 252.186 116.38C252.186 114.37 250.722 111.66 248.695 110.961C244.825 109.759 240.651 109.999 236.946 111.635C235.993 112.144 235.178 112.875 234.57 113.767C233.962 114.659 233.579 115.684 233.455 116.755C233.392 119.902 236.77 123.011 240.924 123.636ZM235.194 117.479C235.29 116.593 235.598 115.742 236.092 114.998C236.587 114.255 237.253 113.641 238.034 113.208C241.045 111.846 244.456 111.646 247.606 112.647C248.446 113.072 249.154 113.718 249.654 114.514C250.154 115.31 250.428 116.227 250.446 117.167C250.446 118.823 249.787 120.411 248.614 121.582C247.441 122.753 245.849 123.411 244.19 123.411H244.015L241.663 123.261H241.475H241.3C237.884 122.661 235.144 120.077 235.194 117.479Z" fill="#1A120D"/>
<path d="M256.552 116.905C256.885 116.91 257.216 116.948 257.541 117.017C257.741 115.594 257.954 114.158 258.066 112.722C258.679 105.229 257.503 96.9249 252.098 91.3555C248.044 87.1847 241.45 85.1869 235.832 84.4127C231.115 83.7634 225.284 83.5384 221.068 86.0983C219.654 86.96 218.452 86.648 216.913 86.9477C208.906 88.5086 204.226 96.5129 203.012 106.428C202.626 109.931 202.483 113.457 202.587 116.98C203.076 116.822 203.587 116.746 204.101 116.755C204.101 116.755 205.953 115.256 206.153 114.482C206.916 111.498 207.329 107.589 209.206 103.518C212.159 97.1746 220.792 93.1414 220.792 93.1414C220.792 93.1414 223.395 94.003 224.621 94.3152C226.272 94.665 227.944 94.907 229.626 95.0395C233.229 95.4266 236.858 95.5513 240.474 95.7511C245.104 96.0008 247.981 99.847 249.858 103.643C251.529 106.994 252.951 110.462 254.112 114.02C254.851 115.042 255.667 116.007 256.552 116.905Z" fill="#1D1D1B"/>
<path d="M230.139 131.028L220.217 132.752C220.709 135.014 221.962 137.04 223.769 138.494C225.575 139.947 227.825 140.739 230.145 140.739C232.465 140.739 234.715 139.947 236.521 138.494C238.328 137.04 239.581 135.014 240.074 132.752L230.139 131.028Z" fill="#BC5A3D"/>
<path d="M230.139 131.665L221.468 132.802C221.468 132.802 222.719 138.059 230.139 138.059C237.559 138.059 238.822 132.802 238.822 132.802L230.139 131.665Z" fill="#924241"/>
<path d="M236.408 136.21C238.73 134.708 240.432 132.421 241.202 129.768C241.973 127.116 241.76 124.275 240.603 121.766C239.445 119.257 237.421 117.248 234.901 116.107C232.38 114.967 229.533 114.77 226.879 115.554C224.225 116.338 221.944 118.05 220.451 120.376C218.959 122.702 218.357 125.487 218.754 128.22C219.152 130.953 220.523 133.452 222.616 135.259C224.709 137.066 227.384 138.06 230.151 138.059C232.386 138.168 234.592 137.516 236.408 136.21Z" fill="#D48C90"/>
<path d="M221.468 132.802C221.583 133.237 221.751 133.656 221.968 134.05C224.545 134.39 227.14 134.57 229.738 134.587C232.627 134.56 235.511 134.347 238.372 133.95C238.563 133.602 238.714 133.233 238.822 132.851L230.139 131.715L221.468 132.802Z" fill="white"/>
<path d="M245.254 131.44C242.997 130.791 240.856 129.792 238.91 128.481C236.915 127.215 234.604 126.536 232.241 126.52L230.151 126.82L228.062 126.52C225.695 126.538 223.38 127.217 221.38 128.481C219.44 129.795 217.303 130.794 215.049 131.44C215.923 131.917 216.883 132.215 217.873 132.318C218.863 132.421 219.864 132.326 220.817 132.04C220.534 132.511 220.175 132.933 219.754 133.288C220.836 133.424 221.931 133.172 222.844 132.576C222.747 132.984 222.582 133.372 222.356 133.726C223.259 133.726 224.138 133.432 224.859 132.889C224.93 133.157 224.899 133.442 224.771 133.688C225.315 133.469 225.831 133.188 226.31 132.851C226.391 132.98 226.442 133.126 226.457 133.278C226.472 133.43 226.452 133.583 226.398 133.726C226.652 133.677 226.894 133.578 227.109 133.434C227.324 133.29 227.507 133.105 227.649 132.889C227.649 133.151 227.749 133.301 227.762 133.738C228.211 133.579 228.633 133.351 229.013 133.064V133.776C229.851 133.688 230.264 133.351 230.264 133.064C230.264 133.351 230.714 133.688 231.515 133.776V133.064C231.895 133.351 232.317 133.579 232.766 133.738C232.766 133.301 232.867 133.151 232.879 132.889C233.021 133.105 233.204 133.29 233.419 133.434C233.634 133.578 233.876 133.677 234.13 133.726C234.076 133.583 234.056 133.43 234.071 133.278C234.086 133.126 234.137 132.98 234.218 132.851C234.697 133.188 235.213 133.469 235.757 133.688C235.69 133.567 235.648 133.434 235.633 133.297C235.618 133.16 235.63 133.021 235.669 132.889C236.373 133.419 237.228 133.712 238.109 133.726C237.883 133.372 237.718 132.984 237.621 132.576C238.534 133.172 239.63 133.424 240.712 133.288C240.291 132.933 239.931 132.511 239.648 132.04C241.524 132.574 243.534 132.359 245.254 131.44Z" fill="#1D1D1B"/>
<path d="M227.136 128.88C226.552 128.517 226.083 127.995 225.784 127.376C225.485 126.757 225.368 126.066 225.447 125.384C225.447 125.259 225.684 125.059 226.022 124.81C227.256 123.885 228.751 123.371 230.294 123.342C231.837 123.313 233.35 123.77 234.618 124.647C234.968 124.872 235.194 125.072 235.206 125.184C235.296 125.868 235.196 126.563 234.915 127.193C234.635 127.823 234.186 128.364 233.617 128.756C232.635 129.32 231.526 129.628 230.393 129.65C229.259 129.671 228.139 129.407 227.136 128.88Z" fill="#BC5A3D"/>
<path d="M253.161 179.405L255.263 174.772C255.738 174.642 256.24 174.654 256.707 174.807C257.175 174.961 257.586 175.248 257.891 175.633C258.151 175.967 258.321 176.361 258.387 176.778C258.452 177.195 258.411 177.622 258.266 178.019L255.839 183.55L250.959 187.496C250.834 185.074 252.248 181.702 253.161 179.405Z" fill="#CE684D"/>
<path d="M255.464 183.138L258.992 180.828L266.237 192.941L264.485 194.19C261.244 196.687 256.865 196.687 254.638 195.438L251.322 190.056L251.047 188.233C251.047 187.933 250.972 187.646 250.947 187.347L255.464 183.138Z" fill="#CE684D"/>
<path d="M208.843 178.318L207.054 173.561C206.623 173.417 206.162 173.394 205.719 173.492C205.277 173.59 204.869 173.807 204.54 174.119C204.211 174.43 203.973 174.825 203.852 175.261C203.73 175.698 203.73 176.158 203.851 176.595L205.878 182.277L210.482 186.547C210.77 184.2 209.581 180.628 208.843 178.318Z" fill="#CE684D"/>
<path d="M206.278 181.889L202.925 179.392L194.842 190.906L196.506 192.366C199.571 195.126 204.013 195.413 206.253 194.24L209.931 189.095L210.332 187.296C210.332 187.009 210.457 186.722 210.507 186.422L206.278 181.889Z" fill="#FFE3C2"/>
<path d="M230.139 164.994C223.003 165.011 216.033 167.139 210.108 171.108C204.183 175.077 199.57 180.71 196.851 187.294C194.133 193.879 193.43 201.119 194.833 208.102C196.236 215.085 199.681 221.496 204.732 226.525C209.784 231.555 216.216 234.978 223.216 236.361C230.216 237.744 237.47 237.025 244.061 234.296C250.652 231.566 256.284 226.949 260.247 221.026C264.209 215.104 266.324 208.142 266.324 201.02C266.311 191.454 262.492 182.285 255.706 175.53C248.92 168.774 239.724 164.984 230.139 164.994ZM258.079 200.97C258.079 201.994 258.016 203.018 257.916 204.017C257.858 204.504 257.679 204.968 257.397 205.369C257.115 205.769 256.737 206.094 256.298 206.313C255.859 206.532 255.372 206.639 254.882 206.624C254.391 206.609 253.912 206.473 253.487 206.227L246.042 201.957C242.701 200.044 239.925 197.285 237.994 193.959C236.063 190.633 235.046 186.857 235.044 183.013V177.382C235.045 176.912 235.158 176.449 235.373 176.032C235.589 175.614 235.901 175.254 236.283 174.981C236.666 174.707 237.108 174.529 237.574 174.46C238.039 174.391 238.514 174.434 238.96 174.584C244.52 176.421 249.359 179.958 252.791 184.694C256.223 189.431 258.073 195.125 258.079 200.97ZM225.247 177.382V183.013C225.245 186.857 224.227 190.633 222.296 193.959C220.365 197.285 217.589 200.044 214.248 201.957L206.741 206.227C206.316 206.473 205.837 206.609 205.346 206.624C204.856 206.639 204.369 206.532 203.93 206.313C203.491 206.094 203.113 205.769 202.831 205.369C202.548 204.968 202.37 204.504 202.312 204.017C202.201 203.006 202.146 201.988 202.149 200.97C202.156 195.127 204.005 189.435 207.434 184.699C210.863 179.963 215.698 176.425 221.255 174.584C221.705 174.422 222.188 174.37 222.662 174.433C223.136 174.496 223.588 174.672 223.98 174.947C224.372 175.221 224.691 175.586 224.912 176.01C225.132 176.434 225.247 176.904 225.247 177.382ZM230.139 228.78C226.31 228.782 222.521 227.998 219.008 226.477C215.495 224.956 212.333 222.731 209.719 219.939C209.421 219.613 209.2 219.224 209.074 218.802C208.947 218.379 208.918 217.933 208.987 217.498C209.057 217.062 209.224 216.648 209.477 216.286C209.729 215.923 210.06 215.623 210.445 215.406L219.203 210.411C222.542 208.49 226.329 207.479 230.183 207.479C234.037 207.479 237.823 208.49 241.162 210.411L249.921 215.406C250.305 215.624 250.634 215.925 250.885 216.288C251.136 216.651 251.302 217.065 251.371 217.501C251.439 217.936 251.409 218.382 251.281 218.804C251.154 219.226 250.932 219.614 250.634 219.939C248.013 222.743 244.839 224.975 241.312 226.497C237.785 228.018 233.981 228.795 230.139 228.78Z" fill="#141414"/>
<path d="M256.39 181.303C256.181 181.402 256.003 181.557 255.877 181.751C255.751 181.945 255.682 182.171 255.676 182.402V182.639C255.669 183.089 255.809 183.529 256.075 183.892C256.342 184.255 256.721 184.521 257.153 184.65C257.515 184.788 257.916 184.788 258.279 184.65L263.509 182.152C263.77 182.026 263.998 181.842 264.177 181.614C264.356 181.387 264.481 181.122 264.542 180.839C264.604 180.557 264.6 180.264 264.531 179.983C264.463 179.702 264.332 179.44 264.147 179.217C263.871 178.883 263.489 178.652 263.064 178.561C262.64 178.471 262.197 178.526 261.807 178.718L256.39 181.303Z" fill="#CE684D"/>
<path d="M258.392 184.462C257.83 184.734 257.385 185.2 257.14 185.773C256.985 186.234 256.993 186.734 257.164 187.189C257.335 187.644 257.658 188.026 258.079 188.271C258.297 188.414 258.547 188.5 258.807 188.522C259.067 188.544 259.329 188.5 259.568 188.396L265.561 185.411C265.803 185.292 266.019 185.126 266.195 184.922C266.371 184.717 266.503 184.479 266.584 184.222C266.664 183.965 266.692 183.694 266.665 183.427C266.637 183.159 266.556 182.899 266.424 182.664C266.178 182.218 265.769 181.884 265.282 181.73C264.795 181.577 264.268 181.616 263.809 181.84L258.392 184.462Z" fill="#CE684D"/>
<path d="M262.571 191.005C262.281 191.177 262.064 191.448 261.958 191.767C261.83 192.145 261.831 192.553 261.96 192.93C262.089 193.307 262.339 193.631 262.671 193.852C262.886 193.987 263.131 194.067 263.384 194.084C263.637 194.102 263.891 194.056 264.122 193.952L267.788 192.304C268.196 192.118 268.521 191.788 268.701 191.378C268.881 190.968 268.903 190.507 268.764 190.081C268.684 189.837 268.553 189.612 268.379 189.422C268.205 189.232 267.993 189.081 267.756 188.98C267.519 188.878 267.264 188.828 267.006 188.833C266.748 188.837 266.495 188.897 266.262 189.007L265.011 189.557L262.571 191.005Z" fill="#CE684D"/>
<path d="M264.685 185.586L264.272 185.761L259.668 188.258C259.369 188.466 259.159 188.778 259.08 189.132C258.991 189.569 259.046 190.024 259.238 190.427C259.43 190.83 259.747 191.16 260.143 191.367C260.401 191.497 260.686 191.564 260.975 191.564C261.264 191.564 261.549 191.497 261.807 191.367L265.999 189.519L267.25 188.72C267.671 188.459 267.976 188.047 268.103 187.57C268.231 187.092 268.172 186.584 267.938 186.148C267.71 185.712 267.327 185.377 266.864 185.208C266.401 185.04 265.892 185.05 265.436 185.236L264.685 185.586Z" fill="#CE684D"/>
<path d="M205.027 181.577C205.216 181.719 205.362 181.912 205.446 182.133C205.53 182.354 205.55 182.594 205.502 182.826V183.063C205.42 183.506 205.197 183.909 204.865 184.213C204.533 184.517 204.111 184.705 203.663 184.749C203.28 184.804 202.89 184.71 202.574 184.487L197.932 180.99C197.703 180.812 197.518 180.583 197.391 180.323C197.264 180.062 197.198 179.776 197.198 179.486C197.198 179.196 197.264 178.909 197.391 178.649C197.518 178.388 197.703 178.16 197.932 177.981C198.271 177.708 198.692 177.56 199.127 177.56C199.562 177.56 199.984 177.708 200.322 177.981L205.027 181.577Z" fill="#CE684D"/>
<path d="M202.424 184.287C202.94 184.657 203.301 185.204 203.438 185.823C203.506 186.314 203.403 186.813 203.146 187.236C202.888 187.659 202.492 187.981 202.024 188.146C201.78 188.241 201.517 188.275 201.257 188.245C200.998 188.214 200.749 188.12 200.535 187.971L195.23 183.875C195.018 183.711 194.842 183.506 194.712 183.272C194.582 183.039 194.5 182.781 194.472 182.515C194.444 182.249 194.47 181.981 194.549 181.725C194.627 181.47 194.757 181.232 194.929 181.028C195.257 180.636 195.723 180.385 196.231 180.327C196.738 180.269 197.249 180.408 197.657 180.716L202.424 184.287Z" fill="#CE684D"/>
<path d="M197.069 189.894C197.196 190.001 197.3 190.133 197.375 190.281C197.45 190.429 197.495 190.59 197.507 190.755C197.56 191.149 197.483 191.549 197.286 191.894C197.09 192.24 196.785 192.511 196.418 192.666C196.179 192.755 195.922 192.785 195.669 192.752C195.416 192.72 195.175 192.625 194.967 192.478L191.701 190.156C191.335 189.898 191.078 189.515 190.979 189.079C190.88 188.643 190.945 188.186 191.163 187.796C191.289 187.571 191.461 187.376 191.668 187.223C191.875 187.069 192.112 186.961 192.364 186.906C192.615 186.85 192.876 186.849 193.129 186.901C193.381 186.953 193.619 187.058 193.828 187.209L194.892 187.983L197.069 189.894Z" fill="#FFE3C2"/>
<path d="M196.043 184.2L196.418 184.462L200.447 187.858C200.699 188.116 200.842 188.46 200.848 188.82C200.847 189.267 200.702 189.702 200.433 190.06C200.165 190.417 199.788 190.679 199.359 190.806C199.082 190.883 198.791 190.895 198.508 190.841C198.226 190.787 197.96 190.668 197.732 190.493L193.978 187.871L192.94 186.859C192.582 186.518 192.366 186.055 192.336 185.562C192.306 185.068 192.464 184.582 192.777 184.2C193.079 183.829 193.506 183.581 193.977 183.501C194.449 183.42 194.934 183.513 195.342 183.763L196.043 184.2Z" fill="#FFE3C2"/>
<path d="M230.377 100.534C221.152 100.377 211.951 99.5422 202.85 98.0365C203.05 98.8232 203.25 99.6098 203.438 100.396C204.088 105.941 207.454 107.152 212.659 108.226C213.06 108.301 213.498 108.414 213.91 108.489C224.554 110.535 235.472 110.721 246.18 109.038L247.506 108.825C252.736 107.926 256.152 106.828 256.99 101.333C257.203 100.571 257.428 99.8098 257.641 99.0481C248.604 100.234 239.489 100.731 230.377 100.534Z" fill="#2360A1"/>
<path d="M230.264 101.108C238.996 101.16 247.721 100.614 256.377 99.4725C256.729 99.4339 257.085 99.4593 257.428 99.5475C271.404 84.0756 245.754 76.2337 230.689 75.9839C215.625 75.7342 189.737 82.6645 203.162 98.6235C203.509 98.5492 203.867 98.5492 204.213 98.6235C212.83 100.043 221.534 100.873 230.264 101.108Z" fill="#2D7BCF"/>
<path d="M230.352 102.594C239.295 102.754 248.238 102.287 257.115 101.196C257.328 100.484 257.528 99.7723 257.728 99.073C248.663 100.268 239.519 100.769 230.377 100.571C221.152 100.414 211.951 99.5796 202.85 98.074C203.025 98.7858 203.212 99.4975 203.388 100.209C212.312 101.608 221.32 102.405 230.352 102.594Z" fill="#F39B13"/>
<path d="M234.205 115.656C231.687 114.629 228.866 114.629 226.348 115.656C226.401 115.748 226.435 115.85 226.448 115.956C226.448 116.38 226.523 116.793 226.523 117.205C226.53 117.254 226.53 117.305 226.523 117.354L226.911 117.841C227.984 117.294 229.171 117.008 230.377 117.008C231.582 117.008 232.77 117.294 233.842 117.841L234.093 117.479C234.019 116.87 234.057 116.252 234.205 115.656Z" fill="#1A120D"/>
<path d="M208.956 117.067L202.537 116.605C202.256 116.269 202.102 115.844 202.102 115.406C202.102 114.968 202.256 114.544 202.537 114.208L209.606 114.358L208.956 117.067Z" fill="#1A120D"/>
<path d="M251.535 117.067L257.954 116.605C258.235 116.269 258.388 115.844 258.388 115.406C258.388 114.968 258.235 114.544 257.954 114.208L250.884 114.358L251.535 117.067Z" fill="#1A120D"/>
<path d="M114.938 146.251L82.3063 148.261C78.6118 148.495 75.0591 149.768 72.0587 151.932L71.9837 151.807C69.0141 146.686 67.6745 140.785 68.1424 134.887L68.6554 114.008C69.9066 96.3883 85.8973 79.9548 108.807 91.1935C111.549 91.1213 114.222 92.0591 116.315 93.8281C120.819 97.3621 122.696 103.256 124.185 110.561L127.288 131.228C128.475 137.027 127.873 143.048 125.561 148.498C125.566 148.531 125.566 148.565 125.561 148.598C122.314 146.828 118.631 146.014 114.938 146.251Z" fill="#141414"/>
<path d="M123.659 204.18C131.167 203.718 131.93 192.791 129.84 185.823C127.688 178.605 125.499 165.756 119.155 158.288C112.561 150.546 99.2605 154.117 99.2605 154.117C99.2605 154.117 85.6346 152.207 80.0417 160.711C74.6739 168.903 74.0983 181.939 72.8471 189.357C71.5959 196.525 73.6979 207.276 81.2553 206.839L123.659 204.18Z" fill="#FF2444"/>
<path d="M100.387 158.201L98.2219 158.338C96.802 158.424 95.4054 157.948 94.335 157.013C93.2646 156.078 92.6067 154.759 92.5039 153.343C92.4146 151.927 92.891 150.532 93.8289 149.465C94.7668 148.398 96.0898 147.745 97.5088 147.649L99.6734 147.512C101.094 147.423 102.493 147.897 103.564 148.833C104.635 149.769 105.292 151.089 105.392 152.507C105.477 153.923 105 155.315 104.063 156.381C103.125 157.448 101.804 158.101 100.387 158.201Z" fill="#BD593F"/>
<path d="M77.0637 137.509L79.0156 137.384L78.3399 126.37L75.1618 126.558C74.3811 126.604 73.6261 126.853 72.9719 127.281C72.3177 127.708 71.787 128.299 71.4327 128.995C71.0784 129.691 70.9128 130.467 70.9524 131.247C70.992 132.026 71.2354 132.782 71.6584 133.438L72.9096 135.386C73.3497 136.077 73.9668 136.639 74.6971 137.012C75.4275 137.385 76.2445 137.557 77.0637 137.509Z" fill="#BD593F"/>
<path d="M123.096 132.302L124.097 130.229C124.435 129.524 124.582 128.743 124.524 127.963C124.465 127.184 124.204 126.433 123.765 125.785C123.326 125.138 122.725 124.616 122.022 124.272C121.318 123.928 120.537 123.773 119.756 123.823L116.59 124.023L117.266 135.037L119.218 134.924C120.04 134.872 120.833 134.602 121.515 134.141C122.197 133.68 122.743 133.045 123.096 132.302Z" fill="#BD593F"/>
<path d="M118.367 118.828C117.462 117.975 116.878 116.838 116.715 115.606C116.639 114.398 116.27 113.225 115.64 112.19C115.01 111.155 114.138 110.288 113.099 109.662C109.478 106.994 105.313 105.152 100.9 104.268C90.3267 102.245 81.03 107.365 75.3119 116.243C75.2622 116.298 75.2163 116.357 75.1743 116.418L76.2504 134.038C76.3804 136.911 77.0822 139.73 78.3148 142.33C79.5473 144.931 81.2861 147.26 83.4297 149.183C85.5734 151.105 88.079 152.583 90.8007 153.53C93.5223 154.477 96.4055 154.874 99.2823 154.697C102.159 154.521 104.972 153.774 107.557 152.502C110.142 151.23 112.447 149.457 114.339 147.286C116.23 145.116 117.67 142.592 118.574 139.86C119.479 137.129 119.829 134.246 119.605 131.378L118.855 119.24C118.68 119.117 118.517 118.979 118.367 118.828Z" fill="#CE684D"/>
<path d="M89.5635 123.91C89.7639 123.911 89.9623 123.87 90.1458 123.789C90.3294 123.709 90.4942 123.591 90.6295 123.444C90.7648 123.296 90.8678 123.122 90.9317 122.932C90.9956 122.743 91.0191 122.542 91.0007 122.343C90.9823 122.143 90.9225 121.95 90.8249 121.775C90.7274 121.601 90.5943 121.448 90.4342 121.328C90.2742 121.207 90.0906 121.122 89.8954 121.076C89.7002 121.03 89.4977 121.026 89.3008 121.063L88.2747 121.238C85.6984 121.67 83.3869 123.074 81.8184 125.159L82.2813 124.947C83.6154 124.313 85.0705 123.972 86.548 123.948L89.5635 123.91Z" fill="#141414"/>
<path d="M107.331 122.674C108.794 122.514 110.275 122.672 111.673 123.136L112.161 123.311C110.356 121.425 107.889 120.31 105.279 120.202H104.24C104.041 120.19 103.841 120.22 103.654 120.29C103.467 120.359 103.297 120.467 103.154 120.606C103.011 120.745 102.898 120.912 102.823 121.097C102.749 121.282 102.713 121.48 102.719 121.679C102.725 121.878 102.773 122.074 102.859 122.254C102.945 122.433 103.067 122.593 103.219 122.723C103.37 122.853 103.547 122.951 103.738 123.009C103.929 123.067 104.13 123.085 104.328 123.061L107.331 122.674Z" fill="#141414"/>
<path d="M100.562 138.158C100.94 137.946 101.242 137.622 101.428 137.23C101.614 136.839 101.674 136.4 101.6 135.973C101.6 135.898 101.413 135.786 101.162 135.661C100.201 135.176 99.1275 134.955 98.0522 135.021C96.9769 135.087 95.9385 135.437 95.0438 136.036C94.8186 136.198 94.6684 136.323 94.6559 136.398C94.6279 136.826 94.733 137.253 94.957 137.619C95.1809 137.986 95.5127 138.275 95.9072 138.446C96.6575 138.738 97.4624 138.863 98.2661 138.813C99.0698 138.764 99.8531 138.54 100.562 138.158Z" fill="#BC5A3D"/>
<path d="M111.522 129.155C111.522 129.155 111.172 124.572 106.793 124.847C102.726 125.109 102.726 130.017 102.726 130.017C104.12 130.732 105.691 131.031 107.251 130.878C108.811 130.725 110.294 130.127 111.522 129.155Z" fill="white"/>
<path d="M103.765 127.894C103.722 127.274 103.863 126.656 104.173 126.117C104.482 125.579 104.945 125.144 105.502 124.868C106.059 124.592 106.686 124.487 107.303 124.567C107.92 124.647 108.499 124.908 108.967 125.317C109.435 125.726 109.771 126.265 109.932 126.865C110.093 127.465 110.071 128.099 109.87 128.686C109.67 129.274 109.299 129.789 108.804 130.166C108.31 130.543 107.714 130.765 107.093 130.803C106.266 130.855 105.452 130.578 104.829 130.033C104.205 129.488 103.823 128.719 103.765 127.894Z" fill="#2A2A2C"/>
<path d="M105.592 127.769C105.581 127.599 105.604 127.429 105.659 127.268C105.714 127.107 105.801 126.959 105.913 126.831C106.026 126.704 106.163 126.6 106.316 126.525C106.469 126.45 106.635 126.406 106.805 126.395C106.975 126.385 107.146 126.408 107.307 126.463C107.468 126.518 107.617 126.604 107.745 126.717C107.873 126.829 107.977 126.966 108.052 127.118C108.127 127.271 108.171 127.437 108.182 127.607C108.199 127.781 108.18 127.957 108.125 128.123C108.07 128.289 107.981 128.442 107.863 128.572C107.745 128.701 107.601 128.805 107.44 128.875C107.28 128.945 107.106 128.981 106.93 128.98C106.762 128.992 106.593 128.97 106.433 128.915C106.274 128.86 106.127 128.773 106.002 128.66C105.877 128.547 105.776 128.409 105.706 128.256C105.635 128.103 105.596 127.938 105.592 127.769Z" fill="#121010"/>
<path d="M104.641 126.633C104.632 126.528 104.645 126.423 104.677 126.324C104.71 126.224 104.762 126.133 104.831 126.054C104.9 125.974 104.984 125.91 105.078 125.864C105.172 125.817 105.274 125.79 105.379 125.784C105.484 125.776 105.59 125.79 105.69 125.823C105.79 125.856 105.882 125.909 105.962 125.978C106.041 126.047 106.106 126.131 106.154 126.225C106.201 126.319 106.229 126.422 106.236 126.527C106.243 126.632 106.23 126.737 106.197 126.837C106.163 126.937 106.11 127.029 106.041 127.108C105.972 127.188 105.888 127.253 105.794 127.3C105.699 127.347 105.597 127.375 105.492 127.382C105.386 127.389 105.281 127.375 105.181 127.341C105.081 127.307 104.989 127.254 104.91 127.184C104.831 127.114 104.767 127.03 104.72 126.935C104.674 126.841 104.647 126.738 104.641 126.633Z" fill="white"/>
<path d="M84.1331 130.903C84.1331 130.903 83.9079 126.308 88.2871 126.033C92.3411 125.771 92.9792 130.641 92.9792 130.641C91.6845 131.525 90.1627 132.02 88.5946 132.066C87.0265 132.113 85.4781 131.709 84.1331 130.903Z" fill="white"/>
<path d="M85.4219 129.055C85.3837 128.44 85.5291 127.826 85.8398 127.293C86.1506 126.76 86.6126 126.33 87.1677 126.059C87.7227 125.787 88.3459 125.686 88.9586 125.768C89.5713 125.85 90.146 126.111 90.6101 126.518C91.0742 126.926 91.4069 127.461 91.5663 128.057C91.7257 128.653 91.7045 129.283 91.5055 129.867C91.3065 130.451 90.9386 130.963 90.4482 131.339C89.9579 131.714 89.367 131.937 88.7502 131.977C88.3392 132.004 87.9269 131.95 87.537 131.818C87.1471 131.686 86.7871 131.478 86.4779 131.206C86.1687 130.935 85.9162 130.605 85.735 130.236C85.5538 129.867 85.4473 129.466 85.4219 129.055Z" fill="#2A2A2C"/>
<path d="M87.3113 128.943C87.3125 128.702 87.3838 128.466 87.5165 128.264C87.6492 128.062 87.8377 127.903 88.0592 127.806C88.2806 127.709 88.5255 127.678 88.7642 127.717C89.0029 127.756 89.2252 127.863 89.4042 128.025C89.5832 128.188 89.7111 128.398 89.7726 128.632C89.8341 128.865 89.8265 129.111 89.7507 129.34C89.6749 129.57 89.5341 129.772 89.3455 129.923C89.1568 130.074 88.9283 130.168 88.6876 130.192C88.5131 130.209 88.3368 130.19 88.1703 130.135C88.0037 130.08 87.8506 129.991 87.7209 129.873C87.5911 129.755 87.4875 129.612 87.417 129.451C87.3464 129.291 87.3104 129.118 87.3113 128.943Z" fill="#121010"/>
<path d="M86.2852 127.807C86.2784 127.702 86.2925 127.596 86.3266 127.497C86.3607 127.397 86.4142 127.305 86.4839 127.227C86.5537 127.148 86.6383 127.083 86.7331 127.037C86.8278 126.991 86.9308 126.964 87.036 126.957C87.1416 126.949 87.2477 126.962 87.3482 126.995C87.4487 127.029 87.5414 127.082 87.6208 127.152C87.7003 127.222 87.7648 127.307 87.8105 127.402C87.8562 127.498 87.8821 127.601 87.8868 127.707C87.8972 127.918 87.8245 128.125 87.6843 128.284C87.5441 128.442 87.3474 128.54 87.1361 128.556C86.9244 128.566 86.717 128.494 86.5581 128.354C86.3992 128.214 86.3013 128.018 86.2852 127.807Z" fill="white"/>
<path d="M111.522 129.155C111.538 128.943 111.538 128.73 111.522 128.518C111.474 127.95 111.335 127.394 111.11 126.87C110.958 126.513 110.761 126.177 110.521 125.871C110.388 125.705 110.238 125.542 110.071 125.384C109.893 125.234 109.705 125.096 109.508 124.972C109.092 124.719 108.635 124.541 108.157 124.447C107.662 124.354 107.157 124.325 106.655 124.36L105.992 124.46L105.229 124.71C104.763 124.909 104.339 125.192 103.978 125.546C103.658 125.861 103.396 126.229 103.202 126.633C103.021 126.976 102.887 127.341 102.801 127.719C102.658 128.261 102.591 128.82 102.601 129.38C102.604 129.594 102.625 129.807 102.664 130.017C102.664 130.017 102.664 129.792 102.801 129.405C102.947 128.894 103.127 128.393 103.339 127.906C103.414 127.756 103.49 127.607 103.577 127.457C103.655 127.299 103.747 127.148 103.852 127.007C104.06 126.708 104.304 126.436 104.578 126.196C104.724 126.076 104.879 125.968 105.041 125.871C105.204 125.771 105.379 125.709 105.554 125.609L106.067 125.446L106.743 125.359H107.331C107.532 125.367 107.733 125.388 107.931 125.421C108.309 125.481 108.675 125.594 109.02 125.759C109.195 125.833 109.333 125.958 109.495 126.046L109.908 126.383C110.15 126.619 110.368 126.879 110.559 127.157C110.846 127.601 111.085 128.074 111.272 128.568C111.46 128.93 111.522 129.155 111.522 129.155Z" fill="#AA4637"/>
<path d="M84.1331 130.903C84.1331 130.903 84.133 130.666 84.2582 130.292C84.3829 129.774 84.5633 129.272 84.7962 128.793C84.9483 128.493 85.1284 128.209 85.3342 127.944C85.4468 127.806 85.572 127.681 85.6971 127.557C85.8222 127.432 85.9723 127.307 86.135 127.207C86.4575 127.002 86.807 126.842 87.1735 126.733C87.365 126.672 87.5619 126.63 87.7616 126.608C87.9523 126.577 88.1444 126.556 88.3372 126.545H89.0128L89.5508 126.633C89.726 126.707 89.9137 126.745 90.0889 126.82C90.2622 126.899 90.4295 126.991 90.5894 127.095C90.8898 127.301 91.1668 127.54 91.4152 127.807C91.5313 127.938 91.6398 128.075 91.7405 128.218C91.8447 128.35 91.9409 128.488 92.0283 128.631C92.307 129.086 92.5496 129.561 92.754 130.054C92.9041 130.416 92.9793 130.641 92.9793 130.641C92.9933 130.429 92.9933 130.216 92.9793 130.004C92.9178 129.444 92.7832 128.894 92.5789 128.368C92.4345 128.008 92.2498 127.664 92.0283 127.344C91.7864 126.97 91.4816 126.641 91.1274 126.37C90.7531 126.074 90.3296 125.846 89.8762 125.696C89.6134 125.634 89.3506 125.596 89.0879 125.546H88.4123C87.9107 125.578 87.4149 125.67 86.9358 125.821C86.4818 125.981 86.0586 126.218 85.6846 126.52C85.5058 126.665 85.3385 126.824 85.1841 126.995C85.0464 127.17 84.9213 127.357 84.8087 127.532C84.599 127.863 84.4428 128.226 84.3458 128.606C84.1897 129.149 84.1221 129.714 84.1455 130.279C84.1269 130.487 84.1228 130.695 84.1331 130.903Z" fill="#AA4637"/>
<path d="M108.707 107.452C108.707 107.452 111.547 109.075 116.64 121.375C116.919 122.097 117.415 122.716 118.06 123.145C118.706 123.574 119.468 123.794 120.243 123.773L123.534 108.626C122.594 105.464 121.181 102.463 119.343 99.7223C113.837 91.5431 77.489 93.7905 73.0471 102.594C71.5655 105.542 70.5363 108.694 69.9941 111.947L75.1367 126.558C75.9083 126.483 76.6376 126.171 77.2246 125.666C77.8116 125.16 78.2274 124.486 78.415 123.736C81.9309 110.911 108.707 107.452 108.707 107.452Z" fill="#141414"/>
<path d="M95.9196 103.831C95.9196 103.831 87.0734 116.643 81.1176 121.601C81.1176 121.601 103.815 118.716 108.645 106.016C113.474 93.3163 95.9196 103.831 95.9196 103.831Z" fill="#141414"/>
<path d="M98.4346 139.432C91.8907 139.832 87.6991 139.632 87.6991 139.632C87.6991 139.632 91.7155 148.373 98.9601 147.911C106.205 147.449 109.108 138.308 109.108 138.308C109.108 138.308 104.979 139.02 98.4346 139.432Z" fill="#B55151"/>
<path d="M98.5723 141.605C103.089 141.318 106.455 140.893 108.107 140.656C108.493 139.897 108.827 139.112 109.108 138.308C109.108 138.308 104.979 139.02 98.4346 139.432C91.8907 139.844 87.6991 139.632 87.6991 139.632C88.065 140.397 88.4831 141.135 88.9503 141.842C90.652 141.867 94.0553 141.88 98.5723 141.605Z" fill="white"/>
<path d="M105.892 144.065C103.69 142.791 101.16 142.195 98.6193 142.353C96.0789 142.511 93.6421 143.415 91.6155 144.952C92.5645 145.93 93.7084 146.699 94.9735 147.208C96.2386 147.718 97.5967 147.958 98.9602 147.911C100.319 147.784 101.637 147.377 102.831 146.714C104.024 146.052 105.066 145.15 105.892 144.065Z" fill="#FFA1A3"/>
<path d="M286.406 71.5007C204.017 62.4265 120.878 62.4265 38.4883 71.5007C33.9866 71.9616 29.8503 74.1802 26.9813 77.6728C24.1122 81.1654 22.7434 85.6485 23.1733 90.1444C26.3264 119.178 29.4294 172.137 32.62 201.17C118.831 190.331 206.064 190.331 292.275 201.17C295.415 172.137 298.531 119.178 301.721 90.1444C302.151 85.6485 300.783 81.1654 297.914 77.6728C295.045 74.1802 290.908 71.9616 286.406 71.5007ZM36.3613 196.213C33.4459 168.441 30.5305 116.73 27.6027 88.9581C26.9145 82.577 32.2947 76.6705 39.5894 75.8713C79.438 71.4941 119.493 69.2516 159.582 69.1532C159.645 100.984 159.72 156.752 159.782 188.583C118.527 188.693 77.3147 191.241 36.3613 196.213ZM297.28 88.9581C294.364 116.73 291.449 168.441 288.521 196.213C247.563 191.24 206.347 188.692 165.087 188.583C165.15 156.752 165.225 100.984 165.288 69.1532C205.377 69.2516 245.432 71.4941 285.28 75.8713C292.6 76.6705 297.955 82.577 297.28 88.9581Z" fill="#FFBF1C"/>
<path d="M39.602 75.8713C32.3073 76.6705 26.927 82.577 27.6152 88.9581C30.5306 116.73 33.4459 168.441 36.3738 196.213C77.3314 191.24 118.548 188.692 159.807 188.583C159.807 156.752 159.67 100.984 159.607 69.1532C119.514 69.2511 79.4547 71.4936 39.602 75.8713ZM38.6136 193.253C35.8483 166.405 33.0956 115.619 30.3304 88.7709C29.8174 83.7759 34.009 79.1678 39.7021 78.5435C78.6137 74.2767 117.722 72.0385 156.867 71.8379C156.992 101.895 157.117 155.866 157.255 185.923C117.6 186.113 77.9889 188.56 38.6136 193.253Z" fill="#141414"/>
<path d="M285.293 75.8713C245.444 71.4941 205.389 69.2516 165.3 69.1532C165.238 100.984 165.163 156.752 165.1 188.583C206.359 188.692 247.576 191.24 288.534 196.213C291.449 168.441 294.364 116.73 297.292 88.9581C297.955 82.577 292.6 76.6705 285.293 75.8713ZM294.564 88.7709C291.799 115.619 289.047 166.405 286.281 193.253C246.906 188.56 207.295 186.113 167.64 185.923C167.778 155.866 167.903 101.895 168.028 71.8379C207.173 72.0382 246.281 74.2763 285.193 78.5435C290.898 79.1678 295.078 83.7759 294.564 88.7709Z" fill="#141414"/>
<path d="M91.5655 154.33C91.5655 154.33 87.9494 151.508 85.3093 153.993C82.6693 156.478 79.2033 171.612 79.3034 185.473H87.5865C87.5865 185.473 87.1987 162.796 91.5655 154.33Z" fill="#FF6089"/>
<path d="M109.646 153.518C109.646 153.518 112.911 150.696 115.339 153.181C117.766 155.666 120.844 170.801 120.757 184.662H113.249C113.249 184.662 113.587 161.984 109.646 153.518Z" fill="#FF6089"/>
<path d="M162.447 271.774C113.302 271.774 64.2107 275.003 15.4907 281.439C15.9287 284.686 16.3541 287.932 16.7419 291.179C113.423 278.392 211.372 278.392 308.053 291.179C308.491 287.932 308.916 284.686 309.304 281.439C260.617 275.007 211.559 271.778 162.447 271.774Z" fill="#808285"/>
<path d="M268.739 220.725C275.412 221.325 282.044 221.983 288.634 222.698C291.841 223.062 294.942 224.064 297.754 225.644C300.567 227.225 303.033 229.353 305.007 231.901C306.98 234.45 308.422 237.368 309.246 240.482C310.07 243.596 310.26 246.844 309.805 250.033C308.478 260.348 307.148 270.658 305.813 280.965C291.633 279.141 277.452 277.589 263.271 276.307L268.739 220.725Z" fill="#FFBF1C"/>
<path d="M56.1805 220.725C49.5073 221.325 42.8758 221.983 36.286 222.698C33.079 223.062 29.9777 224.064 27.1654 225.644C24.3532 227.225 21.8871 229.353 19.9132 231.901C17.9393 234.45 16.4977 237.368 15.6736 240.482C14.8495 243.596 14.6596 246.844 15.1153 250.033C16.4416 260.348 17.772 270.658 19.1067 280.965C33.2872 279.141 47.4678 277.589 61.6484 276.307L56.1805 220.725Z" fill="#FFBF1C"/>
<path d="M293.939 162.971C298.41 163.487 302.873 164.033 307.327 164.607C307.502 163.208 307.677 161.822 307.865 160.436C303.386 159.862 298.906 159.312 294.427 158.788L293.939 162.971Z" fill="#FFBF1C"/>
<path d="M291.461 184.112C295.849 184.628 300.233 185.165 304.612 185.723C304.787 184.324 304.962 182.938 305.15 181.552C300.746 180.99 296.391 180.454 291.949 179.942L291.461 184.112Z" fill="#FFBF1C"/>
<path d="M288.759 207.239C293.051 207.738 297.355 208.263 301.647 208.812C301.822 207.426 301.997 206.04 302.185 204.642C297.868 204.092 293.564 203.568 289.247 203.068L288.759 207.239Z" fill="#C27E01"/>
<path d="M287.82 215.243C292.091 215.743 296.358 216.263 300.62 216.804C300.796 215.418 300.971 214.032 301.158 212.633C296.879 212.084 292.588 211.572 288.308 211.073L287.82 215.243Z" fill="#C27E01"/>
<path d="M303.774 193.802C307.027 194.215 310.28 194.652 313.521 195.051C316.761 195.451 320.077 193.54 320.49 190.606C321.95 180.366 323.409 170.126 324.869 159.887C325.295 156.952 322.755 154.167 319.189 153.643C315.835 153.181 312.47 152.744 309.104 152.307C305.538 151.857 302.36 153.88 301.997 156.827C300.737 167.092 299.486 177.357 298.243 187.621C297.83 190.643 300.32 193.365 303.774 193.802Z" fill="#141414"/>
<path d="M298.568 222.224C302.735 222.748 306.914 223.31 311.081 223.885C312.205 224.107 313.371 223.879 314.329 223.251C315.286 222.622 315.957 221.644 316.198 220.526L318.375 205.216C318.451 204.062 318.065 202.926 317.303 202.055C316.541 201.184 315.464 200.651 314.309 200.571C310.042 199.984 305.788 199.422 301.521 198.885C300.385 198.66 299.206 198.894 298.242 199.536C297.278 200.177 296.608 201.173 296.379 202.306C295.745 207.426 295.115 212.542 294.489 217.653C294.431 218.797 294.826 219.918 295.59 220.773C296.353 221.629 297.423 222.15 298.568 222.224Z" fill="#141414"/>
<path d="M31.006 162.971C26.5349 163.487 22.0722 164.033 17.6179 164.607C17.4427 163.208 17.2675 161.822 17.0798 160.436C21.5592 159.862 26.0386 159.312 30.518 158.788L31.006 162.971Z" fill="#FFBF1C"/>
<path d="M33.4335 184.112C29.0376 184.628 24.6541 185.165 20.2831 185.723C20.108 184.324 19.9328 182.938 19.7451 181.552C24.1494 180.99 28.5037 180.454 32.9455 179.942L33.4335 184.112Z" fill="#FFBF1C"/>
<path d="M36.1358 207.239C31.8316 207.738 27.5358 208.263 23.2482 208.812C23.0731 207.426 22.8979 206.04 22.7102 204.642C27.0269 204.092 31.3312 203.568 35.6479 203.068L36.1358 207.239Z" fill="#C27E01"/>
<path d="M37.0744 215.243C32.8119 215.743 28.5452 216.263 24.2743 216.804C24.0992 215.418 23.924 214.032 23.7363 212.633C28.0155 212.084 32.2947 211.572 36.5865 211.073L37.0744 215.243Z" fill="#C27E01"/>
<path d="M21.1338 193.802C17.8931 194.215 14.64 194.652 11.3993 195.051C7.97094 195.526 4.85538 193.54 4.42996 190.606C2.9702 180.366 1.51043 170.126 0.0506658 159.887C-0.374752 156.952 2.16521 154.167 5.73121 153.643C9.0845 153.181 12.4503 152.744 15.8161 152.307C19.3821 151.857 22.5603 153.88 22.9106 156.827L26.6643 187.621C27.0647 190.643 24.5747 193.365 21.1338 193.802Z" fill="#141414"/>
<path d="M26.3263 222.224C22.1472 222.748 17.9806 223.31 13.814 223.885C12.69 224.107 11.5235 223.879 10.5662 223.251C9.60883 222.622 8.93727 221.644 8.69644 220.526L6.51932 205.216C6.44706 204.063 6.83372 202.928 7.5952 202.058C8.35669 201.189 9.43143 200.654 10.5858 200.571C14.8525 199.984 19.1067 199.422 23.3734 198.885C24.5097 198.66 25.6888 198.894 26.6526 199.536C27.6164 200.177 28.2864 201.173 28.5159 202.306C29.1499 207.426 29.7797 212.542 30.4053 217.653C30.4669 218.798 30.0727 219.921 29.3087 220.777C28.5447 221.633 27.4727 222.153 26.3263 222.224Z" fill="#141414"/>
<path d="M23.2983 259.349C22.8444 256.159 23.0354 252.912 23.8601 249.797C24.6848 246.683 26.1264 243.765 28.0999 241.216C30.0733 238.666 32.5385 236.538 35.35 234.955C38.1615 233.373 41.2622 232.368 44.4691 232.001C48.6982 231.552 52.9274 231.136 57.1565 230.753L56.1805 220.763C49.5073 221.362 42.8758 222.02 36.286 222.736C33.079 223.099 29.9777 224.101 27.1654 225.682C24.3532 227.263 21.8871 229.39 19.9132 231.939C17.9393 234.487 16.4977 237.405 15.6736 240.52C14.8495 243.634 14.6596 246.882 15.1153 250.071C16.4416 260.385 17.772 270.696 19.1067 281.002L25.9884 280.153C25.0875 273.21 24.1909 266.275 23.2983 259.349Z" fill="#FFD000"/>
<path d="M272.343 230.578C278.974 231.177 290.173 231.29 296.804 232.002C300.614 232.408 304.269 233.732 307.452 235.86C305.684 232.255 303.027 229.155 299.731 226.854C296.436 224.552 292.609 223.122 288.609 222.698C281.994 221.991 275.362 221.333 268.714 220.725L263.234 276.307C266.149 276.569 269.052 276.856 271.992 277.143C272.493 261.622 270.791 246.262 272.343 230.578Z" fill="#FFD000"/>
<path d="M274.47 208.638C273.219 195.925 259.818 185.473 242.926 184.462C216.125 182.797 189.299 181.985 162.447 182.027C135.596 182.068 108.77 182.88 81.9685 184.462C65.0895 185.473 51.6639 195.925 50.4252 208.625C48.54 231.702 46.9175 254.783 45.5579 277.868C84.4043 274.138 123.367 272.273 162.447 272.273C201.527 272.273 240.491 274.138 279.337 277.868C277.986 254.799 276.363 231.723 274.47 208.638Z" fill="#FFBF1C"/>
<path d="M206.378 198.66L200.122 198.435C188.611 198.077 177.103 197.882 165.601 197.848H159.344C147.833 197.848 136.326 198.044 124.823 198.435C122.733 198.51 120.631 198.573 118.567 198.66C110.275 198.96 101.988 199.351 93.705 199.834C92.804 199.883 91.9217 200.11 91.1091 200.502C90.2964 200.893 89.5696 201.442 88.9705 202.115C88.3714 202.788 87.9119 203.573 87.6185 204.425C87.3251 205.277 87.2037 206.178 87.2612 207.077C87.3989 209.349 87.549 211.622 87.6991 213.907C87.6991 214.257 87.6991 214.619 87.7617 214.981C87.8868 216.892 88.012 218.815 88.1246 220.725L88.1996 221.812C88.3248 223.723 88.4373 225.645 88.5625 227.556L88.6375 228.63C88.7502 230.553 88.8752 232.476 89.0004 234.387C89.0004 234.749 89.0004 235.111 89.0004 235.461L89.3758 241.217C89.3758 241.579 89.3758 241.929 89.4383 242.291C89.5635 244.214 89.6886 246.125 89.8012 248.048L89.8762 249.122C90.0139 251.395 90.1641 253.68 90.3017 255.952C90.3798 257.722 91.154 259.39 92.4564 260.594C93.7587 261.798 95.4842 262.441 97.2585 262.384C105.1 261.934 112.949 261.563 120.807 261.272L126.775 261.072C137.661 260.723 148.559 260.535 159.47 260.51H165.375C176.278 260.51 187.18 260.698 198.082 261.072L204.038 261.272C211.888 261.555 219.737 261.926 227.586 262.384C229.36 262.444 231.086 261.802 232.387 260.597C233.688 259.392 234.459 257.722 234.531 255.952L234.956 249.134L235.031 248.06C235.144 246.137 235.269 244.227 235.394 242.304C235.394 241.942 235.394 241.592 235.394 241.23L235.769 235.473C235.769 235.123 235.769 234.761 235.769 234.399C235.895 232.489 236.02 230.566 236.132 228.643L236.207 227.569C236.332 225.658 236.445 223.735 236.57 221.824L236.645 220.738C236.758 218.827 236.883 216.904 237.008 214.994C237.008 214.631 237.008 214.269 237.071 213.92C237.221 211.635 237.371 209.362 237.509 207.089C237.566 206.191 237.445 205.289 237.151 204.438C236.858 203.586 236.398 202.801 235.799 202.128C235.2 201.454 234.473 200.906 233.661 200.514C232.848 200.123 231.966 199.896 231.065 199.846C222.89 199.355 214.661 198.96 206.378 198.66Z" fill="#141414"/>
<path d="M205.139 208.026C214.148 208.35 223.157 208.767 232.166 209.274C232.241 207.926 232.328 206.577 232.404 205.228C223.37 204.696 214.328 204.279 205.277 203.98C205.227 205.328 205.177 206.677 205.139 208.026Z" fill="#383838"/>
<path d="M204.927 214.856C213.885 215.181 222.844 215.597 231.803 216.105C231.878 214.756 231.966 213.408 232.041 212.059C223.057 211.518 214.065 211.102 205.064 210.81C204.989 212.159 204.927 213.508 204.927 214.856Z" fill="#383838"/>
<path d="M204.639 221.662C213.548 221.987 222.452 222.403 231.352 222.911C231.44 221.562 231.515 220.213 231.603 218.865C222.669 218.332 213.731 217.916 204.789 217.616L204.639 221.662Z" fill="#383838"/>
<path d="M204.389 228.542C213.247 228.859 222.102 229.275 230.952 229.791C231.04 228.443 231.115 227.094 231.19 225.745C222.323 225.221 213.439 224.805 204.539 224.497L204.389 228.542Z" fill="#383838"/>
<path d="M204.151 235.398C212.943 235.723 221.743 236.139 230.552 236.647C230.627 235.298 230.714 233.95 230.789 232.601C221.956 232.076 213.122 231.66 204.288 231.352C204.238 232.676 204.188 234.024 204.151 235.398Z" fill="#383838"/>
<path d="M203.901 242.216C212.651 242.533 221.409 242.949 230.176 243.465C230.251 242.116 230.327 240.768 230.414 239.419C221.631 238.895 212.847 238.478 204.063 238.17C204.001 239.519 203.951 240.868 203.901 242.216Z" fill="#383838"/>
<path d="M203.675 249.047C212.367 249.371 221.063 249.788 229.763 250.296C229.851 248.947 229.926 247.598 230.014 246.25C221.28 245.742 212.551 245.326 203.826 245.001L203.675 249.047Z" fill="#383838"/>
<path d="M203.4 255.89C212.05 256.206 220.696 256.623 229.338 257.139C229.426 255.79 229.501 254.441 229.576 253.093C220.901 252.585 212.225 252.169 203.55 251.844L203.4 255.89Z" fill="#383838"/>
<path d="M119.756 208.026C110.747 208.35 101.738 208.767 92.7291 209.274C92.654 207.926 92.5664 206.577 92.4913 205.228C101.525 204.696 110.567 204.279 119.618 203.98C119.668 205.328 119.718 206.677 119.756 208.026Z" fill="#383838"/>
<path d="M120.006 214.856C111.047 215.181 102.088 215.597 93.1295 216.105C93.0544 214.756 92.9668 213.408 92.8917 212.059C101.876 211.518 110.868 211.102 119.868 210.81C119.906 212.159 119.956 213.508 120.006 214.856Z" fill="#383838"/>
<path d="M120.256 221.662C111.347 221.987 102.443 222.403 93.5423 222.911C93.4547 221.562 93.3797 220.213 93.2921 218.865C102.226 218.332 111.164 217.916 120.106 217.616L120.256 221.662Z" fill="#383838"/>
<path d="M120.506 228.542C111.648 228.859 102.793 229.275 93.9427 229.791C93.8551 228.443 93.78 227.094 93.705 225.745C102.58 225.221 111.464 224.805 120.356 224.497L120.506 228.542Z" fill="#383838"/>
<path d="M120.744 235.398C111.952 235.723 103.152 236.139 94.3432 236.647C94.2681 235.298 94.1805 233.95 94.1055 232.601C102.939 232.076 111.773 231.66 120.606 231.352C120.657 232.676 120.707 234.024 120.744 235.398Z" fill="#383838"/>
<path d="M120.994 242.216C112.244 242.533 103.485 242.949 94.7184 243.465C94.6434 242.116 94.5683 240.768 94.4807 239.419C103.264 238.895 112.048 238.478 120.832 238.17C120.894 239.519 120.944 240.868 120.994 242.216Z" fill="#383838"/>
<path d="M121.245 249.047C112.544 249.371 103.848 249.788 95.1565 250.296C95.0689 248.947 94.9938 247.598 94.9062 246.25C103.64 245.742 112.369 245.326 121.094 245.001L121.245 249.047Z" fill="#383838"/>
<path d="M121.495 255.89C112.845 256.206 104.199 256.623 95.5568 257.139C95.4692 255.79 95.3942 254.441 95.3191 253.093C103.994 252.585 112.669 252.169 121.345 251.844L121.495 255.89Z" fill="#383838"/>
<path d="M160.195 207.251C148.2 207.251 136.209 207.459 124.222 207.876C124.222 206.527 124.135 205.166 124.085 203.817C136.122 203.426 148.154 203.222 160.183 203.205C160.183 204.554 160.183 205.903 160.195 207.251Z" fill="#383838"/>
<path d="M160.208 214.094C148.288 214.094 136.364 214.298 124.435 214.706C124.435 213.358 124.348 212.009 124.31 210.66C136.272 210.278 148.234 210.074 160.195 210.049C160.195 211.397 160.195 212.746 160.208 214.094Z" fill="#383838"/>
<path d="M160.22 220.938C148.359 220.938 136.505 221.141 124.66 221.549C124.66 220.201 124.573 218.852 124.535 217.503C136.422 217.112 148.313 216.908 160.208 216.892C160.208 218.24 160.208 219.589 160.22 220.938Z" fill="#383838"/>
<path d="M160.233 227.781C148.446 227.781 136.664 227.985 124.886 228.393C124.886 227.044 124.798 225.683 124.748 224.334C136.576 223.959 148.4 223.76 160.22 223.735C160.22 225.083 160.22 226.432 160.233 227.781Z" fill="#383838"/>
<path d="M160.245 234.624C148.567 234.624 136.856 234.824 125.111 235.223C125.111 233.875 125.023 232.526 124.973 231.177C136.718 230.803 148.471 230.603 160.233 230.578C160.233 231.926 160.245 233.275 160.245 234.624Z" fill="#383838"/>
<path d="M160.258 241.467C148.58 241.467 136.935 241.667 125.324 242.067C125.324 240.718 125.236 239.369 125.198 238.021C136.877 237.646 148.555 237.446 160.233 237.421C160.245 238.77 160.258 240.119 160.258 241.467Z" fill="#383838"/>
<path d="M160.27 248.31C148.701 248.31 137.127 248.51 125.549 248.91C125.549 247.561 125.461 246.2 125.411 244.851C137.023 244.477 148.638 244.281 160.258 244.264C160.258 245.613 160.27 246.962 160.27 248.31Z" fill="#383838"/>
<path d="M160.283 255.153C148.772 255.153 137.269 255.349 125.774 255.74C125.774 254.391 125.686 253.043 125.636 251.694C137.189 251.32 148.734 251.124 160.27 251.107C160.27 252.456 160.283 253.805 160.283 255.153Z" fill="#383838"/>
<path d="M164.7 207.251C176.703 207.251 188.694 207.459 200.672 207.876C200.672 206.527 200.76 205.166 200.81 203.817C188.773 203.426 176.741 203.222 164.712 203.205C164.712 204.554 164.712 205.903 164.7 207.251Z" fill="#383838"/>
<path d="M164.687 214.094C176.607 214.094 188.531 214.298 200.46 214.706C200.46 213.358 200.547 212.009 200.585 210.66C188.623 210.278 176.661 210.074 164.7 210.049C164.7 211.397 164.7 212.746 164.687 214.094Z" fill="#383838"/>
<path d="M164.675 220.938C176.536 220.938 188.39 221.141 200.235 221.549C200.235 220.201 200.322 218.852 200.36 217.503C188.473 217.112 176.582 216.908 164.687 216.892C164.687 218.24 164.687 219.589 164.675 220.938Z" fill="#383838"/>
<path d="M164.662 227.781C176.449 227.781 188.231 227.985 200.009 228.393C200.009 227.044 200.097 225.683 200.147 224.334C188.327 223.959 176.503 223.76 164.675 223.735C164.675 225.083 164.662 226.432 164.662 227.781Z" fill="#383838"/>
<path d="M164.65 234.624C176.328 234.624 188.039 234.824 199.784 235.223C199.784 233.875 199.872 232.526 199.922 231.177C188.168 230.803 176.415 230.603 164.662 230.578C164.662 231.926 164.65 233.275 164.65 234.624Z" fill="#383838"/>
<path d="M164.637 241.467C176.315 241.467 187.96 241.667 199.571 242.067C199.571 240.718 199.659 239.369 199.696 238.021C188.018 237.646 176.34 237.446 164.662 237.421C164.65 238.77 164.637 240.119 164.637 241.467Z" fill="#383838"/>
<path d="M164.625 248.31C176.203 248.31 187.776 248.51 199.346 248.91C199.346 247.561 199.434 246.2 199.484 244.851C187.872 244.477 176.257 244.281 164.637 244.264C164.637 245.613 164.625 246.962 164.625 248.31Z" fill="#383838"/>
<path d="M164.612 255.153C176.123 255.153 187.626 255.349 199.121 255.74C199.121 254.391 199.208 253.043 199.258 251.694C187.705 251.32 176.161 251.124 164.625 251.107C164.625 252.456 164.612 253.805 164.612 255.153Z" fill="#383838"/>
<path d="M58.6207 217.916C59.8719 205.204 73.2726 194.764 90.1516 193.752C116.953 192.087 143.779 191.255 170.631 191.255C197.482 191.255 224.308 192.087 251.109 193.752C258.685 194.112 265.999 196.635 272.18 201.02C267.476 191.954 256.29 185.249 242.926 184.437C216.125 182.772 189.299 181.96 162.447 182.002C135.596 182.044 108.77 182.855 81.9685 184.437C65.0895 185.448 51.6639 195.9 50.4252 208.6C48.54 231.677 46.9175 254.758 45.5579 277.843C48.4857 277.568 51.4261 277.319 54.3165 277.056C55.576 257.368 57.0108 237.654 58.6207 217.916Z" fill="#FFD000"/>
<g style="mix-blend-mode:multiply">
<path d="M55.8927 325.857C50.2121 312.408 59.4712 297.286 74.0105 295.737C150.428 287.577 227.488 287.367 303.949 295.113C304.149 293.64 304.336 292.178 304.524 290.705C210.198 278.55 114.697 278.55 20.3704 290.705C20.996 295.5 21.6174 300.291 22.2347 305.078C22.2347 305.078 26.8642 329.878 38.5006 328.504C40.8529 328.205 47.3844 327.455 56.2806 326.581L55.8927 325.857Z" fill="#9DA8B2"/>
</g>
<path d="M238.485 311.934C242.839 312.233 247.193 312.566 251.547 312.933C252.455 313.02 253.36 312.744 254.064 312.165C254.767 311.587 255.212 310.754 255.301 309.848L256.202 299.246C256.236 298.796 256.18 298.344 256.038 297.916C255.895 297.488 255.669 297.092 255.373 296.752C255.076 296.411 254.714 296.133 254.309 295.933C253.904 295.734 253.463 295.616 253.011 295.587C248.599 295.213 244.174 294.871 239.736 294.563C239.282 294.522 238.824 294.571 238.39 294.708C237.955 294.844 237.551 295.064 237.202 295.357C236.854 295.649 236.566 296.008 236.357 296.412C236.147 296.816 236.02 297.257 235.982 297.71L235.269 308.312C235.218 309.217 235.527 310.106 236.129 310.784C236.732 311.463 237.578 311.876 238.485 311.934Z" fill="#383838"/>
<path d="M213.447 310.46C217.818 310.66 222.177 310.893 226.523 311.159C226.971 311.19 227.42 311.132 227.845 310.989C228.271 310.846 228.664 310.621 229.002 310.327C229.34 310.032 229.617 309.674 229.816 309.272C230.015 308.871 230.134 308.434 230.164 307.987L230.84 297.373C230.861 296.922 230.794 296.471 230.641 296.046C230.488 295.621 230.252 295.23 229.948 294.896C229.643 294.562 229.276 294.291 228.866 294.099C228.457 293.907 228.013 293.798 227.561 293.777C223.132 293.51 218.703 293.277 214.273 293.077C213.821 293.047 213.368 293.107 212.94 293.253C212.511 293.399 212.116 293.628 211.777 293.928C211.438 294.228 211.163 294.592 210.966 294.999C210.77 295.406 210.656 295.848 210.632 296.299C210.47 299.833 210.319 303.38 210.157 306.926C210.126 307.829 210.455 308.708 211.072 309.37C211.688 310.032 212.542 310.424 213.447 310.46Z" fill="#383838"/>
<path d="M86.4103 311.934C82.0435 312.233 77.6517 312.571 73.3475 312.933C72.4401 313.02 71.5351 312.744 70.8313 312.165C70.1275 311.587 69.6825 310.754 69.5938 309.848L68.6929 299.246C68.6589 298.796 68.7147 298.344 68.8571 297.916C68.9995 297.488 69.2256 297.092 69.5224 296.752C69.8192 296.411 70.1807 296.133 70.586 295.933C70.9913 295.734 71.4323 295.616 71.8835 295.587C76.2962 295.213 80.7214 294.871 85.1591 294.563C85.6129 294.522 86.0704 294.571 86.5052 294.708C86.94 294.844 87.3435 295.064 87.6924 295.357C88.0413 295.649 88.3288 296.008 88.5383 296.412C88.7477 296.816 88.875 297.257 88.9128 297.71L89.6259 308.312C89.6807 309.218 89.3726 310.108 88.7696 310.788C88.1665 311.467 87.3179 311.879 86.4103 311.934Z" fill="#383838"/>
<path d="M111.447 310.46C107.093 310.66 102.689 310.897 98.3721 311.159C97.9243 311.19 97.4748 311.132 97.0494 310.989C96.624 310.846 96.231 310.621 95.8928 310.326C95.5547 310.032 95.278 309.674 95.0787 309.272C94.8793 308.871 94.7611 308.434 94.7309 307.987C94.5057 304.441 94.2847 300.903 94.0678 297.373C94.0426 296.922 94.1073 296.471 94.2582 296.045C94.4092 295.619 94.6434 295.228 94.9472 294.893C95.251 294.559 95.6184 294.288 96.0281 294.096C96.4377 293.904 96.8815 293.796 97.3335 293.777C101.763 293.51 106.192 293.277 110.622 293.077C111.073 293.049 111.526 293.109 111.953 293.256C112.381 293.403 112.776 293.632 113.114 293.932C113.453 294.231 113.728 294.595 113.925 295.001C114.123 295.407 114.237 295.848 114.263 296.299C114.425 299.833 114.575 303.379 114.738 306.926C114.765 307.828 114.435 308.705 113.819 309.367C113.203 310.028 112.351 310.421 111.447 310.46Z" fill="#383838"/>
<path d="M77.9771 268.253C62.9623 269.376 47.9226 270.808 32.8578 272.548C32.2061 272.645 31.5417 272.613 30.9025 272.454C30.2633 272.294 29.6619 272.01 29.1329 271.618C28.604 271.226 28.1578 270.733 27.8201 270.168C27.4823 269.604 27.2596 268.978 27.1647 268.328C26.6309 263.874 26.0887 259.415 25.5382 254.953C25.4834 254.291 25.56 253.624 25.7638 252.991C25.9675 252.358 26.2942 251.771 26.7254 251.264C27.1566 250.758 27.6836 250.34 28.2764 250.037C28.8693 249.734 29.5162 249.55 30.1802 249.496C45.512 247.723 60.8645 246.262 76.2379 245.113C76.8997 245.034 77.5707 245.087 78.2117 245.269C78.8526 245.452 79.4506 245.761 79.9704 246.177C80.4902 246.593 80.9214 247.109 81.2388 247.694C81.5561 248.279 81.7532 248.922 81.8183 249.584C82.1312 254.067 82.4565 258.537 82.7693 263.02C82.8012 263.679 82.7024 264.336 82.4784 264.956C82.2544 265.576 81.9098 266.146 81.4644 266.632C81.0189 267.118 80.4815 267.512 79.883 267.79C79.2845 268.068 78.6367 268.225 77.9771 268.253Z" fill="#141414"/>
<path d="M45.4327 250.533L37.7501 251.345L30.0675 252.206C29.4815 252.287 28.9504 252.594 28.5879 253.06C28.2255 253.527 28.0605 254.117 28.1282 254.704C28.3909 256.901 28.6537 259.099 28.9039 261.297L29.6922 267.89C29.7492 268.48 30.0381 269.022 30.4955 269.399C30.9529 269.776 31.5416 269.956 32.1321 269.901L39.6395 269.052L47.1468 268.253C47.7357 268.178 48.2708 267.873 48.6344 267.404C48.9981 266.936 49.1606 266.343 49.0862 265.755C48.861 263.557 48.6483 261.347 48.423 259.149C48.1978 256.951 47.9726 254.754 47.7599 252.543C47.6972 251.977 47.4226 251.456 46.9911 251.083C46.5596 250.71 46.003 250.514 45.4327 250.533Z" fill="#CC4D08"/>
<path d="M32.7702 254.629C34.5362 254.074 36.3567 253.71 38.2005 253.542C39.8653 253.408 41.5369 253.379 43.2054 253.455C43.5853 253.487 43.9461 253.635 44.2392 253.879C44.5323 254.122 44.7436 254.449 44.8445 254.816C45.3578 256.406 45.6935 258.048 45.8455 259.711C45.9265 261.184 45.9265 262.659 45.8455 264.132C45.8234 264.52 45.6835 264.893 45.4445 265.201C45.2054 265.509 44.8784 265.737 44.5067 265.855C42.7555 266.396 40.9522 266.752 39.1264 266.916C37.4822 267.043 35.8321 267.076 34.184 267.016C33.8051 266.988 33.4439 266.845 33.1487 266.606C32.8535 266.368 32.6385 266.044 32.5324 265.68C32.0023 264.092 31.6499 262.451 31.4814 260.785C31.3614 259.319 31.3279 257.847 31.3813 256.377C31.4055 255.979 31.5517 255.597 31.8001 255.285C32.0485 254.972 32.3871 254.743 32.7702 254.629Z" fill="#AC440F"/>
<path d="M43.1805 260.235C43.1772 261.43 42.7003 262.575 41.8539 263.419C41.0076 264.264 39.8606 264.74 38.6636 264.744C38.0703 264.746 37.4824 264.63 36.9345 264.403C36.3866 264.176 35.8897 263.841 35.473 263.42C34.9469 262.896 34.5584 262.25 34.3422 261.541C34.1259 260.831 34.0885 260.079 34.2332 259.351C34.3779 258.624 34.7003 257.943 35.1717 257.369C35.6432 256.796 36.2492 256.347 36.936 256.064C37.6228 255.78 38.3691 255.67 39.1088 255.743C39.8485 255.816 40.5586 256.07 41.1762 256.483C41.7939 256.895 42.3001 257.454 42.6497 258.108C42.9993 258.763 43.1816 259.494 43.1805 260.235Z" fill="#8C3B16"/>
<path d="M50.4501 252.331L51.1008 258.937C51.3135 261.135 51.5262 263.332 51.7515 265.543C51.772 265.835 51.8503 266.12 51.9817 266.382C52.1131 266.644 52.295 266.877 52.5171 267.069C52.7392 267.26 52.9971 267.406 53.2758 267.498C53.5545 267.589 53.8486 267.625 54.1413 267.603C58.1452 267.216 62.1616 266.854 66.1655 266.517C70.1695 266.179 74.1859 265.842 78.2023 265.543C78.7928 265.486 79.3365 265.198 79.7141 264.741C80.0918 264.285 80.2726 263.697 80.2169 263.108L79.7289 256.489L79.2409 249.871C79.2249 249.576 79.1507 249.286 79.0225 249.02C78.8942 248.753 78.7145 248.514 78.4937 248.317C78.2728 248.12 78.0152 247.968 77.7355 247.871C77.4558 247.773 77.1595 247.731 76.8636 247.748C72.7971 248.048 68.7181 248.385 64.6391 248.722C60.5601 249.059 56.4936 249.447 52.4271 249.834C52.1328 249.868 51.8482 249.959 51.5895 250.103C51.3308 250.247 51.1031 250.441 50.9194 250.673C50.7358 250.905 50.5998 251.171 50.5192 251.455C50.4387 251.74 50.4152 252.038 50.4501 252.331Z" fill="white"/>
<path d="M55.6677 251.469C58.7092 250.909 61.7794 250.517 64.8642 250.295C67.9047 250.058 70.9202 249.946 73.8856 249.909C74.3222 249.919 74.7407 250.085 75.0662 250.375C75.3917 250.666 75.603 251.062 75.6623 251.494C76.0303 253.3 76.2851 255.127 76.4255 256.964C76.5382 258.712 76.5757 260.435 76.5507 262.121C76.5568 262.578 76.4025 263.023 76.1147 263.379C75.8268 263.735 75.4233 263.979 74.9742 264.069C72.0338 264.556 68.9808 264.918 65.8902 265.156C62.7997 265.393 59.9219 265.518 57.0066 265.605C56.5737 265.6 56.1564 265.443 55.8273 265.162C55.4981 264.882 55.2779 264.495 55.2048 264.069C54.8159 262.263 54.5277 260.437 54.3414 258.6C54.1913 256.864 54.1162 255.141 54.1037 253.455C54.0906 252.994 54.2399 252.542 54.5256 252.18C54.8114 251.817 55.2155 251.566 55.6677 251.469Z" fill="#FFF5D5"/>
<path d="M58.8959 253.105C60.9076 252.381 63.0161 251.96 65.152 251.856C67.0901 251.754 69.0335 251.829 70.9578 252.081C71.2425 252.12 71.5106 252.238 71.7318 252.421C71.9529 252.604 72.1182 252.845 72.209 253.118C72.7827 254.498 73.1332 255.961 73.2475 257.451C73.2998 258.704 73.2201 259.96 73.0098 261.197C72.961 261.518 72.8292 261.82 72.6273 262.074C72.4253 262.328 72.1604 262.525 71.8587 262.646C69.8796 263.347 67.8115 263.768 65.7151 263.894C63.803 263.991 61.8862 263.928 59.9845 263.707C59.7012 263.669 59.4341 263.553 59.2131 263.372C58.9922 263.192 58.826 262.953 58.7332 262.683C58.1387 261.31 57.7671 259.852 57.6322 258.362C57.5672 257.131 57.6301 255.897 57.8199 254.679C57.8392 254.343 57.9496 254.02 58.1392 253.743C58.3287 253.466 58.5903 253.245 58.8959 253.105Z" fill="#FFECAC"/>
<path d="M69.794 257.876C69.7756 258.913 69.3972 259.912 68.7232 260.702C68.0493 261.492 67.1216 262.025 66.0983 262.208C65.075 262.392 64.0195 262.216 63.1118 261.71C62.2042 261.204 61.5005 260.399 61.121 259.433C60.7414 258.467 60.7093 257.399 61.0303 256.412C61.3513 255.426 62.0054 254.58 62.881 254.021C63.7567 253.461 64.7997 253.222 65.8322 253.345C66.8646 253.467 67.8226 253.943 68.5428 254.691C69.3651 255.546 69.815 256.691 69.794 257.876Z" fill="#FFE282"/>
<path d="M246.918 268.253C261.933 269.376 276.972 270.808 292.037 272.548C292.689 272.645 293.353 272.613 293.993 272.454C294.632 272.294 295.233 272.01 295.762 271.618C296.291 271.226 296.737 270.733 297.075 270.168C297.413 269.604 297.635 268.978 297.73 268.328C298.272 263.874 298.815 259.415 299.357 254.953C299.412 254.291 299.335 253.624 299.131 252.991C298.927 252.358 298.601 251.771 298.17 251.264C297.738 250.758 297.211 250.34 296.619 250.037C296.026 249.734 295.379 249.55 294.715 249.496C279.391 247.723 264.039 246.262 248.657 245.113C247.995 245.034 247.324 245.087 246.683 245.269C246.042 245.452 245.444 245.761 244.925 246.177C244.405 246.593 243.973 247.109 243.656 247.694C243.339 248.279 243.142 248.922 243.077 249.584C242.764 254.067 242.438 258.537 242.126 263.02C242.094 263.679 242.193 264.336 242.416 264.956C242.64 265.576 242.985 266.146 243.431 266.632C243.876 267.118 244.413 267.512 245.012 267.79C245.61 268.068 246.258 268.225 246.918 268.253Z" fill="#141414"/>
<path d="M279.462 250.533L287.145 251.345L294.827 252.206C295.413 252.287 295.944 252.594 296.307 253.06C296.669 253.527 296.834 254.117 296.767 254.704C296.504 256.901 296.241 259.099 295.991 261.297L295.203 267.89C295.146 268.48 294.857 269.022 294.399 269.399C293.942 269.776 293.353 269.956 292.763 269.901L285.255 269.052L277.748 268.253C277.159 268.178 276.624 267.873 276.26 267.404C275.897 266.936 275.734 266.343 275.809 265.755C276.034 263.557 276.247 261.347 276.472 259.149C276.697 256.951 276.922 254.754 277.135 252.543C277.198 251.977 277.472 251.456 277.904 251.083C278.335 250.71 278.892 250.514 279.462 250.533Z" fill="#CC4D08"/>
<path d="M292.125 254.629C290.359 254.074 288.538 253.71 286.694 253.542C285.029 253.408 283.358 253.379 281.689 253.455C281.309 253.487 280.949 253.635 280.656 253.879C280.363 254.122 280.151 254.449 280.05 254.816C279.537 256.406 279.201 258.048 279.049 259.711C278.968 261.184 278.968 262.659 279.049 264.132C279.071 264.52 279.211 264.893 279.45 265.201C279.689 265.509 280.016 265.737 280.388 265.855C282.139 266.396 283.943 266.752 285.768 266.916C287.413 267.043 289.063 267.076 290.711 267.016C291.09 266.988 291.451 266.845 291.746 266.606C292.041 266.368 292.256 266.044 292.362 265.68C292.892 264.092 293.245 262.451 293.413 260.785C293.533 259.319 293.567 257.847 293.513 256.377C293.489 255.979 293.343 255.597 293.095 255.285C292.846 254.972 292.508 254.743 292.125 254.629Z" fill="#AC440F"/>
<path d="M281.714 260.235C281.718 261.43 282.195 262.575 283.041 263.419C283.887 264.264 285.034 264.74 286.231 264.744C286.825 264.746 287.413 264.63 287.961 264.403C288.508 264.176 289.005 263.841 289.422 263.42C289.948 262.896 290.337 262.25 290.553 261.541C290.769 260.831 290.807 260.079 290.662 259.351C290.517 258.624 290.195 257.943 289.723 257.369C289.252 256.796 288.646 256.347 287.959 256.064C287.272 255.78 286.526 255.67 285.786 255.743C285.047 255.816 284.336 256.07 283.719 256.483C283.101 256.895 282.595 257.454 282.245 258.108C281.896 258.763 281.713 259.494 281.714 260.235Z" fill="#8C3B16"/>
<path d="M274.445 252.331C274.232 254.529 274.019 256.727 273.794 258.937C273.569 261.147 273.369 263.332 273.144 265.543C273.123 265.835 273.045 266.12 272.913 266.382C272.782 266.644 272.6 266.877 272.378 267.069C272.156 267.26 271.898 267.406 271.619 267.498C271.34 267.589 271.046 267.625 270.754 267.603C266.75 267.216 262.733 266.854 258.729 266.517C254.725 266.179 250.709 265.842 246.693 265.543C246.102 265.486 245.558 265.198 245.181 264.741C244.803 264.285 244.622 263.697 244.678 263.108L245.166 256.489L245.654 249.871C245.67 249.576 245.744 249.286 245.872 249.02C246.001 248.753 246.18 248.514 246.401 248.317C246.622 248.12 246.88 247.968 247.16 247.871C247.439 247.773 247.736 247.731 248.031 247.748C252.098 248.048 256.177 248.385 260.256 248.722C264.335 249.059 268.401 249.447 272.468 249.834C272.762 249.868 273.047 249.959 273.305 250.103C273.564 250.247 273.792 250.441 273.976 250.673C274.159 250.905 274.295 251.171 274.376 251.455C274.456 251.74 274.48 252.038 274.445 252.331Z" fill="white"/>
<path d="M269.227 251.469C266.186 250.909 263.115 250.517 260.031 250.295C256.99 250.058 253.975 249.946 251.009 249.909C250.573 249.919 250.154 250.085 249.829 250.375C249.503 250.666 249.292 251.062 249.233 251.494C248.865 253.3 248.61 255.127 248.469 256.964C248.357 258.712 248.319 260.435 248.344 262.121C248.328 262.594 248.484 263.057 248.783 263.424C249.082 263.791 249.504 264.038 249.971 264.119C252.911 264.606 255.964 264.968 259.055 265.206C262.145 265.443 265.023 265.568 267.938 265.655C268.371 265.65 268.789 265.493 269.118 265.212C269.447 264.932 269.667 264.545 269.74 264.119C270.129 262.313 270.417 260.487 270.604 258.65C270.754 256.914 270.829 255.191 270.841 253.505C270.864 253.028 270.714 252.559 270.417 252.185C270.12 251.81 269.697 251.557 269.227 251.469Z" fill="#FFF5D5"/>
<path d="M265.999 253.105C263.987 252.381 261.879 251.96 259.743 251.856C257.805 251.754 255.861 251.829 253.937 252.081C253.652 252.12 253.384 252.238 253.163 252.421C252.942 252.604 252.777 252.845 252.686 253.118C252.112 254.498 251.762 255.961 251.647 257.451C251.595 258.704 251.675 259.96 251.885 261.197C251.934 261.518 252.066 261.82 252.268 262.074C252.47 262.328 252.735 262.525 253.036 262.646C255.015 263.347 257.083 263.768 259.18 263.894C261.092 263.991 263.009 263.928 264.91 263.707C265.194 263.669 265.461 263.553 265.682 263.372C265.903 263.192 266.069 262.953 266.162 262.683C266.756 261.31 267.128 259.852 267.263 258.362C267.328 257.131 267.265 255.897 267.075 254.679C267.056 254.343 266.945 254.02 266.756 253.743C266.566 253.466 266.305 253.245 265.999 253.105Z" fill="#FFECAC"/>
<path d="M255.063 257.876C255.082 258.913 255.46 259.912 256.134 260.702C256.808 261.492 257.736 262.025 258.759 262.208C259.782 262.392 260.838 262.216 261.746 261.71C262.653 261.204 263.357 260.399 263.736 259.433C264.116 258.467 264.148 257.399 263.827 256.412C263.506 255.426 262.852 254.58 261.976 254.021C261.101 253.461 260.058 253.222 259.025 253.345C257.993 253.467 257.035 253.943 256.315 254.691C255.492 255.546 255.042 256.691 255.063 257.876Z" fill="#FFE282"/>
<g style="mix-blend-mode:multiply">
<path d="M31.9444 289.244C31.8671 288.664 31.9052 288.075 32.0565 287.51C32.2078 286.944 32.4694 286.415 32.8262 285.951C33.1831 285.487 33.6282 285.097 34.136 284.805C34.6439 284.513 35.2045 284.324 35.7857 284.249C126.529 272.633 218.358 272.163 309.216 282.85L309.404 281.464C211.858 268.577 113.036 268.577 15.4907 281.464C15.9287 284.711 16.3541 287.957 16.7419 291.204C21.7469 290.53 26.7977 289.897 31.8944 289.306L31.9444 289.244Z" fill="#BCC3C9"/>
</g>
<g style="mix-blend-mode:multiply">
<path d="M103.127 257.164C103.127 256.801 103.127 256.452 103.127 256.09L102.751 250.333C102.751 249.983 102.751 249.621 102.751 249.259C102.626 247.349 102.501 245.426 102.388 243.502L102.313 242.428C102.201 240.518 102.076 238.595 101.951 236.684L101.875 235.598C101.763 233.687 101.638 231.764 101.513 229.854C101.513 229.492 101.513 229.129 101.513 228.78L101.137 223.023C101.137 222.661 101.137 222.299 101.137 221.949C100.987 219.664 100.849 217.391 100.699 215.119C100.642 214.219 100.764 213.317 101.058 212.464C101.352 211.612 101.813 210.826 102.413 210.153C103.013 209.479 103.742 208.931 104.556 208.54C105.37 208.149 106.254 207.924 107.156 207.876C115.43 207.385 123.714 206.993 132.005 206.702L138.261 206.49C149.764 206.132 161.267 205.932 172.77 205.891H179.026C190.521 205.891 202.024 206.09 213.535 206.49L219.791 206.702C225.81 206.914 231.815 207.201 237.834 207.514C237.834 207.364 237.834 207.227 237.834 207.077C237.891 206.178 237.77 205.277 237.477 204.425C237.183 203.573 236.724 202.788 236.125 202.115C235.525 201.442 234.799 200.893 233.986 200.502C233.173 200.11 232.291 199.883 231.39 199.834C223.107 199.351 214.824 198.96 206.541 198.66L200.284 198.435C188.773 198.077 177.266 197.882 165.763 197.848H159.507C147.996 197.848 136.489 198.044 124.986 198.435C122.896 198.51 120.794 198.573 118.729 198.66C110.438 198.96 102.151 199.351 93.8676 199.834C92.9666 199.883 92.0843 200.11 91.2717 200.502C90.459 200.893 89.7322 201.442 89.1331 202.115C88.534 202.788 88.0745 203.573 87.7811 204.425C87.4877 205.277 87.3663 206.178 87.4238 207.077C87.5615 209.349 87.7116 211.622 87.8617 213.907C87.8617 214.257 87.8617 214.619 87.9243 214.981C88.0494 216.892 88.1746 218.815 88.2872 220.725L88.3622 221.812C88.4874 223.723 88.5999 225.645 88.7251 227.556L88.8001 228.63C88.9127 230.553 89.0378 232.476 89.163 234.387C89.163 234.749 89.163 235.111 89.163 235.461L89.5384 241.217C89.5384 241.579 89.5384 241.929 89.6009 242.291C89.7261 244.214 89.8512 246.125 89.9638 248.048L90.0388 249.122C90.1765 251.395 90.3267 253.68 90.4643 255.952C90.5424 257.722 91.3166 259.39 92.619 260.594C93.9213 261.798 95.6468 262.441 97.4211 262.384L103.577 262.059C103.339 260.436 103.239 258.799 103.127 257.164Z" fill="#9DA8B2"/>
</g>
</svg>
