<svg width="637" height="439" viewBox="0 0 637 439" fill="none" xmlns="http://www.w3.org/2000/svg">
<g clip-path="url(#clip0_730_986)">
<path d="M433.768 424.189C546.01 424.189 637 415.405 637 404.569C637 393.734 546.01 384.95 433.768 384.95C321.526 384.95 230.536 393.734 230.536 404.569C230.536 415.405 321.526 424.189 433.768 424.189Z" fill="#9D9D9C"/>
<path d="M465.773 303.472C464.907 297.072 465.701 290.558 468.079 284.555C470.457 278.551 474.338 273.261 479.349 269.193C484.36 265.124 490.333 262.414 496.693 261.323C503.054 260.232 509.588 260.797 515.667 262.964C527.603 267.234 537.451 279.298 535.824 291.9" fill="#EF4545"/>
<path d="M451.688 274.267C453.478 273.46 456.164 274.73 455.895 276.671C457.387 270.907 459.058 264.875 463.176 260.56C464.997 258.664 467.653 257.096 470.174 258.007C471.151 258.45 471.98 259.167 472.559 260.07C473.139 260.973 473.445 262.025 473.442 263.098C473.394 265.251 472.804 267.357 471.726 269.22C470.261 272.094 468.442 274.773 466.31 277.193C467.335 276.051 468.691 275.258 470.189 274.924C470.558 274.883 470.932 274.922 471.284 275.038C471.637 275.154 471.961 275.344 472.234 275.596C472.507 275.848 472.722 276.156 472.866 276.498C473.011 276.841 473.08 277.21 473.069 277.581C472.338 283.748 458.581 294.498 452.657 291.885C447.092 289.437 446.331 277.148 451.688 274.267Z" fill="#006937"/>
<path d="M332.025 299.306C328.648 295.536 326.106 291.094 324.565 286.271C323.832 283.712 323.614 281.032 323.924 278.388C324.044 277.435 324.384 276.524 324.915 275.725C325.446 274.926 326.154 274.26 326.985 273.78C327.815 273.3 328.746 273.019 329.703 272.958C330.66 272.898 331.618 273.059 332.503 273.431C335.297 274.66 337.811 276.449 339.889 278.686C339.62 274.819 339.65 270.205 343.275 268.235C344.377 267.68 345.605 267.426 346.836 267.496C348.067 267.567 349.257 267.961 350.288 268.638C354.764 271.37 356.256 276.297 359.061 280.359L363.881 274.804C364.261 274.239 364.834 273.83 365.492 273.655C365.881 273.661 366.264 273.749 366.616 273.914C366.968 274.078 367.282 274.316 367.536 274.61C373.743 280.169 378.167 287.442 380.248 295.513" fill="#006937"/>
<path d="M519.233 265.443C518.436 267.792 517.126 269.934 515.398 271.713C511.986 275.695 508.395 279.552 504.626 283.285C506.067 282.288 507.689 281.583 509.4 281.21C512.086 280.821 515.368 282.464 514.16 286.465C513.815 287.526 513.222 288.489 512.429 289.272C506.049 295.795 499.175 301.815 491.869 307.279C491.219 307.76 490.438 308.031 489.631 308.055H489.213C488.379 307.971 487.599 307.602 487.004 307.01C486.574 306.585 486.234 306.077 486.005 305.517C483.021 297.559 479.246 285.122 480.231 278.641C480.287 277.711 480.655 276.828 481.275 276.133C482.633 274.953 484.796 275.954 485.945 277.328C487.094 278.701 487.915 280.463 489.526 281.284C488.597 277.047 488.44 272.677 489.064 268.384C489.451 265.681 490.302 262.755 492.57 261.217C494.838 259.679 498.732 260.56 499.135 263.263C499.077 259.066 500.005 254.915 501.845 251.144C503.685 247.373 506.386 244.088 509.728 241.553C510.648 240.816 511.804 240.439 512.981 240.493C515.294 240.687 515.965 242.732 516.308 244.584C516.763 247.565 516.6 250.607 515.83 253.523C515.06 256.438 513.699 259.164 511.832 261.531C512.484 260.839 513.344 260.38 514.281 260.224C515.218 260.069 516.18 260.225 517.02 260.669C517.86 261.113 518.531 261.82 518.931 262.682C519.33 263.544 519.436 264.514 519.233 265.443Z" fill="#820032"/>
<path d="M513.518 254.005L510.534 255.633L509.042 256.424L508.117 256.887L506.147 261.874C504.447 266.085 502.701 270.28 500.97 274.491C504.059 272.774 506.774 270.4 509.803 268.518C510.093 268.384 510.423 268.368 510.724 268.474C511.025 268.58 511.273 268.799 511.414 269.086C511.541 269.376 511.553 269.704 511.448 270.004C511.343 270.303 511.128 270.551 510.847 270.698C507.058 272.953 503.745 276.073 499.627 277.761C497.464 283.076 495.375 288.421 493.495 293.841C495.673 292.886 497.747 291.661 499.896 290.661C500.183 290.535 500.508 290.525 500.802 290.634C501.096 290.743 501.337 290.962 501.472 291.245C501.608 291.528 501.628 291.853 501.529 292.151C501.43 292.448 501.219 292.696 500.94 292.841C498.105 294.155 495.435 295.738 492.495 296.798C491.252 300.53 490.138 304.308 489.153 308.13C488.319 308.045 487.539 307.677 486.945 307.085C487.9 303.397 488.989 299.769 490.197 296.141C488.902 293.267 487.453 290.466 485.856 287.749C485.716 287.462 485.696 287.131 485.799 286.829C485.903 286.527 486.122 286.278 486.408 286.137C486.697 286.002 487.028 285.987 487.329 286.093C487.63 286.199 487.877 286.418 488.019 286.704C489.049 288.765 490.332 290.721 491.361 292.796C493.182 287.63 495.151 282.509 497.18 277.432C497.18 277.432 497.18 277.342 497.18 277.283C496.33 273.938 495.285 270.654 494.42 267.324C494.032 265.831 496.419 265.368 496.792 266.861C497.389 269.19 498.075 271.49 498.732 273.819C501.134 267.846 503.581 261.993 505.909 256.051C505.662 255.536 505.458 255.002 505.297 254.453L504.133 251.318C504.006 251.027 503.994 250.699 504.1 250.4C504.205 250.101 504.419 249.853 504.7 249.705C504.987 249.572 505.316 249.556 505.614 249.662C505.913 249.768 506.158 249.988 506.297 250.273C506.61 251.079 506.894 251.885 507.192 252.691C507.863 250.945 508.52 249.183 509.147 247.421C509.28 247.154 509.507 246.946 509.784 246.837C510.061 246.727 510.368 246.724 510.648 246.828C510.927 246.931 511.158 247.135 511.297 247.398C511.436 247.662 511.472 247.968 511.399 248.257C510.788 250.004 510.116 251.751 509.46 253.498L512.444 251.841C512.731 251.707 513.06 251.691 513.358 251.797C513.657 251.903 513.902 252.123 514.04 252.408C514.17 252.691 514.188 253.013 514.091 253.309C513.995 253.605 513.79 253.854 513.518 254.005Z" fill="#A01F53"/>
<path d="M314.539 280.15C314.853 279.819 315.128 279.453 315.359 279.06C315.686 278.513 315.889 277.901 315.956 277.268C316.329 273.893 312.778 270.504 311.316 267.593C309.021 262.993 307.508 258.043 306.84 252.945C306.332 249.198 305.512 244.405 301.811 243.584C298.111 242.762 295.306 246.853 293.695 250.303C294.687 240.633 294.687 230.887 293.695 221.217C293.605 218.33 292.755 215.518 291.233 213.065C290.148 211.589 288.618 210.501 286.868 209.961C285.119 209.421 283.243 209.457 281.515 210.064C279.788 210.671 278.301 211.816 277.273 213.332C276.245 214.848 275.73 216.654 275.805 218.485C274.999 211.691 274 204.868 271.254 198.627C269.255 194.147 265.719 189.668 260.81 189.19C256.766 188.832 253.007 191.4 250.44 194.55C248.189 197.491 246.569 200.866 245.683 204.464C244.798 208.061 244.665 211.803 245.293 215.454C246.597 222.777 249.985 229.569 255.051 235.013C249.843 234.297 245.278 239.657 245.218 244.912C245.158 250.168 248.381 254.931 252.171 258.574C260.314 266.328 271.192 270.542 282.43 270.295C279.446 270.728 278.297 274.774 279.699 277.417C281.102 280.06 284.086 281.389 286.951 282.21C292.785 283.942 309.212 285.973 314.539 280.15Z" fill="#5CBC1E"/>
<path d="M314.539 280.15C314.853 279.819 315.128 279.453 315.359 279.06C315.686 278.513 315.889 277.901 315.956 277.268C312.405 275.138 308.958 272.848 305.616 270.4C305.168 267.802 304.751 265.219 304.318 262.621C304.269 262.416 304.18 262.223 304.057 262.052C303.933 261.881 303.777 261.737 303.598 261.627C303.418 261.516 303.219 261.443 303.011 261.41C302.803 261.376 302.591 261.385 302.386 261.434C302.181 261.483 301.988 261.572 301.817 261.695C301.647 261.819 301.503 261.975 301.393 262.155C301.282 262.334 301.209 262.534 301.176 262.742C301.142 262.95 301.151 263.162 301.2 263.367C301.423 264.756 301.662 266.174 301.886 267.563C294.603 261.799 287.938 255.294 281.997 248.152C282.788 243.061 283.593 237.97 284.384 232.863C284.393 232.449 284.244 232.046 283.967 231.738C283.689 231.43 283.305 231.24 282.892 231.206C282.478 231.203 282.078 231.355 281.77 231.631C281.461 231.907 281.265 232.287 281.221 232.699C280.609 236.715 279.983 240.747 279.341 244.763C274.025 237.942 269.373 230.628 265.45 222.919C267.632 220.601 268.908 217.575 269.046 214.394C269.025 213.991 268.855 213.611 268.568 213.328C268.281 213.046 267.899 212.88 267.497 212.865C267.094 212.85 266.701 212.987 266.394 213.248C266.087 213.508 265.889 213.874 265.838 214.274C265.75 216.248 265.086 218.153 263.928 219.754C262.436 216.499 260.944 213.214 259.721 209.855C259.005 207.929 255.871 208.66 256.587 210.586C257.662 213.438 258.84 216.245 260.079 219.022L255.304 216.738C254.938 216.519 254.502 216.451 254.087 216.549C253.672 216.646 253.311 216.901 253.081 217.26C252.861 217.625 252.793 218.062 252.894 218.476C252.995 218.89 253.255 219.248 253.618 219.47L262.257 223.606C263.421 225.95 264.615 228.265 265.928 230.534C269.298 236.406 273.098 242.021 277.297 247.331C274.061 247.993 270.795 248.491 267.509 248.824C267.095 248.822 266.695 248.973 266.387 249.249C266.078 249.525 265.882 249.906 265.838 250.318C265.825 250.733 265.974 251.137 266.252 251.446C266.53 251.755 266.916 251.944 267.33 251.975C271.422 251.593 275.487 250.97 279.505 250.109C285.555 257.345 292.324 263.949 299.708 269.817C297.812 270.045 295.902 270.13 293.993 270.071C293.771 270.044 293.545 270.063 293.331 270.127C293.116 270.192 292.918 270.3 292.748 270.446C292.578 270.592 292.44 270.771 292.343 270.973C292.246 271.175 292.192 271.395 292.185 271.619C292.177 271.843 292.217 272.066 292.3 272.274C292.384 272.482 292.51 272.67 292.67 272.826C292.831 272.983 293.022 273.104 293.231 273.182C293.441 273.261 293.665 273.294 293.889 273.281C297.016 273.374 300.144 273.113 303.214 272.505C306.852 275.25 310.632 277.802 314.539 280.15Z" fill="#96ED5D"/>
<path d="M470.995 164.614C471.41 164.795 471.846 164.925 472.293 165.002C472.918 165.13 473.563 165.13 474.188 165.002C477.485 164.181 479.44 159.672 481.648 157.298C485.159 153.541 489.268 150.393 493.808 147.981C497.165 146.219 501.373 143.785 500.851 140.023C500.329 136.26 495.539 135.051 491.749 134.722C501.155 132.303 510.286 128.916 518.994 124.614C521.679 123.547 524.029 121.779 525.798 119.493C526.814 117.961 527.311 116.143 527.214 114.308C527.117 112.472 526.432 110.716 525.26 109.301C524.088 107.885 522.492 106.885 520.708 106.448C518.923 106.011 517.046 106.161 515.353 106.876C521.426 103.77 527.499 100.47 532.393 95.7374C535.929 92.3033 538.913 87.4358 537.63 82.6877C536.57 78.7758 532.855 76.1181 529.035 74.8041C525.497 73.7039 521.77 73.3483 518.088 73.7594C514.406 74.1705 510.848 75.3395 507.64 77.1931C501.236 80.9544 496.055 86.4866 492.719 93.1245C491.6 87.9882 485.005 85.5544 480.052 87.3014C475.098 89.0483 471.741 93.7367 469.607 98.5594C465.146 108.888 464.953 120.564 469.07 131.034C467.578 128.421 463.43 128.69 461.446 130.915C459.461 133.14 459.238 136.409 459.446 139.381C459.924 145.502 463.684 161.628 470.995 164.614Z" fill="#5CBC1E"/>
<path d="M470.995 164.614C471.41 164.795 471.846 164.925 472.293 165.002C472.918 165.13 473.563 165.13 474.188 165.002C474.964 160.931 475.924 156.899 477.067 152.908C479.335 151.594 481.613 150.29 483.901 148.996C484.256 148.761 484.504 148.396 484.59 147.979C484.677 147.562 484.595 147.128 484.363 146.771C484.119 146.424 483.75 146.183 483.334 146.1C482.917 146.017 482.485 146.097 482.125 146.323L478.425 148.429C481.309 139.6 485.099 131.093 489.735 123.046L504.894 120.06C505.299 119.927 505.635 119.638 505.828 119.257C506.021 118.877 506.055 118.435 505.924 118.029C505.781 117.631 505.491 117.302 505.114 117.11C504.736 116.919 504.3 116.879 503.894 116.999L491.958 119.403C496.508 112.024 501.754 105.099 507.625 98.7234C510.554 99.9627 513.831 100.111 516.86 99.1416C517.189 98.963 517.445 98.6743 517.583 98.3261C517.721 97.9779 517.732 97.5923 517.615 97.2365C517.498 96.8808 517.259 96.5777 516.941 96.3801C516.623 96.1825 516.246 96.1029 515.876 96.1554C513.992 96.759 511.972 96.7901 510.072 96.2449C512.578 93.6917 515.189 91.2132 517.905 88.884C519.397 87.5551 517.681 84.8526 516.129 86.1964C513.817 88.1971 511.653 90.2725 509.43 92.3927L509.922 87.1221C509.999 86.7034 509.911 86.2715 509.678 85.9157C509.444 85.5599 509.083 85.3075 508.669 85.2109C508.252 85.1271 507.818 85.2121 507.463 85.4471C507.108 85.6821 506.86 86.0481 506.774 86.4652L505.879 96.0209C504.088 97.9171 502.328 99.8432 500.657 101.859C496.309 107.03 492.354 112.52 488.825 118.283C487.093 115.468 485.504 112.568 484.065 109.593C484.03 109.363 483.944 109.144 483.815 108.95C483.686 108.757 483.516 108.594 483.318 108.473C483.119 108.352 482.897 108.276 482.666 108.25C482.435 108.224 482.201 108.249 481.98 108.323C481.76 108.397 481.558 108.518 481.389 108.678C481.221 108.838 481.089 109.033 481.003 109.249C480.918 109.465 480.88 109.698 480.894 109.93C480.907 110.162 480.971 110.389 481.081 110.593C482.853 114.303 484.846 117.903 487.049 121.374C482.344 129.553 478.489 138.193 475.546 147.159C474.677 145.459 473.934 143.698 473.322 141.889C473.287 141.659 473.201 141.44 473.072 141.246C472.943 141.053 472.774 140.89 472.575 140.769C472.377 140.648 472.154 140.571 471.923 140.545C471.692 140.519 471.458 140.544 471.237 140.618C471.017 140.692 470.815 140.813 470.647 140.973C470.478 141.133 470.346 141.328 470.26 141.545C470.175 141.761 470.137 141.993 470.151 142.226C470.164 142.458 470.228 142.684 470.338 142.889C471.331 145.861 472.658 148.712 474.292 151.385C472.963 155.734 471.863 160.15 470.995 164.614Z" fill="#96ED5D"/>
<path d="M340.978 190.355C340.526 190.4 340.071 190.4 339.62 190.355C338.984 190.317 338.363 190.144 337.8 189.847C334.816 188.264 333.995 183.412 332.413 180.56C329.918 176.073 326.691 172.036 322.864 168.615C320.044 166.077 316.553 162.643 317.955 159.179C319.358 155.715 324.326 155.64 328.086 156.193C319.542 151.565 311.501 146.061 304.094 139.769C301.753 138.079 299.905 135.796 298.738 133.154C298.131 131.428 298.094 129.552 298.631 127.803C299.168 126.054 300.251 124.523 301.722 123.435C303.193 122.347 304.974 121.76 306.802 121.76C308.631 121.76 310.412 122.347 311.883 123.434C306.735 118.955 301.647 114.282 298.037 108.503C295.44 104.323 293.725 98.8727 296.127 94.5726C298.096 91.034 302.334 89.3617 306.377 89.0183C310.072 88.8046 313.771 89.3574 317.243 90.6421C320.714 91.9268 323.883 93.9156 326.55 96.4838C331.877 101.685 335.587 108.317 337.233 115.581C339.56 110.862 346.558 110.101 350.93 113.012C355.301 115.924 357.435 121.269 358.3 126.45C360.133 137.551 357.499 148.926 350.974 158.089C352.974 155.894 356.943 157.178 358.435 159.821C359.927 162.464 359.255 165.689 358.33 168.526C356.316 174.483 348.751 189.205 340.978 190.355Z" fill="#5CBC1E"/>
<path d="M340.978 190.355C340.526 190.4 340.071 190.4 339.62 190.355C338.984 190.317 338.363 190.144 337.8 189.847C338.038 185.711 338.098 181.56 337.949 177.424L332.249 171.975C332.085 171.823 331.954 171.639 331.865 171.434C331.775 171.23 331.729 171.008 331.73 170.785C331.731 170.561 331.778 170.34 331.868 170.136C331.959 169.931 332.091 169.748 332.256 169.598C332.421 169.447 332.615 169.332 332.827 169.261C333.039 169.19 333.263 169.163 333.485 169.183C333.708 169.203 333.924 169.269 334.119 169.377C334.315 169.485 334.486 169.632 334.622 169.81L337.695 172.796C337.038 163.531 335.423 154.359 332.876 145.428L318.895 138.798C318.539 138.565 318.287 138.203 318.193 137.788C318.098 137.373 318.168 136.938 318.388 136.573C318.628 136.226 318.989 135.98 319.401 135.886C319.813 135.792 320.244 135.856 320.611 136.066L331.623 141.292C328.991 133.056 325.568 125.096 321.402 117.521C318.256 118.004 315.041 117.354 312.33 115.685C312.152 115.573 311.998 115.428 311.876 115.256C311.754 115.084 311.667 114.89 311.619 114.685C311.524 114.271 311.598 113.836 311.823 113.475C312.049 113.115 312.408 112.859 312.822 112.764C313.236 112.668 313.671 112.742 314.031 112.968C315.72 113.993 317.667 114.511 319.641 114.461C317.821 111.355 315.896 108.339 313.837 105.398C312.644 103.74 315.016 101.545 316.195 103.233C317.955 105.726 319.612 108.279 321.208 110.862C321.462 109.115 321.73 107.368 321.999 105.622C322.037 105.204 322.232 104.818 322.546 104.54C322.859 104.263 323.267 104.115 323.685 104.128C324.102 104.159 324.49 104.351 324.769 104.663C325.047 104.975 325.194 105.383 325.177 105.801C324.699 108.966 324.202 112.131 323.685 115.297C324.968 117.566 326.206 119.866 327.355 122.225C330.305 128.317 332.798 134.621 334.816 141.083C337.173 138.768 339.426 136.335 341.53 133.811C341.765 133.458 342.127 133.208 342.54 133.114C342.954 133.019 343.388 133.087 343.753 133.304C343.931 133.416 344.084 133.562 344.205 133.734C344.326 133.907 344.412 134.101 344.458 134.306C344.504 134.511 344.508 134.724 344.472 134.931C344.435 135.138 344.358 135.336 344.245 135.513C341.625 138.658 338.825 141.65 335.86 144.472C338.433 153.549 340.078 162.864 340.769 172.273C342.028 170.835 343.175 169.303 344.201 167.689C344.304 167.492 344.447 167.318 344.621 167.179C344.794 167.04 344.995 166.938 345.21 166.88C345.425 166.822 345.65 166.81 345.87 166.843C346.09 166.877 346.301 166.955 346.489 167.074C346.677 167.193 346.839 167.35 346.963 167.535C347.088 167.719 347.173 167.928 347.213 168.147C347.253 168.366 347.248 168.591 347.196 168.808C347.145 169.025 347.05 169.229 346.916 169.407C345.229 172.048 343.253 174.492 341.022 176.693C341.247 181.244 341.232 185.805 340.978 190.355Z" fill="#96ED5D"/>
<path d="M536.436 292.722C536.816 292.972 537.221 293.182 537.644 293.349C538.238 293.58 538.873 293.687 539.51 293.662C542.897 293.483 545.672 289.437 548.313 287.525C552.481 284.516 557.12 282.221 562.039 280.732C565.665 279.627 570.261 278.059 570.484 274.267C570.708 270.474 566.217 268.294 562.547 267.324C572.247 266.746 581.862 265.17 591.239 262.621C594.074 262.082 596.716 260.799 598.893 258.903C600.176 257.596 601.005 255.911 601.26 254.097C601.514 252.283 601.18 250.435 600.306 248.825C599.433 247.215 598.066 245.928 596.406 245.154C594.747 244.38 592.884 244.159 591.09 244.524C597.655 242.643 604.25 240.568 609.964 236.865C614.082 234.177 617.961 229.967 617.603 225.054C617.305 221.008 614.172 217.693 610.665 215.663C607.402 213.908 603.813 212.846 600.121 212.543C596.429 212.24 592.715 212.702 589.21 213.901C582.186 216.364 576.021 220.801 571.454 226.682C571.35 221.411 565.337 217.723 560.145 218.53C554.952 219.336 550.745 223.248 547.761 227.578C541.408 236.857 538.984 248.274 541.017 259.336C540.136 256.499 535.929 255.976 533.556 257.843C531.184 259.709 530.333 262.8 529.96 265.756C529.289 271.833 529.901 288.347 536.436 292.722Z" fill="#5CBC1E"/>
<path d="M536.436 292.721C536.816 292.972 537.221 293.182 537.645 293.348C538.238 293.58 538.873 293.687 539.51 293.662C541.002 289.81 542.747 286.032 544.642 282.344L552.103 279.821C552.495 279.659 552.807 279.348 552.972 278.957C553.137 278.566 553.141 278.125 552.983 277.731C552.815 277.34 552.501 277.029 552.109 276.865C551.716 276.7 551.275 276.695 550.879 276.85L546.836 278.208C551.361 270.099 556.711 262.478 562.8 255.469H578.273C578.693 255.413 579.075 255.193 579.335 254.858C579.594 254.522 579.711 254.098 579.661 253.677C579.598 253.258 579.377 252.88 579.044 252.619C578.711 252.358 578.291 252.234 577.87 252.273H565.68C571.578 245.929 578.073 240.169 585.077 235.073C587.704 236.848 590.88 237.621 594.029 237.253C594.45 237.201 594.834 236.984 595.096 236.65C595.358 236.315 595.476 235.89 595.424 235.469C595.373 235.047 595.156 234.663 594.822 234.401C594.487 234.139 594.063 234.021 593.641 234.073C591.678 234.296 589.693 233.944 587.927 233.057C590.911 231.027 593.895 229.101 597.028 227.324C598.804 226.323 597.58 223.337 595.79 224.338C593.149 225.831 590.582 227.458 588.031 229.13C588.538 227.443 589.031 225.741 589.523 224.039C589.674 223.642 589.667 223.202 589.503 222.811C589.339 222.419 589.031 222.105 588.643 221.934C588.25 221.779 587.813 221.782 587.423 221.944C587.034 222.105 586.722 222.412 586.554 222.8C585.659 225.875 584.754 228.946 583.838 232.012C581.72 233.505 579.616 234.998 577.602 236.73C572.334 240.989 567.396 245.641 562.83 250.646C561.681 247.555 560.667 244.39 559.846 241.21C559.783 240.788 559.561 240.407 559.224 240.146C558.888 239.885 558.464 239.763 558.041 239.806C557.624 239.869 557.247 240.09 556.989 240.424C556.73 240.757 556.61 241.178 556.653 241.598C557.691 245.579 558.956 249.497 560.443 253.334C554.271 260.447 548.846 268.177 544.254 276.402C543.723 274.562 543.329 272.686 543.076 270.788C543.022 270.366 542.804 269.983 542.468 269.722C542.132 269.462 541.707 269.346 541.285 269.399C540.864 269.453 540.481 269.671 540.221 270.007C539.96 270.343 539.844 270.769 539.898 271.191C540.302 274.297 541.058 277.348 542.151 280.284C540.062 284.355 538.157 288.501 536.436 292.721Z" fill="#96ED5D"/>
<path d="M563.159 122.911C562.262 121.654 561.088 120.62 559.727 119.89C558.366 119.161 556.856 118.755 555.313 118.704C553.77 118.654 552.236 118.96 550.83 119.599C549.425 120.238 548.185 121.193 547.209 122.389C534.496 137.917 505.043 173.766 492.958 188.458C491.993 189.632 491.307 191.01 490.951 192.488C490.595 193.965 490.579 195.504 490.904 196.989C491.228 198.474 491.885 199.866 492.825 201.06C493.765 202.254 494.963 203.219 496.33 203.882C505.792 208.671 516.366 210.826 526.947 210.123C535.121 209.416 542.996 206.709 549.879 202.24C556.191 198.105 561.794 192.978 566.471 187.055C586.151 162.762 572.842 136.439 563.159 122.911Z" fill="#EF4545"/>
<path d="M548.372 126.256C536.436 140.918 508.535 174.782 496.792 189.071C496.086 189.914 495.581 190.907 495.314 191.974C495.047 193.041 495.026 194.155 495.251 195.231C495.477 196.308 495.943 197.319 496.616 198.189C497.289 199.059 498.15 199.765 499.135 200.254C512.16 206.615 539.226 214.244 563.039 184.86C580.944 162.762 568.261 138.485 559.787 126.629C559.137 125.741 558.294 125.011 557.321 124.497C556.348 123.983 555.27 123.697 554.17 123.661C553.07 123.625 551.977 123.84 550.972 124.289C549.968 124.739 549.079 125.412 548.372 126.256Z" fill="#FF9292"/>
<path d="M545.731 142.203L509.699 183.666C508.99 184.43 508.494 185.367 508.259 186.383C508.025 187.399 508.06 188.459 508.362 189.457C508.663 190.455 509.221 191.357 509.979 192.072C510.737 192.788 511.669 193.292 512.683 193.535C523.127 195.894 540.181 196.984 551.924 183.666C563.666 170.347 560.055 153.684 556.131 143.725C555.71 142.761 555.051 141.92 554.215 141.282C553.379 140.643 552.394 140.228 551.354 140.075C550.313 139.923 549.251 140.038 548.267 140.41C547.284 140.783 546.411 141.399 545.731 142.203Z" fill="#EF4545"/>
<path d="M538.555 185.099C535.571 180.321 529.602 171.079 529.722 174.006C529.871 177.813 531.96 183.979 533.332 187.682C533.439 188.117 533.641 188.522 533.925 188.868C534.208 189.213 534.566 189.491 534.971 189.68C535.376 189.869 535.819 189.964 536.266 189.959C536.713 189.954 537.153 189.848 537.554 189.65C537.954 189.452 538.305 189.166 538.581 188.814C538.856 188.462 539.049 188.052 539.145 187.615C539.242 187.178 539.238 186.725 539.136 186.29C539.034 185.854 538.835 185.447 538.555 185.099Z" fill="#FF9292"/>
<path d="M553.684 159.343C548.134 160.209 537.271 162.105 540.032 163.151C543.598 164.494 550.088 164.972 554.027 165.151C554.47 165.227 554.924 165.201 555.355 165.077C555.787 164.952 556.185 164.731 556.519 164.431C556.854 164.131 557.116 163.76 557.287 163.344C557.458 162.929 557.533 162.48 557.507 162.031C557.48 161.582 557.353 161.146 557.134 160.753C556.915 160.361 556.611 160.023 556.244 159.764C555.876 159.506 555.455 159.334 555.012 159.261C554.569 159.188 554.115 159.216 553.684 159.343Z" fill="#FF9292"/>
<path d="M548.372 145.86C544.165 149.593 536.063 157.029 538.928 156.432C542.658 155.655 548.387 152.55 551.789 150.564C552.204 150.389 552.573 150.123 552.871 149.785C553.168 149.448 553.385 149.047 553.506 148.613C553.627 148.18 553.648 147.725 553.568 147.282C553.489 146.839 553.31 146.42 553.045 146.056C552.781 145.691 552.438 145.392 552.041 145.179C551.645 144.967 551.205 144.847 550.756 144.828C550.306 144.809 549.859 144.892 549.446 145.071C549.033 145.25 548.666 145.52 548.372 145.86Z" fill="#FF9292"/>
<path d="M549.402 175.827C544.717 172.721 535.466 166.764 536.779 169.377C538.48 172.796 542.941 177.544 545.731 180.336C546.002 180.698 546.352 180.994 546.754 181.201C547.156 181.408 547.599 181.521 548.051 181.532C548.503 181.542 548.952 181.45 549.363 181.262C549.774 181.073 550.137 180.794 550.424 180.444C550.711 180.095 550.916 179.685 551.021 179.245C551.127 178.806 551.132 178.348 551.035 177.906C550.938 177.464 550.742 177.05 550.461 176.695C550.181 176.34 549.824 176.053 549.417 175.857L549.402 175.827Z" fill="#FF9292"/>
<path d="M522.336 189.802C522.993 184.218 524.112 173.274 522.336 175.618C520.068 178.604 517.86 184.801 516.622 188.548C516.431 188.954 516.334 189.397 516.338 189.845C516.342 190.293 516.447 190.735 516.645 191.137C516.842 191.539 517.128 191.891 517.48 192.168C517.833 192.444 518.242 192.638 518.68 192.735C519.117 192.831 519.57 192.828 520.006 192.725C520.442 192.622 520.849 192.423 521.198 192.141C521.546 191.86 521.826 191.503 522.018 191.098C522.21 190.693 522.309 190.25 522.306 189.802H522.336Z" fill="#FF9292"/>
<path d="M365.403 259.052C366.715 258.594 367.903 257.837 368.873 256.84C369.842 255.843 370.566 254.633 370.987 253.308C371.409 251.982 371.516 250.576 371.3 249.202C371.084 247.828 370.552 246.523 369.744 245.39C359.434 230.594 335.651 196.312 325.893 182.262C325.124 181.129 324.106 180.188 322.917 179.51C321.728 178.832 320.399 178.436 319.033 178.353C317.667 178.269 316.3 178.5 315.038 179.027C313.775 179.555 312.65 180.365 311.748 181.396C305.297 188.42 300.846 197.046 298.857 206.376C297.471 213.626 297.886 221.107 300.066 228.16C302.094 234.638 305.158 240.744 309.137 246.241C325.311 269.22 351.332 264.129 365.403 259.052Z" fill="#EF4545"/>
<path d="M366.134 245.405C356.39 231.43 333.92 199.119 324.446 185.398C323.884 184.585 323.146 183.91 322.285 183.424C321.425 182.939 320.466 182.655 319.48 182.595C318.495 182.534 317.508 182.699 316.595 183.076C315.682 183.453 314.867 184.032 314.21 184.771C305.512 194.491 292.307 216.051 311.883 243.852C326.594 264.756 350.676 259.724 362.985 255.289C363.928 254.949 364.78 254.397 365.475 253.674C366.17 252.952 366.69 252.079 366.994 251.124C367.298 250.168 367.379 249.156 367.23 248.164C367.081 247.172 366.706 246.229 366.134 245.405Z" fill="#FF9292"/>
<path d="M352.914 239.269L325.893 197.91C325.401 197.109 324.707 196.451 323.882 196.003C323.056 195.554 322.128 195.33 321.188 195.353C320.249 195.375 319.332 195.644 318.53 196.132C317.727 196.62 317.066 197.31 316.613 198.134C312.032 206.585 306.899 221.097 315.553 234.535C324.207 247.973 339.426 248.899 349.05 247.973C350.001 247.856 350.906 247.494 351.676 246.924C352.446 246.353 353.055 245.592 353.444 244.716C353.833 243.839 353.989 242.877 353.896 241.922C353.803 240.968 353.465 240.053 352.914 239.269Z" fill="#EF4545"/>
<path d="M317.657 222.546C322.506 221.143 331.951 218.246 329.399 217.619C326.072 216.813 320.238 217.111 316.702 217.41C316.334 217.437 315.976 217.542 315.651 217.718C315.327 217.893 315.042 218.135 314.817 218.427C314.592 218.72 314.431 219.057 314.345 219.416C314.259 219.775 314.249 220.148 314.317 220.511C314.384 220.874 314.527 221.219 314.737 221.523C314.946 221.827 315.217 222.083 315.533 222.275C315.848 222.467 316.2 222.59 316.566 222.637C316.932 222.684 317.304 222.653 317.657 222.546Z" fill="#FF9292"/>
<path d="M336.218 241.956C336.815 236.939 337.829 227.025 336.218 229.205C334.174 231.952 332.175 237.462 331.07 240.821C330.957 241.17 330.917 241.538 330.954 241.903C330.991 242.268 331.104 242.62 331.285 242.939C331.467 243.257 331.713 243.534 332.008 243.752C332.302 243.97 332.639 244.123 332.997 244.203C333.355 244.282 333.725 244.286 334.084 244.214C334.443 244.141 334.783 243.995 335.082 243.783C335.381 243.572 335.633 243.3 335.821 242.985C336.009 242.671 336.129 242.32 336.173 241.956H336.218Z" fill="#FF9292"/>
<path d="M349.169 240.642C346.976 236.163 342.529 227.204 342.35 229.877C342.112 233.296 343.395 239.015 344.275 242.449C344.362 242.81 344.524 243.147 344.751 243.441C344.978 243.734 345.264 243.976 345.591 244.151C345.918 244.326 346.278 244.429 346.648 244.454C347.018 244.48 347.389 244.426 347.737 244.298C348.084 244.17 348.401 243.969 348.666 243.709C348.931 243.45 349.137 243.137 349.273 242.792C349.408 242.446 349.469 242.076 349.451 241.706C349.433 241.335 349.337 240.973 349.169 240.642Z" fill="#FF9292"/>
<path d="M323.073 234.207C326.908 230.922 334.308 224.368 331.727 224.86C328.37 225.502 323.178 228.19 320.074 229.922C319.749 230.098 319.465 230.341 319.241 230.635C319.016 230.929 318.856 231.266 318.771 231.626C318.686 231.986 318.678 232.36 318.747 232.723C318.816 233.086 318.961 233.431 319.172 233.734C319.383 234.037 319.656 234.293 319.973 234.484C320.289 234.674 320.643 234.796 321.009 234.84C321.376 234.885 321.748 234.852 322.101 234.743C322.454 234.633 322.78 234.451 323.058 234.207H323.073Z" fill="#FF9292"/>
<path d="M317.612 207.376C322.267 209.317 331.473 212.945 329.862 210.87C327.773 208.167 323.013 204.748 320.074 202.762C319.769 202.559 319.425 202.421 319.064 202.358C318.703 202.296 318.332 202.309 317.977 202.398C317.621 202.488 317.288 202.651 316.999 202.876C316.71 203.102 316.472 203.386 316.299 203.71C316.126 204.033 316.023 204.39 315.996 204.756C315.97 205.121 316.02 205.489 316.143 205.834C316.267 206.179 316.462 206.495 316.715 206.761C316.968 207.026 317.273 207.236 317.612 207.376Z" fill="#FF9292"/>
<path d="M615.514 69.2946C614.709 68.5597 613.745 68.0207 612.697 67.7195C611.649 67.4183 610.546 67.3632 609.473 67.5582C608.401 67.7532 607.387 68.1931 606.513 68.8439C605.638 69.4947 604.924 70.3387 604.429 71.3103C597.968 83.9419 582.973 113.117 576.826 125.062C576.335 126.016 576.067 127.068 576.041 128.141C576.016 129.214 576.234 130.278 576.679 131.254C577.125 132.23 577.786 133.092 578.612 133.776C579.439 134.459 580.409 134.946 581.451 135.2C588.702 137.092 596.328 137.005 603.533 134.946C609.08 133.203 614.115 130.127 618.2 125.987C621.941 122.185 625.044 117.803 627.391 113.012C637.358 93.3781 624.228 77.1782 615.514 69.2946Z" fill="#EF4545"/>
<path d="M605.772 73.8186C599.684 85.7634 585.51 113.296 579.541 124.912C579.185 125.602 578.99 126.363 578.971 127.139C578.951 127.915 579.109 128.685 579.431 129.391C579.753 130.098 580.231 130.721 580.829 131.215C581.427 131.709 582.13 132.061 582.884 132.243C592.836 134.692 612.725 135.917 624.661 112.057C633.733 94.1398 621.349 79.2087 613.739 72.3554C613.155 71.8381 612.46 71.4605 611.708 71.2512C610.957 71.042 610.167 71.0064 609.4 71.1474C608.632 71.2883 607.907 71.6021 607.278 72.0649C606.65 72.5277 606.134 73.1273 605.772 73.8186Z" fill="#FF9292"/>
<path d="M606.368 85.2856L587.673 119.298C587.3 119.935 587.101 120.657 587.094 121.395C587.087 122.132 587.273 122.859 587.634 123.502C587.994 124.145 588.517 124.682 589.149 125.061C589.782 125.439 590.502 125.645 591.239 125.659C598.789 125.659 610.755 123.942 616.872 112.968C622.99 101.993 618.006 91.049 613.888 84.7631C613.455 84.1381 612.867 83.6364 612.182 83.3073C611.497 82.9782 610.738 82.8329 609.98 82.8856C609.222 82.9383 608.49 83.1872 607.857 83.6079C607.224 84.0286 606.711 84.6068 606.368 85.2856Z" fill="#EF4545"/>
<path d="M607.816 115.909C605.055 113.057 599.55 107.578 600.057 109.578C601.156 112.745 602.661 115.757 604.533 118.537C604.688 118.786 604.893 118.999 605.136 119.163C605.378 119.326 605.653 119.437 605.941 119.487C606.23 119.537 606.526 119.525 606.809 119.452C607.093 119.379 607.358 119.248 607.587 119.065C607.816 118.883 608.003 118.654 608.138 118.393C608.272 118.133 608.349 117.847 608.365 117.555C608.381 117.262 608.335 116.97 608.23 116.697C608.125 116.423 607.964 116.175 607.756 115.969L607.816 115.909Z" fill="#FF9292"/>
<path d="M614.425 95.8568C610.725 97.3499 603.519 100.217 605.563 100.53C608.901 100.725 612.251 100.489 615.53 99.8284C615.819 99.7834 616.095 99.6775 616.341 99.5179C616.586 99.3582 616.795 99.1484 616.954 98.9022C617.112 98.6559 617.217 98.3788 617.261 98.0891C617.305 97.7994 617.287 97.5038 617.209 97.2215C617.13 96.9393 616.993 96.6768 616.806 96.4515C616.619 96.2261 616.386 96.0429 616.123 95.914C615.86 95.7851 615.573 95.7133 615.28 95.7035C614.988 95.6936 614.696 95.7458 614.425 95.8568Z" fill="#FF9292"/>
<path d="M608.726 87.3461C606.383 90.5562 601.892 96.9018 603.787 96.0657C606.697 94.4255 609.385 92.4183 611.784 90.0933C612.006 89.8999 612.184 89.6613 612.305 89.3934C612.427 89.1256 612.49 88.8349 612.49 88.5406C612.49 88.2464 612.427 87.9555 612.305 87.6876C612.184 87.4198 612.006 87.1812 611.784 86.9877C611.565 86.7983 611.309 86.6565 611.032 86.5715C610.755 86.4864 610.464 86.4599 610.176 86.4936C609.889 86.5273 609.611 86.6205 609.361 86.7672C609.112 86.914 608.895 87.1111 608.726 87.3461Z" fill="#FF9292"/>
<path d="M613.918 107.891C610.233 106.398 602.952 103.725 604.235 105.323C606.557 107.732 609.185 109.826 612.053 111.549C612.295 111.699 612.566 111.798 612.848 111.838C613.13 111.878 613.417 111.859 613.691 111.783C613.966 111.706 614.221 111.573 614.442 111.393C614.662 111.213 614.843 110.988 614.972 110.734C615.102 110.481 615.177 110.202 615.193 109.918C615.21 109.633 615.168 109.349 615.068 109.081C614.969 108.814 614.816 108.57 614.618 108.366C614.42 108.161 614.182 107.999 613.918 107.891Z" fill="#FF9292"/>
<path d="M597.311 121.538C596.924 117.596 596.058 109.862 595.208 111.743C594.122 114.909 593.445 118.2 593.193 121.538C593.158 121.829 593.185 122.125 593.273 122.405C593.36 122.685 593.506 122.944 593.701 123.163C593.895 123.383 594.134 123.559 594.402 123.679C594.669 123.8 594.959 123.862 595.252 123.862C595.546 123.862 595.836 123.8 596.103 123.679C596.371 123.559 596.61 123.383 596.804 123.163C596.999 122.944 597.145 122.685 597.232 122.405C597.32 122.125 597.347 121.829 597.311 121.538Z" fill="#FF9292"/>
<path d="M426.547 196.909L509.415 228.175L506.52 233.505C506.52 233.505 487.273 234.386 462.013 223.531C436.752 212.677 423.965 201.672 423.965 201.672L426.547 196.909Z" fill="#006937"/>
<path d="M426.547 196.909C428.039 200.702 460.088 216.603 476.814 221.545C484.155 223.725 501.761 228.249 509.415 228.175C508.206 225.935 493.719 213.751 474.397 205.45C458.521 198.626 438.632 194.968 426.547 196.909Z" fill="#A8D070"/>
<path d="M433.902 199.672C435.036 203.24 462.251 215.095 476.784 218.843C483.155 220.485 496.912 225.607 503.641 225.069C502.701 222.979 489.123 213.677 472.532 206.869C458.954 201.255 444.72 197.059 433.902 199.672Z" fill="#E4F6C4"/>
<path d="M459.222 204.927C459.222 204.927 438.229 198.955 437.916 200.896C437.603 202.837 455.164 206.226 459.222 204.927Z" fill="#A8D070"/>
<path d="M478.634 213.259C478.634 213.259 498.986 221.381 499.523 222.77C500.06 224.158 486.781 221.157 478.634 213.259Z" fill="#A8D070"/>
<path d="M463.758 207.406C463.758 207.406 454.045 207.301 455.462 209.332C456.88 211.363 461.834 209.302 463.758 207.406Z" fill="#A8D070"/>
<path d="M472.651 211.363C472.651 211.363 477.739 220.172 478.619 217.843C479.499 215.513 476.306 213.348 472.651 211.363Z" fill="#A8D070"/>
<path d="M468.339 209.018C468.339 209.018 463.43 209.019 462.953 210.945C462.475 212.871 470.204 215.319 470.89 214.603C471.577 213.886 468.339 209.018 468.339 209.018Z" fill="#A8D070"/>
<path d="M367.208 103.427L422.488 39.8359L426.278 44.1807C426.278 44.1807 420.698 61.6499 402.674 80.5973C384.65 99.5447 370.595 107.324 370.595 107.324L367.208 103.427Z" fill="#006937"/>
<path d="M367.208 103.427C371.102 103.307 395.855 80.0299 405.807 66.7413C410.164 60.9033 420.011 46.689 422.488 39.8656C420.086 40.209 404.434 49.1079 390.648 63.5909C379.308 75.4759 369.476 92.0195 367.208 103.427Z" fill="#A8D070"/>
<path d="M372.117 97.7978C375.668 97.962 395.243 77.5813 403.45 65.8754C407.016 60.7242 416.147 50.1382 417.908 43.912C415.729 44.0464 402.987 53.1094 391.379 65.6514C381.8 75.9687 373.355 87.2864 372.117 97.7978Z" fill="#E4F6C4"/>
<path d="M385.172 76.9393C385.172 76.9393 372.937 93.7067 374.534 94.6175C376.13 95.5283 384.978 80.9856 385.172 76.9393Z" fill="#A8D070"/>
<path d="M399.003 62.3667C399.003 62.3667 412.984 46.8982 414.386 46.9132C415.789 46.9281 408.761 57.7231 399.003 62.3667Z" fill="#A8D070"/>
<path d="M388.872 73.6992C388.872 73.6992 385.575 82.3293 387.858 81.747C390.141 81.1647 389.947 76.0135 388.872 73.6992Z" fill="#A8D070"/>
<path d="M395.348 67.0849C395.348 67.0849 404.882 65.4423 403.077 63.9343C401.271 62.4263 398.317 64.4869 395.348 67.0849Z" fill="#A8D070"/>
<path d="M391.827 70.1605C391.827 70.1605 390.23 74.5353 391.827 75.5954C393.423 76.6555 398.123 70.5785 397.705 69.7274C397.288 68.8764 391.827 70.1605 391.827 70.1605Z" fill="#A8D070"/>
<path d="M376.697 149.623C378.652 162.12 388.634 172.691 400.57 176.588C412.507 180.485 426.218 178.081 436.931 171.348C442.556 167.824 447.629 162.941 449.897 156.685C453.598 146.458 448.927 134.737 441.333 126.958C430.889 116.297 412.178 110.041 397.422 114.162C383.949 117.939 374.638 136.514 376.697 149.623Z" fill="#006937"/>
<path d="M379.099 149.369C380.92 161.06 390.23 170.945 401.48 174.573C412.73 178.201 425.472 175.961 435.499 169.675C440.751 166.391 445.496 161.822 447.614 155.969C451.091 146.413 446.719 135.439 439.602 128.167C429.859 118.193 412.342 112.355 398.541 116.222C385.888 119.746 377.175 137.111 379.099 149.369Z" fill="#A8D070"/>
<path d="M386.784 148.548C388.276 157.641 395.452 165.345 404.211 168.182C408.641 169.485 413.299 169.818 417.869 169.159C422.439 168.499 426.813 166.862 430.695 164.36C434.93 161.948 438.246 158.199 440.124 153.699C442.84 146.234 439.423 137.708 433.888 132.049C426.308 124.285 412.671 119.731 401.928 122.732C392.065 125.48 385.292 139.037 386.784 148.548Z" fill="#E4F6C4"/>
<path d="M411.746 152.132C411.746 152.132 403.017 166.54 410 166.973C416.983 167.406 411.746 152.132 411.746 152.132Z" fill="#A8D070"/>
<path d="M417.878 150.698C417.878 150.698 419.37 166.391 426.457 163.554C433.544 160.717 417.878 150.698 417.878 150.698Z" fill="#A8D070"/>
<path d="M420.056 144.845C420.056 144.845 435.409 137.648 437.752 145.666C440.094 153.684 420.056 144.845 420.056 144.845Z" fill="#A8D070"/>
<path d="M417.072 141.874C417.072 141.874 428.919 132.915 425.308 129.795C421.698 126.674 417.072 141.874 417.072 141.874Z" fill="#A8D070"/>
<path d="M412.894 141.874C412.894 141.874 414.715 125.838 410.462 126.017C406.21 126.197 412.894 141.874 412.894 141.874Z" fill="#A8D070"/>
<path d="M407.284 143.203C407.284 143.203 398.645 127.212 395.035 130.825C391.424 134.438 407.284 143.203 407.284 143.203Z" fill="#A8D070"/>
<path d="M406.195 146.906C406.195 146.906 391.066 142.173 391.856 148.011C392.647 153.849 406.195 146.906 406.195 146.906Z" fill="#A8D070"/>
<path d="M407.284 150.698C407.284 150.698 392.289 154.58 396.064 158.522C399.839 162.464 407.284 150.698 407.284 150.698Z" fill="#A8D070"/>
<path d="M473.77 65.0391C484.781 64.2777 494.659 56.3941 499.015 46.2112C503.372 36.0283 502.223 23.994 497.18 14.1545C494.539 8.9884 490.675 4.21044 485.408 1.77669C476.784 -2.22481 466.25 0.970417 458.909 7.00252C448.853 15.2743 442.019 31.116 444.496 44.3299C446.689 56.3493 462.147 65.8753 473.77 65.0391Z" fill="#006937"/>
<path d="M473.651 62.8891C483.961 62.1724 493.256 54.8114 497.255 45.2855C501.253 35.7595 500.239 24.5016 495.554 15.3042C493.077 10.4815 489.451 6.00217 484.542 3.71773C476.485 -0.015005 466.638 2.97123 459.76 8.61513C450.36 16.3643 443.959 31.1758 446.331 43.4789C448.405 54.7965 462.848 63.6805 473.651 62.8891Z" fill="#A8D070"/>
<path d="M473.516 56.1702C477.531 55.7561 481.358 54.2636 484.594 51.8507C487.83 49.4378 490.354 46.1943 491.898 42.4635C493.362 38.7032 494.001 34.672 493.772 30.643C493.543 26.614 492.451 22.6815 490.57 19.1116C488.767 15.2665 485.753 12.1195 481.991 10.153C475.71 7.16685 468.041 9.57063 462.699 13.9603C455.373 19.9327 450.405 31.5192 452.255 41.1049C453.851 49.8395 465.101 56.7525 473.516 56.1702Z" fill="#E4F6C4"/>
<path d="M478.515 34.6995C478.515 34.6995 490.451 43.3894 491.287 37.3423C492.122 31.2953 478.515 34.6995 478.515 34.6995Z" fill="#A8D070"/>
<path d="M477.724 29.2647C477.724 29.2647 491.481 29.0855 489.541 22.7399C487.601 16.3942 477.724 29.2647 477.724 29.2647Z" fill="#A8D070"/>
<path d="M472.8 26.8757C472.8 26.8757 467.682 12.975 474.829 11.5416C481.976 10.1082 472.8 26.8757 472.8 26.8757Z" fill="#A8D070"/>
<path d="M469.98 29.3393C469.98 29.3393 463.057 18.3501 460.088 21.2616C457.119 24.1731 469.98 29.3393 469.98 29.3393Z" fill="#A8D070"/>
<path d="M469.667 32.9376C469.667 32.9376 455.865 30.1457 455.701 33.8635C455.537 37.5813 469.667 32.9376 469.667 32.9376Z" fill="#A8D070"/>
<path d="M470.398 37.9097C470.398 37.9097 455.865 44.2405 458.73 47.6597C461.595 51.0789 470.398 37.9097 470.398 37.9097Z" fill="#A8D070"/>
<path d="M473.546 39.1489C473.546 39.1489 468.294 51.9598 473.427 51.7209C478.559 51.482 473.546 39.1489 473.546 39.1489Z" fill="#A8D070"/>
<path d="M476.933 38.4771C476.933 38.4771 479.186 51.8253 482.901 48.8391C486.616 45.8529 476.933 38.4771 476.933 38.4771Z" fill="#A8D070"/>
<path d="M426.024 228.205C429.717 228.193 433.4 228.588 437.006 229.384C446.361 231.49 455.194 239.269 455.164 248.795C455.164 253.408 453.135 257.753 450.778 261.74C445.553 270.874 438.053 278.497 429.009 283.867C421.813 288.006 413.673 290.217 405.374 290.288C403.186 290.29 401.001 290.12 398.839 289.78C394.254 289.185 389.893 287.444 386.157 284.718C377.1 277.626 375.787 263.606 380.83 253.259C388.678 237.163 408.06 228.235 426.084 228.235M426.084 223.949C408.299 223.949 386.217 232.43 376.981 251.378C370.61 264.427 373.43 280.209 383.516 288.093C387.809 291.305 392.854 293.361 398.168 294.065C400.552 294.442 402.961 294.632 405.374 294.633C414.418 294.571 423.291 292.163 431.127 287.645C440.827 281.943 448.887 273.826 454.522 264.084C456.82 260.202 459.476 254.961 459.506 248.959C459.457 246.041 458.833 243.162 457.668 240.486C456.502 237.811 454.82 235.393 452.717 233.371C448.675 229.338 443.574 226.533 438.006 225.278C434.086 224.412 430.083 223.982 426.069 223.994L426.084 223.949Z" fill="#820032"/>
<path d="M405.36 292.408C403.051 292.409 400.747 292.229 398.466 291.87C393.517 291.233 388.813 289.342 384.799 286.376C374.191 278.074 373.818 262.621 378.831 252.288C389.186 231.056 417.326 222.785 437.453 227.294C447.107 229.459 457.342 237.746 457.283 248.869C457.283 254.364 454.776 259.321 452.598 262.919C447.154 272.339 439.367 280.189 429.993 285.704C422.497 290.027 414.011 292.336 405.36 292.408ZM426.024 230.37C409.269 230.37 390.424 238.268 382.665 254.17C378.309 263.128 378.876 276.342 387.395 282.986C390.836 285.508 394.862 287.111 399.093 287.645C409.047 289.051 419.183 287.052 427.86 281.971C436.593 276.832 443.843 269.511 448.898 260.724C450.792 257.544 452.971 253.259 452.986 248.78C452.986 239.911 444.526 233.207 436.573 231.415C433.106 230.677 429.568 230.326 426.024 230.37Z" fill="#E9D5DE"/>
<path d="M576.721 33.3109C578.122 35.6666 579.258 38.1704 580.108 40.7764C582.302 47.555 580.69 56.1404 574.543 59.7388C571.478 61.2995 568.055 62.0208 564.621 61.8292C556.829 61.9104 549.15 59.9711 542.33 56.2002C536.96 53.1742 532.467 48.8066 529.289 43.5238C528.46 42.1288 527.742 40.671 527.141 39.1639C525.813 35.9967 525.3 32.5471 525.648 29.1303C526.753 20.6645 535.198 14.5279 543.702 13.841C556.952 12.7809 569.962 21.7992 576.781 33.2513M579.511 31.6386C572.797 20.2762 559.041 9.36171 543.449 10.6159C532.721 11.4819 523.709 19.231 522.56 28.6674C522.137 32.6203 522.738 36.6157 524.306 40.2688C524.969 41.9359 525.763 43.5484 526.678 45.0914C530.135 50.8456 535.024 55.6042 540.867 58.9026C548.169 62.9492 556.394 65.0328 564.74 64.9497C568.741 65.1567 572.724 64.2852 576.274 62.4263C578.115 61.2914 579.714 59.8037 580.979 58.0485C582.244 56.2933 583.15 54.3052 583.644 52.1986C584.697 48.0899 584.563 43.7664 583.256 39.7313C582.326 36.9075 581.09 34.1939 579.571 31.6386H579.511Z" fill="#820032"/>
<path d="M527.946 44.3597C527.069 42.8848 526.31 41.342 525.678 39.7461C524.218 36.342 523.648 32.6217 524.022 28.9361C525.305 19.022 535.033 12.945 543.538 12.2582C561.01 10.8547 576.915 25.6961 581.645 40.2836C583.898 47.2713 582.481 56.9466 575.364 61.187C572.055 62.8953 568.353 63.694 564.636 63.5013C556.567 63.5842 548.614 61.5727 541.554 57.6633C535.945 54.4802 531.257 49.8966 527.946 44.3597ZM575.364 34.147C569.037 23.4415 556.877 14.3784 543.792 15.4385C536.436 16.0208 528.215 21.4109 527.185 29.3393C526.889 32.492 527.403 35.6681 528.677 38.5665C531.541 45.4632 536.645 51.1918 543.165 54.8264C549.75 58.4574 557.163 60.3196 564.68 60.2314C567.806 60.4239 570.928 59.796 573.737 58.4098C579.422 55.0802 580.481 47.1221 578.601 41.3139C577.786 38.814 576.701 36.4107 575.364 34.147Z" fill="#E9D5DE"/>
<path d="M562.174 285.151C562.174 289.108 561.965 293.02 561.592 296.887C560.88 303.756 559.552 310.548 557.623 317.178C557.459 317.746 557.295 318.298 557.116 318.865C556.235 321.762 555.221 324.629 554.132 327.436L553.595 328.765C551.938 332.8 550.044 336.733 547.925 340.545C546.313 343.531 544.583 346.309 542.703 349.056C539.979 353.113 536.988 356.984 533.75 360.642C532.795 361.762 531.796 362.852 530.766 363.927C530.08 364.674 529.364 365.42 528.633 366.137C518.009 376.773 505.395 385.209 491.511 390.963C477.627 396.717 462.746 399.677 447.719 399.672H406.195C389.892 399.681 373.776 396.203 358.926 389.472C344.075 382.741 330.834 372.912 320.089 360.642C316.867 356.97 313.877 353.1 311.137 349.056C309.272 346.309 307.541 343.457 305.93 340.545C303.822 336.727 301.929 332.794 300.26 328.765L299.723 327.436C298.609 324.609 297.614 321.752 296.738 318.865C296.559 318.298 296.395 317.746 296.231 317.178C294.295 310.549 292.967 303.757 292.262 296.887C291.889 293.02 291.68 289.108 291.68 285.151H562.174Z" fill="#F48D1C"/>
<g style="mix-blend-mode:soft-light">
<path d="M561.592 296.887C560.88 303.756 559.552 310.548 557.623 317.178H296.306C294.37 310.549 293.042 303.757 292.337 296.887H561.592Z" fill="white"/>
</g>
<g style="mix-blend-mode:soft-light">
<path d="M553.565 328.765C551.908 332.8 550.015 336.733 547.895 340.545C546.283 343.531 544.553 346.309 542.673 349.056H311.226C309.361 346.309 307.63 343.457 306.019 340.545C303.911 336.727 302.018 332.794 300.349 328.765H553.565Z" fill="white"/>
</g>
<g style="mix-blend-mode:soft-light">
<path d="M533.765 360.642C532.81 361.762 531.811 362.852 530.781 363.927C530.095 364.674 529.379 365.42 528.648 366.137C523.113 371.675 517.023 376.628 510.474 380.919H343.454C334.787 375.247 326.927 368.426 320.089 360.642H533.765Z" fill="white"/>
</g>
<path opacity="0.25" d="M530.781 363.927C530.095 364.674 529.379 365.42 528.647 366.137C518.034 376.786 505.421 385.231 491.535 390.986C477.649 396.741 462.763 399.693 447.734 399.672H406.195C375.844 399.672 346.735 387.606 325.274 366.13C303.812 344.653 291.755 315.524 291.755 285.151H336.516C339.887 298.425 346.56 310.629 355.913 320.627C379.174 344.875 411.507 362.957 445.048 364.823C472.651 366.346 496.807 363.136 530.781 363.927Z" fill="#D87512"/>
<path d="M481.021 411.064H372.908C370.876 411.064 368.928 410.258 367.49 408.822C366.052 407.386 365.242 405.437 365.238 403.405C365.238 401.369 366.046 399.417 367.485 397.978C368.923 396.539 370.874 395.73 372.908 395.73H481.021C482.028 395.73 483.024 395.929 483.954 396.314C484.884 396.7 485.728 397.266 486.439 397.979C487.15 398.692 487.713 399.538 488.097 400.469C488.481 401.4 488.677 402.398 488.675 403.405C488.675 405.436 487.869 407.384 486.434 408.821C484.998 410.257 483.051 411.064 481.021 411.064Z" fill="#D87512"/>
<path d="M323.446 54.1546C324.252 52.5869 326.803 52.0344 327.743 53.5125C325.624 48.6152 323.446 43.4342 323.968 38.1188C324.207 35.7597 325.251 33.1616 327.504 32.43C328.439 32.2062 329.419 32.2562 330.326 32.5738C331.234 32.8915 332.031 33.4636 332.622 34.2219C333.78 35.7674 334.529 37.5801 334.801 39.4923C335.352 42.3337 335.547 45.2328 335.382 48.1225C335.467 46.7457 335.99 45.4322 336.875 44.3748C337.111 44.1413 337.396 43.9615 337.708 43.8479C338.021 43.7342 338.354 43.6894 338.685 43.7163C339.017 43.7432 339.338 43.8413 339.628 44.0039C339.918 44.1665 340.17 44.3899 340.366 44.6586C343.26 49.4066 339.486 64.6212 333.875 66.0546C328.594 67.3685 321.253 59.1565 323.446 54.1546Z" fill="#006937"/>
<path d="M398.69 271.146C399.347 269.877 401.421 269.414 402.182 270.624C400.451 266.637 398.69 262.427 399.108 258.112C399.302 256.2 400.152 254.08 401.988 253.498C402.751 253.315 403.552 253.359 404.291 253.624C405.03 253.89 405.676 254.364 406.15 254.991C407.088 256.248 407.694 257.722 407.911 259.276C408.361 261.581 408.521 263.934 408.388 266.279C408.469 265.181 408.892 264.137 409.597 263.293C409.79 263.104 410.021 262.959 410.275 262.867C410.529 262.776 410.8 262.74 411.069 262.763C411.338 262.786 411.599 262.866 411.834 262.999C412.069 263.131 412.273 263.313 412.432 263.531C414.789 267.384 411.716 279.747 407.15 280.911C402.868 281.911 396.9 275.207 398.69 271.146Z" fill="#006937"/>
<path d="M548.85 38.9997C550.163 38.4324 552.058 39.3879 551.834 40.8063C553.013 36.6257 554.296 32.266 557.355 29.1752C558.712 27.8165 560.697 26.7116 562.487 27.4133C563.196 27.7487 563.791 28.2829 564.202 28.9509C564.612 29.6189 564.82 30.392 564.8 31.1759C564.748 32.7582 564.291 34.3006 563.472 35.6552C562.364 37.7336 561.001 39.6648 559.414 41.4036C560.166 40.5773 561.166 40.0169 562.263 39.8061C562.533 39.7799 562.804 39.8121 563.06 39.9007C563.315 39.9892 563.549 40.1319 563.744 40.319C563.94 40.5061 564.093 40.7332 564.192 40.9848C564.292 41.2364 564.336 41.5066 564.322 41.7769C563.711 46.2562 553.535 53.9009 549.253 51.9151C545.299 50.0487 544.911 41.0901 548.85 38.9997Z" fill="#006937"/>
<path d="M290.009 179.351C288.652 178.559 286.458 179.351 286.473 180.933C285.712 176.23 284.862 171.288 281.908 167.496C280.609 165.838 278.565 164.39 276.536 164.912C275.727 165.194 275.015 165.703 274.486 166.378C273.957 167.053 273.633 167.866 273.552 168.72C273.425 170.441 273.733 172.166 274.447 173.737C275.386 176.141 276.629 178.414 278.148 180.5C277.404 179.497 276.358 178.759 275.163 178.395C274.873 178.335 274.573 178.337 274.283 178.403C273.994 178.468 273.722 178.595 273.486 178.775C273.25 178.955 273.055 179.183 272.914 179.445C272.774 179.706 272.691 179.995 272.672 180.291C272.776 185.263 282.907 194.879 287.831 193.266C292.501 191.803 294.053 182.068 290.009 179.351Z" fill="#006937"/>
<path d="M626.332 182.665C624.427 184.262 622.189 185.41 619.782 186.025C614.808 187.667 609.73 189.081 604.548 190.265C606.305 190.167 608.064 190.416 609.725 190.997C612.217 192.072 614.202 195.177 611.038 197.955C610.176 198.682 609.153 199.194 608.054 199.448C599.235 201.682 590.256 203.224 581.197 204.061C580.392 204.15 579.579 203.972 578.885 203.554C578.765 203.488 578.65 203.413 578.542 203.33C577.876 202.823 577.398 202.108 577.184 201.299C577.049 200.694 577.049 200.067 577.184 199.463C578.825 191.131 582.033 178.559 586.3 173.468C586.827 172.7 587.602 172.136 588.494 171.87C590.254 171.572 591.582 173.558 591.851 175.334C592.119 177.111 591.851 179.037 592.85 180.575C594.27 176.479 596.412 172.671 599.177 169.332C600.922 167.227 603.175 165.181 605.906 165.032C608.636 164.883 611.516 167.705 610.382 170.228C612.517 166.615 615.472 163.555 619.007 161.295C622.542 159.036 626.56 157.641 630.733 157.223C631.904 157.078 633.086 157.365 634.061 158.029C635.941 159.403 635.553 161.523 634.762 163.255C633.606 166.034 631.892 168.545 629.726 170.634C627.559 172.722 624.987 174.342 622.169 175.394C623.09 175.156 624.064 175.228 624.941 175.598C625.817 175.967 626.548 176.615 627.021 177.441C627.494 178.267 627.683 179.226 627.558 180.17C627.434 181.114 627.003 181.99 626.332 182.665Z" fill="#820032"/>
<path d="M627.451 169.855L624.034 169.675H622.408C622.058 169.668 621.709 169.638 621.363 169.586C619.946 170.676 618.513 171.751 617.081 172.811C613.441 175.513 609.77 178.186 606.1 180.889C609.621 181.023 613.172 180.411 616.708 180.455C617.025 180.489 617.316 180.646 617.519 180.891C617.723 181.136 617.822 181.452 617.797 181.769C617.756 182.086 617.596 182.375 617.349 182.578C617.102 182.78 616.788 182.881 616.469 182.859C611.993 182.859 607.607 183.74 603.205 183.009C598.595 186.428 594.029 189.892 589.598 193.46C591.955 193.789 594.357 193.819 596.715 194.087C597.025 194.132 597.305 194.294 597.498 194.541C597.69 194.788 597.779 195.1 597.746 195.412C597.714 195.723 597.561 196.01 597.321 196.211C597.082 196.413 596.773 196.513 596.461 196.491C593.372 196.133 590.254 196.088 587.21 195.461C584.226 197.999 581.307 200.637 578.452 203.374C577.786 202.868 577.309 202.153 577.094 201.344C579.84 198.686 582.675 196.163 585.584 193.699C585.984 190.569 586.213 187.419 586.27 184.263C586.286 184.106 586.332 183.954 586.407 183.815C586.481 183.676 586.582 183.553 586.704 183.453C586.826 183.354 586.967 183.279 587.117 183.233C587.268 183.188 587.427 183.172 587.583 183.188C587.74 183.203 587.892 183.25 588.031 183.324C588.17 183.399 588.293 183.5 588.392 183.622C588.492 183.744 588.567 183.885 588.612 184.036C588.658 184.187 588.673 184.345 588.658 184.502C588.464 186.801 588.523 189.145 588.329 191.445C592.582 187.981 596.924 184.651 601.31 181.381C601.31 181.381 601.31 181.277 601.31 181.217C602.325 177.932 603.145 174.573 604.145 171.273C604.608 169.78 606.861 170.646 606.398 172.124C605.697 174.423 605.085 176.753 604.444 179.067C609.576 175.275 614.739 171.512 619.812 167.66C619.874 167.09 619.979 166.526 620.125 165.973C620.334 164.883 620.558 163.793 620.781 162.703C620.797 162.546 620.843 162.393 620.918 162.255C620.992 162.116 621.093 161.993 621.215 161.893C621.337 161.793 621.478 161.718 621.629 161.673C621.779 161.627 621.938 161.612 622.094 161.628C622.251 161.643 622.403 161.69 622.542 161.764C622.681 161.839 622.804 161.94 622.903 162.062C623.003 162.184 623.078 162.324 623.124 162.475C623.169 162.626 623.184 162.785 623.169 162.942C623.005 163.778 622.84 164.629 622.661 165.465C624.153 164.33 625.645 163.165 627.137 162.001C628.331 161.015 629.838 162.912 628.63 163.882C627.137 165.047 625.645 166.196 624.153 167.346L627.6 167.51C627.916 167.544 628.205 167.701 628.406 167.947C628.607 168.193 628.704 168.508 628.674 168.824C628.625 169.113 628.475 169.375 628.251 169.563C628.027 169.752 627.744 169.855 627.451 169.855Z" fill="#A01F53"/>
<path d="M389.604 188.429C389.604 188.429 389.604 188.429 389.604 188.503C389.871 190.731 389.641 192.99 388.932 195.118C387.724 199.717 386.306 204.27 384.68 208.75C385.462 207.366 386.512 206.153 387.768 205.181C389.798 203.823 393.11 203.867 393.737 207.6C393.871 208.607 393.758 209.632 393.408 210.586C390.777 218.399 387.534 225.993 383.71 233.296C383.376 233.934 382.856 234.455 382.218 234.789L381.89 234.939C381.176 235.193 380.396 235.193 379.681 234.939C379.149 234.762 378.664 234.465 378.264 234.073C372.758 228.742 364.836 220.127 363.045 214.408C362.711 213.634 362.664 212.766 362.911 211.96C363.552 210.467 365.701 210.467 367.178 211.109C368.655 211.751 370.013 212.886 371.654 212.915C369.243 209.836 367.409 206.346 366.238 202.613C365.492 200.254 365.044 197.537 366.238 195.401C367.432 193.266 370.998 192.415 372.385 194.491C370.699 191.101 369.832 187.362 369.856 183.575C369.879 179.788 370.792 176.06 372.52 172.691C372.986 171.731 373.779 170.968 374.758 170.541C376.727 169.795 378.1 171.183 379.07 172.572C380.603 174.818 381.658 177.355 382.172 180.026C382.685 182.697 382.645 185.445 382.054 188.1C382.32 187.286 382.846 186.582 383.55 186.094C384.254 185.607 385.098 185.363 385.953 185.4C386.808 185.437 387.628 185.754 388.287 186.3C388.946 186.847 389.409 187.594 389.604 188.429Z" fill="#820032"/>
<path d="M380.457 181.307C379.846 182.128 379.249 182.964 378.637 183.8L377.787 185.01C377.593 185.263 377.414 185.517 377.205 185.741C377.339 187.354 377.443 188.966 377.563 190.579C377.816 194.67 378.04 198.776 378.279 202.867C380.114 200.254 381.397 197.268 383.158 194.61C383.338 194.397 383.592 194.261 383.869 194.227C384.146 194.194 384.425 194.267 384.65 194.431C384.86 194.613 384.994 194.867 385.027 195.143C385.06 195.419 384.99 195.697 384.829 195.924C382.621 199.254 381.159 203.076 378.443 206.062C378.771 211.228 379.159 216.394 379.741 221.546C381.144 219.918 382.352 218.111 383.71 216.454C383.896 216.249 384.15 216.12 384.425 216.089C384.7 216.059 384.976 216.13 385.202 216.29C385.409 216.474 385.541 216.729 385.571 217.005C385.602 217.281 385.529 217.558 385.366 217.783C383.576 219.948 382.009 222.262 380.04 224.308C380.502 227.831 381.054 231.355 381.755 234.759C381.041 235.013 380.261 235.013 379.547 234.759C378.876 231.385 378.354 227.996 377.921 224.577C377.912 224.553 377.912 224.526 377.921 224.502C375.742 222.668 373.466 220.954 371.102 219.366C370.889 219.185 370.753 218.93 370.722 218.652C370.692 218.374 370.769 218.095 370.938 217.873C371.12 217.662 371.375 217.528 371.652 217.498C371.929 217.467 372.207 217.542 372.43 217.708C374.071 218.977 375.892 220.082 377.533 221.351C376.996 216.439 376.593 211.512 376.28 206.57L376.145 206.48C374.161 204.091 372.012 201.822 370.013 199.448C369.103 198.373 370.864 197.089 371.759 198.149C373.146 199.806 374.623 201.419 376.056 203.046C375.713 197.298 375.384 191.534 374.952 185.786C374.551 185.463 374.176 185.109 373.833 184.726L371.669 182.62C371.457 182.44 371.32 182.186 371.287 181.909C371.253 181.632 371.326 181.353 371.49 181.127C371.672 180.917 371.926 180.783 372.202 180.75C372.477 180.717 372.756 180.787 372.982 180.948L374.653 182.576C374.504 180.889 374.355 179.201 374.191 177.529C374.163 177.244 374.25 176.959 374.432 176.738C374.613 176.517 374.876 176.377 375.161 176.349C375.446 176.322 375.73 176.408 375.951 176.59C376.172 176.772 376.312 177.035 376.339 177.32C376.518 178.992 376.668 180.68 376.802 182.352L378.622 179.814C378.804 179.603 379.059 179.469 379.336 179.439C379.613 179.408 379.891 179.483 380.114 179.649C380.252 179.729 380.372 179.838 380.466 179.967C380.559 180.097 380.624 180.245 380.656 180.401C380.689 180.557 380.688 180.719 380.654 180.875C380.619 181.031 380.552 181.178 380.457 181.307Z" fill="#A01F53"/>
<path d="M125.601 439.015C194.968 439.015 251.201 433.587 251.201 426.891C251.201 420.195 194.968 414.767 125.601 414.767C56.2333 414.767 0 420.195 0 426.891C0 433.587 56.2333 439.015 125.601 439.015Z" fill="#9D9D9C"/>
<path d="M127.167 390.564C127.167 401.762 120.393 410.407 113.067 418.246C104.249 427.697 91.2686 430.474 76.7659 430.474C63.5612 430.474 50.834 427.488 42.1354 419.456C33.4368 411.423 26.9016 399.06 26.9016 386.607C26.9016 370.019 33.7501 354.327 48.1782 346.622C55.2207 342.86 63.979 348.384 72.4986 346.622C91.935 342.641 106.01 344.676 114.724 352.729C123.422 360.866 127.167 378.216 127.167 390.564Z" fill="#D82F27"/>
<path d="M109.979 382.038C109.979 390.698 104.742 397.372 99.087 403.434C92.2683 410.736 82.2268 412.886 71.0216 412.886C60.8309 412.886 50.9834 410.571 44.2691 404.375C37.5549 398.179 32.4819 388.608 32.4819 378.992C32.4819 366.167 37.7787 354.043 48.8945 348.085C54.3255 345.189 61.0994 349.444 67.6943 348.085C82.7043 345 93.5764 346.577 100.31 352.819C107.084 359.09 109.979 372.497 109.979 382.038Z" fill="#E83627"/>
<path d="M59.1447 353.744C59.1447 353.744 47.2083 345.846 39.6735 361.553C31.512 378.455 34.5259 388.339 40.136 393.252C40.136 393.252 47.1934 396.238 47.5962 389.414C47.9991 382.591 42.1205 376.469 46.3131 370.004C50.5058 363.539 55.2654 369.034 59.7415 366.406C64.2177 363.778 64.9487 358.686 59.1447 353.744Z" fill="#F1663B"/>
<path d="M67.0526 345.756C67.0526 345.756 49.2524 332.751 35.3615 338.784C21.4705 344.816 43.3439 333.782 62.6958 350.564C67.709 354.894 54.0419 348.384 44.4629 355.193C37.2563 360.299 37.1221 370.213 39.0319 372.602C40.9417 374.991 39.1363 360.657 50.6848 358.373C50.6848 358.373 66.411 356.88 70.6036 357.835C72.8119 358.313 87.9263 362.643 82.9429 383.218C81.5254 389.071 96.9532 366.794 86.1359 359.433C84.5245 358.328 85.7629 355.894 85.7629 355.894C85.7629 355.894 97.371 354.745 103.056 357.761C106.428 359.537 111.799 365.122 112.769 368.586C113.619 371.676 113.157 352.774 91.8802 348.608C74.1099 345.129 101.787 338.38 110.247 341.367C118.707 344.353 91.6564 332.094 80.4064 342.158C71.7674 349.818 68.9773 346.697 67.0526 345.756Z" fill="#78B639"/>
<path d="M71.9763 348.787C71.9763 348.787 67.0973 346.995 62.9046 345.368C58.712 343.74 70.9915 351.49 66.769 352.326C62.5465 353.162 56.5933 354.536 55.2206 355.491C53.8479 356.447 68.1865 354.521 75.4975 357.716C79.9808 359.088 83.9811 361.708 87.031 365.271C88.5231 366.869 86.2552 360.284 82.719 356.103C80.1229 353.013 90.1793 353.535 94.4017 353.953C98.6242 354.371 88.8961 351.236 85.539 347.891C82.1819 344.547 83.9276 343.412 85.3599 342.86C86.7923 342.307 81.3463 341.531 79.3917 345.428C77.4372 349.325 75.1693 348.817 71.9763 348.787Z" fill="#518D23"/>
<path d="M76.1093 352.863C69.2757 353.684 71.6332 346.891 71.7227 344.129C71.8271 340.575 70.723 336.872 70.0217 333.334H70.1112C71.1706 334.185 74.3785 334.006 75.8407 333.334C76.6912 336.723 77.3328 340.53 78.0639 343.95C78.5115 346.129 80.4064 352.341 76.1093 352.863Z" fill="#7EB341"/>
<path d="M75.8408 333.334C75.8408 333.692 74.5428 333.99 72.9314 333.99C71.3199 333.99 69.9473 333.692 69.9473 333.334C69.9473 332.975 71.2603 332.662 72.9314 332.662C74.6025 332.662 75.8408 332.96 75.8408 333.334Z" fill="#549606"/>
<path d="M136.463 397.477C136.463 397.477 149.637 384.039 153.039 383.128C156.441 382.218 154.904 381.546 156.978 379.665C159.052 377.783 160.156 378.619 162.35 377.096C164.543 375.573 163.678 373.647 164.961 371.885C166.244 370.124 165.185 365.913 162.857 367.182C160.529 368.451 161.275 369.362 158.545 371.662C155.815 373.961 155.68 372.05 152.89 374.11C150.1 376.171 152.89 377.186 151.532 378.589C150.175 379.993 136.985 395.76 135.747 396.417C134.508 397.074 136.463 397.477 136.463 397.477Z" fill="#33691E"/>
<path d="M134.866 398.836C134.866 398.836 149.444 389.743 152.472 390.609C155.501 391.475 157.366 390.131 160.276 389.28C163.185 388.429 166.707 391.146 168.034 389.787C169.362 388.429 170.75 387.279 172.645 388.638C174.54 389.997 179.583 388.951 178.718 386.04C177.852 383.128 182.88 381.844 179.464 380.187C176.047 378.53 171.466 381.68 169.512 381.277C167.557 380.874 167.05 379.784 164.782 380.008C162.514 380.232 162.514 381.919 159.082 381.635C155.65 381.351 153.756 385.204 150.637 386.458C147.519 387.712 134.075 397.895 134.075 397.895L134.866 398.836Z" fill="#33691E"/>
<path d="M137.298 394.64C137.298 394.64 144.535 380.53 143.52 377.798C142.506 375.066 143.52 373.319 144.147 370.512C144.773 367.705 141.939 364.733 143.087 363.405C144.236 362.076 145.191 360.717 143.789 359.075C142.386 357.432 142.968 352.729 145.714 353.296C148.459 353.864 149.25 349.145 151.055 352.176C152.86 355.207 150.294 359.642 150.801 361.404C151.309 363.166 152.428 363.554 152.293 365.659C152.159 367.764 150.712 367.899 151.234 371.034C151.756 374.17 148.354 376.215 147.444 379.172C146.534 382.128 138.194 395.282 138.194 395.282L137.298 394.64Z" fill="#33691E"/>
<path d="M140.066 417.61C146.219 411.452 146.219 401.469 140.066 395.312C133.913 389.154 123.937 389.154 117.784 395.312C111.631 401.469 111.631 411.452 117.784 417.61C123.937 423.767 133.913 423.767 140.066 417.61Z" fill="#CE1D59"/>
<path d="M133.285 421.591C133.285 421.591 125.526 422.218 121.035 426.219C117.245 429.623 106.413 430.131 106.413 430.131C109.736 429.248 112.804 427.59 115.365 425.293C119.841 421.367 116.29 415.827 116.29 415.827L133.285 421.591Z" fill="#C3185C"/>
<path d="M144.43 405.749C144.433 408.868 143.512 411.918 141.782 414.513C140.053 417.107 137.593 419.131 134.714 420.326C131.835 421.522 128.667 421.836 125.61 421.23C122.552 420.623 119.743 419.122 117.538 416.918C115.333 414.714 113.831 411.904 113.222 408.845C112.613 405.786 112.924 402.615 114.116 399.733C115.308 396.851 117.328 394.388 119.919 392.655C122.51 390.922 125.557 389.997 128.674 389.997C132.85 389.997 136.856 391.656 139.81 394.609C142.765 397.563 144.426 401.57 144.43 405.749Z" fill="#C3185C"/>
<mask id="mask0_730_986" style="mask-type:luminance" maskUnits="userSpaceOnUse" x="112" y="389" width="33" height="33">
<path d="M144.43 405.749C144.433 408.868 143.512 411.918 141.782 414.513C140.053 417.107 137.593 419.131 134.714 420.326C131.835 421.522 128.667 421.836 125.61 421.23C122.552 420.623 119.743 419.122 117.538 416.918C115.333 414.714 113.831 411.904 113.222 408.845C112.613 405.786 112.924 402.615 114.116 399.733C115.308 396.851 117.328 394.388 119.919 392.655C122.51 390.922 125.557 389.997 128.674 389.997C132.85 389.997 136.856 391.656 139.81 394.609C142.765 397.563 144.426 401.57 144.43 405.749Z" fill="white"/>
</mask>
<g mask="url(#mask0_730_986)">
<path d="M142.043 392.43C145.027 400.627 139.82 410.004 130.48 413.334C121.139 416.663 111.172 412.811 108.218 404.629C105.264 396.447 110.441 387.07 119.782 383.726C129.122 380.381 139.074 384.248 142.043 392.43Z" fill="#D93374"/>
</g>
<path d="M126.123 393.744C126.123 393.744 121.333 390.564 118.26 396.895C114.977 403.718 119.245 402.867 120.931 400.299C122.617 397.731 124.541 399.911 126.377 398.806C128.212 397.701 128.48 395.745 126.123 393.744Z" fill="#E873AF"/>
<path d="M257.842 404.082L234.302 411.546L235.659 415.83L259.199 408.366L257.842 404.082Z" fill="#7EB341"/>
<path d="M257.88 404.056L234.34 411.52L234.854 413.142L258.394 405.679L257.88 404.056Z" fill="#518D23"/>
<path d="M254.376 395.591L234.031 409.594L236.576 413.297L256.921 399.294L254.376 395.591Z" fill="#7EB341"/>
<path d="M255.937 397.918L235.591 411.922L236.555 413.324L256.9 399.32L255.937 397.918Z" fill="#518D23"/>
<path d="M233.611 413.232L232.079 418.197L257.698 426.113L259.229 421.149L233.611 413.232Z" fill="#7EB341"/>
<path d="M233.628 413.042L233.047 414.925L258.666 422.841L259.247 420.958L233.628 413.042Z" fill="#518D23"/>
<path d="M264.276 410.785L235.027 413.202L235.401 417.741L264.65 415.324L264.276 410.785Z" fill="#7EB341"/>
<path d="M264.418 413.634L235.169 416.051L235.311 417.777L264.56 415.36L264.418 413.634Z" fill="#518D23"/>
<path d="M238.026 423.412C238.31 414.215 238.026 413.797 238.026 413.797V413.603C237.832 412.408 237.325 409.825 236.102 404.495C233.118 391.355 206.783 401.329 162.678 410.96C138.925 416.156 128.928 419.694 124.735 421.874C122.437 424.577 140.655 429.594 164.946 430.833C210.065 433.252 237.609 436.895 238.026 423.412Z" fill="#FE5723"/>
<mask id="mask1_730_986" style="mask-type:luminance" maskUnits="userSpaceOnUse" x="123" y="398" width="115" height="36">
<path d="M237.191 423.382C237.459 414.185 237.191 413.767 237.191 413.767V413.573C237.012 412.363 236.49 409.795 235.266 404.465C232.282 391.326 205.947 401.299 161.842 410.93C138.104 416.126 128.092 419.665 123.9 421.829C121.602 424.547 139.82 429.564 164.11 430.788C209.26 433.177 236.788 436.865 237.191 423.382Z" fill="white"/>
</mask>
<g mask="url(#mask1_730_986)">
<path d="M196.741 426.025C166.781 426.876 142.297 420.053 142.028 410.84C141.76 401.628 165.901 393.416 195.742 392.565C225.583 391.714 250.202 398.537 250.455 407.764C250.709 416.992 226.702 425.174 196.741 426.025Z" fill="#FE7243"/>
</g>
<g opacity="0.2">
<path d="M229.85 419.978C229.85 420.575 229.686 421.068 229.462 421.068C229.253 421.068 229.074 420.59 229.059 419.978V414.767C229.059 414.17 229.223 413.692 229.432 413.677C229.656 413.677 229.835 414.17 229.85 414.767V419.978Z" fill="white"/>
</g>
<g opacity="0.1">
<path d="M223.852 410.019C223.852 410.616 223.688 411.109 223.464 411.109C223.24 411.109 223.061 410.631 223.061 410.034L222.987 404.823C222.987 404.226 223.151 403.733 223.374 403.733C223.598 403.733 223.777 404.211 223.777 404.808L223.852 410.019Z" fill="white"/>
</g>
<g opacity="0.2">
<path d="M220.122 418.336C220.122 418.933 219.958 419.411 219.749 419.426C219.525 419.426 219.346 418.933 219.331 418.336V413.125C219.331 412.527 219.495 412.035 219.719 412.035C219.928 412.035 220.107 412.512 220.122 413.125V418.336Z" fill="white"/>
</g>
<g opacity="0.1">
<path d="M215.646 407.959C215.646 408.556 215.497 409.048 215.273 409.048C215.049 409.048 214.87 408.571 214.87 407.973V402.763C214.87 402.15 215.034 401.673 215.258 401.673C215.467 401.673 215.661 402.15 215.661 402.748L215.646 407.959Z" fill="white"/>
</g>
<g opacity="0.1">
<path d="M223.971 426.906C223.971 427.503 223.807 427.996 223.583 427.996C223.374 427.996 223.18 427.518 223.18 426.906V421.695C223.18 421.098 223.33 420.62 223.553 420.605C223.777 420.605 223.956 421.098 223.956 421.695L223.971 426.906Z" fill="white"/>
</g>
<g opacity="0.1">
<path d="M215.317 427.742C215.317 428.339 215.153 428.817 214.944 428.832C214.721 428.832 214.542 428.339 214.527 427.742V422.531C214.527 421.934 214.691 421.441 214.915 421.441C215.123 421.441 215.302 421.919 215.317 422.516V427.742Z" fill="white"/>
</g>
<g opacity="0.1">
<path d="M209.991 417.186C209.991 417.783 209.827 418.276 209.618 418.276C209.394 418.276 209.215 417.798 209.2 417.201V411.99C209.2 411.393 209.364 410.9 209.588 410.9C209.797 410.9 209.976 411.378 209.991 411.975V417.186Z" fill="white"/>
</g>
<g opacity="0.2">
<path d="M203.441 411.617C203.441 412.214 203.277 412.707 203.068 412.707C202.844 412.707 202.665 412.229 202.65 411.631V406.421C202.65 405.823 202.814 405.331 203.038 405.331C203.247 405.331 203.426 405.808 203.441 406.406V411.617Z" fill="white"/>
</g>
<g opacity="0.2">
<path d="M206.992 427.294C206.992 427.891 206.828 428.384 206.619 428.384C206.395 428.384 206.216 427.906 206.201 427.294V422.083C206.201 421.486 206.365 421.008 206.589 420.993C206.798 420.993 206.977 421.486 206.992 422.083V427.294Z" fill="white"/>
</g>
<g opacity="0.1">
<path d="M199.606 421.008C199.606 421.605 199.442 422.098 199.218 422.098C199.009 422.098 198.83 421.62 198.815 421.023V415.812C198.815 415.215 198.98 414.722 199.188 414.722C199.412 414.722 199.591 415.2 199.606 415.797V421.008Z" fill="white"/>
</g>
<g opacity="0.1">
<path d="M190.907 413.617C190.907 414.215 190.743 414.707 190.534 414.707C190.311 414.707 190.132 414.23 190.117 413.632V408.407C190.117 407.809 190.281 407.331 190.505 407.331C190.713 407.331 190.893 407.809 190.907 408.407V413.617Z" fill="white"/>
</g>
<g opacity="0.2">
<path d="M194.28 426.249C194.28 426.846 194.115 427.324 193.907 427.339C193.683 427.339 193.504 426.846 193.489 426.249V421.038C193.489 420.441 193.653 419.948 193.877 419.948C194.086 419.948 194.265 420.426 194.28 421.038V426.249Z" fill="white"/>
</g>
<g opacity="0.1">
<path d="M186.775 423.576C186.775 424.174 186.625 424.651 186.402 424.666C186.178 424.666 185.999 424.174 185.999 423.576L185.924 418.365C185.924 417.768 186.088 417.275 186.312 417.275C186.521 417.275 186.715 417.753 186.715 418.365L186.775 423.576Z" fill="white"/>
</g>
<g opacity="0.1">
<path d="M179.12 426.921C179.12 427.384 178.956 427.742 178.732 427.757C178.524 427.757 178.345 427.384 178.33 426.936V422.994C178.33 422.531 178.494 422.158 178.718 422.158C178.926 422.158 179.105 422.531 179.12 422.979V426.921Z" fill="white"/>
</g>
<g opacity="0.2">
<path d="M179.075 414.453C179.075 415.051 178.911 415.543 178.702 415.543C178.479 415.543 178.3 415.066 178.285 414.468V409.258C178.285 408.645 178.449 408.168 178.673 408.168C178.882 408.168 179.061 408.645 179.075 409.243V414.453Z" fill="white"/>
</g>
<g opacity="0.1">
<path d="M172.973 418.873C172.973 419.321 172.809 419.694 172.6 419.694C172.376 419.694 172.197 419.336 172.197 418.873V414.931C172.197 414.483 172.361 414.11 172.585 414.11C172.809 414.11 172.988 414.468 172.988 414.916L172.973 418.873Z" fill="white"/>
</g>
<g opacity="0.2">
<path d="M168.721 426.831C168.721 427.279 168.557 427.653 168.348 427.653C168.124 427.653 167.945 427.294 167.93 426.846V422.889C167.93 422.442 168.094 422.068 168.318 422.068C168.542 422.068 168.721 422.427 168.721 422.889V426.831Z" fill="white"/>
</g>
<g opacity="0.1">
<path d="M166.065 417.365C166.065 417.813 165.901 418.186 165.677 418.186C165.468 418.186 165.289 417.828 165.274 417.38V413.423C165.274 412.975 165.438 412.602 165.662 412.602C165.871 412.602 166.05 412.96 166.065 413.423V417.365Z" fill="white"/>
</g>
<g opacity="0.1">
<path d="M160.768 425.711C160.768 426.159 160.604 426.533 160.38 426.533C160.171 426.533 159.992 426.174 159.977 425.711V421.77C159.977 421.307 160.141 420.949 160.365 420.949C160.574 420.949 160.753 421.307 160.768 421.755V425.711Z" fill="white"/>
</g>
<g opacity="0.2">
<path d="M155.964 420.232C155.964 420.68 155.8 421.053 155.576 421.053C155.367 421.053 155.173 420.695 155.173 420.247V416.29C155.173 415.842 155.337 415.469 155.561 415.469C155.77 415.469 155.949 415.827 155.964 416.29V420.232Z" fill="white"/>
</g>
<g opacity="0.1">
<path d="M149.294 425.099C149.294 425.547 149.13 425.92 148.906 425.92C148.697 425.92 148.518 425.562 148.503 425.099V421.157C148.503 420.695 148.668 420.336 148.891 420.321C149.1 420.321 149.279 420.695 149.294 421.142V425.099Z" fill="white"/>
</g>
<g opacity="0.2">
<path d="M142.446 422.725C142.446 423.188 142.282 423.547 142.073 423.561C141.849 423.561 141.67 423.188 141.67 422.74V418.783C141.67 418.336 141.834 417.962 142.058 417.962C142.282 417.962 142.461 418.321 142.461 418.783L142.446 422.725Z" fill="white"/>
</g>
<path d="M228.138 406.563L227.881 405.017C227.717 404.024 226.779 403.353 225.787 403.518L211.981 405.81C210.989 405.975 210.318 406.913 210.483 407.905L210.739 409.452C210.904 410.444 211.841 411.115 212.833 410.951L226.64 408.658C227.631 408.494 228.302 407.556 228.138 406.563Z" fill="#FFAB91"/>
</g>
<defs>
<clipPath id="clip0_730_986">
<rect width="637" height="439" fill="white"/>
</clipPath>
</defs>
</svg>
