<svg width="456" height="231" viewBox="0 0 456 231" fill="none" xmlns="http://www.w3.org/2000/svg">
<g clip-path="url(#clip0_731_2248)">
<path d="M378.064 0.0906182L312.11 4.84052L316.861 70.7819L382.815 66.032L378.064 0.0906182Z" fill="white"/>
<path d="M395.907 26.1812L330.736 14.9965L319.549 80.1561L384.72 91.3408L395.907 26.1812Z" fill="#FDBA73"/>
<path d="M407.63 27.5924L344.01 9.56903L325.983 73.1774L389.603 91.2008L407.63 27.5924Z" fill="#5096F5"/>
<path d="M140.2 21.7158L149.561 57.9595L162.987 70.3413L183.284 65.0965L187.272 58.8104L140.2 21.7158Z" fill="#FDBA73"/>
<path d="M162.987 70.3413L155.988 72.1446L140.289 63.3059L154.439 62.4551L162.987 70.3413Z" fill="#ED4D4D"/>
<path d="M187.272 58.8104L185.888 29.8814L180.109 29.6274L175.777 49.7431L187.272 58.8104Z" fill="#FE9901"/>
<path d="M180.109 29.6275L193.712 30.2497L181.836 21.1824L180.109 29.6275Z" fill="#FDBA73"/>
<path d="M175.777 49.7431L177.733 40.6631L157.703 19.5696L156.992 34.9484L175.777 49.7431Z" fill="#ED4D4D"/>
<path d="M363.266 192.293C363.53 192.835 363.667 193.43 363.667 194.033C363.667 194.635 363.53 195.23 363.266 195.772C363.174 196.054 363.017 196.311 362.808 196.522C362.046 197.22 360.827 196.699 359.95 196.141C359.585 195.969 359.289 195.678 359.112 195.315C359.024 195 359.024 194.666 359.112 194.35C359.443 192.979 359.773 191.607 360.116 190.235C360.535 190.477 360.941 190.692 361.386 190.946C361.83 191.2 361.919 191.264 362.173 191.442C362.591 191.65 362.962 191.939 363.266 192.293Z" fill="white"/>
<path d="M353.93 197.423C353.701 198.315 353.701 199.249 353.93 200.141C354.235 200.839 355.378 200.687 355.797 200.039C356.126 199.35 356.198 198.567 356 197.83C355.425 197.547 354.769 197.475 354.146 197.626" fill="white"/>
<path d="M364.307 168.088C363.786 168.53 363.328 169.043 362.948 169.611C362.755 169.894 362.652 170.228 362.652 170.57C362.652 170.913 362.755 171.247 362.948 171.529C363.174 171.753 363.461 171.905 363.774 171.964C364.086 172.023 364.409 171.986 364.701 171.859C365.274 171.597 365.775 171.201 366.162 170.704C366.322 170.56 366.422 170.36 366.441 170.145C366.396 169.935 366.273 169.749 366.098 169.624L364.472 168.113" fill="white"/>
<path d="M252.381 111.5C256.695 111.5 260.192 108.003 260.192 103.69C260.192 99.3763 256.695 95.8796 252.381 95.8796C248.067 95.8796 244.569 99.3763 244.569 103.69C244.569 108.003 248.067 111.5 252.381 111.5Z" fill="white"/>
<path d="M256.689 107.989C259.065 105.613 259.065 101.762 256.689 99.386C254.313 97.0105 250.461 97.0105 248.085 99.386C245.709 101.762 245.709 105.613 248.085 107.989C250.461 110.364 254.313 110.364 256.689 107.989Z" fill="#11215F"/>
<path d="M268.893 140.175C273.207 140.175 276.704 136.678 276.704 132.365C276.704 128.051 273.207 124.555 268.893 124.555C264.579 124.555 261.081 128.051 261.081 132.365C261.081 136.678 264.579 140.175 268.893 140.175Z" fill="white"/>
<path d="M270.044 138.441C273.314 137.667 275.337 134.389 274.562 131.12C273.787 127.851 270.509 125.828 267.239 126.603C263.969 127.378 261.947 130.656 262.721 133.925C263.496 137.194 266.775 139.216 270.044 138.441Z" fill="#199085"/>
<path d="M255.061 157.928C259.375 157.928 262.872 154.432 262.872 150.118C262.872 145.805 259.375 142.308 255.061 142.308C250.747 142.308 247.249 145.805 247.249 150.118C247.249 154.432 250.747 157.928 255.061 157.928Z" fill="white"/>
<path d="M256.223 156.21C259.493 155.435 261.516 152.157 260.741 148.888C259.966 145.619 256.687 143.597 253.418 144.371C250.148 145.146 248.126 148.424 248.9 151.693C249.675 154.962 252.954 156.984 256.223 156.21Z" fill="#FE9901"/>
<path d="M390.968 147.896C390.701 148.595 390.701 149.368 390.968 150.067C391.187 150.426 391.509 150.71 391.892 150.885C392.274 151.059 392.7 151.115 393.114 151.045C393.946 150.896 394.722 150.528 395.363 149.978C396.317 149.247 397.171 148.393 397.903 147.439C398.185 147.123 398.363 146.729 398.411 146.309C398.379 145.941 398.257 145.588 398.055 145.28C397.484 144.238 395.515 140.733 393.889 141.368C393.102 141.673 392.505 143.591 392.187 144.315C391.688 145.475 391.28 146.672 390.968 147.896Z" fill="#FDBA73"/>
<path d="M402.704 154.398C401.705 154.959 400.655 155.423 399.567 155.782C398.851 156.055 398.08 156.155 397.319 156.074C396.902 156.021 396.521 155.812 396.252 155.49C395.756 154.83 396.086 153.877 396.48 153.141C397.294 151.638 398.321 150.261 399.529 149.051C399.794 149.074 400.051 149.151 400.285 149.278C400.519 149.404 400.724 149.578 400.888 149.788C401.289 150.198 401.608 150.68 401.828 151.21C402.312 152.21 402.609 153.291 402.704 154.398Z" fill="#FDBA73"/>
<path d="M351.199 100.235L392.073 133.495L388.796 138.968L356.686 116.605C354.596 115.153 352.943 113.157 351.904 110.834C350.865 108.511 350.481 105.949 350.793 103.423L351.199 100.235Z" fill="#67AFFF"/>
<path d="M371.064 91.5999L377.898 148.239L383.791 145.813L381.975 104.985C381.862 102.444 381.056 99.982 379.646 97.8649C378.236 95.7477 376.274 94.0558 373.973 92.9715L371.064 91.5999Z" fill="#5096F5"/>
<path d="M395.985 143.477C398.165 145.466 399.823 147.96 400.812 150.741C401.967 153.966 402.082 157.916 399.732 160.468C398.558 161.636 397.033 162.384 395.391 162.597C393.75 162.811 392.083 162.478 390.65 161.65C389.258 160.721 388.119 159.461 387.336 157.982C386.553 156.503 386.151 154.852 386.167 153.179C385.466 153.338 384.838 153.721 384.376 154.271C383.479 155.37 382.852 156.664 382.545 158.049C382.239 159.434 382.261 160.872 382.61 162.246C383.284 165.066 384.716 167.648 386.751 169.713C388.288 171.364 390.053 172.799 391.628 174.412C396.836 179.746 399.77 186.934 401.421 194.21C403.686 206.228 405.205 218.375 405.968 230.581H442.93C439.615 211.075 425.948 185.105 424.17 168.202C423.674 163.453 423.814 158.538 422.036 154.119C421.506 152.595 420.527 151.267 419.229 150.309C418.289 149.699 417.159 149.407 416.219 148.785C414.948 147.934 414.097 146.563 412.904 145.597C410.808 143.908 408.509 143.642 406.108 142.397C406.108 142.397 396.163 141.039 395.985 143.477Z" fill="#FDBA73"/>
<path d="M397.014 131.501C395.22 131.499 393.465 132.028 391.972 133.023C390.479 134.018 389.314 135.433 388.626 137.09C387.938 138.746 387.756 140.57 388.105 142.329C388.453 144.089 389.316 145.706 390.584 146.975C391.852 148.245 393.468 149.109 395.227 149.46C396.987 149.811 398.811 149.633 400.469 148.947C402.127 148.261 403.544 147.099 404.541 145.607C405.538 144.116 406.07 142.362 406.07 140.568C406.07 138.166 405.116 135.861 403.418 134.161C401.72 132.461 399.417 131.505 397.014 131.501ZM397.014 144.873C396.162 144.873 395.33 144.621 394.622 144.148C393.913 143.675 393.362 143.003 393.036 142.216C392.71 141.429 392.625 140.564 392.791 139.728C392.957 138.893 393.367 138.126 393.969 137.524C394.571 136.922 395.338 136.512 396.174 136.346C397.009 136.18 397.875 136.265 398.661 136.591C399.448 136.917 400.121 137.469 400.594 138.177C401.067 138.885 401.32 139.717 401.32 140.568C401.32 141.71 400.866 142.805 400.058 143.612C399.251 144.42 398.156 144.873 397.014 144.873Z" fill="#5096F5"/>
<path d="M382.216 145.521C380.422 145.518 378.667 146.049 377.173 147.044C375.68 148.039 374.515 149.455 373.828 151.113C373.14 152.77 372.959 154.594 373.308 156.354C373.658 158.114 374.522 159.731 375.791 161C377.06 162.269 378.677 163.133 380.438 163.482C382.198 163.831 384.023 163.651 385.68 162.963C387.338 162.275 388.754 161.111 389.75 159.618C390.745 158.125 391.275 156.37 391.273 154.576C391.269 152.175 390.314 149.874 388.617 148.177C386.919 146.479 384.617 145.524 382.216 145.521ZM382.216 158.881C381.368 158.878 380.538 158.625 379.833 158.152C379.128 157.68 378.578 157.01 378.252 156.226C377.927 155.442 377.841 154.58 378.004 153.747C378.168 152.914 378.574 152.148 379.171 151.545C379.769 150.942 380.532 150.529 381.363 150.359C382.195 150.188 383.058 150.267 383.845 150.585C384.632 150.904 385.307 151.447 385.786 152.148C386.264 152.849 386.525 153.676 386.535 154.525C386.542 155.096 386.435 155.662 386.221 156.191C386.007 156.72 385.689 157.201 385.287 157.606C384.886 158.012 384.407 158.333 383.88 158.552C383.353 158.771 382.787 158.882 382.216 158.881Z" fill="#5096F5"/>
<path d="M399.732 160.468C402.031 157.928 401.967 153.966 400.812 150.741C399.834 147.972 398.271 147.642 396.15 145.661C395.088 144.898 394.157 143.967 393.394 142.905C393.402 142.563 393.444 142.223 393.521 141.889C394.169 139.464 397.623 138.816 399.986 139.68C402.091 140.432 404.138 141.34 406.108 142.397C408.509 143.667 410.808 143.908 412.903 145.597" fill="#FDBA73"/>
<path d="M386.294 153.179C386.645 154.185 386.745 155.262 386.586 156.315C387.236 158.534 388.684 160.433 390.65 161.649C392.083 162.478 393.75 162.811 395.391 162.597C397.033 162.384 398.558 161.635 399.732 160.468L391.628 174.437C390.053 172.824 388.288 171.39 386.751 169.739C384.716 167.673 383.284 165.091 382.61 162.272C382.026 159.44 381.975 156.29 383.88 154.131C384.519 153.523 385.301 153.087 386.154 152.861L386.294 153.179Z" fill="#FDBA73"/>
<path d="M380.768 127.082C380.758 126.791 380.662 126.509 380.492 126.273C380.322 126.036 380.085 125.856 379.812 125.754C379.539 125.652 379.242 125.633 378.959 125.7C378.675 125.766 378.418 125.915 378.219 126.128C378.02 126.341 377.889 126.608 377.842 126.896C377.795 127.183 377.834 127.478 377.955 127.743C378.075 128.008 378.272 128.232 378.52 128.385C378.767 128.539 379.055 128.616 379.346 128.606C379.539 128.599 379.73 128.555 379.906 128.474C380.082 128.394 380.241 128.28 380.373 128.139C380.505 127.997 380.608 127.831 380.676 127.65C380.744 127.468 380.775 127.275 380.768 127.082Z" fill="#E3F2FF"/>
<path d="M315.901 230.581C315.597 224.053 315.025 202.719 314.987 196.191C314.949 189.664 314.987 183.251 317.133 177.206C318.797 172.431 321.643 168.101 323.091 163.237C323.865 160.324 324.383 157.35 324.64 154.347C325.165 149.75 325.69 145.157 326.215 140.568C326.329 139.578 326.317 138.346 325.453 137.863C325.049 137.719 324.613 137.693 324.194 137.787C323.776 137.882 323.393 138.093 323.091 138.397C320.665 140.264 319.407 143.21 317.629 145.699C315.851 148.188 312.917 150.398 310.008 149.585C308.949 149.197 308.001 148.553 307.25 147.711C306.499 146.87 305.967 145.856 305.702 144.759C304.724 141.637 305.002 138.257 306.477 135.336C308.23 131.869 311.354 128.987 310.922 125.177C309.433 124.729 307.841 124.755 306.366 125.251C304.892 125.747 303.608 126.688 302.692 127.945L297.814 135.463C295.948 138.111 294.413 140.977 293.242 143.997C290.879 150.906 292.505 158.462 292.899 165.751C293.864 183.429 282.738 214.288 275.879 230.606L315.901 230.581Z" fill="#FDBA73"/>
<path d="M325.605 106.331L299.834 120.77L331.829 177.866L357.601 163.44L349.573 154.436L350.932 151.541L347.287 149.966L347.122 144.734L342.117 142.651L342.308 136.149L337.1 133.317L337.494 127.564L332.731 125.126L332.782 119.132L328.743 116.503L330.457 112.351L326.583 111.119L325.605 106.331Z" fill="white"/>
<path d="M317.133 177.206C318.797 172.431 321.643 168.101 323.091 163.237C323.865 160.324 324.383 157.35 324.64 154.347C325.165 149.75 325.69 145.157 326.215 140.568C326.329 139.578 326.317 138.346 325.453 137.863C325.049 137.719 324.613 137.693 324.194 137.787C323.776 137.882 323.393 138.093 323.091 138.397C320.665 140.264 319.407 143.21 317.629 145.699C315.851 148.188 312.916 150.398 310.008 149.585" fill="#FDBA73"/>
<path d="M224.158 81.4021L61.7417 108.431L81.1321 224.906L243.548 197.878L224.158 81.4021Z" fill="#E3E3E3"/>
<path d="M176.603 125.634C168.462 128.38 161.248 133.342 155.773 139.963C150.298 146.583 146.779 154.599 145.611 163.11C162.199 158.195 175.18 142.867 176.603 125.634Z" fill="#199085"/>
<path d="M145.611 162.665C140.126 166.745 135.303 171.645 131.309 177.193" stroke="#199085" stroke-width="3" stroke-linecap="round" stroke-linejoin="round"/>
<path d="M153.765 103.055C149.65 106.864 145.776 111.043 143.528 116.148C139.718 124.872 141.115 134.892 142.588 144.302C146.652 141.804 149.816 138.077 151.619 133.66C153.181 129.308 154.104 124.752 154.362 120.135C154.858 114.255 154.096 108.947 153.765 103.055Z" fill="#11215F"/>
<path d="M119.014 150.639C117.427 151.175 116.055 152.208 115.102 153.585C114.647 154.282 114.413 155.1 114.431 155.931C114.45 156.763 114.719 157.57 115.203 158.246C115.775 158.815 116.475 159.24 117.243 159.485C118.012 159.73 118.828 159.788 119.624 159.656C121.553 159.483 123.397 158.775 124.946 157.611C125.526 157.092 126.181 156.664 126.889 156.341C127.246 156.19 127.643 156.162 128.017 156.261C128.392 156.36 128.723 156.58 128.959 156.887C129.191 157.379 129.24 157.937 129.099 158.462C128.689 160.692 127.777 162.8 126.433 164.626C125.088 166.452 123.346 167.948 121.338 169.002C119.132 169.976 116.871 170.824 114.568 171.542C105.068 175.136 99.3265 184.343 92.9757 192.28C86.6249 200.217 75.7904 218.009 71.6242 230.594H19.7637C37.33 204.636 72.6658 176.533 90.194 153.23C92.6913 149.546 95.9754 146.462 99.8092 144.201C103.772 142.016 108.865 141.293 113.298 140.391C116.402 139.501 119.666 139.319 122.85 139.857C124.697 140.054 126.447 140.782 127.888 141.955C129.329 143.127 130.398 144.692 130.966 146.461C131.313 147.586 131.321 148.788 130.989 149.917C130.657 151.046 129.999 152.052 129.099 152.811C128.591 153.166 126.914 152.328 126.483 151.883C126.051 151.439 125.847 150.614 125.212 150.525C124.184 150.36 122.939 149.991 121.897 149.814C120.883 149.85 119.894 150.133 119.014 150.639Z" fill="#A04622"/>
<path d="M120.055 155.185C121.491 159.846 123.269 162.805 124.336 162.665C125.403 162.525 126.66 159.186 127.181 154.309C124.931 155.248 122.466 155.551 120.055 155.185Z" fill="#E3F2FF"/>
<path d="M127.181 154.309C127.518 150.931 127.518 147.528 127.181 144.15C126.254 134.143 123.447 126.218 120.932 126.459C118.417 126.701 117.121 134.994 118.049 145.001C118.368 148.466 119.031 151.89 120.03 155.224C122.453 155.582 124.927 155.266 127.181 154.309Z" fill="#FE9901"/>
<path d="M121.986 165.598C121.878 164.69 122.102 163.772 122.615 163.015C123.128 162.257 123.897 161.709 124.781 161.471C125.59 161.264 126.444 161.334 127.209 161.671C127.973 162.007 128.603 162.589 128.997 163.325C129.578 164.328 129.912 165.453 129.974 166.61C130.036 167.766 129.823 168.921 129.353 169.98C128.895 171.008 128.746 172.148 128.924 173.259C129.102 174.371 129.6 175.407 130.357 176.241C130.388 176.281 130.405 176.329 130.407 176.38C130.409 176.43 130.395 176.48 130.367 176.522C130.339 176.565 130.298 176.597 130.251 176.615C130.203 176.633 130.151 176.635 130.102 176.621C127.893 175.669 125.978 174.146 124.552 172.209C123.125 170.272 122.24 167.99 121.986 165.598Z" fill="#BC7352"/>
<path d="M114.568 171.529C116.871 170.812 119.132 169.964 121.338 168.989C123.346 167.935 125.088 166.439 126.433 164.613C127.777 162.787 128.689 160.679 129.099 158.449C129.24 157.924 129.191 157.366 128.959 156.874C128.723 156.567 128.392 156.347 128.017 156.248C127.643 156.15 127.246 156.178 126.889 156.328C126.181 156.651 125.526 157.079 124.946 157.598C123.397 158.762 121.553 159.47 119.624 159.643C118.828 159.776 118.012 159.717 117.243 159.472C116.474 159.227 115.775 158.802 115.203 158.233" fill="#A04622"/>
<path d="M233.62 230.581C232.566 203.379 219.649 175.707 212.993 154.08C211.951 151.082 211.248 147.977 210.897 144.823C210.907 143.905 210.752 142.994 210.44 142.131C210.271 141.705 209.974 141.343 209.589 141.095C209.204 140.847 208.751 140.725 208.294 140.746C207.829 140.877 207.414 141.143 207.1 141.509C206.786 141.875 206.587 142.325 206.528 142.804C206.312 143.743 206.376 144.734 206.083 145.648C205.88 146.283 205.334 146.918 204.686 146.816C204.353 146.699 204.07 146.47 203.886 146.169C201.816 143.413 201.524 139.692 199.847 136.682C199.679 136.287 199.371 135.966 198.983 135.781C198.689 135.709 198.378 135.746 198.108 135.883C197.838 136.021 197.626 136.25 197.51 136.53C197.285 137.094 197.198 137.704 197.256 138.308L197.408 145.585C197.41 145.735 197.373 145.883 197.301 146.015C197.228 146.146 197.123 146.256 196.994 146.335C196.866 146.413 196.72 146.456 196.57 146.461C196.419 146.465 196.271 146.43 196.138 146.359C195.278 145.518 194.625 144.487 194.233 143.35L191.972 138.626C191.502 137.635 190.473 136.441 189.521 137.025C189.287 137.224 189.106 137.478 188.995 137.764C188.884 138.05 188.846 138.359 188.885 138.664C188.885 142.016 190.156 145.013 189.813 148.62C189.79 148.813 189.711 148.994 189.584 149.141C189.114 149.598 188.403 148.925 188.073 148.353C187.128 146.652 185.994 145.063 184.694 143.616C184.472 143.313 184.168 143.079 183.818 142.943C183.45 142.873 183.069 142.946 182.753 143.147C182.437 143.347 182.209 143.66 182.116 144.023C181.919 144.75 181.919 145.517 182.116 146.245L184.859 159.656C185.38 161.27 185.38 163.007 184.859 164.621C184.708 165.003 184.474 165.347 184.175 165.628C183.876 165.909 183.518 166.121 183.127 166.248C182.737 166.376 182.323 166.415 181.915 166.365C181.508 166.314 181.116 166.174 180.769 165.954C179.499 165.231 178.153 164.557 176.959 163.986C176.687 163.813 176.361 163.75 176.044 163.808C175.796 163.932 175.605 164.145 175.511 164.405C174.507 166.513 175.803 168.977 177.225 170.831C180.591 175.212 184.846 178.882 187.73 183.606C189.546 186.791 190.917 190.209 191.807 193.766C195.282 205.683 196.314 218.179 194.842 230.505L233.62 230.581Z" fill="#A04622"/>
<path d="M0.635132 230.365H455.365" stroke="#1D1D1B" stroke-linecap="round" stroke-linejoin="round"/>
</g>
<defs>
<clipPath id="clip0_731_2248">
<rect width="456" height="231" fill="white"/>
</clipPath>
</defs>
</svg>
