<svg width="437" height="398" viewBox="0 0 437 398" fill="none" xmlns="http://www.w3.org/2000/svg">
<g clip-path="url(#clip0_728_406)">
<path d="M119.474 285.286L106.341 397.402H167.969L180.599 314.898L194.905 397.402H258.544L240.024 285.286H119.474Z" fill="#CA3434"/>
<path d="M176.648 314.646L160.571 310.026C160.056 309.883 159.936 310.697 160.439 310.852L176.529 315.472C177.031 315.616 177.163 314.79 176.648 314.646Z" fill="#A51E1E"/>
<path d="M173.763 317.687L158.141 318.644C157.602 318.644 157.698 319.506 158.225 319.47L173.859 318.512C174.386 318.477 174.29 317.651 173.763 317.687Z" fill="#A51E1E"/>
<path d="M147.307 85.7235C147.307 85.7235 138.64 85.7235 134.138 92.6776C134.138 92.6776 110.567 97.9201 105.695 106.37C100.822 114.821 71.2771 162.925 71.2771 162.925L96.74 212.848C96.74 212.848 108.987 209.88 107.646 196.965L115.727 186.875L121.114 220.233L116.325 296.094C116.325 296.094 133.456 311.511 144.314 312.851C155.172 314.192 181.664 295.939 181.664 295.939C181.664 295.939 207.63 312.923 217.279 313.892C226.928 314.862 242.874 295.041 242.874 295.041L234.41 205.033L235.99 153.637L263.153 167.102C263.153 167.102 272.503 182.411 289.202 172.404L282.858 131.434C282.858 131.434 240.575 101.092 230.699 94.4012C220.822 87.7104 188.045 88.3447 188.045 88.3447C188.045 88.3447 182.466 82.9586 176.648 83.8563L147.307 85.7235Z" fill="#FFB344"/>
<path d="M161.732 125.593C158.909 121.118 155.596 116.971 151.856 113.229C148.479 109.859 144.202 107.536 139.537 106.538C137.207 106.06 134.784 106.376 132.654 107.436C132.164 103.511 132.688 99.5265 134.174 95.8614C134.378 95.3587 133.624 95.0235 133.42 95.5142C131.788 99.5104 131.267 103.874 131.912 108.142C131.921 108.213 131.949 108.282 131.992 108.339C132.036 108.397 132.093 108.443 132.16 108.472C132.226 108.501 132.298 108.512 132.37 108.504C132.442 108.497 132.511 108.471 132.57 108.429C136.473 105.88 141.74 107.531 145.487 109.626C149.638 112.062 153.247 115.32 156.094 119.201C157.853 121.452 159.458 123.797 161.074 126.155C161.373 126.514 162.043 126.036 161.732 125.593Z" fill="#FF8C00"/>
<path d="M191.445 92.2825C191.229 91.7918 190.463 92.091 190.667 92.5817C192.22 96.2485 193.337 100.085 193.995 104.012C185.016 105.006 178.133 111.721 173.141 118.782C171.584 120.985 170.136 123.271 168.699 125.557C168.412 126 169.047 126.526 169.334 126.084C174.122 118.555 179.246 110.524 187.59 106.67C189.777 105.64 192.127 104.996 194.533 104.766C194.587 104.761 194.639 104.744 194.686 104.718C194.733 104.692 194.775 104.656 194.808 104.614C194.842 104.572 194.866 104.523 194.881 104.471C194.895 104.419 194.899 104.365 194.893 104.312C194.232 100.178 193.074 96.1388 191.445 92.2825Z" fill="#FF8C00"/>
<path d="M106.497 195.182C101.851 184.567 94.7536 175.206 85.7862 167.868C85.6995 167.811 85.5946 167.788 85.4918 167.803C85.3891 167.819 85.2958 167.872 85.2302 167.953C85.1645 168.033 85.1311 168.136 85.1366 168.239C85.142 168.343 85.1858 168.441 85.2595 168.514C94.1088 175.758 101.109 185.001 105.682 195.481C105.934 195.972 106.712 195.673 106.497 195.182Z" fill="#FF8C00"/>
<path d="M262.902 131.194C263.009 130.668 262.195 130.548 262.087 131.063C260.253 139.66 259.696 148.48 260.435 157.239C260.639 159.753 260.962 162.243 261.381 164.732C261.477 165.247 262.291 165.163 262.207 164.636C260.732 155.978 260.546 147.149 261.656 138.436C261.98 136.006 262.387 133.588 262.902 131.194Z" fill="#FF8C00"/>
<path d="M175.978 231.556C174.43 210.522 172.889 189.493 171.357 168.467C170.495 156.665 169.629 144.863 168.759 133.062C168.759 132.535 167.897 132.619 167.945 133.157C169.478 154.191 171.018 175.221 172.566 196.247C174.114 217.273 175.655 238.299 177.187 259.325L179.785 294.742C179.785 295.28 180.647 295.185 180.599 294.658C179.067 273.624 177.526 252.59 175.978 231.556Z" fill="#FF8C00"/>
<path d="M112.243 152.847L110.974 144.073C110.89 143.547 110.076 143.63 110.148 144.157C111.648 154.53 113.149 164.868 114.649 175.169L115.93 183.943C116.002 184.469 116.828 184.386 116.744 183.859C115.252 173.518 113.751 163.18 112.243 152.847Z" fill="#FF8C00"/>
<path d="M113.332 182.231L108.268 163.08C108.137 162.566 107.359 162.865 107.502 163.38C109.194 169.763 110.878 176.147 112.554 182.53C112.698 183.009 113.464 182.698 113.332 182.231Z" fill="#FF8C00"/>
<path d="M237.02 122.72C236.621 130.165 236.221 137.614 235.822 145.067L235.475 151.422C235.475 151.949 236.265 152.081 236.289 151.554C236.696 144.093 237.095 136.64 237.486 129.196C237.594 127.077 237.714 124.959 237.822 122.84C237.87 122.313 237.055 122.182 237.02 122.72Z" fill="#FF8C00"/>
<path d="M181.76 94.3054L164.486 129.016L143.225 96.6992L143.895 89.1108L145.092 75.6334C147.252 77.7887 149.845 79.4608 152.699 80.5391C155.553 81.6174 158.604 82.0773 161.65 81.8883C164.695 81.6994 167.666 80.8659 170.365 79.443C173.064 78.0201 175.43 76.0403 177.307 73.6346L181.76 94.3054Z" fill="#EE6D1D"/>
<path d="M177.295 73.6584C177.295 73.6584 170.184 91.7799 144.242 85.0891L145.08 75.6574C147.24 77.8126 149.833 79.4847 152.687 80.563C155.541 81.6413 158.592 82.1012 161.638 81.9122C164.683 81.7232 167.654 80.8897 170.353 79.4668C173.052 78.044 175.418 76.0642 177.295 73.6584Z" fill="#C4330C"/>
<path d="M180.395 57.7514L180.635 61.6773C180.928 66.6031 179.389 71.4631 176.313 75.3222C174.154 78.0469 171.326 80.1672 168.106 81.4774C164.885 82.7877 161.38 83.2433 157.932 82.8001C154.483 82.3569 151.208 81.0299 148.423 78.9479C145.638 76.866 143.439 74.0997 142.039 70.9175C141.121 68.784 140.574 66.5089 140.423 64.1908L140.184 60.253C129.338 60.9352 127.626 47.793 131.66 43.8432L132.091 43.4722L132.45 43.2208C133.485 42.5734 134.728 42.3455 135.925 42.5835C137.122 42.8216 138.183 43.5076 138.891 44.5015C140.194 43.3355 141.109 41.7984 141.513 40.0968C141.905 38.4629 141.796 36.749 141.201 35.1775C142.939 34.9815 144.536 34.1284 145.664 32.7931C146.793 31.4578 147.367 29.7415 147.271 27.996C148.489 28.619 149.857 28.8924 151.221 28.7859C151.951 28.7397 152.67 28.5823 153.352 28.3191C154.328 27.9406 155.214 27.3616 155.952 26.6193C156.691 25.8771 157.265 24.9883 157.638 24.0102C159.524 25.5303 161.885 26.3391 164.308 26.2953C166.73 26.2516 169.06 25.358 170.89 23.7708C171.059 25.5573 171.681 27.2711 172.698 28.75C172.953 29.1378 173.237 29.5058 173.548 29.8512C174.829 31.3638 176.509 32.4874 178.396 33.0949C177.888 34.3926 177.654 35.7816 177.709 37.1743C177.765 38.567 178.109 39.933 178.719 41.186C178.935 41.4254 179.15 41.6648 179.39 41.8922V42.3829C179.486 42.1914 181.066 39.1991 183.951 39.3308C184.771 39.3832 185.567 39.6293 186.273 40.049C186.589 40.2242 186.879 40.4416 187.135 40.6953C191.289 44.5853 190.93 57.0452 180.395 57.7514Z" fill="#EE6D1D"/>
<path d="M163.672 60.8275C161.277 61.3382 158.855 61.809 156.405 62.2399C156.932 56.8058 157.399 51.3598 157.77 45.9138C157.77 45.3393 156.908 45.3513 156.872 45.9138C156.489 51.5394 156.018 57.1609 155.459 62.7785C155.459 63.0897 155.77 63.2572 156.022 63.2094C158.664 62.7545 161.293 62.2439 163.911 61.6773C164.474 61.5696 164.234 60.7078 163.672 60.8275Z" fill="#C4330C"/>
<path d="M147.223 63.7839C149.16 63.7839 150.731 62.2138 150.731 60.2769C150.731 58.3401 149.16 56.77 147.223 56.77C145.286 56.77 143.715 58.3401 143.715 60.2769C143.715 62.2138 145.286 63.7839 147.223 63.7839Z" fill="#C4330C"/>
<path d="M175.092 59.2236C177.029 59.2236 178.6 57.6535 178.6 55.7166C178.6 53.7798 177.029 52.2097 175.092 52.2097C173.155 52.2097 171.584 53.7798 171.584 55.7166C171.584 57.6535 173.155 59.2236 175.092 59.2236Z" fill="#C4330C"/>
<path d="M149.202 53.5587C150.572 53.3344 151.457 51.7775 151.18 50.0814C150.902 48.3852 149.566 47.1922 148.196 47.4165C146.826 47.6408 145.94 49.1976 146.218 50.8938C146.496 52.5899 147.832 53.783 149.202 53.5587Z" fill="#34314C"/>
<path d="M168.714 54.6145C170.089 54.3924 170.98 52.833 170.705 51.1315C170.43 49.43 169.093 48.2306 167.718 48.4528C166.344 48.6749 165.452 50.2343 165.728 51.9358C166.003 53.6374 167.34 54.8366 168.714 54.6145Z" fill="#34314C"/>
<path d="M150.144 43.0054C150.029 42.8059 149.876 42.6312 149.693 42.4914C149.51 42.3517 149.301 42.2497 149.078 42.1915H148.6C148.283 42.19 147.972 42.2771 147.702 42.4429L143.943 44.1185C143.54 44.3529 143.243 44.7349 143.117 45.1838C143.055 45.4117 143.039 45.6495 143.07 45.8836C143.1 46.1178 143.177 46.3435 143.294 46.5481C143.412 46.7526 143.569 46.9319 143.757 47.0757C143.944 47.2195 144.158 47.3251 144.386 47.3862L144.853 47.446C145.173 47.446 145.487 47.3591 145.762 47.1946L149.521 45.519C149.928 45.2751 150.222 44.8802 150.339 44.4204C150.455 43.9607 150.385 43.4735 150.144 43.0652V43.0054Z" fill="#34314C"/>
<path d="M163.145 40.8749C163.19 40.6485 163.28 40.4335 163.41 40.2423C163.539 40.0512 163.706 39.8878 163.899 39.7617L164.33 39.5463C164.636 39.4628 164.958 39.4628 165.264 39.5463L169.358 39.9413C169.584 39.9866 169.799 40.0767 169.991 40.2062C170.182 40.3356 170.345 40.5019 170.471 40.6953C170.602 40.8901 170.693 41.1088 170.739 41.3389C170.785 41.5689 170.786 41.8059 170.74 42.036C170.695 42.2662 170.604 42.485 170.474 42.6801C170.343 42.8752 170.176 43.0427 169.98 43.173L169.549 43.3884C169.243 43.4659 168.922 43.4659 168.616 43.3884L164.522 42.9934C164.062 42.8998 163.658 42.6289 163.396 42.2393C163.137 41.8351 163.046 41.3451 163.145 40.8749Z" fill="#34314C"/>
<path d="M190.26 35.5606C189.658 37.4893 188.603 39.2458 187.183 40.6833C186.926 40.4297 186.636 40.2122 186.321 40.037C185.615 39.6174 184.819 39.3712 183.999 39.3188C181.114 39.1872 179.533 42.1795 179.438 42.371V41.8803C179.198 41.6528 178.983 41.4135 178.767 41.1741C177.851 39.2875 177.541 37.1634 177.881 35.0937C176.164 35.3449 174.411 35.0163 172.901 34.1601C171.306 33.2399 170.076 31.7987 169.418 30.0786C168.465 30.6168 167.423 30.9777 166.341 31.1439C165.102 31.312 163.842 31.2302 162.635 30.9033C161.428 30.5765 160.299 30.0111 159.314 29.2408C158.056 30.3992 156.512 31.2 154.84 31.5599C153.169 31.9198 151.431 31.8258 149.809 31.2875C149.373 32.525 148.661 33.6467 147.726 34.5671C146.114 36.1352 143.986 37.0627 141.74 37.1764C141.857 38.1436 141.804 39.1238 141.584 40.0729C141.181 41.7744 140.266 43.3116 138.963 44.4776C138.255 43.4836 137.194 42.7976 135.997 42.5596C134.799 42.3216 133.557 42.5495 132.522 43.1969L132.163 43.4482L131.732 43.8193C131.261 43.4112 130.876 42.9129 130.601 42.3537C130.325 41.7946 130.164 41.1859 130.128 40.5637C130.111 39.7342 130.319 38.9157 130.73 38.195C131.141 37.4743 131.74 36.8783 132.462 36.4702C131.76 35.7907 131.253 34.9352 130.994 33.9928C130.735 33.0505 130.734 32.0559 130.991 31.113C131.248 30.1701 131.753 29.3135 132.454 28.6325C133.155 27.9516 134.026 27.4714 134.976 27.2419C134.206 26.2696 133.777 25.0707 133.756 23.8304C133.735 22.5901 134.122 21.3774 134.859 20.3793C135.596 19.3812 136.641 18.6533 137.832 18.308C139.024 17.9627 140.296 18.0191 141.453 18.4685C141.1 17.2096 141.182 15.8684 141.687 14.6621C142.191 13.4559 143.088 12.4553 144.233 11.8224C145.377 11.1894 146.701 10.9612 147.991 11.1747C149.281 11.3882 150.462 12.0308 151.341 12.9986C151.539 11.6784 152.138 10.4513 153.059 9.48465C153.98 8.51796 155.176 7.85871 156.486 7.59693C157.795 7.33514 159.153 7.48353 160.374 8.02181C161.596 8.56009 162.622 9.46205 163.312 10.6047C163.825 9.52673 164.655 8.63131 165.691 8.03847C166.728 7.44562 167.92 7.18371 169.11 7.28791C170.299 7.3921 171.428 7.85737 172.346 8.62137C173.263 9.38536 173.925 10.4115 174.242 11.5622C176.086 10.0421 179.031 10.5808 180.731 12.2445C182.339 14.0361 183.226 16.3602 183.221 18.7677C184.073 18.4323 185.008 18.3672 185.899 18.5813C186.79 18.7954 187.594 19.2784 188.201 19.9646C188.792 20.6649 189.229 21.4821 189.483 22.3629C189.736 23.2436 189.801 24.168 189.673 25.0755C189.417 26.8935 188.759 28.6314 187.746 30.1624C189.817 30.7968 190.738 33.4181 190.26 35.5606Z" fill="#34314C"/>
<path d="M171.345 69.17C170.577 70.198 169.541 70.9951 168.35 71.4743C167.159 71.9535 165.86 72.0962 164.593 71.887C162.367 71.5399 159.134 69.6009 159.984 66.8959C160.223 66.3067 160.598 65.7826 161.079 65.3665C161.56 64.9503 162.132 64.6541 162.75 64.502C163.852 64.1548 165.035 64.1548 166.138 64.502C166.428 63.465 167.035 62.5444 167.873 61.8688C168.399 61.459 169.05 61.2444 169.716 61.2619C170.382 61.2794 171.022 61.5278 171.525 61.9645C173.584 63.8437 172.782 67.2309 171.345 69.17Z" fill="#F7E9DB"/>
<path d="M39.565 139.74C39.565 139.74 57.6417 228.839 77.7295 224.351C97.8173 219.862 99.7327 209.928 96.3568 201.609C92.9809 193.291 59.7726 130.764 59.7726 130.764C59.7726 130.764 59.7726 118.363 56.4086 108.094C53.0447 97.8243 54.3855 84.4187 52.925 82.7909C51.4645 81.1631 45.2873 78.9369 46.1851 101.583C46.1851 101.583 20.7342 72.2939 16.8435 76.4473C12.9529 80.6006 31.2091 101.02 31.2091 101.02C31.2091 101.02 6.70384 81.2709 4.38141 84.6941C2.05898 88.1173 23.0686 106.239 23.0686 106.239C23.0686 106.239 5.5905 91.8756 3.02865 94.5687C0.46679 97.2617 20.9856 113.815 20.9856 113.815C20.9856 113.815 0.0477848 111.146 -0.0120717 114.821C-0.0719281 118.495 19.7406 120.937 19.7406 120.937C19.7406 120.937 28.4197 135.467 39.565 139.74Z" fill="#EE6D1D"/>
<path d="M37.4461 100.446C36.0215 101.283 34.6448 102.205 33.2921 103.151C33.2779 103.098 33.2535 103.05 33.2202 103.007L30.826 100.314C30.7987 100.262 30.7604 100.217 30.7139 100.181C30.6673 100.145 30.6136 100.12 30.5564 100.107C30.4991 100.094 30.4397 100.093 30.3823 100.105C30.3248 100.117 30.2706 100.141 30.2235 100.176C30.1763 100.211 30.1372 100.256 30.109 100.307C30.0807 100.359 30.0639 100.416 30.0597 100.474C30.0556 100.533 30.0641 100.592 30.0848 100.647C30.1055 100.702 30.1378 100.751 30.1795 100.793L32.5738 103.486L32.6935 103.581C30.3482 105.259 28.1167 107.091 26.0135 109.063C24.6967 107.667 23.3878 106.259 22.087 104.838C22.021 104.756 21.9274 104.702 21.8237 104.684C21.7201 104.666 21.6136 104.687 21.5243 104.743C21.4369 104.807 21.3781 104.903 21.3602 105.01C21.3423 105.118 21.3668 105.228 21.4285 105.317L25.3671 109.566H25.4389C24.7805 110.2 24.1221 110.847 23.4996 111.505C23.1404 111.888 23.7629 112.391 24.1221 112.02C28.1944 107.745 32.8396 104.056 37.9249 101.056C38.332 100.841 37.8531 100.182 37.4461 100.446Z" fill="#C4330C"/>
<path d="M42.3306 111.182C41.0174 115.127 40.3031 119.246 40.2117 123.402C40.2117 123.917 41.0018 123.821 41.0138 123.307C41.1098 119.292 41.8038 115.315 43.0728 111.505C43.2404 111.026 42.4982 110.679 42.3306 111.182Z" fill="#C4330C"/>
<path d="M55.4031 134.354C52.1898 135.412 49.0436 136.663 45.9817 138.101C45.5148 138.316 45.8141 139.07 46.2809 138.855C49.3366 137.412 52.4791 136.161 55.6904 135.108C56.1333 134.989 55.846 134.235 55.4031 134.354Z" fill="#C4330C"/>
<path d="M297.81 80.0022C297.81 80.0022 309.661 170.142 289.202 172.416C268.743 174.691 263.716 165.917 264.206 157C264.697 148.083 275.795 78.0991 275.795 78.0991C275.795 78.0991 271.76 66.3693 271.617 55.573C271.473 44.7768 265.834 32.5204 266.684 30.5095C267.534 28.4987 272.67 24.3933 279.158 46.0695C279.158 46.0695 293.716 10.102 298.732 12.7113C303.748 15.3206 293.129 40.6235 293.129 40.6235C293.129 40.6235 309.889 13.9921 313.193 16.4697C316.497 18.9473 302.538 42.9695 302.538 42.9695C302.538 42.9695 314.402 23.6751 317.694 25.4226C320.986 27.1701 306.92 49.4568 306.92 49.4568C306.92 49.4568 325.954 40.1328 327.151 43.5919C328.349 47.051 310.463 55.7885 310.463 55.7885C310.463 55.7885 306.98 72.3419 297.81 80.0022Z" fill="#EE6D1D"/>
<path d="M287.095 42.1914C288.712 42.5266 290.316 42.9455 291.884 43.3884C291.872 43.3372 291.872 43.2839 291.884 43.2327L293.237 39.9173C293.27 39.8165 293.341 39.7327 293.435 39.6836C293.529 39.6344 293.638 39.6238 293.74 39.654C293.841 39.6871 293.926 39.7575 293.977 39.8508C294.028 39.9442 294.041 40.0536 294.015 40.1567L292.698 43.3884C292.677 43.4364 292.649 43.4809 292.614 43.52C295.382 44.3378 298.09 45.3456 300.719 46.5363L303.113 41.2578C303.146 41.1571 303.217 41.0733 303.311 41.0241C303.405 40.9749 303.514 40.9643 303.616 40.9945C303.667 41.0095 303.714 41.0346 303.755 41.0681C303.796 41.1017 303.829 41.1432 303.854 41.1901C303.879 41.237 303.894 41.2883 303.898 41.3411C303.902 41.3938 303.896 41.4469 303.879 41.4972L301.485 46.7995C302.323 47.1945 303.137 47.5895 303.951 47.9965C304.418 48.2358 303.951 48.9301 303.532 48.6907C298.289 45.9665 292.693 43.9846 286.904 42.8019C286.353 42.8019 286.593 42.0239 287.095 42.1914Z" fill="#C4330C"/>
<path d="M285.922 53.8854C288.454 57.186 290.472 60.85 291.908 64.7534C292.088 65.2321 291.297 65.4117 291.118 64.9209C289.726 61.1587 287.782 57.6248 285.348 54.4359C285.024 54.029 285.599 53.4664 285.922 53.8854Z" fill="#C4330C"/>
<path d="M281.158 80.074C284.536 80.0281 287.915 80.192 291.273 80.5647C291.788 80.5647 291.752 81.4265 291.273 81.3666C287.915 80.9979 284.536 80.838 281.158 80.8879C280.595 80.8879 280.631 80.086 281.158 80.074Z" fill="#C4330C"/>
<path d="M366.92 65.304C365.292 67.1849 363.177 68.581 360.808 69.339C358.438 70.097 355.906 70.1876 353.488 69.6009C348.46 68.2724 344.653 64.4542 340.092 62.192C337.698 60.9951 335.053 60.0255 333.173 58.0147C332.934 57.7684 332.714 57.5044 332.515 57.2248C332.292 56.9431 332.088 56.6473 331.904 56.339C329.187 51.5514 331.904 45.5668 334.921 41.605C336.491 39.4415 338.473 37.6096 340.753 36.2149C343.034 34.8201 345.568 33.8899 348.209 33.4778C350.721 33.1979 353.264 33.4279 355.685 34.1539C358.106 34.8799 360.356 36.087 362.299 37.703C366.419 40.9759 369.289 45.5651 370.428 50.7015C370.994 53.2419 370.972 55.8779 370.364 58.4085C369.756 60.9392 368.578 63.2976 366.92 65.304Z" fill="#CA3434"/>
<path d="M374.306 81.8694C374.306 99.8232 362.335 110.595 347.084 110.595C331.832 110.595 319.119 99.8232 319.119 81.8694C319.119 63.9156 331.473 53.251 346.713 53.251C361.952 53.251 374.306 63.8916 374.306 81.8694Z" fill="#CA3434"/>
<path d="M239.845 25.6739C239.354 29.528 238.181 33.2624 237.451 37.0925C236.433 42.3829 236.253 47.8648 235.32 53.1073C234.422 58.1823 232.686 63.2931 229.214 67.0754C229.214 68.38 229.286 69.6727 229.334 70.9774L209.354 66.0341C209.498 63.9754 209.653 61.9167 209.797 59.87C206.972 53.7777 205.918 47.003 203.811 40.5995C201.417 33.2504 197.682 26.3562 195.85 18.8515C195.712 18.382 195.667 17.8899 195.719 17.4032C195.745 17.1589 195.84 16.9271 195.993 16.7344C196.145 16.5417 196.349 16.396 196.581 16.314C197.335 16.1225 197.993 16.8167 198.448 17.5109C201.169 21.3791 203.571 25.4621 205.631 29.7195C203.745 23.0813 202.38 16.3062 201.549 9.45569C201.304 8.01189 201.272 6.54004 201.453 5.0869C201.549 4.51238 201.788 3.88995 202.363 3.71041C202.635 3.68852 202.907 3.73901 203.153 3.85674C203.399 3.97448 203.61 4.15525 203.763 4.38069C204.649 5.52445 205.322 6.81763 205.751 8.19887C208.312 15.0692 210.371 22.1191 212.419 29.1689H212.586C210.886 20.3835 209.174 11.5503 208.851 2.60927C208.803 2.09409 208.851 1.57442 208.995 1.07725C209.069 0.829633 209.21 0.607144 209.402 0.434078C209.594 0.261013 209.83 0.144003 210.084 0.0957642C210.426 0.10775 210.758 0.209096 211.048 0.389734C211.338 0.570373 211.575 0.823956 211.736 1.1251C213.081 3.15121 214.065 5.39455 214.645 7.75601C216.13 12.8549 217.267 18.0495 218.237 23.316C217.866 17.8341 217.53 12.3522 217.387 6.85832C217.241 5.06319 217.411 3.25641 217.889 1.5201C218.129 0.80195 218.692 -3.91596e-05 219.434 0.119653C220.176 0.239345 220.368 0.789928 220.631 1.31657C223.696 8.01933 224.222 15.548 225.419 22.8611C226.189 27.7139 227.273 32.5117 228.664 37.2242C230.002 32.4952 232.161 28.0386 235.044 24.0581C235.448 23.438 235.964 22.8983 236.565 22.4662C236.864 22.2514 237.212 22.1139 237.578 22.0659C237.943 22.0178 238.315 22.0608 238.66 22.1909C239.917 22.6218 240.012 24.3214 239.845 25.6739Z" fill="#FF9953"/>
<path d="M221.9 23.1724C220.906 23.5674 219.937 24.0223 218.979 24.4891C218.883 23.747 218.775 22.9929 218.68 22.2508C218.665 22.1376 218.606 22.0345 218.517 21.9631C218.428 21.8917 218.315 21.8576 218.201 21.8678C218.087 21.8828 217.984 21.9409 217.913 22.0301C217.842 22.1194 217.807 22.2327 217.818 22.3465C217.925 23.1485 218.045 23.9384 218.153 24.7404C218.142 24.7877 218.142 24.8367 218.153 24.884C214.749 26.6526 211.589 28.8576 208.755 31.4432C208.348 31.8142 208.851 32.5084 209.258 32.1373C213.044 28.6758 217.413 25.9122 222.163 23.9744C222.249 23.9251 222.316 23.8475 222.351 23.755C222.387 23.6624 222.389 23.5603 222.358 23.4661C222.327 23.3719 222.265 23.2912 222.181 23.2377C222.098 23.1842 221.998 23.1611 221.9 23.1724Z" fill="#EE6D1D"/>
<path d="M206.122 29.0971C206.053 29.0051 205.951 28.9439 205.838 28.9271C205.725 28.9102 205.609 28.9391 205.517 29.0073C205.425 29.0756 205.364 29.1777 205.347 29.291C205.33 29.4044 205.359 29.5197 205.427 29.6118C205.423 29.6476 205.423 29.6837 205.427 29.7195L205.535 29.947C205.535 30.0906 205.655 30.2462 205.703 30.3898C205.751 30.5334 205.703 30.5334 205.703 30.6053V30.6771C205.703 30.6771 205.703 30.7489 205.703 30.7728C205.703 30.7968 205.703 31.108 205.703 31.2755C205.702 31.3366 205.714 31.3971 205.739 31.4531C205.763 31.509 205.799 31.5591 205.845 31.6001C205.89 31.6411 205.943 31.672 206.002 31.6907C206.06 31.7094 206.121 31.7155 206.182 31.7087C206.243 31.7018 206.301 31.6822 206.354 31.651C206.406 31.6198 206.452 31.5778 206.487 31.5278C206.522 31.4778 206.546 31.4209 206.557 31.3609C206.568 31.3009 206.567 31.2391 206.553 31.1798C206.567 30.462 206.42 29.7503 206.122 29.0971Z" fill="#EE6D1D"/>
<path d="M223.875 46.7038C221.05 42.8213 217.456 39.5618 213.316 37.1285C212.838 36.8412 212.49 37.6311 212.957 37.9064C216.967 40.2927 220.446 43.4739 223.181 47.2544C223.504 47.6493 224.198 47.1467 223.875 46.7038Z" fill="#EE6D1D"/>
<path d="M433.241 359.28C433.241 360.261 433.241 361.243 433.241 362.236C433.313 363.078 433.102 363.921 432.642 364.63C432.438 364.896 432.16 365.097 431.843 365.207C431.527 365.318 431.184 365.333 430.859 365.252C430.566 365.131 430.303 364.951 430.084 364.722C429.866 364.493 429.697 364.221 429.59 363.924C429.24 363.067 428.948 362.187 428.716 361.29C428.429 360.333 428.153 359.363 427.89 358.406C427.627 357.448 427.435 356.646 427.219 355.761C427.112 357.568 426.968 359.351 426.693 361.171C426.356 363.634 425.717 366.046 424.789 368.352C424.43 369.202 423.975 370.243 423.018 370.519C422.641 370.612 422.244 370.568 421.897 370.395C421.551 370.221 421.277 369.93 421.126 369.573C420.778 368.667 420.647 367.691 420.743 366.725C420.743 365.3 420.743 363.864 420.827 362.428C420.827 361.35 420.827 360.261 420.827 359.172C420.683 359.794 420.527 360.369 420.36 361.027C419.851 362.93 419.227 364.801 418.492 366.629C417.942 367.945 416.577 369.609 414.985 368.711C414.696 368.529 414.452 368.283 414.272 367.993C414.091 367.703 413.979 367.376 413.943 367.036C413.797 366.061 413.741 365.076 413.776 364.091C413.78 362.811 413.855 361.533 414.003 360.261C413.5 361.123 412.974 361.985 412.387 362.811C412.019 363.486 411.461 364.039 410.783 364.402C410.499 364.517 410.184 364.528 409.893 364.434C409.602 364.34 409.354 364.147 409.191 363.888C408.948 363.425 408.864 362.895 408.951 362.38C409.068 361.574 409.228 360.775 409.43 359.986C409.801 358.238 410.16 356.491 410.531 354.731C410.903 352.972 411.298 351.141 411.729 349.381C412.153 347.676 412.465 345.945 412.662 344.198C412.749 342.615 412.567 341.029 412.124 339.507C411.521 338.518 410.97 337.499 410.472 336.454C408.149 331.535 407.168 325.754 409.083 320.547C410.295 317.177 412.773 314.412 415.99 312.839C416.21 312.683 416.437 312.539 416.673 312.408C418.044 311.611 419.632 311.267 421.21 311.427C422.759 311.641 424.187 312.38 425.256 313.521C427.77 316.095 428.405 319.781 429.111 323.169C429.937 327.142 430.703 331.14 431.338 335.138C432.636 343.119 433.272 351.194 433.241 359.28Z" fill="#FF9953"/>
<path d="M420.528 340.225C420.533 344.344 420.01 348.447 418.971 352.433C418.72 353.235 418.229 354.444 417.188 354.348C416.326 354.265 416.062 353.151 415.895 352.421C415.509 350.374 415.261 348.302 415.152 346.221C415.008 344.156 414.437 342.143 413.476 340.308C413.201 339.83 412.507 340.308 412.782 340.811C413.753 342.768 414.292 344.911 414.362 347.095C414.395 349.287 414.721 351.465 415.332 353.57C415.436 353.931 415.624 354.261 415.88 354.536C416.136 354.81 416.452 355.021 416.804 355.15C417.223 355.236 417.658 355.198 418.056 355.04C418.453 354.883 418.796 354.613 419.043 354.265C419.586 353.417 419.953 352.468 420.12 351.476C420.4 350.359 420.62 349.228 420.779 348.088C421.138 345.527 421.258 342.942 421.378 340.368C421.366 339.854 420.528 339.71 420.528 340.225Z" fill="#EE6D1D"/>
<path d="M414.71 355.39C414.458 356.946 414.207 358.49 413.943 360.046C413.934 360.155 413.966 360.263 414.033 360.349C414.101 360.436 414.198 360.493 414.307 360.51C414.415 360.526 414.525 360.501 414.616 360.44C414.706 360.378 414.77 360.284 414.793 360.177C415.045 358.621 415.308 357.077 415.559 355.521C415.569 355.412 415.537 355.304 415.469 355.218C415.402 355.131 415.304 355.074 415.196 355.057C415.088 355.041 414.978 355.066 414.887 355.127C414.797 355.189 414.733 355.283 414.71 355.39Z" fill="#EE6D1D"/>
<path d="M420.791 351.739C420.659 354.133 420.515 356.599 420.384 359.028C420.384 359.579 421.198 359.723 421.234 359.16L421.641 351.871C421.725 351.332 420.827 351.189 420.791 351.739Z" fill="#EE6D1D"/>
<path d="M426.705 345.012C426.597 344.474 425.735 344.558 425.843 345.108C426.606 348.803 427.007 352.563 427.04 356.335C427.04 356.886 427.89 356.79 427.89 356.239C427.861 352.468 427.464 348.707 426.705 345.012Z" fill="#EE6D1D"/>
<path d="M339.614 264.519L280.583 261.647C280.583 261.647 260.028 260.689 257.634 397.39H313.097L330.252 320.918L339.614 397.39H390.061C390.061 397.39 402.487 276.501 372.846 264.041L339.614 264.519Z" fill="#34314C"/>
<path d="M377.982 269.056C318.472 286.447 287.634 265.465 287.634 265.465L296.361 215.517L303.771 143.571L365.687 146.443L372.87 228.42C372.307 228.48 377.982 269.056 377.982 269.056Z" fill="#F7E9DB"/>
<path d="M353.237 193.183C353.169 196.487 352.91 199.784 352.459 203.058C352.052 206.337 351.621 209.617 351.094 212.872C350.088 219.168 348.7 225.715 345.683 231.377C344.486 233.567 342.798 235.793 340.248 236.332C337.435 236.918 334.897 235.075 333.005 233.232C330.527 230.838 328.217 228.253 325.823 225.751C323.68 223.477 321.441 221.263 319.514 218.785C317.682 216.559 316.395 213.936 315.755 211.125C315.278 208.107 315.694 205.016 316.952 202.232C318.216 199.374 319.824 196.681 321.74 194.212C323.502 191.789 325.413 189.479 327.463 187.294C328.193 186.516 328.947 185.786 329.725 185.044C331.006 183.679 332.359 182.363 333.772 181.13C335.969 179.114 338.377 177.34 340.954 175.84C342.211 175.071 343.674 174.708 345.144 174.798C346.37 174.947 347.518 175.479 348.424 176.318C350.344 178.299 351.65 180.793 352.183 183.5C352.965 186.666 353.319 189.923 353.237 193.183Z" fill="#FFB344"/>
<path d="M358.277 221.347C359.474 229.725 349.993 233.591 343.372 230.048C336.333 223.034 333.676 194.009 350.4 200.64C357.846 204.434 358.708 213.878 358.277 221.347Z" fill="#EE6D1D"/>
<path d="M322.686 193.877C318.892 195.932 314.52 196.66 310.265 195.947C306.009 195.234 302.115 193.119 299.198 189.939C298.827 189.532 298.133 190.035 298.504 190.442C300.83 192.985 303.764 194.895 307.03 195.994C310.297 197.094 313.789 197.345 317.179 196.726C319.213 196.348 321.175 195.657 322.997 194.679C323.476 194.428 323.177 193.614 322.686 193.877Z" fill="#EACAAF"/>
<path d="M371.673 196.822C367.545 199.239 362.766 200.307 358.001 199.878C353.237 199.449 348.726 197.544 345.096 194.428C344.677 194.057 344.139 194.727 344.558 195.086C348.332 198.324 353.027 200.297 357.981 200.727C362.936 201.156 367.9 200.021 372.175 197.48C372.642 197.229 372.14 196.594 371.673 196.822Z" fill="#EACAAF"/>
<path d="M365.46 100.11L365.232 103.881C365.15 105.292 364.909 106.689 364.514 108.046C363.205 112.627 360.251 116.564 356.219 119.103C352.186 121.641 347.358 122.602 342.66 121.801C337.963 121 333.726 118.494 330.763 114.763C327.799 111.032 326.317 106.339 326.601 101.583L326.828 97.8243C316.054 97.178 316.329 83.5929 321.082 80.8639C324.757 78.7693 326.984 81.9053 327.558 82.8389C330.155 82.7328 332.734 82.3638 335.256 81.7377C341.147 80.4365 346.602 77.6372 351.094 73.6106C351.946 72.8304 352.746 71.9947 353.488 71.109C354.651 69.6983 355.67 68.1746 356.529 66.5607C358.92 68.4104 360.967 70.6672 362.574 73.2276C363.686 74.9505 364.571 76.8089 365.208 78.7574C365.928 80.8894 366.331 83.1154 366.405 85.3644C366.681 84.9694 369.458 81.1871 373.229 83.9759C373.784 84.4066 374.238 84.9542 374.558 85.5798C374.781 85.9883 374.966 86.4172 375.108 86.8605C376.677 91.9594 374.115 100.625 365.46 100.11Z" fill="#FF9953"/>
<path d="M381.74 138.651C380.859 140.654 379.746 142.546 378.424 144.289C362.155 166.563 329.342 168.084 310.595 147.88C305.998 142.924 302.215 138.304 300.192 134.713C308.668 132.978 329.33 128.98 329.33 128.98L329.701 126.993L330.898 120.47L331.76 115.946C334.905 119.309 339.151 121.433 343.728 121.934C348.306 122.435 352.911 121.278 356.709 118.675L357.056 123.821L357.487 130.021C358.995 130.225 381.74 138.568 381.74 138.651Z" fill="#FF9953"/>
<path d="M348.017 101.738C345.767 101.738 343.504 101.643 341.254 101.535C342.85 96.795 344.35 92.0313 345.755 87.2436C345.898 86.7409 345.108 86.5733 344.953 87.076C343.46 92.0233 341.916 96.9426 340.32 101.834C340.236 102.109 340.511 102.325 340.751 102.325C343.193 102.452 345.639 102.528 348.089 102.552C348.592 102.552 348.544 101.738 348.017 101.738Z" fill="#EE6D1D"/>
<path d="M333.46 101.152C335.232 101.152 336.669 99.7156 336.669 97.944C336.669 96.1724 335.232 94.7363 333.46 94.7363C331.688 94.7363 330.252 96.1724 330.252 97.944C330.252 99.7156 331.688 101.152 333.46 101.152Z" fill="#EE6D1D"/>
<path d="M359.234 102.684C361.006 102.684 362.443 101.248 362.443 99.4761C362.443 97.7045 361.006 96.2683 359.234 96.2683C357.463 96.2683 356.026 97.7045 356.026 99.4761C356.026 101.248 357.463 102.684 359.234 102.684Z" fill="#EE6D1D"/>
<path d="M338.932 89.6187C339.025 88.0548 338.073 86.7259 336.806 86.6507C335.539 86.5754 334.436 87.7822 334.343 89.3462C334.251 90.9101 335.202 92.2389 336.47 92.3141C337.737 92.3894 338.839 91.1826 338.932 89.6187Z" fill="#34314C"/>
<path d="M356.313 91.268C356.406 89.7041 355.454 88.3753 354.187 88.3C352.92 88.2248 351.817 89.4315 351.724 90.9954C351.631 92.5594 352.583 93.8882 353.85 93.9634C355.118 94.0387 356.22 92.8319 356.313 91.268Z" fill="#34314C"/>
<path d="M339.542 83.1262C339.413 82.7196 339.129 82.38 338.752 82.1805L338.333 82.025C338.055 81.9474 337.761 81.9474 337.483 82.025L333.796 82.7671C333.593 82.8293 333.406 82.9312 333.243 83.0668C333.081 83.2025 332.947 83.3691 332.85 83.557C332.647 83.9489 332.608 84.4053 332.742 84.8258C332.879 85.2281 333.161 85.5651 333.532 85.7713L333.939 85.915C334.222 85.9864 334.518 85.9864 334.801 85.915L338.488 85.1728C338.894 85.0352 339.232 84.7485 339.434 84.3709C339.633 83.9865 339.672 83.539 339.542 83.1262Z" fill="#34314C"/>
<path d="M351.597 83.8443C351.774 83.4547 352.096 83.1498 352.495 82.9945L352.926 82.8987C353.217 82.8622 353.512 82.9121 353.776 83.0423L357.367 84.2393C357.561 84.3252 357.736 84.4488 357.882 84.6029C358.028 84.757 358.142 84.9385 358.217 85.1369C358.385 85.5433 358.385 85.9994 358.217 86.4057C358.04 86.7922 357.717 87.0933 357.319 87.2435L356.888 87.3512C356.601 87.3762 356.313 87.3267 356.05 87.2076L352.459 86.0107C352.066 85.8284 351.762 85.4985 351.611 85.0927C351.461 84.6869 351.477 84.2381 351.657 83.8443H351.597Z" fill="#34314C"/>
<path d="M356.768 118.711C356.768 118.711 352.566 130.68 329.713 127.089L330.91 120.566L331.772 116.041C334.917 119.404 339.163 121.529 343.74 122.03C348.318 122.53 352.923 121.374 356.72 118.77L356.768 118.711Z" fill="#EE6D1D"/>
<path d="M353.919 103.964C353.099 105.109 352.022 106.045 350.775 106.698C349.527 107.351 348.144 107.702 346.736 107.723C346.186 107.723 346.281 108.585 346.832 108.585C348.342 108.544 349.822 108.156 351.157 107.45C352.492 106.744 353.646 105.74 354.53 104.515C354.901 104.06 354.242 103.51 353.919 103.964Z" fill="#34314C"/>
<path d="M330.252 124.204L329.342 128.992L320.89 130.656L291.645 324.03C256.688 321.517 241.868 300.595 241.868 300.595L255.731 187.33C255.731 187.33 201.788 146.934 196.281 129.088C190.774 111.242 205.056 60.8634 205.056 60.8634L209.354 61.9287L229.334 66.872L232.063 67.5542V108.86L305.208 127.436C313.085 124.023 321.766 122.903 330.252 124.204Z" fill="#2DB2AB"/>
<path d="M357.08 123.857C360.612 123.931 364.087 124.772 367.262 126.322C370.437 127.872 373.237 130.094 375.467 132.834C375.467 132.834 397.195 137.622 401.254 151.985C405.312 166.348 427.351 310.158 427.351 310.158C427.351 310.158 425.196 325.096 407.515 326.915L397.471 311.858L397.95 318.788C397.95 318.788 384.781 332.05 369.027 330.027L357.546 130.081L357.08 123.857Z" fill="#2DB2AB"/>
<path d="M305.711 169.987C304.921 161.504 304.562 152.987 304.633 144.468C304.633 139.617 304.817 134.769 305.184 129.926C305.184 129.387 304.37 129.243 304.334 129.794C303.762 138.332 303.626 146.893 303.927 155.444C304.225 164.029 304.957 172.594 306.118 181.106C306.78 185.894 307.578 190.645 308.512 195.361C308.608 195.9 309.47 195.804 309.362 195.266C307.721 186.906 306.502 178.469 305.711 169.987Z" fill="#009688"/>
<path d="M376.126 134.63C374.607 150.168 371.494 165.51 366.836 180.412C365.519 184.609 364.083 188.766 362.527 192.884C362.335 193.398 363.113 193.757 363.305 193.231C366.087 185.916 368.484 178.461 370.487 170.896C372.478 163.34 374.076 155.685 375.276 147.963C375.954 143.583 376.513 139.194 376.952 134.797C377.024 134.223 376.234 134.079 376.126 134.63Z" fill="#009688"/>
<path d="M253.636 157.096C253.348 154.51 253.081 151.917 252.834 149.316C252.809 149.214 252.748 149.124 252.662 149.064C252.576 149.003 252.471 148.977 252.366 148.988C252.262 149 252.165 149.05 252.095 149.128C252.024 149.206 251.985 149.307 251.984 149.412C252.846 158.604 253.991 167.78 255.42 176.941C255.827 179.51 256.254 182.084 256.7 184.661C256.796 185.2 257.658 185.116 257.562 184.565C255.958 175.421 254.649 166.264 253.636 157.096Z" fill="#009688"/>
<path d="M253.696 178.389C251.301 171.311 248.867 164.229 246.393 157.144C246.213 156.617 245.411 156.928 245.591 157.455L252.893 178.712C253.073 179.227 253.875 178.916 253.696 178.389Z" fill="#009688"/>
<path d="M394.514 264.184C393.596 249.821 392.523 235.482 391.294 221.167C390.599 213.052 389.853 204.941 389.055 196.834C389.03 196.731 388.969 196.642 388.883 196.582C388.797 196.521 388.692 196.494 388.588 196.506C388.483 196.518 388.387 196.567 388.316 196.645C388.246 196.723 388.206 196.824 388.205 196.929C389.602 211.292 390.855 225.691 391.964 240.126C393.073 254.561 394.011 268.924 394.777 283.215C395.232 291.354 395.631 299.489 395.974 307.621C395.974 308.171 396.86 308.075 396.836 307.525C396.214 293.066 395.44 278.619 394.514 264.184Z" fill="#009688"/>
<path d="M289.825 265.692C287.381 270.982 284.319 275.964 280.703 280.534C277.098 285.078 272.976 289.187 268.42 292.779C265.833 294.802 263.118 296.657 260.292 298.332C259.813 298.608 260.292 299.302 260.795 299.027C270.973 293.016 279.587 284.687 285.934 274.717C287.718 271.936 289.317 269.041 290.723 266.052C290.77 265.932 290.769 265.799 290.718 265.682C290.668 265.564 290.573 265.471 290.453 265.423C290.334 265.376 290.201 265.377 290.083 265.428C289.966 265.478 289.873 265.573 289.825 265.692Z" fill="#009688"/>
<path d="M390.264 308.566C383.391 300.455 378.246 291.026 375.144 280.857C374.269 277.989 373.566 275.072 373.037 272.12C372.93 271.581 372.08 271.665 372.175 272.216C374.092 282.782 378.145 292.846 384.087 301.792C385.767 304.325 387.598 306.755 389.57 309.069C389.917 309.488 390.599 308.985 390.264 308.566Z" fill="#009688"/>
<path d="M300.456 161.8C293.814 173.043 289.138 185.336 286.629 198.15C286.317 199.778 288.855 200.173 289.179 198.545C291.656 185.963 296.264 173.897 302.802 162.865C303.652 161.441 301.294 160.387 300.456 161.8Z" fill="#F7E9DB"/>
<path d="M375.36 172.01C374.893 170.418 372.499 171.351 372.966 172.943C376.385 184.753 377.447 197.121 376.09 209.341C375.899 210.993 378.484 211.4 378.628 209.748C380.04 197.076 378.929 184.25 375.36 172.01Z" fill="#F7E9DB"/>
<path d="M305.878 195.134C304.099 211.596 302.159 228.041 300.06 244.471C297.961 260.901 295.763 277.227 293.464 293.449C292.155 302.593 290.807 311.73 289.418 320.858C289.408 320.967 289.44 321.076 289.508 321.162C289.575 321.248 289.673 321.306 289.781 321.322C289.889 321.339 290 321.314 290.09 321.252C290.181 321.191 290.244 321.097 290.268 320.99C292.766 304.616 295.124 288.23 297.343 271.833C299.562 255.435 301.641 239.077 303.58 222.759C304.681 213.59 305.731 204.414 306.728 195.23C306.8 194.715 305.938 194.583 305.878 195.134Z" fill="#F7E9DB"/>
<path d="M368.213 274.921C367.104 257.733 366.389 240.529 366.07 223.309C365.894 213.614 365.843 203.915 365.914 194.212C365.914 193.662 365.064 193.757 365.052 194.308C364.917 211.52 365.184 228.735 365.855 245.955C366.525 263.175 367.59 280.359 369.051 297.507C369.849 307.17 370.799 316.825 371.9 326.472C371.925 326.574 371.986 326.664 372.072 326.724C372.158 326.784 372.263 326.811 372.367 326.799C372.472 326.788 372.568 326.738 372.639 326.66C372.709 326.582 372.749 326.481 372.75 326.376C370.851 309.276 369.338 292.124 368.213 274.921Z" fill="#F7E9DB"/>
<path d="M68.1646 397.402H430.619" stroke="#1D1D1B" stroke-linecap="round" stroke-linejoin="round"/>
<path d="M383.812 127.915C383.812 127.915 404.845 124.204 411.034 159.466L436.401 307.333" stroke="#1D1D1B" stroke-linecap="round" stroke-linejoin="round"/>
</g>
<defs>
<clipPath id="clip0_728_406">
<rect width="437" height="398" fill="white"/>
</clipPath>
</defs>
</svg>
