<svg width="249" height="230" viewBox="0 0 249 230" fill="none" xmlns="http://www.w3.org/2000/svg">
<g clip-path="url(#clip0_738_443)">
<path d="M33.785 211.609L11.8467 173.509C14.4208 174.288 17.0962 174.682 19.7856 174.675H112.215V221.477H50.8558C47.3913 221.497 43.9839 220.594 40.9838 218.859C37.9836 217.125 35.4989 214.622 33.785 211.609Z" fill="#52AE32"/>
<path d="M19.7445 167.539C16.2858 167.536 12.8886 166.623 9.89381 164.891C6.89901 163.16 4.41198 160.67 2.68241 157.672C0.952837 154.674 0.0415689 151.273 0.040041 147.811C0.038513 144.349 0.946781 140.947 2.6737 137.948L33.3325 84.7917L73.891 108.193L39.6124 167.539H19.7445Z" fill="#52AE32"/>
<path d="M60.4401 84.5996L78.9506 116.729L23.3781 84.6133L60.4401 84.5996Z" fill="#52AE32"/>
<path d="M246.326 157.478L224.388 195.578C223.781 192.961 222.788 190.449 221.44 188.126L175.219 107.986L215.709 84.6543L246.367 137.81C248.102 140.798 249.012 144.194 249.005 147.65C248.998 151.106 248.073 154.497 246.326 157.478Z" fill="#52AE32"/>
<path d="M215.215 191.694C216.942 194.692 217.851 198.092 217.851 201.552C217.85 205.012 216.94 208.412 215.212 211.409C213.483 214.406 210.998 216.895 208.004 218.626C205.011 220.357 201.615 221.269 198.158 221.271H136.84V174.483H205.288L215.215 191.694Z" fill="#52AE32"/>
<path d="M123.101 197.884L141.639 165.768V230L123.101 197.884Z" fill="#52AE32"/>
<path d="M93.3886 -5.89256e-05H137.348C135.386 1.83619 133.708 3.95487 132.37 6.286L86.2313 86.4111L45.7413 63.079L76.4002 9.92294C78.0992 6.91018 80.5676 4.40376 83.5528 2.66012C86.5379 0.916488 89.9324 -0.00166733 93.3886 -5.89256e-05Z" fill="#52AE32"/>
<path d="M138.554 9.85428C140.286 6.85943 142.775 4.37325 145.77 2.64475C148.765 0.916255 152.161 0.00634766 155.618 0.00634766C159.075 0.00634766 162.472 0.916255 165.467 2.64475C168.462 4.37325 170.95 6.85943 172.682 9.85428L203.341 63.0104L162.851 86.3425L128.572 26.9965L138.554 9.85428Z" fill="#52AE32"/>
<path d="M189.959 86.6172L152.896 86.6034L208.469 54.4874L189.959 86.6172Z" fill="#52AE32"/>
</g>
<defs>
<clipPath id="clip0_738_443">
<rect width="249" height="230" fill="white"/>
</clipPath>
</defs>
</svg>
