<svg width="296" height="273" viewBox="0 0 296 273" fill="none" xmlns="http://www.w3.org/2000/svg">
<g clip-path="url(#clip0_731_2238)">
<path d="M40.1621 251.17L14.0828 205.947C17.1427 206.873 20.3232 207.339 23.5202 207.332H133.396V262.884H60.455C56.3366 262.908 52.2861 261.835 48.7196 259.777C45.1532 257.718 42.1995 254.747 40.1621 251.17Z" fill="#52AE32"/>
<path d="M23.4714 198.861C19.3599 198.858 15.3214 197.775 11.7613 195.719C8.20124 193.663 5.24477 190.708 3.18874 187.15C1.1327 183.591 0.0494261 179.554 0.0476097 175.445C0.0457933 171.336 1.1255 167.298 3.17839 163.738L39.6242 100.644L87.8383 128.42L47.0894 198.861H23.4714Z" fill="#52AE32"/>
<path d="M71.8485 100.416L93.8529 138.553L27.7908 100.432L71.8485 100.416Z" fill="#52AE32"/>
<path d="M292.822 186.92L266.742 232.143C266.021 229.036 264.84 226.055 263.238 223.297L208.292 128.175L256.425 100.481L292.87 163.575C294.932 167.122 296.014 171.152 296.006 175.254C295.997 179.356 294.898 183.382 292.822 186.92Z" fill="#52AE32"/>
<path d="M255.838 227.532C257.891 231.09 258.972 235.126 258.971 239.233C258.97 243.341 257.888 247.376 255.834 250.933C253.779 254.49 250.824 257.445 247.266 259.499C243.708 261.554 239.671 262.637 235.561 262.639H162.67V207.104H244.037L255.838 227.532Z" fill="#52AE32"/>
<path d="M146.337 234.88L168.374 196.759V273L146.337 234.88Z" fill="#52AE32"/>
<path d="M111.016 -5.85312e-05H163.273C160.941 2.17949 158.946 4.69427 157.356 7.46122L102.508 102.566L54.3752 74.8721L90.8211 11.7781C92.8408 8.20209 95.7752 5.22708 99.3238 3.15746C102.872 1.08784 106.908 -0.00196764 111.016 -5.85312e-05Z" fill="#52AE32"/>
<path d="M164.707 11.6966C166.766 8.14182 169.724 5.19083 173.284 3.13918C176.845 1.08753 180.882 0.00750732 184.992 0.00750732C189.101 0.00750732 193.139 1.08753 196.699 3.13918C200.26 5.19083 203.218 8.14182 205.277 11.6966L241.722 74.7905L193.59 102.485L152.841 32.0437L164.707 11.6966Z" fill="#52AE32"/>
<path d="M225.814 102.811L181.756 102.794L247.818 64.6742L225.814 102.811Z" fill="#52AE32"/>
</g>
<defs>
<clipPath id="clip0_731_2238">
<rect width="296" height="273" fill="white"/>
</clipPath>
</defs>
</svg>
