<svg width="318" height="114" viewBox="0 0 318 114" fill="none" xmlns="http://www.w3.org/2000/svg">
<g clip-path="url(#clip0_577_417)">
<path d="M168.19 23.1299C169.19 23.2399 169.5 24.7299 169.54 25.8899C169.54 29.2999 169.43 30.9999 169.43 32.6999C169.43 34.6999 169.54 39.1398 169.57 39.8198H173.96C174.64 39.8198 175.1 39.8199 176.27 39.8899C177.27 39.9899 177.72 41.34 177.27 42.26C176.497 42.8435 175.548 43.1435 174.58 43.1098C173.8 43.1098 173.09 43.1098 172.27 43.1098C170.78 43.0398 167.17 43.43 166.64 42.54C166.07 41.69 166.18 39.6999 166.18 38.7099C166.18 37.3299 166.07 35.71 166.07 34.03C166.07 31.03 166.07 28.4699 166.07 25.8799C166.03 23.4899 166.2 22.8499 168.19 23.1299Z" fill="#2F52A0"/>
<path d="M179.52 41.6598C183.52 30.8198 186.43 24.3698 186.79 23.6598C186.948 23.406 187.175 23.2021 187.443 23.0712C187.712 22.9403 188.013 22.8877 188.31 22.9198C189.302 22.8919 190.267 23.2504 191 23.9198C192.354 26.8088 193.422 29.8231 194.19 32.9198C194.868 35.7658 195.709 38.5704 196.71 41.3197C196.764 41.8169 196.677 42.3194 196.46 42.7699C196.096 43.0573 195.644 43.2092 195.18 43.1998C194.48 43.1998 193.77 42.8398 193.66 42.4498C192.981 40.5063 192.436 38.5183 192.03 36.4999C191.03 36.5699 189.8 36.5697 188.74 36.5697H187.39C186.548 36.5505 185.707 36.5874 184.87 36.6798C184.87 36.8898 183.78 39.7999 183.1 41.4999L182.61 42.8097C182.39 43.2697 180.69 44.1199 179.77 43.5199C179.56 43.1999 179.06 42.9498 179.49 41.6798L179.52 41.6598ZM188.45 27.4498C187.89 29.0498 186.93 31.7798 186.04 33.8998C186.82 33.9698 187.96 34.0099 189.04 34.0099C189.85 34.0099 190.6 34.0098 191.24 33.9398C190.614 31.4217 189.857 28.9384 188.97 26.4999C188.917 26.5078 188.868 26.5324 188.83 26.5702C188.793 26.608 188.768 26.657 188.76 26.7098L188.45 27.4498Z" fill="#2F52A0"/>
<path d="M208.65 25.01C208.644 24.6586 208.767 24.3171 208.995 24.05C209.224 23.783 209.542 23.6086 209.89 23.5598C211.13 23.5598 211.83 23.49 212.58 23.49H215.09C215.98 23.49 216.83 23.56 217.64 23.49C218.78 23.49 218.25 26.3298 217.57 26.3298C216.89 26.3298 216.05 26.3298 215.38 26.3298C214.71 26.3298 214.07 26.3298 213.38 26.3298C212.895 26.3163 212.41 26.3432 211.93 26.4099C211.93 26.9399 211.93 27.41 211.93 27.96C211.985 28.8591 211.985 29.7608 211.93 30.6599C211.93 30.7999 212 30.8999 212.14 30.8999H212.29C212.6 30.8999 213.14 30.8999 213.67 30.8999C214.268 30.8677 214.866 30.9387 215.44 31.1099C216.39 31.4699 215.83 32.9499 215.51 33.1699C214.612 33.541 213.634 33.6752 212.67 33.5598C212.5 33.5598 212.25 33.5598 212.11 33.5598C211.97 33.5598 212 33.56 212 33.74C211.906 34.3485 211.872 34.9647 211.9 35.5798C211.9 36.4298 211.9 37.3898 211.9 38.3398C211.9 39.0898 211.9 39.83 211.9 40.47C211.941 41.1948 211.88 41.9218 211.72 42.6299C211.33 43.0199 208.81 42.98 208.72 42.52C208.453 40.75 208.36 38.9581 208.44 37.1699V32.96C208.6 29.58 208.68 25.54 208.65 25.01Z" fill="#2F52A0"/>
<path d="M224.13 41.02C224.13 41.73 222.82 43.43 221.68 43.02C220.83 42.66 220.8 42.2399 220.76 41.3499C220.76 38.8399 220.76 37.0599 220.76 34.1899C220.76 33.6999 220.76 31.71 220.76 30.51C220.76 28.28 220.76 25.51 220.87 24.2C221.12 23.2 221.29 22.82 222.43 22.79C223.31 22.68 223.91 23.3899 224.13 24.3799C224.23 25.1599 224.27 27.5299 224.27 29.6199C224.27 30.8599 224.27 32.0299 224.34 32.6199L224.13 41.02Z" fill="#2F52A0"/>
<path d="M228.73 23.2C230.4 23.56 232.38 27.8399 233.3 29.8599C234.539 32.4229 235.911 34.9195 237.41 37.3398C237.48 34.5698 237.59 32.2699 237.55 30.6799C237.55 29.6799 237.41 28.6199 237.38 27.5999C237.267 26.3365 237.231 25.0678 237.27 23.8C237.304 23.4746 237.456 23.1727 237.698 22.9517C237.939 22.7306 238.253 22.6054 238.58 22.5999C239.023 22.6359 239.442 22.8187 239.77 23.1194C240.098 23.42 240.316 23.8214 240.39 24.26C240.49 25.75 240.53 27.26 240.53 28.55C240.53 29.15 240.53 29.7599 240.53 32.9399C240.53 35.4999 240.39 40.7698 239.83 42.0898C239.65 42.7198 238.83 43.01 238.09 43.01C237.539 43.0151 237.007 42.8114 236.6 42.4399C235.08 40.3099 234.37 38.08 233.2 36.03C232.92 35.5 232.53 34.7199 232.2 34.1099C230.86 31.5599 230.54 30.43 229.48 29.05C229.48 32.13 229.55 33.58 229.55 35.05C229.55 36.78 229.65 38.05 229.65 39.23C229.744 40.1972 229.585 41.1721 229.19 42.0598C228.99 42.3248 228.734 42.5424 228.44 42.6963C228.146 42.8502 227.822 42.9368 227.49 42.95C227.333 42.9696 227.173 42.9559 227.022 42.9099C226.87 42.8639 226.73 42.7866 226.61 42.6829C226.49 42.5791 226.394 42.4513 226.326 42.3079C226.259 42.1644 226.223 42.0083 226.22 41.8499C226.22 34.8499 226.15 33.52 226.15 32.21C226.15 30.9 226.25 29.6599 226.15 28.4199C226.08 27.7799 226.08 27 226.08 23.99C226.18 22.49 227.88 23.2 228.73 23.2Z" fill="#2F52A0"/>
<path d="M255.9 41.5501C254.339 42.7286 252.4 43.2941 250.45 43.14C245.95 42.68 242.66 38.3199 242.66 34.0699C242.639 32.6743 242.804 31.2822 243.15 29.93C244.15 26.46 246.91 23.2701 250.63 23.2701C253.28 23.2001 256.08 24.5801 256.76 27.2701C256.829 27.5729 256.796 27.8897 256.666 28.1717C256.536 28.4538 256.317 28.6852 256.042 28.8299C255.768 28.9747 255.453 29.0247 255.147 28.9723C254.841 28.9198 254.561 28.768 254.35 28.5401L253.85 27.9C253.562 27.4081 253.162 26.9913 252.683 26.6837C252.203 26.376 251.657 26.1862 251.09 26.13C248.85 25.96 246.94 29.4601 246.48 31.2301C246.339 31.9549 246.269 32.6916 246.27 33.43C246.27 36.43 247.69 39.81 251.27 40.37C251.925 40.316 252.562 40.1285 253.141 39.8189C253.721 39.5094 254.231 39.0842 254.64 38.5699L255.14 38.0699C255.433 37.8642 255.782 37.754 256.14 37.754C256.498 37.754 256.847 37.8642 257.14 38.0699C257.68 38.7199 256.97 40.6701 255.9 41.5501Z" fill="#2F52A0"/>
<path d="M259.2 41.6598C263.2 30.8198 266.11 24.3698 266.46 23.6598C266.621 23.4061 266.849 23.2022 267.119 23.0715C267.39 22.9407 267.691 22.8882 267.99 22.9199C268.982 22.894 269.946 23.2523 270.68 23.9199C272.029 26.8107 273.098 29.8246 273.87 32.9199C274.545 35.7657 275.383 38.5702 276.38 41.3198C276.444 41.8172 276.357 42.3226 276.13 42.7699C275.769 43.0551 275.32 43.2069 274.86 43.1999C274.15 43.1999 273.44 42.8399 273.34 42.4499C272.656 40.5078 272.111 38.5194 271.71 36.4999C270.71 36.5699 269.47 36.5698 268.41 36.5698H267.06C266.222 36.5508 265.383 36.5877 264.55 36.6799C264.55 36.8899 263.45 39.7999 262.78 41.4999L262.28 42.8097C262.07 43.2697 260.37 44.1199 259.45 43.5199C259.24 43.1999 258.74 42.9499 259.16 41.6799L259.2 41.6598ZM268.13 27.4499C267.56 29.0499 266.6 31.7798 265.72 33.8998C266.5 33.9698 267.63 34.0099 268.72 34.0099C269.54 34.0099 270.28 34.0099 270.92 33.9399C270.299 31.4205 269.541 28.9369 268.65 26.4999C268.598 26.5093 268.55 26.5344 268.512 26.572C268.475 26.6095 268.449 26.6576 268.44 26.7099L268.13 27.4499Z" fill="#2F52A0"/>
<path d="M288.36 33.0199C288.36 32.1699 288.36 28.5198 288.29 27.6298C288.22 26.7398 288.21 25.7898 288.21 24.6298C288.21 24.4898 288.53 22.9699 289.74 22.9699C290.3 22.9699 291.33 22.8998 292.15 22.8998C293.398 22.8632 294.646 22.9706 295.87 23.2199C300.37 24.4199 302.42 28.9897 302.35 33.3097C302.35 38.3097 300.72 42.1397 296.54 43.0897C294.899 43.4645 293.223 43.6657 291.54 43.6898C289.77 43.6898 288.35 43.3099 288.35 42.2399C288.32 31.9499 288.36 33.8999 288.36 33.0199ZM291.83 26.0199V31.9298C291.83 33.0998 291.83 34.2 291.83 35.3V40.6098C291.83 40.5398 292.15 40.6098 292.54 40.6098C294.28 40.6098 297.36 39.9698 297.85 39.1898C298.757 37.6345 299.188 35.8477 299.09 34.05C299.09 33.88 299.09 33.6999 299.09 33.5199C299.16 31.5199 298.7 28.5199 297.09 27.2899C295.793 26.4188 294.251 25.9844 292.69 26.05C292.403 26.0647 292.116 26.0614 291.83 26.0399V26.0199Z" fill="#2F52A0"/>
<path d="M304.6 25.5799C304.6 24.7999 305.17 23.2 306.41 23.2C309.53 23.2 311.51 22.95 313.49 22.95C314.108 22.9485 314.726 22.9851 315.34 23.0599C315.726 23.1106 316.081 23.2987 316.34 23.5899C316.9 24.3399 316.09 25.5899 315.06 25.8899C313.813 25.998 312.561 26.0348 311.31 26C310.126 25.972 308.94 26.0086 307.76 26.1099C307.83 26.9899 307.83 27.5199 307.83 28.1099C307.83 30.1599 307.83 29.81 307.83 30.69C308.608 30.6173 309.389 30.5838 310.17 30.5899C310.951 30.5756 311.733 30.6091 312.51 30.69C313.43 30.83 313.51 32.69 312.94 33.24C312.37 33.79 309.71 33.74 307.87 33.74C307.87 34.38 307.87 35.0199 307.87 35.5799C307.87 36.8599 307.87 37.7399 307.79 38.8399V39.8399C308.11 39.8399 308.72 39.8399 309.21 39.8399C310.63 39.8399 312.44 39.77 313.39 39.73C314.74 39.73 316.3 39.34 317.18 40.48V40.5799C317.61 41.2899 318.18 42.32 316.9 42.67C316.253 42.874 315.579 42.9819 314.9 42.99C313.8 42.99 312.74 43.0599 311.64 43.1299C310.37 43.1299 308.98 43.2701 307.85 43.2701C306.36 43.2701 305.19 43.0901 304.85 42.5301C304.51 41.9701 304.39 40.4401 304.39 38.7701C304.39 36.0101 304.39 33.6301 304.39 31.2601C304.47 29.0801 304.6 26.0399 304.6 25.5799Z" fill="#2F52A0"/>
<path d="M180.12 50.65C184.34 50.65 187.74 51.1199 191.12 51.1199C192.96 51.3999 194.32 51.7399 194.32 53.3699C194.32 54.9999 193.57 56.23 191.53 56.23C189.15 56.23 184.24 56.0301 183.53 56.0301C183.503 56.0269 183.476 56.0297 183.45 56.0386C183.424 56.0475 183.401 56.0621 183.382 56.0814C183.362 56.1006 183.348 56.124 183.339 56.1497C183.33 56.1754 183.327 56.203 183.33 56.23C183.46 57.73 183.46 59.36 183.46 60.93C183.46 64.54 183.26 68.35 183.26 72.16C183.26 74.82 183.67 76.25 183.67 81.16C183.67 84.56 183.19 88.24 181.49 89.16C180.728 89.4588 179.926 89.6409 179.11 89.7C177.74 89.7 177.11 87.32 177.11 84.94C177.11 81.73 177.05 79.0101 177.05 76.2901C177.05 74.2901 177.25 71.7899 177.25 67.6399C177.25 63.6399 177.11 61.1699 177.11 58.5799C177.11 58.4499 177.05 56.27 177.11 56.2C176.683 56.1415 176.251 56.1181 175.82 56.1299C173.98 56.1299 171.94 56.41 170.03 56.41C169.324 56.4455 168.615 56.3987 167.92 56.2701H167.99C167.42 56.1968 166.895 55.9232 166.508 55.4981C166.122 55.073 165.899 54.5242 165.88 53.95C165.82 50.1 174.81 50.65 180.12 50.65Z" fill="#2F52A0"/>
<path d="M208.92 80.6099C205.416 80.3654 202.13 78.817 199.711 76.27C197.291 73.723 195.914 70.3621 195.85 66.8498C195.71 60.3198 200.14 51.4598 210.28 51.8498C218.59 52.1898 222.95 59.4099 223.08 64.9299C223.22 73.8599 217.43 80.5399 208.92 80.6099ZM211.3 82.78C213.48 82.78 216.14 82.99 217.98 82.99C219.54 83.12 221.45 83.3299 221.86 84.4199C223.86 88.9799 219.54 88.84 216.75 88.78C215.18 88.71 213.48 88.71 209.19 88.71C207.08 88.64 205.04 88.5 203.06 88.5C200.48 88.23 197.41 87.7599 196.8 85.1699C196.19 82.3799 198.64 82.24 202.11 82.24L211.3 82.78ZM209.3 57.9299C204.8 58.1399 202.08 61.93 201.81 66.51C201.54 70.19 204.6 74.6799 209.16 74.6799C214.34 74.6799 217.4 69.5798 217.16 65.3498C217.07 63.34 216.203 61.4437 214.743 60.0598C213.282 58.6759 211.342 57.9123 209.33 57.9299H209.3Z" fill="#2F52A0"/>
<path d="M226.97 70.26C226.97 68.62 226.9 61.6099 226.83 59.9099C226.76 58.2099 226.69 56.3699 226.69 54.1899C226.69 53.9099 227.31 50.99 229.62 50.99C230.71 50.92 232.68 50.8498 234.25 50.8498C236.649 50.7827 239.047 50.9875 241.4 51.4599C250.05 53.7799 254 62.5598 253.86 70.8698C253.79 80.4698 250.73 87.8199 242.69 89.6599C239.562 90.3757 236.368 90.7643 233.16 90.8198C229.76 90.8198 227.03 90.07 227.03 88.03C226.9 68.21 226.97 71.96 226.97 70.26ZM233.64 56.8398V68.2099C233.57 70.4599 233.57 72.5699 233.57 74.6799V84.8999C233.64 84.7599 234.18 84.8298 234.93 84.8298C238.27 84.8298 244.19 83.5998 245.15 82.0998C247.39 78.8398 247.46 74.82 247.53 72.23C247.53 71.89 247.6 71.55 247.6 71.23C247.73 67.35 246.85 61.56 243.6 59.23C241.49 57.39 237.6 56.8398 235.15 56.8398C234.634 56.877 234.116 56.877 233.6 56.8398H233.64Z" fill="#2F52A0"/>
<path d="M270.6 80.6099C267.096 80.3654 263.81 78.817 261.391 76.27C258.971 73.723 257.594 70.3621 257.53 66.8498C257.39 60.3198 261.82 51.4598 271.96 51.8498C280.27 52.1898 284.63 59.4099 284.76 64.9299C284.91 73.8599 279.12 80.5399 270.6 80.6099ZM272.98 82.78C275.16 82.78 277.82 82.99 279.66 82.99C281.22 83.12 283.13 83.3299 283.54 84.4199C285.54 88.9799 281.22 88.84 278.43 88.78C276.86 88.71 275.16 88.71 270.87 88.71C268.76 88.64 266.72 88.5 264.74 88.5C262.16 88.23 259.09 87.7599 258.48 85.1699C257.87 82.3799 260.32 82.24 263.79 82.24L272.98 82.78ZM270.98 57.9299C266.49 58.1399 263.76 61.93 263.49 66.51C263.22 70.19 266.28 74.6799 270.84 74.6799C276.02 74.6799 279.08 69.5798 278.84 65.3498C278.75 63.3417 277.884 61.4469 276.426 60.0632C274.968 58.6796 273.03 57.915 271.02 57.9299H270.98Z" fill="#2F52A0"/>
<path d="M317.73 77.1999C317.592 80.425 316.259 83.4835 313.99 85.7799C310.17 88.7799 308.54 89.2498 303.91 89.6598C299.91 89.8698 292.6 89.1199 289.27 83.1899C288.27 81.4199 288.04 79.5798 289.47 78.3598C291.38 76.6598 293.47 78.0199 294.78 80.4699C295.94 82.6499 299.01 83.6699 301.05 84.2799C301.809 84.4393 302.584 84.5097 303.36 84.4899C306.5 84.4899 310.85 83.3299 311.6 79.2399C312.42 74.6799 306.6 72.5698 300.71 70.5998C294.58 68.4198 288.38 66.2398 288.38 60.8598C288.38 55.4798 294.24 49.9698 301.12 50.1698C304.04 50.2398 308.33 50.5097 310.99 52.0797C313.227 53.4143 314.933 55.4811 315.82 57.9298C316.5 59.4998 316.1 61.1298 314.19 61.6098C313.315 61.5116 312.475 61.2158 311.731 60.7445C310.988 60.2733 310.362 59.639 309.9 58.8898C308.61 56.2998 304.79 55.6198 301.9 55.6798C300.2 55.7498 295.43 57.3199 294.9 60.2499C294.97 61.7499 297.35 63.4497 298.51 64.0597C299.39 64.3997 300.82 65.0099 302.59 65.6899C307.97 67.5999 315.8 70.4599 317.03 73.6899C317.489 74.8033 317.727 75.9955 317.73 77.1999Z" fill="#2F52A0"/>
<path d="M119.98 67.11C125.183 67.11 129.4 62.8925 129.4 57.69C129.4 52.4875 125.183 48.27 119.98 48.27C114.777 48.27 110.56 52.4875 110.56 57.69C110.56 62.8925 114.777 67.11 119.98 67.11Z" fill="#E50064"/>
<path d="M100.25 83.1599L100.63 57.7099C100.636 57.4993 100.714 57.2971 100.852 57.1379C100.99 56.9787 101.179 56.8723 101.387 56.8369C101.594 56.8015 101.808 56.8393 101.991 56.9438C102.174 57.0483 102.315 57.213 102.39 57.4099C102.39 57.4099 108.94 66.2098 110.75 70.5998C110.918 71.0161 111.175 71.3906 111.503 71.6965C111.831 72.0024 112.223 72.2322 112.65 72.3699L117.45 73.8899C117.847 74.0181 118.266 74.0621 118.681 74.019C119.096 73.976 119.498 73.8468 119.86 73.6399C123.86 71.3799 137.29 65.8899 137.29 65.8899C138.16 65.3299 139.19 66.4099 138.54 67.1899L119.78 89.53L106.68 112.89C106.574 113.038 106.424 113.149 106.251 113.207C106.078 113.264 105.891 113.265 105.718 113.209C105.544 113.154 105.393 113.044 105.285 112.897C105.178 112.75 105.12 112.572 105.12 112.39L108.43 91.8799L108.31 91.8198L104.51 95.49C104.136 95.853 103.673 96.1122 103.168 96.2419C102.663 96.3717 102.133 96.3676 101.63 96.23C100.958 96.044 100.372 95.6298 99.9724 95.0586C99.5728 94.4874 99.3845 93.7947 99.44 93.0998L100.25 83.1599Z" fill="#E50064"/>
<path d="M100.09 102.07C101.184 102.07 102.07 101.184 102.07 100.09C102.07 98.9966 101.184 98.1101 100.09 98.1101C98.9965 98.1101 98.11 98.9966 98.11 100.09C98.11 101.184 98.9965 102.07 100.09 102.07Z" fill="#E50064"/>
<path d="M97.82 110.2C99.2725 110.2 100.45 109.022 100.45 107.57C100.45 106.117 99.2725 104.94 97.82 104.94C96.3675 104.94 95.19 106.117 95.19 107.57C95.19 109.022 96.3675 110.2 97.82 110.2Z" fill="#E50064"/>
<path d="M49.27 57.7099C49.27 57.7099 43.62 70.4099 42.35 74.7899C42.2174 75.2485 41.9869 75.6728 41.6744 76.0336C41.3619 76.3944 40.9749 76.683 40.54 76.8798L36.6 78.6598C36.1781 78.853 35.7218 78.9595 35.2581 78.9733C34.7943 78.987 34.3325 78.9077 33.9 78.7399C29.67 77.1099 16.72 73.7399 16.72 73.7399C15.84 73.3299 15 74.4297 15.72 75.0697L36.08 93.2999L51.24 113.12C51.3563 113.246 51.5097 113.333 51.6783 113.366C51.8468 113.4 52.0216 113.379 52.1775 113.307C52.3334 113.234 52.4622 113.114 52.5453 112.964C52.6285 112.813 52.6616 112.64 52.64 112.47L47.06 94.0997L47.16 94.0399L59.79 107.46C59.9237 107.594 60.0981 107.68 60.2859 107.705C60.4738 107.73 60.6647 107.693 60.8289 107.598C60.9931 107.504 61.1215 107.357 61.194 107.182C61.2666 107.007 61.2792 106.813 61.23 106.63L53.72 85.1598L50.98 57.7399C50.9368 57.5474 50.8302 57.375 50.6772 57.2504C50.5243 57.1258 50.334 57.0561 50.1368 57.0526C49.9395 57.0492 49.7469 57.1122 49.5897 57.2313C49.4325 57.3505 49.3199 57.519 49.27 57.7099ZM50.13 79.3097C50.2666 79.6023 50.3439 79.9192 50.3577 80.2418C50.3714 80.5645 50.3212 80.8867 50.21 81.1898L48.48 86.7199C48.4646 86.75 48.4401 86.7746 48.41 86.7899H48.3199C48.3199 86.7899 42.5299 85.2499 41.3199 83.2799C41.1715 82.9869 41.0856 82.6661 41.0677 82.338C41.0498 82.01 41.1002 81.6819 41.2159 81.3744C41.3315 81.0669 41.5098 80.7868 41.7395 80.5519C41.9692 80.317 42.2452 80.1325 42.55 80.0099C42.9925 79.8105 43.4821 79.7394 43.963 79.8048C44.4439 79.8702 44.8968 80.0694 45.27 80.3798C45.2709 79.9014 45.4102 79.4336 45.671 79.0326C45.9318 78.6316 46.3031 78.3146 46.74 78.1198C47.3481 77.8333 48.0445 77.7975 48.6788 78.0202C49.3131 78.2428 49.8343 78.706 50.13 79.3097Z" fill="#FAB900"/>
<path d="M41.42 61.6399C40.9283 60.2422 40.1141 58.98 39.0435 57.9556C37.9729 56.9313 36.676 56.1737 35.2579 55.7442C33.8398 55.3147 32.3404 55.2253 30.8813 55.4834C29.4223 55.7416 28.0446 56.34 26.86 57.23C23.02 54.52 18.09 52.1099 16.28 55.8799C13.17 62.4199 5.13995 69.8799 5.13995 69.8799C5.13995 69.8799 11.21 73.1 17.52 64.66C19.1285 62.2692 21.5959 60.5897 24.41 59.97C23.6013 61.3354 23.1503 62.8827 23.0986 64.4688C23.047 66.0549 23.3965 67.6284 24.1147 69.0435C24.8329 70.4586 25.8965 71.6694 27.2072 72.564C28.5179 73.4587 30.0332 74.0081 31.6127 74.1614C33.1922 74.3147 34.7847 74.0669 36.243 73.441C37.7012 72.8151 38.978 71.8314 39.9549 70.5809C40.9318 69.3303 41.5774 67.8533 41.8317 66.2869C42.0861 64.7205 41.941 63.1153 41.41 61.6199L41.42 61.6399Z" fill="#FAB900"/>
<path d="M76.76 54.6199C75.3216 54.6208 73.8882 54.792 72.49 55.1299L72.1601 54.68V49.8599H72.51C74.8052 49.8665 77.0243 49.0376 78.7531 47.5279C80.4819 46.0181 81.6021 43.931 81.9047 41.6558C82.2072 39.3806 81.6714 37.0729 80.3972 35.1639C79.1231 33.2548 77.1978 31.8747 74.9806 31.2813C72.7635 30.6878 70.4061 30.9217 68.3487 31.939C66.2912 32.9563 64.6743 34.6875 63.7998 36.8096C62.9254 38.9317 62.8531 41.2995 63.5966 43.471C64.34 45.6424 65.8484 47.4691 67.84 48.6099C65.26 51.5399 62.49 55.05 62.43 56.67C62.43 57.26 63.23 58.17 64.55 59.25C61.3686 62.0956 59.2846 65.9659 58.6601 70.1883C58.0355 74.4107 58.9099 78.7183 61.1313 82.3631C63.3527 86.0078 66.7806 88.7592 70.8197 90.1392C74.8588 91.5192 79.2538 91.4407 83.241 89.9173C87.2282 88.3938 90.5557 85.5216 92.6454 81.7998C94.7352 78.0781 95.4551 73.7419 94.6801 69.5445C93.9051 65.3471 91.6841 61.5539 88.4031 58.8238C85.1221 56.0936 80.9883 54.5991 76.72 54.5999L76.76 54.6199ZM76.76 82.8899C74.5486 82.8937 72.3983 82.1646 70.6455 80.8162C68.8927 79.4678 67.6364 77.5764 67.0729 75.438C66.5094 73.2996 66.6706 71.0346 67.5314 68.9976C68.3922 66.9606 69.9038 65.2664 71.83 64.18C75.1 66.18 78.5701 68.11 81.0301 69.46C81.2023 69.5537 81.4014 69.5856 81.5944 69.5506C81.7874 69.5156 81.9626 69.4159 82.091 69.2676C82.2194 69.1194 82.2932 68.9316 82.3003 68.7356C82.3074 68.5397 82.2474 68.3471 82.13 68.19L78.31 63C80.8124 63.3738 83.0801 64.6824 84.656 66.6619C86.232 68.6414 86.999 71.1447 86.8024 73.6673C86.6058 76.1898 85.4603 78.5439 83.5967 80.2554C81.7332 81.9669 79.2902 82.9083 76.76 82.8899Z" fill="#2F52A0"/>
<path d="M48.53 35.0798C49.7051 34.0438 51.0344 33.197 52.47 32.5698C52.83 32.4198 53.19 32.2499 53.56 32.1199L54.72 31.8699C55.4743 31.6591 56.2577 31.5713 57.04 31.6099C58.4746 31.5395 59.9081 31.7678 61.25 32.28C61.3845 29.2538 60.7912 26.2395 59.52 23.49C48.43 26.43 45.06 34.7899 44.13 41.1199C45.1934 38.8416 46.6874 36.7905 48.53 35.0798Z" fill="#51AD32"/>
<path d="M57.27 34.1098C54.8033 34.6003 52.5216 35.7672 50.68 37.4799C48.7324 39.2808 47.049 41.3478 45.68 43.6198C44.9667 45.3105 44.3915 47.0562 43.96 48.8398C56.18 45.4298 60.15 39.2998 61.03 33.9098C59.7739 33.7782 58.505 33.8457 57.27 34.1098Z" fill="#51AD32"/>
<path d="M128.43 98.73C127.141 100.01 126.061 101.484 125.23 103.1C125.03 103.52 124.81 103.91 124.63 104.34L124.26 105.66C123.953 106.517 123.791 107.419 123.78 108.33C123.599 109.985 123.763 111.661 124.26 113.25C120.744 113.187 117.294 112.281 114.2 110.61C118.41 97.9799 128.34 94.6798 135.73 94.0698C133.017 95.1349 130.538 96.7178 128.43 98.73Z" fill="#51AD32"/>
<path d="M126.66 108.78C127.41 105.96 128.926 103.402 131.04 101.39C133.271 99.2846 135.786 97.5007 138.51 96.0898C139.77 95.4098 144.68 94.47 144.68 94.47C139.85 108.38 132.46 112.54 126.16 113.16C126.092 111.683 126.261 110.204 126.66 108.78Z" fill="#51AD32"/>
<path d="M18.04 85.5597C16.2403 85.3014 14.4112 85.3285 12.62 85.6398C12.18 85.7198 11.72 85.7798 11.28 85.8998L10 86.3998C9.12831 86.6698 8.30718 87.082 7.56995 87.6198C6.14132 88.4687 4.90241 89.6022 3.92999 90.9499C1.87058 88.103 0.522997 84.8042 0 81.3297C12.62 77.0997 21.23 83.0598 26.16 88.6098C23.6746 87.0804 20.9176 86.0448 18.04 85.5597Z" fill="#51AD32"/>
<path d="M8.94995 90.19C11.6535 89.1013 14.6042 88.7762 17.48 89.2501C20.5061 89.7674 23.4447 90.7066 26.21 92.0401C27.51 92.6401 31.21 96.0401 31.21 96.0401C17.21 100.54 9.42995 97.12 5.13995 92.46C6.28274 91.5078 7.56853 90.7417 8.94995 90.19Z" fill="#51AD32"/>
<path d="M149.09 82.7C148.277 81.7841 147.325 81.0013 146.27 80.3799C146 80.2299 145.74 80.0599 145.46 79.9299L144.59 79.6299C144.024 79.3897 143.423 79.2445 142.81 79.2C141.703 79.0136 140.57 79.0543 139.48 79.3198C139.66 76.9598 140.408 74.6784 141.66 72.6699C149.98 75.9899 151.81 82.8 151.93 87.8C151.317 85.9346 150.353 84.2035 149.09 82.7Z" fill="#51AD32"/>
<path d="M142.39 81.1199C144.256 81.7353 145.917 82.8528 147.19 84.3499C148.52 85.9347 149.621 87.6986 150.46 89.5898C150.856 90.9674 151.137 92.3758 151.3 93.8C142.14 90 139.64 84.8699 139.47 80.6099C140.465 80.6198 141.451 80.7921 142.39 81.1199Z" fill="#51AD32"/>
<path d="M10.03 103.63C9.1173 104.446 8.3349 105.397 7.70996 106.45C7.55996 106.72 7.38995 106.98 7.25995 107.26L6.95996 108.13C6.71976 108.696 6.57448 109.297 6.52997 109.91C6.34173 111.017 6.38601 112.151 6.65997 113.24C4.29708 113.059 2.01264 112.311 0 111.06C3.33 102.74 10.14 100.91 15.13 100.79C13.2638 101.401 11.5324 102.365 10.03 103.63Z" fill="#51AD32"/>
<path d="M8.44995 110.33C9.06299 108.46 10.185 106.798 11.69 105.53C13.2697 104.198 15.0306 103.097 16.92 102.26C18.2978 101.864 19.7059 101.583 21.13 101.42C17.34 110.58 12.2 113.08 7.94 113.25C7.95484 112.256 8.12692 111.27 8.44995 110.33Z" fill="#51AD32"/>
<path d="M27.78 49.8699C28.6168 49.7193 29.426 49.443 30.18 49.05C30.36 48.94 30.56 48.85 30.74 48.73L31.23 48.3198C31.5798 48.0782 31.8844 47.777 32.13 47.4299C32.6449 46.8498 33.0331 46.1686 33.27 45.4299C34.6018 46.3966 35.6821 47.6689 36.42 49.1399C31.42 52.8599 26.72 51.46 23.72 49.72C25.051 50.0308 26.4296 50.0816 27.78 49.8699Z" fill="#51AD32"/>
<path d="M31.15 46.4799C30.109 47.3643 28.8411 47.9393 27.49 48.1398C26.0677 48.3502 24.6222 48.3502 23.2 48.1398C22.2399 47.8867 21.3032 47.5521 20.4 47.1398C25.98 43.1398 29.93 43.4899 32.52 44.9399C32.1474 45.5223 31.685 46.0421 31.15 46.4799Z" fill="#51AD32"/>
<path d="M70.76 102.34C70.8257 103.419 70.721 104.503 70.45 105.55C70.38 105.81 70.32 106.08 70.23 106.33L69.87 107.07C69.6689 107.573 69.3851 108.04 69.03 108.45C68.4555 109.258 67.7201 109.939 66.87 110.45C68.4595 111.811 70.3525 112.772 72.39 113.25C75.52 105.97 72.39 100.57 69.39 97.3699C70.166 98.9215 70.6314 100.61 70.76 102.34Z" fill="#51AD32"/>
<path d="M67.6 107.51C68.3857 105.967 68.7317 104.237 68.6 102.51C68.4426 100.688 68.0286 98.8965 67.37 97.1899C66.7546 96.0805 66.0489 95.0237 65.2601 94.03C61.9101 102.13 63.55 106.91 66.11 109.67C66.7189 109.034 67.2219 108.305 67.6 107.51Z" fill="#51AD32"/>
<path d="M90.2601 103.78C88.9447 104.596 87.5111 105.203 86.0101 105.58C85.6301 105.66 85.25 105.77 84.87 105.83H83.7C82.9286 105.915 82.1484 105.875 81.3901 105.71C79.9773 105.537 78.6156 105.074 77.3901 104.35C76.7532 107.275 76.8286 110.31 77.61 113.2C88.9 112.2 93.6101 104.59 95.5301 98.5798C94.1239 100.636 92.3346 102.401 90.2601 103.78Z" fill="#51AD32"/>
<path d="M81.6 103.28C84.0913 103.214 86.5151 102.455 88.6 101.09C90.7875 99.6594 92.7576 97.9217 94.45 95.9299C95.4289 94.4053 96.2818 92.8033 97 91.1399C84.53 92.4199 79.64 97.7398 77.89 102.84C79.0962 103.179 80.348 103.328 81.6 103.28Z" fill="#51AD32"/>
<path d="M131.42 89.16C133.066 89.16 134.4 87.8258 134.4 86.18C134.4 84.5341 133.066 83.2 131.42 83.2C129.774 83.2 128.44 84.5341 128.44 86.18C128.44 87.8258 129.774 89.16 131.42 89.16Z" fill="#F29100"/>
<path d="M137.03 59.97C138.676 59.97 140.01 58.6358 140.01 56.99C140.01 55.3442 138.676 54.01 137.03 54.01C135.384 54.01 134.05 55.3442 134.05 56.99C134.05 58.6358 135.384 59.97 137.03 59.97Z" fill="#F29100"/>
<path d="M75.97 28.0601C77.6158 28.0601 78.95 26.7259 78.95 25.0801C78.95 23.4343 77.6158 22.1001 75.97 22.1001C74.3242 22.1001 72.99 23.4343 72.99 25.0801C72.99 26.7259 74.3242 28.0601 75.97 28.0601Z" fill="#F29100"/>
<path d="M31.9 107.69C33.5458 107.69 34.88 106.356 34.88 104.71C34.88 103.064 33.5458 101.73 31.9 101.73C30.2542 101.73 28.92 103.064 28.92 104.71C28.92 106.356 30.2542 107.69 31.9 107.69Z" fill="#F29100"/>
<path d="M44.13 58.0201C45.7758 58.0201 47.11 56.6859 47.11 55.0401C47.11 53.3942 45.7758 52.0601 44.13 52.0601C42.4842 52.0601 41.15 53.3942 41.15 55.0401C41.15 56.6859 42.4842 58.0201 44.13 58.0201Z" fill="#F29100"/>
<path d="M97.16 31.51C96.25 28.69 94.6599 26.32 94.3199 23.28C92.8099 24.28 91.76 25.1099 91.88 27.1199C90.07 26.0599 88.6299 28.79 89.4199 30.22C86.7399 31.09 85.19 33.58 87.52 35.78C86.04 37.23 87.16 38.9 88.65 39.78C87.5768 40.2311 86.7201 41.0805 86.26 42.1499C85.26 44.3499 86.9799 45.5699 89.0399 45.8699C92.9199 46.4399 96.9299 39.79 96.9399 39.78C96.9723 39.7419 97.0024 39.7017 97.03 39.6599C98.45 37.5999 97.87 33.67 97.16 31.51Z" fill="#00A7A7"/>
<path d="M106.92 37.5598C109.92 37.1398 112.86 37.56 115.84 36.47C115.59 38.34 115.29 39.68 113.38 40.47C115.18 41.67 113.3 44.2399 111.61 44.1499C112.02 47.0299 110.41 49.5999 107.32 48.4299C106.64 50.4299 104.59 50.17 103.08 49.2C103.149 50.3958 102.751 51.5719 101.97 52.48C100.35 54.36 98.4601 53.3598 97.2501 51.5798C94.9701 48.2398 99.33 41.51 99.34 41.5C99.3593 41.4514 99.3828 41.4044 99.4101 41.3599C100.69 39.1199 104.6 37.8898 106.92 37.5598Z" fill="#00A7A7"/>
<path d="M106.6 34.1799C105.898 34.2207 105.204 34.3586 104.54 34.5898C103.89 34.8498 103.25 35.1499 102.6 35.4199C101.948 35.6991 101.346 36.0842 100.82 36.5598C100.599 36.7742 100.398 37.0087 100.22 37.26C100.157 37.2085 100.086 37.1678 100.01 37.1399C100.139 36.8815 100.239 36.6099 100.31 36.3298C100.479 35.6468 100.53 34.9401 100.46 34.24C100.38 33.55 100.34 32.8599 100.25 32.1699C100.14 31.4758 99.9274 30.8019 99.62 30.1699C99.77 30.8499 99.92 31.5099 100.08 32.1699C100.277 32.8177 100.368 33.4931 100.35 34.1699C100.323 34.843 100.236 35.5122 100.09 36.1699C100.022 36.4411 99.9384 36.7082 99.84 36.97C99.5554 36.9039 99.2565 36.9448 99.0002 37.085C98.7438 37.2251 98.548 37.4548 98.45 37.73C98.3699 37.9381 98.3538 38.1655 98.4037 38.3828C98.4536 38.6002 98.5672 38.7976 98.73 38.95C97.7582 39.5418 96.9476 40.3643 96.3701 41.3447C95.7927 42.3251 95.4663 43.433 95.42 44.5698C96.4868 43.9816 97.3958 43.1446 98.07 42.1299C98.6067 41.2313 98.9474 40.2294 99.07 39.1899H99.13C99.4259 39.2866 99.7477 39.2644 100.028 39.1282C100.307 38.992 100.524 38.7524 100.63 38.46C100.702 38.2594 100.716 38.0428 100.672 37.8345C100.628 37.6261 100.527 37.4343 100.38 37.28C100.571 37.0522 100.778 36.8382 101 36.6399C101.516 36.1802 102.075 35.7716 102.67 35.4199C103.268 35.0668 103.92 34.8135 104.6 34.6699C105.27 34.4799 105.93 34.2898 106.6 34.0798C106.6 34.0798 106.6 34.1699 106.6 34.1799Z" fill="#00A7A7"/>
<path d="M151.93 45.3398C151.932 45.7935 151.814 46.2399 151.588 46.6333C151.362 47.0267 151.036 47.3533 150.643 47.5798C150.25 47.8064 149.804 47.9248 149.35 47.9231C148.897 47.9214 148.451 47.7993 148.06 47.5698L75.96 5.94995L3.86 47.5698C3.46886 47.7968 3.02475 47.9168 2.57252 47.9172C2.12029 47.9177 1.67595 47.7987 1.28437 47.5725C0.892792 47.3463 0.567807 47.0207 0.342295 46.6287C0.116784 46.2367 -0.00125943 45.7921 1.01335e-05 45.3398C-0.000242481 44.8875 0.118902 44.4431 0.345408 44.0515C0.571914 43.66 0.897734 43.3352 1.28999 43.1099L75.96 0L150.64 43.1099C151.032 43.3352 151.358 43.66 151.585 44.0515C151.811 44.4431 151.93 44.8875 151.93 45.3398Z" fill="#2F52A0"/>
</g>
<defs>
<clipPath id="clip0_577_417">
<rect width="317.73" height="113.41" fill="white"/>
</clipPath>
</defs>
</svg>
