<svg width="389" height="254" viewBox="0 0 389 254" fill="none" xmlns="http://www.w3.org/2000/svg">
<g clip-path="url(#clip0_551_860)">
<path d="M194.1 253.34C301.298 253.34 388.2 242.671 388.2 229.51C388.2 216.349 301.298 205.68 194.1 205.68C86.9015 205.68 0 216.349 0 229.51C0 242.671 86.9015 253.34 194.1 253.34Z" fill="#ECECEC"/>
<path d="M59 0.949951C59 0.949951 49.25 1.28994 47.38 16.6899C47.38 16.6899 47.02 29.9099 47.02 45.5599C47.02 45.5599 49.25 41.6499 60.31 39.9399L59.77 29.7899" fill="#3A2219"/>
<path d="M66.1 0.949951C66.1 0.949951 75.85 1.28997 77.72 16.72C77.72 16.72 78.08 29.9699 78.08 45.6499C78.08 45.6499 75.85 41.7299 64.79 40.0199L65.33 29.85" fill="#3A2219"/>
<path d="M62.38 117.76L60.78 156.12L59.25 217.18L51.63 217.47L49.33 167.47C49.33 167.47 49 159.71 48.64 148.66C48.64 148.66 47.76 125.66 48.18 113.51L62.38 117.76Z" fill="#C26A58"/>
<path d="M48.25 135.44L61.39 141.61L62.08 131.12L48.25 135.44Z" fill="#B26356"/>
<path d="M72.06 140.64L70.39 220.36" stroke="#373838" stroke-width="5" stroke-miterlimit="10"/>
<path d="M64.1 123.11L66.1 150.26C66.2065 151.778 66.8854 153.198 67.9992 154.234C69.1131 155.27 70.5789 155.844 72.1 155.84C73.5926 155.848 75.0344 155.298 76.1439 154.3C77.2533 153.301 77.9508 151.925 78.1 150.44L81.01 123.11H64.1Z" fill="#070707"/>
<path d="M71.68 160.8C72.4721 160.817 73.2518 160.999 73.9695 161.335C74.6872 161.67 75.3272 162.151 75.8484 162.748C76.3697 163.345 76.7609 164.043 76.9971 164.799C77.2332 165.556 77.3092 166.353 77.22 167.14L74.1201 199.22C74.0242 200.068 73.6194 200.85 72.983 201.418C72.3466 201.987 71.5232 202.3 70.67 202.3C69.7807 202.301 68.9246 201.962 68.2774 201.352C67.6302 200.742 67.2412 199.908 67.1901 199.02L65.9 166.79C65.8587 166.01 65.9784 165.23 66.2515 164.499C66.5246 163.767 66.9453 163.1 67.4875 162.538C68.0297 161.976 68.6817 161.532 69.4029 161.233C70.1242 160.934 70.8994 160.786 71.68 160.8Z" fill="#070707"/>
<path d="M66.36 216.86L67.36 211.01C67.4885 210.223 67.8934 209.508 68.5019 208.993C69.1105 208.478 69.8828 208.197 70.68 208.2C71.4651 208.199 72.2256 208.474 72.8288 208.976C73.4319 209.479 73.8394 210.178 73.98 210.95L75.16 217.34L66.36 216.86Z" fill="#070707"/>
<path d="M63.67 136.81C75.67 136.45 82.75 134.4 82.75 134.4C82.75 134.4 82.14 109.46 80.94 96.04C80.03 85.89 73 76.1301 73 76.1301H53.1C53.1 76.1301 45.77 85.87 45.16 96.04C44.35 109.46 43.35 134.4 43.35 134.4C43.35 134.4 50.35 136.4 62.43 136.81H63.67Z" fill="#052544"/>
<path d="M59.08 27.45L58.36 41.9799H66.3L66.17 27.6L59.08 27.45Z" fill="#C26A58"/>
<path d="M60.55 30.68L66.27 35.94L66.19 29.53L60.55 30.68Z" fill="#B26356"/>
<path d="M54.38 22.2501C53.87 23.9101 52.38 24.5201 50.58 23.6101C49.7838 23.2611 49.1418 22.6343 48.7738 21.8467C48.4058 21.0592 48.3369 20.1646 48.58 19.33C49.1 17.82 51.17 17.52 52.88 18.21C54.1 18.7 54.89 20.5901 54.38 22.2501Z" fill="#C26A58"/>
<path d="M52.3 22.6399C52.2859 22.6903 52.2535 22.7337 52.2091 22.7615C52.1647 22.7892 52.1115 22.7993 52.06 22.7899H52.01C51.9708 22.7674 51.9399 22.733 51.9219 22.6915C51.9039 22.6501 51.8997 22.6039 51.91 22.5599C52.0242 22.0646 52.0412 21.5518 51.96 21.0499C51.42 21.1699 50.96 21.3099 50.96 21.3099C50.9119 21.3294 50.8581 21.3294 50.81 21.3099C50.7664 21.2798 50.7317 21.2383 50.71 21.1899C50.7024 21.1643 50.7 21.1375 50.703 21.111C50.7059 21.0844 50.7142 21.0587 50.7273 21.0354C50.7403 21.0121 50.7579 20.9916 50.779 20.9752C50.8001 20.9588 50.8242 20.9469 50.85 20.9399C50.85 20.9399 51.32 20.7899 51.85 20.6699C51.7191 20.2019 51.4509 19.784 51.08 19.47C51.0434 19.4326 51.0229 19.3823 51.0229 19.33C51.0229 19.2776 51.0434 19.2273 51.08 19.1899C51.0978 19.1705 51.1194 19.155 51.1435 19.1444C51.1676 19.1338 51.1937 19.1284 51.22 19.1284C51.2463 19.1284 51.2724 19.1338 51.2965 19.1444C51.3206 19.155 51.3422 19.1705 51.36 19.1899C51.7979 19.6371 52.1141 20.1889 52.2786 20.7927C52.4431 21.3966 52.4505 22.0324 52.3 22.6399Z" fill="#13242D"/>
<path d="M71.49 22.2501C72 23.9101 73.49 24.5201 75.29 23.6101C76.0862 23.2611 76.7282 22.6343 77.0962 21.8467C77.4642 21.0592 77.5331 20.1646 77.29 19.33C76.77 17.82 74.7 17.52 72.99 18.21C71.76 18.7 70.98 20.5901 71.49 22.2501Z" fill="#C26A58"/>
<path d="M73.57 22.4601C73.5758 22.4857 73.5867 22.5099 73.602 22.5313C73.6173 22.5527 73.6366 22.5709 73.6589 22.5848C73.6812 22.5988 73.706 22.6081 73.7319 22.6124C73.7579 22.6168 73.7844 22.616 73.81 22.6101C73.8504 22.5889 73.8823 22.5545 73.9005 22.5127C73.9187 22.4709 73.922 22.4241 73.91 22.3801C73.7958 21.8848 73.7788 21.372 73.86 20.8701C74.4 20.9901 74.86 21.1301 74.86 21.1301C74.8837 21.1403 74.9092 21.1455 74.935 21.1455C74.9608 21.1455 74.9863 21.1403 75.01 21.1301C75.0606 21.1057 75.1 21.0627 75.12 21.0101C75.1276 20.9845 75.1299 20.9576 75.127 20.931C75.124 20.9045 75.1158 20.8789 75.1027 20.8556C75.0897 20.8323 75.0721 20.8118 75.051 20.7954C75.03 20.779 75.0058 20.7671 74.98 20.7601C74.98 20.7601 74.51 20.6101 73.98 20.4901C74.1109 20.0221 74.3791 19.6041 74.75 19.29C74.7735 19.2743 74.7934 19.2537 74.8084 19.2296C74.8233 19.2056 74.833 19.1786 74.8367 19.1505C74.8405 19.1224 74.8382 19.0938 74.8301 19.0667C74.822 19.0395 74.8082 19.0145 74.7896 18.9931C74.7711 18.9716 74.7482 18.9544 74.7225 18.9425C74.6968 18.9306 74.6688 18.9244 74.6404 18.9241C74.6121 18.9238 74.5841 18.9295 74.5581 18.9409C74.5322 18.9523 74.509 18.9691 74.49 18.9901C74.0507 19.4402 73.7351 19.9962 73.5739 20.6041C73.4127 21.2121 73.4113 21.8514 73.57 22.4601Z" fill="#13242D"/>
<path d="M63.33 31.54H62.33C59.82 31.54 53.16 27.63 53.16 22.8V13.3401C53.1495 12.2028 53.363 11.0746 53.7885 10.0199C54.214 8.96518 54.8431 8.00459 55.6398 7.19299C56.4365 6.3814 57.3853 5.73469 58.432 5.28979C59.4787 4.8449 60.6028 4.61056 61.74 4.6001H64.37C65.5073 4.61056 66.6313 4.8449 67.678 5.28979C68.7247 5.73469 69.6735 6.3814 70.4703 7.19299C71.267 8.00459 71.896 8.96518 72.3215 10.0199C72.747 11.0746 72.9605 12.2028 72.95 13.3401V22.8C72.95 27.63 66.24 31.54 63.33 31.54Z" fill="#C26A58"/>
<path d="M81.45 81.92L85.27 109.38L89.12 109.46C89.12 109.46 89.12 92.6501 88.53 81.3601C88.3653 80.4344 87.8676 79.6009 87.1308 79.0169C86.3939 78.433 85.4688 78.1389 84.53 78.19C83.6535 78.3367 82.8594 78.7947 82.2936 79.48C81.7277 80.1652 81.4282 81.0316 81.45 81.92Z" fill="#C26A58"/>
<path d="M85.84 107.63C85.195 108.603 84.7543 109.696 84.5445 110.845C84.3348 111.993 84.3605 113.172 84.62 114.31L83.49 117.93C83.4032 118.198 83.4104 118.488 83.5104 118.752C83.6103 119.015 83.7972 119.237 84.04 119.38C84.1644 119.458 84.3043 119.507 84.4499 119.525C84.5955 119.542 84.7432 119.528 84.8825 119.482C85.0218 119.436 85.1493 119.36 85.256 119.26C85.3628 119.159 85.4461 119.036 85.5001 118.9L86.5001 116.9V117.7C86.5498 118.962 86.1999 120.208 85.5001 121.26L83.5001 124.19C83.3914 124.359 83.3255 124.552 83.308 124.753C83.2906 124.953 83.3222 125.155 83.4 125.34C83.4598 125.506 83.5623 125.653 83.6971 125.766C83.832 125.88 83.9944 125.956 84.168 125.986C84.3416 126.016 84.5201 126 84.6855 125.94C84.851 125.879 84.9974 125.775 85.11 125.64L88.11 122.16C88.6922 121.473 89.1317 120.677 89.4029 119.819C89.6742 118.96 89.7719 118.056 89.6901 117.16L88.78 107.16L85.84 107.63Z" fill="#C26A58"/>
<path d="M88.53 81.36L86.83 58L78.71 59.99L81.51 82.24L88.53 81.36Z" fill="#C26A58"/>
<path d="M78.1 56.95L75.24 40.95C78.5627 41.5521 81.6097 43.19 83.9448 45.6293C86.2799 48.0686 87.7834 51.1841 88.24 54.5299L88.55 58.37L76.55 63.1899L78.1 56.95Z" fill="#871719"/>
<path d="M78.99 62.2L79.48 66.08L86.9 59.02L78.99 62.2Z" fill="#B26356"/>
<path d="M30.1 42.1899L26.01 42.38L30.01 69.7999C30.0615 70.5072 30.2718 71.1937 30.6251 71.8086C30.9784 72.4234 31.4658 72.9508 32.0509 73.3514C32.636 73.7521 33.3038 74.0157 34.0049 74.1228C34.7059 74.2299 35.422 74.1777 36.1 73.97C38.51 73.23 39.17 70.8699 38.54 68.4299L30.1 42.1899Z" fill="#C26A58"/>
<path d="M30.1 42.26L31.02 39.6899C31.4963 38.3444 31.6538 36.9067 31.48 35.4899L31.16 32.9999C31.1378 32.8633 31.0875 32.7326 31.0123 32.6164C30.937 32.5002 30.8385 32.4009 30.7229 32.3248C30.6072 32.2486 30.4771 32.1974 30.3406 32.1741C30.2041 32.1509 30.0643 32.1563 29.93 32.1899C29.692 32.2611 29.4809 32.4021 29.324 32.5947C29.1671 32.7872 29.0716 33.0224 29.05 33.2698L28.81 35.9199L24.49 26.4199C24.4491 26.3223 24.3877 26.2347 24.31 26.1629C24.2323 26.0911 24.1401 26.0368 24.0397 26.0036C23.9392 25.9704 23.8328 25.9592 23.7276 25.9706C23.6224 25.9821 23.521 26.0159 23.43 26.0699L23.17 26.2199C23.0194 26.306 22.9038 26.4424 22.8435 26.605C22.7832 26.7677 22.7819 26.9464 22.84 27.1099L25.22 32.8199L21.58 26.6398C21.5317 26.545 21.4638 26.4615 21.3807 26.395C21.2976 26.3284 21.2013 26.2802 21.0982 26.2537C20.9951 26.2272 20.8875 26.223 20.7827 26.2413C20.6778 26.2596 20.578 26.3001 20.49 26.3599L20.31 26.4799C20.1484 26.5831 20.0325 26.7441 19.986 26.9301C19.9395 27.1161 19.966 27.3129 20.06 27.4799L23.66 34.0198L19.82 29.3299C19.7507 29.2425 19.6625 29.1718 19.5621 29.1232C19.4617 29.0747 19.3516 29.0495 19.24 29.0495C19.1284 29.0495 19.0183 29.0747 18.9179 29.1232C18.8174 29.1718 18.7293 29.2425 18.66 29.3299L18.6 29.3998C18.4989 29.5236 18.4387 29.6758 18.428 29.8353C18.4172 29.9948 18.4564 30.1536 18.54 30.2899L22.02 35.6199L19.5 32.6699C19.4178 32.5747 19.3129 32.5018 19.1951 32.4578C19.0773 32.4138 18.9502 32.4002 18.8258 32.4182C18.7013 32.4361 18.5833 32.4849 18.4827 32.5604C18.3821 32.6358 18.3021 32.7354 18.25 32.8499C18.1992 32.9694 18.179 33.0996 18.1912 33.2288C18.2034 33.358 18.2476 33.4821 18.32 33.5899L26.48 45.1799L30.1 42.26Z" fill="#C26A58"/>
<path d="M28.45 35.79C27.8983 36.2548 27.4555 36.8353 27.1531 37.4902C26.8507 38.1452 26.696 38.8587 26.7 39.5801" stroke="#A85A4E" stroke-width="0.6" stroke-miterlimit="10"/>
<path d="M31.41 68.1899L40.92 51.75L47.34 57.08L38.34 72.24C38.0599 72.7055 37.6879 73.1091 37.2467 73.4261C36.8055 73.7432 36.3043 73.967 35.7737 74.084C35.2432 74.201 34.6944 74.2086 34.1608 74.1064C33.6271 74.0043 33.1199 73.7946 32.67 73.49C31.8293 72.9291 31.2321 72.0709 30.9983 71.0876C30.7646 70.1044 30.9117 69.0691 31.41 68.1899Z" fill="#C26A58"/>
<path d="M37.65 57.3999L42.83 64.6399C43.14 64.1199 44.83 61.4099 44.83 61.4099L37.65 57.3999Z" fill="#B26356"/>
<path d="M55.62 57.4L52.42 41.1101C52.42 41.1101 45.9 40.2001 38.42 52.8701L36.28 56.57L50.5 64.64L55.62 57.4Z" fill="#871719"/>
<path d="M62.9 38.7L50.9 41.3999C47.25 42.1999 44.16 45.84 45.04 49.47L53.2 76.1699H73L80.88 48.6899C81.66 44.9999 77.99 41.39 74.27 40.75L62.9 38.7Z" fill="#871719"/>
<path d="M53.49 40.7299L62.9 38.6599L71.45 40.1299L62.62 46.4799L53.49 40.7299Z" fill="#C26A58"/>
<path d="M76.54 63.18L78.84 52.55" stroke="#601115" stroke-width="0.6" stroke-linecap="round" stroke-linejoin="round"/>
<path d="M49.16 63.18L46.87 52.55" stroke="#601115" stroke-width="0.6" stroke-linecap="round" stroke-linejoin="round"/>
<path d="M61.63 12.3201L62.53 7.78002V12.3201H67.03L67.78 9.13012L68.55 12.3201H74.19C74.1881 10.3581 73.987 8.40146 73.59 6.4801C73.59 6.4801 72.09 -0.579966 61.51 0.0400341C61.51 0.0400341 52.6 0.0400639 51.95 12.3201H61.63Z" fill="#3A2219"/>
<path d="M60.78 15.85C60.7065 15.8847 60.6263 15.9027 60.545 15.9027C60.4637 15.9027 60.3835 15.8847 60.31 15.85C59.7774 15.6107 59.1922 15.5126 58.6107 15.5652C58.0292 15.6177 57.4711 15.819 56.99 16.1499C56.9368 16.1965 56.8744 16.2315 56.807 16.2528C56.7395 16.274 56.6684 16.281 56.598 16.2733C56.5277 16.2655 56.4598 16.2432 56.3985 16.2077C56.3373 16.1723 56.2841 16.1246 56.2423 16.0675C56.2006 16.0104 56.1711 15.9453 56.1558 15.8762C56.1406 15.8071 56.1399 15.7356 56.1538 15.6662C56.1677 15.5969 56.1959 15.5311 56.2365 15.4732C56.2772 15.4153 56.3294 15.3665 56.39 15.3299C57.022 14.8827 57.7612 14.6111 58.5324 14.5426C59.3035 14.4741 60.0791 14.6111 60.78 14.9399C60.8399 14.9706 60.8932 15.0128 60.9368 15.0642C60.9803 15.1155 61.0133 15.175 61.0337 15.2391C61.0542 15.3033 61.0617 15.3708 61.0559 15.4378C61.0501 15.5049 61.0312 15.5703 61 15.63C60.9509 15.724 60.8741 15.8008 60.78 15.85Z" fill="#1D1D1B"/>
<path d="M70.26 15.85C70.1865 15.8847 70.1063 15.9027 70.025 15.9027C69.9437 15.9027 69.8635 15.8847 69.79 15.85C69.2574 15.6107 68.6722 15.5126 68.0907 15.5652C67.5093 15.6177 66.9511 15.819 66.47 16.1499C66.4168 16.1965 66.3545 16.2315 66.287 16.2528C66.2196 16.274 66.1484 16.281 66.0781 16.2733C66.0077 16.2655 65.9398 16.2432 65.8785 16.2077C65.8173 16.1723 65.7641 16.1246 65.7223 16.0675C65.6806 16.0104 65.6511 15.9453 65.6359 15.8762C65.6207 15.8071 65.62 15.7356 65.6338 15.6662C65.6477 15.5969 65.6759 15.5311 65.7166 15.4732C65.7573 15.4153 65.8095 15.3665 65.87 15.3299C66.502 14.8827 67.2412 14.6111 68.0124 14.5426C68.7835 14.4741 69.5591 14.6111 70.26 14.9399C70.3199 14.9706 70.3732 15.0128 70.4168 15.0642C70.4603 15.1155 70.4933 15.175 70.5138 15.2391C70.5342 15.3033 70.5418 15.3708 70.536 15.4378C70.5302 15.5049 70.5112 15.5703 70.48 15.63C70.4309 15.724 70.3541 15.8008 70.26 15.85Z" fill="#1D1D1B"/>
<path d="M58.86 20.1799C59.3239 20.1799 59.7 19.6203 59.7 18.9299C59.7 18.2396 59.3239 17.6799 58.86 17.6799C58.3961 17.6799 58.02 18.2396 58.02 18.9299C58.02 19.6203 58.3961 20.1799 58.86 20.1799Z" fill="#1D1D1B"/>
<path d="M68.2 20.1799C68.6639 20.1799 69.04 19.6203 69.04 18.9299C69.04 18.2396 68.6639 17.6799 68.2 17.6799C67.7361 17.6799 67.36 18.2396 67.36 18.9299C67.36 19.6203 67.7361 20.1799 68.2 20.1799Z" fill="#1D1D1B"/>
<path d="M63.02 20.3301C63.13 20.8801 62.67 21.3301 62.67 21.9401C62.6803 22.1054 62.7315 22.2656 62.819 22.4062C62.9065 22.5469 63.0275 22.6636 63.1713 22.7458C63.3151 22.8281 63.477 22.8735 63.6426 22.8777C63.8082 22.8819 63.9723 22.8449 64.12 22.77" stroke="#1D1D1B" stroke-width="0.6" stroke-miterlimit="10"/>
<path d="M66.79 25.0499C66.79 25.0499 65.56 28.05 63.02 28.25C60.13 28.54 59.84 24.9399 59.84 24.9399L66.79 25.0499Z" fill="#F0EBE6"/>
<path d="M47.43 86.3301C47.43 86.3301 59.24 87.9201 58.67 76.3301" stroke="#031728" stroke-width="0.6" stroke-linecap="round" stroke-linejoin="round"/>
<path d="M78.58 86.3301C78.58 86.3301 66.76 87.9201 67.33 76.3301" stroke="#031728" stroke-width="0.6" stroke-linecap="round" stroke-linejoin="round"/>
<path d="M52.3 25.7101C52.5265 25.7101 52.71 25.1818 52.71 24.5301C52.71 23.8784 52.5265 23.3501 52.3 23.3501C52.0736 23.3501 51.89 23.8784 51.89 24.5301C51.89 25.1818 52.0736 25.7101 52.3 25.7101Z" fill="#FDE5D6"/>
<path d="M73.87 25.7101C74.0964 25.7101 74.28 25.1818 74.28 24.5301C74.28 23.8784 74.0964 23.3501 73.87 23.3501C73.6436 23.3501 73.46 23.8784 73.46 24.5301C73.46 25.1818 73.6436 25.7101 73.87 25.7101Z" fill="#FDE5D6"/>
<path d="M32.34 230.38L61.77 230.07C62.0081 229.556 62.1342 228.997 62.14 228.43C62.3 225.94 61.46 221.97 61.05 219.43C61 219.14 60.96 218.87 60.92 218.62C60.8658 218.289 60.8323 217.955 60.82 217.62C60.856 217.378 60.8321 217.13 60.7503 216.899C60.6685 216.668 60.5313 216.46 60.3508 216.295C60.1702 216.129 59.9517 216.01 59.7145 215.948C59.4773 215.886 59.2286 215.884 58.99 215.94C56.05 218.94 52.63 214.55 50.67 216.01C50.67 216.01 49.83 216.63 47.52 218.75C45.21 220.87 41.24 222.31 37.87 223.75C33.53 225.63 32.31 227.46 32.08 228.75C31.961 229.307 32.0537 229.888 32.34 230.38Z" fill="#052544"/>
<path d="M32.34 230.38L61.77 230.07C62.0081 229.556 62.1342 228.997 62.14 228.43L32.08 228.75C31.961 229.307 32.0537 229.888 32.34 230.38Z" fill="#858584"/>
<path d="M58.77 230.1H59.64C58.4965 228.814 57.9102 227.128 58.01 225.41C58.0763 224.269 58.3769 223.153 58.8931 222.133C59.4092 221.113 60.1298 220.21 61.01 219.48C60.96 219.19 60.9201 218.92 60.8801 218.67C59.8242 219.456 58.9536 220.465 58.3299 221.624C57.7061 222.783 57.3444 224.066 57.27 225.38C57.1882 227.082 57.7205 228.757 58.77 230.1Z" fill="#858584"/>
<path d="M48.03 220.5C48.1626 220.515 48.2956 220.476 48.3997 220.393C48.5038 220.309 48.5704 220.188 48.585 220.055C48.5996 219.922 48.5609 219.79 48.4775 219.685C48.394 219.581 48.2726 219.515 48.14 219.5L46.3 219.06C46.1741 219.03 46.0413 219.051 45.9307 219.118C45.8202 219.186 45.7408 219.294 45.71 219.42C45.6952 219.482 45.6928 219.546 45.7029 219.609C45.713 219.671 45.7355 219.731 45.769 219.785C45.8025 219.839 45.8463 219.886 45.8979 219.923C45.9496 219.96 46.0081 219.986 46.07 220L47.92 220.44C47.9501 220.47 47.9883 220.491 48.03 220.5Z" fill="#858584"/>
<path d="M50.1 218.9C50.2086 218.895 50.3128 218.856 50.3974 218.787C50.4819 218.719 50.5424 218.625 50.57 218.52C50.5848 218.458 50.5872 218.394 50.5771 218.332C50.567 218.269 50.5446 218.209 50.5111 218.155C50.4776 218.101 50.4337 218.054 50.3821 218.017C50.3304 217.98 50.2719 217.954 50.21 217.94L48.36 217.5C48.2983 217.485 48.2342 217.483 48.1715 217.493C48.1089 217.503 48.0488 217.525 47.9948 217.559C47.9409 217.592 47.8941 217.636 47.8573 217.688C47.8204 217.74 47.7941 217.798 47.78 217.86C47.7525 217.986 47.7746 218.117 47.8416 218.227C47.9087 218.337 48.0156 218.417 48.14 218.45L49.98 218.88L50.1 218.9Z" fill="#858584"/>
<path d="M46.21 221.59C46.3426 221.603 46.4751 221.563 46.5782 221.479C46.6814 221.395 46.7467 221.273 46.76 221.14C46.7733 221.007 46.7333 220.875 46.6489 220.772C46.5645 220.669 46.4427 220.603 46.3101 220.59L44.47 220.15C44.4083 220.135 44.3442 220.133 44.2816 220.143C44.2189 220.153 44.1588 220.175 44.1049 220.209C44.0509 220.242 44.0042 220.286 43.9673 220.338C43.9304 220.39 43.9041 220.448 43.89 220.51C43.8738 220.572 43.8703 220.636 43.8798 220.699C43.8892 220.763 43.9116 220.823 43.9452 220.877C43.9789 220.932 44.0233 220.979 44.0757 221.015C44.1281 221.052 44.1875 221.077 44.2501 221.09L46.09 221.53L46.21 221.59Z" fill="#858584"/>
<path d="M44.3801 222.64C44.5127 222.655 44.6456 222.616 44.7497 222.532C44.8538 222.449 44.9205 222.328 44.935 222.195C44.9496 222.062 44.9109 221.929 44.8274 221.825C44.744 221.721 44.6226 221.655 44.49 221.64L42.64 221.21C42.5782 221.194 42.5138 221.19 42.4506 221.2C42.3874 221.209 42.3269 221.232 42.2726 221.265C42.2183 221.299 42.1714 221.343 42.1349 221.396C42.0983 221.448 42.0729 221.507 42.06 221.57C42.0452 221.632 42.0428 221.696 42.0529 221.759C42.063 221.821 42.0855 221.881 42.1189 221.935C42.1524 221.989 42.1963 222.036 42.248 222.073C42.2997 222.11 42.3581 222.136 42.42 222.15L44.26 222.59L44.3801 222.64Z" fill="#858584"/>
<path d="M42.3801 223.61C42.4887 223.611 42.5943 223.574 42.6797 223.507C42.7651 223.44 42.8251 223.346 42.85 223.24C42.8775 223.114 42.8554 222.983 42.7884 222.873C42.7213 222.763 42.6145 222.683 42.49 222.65L40.65 222.22C40.5241 222.19 40.3913 222.211 40.2808 222.278C40.1702 222.346 40.0909 222.454 40.06 222.58C40.0452 222.642 40.0428 222.706 40.0529 222.768C40.063 222.831 40.0855 222.891 40.1189 222.945C40.1524 222.999 40.1963 223.046 40.248 223.083C40.2997 223.12 40.3581 223.146 40.42 223.16L42.27 223.6L42.3801 223.61Z" fill="#858584"/>
<path d="M40.22 224.45C40.3278 224.446 40.4313 224.407 40.5145 224.338C40.5977 224.269 40.6559 224.175 40.68 224.07C40.6963 224.008 40.6998 223.944 40.6903 223.881C40.6808 223.817 40.6585 223.757 40.6248 223.703C40.5911 223.648 40.5467 223.602 40.4943 223.565C40.4419 223.528 40.3826 223.503 40.32 223.49L38.48 223.05C38.4183 223.035 38.3542 223.033 38.2915 223.043C38.2289 223.053 38.1688 223.076 38.1148 223.109C38.0609 223.143 38.0141 223.186 37.9773 223.238C37.9404 223.29 37.9141 223.348 37.9 223.41C37.8725 223.536 37.8946 223.667 37.9616 223.777C38.0287 223.887 38.1356 223.967 38.26 224L40.1 224.43L40.22 224.45Z" fill="#858584"/>
<path d="M77.1 228.11C77.105 228.177 77.105 228.243 77.1 228.31C77.1 228.62 77.1 228.9 77.1 229.14C77.1 229.66 77.03 229.98 77.03 229.98H59.6C59.5487 229.424 59.5487 228.865 59.6 228.31C59.6298 227.075 59.9226 225.862 60.4589 224.749C60.9952 223.637 61.7627 222.652 62.71 221.86C66 219.32 64.71 219.86 65.4 218.69C65.48 218.56 66.0701 216.59 66.1301 216.45C66.7001 215.25 67.22 214.68 70.34 214.68C74.48 214.68 74.85 216.68 75.29 217.74C75.5704 218.545 75.8009 219.367 75.98 220.2C76.08 220.64 76.18 221.11 76.29 221.59C76.54 222.79 76.7801 224.04 76.9401 225.04C77.0772 226.057 77.1307 227.084 77.1 228.11Z" fill="#052544"/>
<path d="M77.1 228.11C77.105 228.177 77.105 228.243 77.1 228.31C77.1 228.62 77.1 228.9 77.1 229.14C76.2702 228.56 75.6384 227.74 75.29 226.79C74.21 223.86 75.87 220.33 75.94 220.18C76.04 220.62 76.14 221.09 76.25 221.57C75.6508 223.144 75.5737 224.869 76.03 226.49C76.2532 227.107 76.62 227.662 77.1 228.11Z" fill="#858584"/>
<path d="M77.1 228.31C77.1 229.31 77.0001 229.98 77.0001 229.98H59.6C59.5487 229.425 59.5487 228.866 59.6 228.31H77.1Z" fill="#858584"/>
<path d="M70.9 220.11H70.77C69.4615 219.769 68.091 219.741 66.77 220.03C66.7043 220.047 66.636 220.051 66.5688 220.042C66.5016 220.032 66.4369 220.01 66.3784 219.976C66.3199 219.941 66.2687 219.896 66.2278 219.841C66.1869 219.787 66.1571 219.726 66.14 219.66C66.1229 219.594 66.119 219.526 66.1283 219.459C66.1377 219.392 66.1602 219.327 66.1945 219.268C66.2289 219.21 66.2745 219.159 66.3286 219.118C66.3827 219.077 66.4443 219.047 66.51 219.03C68.0111 218.691 69.5718 218.718 71.06 219.11C71.1234 219.125 71.1831 219.153 71.2356 219.191C71.2882 219.23 71.3325 219.279 71.366 219.334C71.3995 219.39 71.4215 219.452 71.4308 219.517C71.4401 219.581 71.4364 219.647 71.42 219.71C71.3961 219.828 71.3303 219.934 71.2348 220.007C71.1392 220.081 71.0203 220.117 70.9 220.11Z" fill="#858584"/>
<path d="M71.18 218.1H71.06C69.7508 217.764 68.3816 217.737 67.06 218.02C66.9943 218.037 66.926 218.041 66.8588 218.032C66.7916 218.022 66.7268 218 66.6683 217.966C66.6098 217.931 66.5587 217.886 66.5178 217.831C66.4769 217.777 66.4471 217.716 66.43 217.65C66.4129 217.584 66.4089 217.516 66.4183 217.449C66.4276 217.382 66.4502 217.317 66.4845 217.258C66.5189 217.2 66.5644 217.149 66.6185 217.108C66.6727 217.067 66.7343 217.037 66.8 217.02C68.3011 216.681 69.8618 216.708 71.35 217.1C71.4769 217.135 71.5848 217.219 71.6503 217.333C71.7159 217.447 71.7337 217.583 71.7 217.71C71.6759 217.827 71.6098 217.932 71.514 218.004C71.4182 218.075 71.2994 218.11 71.18 218.1Z" fill="#858584"/>
<path d="M70.15 221.7H70.03C68.7207 221.365 67.3517 221.338 66.03 221.62C65.967 221.638 65.901 221.643 65.8359 221.635C65.7708 221.627 65.7079 221.607 65.651 221.574C65.5941 221.541 65.5444 221.498 65.5047 221.445C65.465 221.393 65.4362 221.333 65.42 221.27C65.3863 221.143 65.4041 221.007 65.4697 220.893C65.5352 220.779 65.6431 220.695 65.77 220.66C67.2711 220.321 68.8318 220.348 70.32 220.74C70.4526 220.757 70.573 220.826 70.6545 220.932C70.7361 221.038 70.7723 221.172 70.7551 221.305C70.7378 221.437 70.6686 221.558 70.5626 221.639C70.4567 221.721 70.3227 221.757 70.1901 221.74L70.15 221.7Z" fill="#858584"/>
<path d="M69.28 223.47H69.15C67.8415 223.129 66.4711 223.102 65.15 223.39C65.0174 223.424 64.8766 223.405 64.7584 223.335C64.6403 223.266 64.5545 223.152 64.52 223.02C64.4855 222.887 64.5052 222.746 64.5746 222.628C64.644 222.51 64.7574 222.424 64.89 222.39C66.3911 222.051 67.9518 222.078 69.44 222.47C69.5727 222.486 69.6935 222.554 69.776 222.659C69.8585 222.764 69.896 222.897 69.88 223.03C69.8641 223.162 69.7962 223.283 69.6911 223.366C69.5861 223.448 69.4526 223.486 69.32 223.47H69.28Z" fill="#858584"/>
<path d="M131.3 23.1101L130.33 38.9501H141.08L140.94 25.9401L131.3 23.1101Z" fill="#C26A58"/>
<path d="M133.3 27.4899L141.04 34.6099L140.94 25.9399L133.3 27.4899Z" fill="#B26356"/>
<path d="M141.1 1.25004C141.1 1.25004 148.73 2.13 148.1 13.46C147.96 16.12 148.8 27.4599 141.92 28.8899C137.11 29.8899 129.15 28.12 127.68 23.18C127.05 21.05 125.82 8.69999 125.82 8.69999C125.82 8.69999 123.96 -1.00996 141.1 1.25004Z" fill="#C26A58"/>
<path d="M129.04 19.48C128.49 21.26 126.85 21.92 124.95 20.94C124.099 20.5575 123.416 19.8798 123.026 19.0323C122.636 18.1848 122.567 17.2249 122.83 16.33C123.39 14.71 125.62 14.3301 127.47 15.1301C128.75 15.7001 129.59 17.7 129.04 19.48Z" fill="#C26A58"/>
<path d="M138.85 217.23L138.35 189.46H148.45L147.8 218.35L138.85 217.23Z" fill="#C26A58"/>
<path d="M138.24 213.28C139.576 213.94 141.048 214.277 142.538 214.265C144.028 214.253 145.495 213.892 146.82 213.21C146.82 213.21 148.14 209.15 151.82 211.51C154.694 214.489 158.368 216.573 162.4 217.51C171.17 219.29 171.56 223.38 171.56 223.38H135.56C135.633 220.369 135.873 217.364 136.28 214.38C136.312 214.165 136.392 213.961 136.515 213.782C136.638 213.603 136.801 213.455 136.99 213.349C137.179 213.242 137.39 213.181 137.607 213.169C137.824 213.157 138.04 213.195 138.24 213.28Z" fill="black"/>
<mask id="mask0_551_860" style="mask-type:luminance" maskUnits="userSpaceOnUse" x="135" y="210" width="37" height="14">
<path d="M138.24 213.28C139.576 213.94 141.048 214.277 142.538 214.265C144.028 214.253 145.495 213.892 146.82 213.21C146.82 213.21 148.14 209.15 151.82 211.51C154.693 214.489 158.368 216.573 162.4 217.51C171.17 219.29 171.56 223.38 171.56 223.38H135.56C135.632 220.369 135.873 217.364 136.28 214.38C136.312 214.165 136.392 213.961 136.515 213.782C136.638 213.603 136.801 213.455 136.99 213.349C137.179 213.242 137.39 213.181 137.607 213.169C137.824 213.157 138.04 213.195 138.24 213.28Z" fill="white"/>
</mask>
<g mask="url(#mask0_551_860)">
<path d="M163.64 216.34C163.64 216.34 159.64 218.18 157.81 225.45L172.75 224.84C172.75 224.84 173.15 218.19 163.64 216.34Z" fill="white"/>
</g>
<path d="M171.58 223.41H135.58V227.47H171.58V223.41Z" fill="white"/>
<path d="M158.92 216.45C158.92 216.45 157.51 216.45 156.41 218.36" stroke="white" stroke-width="0.89" stroke-linecap="round" stroke-linejoin="round"/>
<path d="M157.1 215.49C157.1 215.49 155.69 215.49 154.59 217.4" stroke="white" stroke-width="0.89" stroke-linecap="round" stroke-linejoin="round"/>
<path d="M155.3 214.36C155.3 214.36 153.89 214.36 152.79 216.27" stroke="white" stroke-width="0.89" stroke-linecap="round" stroke-linejoin="round"/>
<path d="M157.73 223.27H171.58" stroke="black" stroke-width="0.5" stroke-linecap="round" stroke-linejoin="round"/>
<path d="M134.87 206.89H151.7L150.35 92.1599H133.72L134.87 206.89Z" fill="#5D5D5D"/>
<path d="M117.44 214.5L118.67 186.71L128.16 187.12L125.86 215.94L117.44 214.5Z" fill="#C26A58"/>
<path d="M109.8 223.19C109.041 224.379 108.69 225.783 108.8 227.19H126.86V223.19H109.8Z" fill="white"/>
<path d="M126.89 223.19L126.23 213C126.23 213 123.57 208.41 117.07 212.41C117.07 212.41 115.15 217.05 113.47 218.77C112.115 220.129 110.887 221.608 109.8 223.19H126.89Z" fill="black"/>
<mask id="mask1_551_860" style="mask-type:luminance" maskUnits="userSpaceOnUse" x="109" y="210" width="18" height="14">
<path d="M126.89 223.19L126.23 213C126.23 213 123.57 208.41 117.07 212.41C117.07 212.41 115.15 217.05 113.47 218.77C112.115 220.129 110.887 221.608 109.8 223.19H126.89Z" fill="white"/>
</mask>
<g mask="url(#mask1_551_860)">
<path d="M127.53 224.3C127.53 224.3 127.25 219.77 119.22 219.77C111.19 219.77 108.94 224.15 108.94 224.15L128.85 224.3" fill="white"/>
</g>
<path d="M117.56 217.92C118.428 217.48 119.392 217.268 120.364 217.301C121.336 217.334 122.284 217.612 123.12 218.11" stroke="white" stroke-width="0.82" stroke-linecap="round" stroke-linejoin="round"/>
<path d="M118.1 216.21C118.93 215.772 119.861 215.557 120.799 215.589C121.737 215.621 122.651 215.897 123.45 216.39" stroke="white" stroke-width="0.81" stroke-linecap="round" stroke-linejoin="round"/>
<path d="M118.64 214.5C119.408 214.064 120.281 213.848 121.164 213.878C122.047 213.909 122.904 214.182 123.64 214.67" stroke="white" stroke-width="0.78" stroke-linecap="round" stroke-linejoin="round"/>
<path d="M126.89 223.19H109.8" stroke="black" stroke-width="0.5" stroke-linecap="round" stroke-linejoin="round"/>
<path d="M138.3 92.1599L131.66 206.89H113.47L118.5 92.1599H138.3Z" fill="#5D5D5D"/>
<path d="M134.41 160.5L136.99 110.72H142.71" stroke="black" stroke-width="0.5" stroke-linecap="round" stroke-linejoin="round"/>
<path d="M151.18 61.8101L165.97 74.7001C166.658 75.2994 167.46 75.7527 168.328 76.0325C169.196 76.3122 170.112 76.4126 171.02 76.3275C171.928 76.2424 172.81 75.9736 173.611 75.5374C174.412 75.1012 175.116 74.5067 175.68 73.79C176.736 72.4489 177.243 70.7568 177.098 69.0562C176.953 67.3555 176.167 65.7734 174.9 64.6301L158.99 50.29L151.18 61.8101Z" fill="#C26A58"/>
<path d="M153.32 42.3299L165.85 53.3299L155.93 68.0899L141.78 55.3099C140.224 53.8986 139.231 51.972 138.985 49.8858C138.739 47.7996 139.256 45.6948 140.44 43.9599C141.133 42.9475 142.032 42.0935 143.079 41.4541C144.126 40.8146 145.297 40.4043 146.514 40.2503C147.731 40.0963 148.967 40.202 150.14 40.5605C151.313 40.919 152.397 41.522 153.32 42.3299Z" fill="#009EE2"/>
<path d="M159.83 69.3501C159.73 69.2701 164.53 55.28 164.53 55.28L156.83 66.7401L159.83 69.3501Z" fill="#B26356"/>
<path d="M165.16 66.7001L171.69 51.7001C172.105 50.5837 172.929 49.6669 173.995 49.1358C175.061 48.6047 176.289 48.4989 177.43 48.8401C178.58 49.179 179.557 49.9444 180.161 50.9798C180.765 52.0152 180.951 53.2423 180.68 54.4101L177.41 70.8901C177.171 71.9171 176.708 72.8787 176.054 73.7059C175.401 74.533 174.572 75.2052 173.628 75.6745C172.683 76.1437 171.647 76.3984 170.593 76.4201C169.539 76.4418 168.493 76.2301 167.53 75.8001C164.19 74.2401 164.03 70.1501 165.16 66.7001Z" fill="#C26A58"/>
<path d="M178.1 37.34L176.69 35.6101C175.52 34.1779 174.708 32.488 174.32 30.68L173.62 27.5001C173.582 27.323 173.583 27.1397 173.623 26.9631C173.663 26.7864 173.741 26.6206 173.851 26.477C173.961 26.3334 174.102 26.2154 174.262 26.1313C174.422 26.0472 174.599 25.9991 174.78 25.9901C175.099 25.9707 175.417 26.0493 175.691 26.2155C175.964 26.3817 176.18 26.6275 176.31 26.92L177.76 30.06L179.01 18.8701C179.023 18.7346 179.064 18.6032 179.13 18.4841C179.196 18.3649 179.285 18.2605 179.393 18.1772C179.501 18.0939 179.624 18.0333 179.756 17.9995C179.888 17.9656 180.025 17.959 180.16 17.98L180.54 18.05C180.767 18.0988 180.971 18.2254 181.115 18.4079C181.259 18.5904 181.335 18.8174 181.33 19.05L180.96 26.46L182.66 17.93C182.682 17.7955 182.732 17.667 182.806 17.5524C182.88 17.4378 182.977 17.3396 183.09 17.2637C183.203 17.1879 183.331 17.136 183.465 17.1113C183.599 17.0866 183.737 17.0896 183.87 17.1201L184.14 17.19C184.365 17.2544 184.56 17.3958 184.692 17.5895C184.824 17.7833 184.883 18.017 184.86 18.2501L183.37 27.2501L185.95 20.45C186.001 20.3159 186.08 20.1943 186.182 20.0934C186.284 19.9926 186.406 19.9149 186.541 19.8655C186.676 19.8162 186.82 19.7964 186.963 19.8076C187.106 19.8187 187.245 19.8604 187.37 19.93L187.48 19.9901C187.653 20.1002 187.788 20.261 187.867 20.4506C187.946 20.6403 187.964 20.8495 187.92 21.05L186.06 28.47L187.86 23.78C187.925 23.6322 188.024 23.5023 188.149 23.4012C188.275 23.3001 188.423 23.231 188.581 23.1995C188.74 23.1681 188.903 23.1754 189.058 23.2208C189.212 23.2661 189.354 23.3482 189.47 23.46C189.583 23.5834 189.663 23.7332 189.704 23.8957C189.744 24.0582 189.742 24.2281 189.7 24.39L186 35.95C185.815 36.5286 185.516 37.0644 185.121 37.5261C184.726 37.9878 184.243 38.366 183.7 38.6389C183.157 38.9117 182.565 39.0735 181.959 39.1149C181.353 39.1563 180.745 39.0765 180.17 38.8801C179.344 38.5808 178.624 38.0452 178.1 37.34Z" fill="black"/>
<path d="M179.24 38.31C178.471 38.2954 177.715 38.5167 177.075 38.9439C176.435 39.3711 175.942 39.9839 175.66 40.7L167.1 58.98C166.965 59.2983 166.929 59.6497 166.997 59.9886C167.065 60.3275 167.233 60.6382 167.48 60.8801C170.518 63.5419 174.442 64.9691 178.48 64.8801C178.86 64.8617 179.223 64.7153 179.51 64.4648C179.797 64.2143 179.991 63.8744 180.06 63.5001L183.65 43.09C183.99 40.81 181.54 38.34 179.24 38.31Z" fill="black"/>
<path d="M183.6 38.7001C183.6 39.8901 182.41 40.7001 180.84 40.6001C179.27 40.5001 177.94 39.3901 177.9 38.2001C177.86 37.0101 179.09 36.2001 180.66 36.3001C182.23 36.4001 183.56 37.5401 183.6 38.7001Z" fill="#373838"/>
<path d="M119.16 40.3701C119.16 40.3701 123.45 38.5601 135.7 38.1301C140.687 38.1617 145.635 39.0062 150.35 40.6301V92.17H117.16L117.79 50.29L119.16 40.3701Z" fill="#009EE2"/>
<path d="M127.84 38.6999C127.84 38.6999 127.84 45.8199 137.24 45.8199C144.61 45.8199 143.55 40.82 142.8 38.75C142.8 38.75 137.44 37.9 135.64 37.88C133.68 37.86 127.84 38.6999 127.84 38.6999Z" fill="#C26A58"/>
<path d="M150.35 63.0401V56.1001" stroke="#0591C1" stroke-width="0.6" stroke-linecap="round" stroke-linejoin="round"/>
<path d="M107.73 51.0701L93.59 64.42C92.9316 65.0321 92.4064 65.7734 92.0473 66.5975C91.6882 67.4217 91.5028 68.3111 91.5028 69.2101C91.5028 70.1091 91.6882 70.9984 92.0473 71.8225C92.4064 72.6467 92.9316 73.388 93.59 74.0001C94.8479 75.1462 96.4883 75.7814 98.19 75.7814C99.8917 75.7814 101.532 75.1462 102.79 74.0001L118.52 59.7001L107.73 51.0701Z" fill="#C26A58"/>
<path d="M126.95 54.8601L114.9 66.16L101.07 55.16L115.07 42.4301C116.623 41.0253 118.626 40.2204 120.719 40.1599C122.812 40.0994 124.859 40.7874 126.49 42.1001C127.436 42.8579 128.207 43.8106 128.751 44.8934C129.295 45.9763 129.599 47.1637 129.643 48.3748C129.687 49.5858 129.469 50.792 129.004 51.9111C128.539 53.0303 127.839 54.0362 126.95 54.8601Z" fill="#009EE2"/>
<path d="M109.48 67.9599L113.06 64.6899L102.33 56.1699L109.48 67.9599Z" fill="#B26356"/>
<path d="M117.59 63.6399L125.76 55.95" stroke="#0591C1" stroke-width="0.6" stroke-linecap="round" stroke-linejoin="round"/>
<path d="M103.59 66.3199L116.39 91.22L113.47 98.99L93.1 73.5799C92.377 72.7172 91.8792 71.6887 91.651 70.5865C91.4228 69.4843 91.4713 68.3428 91.7923 67.2639C92.1133 66.1851 92.6967 65.2026 93.4903 64.4044C94.2839 63.6062 95.263 63.0171 96.34 62.6899C99.77 61.5099 102.03 63.0699 103.59 66.3199Z" fill="#C26A58"/>
<path d="M113.92 86.3899L113.99 93.7699L115.81 90.0799L113.92 86.3899Z" fill="#B26356"/>
<path d="M118.48 98.0699C118.296 98.6689 117.92 99.1905 117.41 99.5541C116.899 99.9177 116.283 100.103 115.657 100.081C115.031 100.06 114.429 99.8324 113.945 99.4344C113.462 99.0365 113.122 98.4902 112.98 97.88C112.657 95.9616 112.876 93.9912 113.61 92.1899C116.61 84.0499 119.91 85.6899 122.12 85.9199L118.48 98.0699Z" fill="#C26A58"/>
<path d="M117.86 96.6301C117.86 96.6301 118.61 94.8 120.98 95.89C122.21 96.46 123.36 97.0701 124.18 97.5101C124.509 97.6929 124.897 97.7375 125.259 97.6344C125.621 97.5313 125.927 97.2888 126.11 96.9601C126.202 96.7926 126.258 96.6075 126.275 96.417C126.291 96.2265 126.268 96.0346 126.206 95.8538C126.143 95.6729 126.044 95.5071 125.914 95.3669C125.784 95.2268 125.626 95.1154 125.45 95.04L117.77 91.6101L117.86 96.6301Z" fill="#C26A58"/>
<path d="M127.23 96.0299L117.47 91.48L118.85 89.1499L128.41 93.59C128.573 93.666 128.719 93.7737 128.84 93.9069C128.96 94.04 129.053 94.196 129.113 94.3655C129.172 94.535 129.197 94.7147 129.187 94.894C129.176 95.0734 129.129 95.2487 129.05 95.4099C128.885 95.7279 128.604 95.9698 128.264 96.0853C127.925 96.2008 127.555 96.181 127.23 96.0299Z" fill="#C26A58"/>
<path d="M128.42 93.64L118.52 89.1601C118.52 89.1601 119.14 87.0401 119.74 87.1001C123.436 87.5593 126.936 89.0222 129.86 91.3301C130.111 91.5208 130.286 91.7938 130.356 92.101C130.425 92.4082 130.384 92.7301 130.24 93.0102C130.077 93.3299 129.796 93.574 129.457 93.6914C129.118 93.8089 128.746 93.7904 128.42 93.64Z" fill="#C26A58"/>
<path d="M115.04 89.04C115.04 89.04 118.61 80.5901 126.99 83.8801C127.285 83.9989 127.525 84.224 127.662 84.511C127.799 84.798 127.823 85.126 127.73 85.43C127.63 85.7448 127.415 86.0098 127.127 86.1714C126.839 86.333 126.501 86.3789 126.18 86.3C124.77 85.98 122.5 85.7601 121.57 87.3801C120.77 88.7701 118.71 87.8301 118.71 87.8301L115.04 89.04Z" fill="#C26A58"/>
<path d="M137.27 9.82011C137.204 9.86653 137.128 9.89621 137.047 9.90666C136.967 9.91711 136.886 9.90807 136.81 9.88017C136.247 9.72274 135.653 9.71362 135.085 9.8538C134.517 9.99398 133.995 10.2786 133.57 10.6801C133.473 10.7756 133.342 10.8287 133.206 10.8278C133.071 10.8269 132.941 10.7719 132.845 10.6751C132.75 10.5783 132.696 10.4475 132.697 10.3116C132.698 10.1756 132.753 10.0456 132.85 9.95011C133.415 9.42288 134.109 9.05307 134.862 8.8776C135.614 8.70214 136.4 8.72714 137.14 8.95011C137.229 8.98033 137.308 9.03459 137.368 9.10697C137.429 9.17936 137.468 9.26709 137.481 9.36027C137.495 9.45345 137.482 9.54846 137.445 9.63493C137.408 9.72139 137.347 9.79593 137.27 9.85014V9.82011Z" fill="#1D1D1B"/>
<path d="M145.7 9.15008C145.629 9.1869 145.55 9.20611 145.47 9.20611C145.39 9.20611 145.311 9.1869 145.24 9.15008C144.711 8.9003 144.127 8.79127 143.544 8.83331C142.96 8.87535 142.398 9.06704 141.91 9.39007C141.856 9.43002 141.794 9.45868 141.729 9.4743C141.664 9.48992 141.596 9.49222 141.53 9.48101C141.463 9.46981 141.4 9.44535 141.343 9.40911C141.287 9.37288 141.238 9.32557 141.2 9.27008C141.122 9.15994 141.091 9.0234 141.113 8.89032C141.136 8.75723 141.21 8.63849 141.32 8.56012C141.962 8.12735 142.707 7.8717 143.48 7.81903C144.252 7.76635 145.025 7.91859 145.72 8.26019C145.779 8.29171 145.831 8.33455 145.874 8.38629C145.916 8.43802 145.948 8.49751 145.968 8.56158C145.987 8.62565 145.994 8.69304 145.988 8.7597C145.981 8.82636 145.962 8.89104 145.93 8.95013C145.874 9.0375 145.794 9.10688 145.7 9.15008Z" fill="#1D1D1B"/>
<path d="M144.67 14.47C145.134 14.47 145.51 13.9103 145.51 13.22C145.51 12.5296 145.134 11.97 144.67 11.97C144.206 11.97 143.83 12.5296 143.83 13.22C143.83 13.9103 144.206 14.47 144.67 14.47Z" fill="#1D1D1B"/>
<path d="M135.6 15.01C136.064 15.01 136.44 14.4504 136.44 13.76C136.44 13.0697 136.064 12.51 135.6 12.51C135.136 12.51 134.76 13.0697 134.76 13.76C134.76 14.4504 135.136 15.01 135.6 15.01Z" fill="#1D1D1B"/>
<path d="M140.77 14.78C140.88 15.33 140.42 15.83 140.42 16.39C140.43 16.5553 140.482 16.7155 140.569 16.8562C140.657 16.9969 140.778 17.1136 140.921 17.1959C141.065 17.2782 141.227 17.3234 141.393 17.3276C141.558 17.3319 141.722 17.295 141.87 17.2201" stroke="#1D1D1B" stroke-width="0.6" stroke-miterlimit="10"/>
<path d="M144.26 20.89C143.495 21.8295 142.389 22.4276 141.183 22.5532C139.978 22.6788 138.772 22.3217 137.83 21.5601C137.803 21.534 137.782 21.5028 137.768 21.4685C137.753 21.4342 137.746 21.3974 137.746 21.3601C137.746 21.3229 137.753 21.2859 137.768 21.2516C137.782 21.2172 137.803 21.1861 137.83 21.16C137.856 21.1334 137.887 21.1123 137.922 21.0979C137.956 21.0835 137.993 21.076 138.03 21.076C138.067 21.076 138.104 21.0835 138.138 21.0979C138.173 21.1123 138.204 21.1334 138.23 21.16C138.641 21.4927 139.113 21.7408 139.62 21.8898C140.127 22.0388 140.659 22.0858 141.184 22.0282C141.71 21.9705 142.218 21.8094 142.681 21.554C143.144 21.2985 143.551 20.9539 143.88 20.54C143.906 20.5134 143.937 20.4923 143.972 20.4779C144.006 20.4635 144.043 20.4561 144.08 20.4561C144.117 20.4561 144.154 20.4635 144.188 20.4779C144.223 20.4923 144.254 20.5134 144.28 20.54C144.315 20.5926 144.333 20.6552 144.329 20.7184C144.325 20.7816 144.301 20.8419 144.26 20.89Z" fill="#13242D"/>
<path d="M126.31 19.9801C126.303 20.0059 126.291 20.0301 126.275 20.0511C126.258 20.0722 126.238 20.0897 126.215 20.1028C126.191 20.1158 126.166 20.1241 126.139 20.1271C126.112 20.13 126.086 20.1277 126.06 20.1201C126.021 20.0976 125.99 20.063 125.972 20.0216C125.954 19.9802 125.95 19.934 125.96 19.89C126.052 19.3909 126.052 18.8793 125.96 18.3801C125.42 18.5001 124.96 18.64 124.96 18.64C124.912 18.6595 124.858 18.6595 124.81 18.64C124.765 18.6161 124.73 18.5772 124.71 18.53C124.702 18.5044 124.7 18.4776 124.703 18.451C124.706 18.4245 124.714 18.3988 124.727 18.3755C124.74 18.3522 124.758 18.3318 124.779 18.3154C124.8 18.299 124.824 18.2869 124.85 18.28C124.85 18.28 125.32 18.1301 125.85 18.0101C125.719 17.5421 125.451 17.1241 125.08 16.8101C125.043 16.7727 125.023 16.7224 125.023 16.67C125.023 16.6177 125.043 16.5674 125.08 16.53C125.098 16.5106 125.119 16.4952 125.144 16.4846C125.168 16.474 125.194 16.4685 125.22 16.4685C125.246 16.4685 125.272 16.474 125.296 16.4846C125.321 16.4952 125.342 16.5106 125.36 16.53C125.8 16.9762 126.118 17.5276 126.284 18.1315C126.45 18.7354 126.459 19.3718 126.31 19.9801Z" fill="#13242D"/>
<path d="M240.1 227.75L236.16 230.67L231.84 226.18C229.08 203.38 225.36 193.87 226.48 182.38C226.73 179.79 224.9 170.15 224.9 170.15H240.57C240.68 174.052 240.345 177.954 239.57 181.78L240.1 227.75Z" fill="#FFA48D"/>
<path d="M258.21 237.22L229.82 236.91C229.59 236.415 229.467 235.876 229.46 235.33C229.31 232.93 230.12 229.1 230.52 226.69C230.573 226.41 230.613 226.15 230.64 225.91C230.694 225.579 230.724 225.245 230.73 224.91C230.698 224.677 230.723 224.439 230.803 224.217C230.883 223.996 231.016 223.797 231.191 223.639C231.365 223.48 231.575 223.366 231.803 223.307C232.032 223.248 232.271 223.246 232.5 223.3C235.34 226.14 238.64 221.96 240.5 223.36C240.5 223.36 241.32 223.96 243.55 226.01C245.78 228.06 249.55 229.44 252.85 230.84C257.04 232.65 258.22 234.42 258.44 235.63C258.56 236.17 258.478 236.736 258.21 237.22Z" fill="#1D1D1B"/>
<path d="M258.21 237.22L229.82 236.91C229.59 236.415 229.467 235.876 229.46 235.33L258.46 235.64C258.571 236.18 258.482 236.741 258.21 237.22Z" fill="#858584"/>
<path d="M232.71 236.94H231.87C232.419 236.327 232.841 235.611 233.111 234.833C233.38 234.055 233.492 233.231 233.44 232.41C233.374 231.308 233.08 230.232 232.577 229.25C232.075 228.267 231.374 227.399 230.52 226.7C230.573 226.42 230.613 226.16 230.64 225.92C231.656 226.68 232.494 227.653 233.096 228.77C233.697 229.888 234.046 231.123 234.12 232.39C234.21 234.027 233.71 235.641 232.71 236.94Z" fill="#858584"/>
<path d="M243.1 227.7C242.983 227.701 242.871 227.658 242.784 227.581C242.697 227.503 242.642 227.396 242.629 227.28C242.617 227.164 242.648 227.048 242.716 226.954C242.785 226.859 242.886 226.794 243 226.77L244.77 226.35C244.83 226.335 244.893 226.332 244.955 226.342C245.016 226.352 245.075 226.373 245.128 226.406C245.181 226.438 245.227 226.481 245.264 226.532C245.3 226.582 245.326 226.639 245.34 226.7C245.367 226.821 245.345 226.947 245.28 227.052C245.214 227.157 245.11 227.231 244.99 227.26L243.21 227.69L243.1 227.7Z" fill="#858584"/>
<path d="M241.1 226.14C240.996 226.137 240.896 226.1 240.815 226.035C240.734 225.97 240.676 225.881 240.65 225.78C240.635 225.72 240.633 225.657 240.642 225.595C240.652 225.534 240.673 225.475 240.706 225.422C240.739 225.369 240.781 225.323 240.832 225.286C240.882 225.25 240.939 225.224 241 225.21L242.78 224.79C242.901 224.763 243.027 224.784 243.132 224.85C243.237 224.916 243.311 225.02 243.34 225.14C243.355 225.199 243.358 225.261 243.349 225.321C243.34 225.381 243.319 225.439 243.287 225.491C243.256 225.543 243.214 225.589 243.165 225.624C243.115 225.66 243.059 225.686 243 225.7L241.22 226.12L241.1 226.14Z" fill="#858584"/>
<path d="M244.83 228.7C244.726 228.698 244.625 228.662 244.543 228.597C244.462 228.532 244.404 228.441 244.38 228.34C244.353 228.218 244.374 228.09 244.439 227.984C244.505 227.878 244.609 227.801 244.73 227.77L246.51 227.35C246.572 227.328 246.639 227.319 246.705 227.325C246.771 227.33 246.835 227.349 246.893 227.381C246.951 227.413 247.002 227.457 247.042 227.509C247.082 227.562 247.11 227.623 247.125 227.687C247.14 227.752 247.141 227.819 247.128 227.884C247.115 227.949 247.089 228.01 247.051 228.064C247.012 228.118 246.963 228.164 246.906 228.198C246.849 228.231 246.786 228.253 246.72 228.26L244.94 228.68L244.83 228.7Z" fill="#858584"/>
<path d="M246.59 229.75C246.486 229.749 246.385 229.712 246.303 229.647C246.222 229.582 246.164 229.491 246.14 229.39C246.113 229.268 246.134 229.14 246.199 229.034C246.265 228.928 246.369 228.851 246.49 228.82L248.27 228.4C248.391 228.373 248.517 228.395 248.622 228.46C248.727 228.526 248.801 228.63 248.83 228.75C248.845 228.809 248.848 228.871 248.839 228.931C248.83 228.991 248.809 229.049 248.777 229.101C248.746 229.153 248.704 229.199 248.655 229.234C248.605 229.27 248.549 229.296 248.49 229.31L246.71 229.73L246.59 229.75Z" fill="#858584"/>
<path d="M248.52 230.7C248.41 230.692 248.306 230.646 248.226 230.57C248.147 230.494 248.097 230.392 248.085 230.282C248.073 230.172 248.1 230.062 248.161 229.97C248.222 229.878 248.314 229.811 248.42 229.78L250.19 229.36C250.312 229.333 250.44 229.354 250.546 229.419C250.652 229.485 250.729 229.589 250.76 229.71C250.787 229.831 250.765 229.957 250.7 230.062C250.634 230.167 250.53 230.241 250.41 230.27L248.63 230.69C248.595 230.703 248.557 230.706 248.52 230.7Z" fill="#858584"/>
<path d="M250.61 231.49C250.506 231.489 250.405 231.452 250.323 231.387C250.242 231.322 250.184 231.232 250.16 231.13C250.145 231.071 250.142 231.009 250.151 230.949C250.16 230.889 250.181 230.831 250.213 230.779C250.245 230.727 250.286 230.681 250.336 230.646C250.385 230.61 250.441 230.584 250.5 230.57L252.28 230.14C252.402 230.113 252.53 230.134 252.636 230.199C252.742 230.265 252.819 230.369 252.85 230.49C252.877 230.611 252.855 230.737 252.79 230.842C252.724 230.947 252.62 231.021 252.5 231.05L250.72 231.48L250.61 231.49Z" fill="#858584"/>
<path d="M195.93 116.28H240.6C241.44 125.17 243.41 177.41 243.41 177.41C236.53 181.47 222.1 179.41 222.1 179.41L218.73 148.85L214.73 178.63C205.83 181.95 193.86 176.91 193.86 176.91C194.47 149.06 193.77 141.24 195.93 116.28Z" fill="#B3594D"/>
<path d="M216.26 117.49C215.84 118.63 215.59 122.49 216.26 122.75C217.242 122.981 218.251 123.078 219.26 123.04H219.4C219.5 123.04 219.58 123.04 219.57 122.97" stroke="#7F3D39" stroke-width="0.6" stroke-miterlimit="10"/>
<path d="M210.05 46.77L224.59 47.06V32.7H210.05V46.77Z" fill="#FFA48D"/>
<path d="M210.1 42.88V32.7H221.89C221.89 32.7 221.9 43.84 210.1 42.88Z" fill="#E29181"/>
<path d="M223.1 5.49C217.63 -1.4 212.76 5.12997 211.74 4.70997C205.03 1.89997 195.65 11.35 206.74 24.1C207.38 26.67 206.99 25.56 208.74 28.62L227.58 28.9099C230.94 21.3399 235.44 5.89 223.1 5.49Z" fill="#1C0E06"/>
<path d="M203.86 25.9802C205.17 36.9102 207.17 40.9801 213.36 40.6601C220.89 40.2401 226.45 36.3901 226.26 25.5901C226.07 14.7901 218.72 12.9702 214.8 11.3602C210.46 9.56016 201.1 3.01015 203.86 25.9802Z" fill="#FFA48D"/>
<path d="M230.89 24.8602C230.42 21.3502 227.97 20.4401 225.45 23.1501L225.58 30.9902C228.78 33.5502 231.35 28.3602 230.89 24.8602Z" fill="#FFA48D"/>
<path d="M227.24 28.85C227.254 28.9078 227.29 28.9577 227.341 28.9894C227.391 29.0211 227.452 29.0321 227.51 29.02H227.56C227.604 28.9941 227.639 28.9554 227.661 28.9089C227.682 28.8624 227.689 28.8105 227.68 28.7601C227.548 28.1961 227.528 27.6118 227.62 27.04C228.23 27.18 228.75 27.33 228.75 27.34C228.777 27.3525 228.806 27.359 228.835 27.359C228.864 27.359 228.893 27.3525 228.92 27.34C228.948 27.3279 228.973 27.31 228.994 27.2877C229.014 27.2653 229.03 27.2388 229.04 27.21C229.056 27.1517 229.05 27.0894 229.022 27.0356C228.994 26.9818 228.947 26.9405 228.89 26.92C228.89 26.92 228.35 26.7601 227.72 26.6201C227.868 26.0879 228.175 25.6135 228.6 25.2601C228.646 25.2203 228.675 25.1637 228.68 25.1027C228.685 25.0418 228.665 24.9814 228.625 24.935C228.585 24.8886 228.529 24.8599 228.468 24.8552C228.407 24.8505 228.346 24.8702 228.3 24.91C226.59 26.3 227.21 28.75 227.24 28.85Z" fill="#13242D"/>
<path d="M212.55 30.9501C212.169 30.9392 211.799 30.8138 211.49 30.5901C211.12 30.3401 210.75 29.9301 210.76 29.5901C210.807 29.2789 210.898 28.9758 211.03 28.6901C211.474 27.6685 211.725 26.5733 211.77 25.4601C211.77 25.4123 211.789 25.3665 211.823 25.3328C211.856 25.299 211.902 25.28 211.95 25.28C211.998 25.28 212.044 25.299 212.077 25.3328C212.111 25.3665 212.13 25.4123 212.13 25.4601C212.091 26.6179 211.833 27.7579 211.37 28.8201C211.258 29.0702 211.175 29.3317 211.12 29.6001C211.212 29.896 211.417 30.1438 211.69 30.29C211.867 30.4248 212.074 30.5143 212.294 30.5509C212.514 30.5875 212.739 30.5701 212.95 30.5001C212.994 30.4802 213.044 30.4785 213.089 30.4954C213.134 30.5122 213.17 30.5463 213.19 30.5901C213.21 30.6338 213.212 30.6838 213.195 30.7288C213.178 30.7738 213.144 30.8102 213.1 30.8301C212.928 30.9098 212.74 30.9507 212.55 30.9501Z" fill="#1C0E06"/>
<path d="M207.72 24.57C207.72 25.24 208.1 25.7799 208.55 25.7699C209 25.7599 209.35 25.2099 209.34 24.5399C209.33 23.8699 208.95 23.34 208.51 23.35C208.07 23.36 207.71 23.9 207.72 24.57Z" fill="#1C0E06"/>
<path d="M206.48 22.47C206.38 22.4704 206.282 22.4425 206.197 22.3894C206.112 22.3363 206.043 22.2602 206 22.1699C205.967 22.1069 205.947 22.038 205.94 21.9671C205.934 21.8963 205.942 21.825 205.963 21.7572C205.985 21.6894 206.019 21.6263 206.065 21.5719C206.111 21.5174 206.167 21.4726 206.23 21.4399C207.344 20.8376 208.645 20.6804 209.87 21C209.998 21.0424 210.106 21.1302 210.173 21.2468C210.24 21.3634 210.263 21.5008 210.235 21.6327C210.208 21.7646 210.134 21.882 210.026 21.9626C209.918 22.0432 209.784 22.0814 209.65 22.0699C208.67 21.7959 207.621 21.9179 206.73 22.4099C206.652 22.4487 206.567 22.4693 206.48 22.47Z" fill="#1C0E06"/>
<path d="M216.91 24.3801C216.91 25.0501 216.57 25.6001 216.12 25.6001C215.67 25.6001 215.3 25.0801 215.29 24.4101C215.28 23.7401 215.63 23.1901 216.08 23.1801C216.53 23.1701 216.9 23.7001 216.91 24.3801Z" fill="#1C0E06"/>
<path d="M209.32 33.8999C211.299 34.3297 213.366 34.0611 215.17 33.1399C215.275 33.3885 215.324 33.6569 215.314 33.9265C215.305 34.1961 215.237 34.4604 215.115 34.701C214.994 34.9417 214.821 35.153 214.609 35.3203C214.398 35.4876 214.152 35.6069 213.89 35.6699C210.44 36.7999 209.32 33.8999 209.32 33.8999Z" fill="white"/>
<path d="M218.15 22.2001C218.05 22.2045 217.952 22.1764 217.87 22.1201C217.375 21.8275 216.824 21.6392 216.253 21.5669C215.682 21.4947 215.103 21.54 214.55 21.7001C214.48 21.7126 214.408 21.7111 214.338 21.6957C214.268 21.6803 214.202 21.6515 214.144 21.6106C214.085 21.5698 214.036 21.5177 213.997 21.4575C213.959 21.3974 213.932 21.3304 213.92 21.2602C213.908 21.1899 213.909 21.1178 213.924 21.0481C213.94 20.9784 213.969 20.9125 214.01 20.854C214.05 20.7955 214.102 20.7456 214.162 20.7072C214.223 20.6688 214.29 20.6426 214.36 20.6302C215.041 20.4474 215.753 20.4026 216.452 20.4988C217.151 20.595 217.823 20.83 218.43 21.1901C218.492 21.227 218.545 21.2759 218.588 21.3338C218.63 21.3917 218.661 21.4574 218.678 21.5273C218.694 21.5971 218.697 21.6696 218.685 21.7405C218.674 21.8114 218.648 21.8792 218.61 21.9401C218.563 22.0199 218.495 22.0859 218.415 22.1315C218.334 22.1771 218.243 22.2008 218.15 22.2001Z" fill="#1C0E06"/>
<path d="M212.74 7.97002C202.01 8.13002 203.04 12.6 203.74 14.9C204.11 16.05 206.74 17.0099 208.83 16.0199C209.83 15.5699 213.06 19.62 219.41 13.54C220.15 19.77 224.05 18.3 224.41 23.87C224.51 25.4 226.41 23.8101 226.41 21.6301C226.56 19.7001 226.15 7.76002 212.74 7.97002Z" fill="#1C0E06"/>
<path d="M237.39 117.75C213.86 119.4 199.91 117.63 199.91 117.63C200.34 82.2602 199.83 49.4201 199.83 49.4201C204.898 47.2136 210.313 45.9107 215.83 45.5701C222.017 45.3987 228.189 46.2641 234.09 48.1301L237.39 117.75Z" fill="white"/>
<path d="M209.81 45.8301C207.42 52.7301 211.21 55.8301 215.39 55.8301C220.33 55.8301 227.73 52.5701 224.58 45.5601C224.58 45.5601 219.7 45.3501 216.47 45.3501C214.242 45.3658 212.017 45.5261 209.81 45.8301Z" fill="#FFA48D"/>
<path d="M210.1 44.4199C211.96 57.0099 209.23 122.07 209.23 122.07C206.38 122.77 194.17 120.47 194.17 120.47C194.64 104.3 197.59 70.3199 197.59 70.3199L199.38 47.98C201.893 47.1869 204.464 46.5917 207.07 46.2L210.1 44.4199Z" fill="#7E5E77"/>
<path d="M224.58 44.1101C223.41 58.5101 228.98 95.8 228.92 121.29C232.33 122.51 242.92 119.68 242.92 119.68L238.92 70.0701L236.34 47.9801C233.471 47.0492 230.532 46.3535 227.55 45.9L224.58 44.1101Z" fill="#7E5E77"/>
<path d="M180.39 161.53H180.3C180.11 161.519 179.927 161.453 179.773 161.342C179.619 161.23 179.5 161.077 179.43 160.9L173.79 147.7C173.718 147.526 173.691 147.337 173.71 147.15L183.38 74.53C183.401 74.3876 183.449 74.2506 183.523 74.1271C183.597 74.0035 183.694 73.8957 183.81 73.81C183.926 73.7241 184.06 73.6645 184.201 73.6351C184.343 73.6058 184.489 73.6074 184.63 73.64L198.33 76.4501C198.591 76.5034 198.822 76.654 198.976 76.8712C199.13 77.0884 199.196 77.3562 199.16 77.6201L189.96 147.44C189.937 147.593 189.882 147.739 189.8 147.87L181.27 161.01C181.184 161.168 181.056 161.299 180.901 161.391C180.747 161.482 180.57 161.531 180.39 161.53ZM175.84 147.18L180.58 158.25L187.9 146.97L196.95 78.3601L185.31 75.9601L175.84 147.18Z" fill="#1D1D1B"/>
<path d="M174.39 234.35H174.31C174.168 234.344 174.03 234.309 173.902 234.248C173.774 234.187 173.66 234.1 173.567 233.994C173.473 233.887 173.402 233.763 173.358 233.628C173.314 233.493 173.298 233.351 173.31 233.21L179.31 160.39C179.309 160.247 179.338 160.106 179.396 159.975C179.455 159.844 179.54 159.728 179.647 159.633C179.754 159.538 179.881 159.467 180.017 159.425C180.154 159.384 180.298 159.371 180.44 159.39C180.581 159.396 180.719 159.431 180.846 159.491C180.973 159.552 181.086 159.638 181.179 159.743C181.273 159.849 181.344 159.972 181.389 160.105C181.433 160.239 181.451 160.38 181.44 160.52L175.44 233.35C175.427 233.62 175.311 233.874 175.115 234.06C174.92 234.247 174.66 234.35 174.39 234.35Z" fill="#1D1D1B"/>
<path d="M191.68 127.43H191.51L177.67 125.17C177.396 125.125 177.15 124.973 176.988 124.747C176.826 124.521 176.76 124.24 176.805 123.965C176.85 123.691 177.002 123.445 177.228 123.283C177.454 123.121 177.735 123.055 178.01 123.1L191.85 125.35C192.116 125.386 192.358 125.523 192.527 125.733C192.695 125.942 192.776 126.208 192.755 126.476C192.733 126.743 192.609 126.992 192.41 127.172C192.21 127.351 191.949 127.447 191.68 127.44V127.43Z" fill="#1D1D1B"/>
<path d="M175.69 237.12H172.1C171.69 234.34 172.31 230.82 173.25 229.85C173.417 229.632 173.637 229.46 173.889 229.351C174.142 229.242 174.418 229.201 174.692 229.23C174.965 229.259 175.226 229.358 175.45 229.517C175.674 229.677 175.853 229.891 175.97 230.14C176.62 231.41 175.69 237.12 175.69 237.12Z" fill="#1D1D1B"/>
<path d="M185.1 78.0799L197.37 80.75C198.216 80.946 199.106 80.8066 199.852 80.3609C200.597 79.9153 201.142 79.1982 201.37 78.36L201.45 78.1C201.576 77.6503 201.607 77.1794 201.542 76.7169C201.477 76.2545 201.317 75.8105 201.072 75.4131C200.827 75.0156 200.502 74.6733 200.118 74.4077C199.733 74.1421 199.298 73.959 198.84 73.87L186.5 71.4599C185.764 71.314 185.001 71.4176 184.331 71.7545C183.66 72.0914 183.122 72.6423 182.8 73.3199C182.578 73.7775 182.463 74.2795 182.462 74.7881C182.462 75.2967 182.577 75.7987 182.798 76.2566C183.019 76.7145 183.341 77.1165 183.74 77.4322C184.139 77.748 184.604 77.9694 185.1 78.0799Z" fill="#1C0E06"/>
<path d="M184.91 124.19L187.64 124.65C187.77 123.65 185.75 118.96 185.53 118.21C185.31 117.46 188.18 88.5901 188.18 88.5901L190.27 84.02L180.33 77.52C179.338 79.4358 178.485 81.4211 177.78 83.4601C175.09 96.6401 175.48 120.9 175.48 120.9C176.55 128.22 179.09 128.9 179.09 128.9C180.001 129.045 180.932 129.011 181.83 128.8C182.906 129.335 184.147 129.437 185.296 129.086C186.446 128.734 187.417 127.956 188.01 126.91L184.52 126.32C184.397 126.158 184.31 125.972 184.263 125.773C184.216 125.575 184.21 125.37 184.247 125.169C184.284 124.969 184.362 124.779 184.476 124.61C184.59 124.442 184.738 124.299 184.91 124.19Z" fill="#FFA48D"/>
<path d="M181.83 128.93C181.791 128.942 181.749 128.942 181.71 128.93C181.026 128.303 180.528 127.501 180.27 126.61C180.264 126.587 180.263 126.563 180.266 126.54C180.269 126.516 180.277 126.494 180.289 126.473C180.301 126.453 180.317 126.435 180.336 126.42C180.355 126.406 180.377 126.396 180.4 126.39C180.423 126.384 180.447 126.383 180.47 126.386C180.494 126.389 180.517 126.397 180.537 126.409C180.558 126.421 180.575 126.437 180.59 126.456C180.604 126.475 180.614 126.497 180.62 126.52C180.865 127.339 181.324 128.078 181.95 128.66C181.983 128.695 182.001 128.742 182.001 128.79C182.001 128.838 181.983 128.885 181.95 128.92C181.912 128.936 181.87 128.939 181.83 128.93Z" fill="#1C0E06"/>
<path d="M185.74 128.7C184.996 128.625 184.289 128.338 183.702 127.873C183.116 127.409 182.674 126.787 182.43 126.08C182.417 126.035 182.42 125.986 182.441 125.944C182.461 125.901 182.496 125.868 182.54 125.85C182.563 125.842 182.587 125.839 182.611 125.841C182.636 125.843 182.659 125.85 182.681 125.861C182.702 125.872 182.721 125.888 182.736 125.906C182.752 125.925 182.763 125.947 182.77 125.97C182.991 126.611 183.391 127.175 183.923 127.595C184.454 128.015 185.096 128.273 185.77 128.34C185.794 128.341 185.817 128.347 185.838 128.357C185.86 128.368 185.879 128.382 185.894 128.4C185.91 128.417 185.922 128.438 185.93 128.46C185.938 128.483 185.941 128.506 185.94 128.53C185.939 128.554 185.933 128.578 185.922 128.601C185.911 128.623 185.896 128.642 185.877 128.658C185.858 128.674 185.836 128.686 185.813 128.693C185.789 128.7 185.764 128.703 185.74 128.7Z" fill="#1C0E06"/>
<path d="M179.69 128.93C179.648 128.944 179.602 128.944 179.56 128.93C178.984 128.363 178.594 127.634 178.44 126.84C178.434 126.793 178.446 126.745 178.474 126.706C178.502 126.667 178.543 126.64 178.59 126.63C178.637 126.626 178.684 126.639 178.722 126.667C178.761 126.694 178.788 126.734 178.8 126.78C178.941 127.494 179.288 128.152 179.8 128.67C179.826 128.695 179.844 128.726 179.851 128.761C179.859 128.796 179.856 128.832 179.843 128.865C179.831 128.898 179.808 128.927 179.779 128.947C179.75 128.968 179.716 128.979 179.68 128.98L179.69 128.93Z" fill="#1C0E06"/>
<path d="M199.33 47.98C190.27 49.98 179.03 78.38 179.03 78.38C182.187 82.0659 186.406 84.6856 191.11 85.88L199.83 67.61L199.33 47.98Z" fill="#7E5E77"/>
<path d="M180.41 75.1001C179.53 77.1001 179.03 78.3801 179.03 78.3801C182.187 82.066 186.406 84.6857 191.11 85.8801L192.61 82.7401C189.51 81.4201 183.65 78.6201 180.41 75.1001Z" fill="white"/>
<path d="M256.28 161.53C256.105 161.529 255.933 161.484 255.78 161.401C255.626 161.317 255.496 161.197 255.4 161.05L246.88 147.91C246.794 147.781 246.739 147.634 246.72 147.48L237.52 77.6601C237.484 77.3962 237.55 77.1285 237.704 76.9113C237.858 76.6941 238.089 76.5435 238.35 76.4902L252.04 73.6801C252.181 73.6475 252.327 73.6458 252.469 73.6751C252.61 73.7045 252.744 73.7642 252.86 73.8502C252.979 73.9336 253.079 74.0406 253.155 74.1645C253.23 74.2883 253.28 74.4264 253.3 74.5701L262.96 147.19C262.989 147.376 262.965 147.567 262.89 147.74L257.25 160.89C257.179 161.068 257.059 161.223 256.903 161.334C256.747 161.446 256.562 161.511 256.37 161.52L256.28 161.53ZM248.77 146.97L256.09 158.25L260.84 147.18L251.36 75.9601L239.73 78.3602L248.77 146.97Z" fill="#1D1D1B"/>
<path d="M262.28 234.35C262.015 234.35 261.76 234.245 261.573 234.057C261.385 233.869 261.28 233.615 261.28 233.35L255.28 160.52C255.269 160.383 255.285 160.245 255.327 160.114C255.369 159.982 255.437 159.861 255.526 159.756C255.615 159.651 255.724 159.565 255.847 159.502C255.969 159.439 256.103 159.401 256.24 159.39C256.377 159.379 256.515 159.395 256.646 159.437C256.777 159.479 256.899 159.547 257.004 159.636C257.109 159.725 257.195 159.834 257.258 159.957C257.321 160.079 257.359 160.213 257.37 160.35L263.37 233.17C263.382 233.311 263.366 233.453 263.322 233.588C263.278 233.723 263.207 233.847 263.113 233.953C263.02 234.06 262.906 234.146 262.778 234.208C262.65 234.269 262.512 234.304 262.37 234.31L262.28 234.35Z" fill="#1D1D1B"/>
<path d="M245 127.43C244.731 127.437 244.47 127.341 244.27 127.162C244.071 126.982 243.947 126.733 243.925 126.466C243.903 126.198 243.985 125.932 244.153 125.723C244.322 125.513 244.564 125.376 244.83 125.34L258.66 123.09C258.796 123.068 258.935 123.072 259.069 123.104C259.203 123.135 259.33 123.193 259.442 123.273C259.554 123.353 259.648 123.455 259.721 123.572C259.794 123.689 259.843 123.819 259.865 123.955C259.887 124.091 259.883 124.23 259.851 124.364C259.82 124.498 259.762 124.625 259.682 124.737C259.602 124.849 259.5 124.944 259.383 125.016C259.266 125.089 259.136 125.138 259 125.16L245.17 127.42L245 127.43Z" fill="#1D1D1B"/>
<path d="M260.98 237.12H264.56C264.97 234.34 264.34 230.82 263.4 229.85C263.233 229.634 263.013 229.464 262.762 229.357C262.51 229.25 262.236 229.209 261.964 229.238C261.692 229.267 261.433 229.365 261.21 229.523C260.987 229.681 260.808 229.893 260.69 230.14C260.1 231.41 260.98 237.12 260.98 237.12Z" fill="#1D1D1B"/>
<path d="M251.58 78.0801L239.31 80.7501C238.464 80.941 237.577 80.7994 236.832 80.3545C236.088 79.9096 235.543 79.1956 235.31 78.3601L235.24 78.1001C235.114 77.6504 235.083 77.1795 235.148 76.717C235.213 76.2546 235.373 75.8107 235.618 75.4132C235.863 75.0158 236.188 74.6734 236.572 74.4078C236.957 74.1423 237.392 73.9592 237.85 73.8701L250.19 71.4601C250.926 71.3159 251.688 71.4204 252.358 71.7571C253.028 72.0938 253.567 72.6436 253.89 73.3201C254.11 73.7786 254.223 74.2809 254.222 74.7894C254.221 75.298 254.105 75.7997 253.883 76.2572C253.661 76.7147 253.339 77.1163 252.94 77.4319C252.541 77.7475 252.076 77.9691 251.58 78.0801Z" fill="#1C0E06"/>
<path d="M250.86 124.33L248.12 124.79C247.99 123.79 249.98 118.96 250.2 118.21C250.42 117.46 247.55 88.5901 247.55 88.5901L245.46 84.02L255.4 77.52C256.392 79.4358 257.245 81.4211 257.95 83.4601C260.65 96.6401 260.25 120.9 260.25 120.9C259.18 128.22 256.64 128.9 256.64 128.9C255.729 129.045 254.798 129.011 253.9 128.8C252.847 129.35 251.623 129.474 250.481 129.149C249.339 128.823 248.365 128.072 247.76 127.05L251.25 126.51C251.423 126.152 251.478 125.748 251.408 125.357C251.338 124.966 251.146 124.606 250.86 124.33Z" fill="#FFA48D"/>
<path d="M253.9 128.93C253.847 128.929 253.797 128.908 253.76 128.87C253.727 128.835 253.709 128.788 253.709 128.74C253.709 128.692 253.727 128.645 253.76 128.61C254.386 128.028 254.845 127.289 255.09 126.47C255.096 126.447 255.106 126.425 255.12 126.406C255.135 126.387 255.153 126.371 255.173 126.359C255.193 126.347 255.216 126.339 255.24 126.336C255.263 126.333 255.287 126.334 255.31 126.34C255.334 126.345 255.356 126.354 255.376 126.368C255.396 126.382 255.413 126.4 255.425 126.421C255.437 126.441 255.445 126.465 255.448 126.489C255.45 126.513 255.448 126.537 255.44 126.56C255.182 127.451 254.684 128.253 254 128.88C253.973 128.907 253.938 128.924 253.9 128.93Z" fill="#1C0E06"/>
<path d="M250 128.7C249.952 128.7 249.906 128.681 249.873 128.647C249.839 128.613 249.82 128.568 249.82 128.52C249.82 128.472 249.839 128.426 249.873 128.393C249.906 128.359 249.952 128.34 250 128.34C250.676 128.278 251.32 128.021 251.852 127.601C252.385 127.18 252.784 126.613 253 125.97C253.007 125.947 253.018 125.925 253.034 125.906C253.049 125.888 253.068 125.872 253.089 125.861C253.111 125.85 253.134 125.843 253.159 125.841C253.183 125.839 253.207 125.842 253.23 125.85C253.274 125.868 253.309 125.901 253.329 125.944C253.35 125.986 253.353 126.035 253.34 126.08C253.096 126.785 252.657 127.407 252.072 127.871C251.487 128.335 250.782 128.623 250.04 128.7H250Z" fill="#1C0E06"/>
<path d="M256.04 128.93C256.004 128.929 255.97 128.918 255.941 128.897C255.912 128.877 255.889 128.848 255.877 128.815C255.864 128.782 255.861 128.746 255.869 128.711C255.876 128.676 255.894 128.645 255.92 128.62C256.432 128.102 256.779 127.445 256.92 126.73C256.932 126.684 256.959 126.644 256.998 126.617C257.036 126.589 257.083 126.576 257.13 126.58C257.177 126.59 257.218 126.617 257.246 126.656C257.274 126.694 257.286 126.743 257.28 126.79C257.126 127.584 256.736 128.313 256.16 128.88C256.126 128.909 256.084 128.926 256.04 128.93Z" fill="#1C0E06"/>
<path d="M236.4 47.98C245.46 49.98 256.7 78.38 256.7 78.38C253.543 82.0659 249.324 84.6856 244.62 85.88L235.91 67.61L236.4 47.98Z" fill="#7E5E77"/>
<path d="M255.32 75.1001C256.2 77.1001 256.7 78.3801 256.7 78.3801C253.543 82.066 249.324 84.6857 244.62 85.8801L243.1 82.7001C246.22 81.4201 252.1 78.6201 255.32 75.1001Z" fill="white"/>
<path d="M197.54 73.59H197.47C197.448 73.5823 197.427 73.5701 197.41 73.5541C197.393 73.5381 197.379 73.5186 197.369 73.497C197.36 73.4754 197.355 73.452 197.355 73.4284C197.355 73.4048 197.36 73.3816 197.37 73.36C199.48 67.95 200.97 62.47 200.99 62.42C200.996 62.3969 201.006 62.3753 201.02 62.3563C201.035 62.3372 201.052 62.3212 201.073 62.3091C201.093 62.297 201.116 62.2892 201.14 62.2859C201.163 62.2826 201.187 62.284 201.21 62.29C201.255 62.3039 201.292 62.3346 201.315 62.3757C201.337 62.4167 201.342 62.465 201.33 62.5101C201.33 62.5701 199.82 68.0701 197.7 73.5101C197.683 73.5369 197.66 73.5587 197.631 73.5728C197.603 73.5869 197.571 73.5929 197.54 73.59Z" fill="#443441"/>
<path d="M238.98 73.59C238.938 73.591 238.898 73.5777 238.865 73.5521C238.832 73.5266 238.809 73.4905 238.8 73.45L235.86 62.45C235.85 62.4037 235.858 62.3555 235.882 62.3148C235.907 62.2742 235.945 62.2439 235.99 62.23C236.013 62.224 236.037 62.2226 236.06 62.2258C236.084 62.2291 236.107 62.2371 236.127 62.2492C236.148 62.2612 236.165 62.2773 236.18 62.2963C236.194 62.3153 236.204 62.337 236.21 62.36L239.15 73.36C239.156 73.383 239.157 73.4069 239.154 73.4304C239.151 73.454 239.143 73.4766 239.131 73.4971C239.119 73.5175 239.103 73.5353 239.084 73.5496C239.065 73.5638 239.043 73.5741 239.02 73.58L238.98 73.59Z" fill="#443441"/>
<path d="M292.57 8.13998C282.04 4.13998 270.85 12.24 272.45 25.93C273.32 33.39 259.36 34.29 266.8 44.81C269.66 48.81 261.68 50.16 267.97 57.91C273.5 64.72 283.73 64.75 292.57 61.29C310.42 54.29 298.26 37.39 301.31 30.78C309.26 13.61 299.22 5.97998 292.57 8.13998Z" fill="#343433"/>
<path d="M297.73 49.13L283.44 49.42V35.29H297.73V49.13Z" fill="#FFA48D"/>
<path d="M297.73 45.3101V35.3101H284.52C284.52 35.3101 284.58 46.3901 297.73 45.3101Z" fill="#E29181"/>
<path d="M303.82 28.6999C302.55 38.4099 300.92 42.4298 294.47 43.1398C287.1 43.9498 281.6 38.9399 281.79 28.3199C281.98 17.6999 288.89 14.2499 293.05 14.3199C297.21 14.3899 305.19 18.1599 303.82 28.6999Z" fill="#FFA48D"/>
<path d="M277.23 27.5801C277.69 24.1301 280.1 23.2401 282.58 25.9001L282.45 33.6102C279.3 36.1302 276.77 31.0301 277.23 27.5801Z" fill="#FFA48D"/>
<path d="M278.42 27.86C278.458 27.8616 278.495 27.8507 278.526 27.829C278.556 27.8073 278.579 27.776 278.59 27.74C278.8 27.05 279.18 26.6299 279.68 26.5599C280.016 26.5423 280.349 26.6169 280.646 26.7755C280.942 26.9342 281.189 27.1709 281.36 27.46C281.375 27.477 281.394 27.4907 281.414 27.5C281.435 27.5093 281.457 27.5142 281.48 27.5142C281.503 27.5142 281.525 27.5093 281.546 27.5C281.567 27.4907 281.585 27.477 281.6 27.46C281.617 27.444 281.631 27.4247 281.641 27.4032C281.65 27.3817 281.655 27.3585 281.655 27.335C281.655 27.3115 281.65 27.2882 281.641 27.2667C281.631 27.2452 281.617 27.2259 281.6 27.21C281.388 26.8782 281.09 26.61 280.738 26.434C280.386 26.2579 279.993 26.1805 279.6 26.21C279.256 26.2889 278.943 26.4661 278.698 26.72C278.453 26.9739 278.287 27.2934 278.22 27.6399C278.212 27.6629 278.209 27.6872 278.211 27.7113C278.213 27.7355 278.22 27.759 278.231 27.7805C278.242 27.802 278.258 27.8209 278.276 27.8363C278.295 27.8517 278.317 27.8632 278.34 27.87L278.42 27.86Z" fill="#1C0E06"/>
<path d="M293.99 11.94C282.33 11.73 281.99 23.4601 282.04 25.3801C282.12 27.5201 285.44 27.8301 286.96 25.5901C289.96 21.1901 294.96 23.2701 297.03 18.0901C299.408 18.6205 301.578 19.8375 303.27 21.5901C303.27 21.5901 303.31 12.1 293.99 11.94Z" fill="#343433"/>
<path d="M295.27 33.5699C295.63 33.5505 295.977 33.4291 296.27 33.22C296.457 33.1181 296.619 32.9752 296.744 32.8021C296.869 32.629 296.953 32.43 296.99 32.22C296.938 31.9195 296.847 31.6271 296.72 31.35C296.282 30.3442 296.035 29.2659 295.99 28.1699C295.991 28.1468 295.988 28.1236 295.98 28.1018C295.972 28.08 295.96 28.0601 295.944 28.0432C295.928 28.0264 295.909 28.0129 295.887 28.0038C295.866 27.9946 295.843 27.99 295.82 27.99C295.71 27.99 295.64 28.0599 295.64 28.1599C295.681 29.3004 295.935 30.4232 296.39 31.47C296.497 31.7138 296.578 31.9686 296.63 32.23C296.63 32.35 296.46 32.6499 296.07 32.9099C295.897 33.0445 295.693 33.1341 295.476 33.1708C295.26 33.2074 295.038 33.19 294.83 33.12C294.809 33.1101 294.786 33.1047 294.763 33.1039C294.74 33.1031 294.717 33.1071 294.696 33.1155C294.674 33.1239 294.654 33.1366 294.638 33.1528C294.622 33.1691 294.609 33.1885 294.6 33.21C294.582 33.2528 294.579 33.301 294.594 33.3452C294.609 33.3895 294.64 33.4267 294.68 33.45C294.866 33.5305 295.067 33.5714 295.27 33.5699Z" fill="#1C0E06"/>
<path d="M300.02 27.2999C300.02 27.9599 299.64 28.49 299.2 28.48C298.76 28.47 298.42 27.9299 298.43 27.2699C298.44 26.6099 298.8 26.09 299.24 26.1C299.68 26.11 300.03 26.6399 300.02 27.2999Z" fill="#1C0E06"/>
<path d="M301.31 24.8801C301.426 24.8729 301.536 24.8278 301.624 24.752C301.711 24.6761 301.772 24.5736 301.796 24.4601C301.82 24.3466 301.805 24.2283 301.756 24.1235C301.706 24.0188 301.623 23.9333 301.52 23.8801C300.387 23.3629 299.099 23.2985 297.92 23.7001C297.819 23.762 297.742 23.8552 297.699 23.9655C297.656 24.0757 297.651 24.197 297.684 24.3106C297.717 24.4241 297.786 24.5236 297.881 24.594C297.976 24.6644 298.092 24.7017 298.21 24.7001C299.154 24.3661 300.19 24.4127 301.1 24.8301C301.166 24.8613 301.237 24.8783 301.31 24.8801Z" fill="#343433"/>
<path d="M290.98 27.1101C290.98 27.7701 291.32 28.3101 291.75 28.3201C292.18 28.3301 292.56 27.8 292.57 27.14C292.58 26.48 292.23 25.9401 291.8 25.9301C291.37 25.9201 290.99 26.4501 290.98 27.1101Z" fill="#1C0E06"/>
<path d="M289.75 24.8499C289.837 24.8492 289.922 24.8287 290 24.7899C290.504 24.5344 291.055 24.385 291.619 24.3506C292.183 24.3162 292.749 24.3976 293.28 24.5899C293.348 24.6078 293.42 24.6119 293.489 24.6019C293.559 24.5919 293.627 24.568 293.687 24.5317C293.748 24.4954 293.8 24.4473 293.842 24.3904C293.884 24.3334 293.914 24.2686 293.93 24.1999C293.963 24.0621 293.941 23.9166 293.868 23.795C293.795 23.6734 293.677 23.5853 293.54 23.5499C292.887 23.3316 292.198 23.2449 291.511 23.2946C290.824 23.3444 290.155 23.5297 289.54 23.8399C289.478 23.8725 289.423 23.9171 289.379 23.971C289.334 24.025 289.3 24.0871 289.28 24.154C289.26 24.221 289.253 24.2914 289.259 24.3611C289.266 24.4307 289.287 24.4983 289.32 24.5599C289.359 24.6423 289.42 24.7126 289.495 24.7636C289.571 24.8147 289.659 24.8445 289.75 24.8499Z" fill="#343433"/>
<path d="M294.48 27.35H297.26C297.284 27.35 297.307 27.3453 297.329 27.3363C297.351 27.3273 297.371 27.314 297.387 27.2972C297.404 27.2805 297.417 27.2607 297.426 27.2389C297.435 27.2171 297.44 27.1936 297.44 27.1699C297.44 27.1463 297.435 27.1229 297.426 27.1011C297.417 27.0792 297.404 27.0594 297.387 27.0427C297.371 27.026 297.351 27.0127 297.329 27.0037C297.307 26.9946 297.284 26.99 297.26 26.99H294.48C294.432 26.99 294.387 27.009 294.353 27.0427C294.319 27.0765 294.3 27.1222 294.3 27.1699C294.3 27.2177 294.319 27.2635 294.353 27.2972C294.387 27.331 294.432 27.35 294.48 27.35Z" fill="#1C0E06"/>
<path d="M289.1 26.7C289.139 26.701 289.177 26.6887 289.208 26.665C289.239 26.6414 289.261 26.6078 289.27 26.5699C289.283 26.5262 289.279 26.4791 289.258 26.4382C289.238 26.3974 289.203 26.3658 289.16 26.35L282.53 24.2C282.511 24.1903 282.491 24.1853 282.47 24.1853C282.449 24.1853 282.429 24.1903 282.41 24.2L281.72 24.46C281.693 24.4634 281.668 24.4727 281.645 24.4874C281.622 24.5021 281.603 24.5217 281.589 24.5448C281.575 24.5679 281.566 24.5937 281.564 24.6206C281.561 24.6475 281.564 24.6747 281.574 24.7001C281.583 24.7255 281.598 24.7483 281.617 24.7672C281.636 24.7861 281.66 24.8004 281.685 24.8091C281.711 24.8177 281.738 24.8204 281.765 24.8171C281.792 24.8138 281.817 24.8045 281.84 24.7899L282.48 24.5499L289.1 26.7Z" fill="#1C0E06"/>
<path d="M302.59 26.7001L303.96 26.5102C303.983 26.5078 304.006 26.5006 304.026 26.4891C304.047 26.4775 304.065 26.4618 304.079 26.443C304.093 26.4242 304.103 26.4027 304.108 26.3798C304.114 26.3569 304.114 26.3332 304.11 26.3101C304.103 26.2641 304.078 26.2227 304.04 26.1947C304.003 26.1668 303.956 26.1543 303.91 26.1601L302.54 26.3501C302.516 26.3526 302.493 26.3597 302.472 26.3711C302.452 26.3826 302.433 26.3981 302.418 26.4167C302.403 26.4353 302.392 26.4566 302.386 26.4795C302.379 26.5024 302.377 26.5264 302.38 26.5501C302.39 26.5969 302.417 26.6384 302.456 26.6662C302.495 26.694 302.543 26.7061 302.59 26.7001Z" fill="#1C0E06"/>
<path d="M294.6 25.81C293.97 24.92 289.53 25.14 289.03 25.59C288.53 26.04 288.61 29.01 289.64 29.86C290.67 30.71 293.4 30.29 294.03 30.06C294.66 29.83 295.37 26.9 294.6 25.81Z" fill="#1C0E06"/>
<path d="M302.28 25.81C301.71 24.92 297.69 25.14 297.28 25.59C296.87 26.04 296.9 29.01 297.84 29.86C298.78 30.71 301.25 30.29 301.84 30.06C302.43 29.83 302.99 26.9 302.28 25.81Z" fill="#1C0E06"/>
<path d="M298.28 37.0701L298.56 36.9801C298.64 36.9488 298.705 36.8872 298.741 36.8087C298.776 36.7303 298.779 36.641 298.75 36.5601C298.737 36.5199 298.716 36.4829 298.687 36.4516C298.659 36.4202 298.624 36.3952 298.585 36.3782C298.547 36.3612 298.505 36.3526 298.463 36.3529C298.42 36.3532 298.378 36.3626 298.34 36.3801C298.34 36.3801 294.74 37.6901 292.2 35.8101C292.167 35.7835 292.128 35.7641 292.086 35.7532C292.045 35.7423 292.002 35.74 291.96 35.7466C291.917 35.7532 291.877 35.7684 291.841 35.7914C291.805 35.8144 291.774 35.8446 291.75 35.8801C291.702 35.9482 291.683 36.0321 291.696 36.1143C291.709 36.1964 291.753 36.2702 291.82 36.3201C294.23 38.1101 297.32 37.3701 298.28 37.0701Z" fill="#1C0E06"/>
<path d="M270.5 213.48C273.86 213.59 278.09 213.64 283.03 213.48C282.7 216.07 282.37 218.96 282.03 222.33L281.2 231.27L270.42 234.6L269.15 229.6L270 222.38L270.5 213.48Z" fill="#FFA48D"/>
<path d="M274.91 229.99C276.45 229.99 279.15 230.99 279.91 230.62C280.67 230.25 281.59 227.42 281.59 227.42C282.44 229.67 282.11 235.64 282.11 235.64H268.1C268.1 227.49 269.44 227.42 269.44 227.42C269.55 230.25 270.24 231.23 271.32 230.83C272.454 230.33 273.672 230.045 274.91 229.99Z" fill="#634E42"/>
<path d="M319.8 213.39L320.56 221.29C321.75 226.66 329.38 229.08 335.96 230.57L333.72 233.92L315.19 232.76L310.35 227.42C309.65 222.35 308.92 217.79 308.2 213.64C311.38 213.7 315.22 213.7 319.8 213.39Z" fill="#FFA48D"/>
<path d="M335.96 230.57C326.52 235.01 315.13 227.42 310.35 227.42C309.414 229.483 309.296 231.824 310.02 233.97C310.142 234.448 310.42 234.871 310.809 235.173C311.198 235.476 311.677 235.64 312.17 235.64H339.87C340.1 232.43 338.62 231.12 335.96 230.57Z" fill="#634E42"/>
<path d="M267.34 219.84C267.34 219.84 267.42 143.3 267.8 137.57C268.18 131.84 265.2 125.47 270.53 109.71L312.08 109.41C316.22 144.08 322.94 218.09 322.94 218.09C322.94 218.09 314.15 220.41 306.59 217.68L294.1 143.16L284.1 219.84C284.1 219.84 274.02 220.6 267.34 219.84Z" fill="#1D1D1B"/>
<path d="M294.1 143.34C294.146 143.34 294.19 143.323 294.224 143.291C294.257 143.259 294.277 143.216 294.28 143.17C294.28 143.17 294.46 139.17 296.08 137.74C296.275 137.561 296.507 137.427 296.759 137.346C297.011 137.265 297.277 137.239 297.54 137.27C297.588 137.27 297.633 137.251 297.667 137.217C297.701 137.184 297.72 137.138 297.72 137.09C297.72 137.042 297.701 136.997 297.667 136.963C297.633 136.929 297.588 136.91 297.54 136.91C297.228 136.875 296.913 136.907 296.615 137.004C296.316 137.1 296.042 137.259 295.81 137.47C294.07 138.98 293.89 142.98 293.89 143.15C293.889 143.174 293.892 143.197 293.9 143.22C293.908 143.242 293.92 143.263 293.936 143.28C293.951 143.298 293.97 143.312 293.992 143.323C294.013 143.333 294.036 143.339 294.06 143.34H294.1Z" fill="black"/>
<path d="M272.1 127.88C273.04 127.88 278.67 127.59 280.98 120.66C280.988 120.637 280.991 120.613 280.989 120.589C280.987 120.564 280.98 120.541 280.969 120.52C280.958 120.498 280.942 120.479 280.924 120.464C280.905 120.448 280.883 120.437 280.86 120.43C280.816 120.417 280.769 120.421 280.728 120.442C280.687 120.462 280.656 120.497 280.64 120.54C278.22 127.81 272.05 127.54 271.99 127.54C271.93 127.54 271.81 127.6 271.8 127.7C271.799 127.724 271.802 127.747 271.81 127.77C271.818 127.792 271.83 127.813 271.846 127.83C271.861 127.848 271.88 127.862 271.902 127.873C271.923 127.883 271.946 127.889 271.97 127.89L272.1 127.88Z" fill="black"/>
<path d="M369.35 236.33H369.54C369.628 236.305 369.709 236.262 369.78 236.205C369.851 236.148 369.91 236.078 369.954 235.998C369.998 235.918 370.025 235.83 370.035 235.74C370.044 235.649 370.036 235.557 370.01 235.47L344.1 145.94C344.047 145.767 343.928 145.621 343.77 145.534C343.611 145.446 343.425 145.423 343.25 145.47C343.162 145.495 343.081 145.538 343.01 145.595C342.939 145.652 342.879 145.722 342.836 145.802C342.792 145.882 342.765 145.97 342.755 146.061C342.745 146.151 342.754 146.243 342.78 146.33L368.69 235.84C368.731 235.983 368.818 236.108 368.938 236.196C369.057 236.285 369.202 236.332 369.35 236.33Z" fill="#57535F"/>
<path d="M343.44 147.51C343.566 147.524 343.694 147.524 343.82 147.51C344.171 147.408 344.468 147.17 344.644 146.85C344.82 146.529 344.862 146.151 344.76 145.8L340.51 131.1C340.462 130.923 340.379 130.758 340.266 130.613C340.154 130.469 340.013 130.348 339.853 130.259C339.694 130.169 339.518 130.112 339.336 130.092C339.154 130.071 338.969 130.086 338.793 130.137C338.618 130.188 338.453 130.274 338.311 130.389C338.169 130.504 338.05 130.647 337.964 130.808C337.877 130.969 337.823 131.146 337.805 131.329C337.787 131.511 337.806 131.695 337.86 131.87L342.11 146.57C342.205 146.847 342.384 147.086 342.623 147.255C342.862 147.424 343.148 147.513 343.44 147.51Z" fill="#1C0E06"/>
<path d="M329.29 83.48C330.243 84.8712 331.003 86.3849 331.55 87.98C332.25 90.29 340.99 121.6 340.99 121.6C342.99 124.22 344.23 131.21 344.23 131.21C343.966 132.664 343.451 134.061 342.71 135.34C342.71 135.34 343.61 138.24 342.02 138.73C340.43 139.22 338.25 134.73 338.02 133.82C337.79 132.91 334.02 130.12 333.1 128.51C332.373 126.813 331.908 125.016 331.72 123.18L319.57 95.09C319.15 94.09 316.99 90.7 316.99 90.7L329.29 83.48Z" fill="#FFA48D"/>
<path d="M342.71 135.52C342.733 135.517 342.756 135.509 342.776 135.496C342.795 135.483 342.812 135.466 342.825 135.446C342.837 135.426 342.845 135.403 342.847 135.38C342.85 135.356 342.848 135.332 342.84 135.31C342.176 133.136 341.225 131.061 340.01 129.14C339.999 129.12 339.983 129.102 339.965 129.088C339.946 129.074 339.925 129.064 339.903 129.058C339.88 129.053 339.857 129.052 339.834 129.055C339.811 129.059 339.789 129.068 339.77 129.08C339.749 129.092 339.732 129.109 339.717 129.128C339.703 129.147 339.693 129.169 339.687 129.193C339.682 129.216 339.681 129.24 339.685 129.264C339.689 129.287 339.697 129.31 339.71 129.33C340.894 131.223 341.832 133.259 342.5 135.39C342.512 135.434 342.54 135.473 342.579 135.497C342.618 135.521 342.665 135.529 342.71 135.52Z" fill="#1C0E06"/>
<path d="M343.75 132.85C343.774 132.846 343.796 132.838 343.816 132.825C343.836 132.813 343.854 132.796 343.867 132.776C343.88 132.756 343.889 132.734 343.893 132.71C343.897 132.687 343.896 132.663 343.89 132.64C343.657 131.525 343.353 130.426 342.98 129.35C342.973 129.328 342.961 129.308 342.946 129.291C342.931 129.274 342.913 129.26 342.893 129.249C342.872 129.239 342.85 129.233 342.827 129.231C342.805 129.23 342.782 129.233 342.76 129.24C342.738 129.247 342.718 129.259 342.701 129.274C342.684 129.288 342.67 129.307 342.659 129.327C342.649 129.348 342.643 129.37 342.642 129.393C342.64 129.415 342.643 129.438 342.65 129.46C343.017 130.523 343.314 131.608 343.54 132.71C343.55 132.756 343.577 132.797 343.616 132.823C343.656 132.849 343.704 132.859 343.75 132.85Z" fill="#1C0E06"/>
<path d="M330.4 84.0299C330.4 84.0299 318.22 52.7899 309.46 49.8099C305.78 48.5499 297.87 47.72 293.09 47.72C287.2 47.72 279.34 48.2699 273.92 49.8099C267.92 51.4999 261.3 65.8699 253.47 82.8099C251.03 88.0799 258.69 94.3199 263.24 91.5699C265.01 90.4999 269.31 83.4699 271.93 79.9399C273.5 99.2099 270.55 99.65 269.18 111.88C299.18 115.62 313.01 111.79 313.01 111.79C311.53 100.22 312.14 85.6499 312.14 85.6499C313.617 87.729 315.199 89.7316 316.88 91.6499C322.095 90.6476 326.842 87.9725 330.4 84.0299Z" fill="#634E42"/>
<path d="M298.96 48.0101C299.83 54.3401 298.15 61.8901 296.56 62.4701C294.79 63.1201 284.56 58.34 282.24 48.3C285.254 47.7445 288.315 47.4832 291.38 47.52C294.56 47.52 298.96 48.0101 298.96 48.0101Z" fill="#FFA48D"/>
<path d="M312.1 85.84C312.148 85.84 312.194 85.821 312.227 85.7872C312.261 85.7535 312.28 85.7076 312.28 85.6599C312.335 83.4235 312.6 81.1972 313.07 79.01C313.53 77.2494 313.693 75.4242 313.55 73.61C313.208 72.2152 312.687 70.8707 312 69.61C310.731 67.1971 309.783 64.6286 309.18 61.97C309.177 61.9464 309.168 61.9239 309.155 61.9038C309.143 61.8837 309.126 61.8665 309.106 61.8533C309.086 61.8401 309.064 61.8312 309.041 61.8271C309.017 61.8231 308.993 61.8241 308.97 61.8299C308.924 61.8396 308.883 61.867 308.857 61.9062C308.831 61.9455 308.821 61.9935 308.83 62.0399C309.438 64.7301 310.396 67.3289 311.68 69.7699C312.548 71.1078 313.091 72.6307 313.265 74.2162C313.438 75.8017 313.238 77.4057 312.68 78.8999C312.205 81.1068 311.937 83.3533 311.88 85.61C311.88 85.6577 311.899 85.7034 311.933 85.7372C311.966 85.7709 312.012 85.7899 312.06 85.7899L312.1 85.84Z" fill="#3A2E28"/>
<path d="M271.93 80.1301C271.96 80.1302 271.989 80.1228 272.015 80.1089C272.041 80.0949 272.064 80.0747 272.08 80.05C274.72 75.78 278.33 65.3101 278.37 65.2001C278.383 65.1537 278.378 65.1041 278.355 65.0614C278.333 65.0187 278.295 64.9861 278.25 64.9701C278.228 64.9625 278.204 64.9595 278.181 64.9615C278.157 64.9635 278.134 64.9704 278.114 64.9817C278.093 64.993 278.075 65.0084 278.06 65.0271C278.046 65.0458 278.036 65.0672 278.03 65.0901C278.03 65.1901 274.39 75.6301 271.78 79.8601C271.768 79.8796 271.759 79.9015 271.755 79.9243C271.752 79.9472 271.753 79.9706 271.758 79.993C271.764 80.0155 271.774 80.0366 271.788 80.0551C271.802 80.0735 271.82 80.0888 271.84 80.1001L271.93 80.1301Z" fill="#3A2E28"/>
<path d="M291.87 86.8901C294.37 86.9253 296.861 86.5677 299.25 85.8301C299.273 85.8245 299.294 85.8141 299.313 85.7997C299.332 85.7853 299.347 85.7672 299.358 85.7465C299.37 85.7258 299.377 85.703 299.379 85.6795C299.381 85.656 299.378 85.6325 299.37 85.6102C299.354 85.5647 299.321 85.5271 299.279 85.5048C299.236 85.4825 299.186 85.4773 299.14 85.4902C291.95 87.8302 283.57 85.4902 283.48 85.4902C283.434 85.4769 283.384 85.4826 283.342 85.506C283.299 85.5295 283.268 85.5688 283.255 85.6152C283.242 85.6616 283.247 85.7113 283.271 85.7535C283.294 85.7957 283.334 85.8269 283.38 85.8401C286.158 86.5281 289.008 86.8806 291.87 86.8901Z" fill="#3A2E28"/>
</g>
<defs>
<clipPath id="clip0_551_860">
<rect width="388.2" height="253.34" fill="white"/>
</clipPath>
</defs>
</svg>
