<svg width="519" height="263" viewBox="0 0 519 263" fill="none" xmlns="http://www.w3.org/2000/svg">
<g clip-path="url(#clip0_731_2248)">
<path d="M430.297 0.103156L355.231 5.51105L360.638 80.5872L435.704 75.1793L430.297 0.103156Z" fill="white"/>
<path d="M450.605 29.808L376.43 17.0739L363.697 91.2599L437.872 103.994L450.605 29.808Z" fill="#FDBA73"/>
<path d="M463.947 31.4147L391.537 10.8946L371.02 83.3146L443.43 103.835L463.947 31.4147Z" fill="#5096F5"/>
<path d="M159.57 24.724L170.224 65.9885L185.505 80.0856L208.606 74.1142L213.145 66.9573L159.57 24.724Z" fill="#FDBA73"/>
<path d="M185.505 80.0857L177.539 82.1388L159.671 72.0757L175.776 71.1069L185.505 80.0857Z" fill="#ED4D4D"/>
<path d="M213.145 66.9573L211.57 34.0209L204.992 33.7317L200.062 56.6339L213.145 66.9573Z" fill="#FE9901"/>
<path d="M204.992 33.7317L220.475 34.4401L206.958 24.1168L204.992 33.7317Z" fill="#FDBA73"/>
<path d="M200.062 56.6339L202.289 46.2961L179.491 22.2805L178.681 39.7898L200.062 56.6339Z" fill="#ED4D4D"/>
<path d="M413.454 218.93C413.754 219.548 413.91 220.225 413.91 220.911C413.91 221.598 413.754 222.275 413.454 222.892C413.35 223.213 413.171 223.506 412.933 223.745C412.066 224.54 410.678 223.948 409.681 223.311C409.264 223.116 408.928 222.785 408.727 222.372C408.626 222.012 408.626 221.632 408.727 221.273C409.102 219.711 409.478 218.15 409.868 216.588C410.346 216.863 410.808 217.109 411.314 217.398C411.82 217.687 411.921 217.759 412.21 217.962C412.685 218.199 413.108 218.528 413.454 218.93Z" fill="white"/>
<path d="M402.828 224.772C402.568 225.787 402.568 226.851 402.828 227.866C403.175 228.661 404.476 228.488 404.953 227.75C405.328 226.966 405.41 226.074 405.185 225.234C404.53 224.913 403.783 224.831 403.074 225.003" fill="white"/>
<path d="M414.639 191.373C414.045 191.876 413.525 192.46 413.092 193.108C412.873 193.429 412.755 193.81 412.755 194.199C412.755 194.589 412.873 194.969 413.092 195.291C413.349 195.546 413.676 195.719 414.032 195.786C414.388 195.853 414.755 195.811 415.087 195.667C415.739 195.368 416.31 194.917 416.75 194.351C416.933 194.187 417.046 193.96 417.068 193.715C417.016 193.476 416.877 193.264 416.678 193.122L414.827 191.402" fill="white"/>
<path d="M287.249 126.946C292.159 126.946 296.14 122.964 296.14 118.054C296.14 113.143 292.159 109.162 287.249 109.162C282.339 109.162 278.358 113.143 278.358 118.054C278.358 122.964 282.339 126.946 287.249 126.946Z" fill="white"/>
<path d="M292.153 122.948C294.857 120.244 294.857 115.858 292.153 113.154C289.449 110.449 285.064 110.449 282.36 113.154C279.656 115.858 279.656 120.244 282.36 122.948C285.064 125.653 289.449 125.653 292.153 122.948Z" fill="#11215F"/>
<path d="M306.042 159.593C310.953 159.593 314.933 155.612 314.933 150.701C314.933 145.79 310.953 141.809 306.042 141.809C301.132 141.809 297.152 145.79 297.152 150.701C297.152 155.612 301.132 159.593 306.042 159.593Z" fill="white"/>
<path d="M307.353 157.619C311.075 156.737 313.377 153.005 312.495 149.283C311.613 145.561 307.881 143.259 304.16 144.141C300.439 145.023 298.137 148.755 299.019 152.477C299.9 156.199 303.632 158.501 307.353 157.619Z" fill="#199085"/>
<path d="M290.299 179.806C295.21 179.806 299.19 175.825 299.19 170.914C299.19 166.003 295.21 162.022 290.299 162.022C285.389 162.022 281.409 166.003 281.409 170.914C281.409 175.825 285.389 179.806 290.299 179.806Z" fill="white"/>
<path d="M291.623 177.849C295.344 176.967 297.646 173.235 296.764 169.513C295.883 165.791 292.151 163.489 288.43 164.371C284.708 165.253 282.406 168.985 283.288 172.707C284.17 176.428 287.901 178.731 291.623 177.849Z" fill="#FE9901"/>
<path d="M444.983 168.384C444.68 169.18 444.68 170.06 444.983 170.856C445.233 171.264 445.599 171.588 446.035 171.787C446.47 171.985 446.955 172.049 447.426 171.969C448.372 171.8 449.256 171.38 449.985 170.755C451.071 169.922 452.044 168.95 452.876 167.863C453.197 167.504 453.4 167.055 453.455 166.576C453.419 166.159 453.28 165.756 453.05 165.405C452.399 164.22 450.159 160.229 448.308 160.952C447.412 161.299 446.732 163.482 446.371 164.306C445.803 165.627 445.339 166.991 444.983 168.384Z" fill="#FDBA73"/>
<path d="M458.341 175.786C457.204 176.425 456.008 176.953 454.77 177.362C453.955 177.673 453.078 177.787 452.211 177.695C451.737 177.634 451.303 177.397 450.997 177.03C450.433 176.278 450.809 175.193 451.257 174.355C452.184 172.644 453.352 171.076 454.727 169.699C455.028 169.725 455.321 169.813 455.588 169.957C455.854 170.101 456.087 170.299 456.274 170.538C456.73 171.004 457.094 171.554 457.343 172.157C457.894 173.296 458.232 174.526 458.341 175.786Z" fill="#FDBA73"/>
<path d="M399.72 114.121L446.241 151.988L442.511 158.219L405.965 132.758C403.587 131.104 401.704 128.833 400.522 126.188C399.34 123.543 398.903 120.625 399.257 117.75L399.72 114.121Z" fill="#67AFFF"/>
<path d="M422.33 104.289L430.107 168.774L436.815 166.012L434.748 119.528C434.619 116.635 433.702 113.832 432.097 111.422C430.492 109.012 428.26 107.085 425.64 105.851L422.33 104.289Z" fill="#5096F5"/>
<path d="M450.693 163.352C453.175 165.617 455.061 168.457 456.187 171.623C457.502 175.295 457.633 179.791 454.958 182.698C453.622 184.027 451.886 184.879 450.018 185.122C448.149 185.365 446.253 184.986 444.622 184.043C443.037 182.986 441.741 181.55 440.85 179.867C439.959 178.183 439.501 176.303 439.519 174.398C438.722 174.579 438.006 175.016 437.48 175.642C436.46 176.893 435.746 178.366 435.397 179.943C435.048 181.52 435.073 183.157 435.471 184.722C436.238 187.932 437.868 190.872 440.184 193.223C441.933 195.103 443.942 196.737 445.735 198.573C451.662 204.646 455.001 212.829 456.881 221.114C459.459 234.797 461.187 248.626 462.056 262.523H504.124C500.351 240.315 484.796 210.747 482.772 191.503C482.208 186.096 482.367 180.5 480.343 175.468C479.74 173.733 478.627 172.221 477.149 171.131C476.079 170.437 474.792 170.104 473.722 169.396C472.277 168.427 471.308 166.866 469.949 165.767C467.564 163.844 464.947 163.54 462.215 162.123C462.215 162.123 450.896 160.576 450.693 163.352Z" fill="#FDBA73"/>
<path d="M451.864 149.718C449.822 149.715 447.825 150.318 446.126 151.45C444.427 152.583 443.101 154.194 442.318 156.081C441.534 157.967 441.328 160.043 441.725 162.046C442.121 164.05 443.103 165.89 444.546 167.336C445.989 168.781 447.828 169.765 449.831 170.165C451.833 170.564 453.91 170.361 455.797 169.58C457.684 168.799 459.296 167.476 460.431 165.778C461.566 164.08 462.172 162.083 462.172 160.041C462.172 157.306 461.086 154.682 459.154 152.747C457.221 150.811 454.599 149.722 451.864 149.718ZM451.864 164.942C450.895 164.942 449.947 164.655 449.142 164.116C448.336 163.578 447.708 162.813 447.337 161.917C446.966 161.021 446.869 160.036 447.058 159.085C447.247 158.134 447.714 157.261 448.399 156.575C449.084 155.89 449.958 155.423 450.908 155.234C451.859 155.045 452.844 155.142 453.74 155.513C454.635 155.884 455.401 156.512 455.939 157.318C456.478 158.124 456.765 159.072 456.765 160.041C456.765 161.341 456.249 162.588 455.33 163.507C454.411 164.426 453.164 164.942 451.864 164.942Z" fill="#5096F5"/>
<path d="M435.023 165.68C432.98 165.677 430.982 166.28 429.283 167.414C427.583 168.547 426.258 170.159 425.475 172.046C424.692 173.933 424.486 176.01 424.884 178.014C425.282 180.018 426.265 181.858 427.709 183.303C429.154 184.747 430.994 185.731 432.998 186.129C435.002 186.527 437.078 186.321 438.965 185.538C440.852 184.755 442.463 183.429 443.597 181.73C444.73 180.03 445.333 178.032 445.33 175.989C445.326 173.256 444.239 170.636 442.307 168.704C440.375 166.771 437.755 165.684 435.023 165.68ZM435.023 180.89C434.056 180.887 433.113 180.599 432.31 180.061C431.507 179.523 430.881 178.76 430.511 177.868C430.141 176.975 430.042 175.993 430.228 175.045C430.415 174.097 430.877 173.225 431.557 172.538C432.237 171.852 433.105 171.382 434.051 171.188C434.998 170.993 435.98 171.083 436.876 171.446C437.772 171.808 438.54 172.427 439.085 173.225C439.63 174.023 439.926 174.965 439.938 175.931C439.945 176.581 439.824 177.226 439.58 177.828C439.336 178.43 438.975 178.978 438.518 179.439C438.061 179.901 437.516 180.267 436.916 180.516C436.316 180.765 435.672 180.892 435.023 180.89Z" fill="#5096F5"/>
<path d="M454.958 182.698C457.575 179.806 457.502 175.295 456.187 171.622C455.074 168.471 453.295 168.095 450.881 165.839C449.673 164.97 448.613 163.91 447.744 162.702C447.753 162.312 447.802 161.925 447.889 161.545C448.626 158.783 452.558 158.046 455.247 159.029C457.644 159.886 459.973 160.92 462.215 162.123C464.947 163.569 467.564 163.844 469.949 165.767" fill="#FDBA73"/>
<path d="M439.663 174.398C440.063 175.544 440.177 176.77 439.996 177.97C440.736 180.495 442.384 182.658 444.622 184.042C446.253 184.985 448.149 185.365 450.018 185.121C451.886 184.878 453.622 184.027 454.958 182.697L445.735 198.602C443.942 196.766 441.933 195.132 440.184 193.252C437.868 190.901 436.238 187.961 435.471 184.751C434.806 181.527 434.748 177.941 436.917 175.483C437.644 174.791 438.534 174.294 439.504 174.037L439.663 174.398Z" fill="#FDBA73"/>
<path d="M433.374 144.686C433.363 144.355 433.253 144.034 433.06 143.765C432.866 143.496 432.597 143.29 432.286 143.174C431.976 143.058 431.637 143.036 431.315 143.112C430.992 143.188 430.699 143.358 430.473 143.601C430.246 143.843 430.097 144.147 430.044 144.475C429.99 144.802 430.035 145.137 430.172 145.439C430.309 145.741 430.533 145.996 430.815 146.17C431.097 146.345 431.424 146.433 431.755 146.421C431.976 146.414 432.192 146.363 432.393 146.272C432.594 146.18 432.774 146.051 432.924 145.889C433.075 145.728 433.192 145.539 433.269 145.333C433.346 145.126 433.382 144.906 433.374 144.686Z" fill="#E3F2FF"/>
<path d="M359.546 262.523C359.199 255.091 358.548 230.801 358.505 223.369C358.462 215.938 358.505 208.636 360.948 201.754C362.842 196.318 366.08 191.387 367.728 185.85C368.609 182.534 369.199 179.147 369.492 175.729C370.089 170.495 370.687 165.265 371.284 160.041C371.414 158.913 371.4 157.511 370.417 156.961C369.957 156.797 369.461 156.767 368.984 156.874C368.508 156.982 368.073 157.223 367.728 157.569C364.967 159.694 363.536 163.049 361.512 165.882C359.488 168.716 356.148 171.232 352.838 170.307C351.632 169.865 350.554 169.132 349.699 168.174C348.845 167.215 348.239 166.061 347.937 164.812C346.824 161.258 347.141 157.409 348.819 154.084C350.814 150.137 354.37 146.855 353.879 142.517C352.183 142.007 350.371 142.037 348.693 142.601C347.015 143.166 345.553 144.238 344.511 145.669L338.96 154.229C336.836 157.243 335.088 160.506 333.756 163.945C331.067 171.81 332.917 180.413 333.365 188.712C334.464 208.839 321.8 243.973 313.994 262.552L359.546 262.523Z" fill="#FDBA73"/>
<path d="M370.59 121.061L341.258 137.5L377.674 202.506L407.006 186.081L397.87 175.83L399.416 172.533L395.268 170.74L395.08 164.784L389.384 162.412L389.601 155.01L383.673 151.785L384.122 145.236L378.7 142.46L378.758 135.635L374.161 132.642L376.113 127.914L371.704 126.512L370.59 121.061Z" fill="white"/>
<path d="M360.948 201.754C362.842 196.318 366.08 191.387 367.728 185.85C368.609 182.534 369.199 179.147 369.492 175.729C370.089 170.495 370.687 165.266 371.284 160.041C371.414 158.913 371.4 157.511 370.417 156.961C369.957 156.797 369.46 156.767 368.984 156.874C368.508 156.982 368.073 157.223 367.728 157.569C364.967 159.694 363.536 163.049 361.512 165.882C359.488 168.716 356.148 171.232 352.838 170.307" fill="#FDBA73"/>
<path d="M255.127 92.6785L70.2719 123.451L92.3412 256.062L277.197 225.289L255.127 92.6785Z" fill="#E3E3E3"/>
<path d="M201.002 143.038C191.736 146.164 183.526 151.814 177.294 159.351C171.063 166.889 167.058 176.015 165.728 185.705C184.608 180.109 199.383 162.658 201.002 143.038Z" fill="#199085"/>
<path d="M165.728 185.199C159.486 189.844 153.996 195.423 149.451 201.74" stroke="#199085" stroke-width="3" stroke-linecap="round" stroke-linejoin="round"/>
<path d="M175.009 117.331C170.325 121.668 165.916 126.425 163.358 132.237C159.021 142.17 160.611 153.578 162.288 164.292C166.914 161.448 170.514 157.204 172.566 152.176C174.344 147.22 175.395 142.034 175.689 136.777C176.253 130.083 175.385 124.039 175.009 117.331Z" fill="#11215F"/>
<path d="M135.457 171.507C133.65 172.117 132.089 173.293 131.004 174.861C130.486 175.654 130.22 176.585 130.241 177.532C130.262 178.479 130.568 179.398 131.12 180.167C131.771 180.815 132.566 181.299 133.441 181.578C134.316 181.857 135.245 181.924 136.151 181.772C138.347 181.576 140.445 180.769 142.208 179.444C142.868 178.854 143.614 178.366 144.42 177.999C144.826 177.827 145.277 177.795 145.704 177.908C146.13 178.02 146.507 178.271 146.776 178.621C147.039 179.181 147.096 179.816 146.935 180.413C146.468 182.952 145.431 185.352 143.9 187.431C142.37 189.51 140.387 191.214 138.102 192.414C135.591 193.523 133.018 194.488 130.397 195.305C119.583 199.397 113.049 209.88 105.821 218.916C98.5928 227.953 86.2614 248.209 81.5196 262.537H22.4941C42.4874 232.984 82.7051 200.988 102.655 174.456C105.497 170.262 109.235 166.751 113.599 164.177C118.109 161.69 123.906 160.866 128.951 159.839C132.484 158.826 136.199 158.618 139.823 159.231C141.925 159.455 143.917 160.285 145.557 161.619C147.197 162.954 148.414 164.736 149.06 166.75C149.455 168.03 149.463 169.399 149.086 170.685C148.708 171.97 147.96 173.116 146.935 173.979C146.357 174.384 144.449 173.43 143.957 172.924C143.466 172.418 143.234 171.478 142.511 171.377C141.34 171.189 139.924 170.769 138.738 170.567C137.584 170.609 136.458 170.931 135.457 171.507Z" fill="#A04622"/>
<path d="M136.642 176.683C138.276 181.989 140.3 185.358 141.514 185.199C142.728 185.04 144.16 181.237 144.752 175.685C142.191 176.754 139.386 177.099 136.642 176.683Z" fill="#E3F2FF"/>
<path d="M144.752 175.685C145.135 171.839 145.135 167.965 144.752 164.119C143.697 152.725 140.502 143.703 137.64 143.978C134.777 144.252 133.303 153.694 134.358 165.087C134.721 169.032 135.477 172.931 136.613 176.726C139.37 177.135 142.187 176.775 144.752 175.685Z" fill="#FE9901"/>
<path d="M138.839 188.539C138.717 187.504 138.971 186.46 139.555 185.597C140.139 184.734 141.014 184.11 142.02 183.84C142.941 183.604 143.914 183.684 144.784 184.067C145.654 184.449 146.37 185.113 146.819 185.95C147.48 187.092 147.861 188.373 147.931 189.69C148.001 191.007 147.759 192.322 147.224 193.527C146.703 194.698 146.533 195.995 146.736 197.261C146.939 198.526 147.505 199.706 148.366 200.655C148.402 200.701 148.422 200.756 148.424 200.814C148.426 200.871 148.41 200.928 148.378 200.976C148.346 201.024 148.3 201.061 148.246 201.081C148.192 201.101 148.133 201.104 148.077 201.088C145.563 200.004 143.382 198.27 141.759 196.065C140.136 193.859 139.128 191.262 138.839 188.539Z" fill="#BC7352"/>
<path d="M130.397 195.291C133.018 194.474 135.591 193.508 138.102 192.399C140.388 191.199 142.37 189.495 143.9 187.416C145.431 185.337 146.468 182.938 146.935 180.399C147.096 179.801 147.039 179.166 146.776 178.606C146.507 178.257 146.13 178.006 145.704 177.893C145.277 177.781 144.826 177.813 144.42 177.984C143.614 178.352 142.868 178.839 142.208 179.43C140.445 180.755 138.347 181.561 136.151 181.758C135.245 181.909 134.316 181.842 133.441 181.563C132.566 181.284 131.771 180.801 131.12 180.153" fill="#A04622"/>
<path d="M265.897 262.523C264.697 231.553 249.995 200.048 242.42 175.425C241.233 172.012 240.433 168.476 240.034 164.885C240.045 163.84 239.869 162.802 239.514 161.82C239.322 161.335 238.983 160.923 238.545 160.64C238.107 160.358 237.591 160.219 237.071 160.243C236.543 160.393 236.07 160.695 235.713 161.111C235.355 161.528 235.129 162.041 235.061 162.586C234.816 163.656 234.888 164.784 234.555 165.825C234.324 166.547 233.702 167.27 232.965 167.155C232.586 167.021 232.264 166.76 232.054 166.417C229.698 163.28 229.366 159.043 227.457 155.617C227.266 155.166 226.916 154.801 226.474 154.59C226.139 154.509 225.786 154.55 225.478 154.707C225.17 154.863 224.929 155.125 224.797 155.443C224.541 156.086 224.442 156.779 224.508 157.468L224.682 165.752C224.684 165.923 224.642 166.092 224.559 166.242C224.477 166.392 224.357 166.517 224.211 166.606C224.065 166.695 223.898 166.744 223.727 166.749C223.556 166.754 223.387 166.715 223.236 166.634C222.257 165.676 221.514 164.503 221.067 163.207L218.494 157.829C217.959 156.701 216.788 155.342 215.704 156.007C215.438 156.233 215.232 156.522 215.106 156.848C214.98 157.174 214.937 157.526 214.981 157.872C214.981 161.689 216.427 165.102 216.037 169.208C216.011 169.427 215.921 169.634 215.776 169.801C215.242 170.321 214.432 169.555 214.056 168.904C212.981 166.968 211.691 165.159 210.211 163.511C209.958 163.166 209.612 162.9 209.213 162.745C208.795 162.665 208.361 162.748 208.002 162.976C207.642 163.205 207.383 163.561 207.276 163.974C207.053 164.802 207.053 165.675 207.276 166.504L210.399 181.772C210.992 183.61 210.992 185.588 210.399 187.425C210.226 187.86 209.961 188.252 209.62 188.572C209.279 188.892 208.872 189.133 208.428 189.278C207.983 189.423 207.512 189.469 207.048 189.411C206.584 189.353 206.139 189.193 205.744 188.944C204.298 188.12 202.766 187.353 201.407 186.703C201.098 186.506 200.726 186.433 200.366 186.5C200.084 186.641 199.867 186.884 199.759 187.18C198.617 189.58 200.091 192.385 201.71 194.496C205.541 199.484 210.384 203.662 213.666 209.041C215.733 212.667 217.294 216.558 218.306 220.608C222.261 234.176 223.436 248.403 221.761 262.436L265.897 262.523Z" fill="#A04622"/>
<path d="M0.722778 262.277H518.277" stroke="#1D1D1B" stroke-linecap="round" stroke-linejoin="round"/>
</g>
<defs>
<clipPath id="clip0_731_2248">
<rect width="519" height="263" fill="white"/>
</clipPath>
</defs>
</svg>
