<svg width="465" height="423" viewBox="0 0 465 423" fill="none" xmlns="http://www.w3.org/2000/svg">
<g clip-path="url(#clip0_573_226)">
<path d="M170.13 140.37V125.2H140.53V111.51H111.66V96.3399H80.62V80.0599H50.8V62.6699H16.09V164.79H198.56V140.37H170.13Z" fill="#929292"/>
<path d="M48.48 99.1799H21.95V109.01H48.48V99.1799Z" fill="#696969"/>
<path d="M61.75 111.65H35.22V121.48H61.75V111.65Z" fill="#696969"/>
<path d="M109.53 149.05H83V158.88H109.53V149.05Z" fill="#696969"/>
<path d="M160.6 130.35H134.07V140.18H160.6V130.35Z" fill="#696969"/>
<path d="M234.47 148.29L47.1 50.0801H30.66L18.44 61.1301H47.1L248 166.08L234.47 148.29Z" fill="#7D1212"/>
<path d="M37.89 3.1499H32.54V62.6699H37.89V3.1499Z" fill="#626262"/>
<path d="M101.62 37.02H96.27V96.54H101.62V37.02Z" fill="#626262"/>
<path d="M101.62 35.97H96.27V42.24L101.62 45.57V35.97Z" fill="#424242"/>
<path d="M37.89 3.1499H32.54V9.4299L37.89 12.7499V3.1499Z" fill="#424242"/>
<path d="M156.49 65.6299H151.14V125.15H156.49V65.6299Z" fill="#626262"/>
<path d="M156.49 65.6299H151.14V71.9099L156.49 75.2399V65.6299Z" fill="#424242"/>
<path d="M210.37 98.54C209.851 98.5386 209.34 98.4118 208.88 98.1702L38.15 6.30005H3.15002C2.31459 6.30005 1.51335 5.96818 0.922607 5.37744C0.331868 4.7867 0 3.98558 0 3.15015C0 2.31471 0.331868 1.51359 0.922607 0.922852C1.51335 0.332112 2.31459 0 3.15002 0H39.75L40.45 0.380127L211.88 92.6201C212.496 92.9538 212.984 93.4834 213.265 94.1252C213.546 94.7671 213.606 95.4845 213.434 96.1638C213.261 96.8432 212.868 97.4456 212.315 97.876C211.762 98.3064 211.081 98.5401 210.38 98.54H210.37Z" fill="#626262"/>
<path d="M165.19 408.33H102.03V422.51H165.19V408.33Z" fill="#575757"/>
<path d="M137.42 310.03H129.8V408.33H137.42V310.03Z" fill="#929292"/>
<path d="M166.87 213.88H100.37C93.8033 213.88 88.48 219.203 88.48 225.77V301.92C88.48 308.487 93.8033 313.81 100.37 313.81H166.87C173.437 313.81 178.76 308.487 178.76 301.92V225.77C178.76 219.203 173.437 213.88 166.87 213.88Z" fill="#3A4BC9"/>
<path d="M162.42 307.79H104.81C101.893 307.79 99.0947 306.631 97.0318 304.568C94.9689 302.505 93.81 299.707 93.81 296.79V230.79C93.81 227.873 94.9689 225.075 97.0318 223.012C99.0947 220.949 101.893 219.79 104.81 219.79H162.42C165.337 219.79 168.135 220.949 170.198 223.012C172.261 225.075 173.42 227.873 173.42 230.79V296.79C173.42 299.707 172.261 302.505 170.198 304.568C168.135 306.631 165.337 307.79 162.42 307.79ZM104.81 221.22C102.255 221.225 99.806 222.243 97.9993 224.05C96.1926 225.856 95.1753 228.305 95.17 230.86V296.86C95.1726 299.416 96.1891 301.866 97.9964 303.674C99.8037 305.481 102.254 306.497 104.81 306.5H162.42C164.975 306.497 167.424 305.481 169.23 303.673C171.036 301.866 172.05 299.415 172.05 296.86V230.86C172.047 228.306 171.032 225.857 169.227 224.05C167.422 222.243 164.974 221.226 162.42 221.22H104.81Z" fill="white"/>
<path d="M123.2 272.95C122.515 272.95 121.846 273.153 121.277 273.534C120.707 273.915 120.264 274.456 120.002 275.088C119.741 275.721 119.673 276.417 119.807 277.089C119.942 277.76 120.272 278.377 120.757 278.86C121.242 279.344 121.859 279.673 122.531 279.805C123.203 279.937 123.899 279.867 124.531 279.604C125.163 279.34 125.703 278.896 126.082 278.325C126.461 277.755 126.662 277.085 126.66 276.4C126.66 275.946 126.57 275.497 126.396 275.078C126.222 274.658 125.967 274.278 125.646 273.957C125.325 273.637 124.943 273.383 124.523 273.21C124.104 273.037 123.654 272.949 123.2 272.95Z" fill="white"/>
<path d="M163.23 282.26H153.57L152.07 264.48C151.938 263.027 151.27 261.675 150.196 260.688C149.122 259.701 147.719 259.149 146.26 259.14H124.65L123.55 247.71H143.93C144.331 247.678 144.706 247.497 144.979 247.201C145.252 246.905 145.404 246.518 145.404 246.115C145.404 245.713 145.252 245.325 144.979 245.029C144.706 244.734 144.331 244.552 143.93 244.52H123.24L122.78 239.65C122.639 238.119 121.933 236.694 120.8 235.654C119.667 234.613 118.188 234.031 116.65 234.02H109.15V237.21H116.65C117.401 237.207 118.126 237.486 118.681 237.991C119.237 238.497 119.582 239.192 119.65 239.94L121.5 259.23C117.469 259.635 113.709 261.442 110.875 264.337C108.04 267.231 106.312 271.029 105.992 275.067C105.672 279.105 106.78 283.128 109.123 286.432C111.465 289.737 114.894 292.115 118.81 293.15C122.727 294.185 126.882 293.812 130.552 292.096C134.221 290.38 137.172 287.43 138.889 283.761C140.605 280.092 140.979 275.936 139.945 272.019C138.911 268.103 136.534 264.673 133.23 262.33H146.31C146.971 262.333 147.608 262.582 148.094 263.03C148.581 263.478 148.883 264.091 148.94 264.75L150.99 288.99L154.17 288.73L153.89 285.45H163.28C163.5 285.468 163.721 285.439 163.93 285.367C164.139 285.295 164.33 285.18 164.492 285.03C164.654 284.88 164.784 284.699 164.872 284.497C164.961 284.294 165.006 284.076 165.006 283.855C165.006 283.634 164.961 283.416 164.872 283.214C164.784 283.011 164.654 282.83 164.492 282.68C164.33 282.53 164.139 282.416 163.93 282.343C163.721 282.271 163.5 282.243 163.28 282.26H163.23ZM137.23 276.4C137.232 279.185 136.408 281.909 134.862 284.225C133.316 286.542 131.118 288.348 128.545 289.416C125.972 290.483 123.141 290.763 120.409 290.221C117.677 289.679 115.168 288.338 113.197 286.37C111.227 284.401 109.885 281.892 109.341 279.161C108.797 276.429 109.075 273.598 110.141 271.024C111.206 268.451 113.011 266.251 115.327 264.704C117.642 263.156 120.365 262.33 123.15 262.33C125.002 262.326 126.836 262.687 128.548 263.392C130.26 264.097 131.817 265.132 133.129 266.439C134.441 267.745 135.483 269.297 136.195 271.007C136.907 272.716 137.276 274.549 137.28 276.4H137.23Z" fill="white"/>
<path d="M366.988 190.256L348.247 300.708L351.717 301.296L370.458 190.845L366.988 190.256Z" fill="#919191"/>
<path d="M373.426 200.648L354.667 311.208L445.982 326.702L464.741 216.142L373.426 200.648Z" fill="#663F30"/>
<path d="M461.79 218.19L455.38 203.5L436.62 314.06L444.23 321.7L461.79 218.19Z" fill="#BDBDBD"/>
<path d="M436.62 314.06L351.98 299.7L350.02 300.73L349.2 305.58L444.23 321.7L436.62 314.06Z" fill="#9E9E9E"/>
<path d="M386.722 192.046L367.658 303.065L452.65 317.659L471.713 206.641L386.722 192.046Z" fill="#DEDEDE"/>
<path d="M269.623 183.042L250.863 293.602L341.981 309.062L360.74 198.502L269.623 183.042Z" fill="#663F30"/>
<path d="M271.73 185.94L282.63 174.19L263.87 284.75L254.16 289.46L271.73 185.94Z" fill="#BDBDBD"/>
<path d="M263.87 284.75L348.51 299.11L350.02 300.75L349.2 305.58L254.16 289.46L263.87 284.75Z" fill="#9E9E9E"/>
<path d="M282.623 174.198L263.864 284.757L348.504 299.119L367.263 188.559L282.623 174.198Z" fill="#DEDEDE"/>
<path d="M349.62 302.48C342.93 301.34 339.29 305.15 340.67 308.83L341.99 309.05L342.16 307.86L354.91 310.04L354.66 311.2L355.98 311.43C358.5 308.41 356.31 303.61 349.62 302.48Z" fill="#663F30"/>
<path d="M349.4 303.79C343.86 302.85 340.84 306 341.99 309.05L342.16 307.86L354.91 310.04L354.66 311.2C356.75 308.7 354.94 304.73 349.4 303.79Z" fill="#38221B"/>
<path d="M379.5 200.63C379.473 200.788 379.416 200.94 379.33 201.076C379.245 201.212 379.134 201.33 379.003 201.423C378.872 201.516 378.724 201.582 378.567 201.617C378.41 201.653 378.248 201.657 378.09 201.63C377.933 201.603 377.783 201.546 377.648 201.461C377.514 201.376 377.397 201.265 377.305 201.135C377.213 201.005 377.148 200.858 377.113 200.703C377.077 200.548 377.073 200.387 377.1 200.23C377.127 200.073 377.184 199.923 377.269 199.788C377.354 199.654 377.465 199.537 377.595 199.445C377.725 199.353 377.872 199.288 378.027 199.253C378.182 199.217 378.343 199.213 378.5 199.24C378.816 199.294 379.098 199.47 379.285 199.73C379.472 199.99 379.549 200.313 379.5 200.63Z" fill="#5C5C5C"/>
<path d="M378.31 207.6C378.237 207.899 378.053 208.159 377.796 208.328C377.54 208.498 377.228 208.564 376.925 208.513C376.621 208.463 376.348 208.299 376.16 208.056C375.972 207.812 375.882 207.507 375.91 207.2C375.966 206.882 376.146 206.598 376.41 206.411C376.674 206.224 377.001 206.148 377.32 206.2C377.477 206.227 377.627 206.284 377.762 206.369C377.897 206.454 378.014 206.565 378.106 206.695C378.198 206.825 378.263 206.972 378.298 207.127C378.333 207.282 378.337 207.443 378.31 207.6Z" fill="#5C5C5C"/>
<path d="M383.55 204.87C383.508 205.104 383.397 205.321 383.232 205.493C383.067 205.665 382.855 205.784 382.622 205.836C382.39 205.888 382.147 205.87 381.925 205.784C381.702 205.698 381.51 205.549 381.372 205.355C381.234 205.16 381.157 204.93 381.15 204.691C381.142 204.453 381.206 204.218 381.331 204.016C381.457 203.814 381.64 203.653 381.857 203.554C382.074 203.455 382.315 203.422 382.55 203.46C382.709 203.485 382.861 203.542 382.998 203.627C383.135 203.712 383.253 203.824 383.346 203.955C383.439 204.086 383.505 204.235 383.54 204.392C383.575 204.549 383.579 204.711 383.55 204.87Z" fill="#5C5C5C"/>
<path d="M387.68 201.98C387.641 202.219 387.532 202.44 387.367 202.617C387.202 202.793 386.988 202.916 386.753 202.971C386.518 203.026 386.271 203.01 386.045 202.924C385.819 202.839 385.624 202.689 385.483 202.492C385.343 202.295 385.264 202.062 385.257 201.82C385.249 201.579 385.314 201.341 385.442 201.136C385.57 200.931 385.756 200.769 385.977 200.67C386.197 200.571 386.442 200.54 386.68 200.58C386.838 200.606 386.989 200.662 387.125 200.746C387.261 200.831 387.379 200.941 387.472 201.072C387.565 201.202 387.631 201.349 387.667 201.505C387.703 201.661 387.707 201.823 387.68 201.98Z" fill="#5C5C5C"/>
<path d="M377.13 214.58C377.091 214.819 376.982 215.04 376.817 215.216C376.652 215.393 376.438 215.516 376.203 215.571C375.968 215.626 375.721 215.61 375.495 215.525C375.269 215.439 375.074 215.289 374.933 215.092C374.793 214.896 374.714 214.662 374.707 214.42C374.699 214.179 374.764 213.94 374.892 213.736C375.02 213.531 375.206 213.369 375.427 213.27C375.647 213.171 375.892 213.14 376.13 213.18C376.448 213.234 376.731 213.412 376.919 213.674C377.106 213.936 377.182 214.262 377.13 214.58Z" fill="#5C5C5C"/>
<path d="M399.28 203.99C399.238 204.225 399.127 204.441 398.962 204.613C398.797 204.785 398.585 204.904 398.352 204.956C398.12 205.008 397.877 204.99 397.655 204.904C397.432 204.819 397.24 204.669 397.102 204.475C396.964 204.28 396.887 204.05 396.88 203.812C396.873 203.574 396.936 203.339 397.062 203.136C397.187 202.934 397.37 202.773 397.587 202.674C397.803 202.575 398.045 202.542 398.28 202.58C398.439 202.605 398.591 202.662 398.728 202.747C398.865 202.832 398.983 202.944 399.076 203.075C399.169 203.206 399.235 203.355 399.27 203.512C399.305 203.669 399.309 203.832 399.28 203.99Z" fill="#5C5C5C"/>
<path d="M398.1 210.96C398.061 211.199 397.952 211.42 397.787 211.596C397.622 211.773 397.408 211.896 397.173 211.951C396.938 212.006 396.691 211.99 396.465 211.904C396.239 211.819 396.044 211.669 395.903 211.472C395.763 211.276 395.684 211.042 395.677 210.8C395.669 210.559 395.734 210.321 395.862 210.116C395.99 209.911 396.176 209.749 396.397 209.65C396.617 209.551 396.862 209.52 397.1 209.56C397.418 209.614 397.701 209.792 397.889 210.054C398.076 210.316 398.152 210.642 398.1 210.96Z" fill="#5C5C5C"/>
<path d="M402.75 211.75C402.711 211.988 402.602 212.21 402.437 212.387C402.272 212.563 402.058 212.686 401.823 212.741C401.588 212.796 401.341 212.78 401.115 212.694C400.889 212.609 400.694 212.459 400.553 212.262C400.413 212.065 400.334 211.832 400.327 211.59C400.319 211.349 400.384 211.111 400.512 210.906C400.64 210.701 400.826 210.539 401.047 210.44C401.267 210.341 401.512 210.31 401.75 210.35C402.068 210.404 402.351 210.581 402.539 210.844C402.726 211.106 402.802 211.432 402.75 211.75Z" fill="#5C5C5C"/>
<path d="M407.4 212.54C407.36 212.775 407.25 212.993 407.086 213.167C406.922 213.34 406.71 213.461 406.477 213.514C406.245 213.567 406.001 213.55 405.778 213.466C405.555 213.381 405.362 213.232 405.223 213.038C405.084 212.844 405.006 212.612 404.998 212.374C404.99 212.135 405.054 211.9 405.179 211.697C405.305 211.494 405.488 211.333 405.705 211.234C405.923 211.135 406.164 211.102 406.4 211.14C406.558 211.165 406.709 211.222 406.845 211.306C406.981 211.391 407.099 211.501 407.192 211.631C407.285 211.761 407.351 211.909 407.387 212.065C407.423 212.221 407.427 212.382 407.4 212.54Z" fill="#5C5C5C"/>
<path d="M396.92 217.94C396.903 218.106 396.852 218.267 396.77 218.412C396.688 218.558 396.577 218.685 396.444 218.786C396.311 218.886 396.159 218.959 395.997 218.998C395.834 219.038 395.666 219.044 395.501 219.016C395.337 218.988 395.18 218.926 395.04 218.835C394.9 218.744 394.78 218.625 394.688 218.486C394.596 218.346 394.534 218.19 394.505 218.025C394.476 217.861 394.481 217.692 394.52 217.53C394.546 217.372 394.602 217.22 394.686 217.084C394.771 216.948 394.881 216.831 395.011 216.738C395.142 216.645 395.289 216.578 395.445 216.543C395.601 216.507 395.762 216.503 395.92 216.53C396.078 216.556 396.23 216.614 396.366 216.699C396.502 216.785 396.62 216.896 396.713 217.027C396.806 217.158 396.872 217.306 396.907 217.463C396.943 217.619 396.947 217.782 396.92 217.94Z" fill="#5C5C5C"/>
<path d="M436.43 210.29C436.389 210.528 436.279 210.748 436.113 210.923C435.947 211.098 435.733 211.22 435.498 211.273C435.263 211.326 435.017 211.309 434.792 211.223C434.567 211.137 434.372 210.986 434.233 210.789C434.093 210.592 434.015 210.359 434.008 210.118C434.001 209.877 434.066 209.639 434.194 209.435C434.322 209.231 434.508 209.069 434.728 208.97C434.948 208.872 435.192 208.84 435.43 208.88C435.747 208.939 436.029 209.119 436.216 209.382C436.403 209.645 436.48 209.971 436.43 210.29Z" fill="#5C5C5C"/>
<path d="M435.24 217.26C435.167 217.559 434.983 217.819 434.726 217.988C434.469 218.158 434.158 218.224 433.855 218.173C433.551 218.122 433.278 217.959 433.09 217.715C432.902 217.472 432.812 217.166 432.84 216.86C432.896 216.541 433.076 216.258 433.34 216.07C433.604 215.883 433.931 215.808 434.25 215.86C434.407 215.887 434.557 215.944 434.692 216.029C434.827 216.114 434.944 216.224 435.036 216.354C435.128 216.484 435.193 216.631 435.228 216.787C435.263 216.942 435.267 217.103 435.24 217.26Z" fill="#5C5C5C"/>
<path d="M444.54 218.87C444.5 219.105 444.39 219.323 444.226 219.497C444.062 219.67 443.85 219.791 443.617 219.844C443.385 219.897 443.141 219.88 442.918 219.796C442.695 219.711 442.502 219.562 442.363 219.368C442.224 219.173 442.146 218.943 442.138 218.704C442.13 218.465 442.193 218.23 442.319 218.027C442.445 217.824 442.628 217.663 442.845 217.564C443.063 217.465 443.304 217.432 443.54 217.47C443.698 217.495 443.849 217.552 443.985 217.636C444.121 217.721 444.239 217.831 444.332 217.961C444.425 218.091 444.491 218.239 444.527 218.395C444.563 218.551 444.567 218.712 444.54 218.87Z" fill="#5C5C5C"/>
<path d="M441.08 211.08C441.039 211.318 440.929 211.538 440.763 211.713C440.597 211.888 440.383 212.01 440.148 212.063C439.913 212.116 439.667 212.099 439.442 212.013C439.217 211.927 439.022 211.776 438.883 211.579C438.743 211.382 438.665 211.149 438.658 210.908C438.651 210.667 438.716 210.429 438.844 210.225C438.972 210.021 439.158 209.859 439.378 209.76C439.598 209.662 439.842 209.63 440.08 209.67C440.238 209.697 440.39 209.755 440.526 209.84C440.662 209.925 440.78 210.037 440.873 210.168C440.966 210.299 441.032 210.446 441.067 210.603C441.103 210.76 441.107 210.922 441.08 211.08Z" fill="#5C5C5C"/>
<path d="M434.06 224.24C434.021 224.478 433.912 224.7 433.747 224.876C433.582 225.053 433.368 225.176 433.133 225.231C432.898 225.286 432.651 225.269 432.425 225.184C432.199 225.099 432.004 224.948 431.863 224.752C431.723 224.555 431.644 224.321 431.637 224.08C431.629 223.838 431.694 223.6 431.822 223.396C431.95 223.191 432.136 223.029 432.357 222.93C432.577 222.831 432.822 222.8 433.06 222.84C433.378 222.894 433.661 223.071 433.849 223.334C434.036 223.596 434.112 223.922 434.06 224.24Z" fill="#5C5C5C"/>
<path d="M420.63 207.61C420.605 207.768 420.548 207.919 420.464 208.055C420.379 208.191 420.269 208.309 420.139 208.402C420.008 208.495 419.861 208.561 419.705 208.597C419.549 208.633 419.388 208.637 419.23 208.61C418.992 208.571 418.77 208.462 418.594 208.297C418.417 208.132 418.294 207.918 418.239 207.683C418.184 207.448 418.2 207.201 418.286 206.975C418.371 206.749 418.521 206.554 418.718 206.413C418.915 206.273 419.149 206.194 419.39 206.187C419.631 206.179 419.87 206.244 420.074 206.372C420.279 206.5 420.441 206.686 420.54 206.907C420.639 207.127 420.67 207.372 420.63 207.61Z" fill="#5C5C5C"/>
<path d="M425.28 208.4C425.208 208.701 425.024 208.964 424.765 209.135C424.507 209.305 424.193 209.371 423.888 209.319C423.583 209.267 423.309 209.101 423.121 208.854C422.934 208.607 422.848 208.298 422.88 207.99C422.897 207.824 422.948 207.663 423.03 207.518C423.112 207.372 423.223 207.245 423.356 207.145C423.489 207.044 423.641 206.971 423.804 206.931C423.966 206.892 424.134 206.886 424.299 206.914C424.463 206.942 424.62 207.004 424.76 207.095C424.9 207.186 425.02 207.305 425.112 207.444C425.204 207.584 425.266 207.74 425.295 207.905C425.324 208.069 425.319 208.238 425.28 208.4Z" fill="#5C5C5C"/>
<path d="M419.45 214.58C419.411 214.819 419.302 215.04 419.137 215.216C418.972 215.393 418.758 215.516 418.523 215.571C418.288 215.626 418.041 215.61 417.815 215.525C417.589 215.439 417.394 215.289 417.253 215.092C417.113 214.896 417.034 214.662 417.027 214.42C417.019 214.179 417.084 213.94 417.212 213.736C417.34 213.531 417.526 213.369 417.747 213.27C417.967 213.171 418.212 213.14 418.45 213.18C418.768 213.234 419.051 213.412 419.239 213.674C419.426 213.936 419.502 214.262 419.45 214.58Z" fill="#5C5C5C"/>
<path d="M424.1 215.37C424.061 215.609 423.952 215.83 423.787 216.006C423.622 216.183 423.408 216.306 423.173 216.361C422.938 216.416 422.691 216.4 422.465 216.315C422.239 216.229 422.044 216.079 421.903 215.882C421.763 215.686 421.684 215.452 421.677 215.21C421.669 214.969 421.734 214.731 421.862 214.526C421.99 214.321 422.176 214.159 422.397 214.06C422.617 213.961 422.862 213.93 423.1 213.97C423.258 213.996 423.409 214.052 423.545 214.137C423.681 214.221 423.799 214.331 423.892 214.462C423.985 214.592 424.051 214.739 424.087 214.895C424.123 215.051 424.127 215.213 424.1 215.37Z" fill="#5C5C5C"/>
<path d="M418.26 221.56C418.221 221.799 418.112 222.02 417.947 222.196C417.782 222.373 417.568 222.496 417.333 222.551C417.098 222.606 416.851 222.59 416.625 222.505C416.399 222.419 416.204 222.269 416.063 222.072C415.923 221.876 415.844 221.642 415.837 221.4C415.829 221.159 415.894 220.92 416.022 220.716C416.15 220.511 416.336 220.349 416.557 220.25C416.777 220.151 417.022 220.12 417.26 220.16C417.418 220.186 417.569 220.242 417.705 220.327C417.841 220.411 417.959 220.521 418.052 220.651C418.145 220.782 418.211 220.929 418.247 221.085C418.283 221.241 418.287 221.402 418.26 221.56Z" fill="#5C5C5C"/>
<path d="M366.43 277.61C366.388 277.845 366.277 278.061 366.112 278.233C365.947 278.405 365.735 278.524 365.502 278.576C365.27 278.628 365.027 278.61 364.805 278.524C364.582 278.439 364.39 278.289 364.252 278.095C364.114 277.901 364.037 277.67 364.03 277.432C364.022 277.194 364.086 276.959 364.211 276.756C364.337 276.554 364.52 276.393 364.737 276.294C364.954 276.195 365.195 276.163 365.43 276.2C365.589 276.226 365.741 276.282 365.878 276.367C366.015 276.452 366.133 276.564 366.226 276.695C366.319 276.826 366.385 276.975 366.42 277.132C366.455 277.289 366.459 277.452 366.43 277.61Z" fill="#5C5C5C"/>
<path d="M365.25 284.58C365.211 284.819 365.102 285.04 364.937 285.216C364.772 285.393 364.558 285.516 364.323 285.571C364.088 285.626 363.841 285.61 363.615 285.525C363.389 285.439 363.194 285.289 363.053 285.092C362.913 284.896 362.834 284.662 362.827 284.42C362.819 284.179 362.884 283.94 363.012 283.736C363.14 283.531 363.326 283.369 363.547 283.27C363.767 283.171 364.012 283.14 364.25 283.18C364.568 283.234 364.851 283.412 365.039 283.674C365.226 283.936 365.302 284.262 365.25 284.58Z" fill="#5C5C5C"/>
<path d="M370.49 281.87C370.449 282.105 370.34 282.323 370.176 282.497C370.012 282.67 369.8 282.791 369.567 282.844C369.335 282.897 369.091 282.88 368.868 282.796C368.645 282.711 368.452 282.562 368.313 282.368C368.174 282.173 368.096 281.943 368.088 281.704C368.081 281.465 368.143 281.23 368.269 281.027C368.395 280.824 368.578 280.663 368.795 280.564C369.013 280.465 369.254 280.432 369.49 280.47C369.648 280.495 369.799 280.552 369.935 280.636C370.071 280.721 370.189 280.831 370.282 280.961C370.375 281.091 370.441 281.239 370.477 281.395C370.513 281.551 370.517 281.712 370.49 281.87Z" fill="#5C5C5C"/>
<path d="M374.62 278.96C374.579 279.198 374.469 279.418 374.303 279.593C374.137 279.768 373.923 279.89 373.688 279.943C373.453 279.996 373.207 279.979 372.982 279.893C372.757 279.807 372.562 279.656 372.422 279.459C372.283 279.262 372.205 279.029 372.198 278.788C372.191 278.547 372.256 278.309 372.384 278.105C372.512 277.901 372.698 277.739 372.918 277.64C373.138 277.541 373.382 277.51 373.62 277.55C373.778 277.577 373.93 277.634 374.066 277.72C374.202 277.805 374.32 277.916 374.413 278.047C374.506 278.178 374.572 278.327 374.607 278.483C374.643 278.64 374.647 278.802 374.62 278.96Z" fill="#5C5C5C"/>
<path d="M364.07 291.56C364.031 291.799 363.922 292.02 363.757 292.196C363.592 292.373 363.378 292.496 363.143 292.551C362.908 292.606 362.661 292.59 362.435 292.505C362.209 292.419 362.014 292.269 361.873 292.072C361.733 291.876 361.654 291.642 361.647 291.4C361.639 291.159 361.704 290.92 361.832 290.716C361.96 290.511 362.146 290.349 362.367 290.25C362.587 290.151 362.832 290.12 363.07 290.16C363.388 290.214 363.671 290.392 363.859 290.654C364.046 290.916 364.122 291.242 364.07 291.56Z" fill="#5C5C5C"/>
<path d="M386.22 280.96C386.179 281.195 386.07 281.413 385.906 281.587C385.742 281.76 385.53 281.881 385.297 281.934C385.065 281.987 384.821 281.971 384.598 281.886C384.375 281.801 384.182 281.652 384.043 281.458C383.904 281.263 383.826 281.033 383.818 280.794C383.81 280.555 383.873 280.32 383.999 280.117C384.125 279.914 384.308 279.753 384.525 279.654C384.743 279.554 384.984 279.522 385.22 279.56C385.378 279.585 385.529 279.642 385.665 279.726C385.801 279.81 385.919 279.921 386.012 280.051C386.105 280.181 386.172 280.329 386.207 280.485C386.243 280.641 386.247 280.802 386.22 280.96Z" fill="#5C5C5C"/>
<path d="M385.04 287.94C385.001 288.179 384.892 288.4 384.727 288.576C384.562 288.753 384.348 288.876 384.113 288.931C383.878 288.986 383.631 288.97 383.405 288.885C383.179 288.799 382.984 288.649 382.843 288.452C382.703 288.256 382.624 288.022 382.617 287.78C382.609 287.539 382.674 287.301 382.802 287.096C382.93 286.891 383.116 286.729 383.337 286.63C383.557 286.531 383.802 286.5 384.04 286.54C384.358 286.594 384.641 286.772 384.829 287.034C385.016 287.296 385.092 287.622 385.04 287.94Z" fill="#5C5C5C"/>
<path d="M389.69 288.73C389.636 289.048 389.459 289.331 389.196 289.519C388.934 289.706 388.608 289.782 388.29 289.73C387.973 289.672 387.69 289.491 387.504 289.228C387.317 288.965 387.24 288.639 387.29 288.32C387.362 288.019 387.546 287.756 387.804 287.586C388.063 287.415 388.377 287.349 388.682 287.401C388.987 287.453 389.261 287.62 389.449 287.867C389.636 288.113 389.722 288.422 389.69 288.73Z" fill="#5C5C5C"/>
<path d="M394.34 289.52C394.314 289.678 394.258 289.829 394.174 289.965C394.089 290.101 393.979 290.219 393.849 290.312C393.719 290.405 393.571 290.471 393.415 290.507C393.259 290.543 393.098 290.547 392.94 290.52C392.783 290.493 392.633 290.435 392.498 290.35C392.364 290.265 392.247 290.155 392.155 290.025C392.063 289.895 391.998 289.748 391.963 289.593C391.927 289.437 391.923 289.277 391.95 289.12C391.977 288.963 392.034 288.813 392.119 288.678C392.204 288.543 392.315 288.427 392.445 288.335C392.575 288.243 392.722 288.177 392.877 288.142C393.032 288.107 393.193 288.103 393.35 288.13C393.665 288.184 393.946 288.36 394.132 288.621C394.317 288.881 394.392 289.204 394.34 289.52Z" fill="#5C5C5C"/>
<path d="M383.86 294.92C383.819 295.158 383.709 295.378 383.543 295.553C383.377 295.728 383.163 295.849 382.928 295.903C382.693 295.956 382.447 295.939 382.222 295.853C381.997 295.767 381.802 295.616 381.663 295.419C381.523 295.222 381.445 294.989 381.438 294.748C381.431 294.507 381.496 294.269 381.624 294.065C381.752 293.861 381.938 293.699 382.158 293.6C382.378 293.502 382.622 293.47 382.86 293.51C383.179 293.566 383.462 293.746 383.649 294.01C383.837 294.274 383.912 294.601 383.86 294.92Z" fill="#5C5C5C"/>
<path d="M423.36 287.26C423.319 287.495 423.21 287.713 423.046 287.887C422.882 288.06 422.67 288.181 422.437 288.234C422.205 288.288 421.961 288.271 421.738 288.186C421.515 288.101 421.322 287.952 421.183 287.758C421.044 287.564 420.966 287.333 420.958 287.094C420.951 286.855 421.013 286.62 421.139 286.417C421.265 286.214 421.448 286.053 421.665 285.954C421.883 285.855 422.124 285.822 422.36 285.86C422.518 285.886 422.669 285.942 422.805 286.026C422.941 286.111 423.059 286.221 423.152 286.351C423.245 286.482 423.311 286.629 423.347 286.785C423.383 286.941 423.387 287.102 423.36 287.26Z" fill="#5C5C5C"/>
<path d="M422.18 294.24C422.141 294.478 422.032 294.7 421.867 294.876C421.702 295.053 421.488 295.176 421.253 295.231C421.018 295.286 420.771 295.269 420.545 295.184C420.319 295.099 420.124 294.948 419.983 294.752C419.843 294.555 419.764 294.321 419.757 294.08C419.749 293.838 419.814 293.6 419.942 293.396C420.07 293.191 420.256 293.029 420.477 292.93C420.697 292.831 420.942 292.8 421.18 292.84C421.498 292.894 421.781 293.071 421.969 293.334C422.156 293.596 422.232 293.922 422.18 294.24Z" fill="#5C5C5C"/>
<path d="M431.48 295.87C431.439 296.105 431.33 296.323 431.166 296.497C431.002 296.67 430.79 296.791 430.557 296.844C430.325 296.897 430.081 296.88 429.858 296.796C429.635 296.711 429.442 296.562 429.303 296.368C429.164 296.173 429.086 295.943 429.078 295.704C429.071 295.465 429.133 295.23 429.259 295.027C429.385 294.824 429.568 294.663 429.785 294.564C430.003 294.465 430.244 294.432 430.48 294.47C430.638 294.495 430.789 294.552 430.925 294.636C431.061 294.721 431.179 294.831 431.272 294.961C431.365 295.091 431.432 295.239 431.467 295.395C431.503 295.551 431.507 295.712 431.48 295.87Z" fill="#5C5C5C"/>
<path d="M428.02 288.05C427.981 288.288 427.872 288.51 427.707 288.686C427.542 288.863 427.328 288.986 427.093 289.041C426.858 289.096 426.611 289.08 426.385 288.994C426.159 288.909 425.964 288.758 425.823 288.562C425.683 288.365 425.604 288.131 425.597 287.89C425.589 287.649 425.654 287.41 425.782 287.205C425.91 287.001 426.096 286.839 426.316 286.74C426.537 286.641 426.782 286.61 427.02 286.65C427.338 286.704 427.621 286.881 427.809 287.144C427.996 287.406 428.072 287.732 428.02 288.05Z" fill="#5C5C5C"/>
<path d="M421 301.22C420.961 301.458 420.852 301.68 420.687 301.856C420.522 302.033 420.308 302.156 420.073 302.211C419.838 302.266 419.591 302.249 419.365 302.164C419.139 302.079 418.944 301.929 418.803 301.732C418.663 301.535 418.584 301.301 418.577 301.06C418.569 300.818 418.634 300.58 418.762 300.376C418.89 300.171 419.076 300.009 419.297 299.91C419.517 299.811 419.762 299.779 420 299.82C420.318 299.874 420.601 300.051 420.789 300.314C420.976 300.576 421.052 300.902 421 301.22Z" fill="#5C5C5C"/>
<path d="M407.57 284.58C407.531 284.819 407.422 285.04 407.257 285.216C407.092 285.393 406.878 285.516 406.643 285.571C406.408 285.626 406.161 285.61 405.935 285.525C405.709 285.439 405.514 285.289 405.373 285.092C405.233 284.896 405.154 284.662 405.147 284.42C405.139 284.179 405.204 283.94 405.332 283.736C405.46 283.531 405.646 283.369 405.867 283.27C406.087 283.171 406.332 283.14 406.57 283.18C406.728 283.206 406.879 283.262 407.015 283.347C407.151 283.431 407.269 283.541 407.362 283.671C407.455 283.802 407.521 283.949 407.557 284.105C407.593 284.261 407.597 284.423 407.57 284.58Z" fill="#5C5C5C"/>
<path d="M412.22 285.37C412.181 285.609 412.072 285.83 411.907 286.006C411.742 286.183 411.528 286.306 411.293 286.361C411.058 286.416 410.811 286.4 410.585 286.315C410.359 286.229 410.164 286.079 410.023 285.882C409.883 285.686 409.804 285.452 409.797 285.21C409.789 284.969 409.854 284.731 409.982 284.526C410.11 284.321 410.296 284.159 410.517 284.06C410.737 283.961 410.982 283.93 411.22 283.97C411.378 283.996 411.529 284.052 411.665 284.137C411.801 284.221 411.919 284.331 412.012 284.462C412.105 284.592 412.171 284.739 412.207 284.895C412.243 285.051 412.247 285.213 412.22 285.37Z" fill="#5C5C5C"/>
<path d="M406.39 291.56C406.334 291.879 406.154 292.162 405.89 292.35C405.626 292.537 405.299 292.612 404.98 292.56C404.742 292.519 404.522 292.409 404.347 292.243C404.172 292.077 404.051 291.863 403.997 291.628C403.944 291.393 403.961 291.147 404.047 290.922C404.134 290.697 404.284 290.502 404.481 290.363C404.678 290.223 404.911 290.145 405.152 290.138C405.393 290.131 405.631 290.196 405.835 290.324C406.039 290.452 406.201 290.638 406.3 290.858C406.399 291.078 406.43 291.322 406.39 291.56Z" fill="#5C5C5C"/>
<path d="M411.04 292.35C411.023 292.516 410.972 292.677 410.89 292.822C410.808 292.968 410.697 293.095 410.564 293.196C410.431 293.297 410.279 293.369 410.116 293.409C409.954 293.449 409.786 293.455 409.621 293.427C409.457 293.399 409.3 293.337 409.16 293.245C409.02 293.154 408.9 293.035 408.808 292.896C408.716 292.757 408.654 292.6 408.625 292.436C408.596 292.271 408.601 292.103 408.64 291.94C408.712 291.639 408.896 291.376 409.154 291.206C409.413 291.035 409.727 290.969 410.032 291.021C410.337 291.074 410.611 291.24 410.799 291.487C410.986 291.733 411.072 292.042 411.04 292.35Z" fill="#5C5C5C"/>
<path d="M405.2 298.54C405.175 298.698 405.118 298.849 405.034 298.985C404.949 299.121 404.839 299.239 404.709 299.332C404.579 299.425 404.431 299.492 404.275 299.527C404.119 299.563 403.958 299.567 403.8 299.54C403.565 299.499 403.347 299.39 403.173 299.226C403 299.062 402.879 298.85 402.826 298.617C402.773 298.385 402.789 298.141 402.874 297.918C402.959 297.695 403.108 297.502 403.302 297.363C403.496 297.224 403.727 297.146 403.966 297.138C404.205 297.131 404.44 297.193 404.643 297.319C404.846 297.445 405.007 297.628 405.106 297.845C405.205 298.063 405.238 298.304 405.2 298.54Z" fill="#5C5C5C"/>
<path d="M436.63 250.96C436.669 250.721 436.778 250.5 436.943 250.323C437.108 250.147 437.322 250.024 437.557 249.969C437.792 249.914 438.039 249.93 438.265 250.016C438.491 250.101 438.686 250.251 438.827 250.448C438.967 250.644 439.046 250.878 439.053 251.12C439.061 251.361 438.996 251.6 438.868 251.804C438.74 252.009 438.554 252.171 438.333 252.27C438.113 252.369 437.868 252.4 437.63 252.36C437.312 252.306 437.029 252.128 436.841 251.866C436.654 251.604 436.578 251.278 436.63 250.96Z" fill="#5C5C5C"/>
<path d="M437.81 243.98C437.849 243.742 437.958 243.52 438.123 243.344C438.288 243.167 438.502 243.044 438.737 242.989C438.972 242.934 439.219 242.95 439.445 243.036C439.671 243.121 439.866 243.271 440.007 243.468C440.147 243.665 440.226 243.898 440.233 244.14C440.241 244.381 440.176 244.619 440.048 244.824C439.92 245.029 439.734 245.191 439.513 245.29C439.293 245.389 439.048 245.42 438.81 245.38C438.492 245.326 438.209 245.149 438.021 244.886C437.834 244.624 437.758 244.298 437.81 243.98Z" fill="#5C5C5C"/>
<path d="M432.57 246.68C432.595 246.522 432.652 246.371 432.736 246.235C432.821 246.099 432.931 245.981 433.061 245.888C433.191 245.795 433.339 245.729 433.495 245.693C433.651 245.657 433.812 245.653 433.97 245.68C434.205 245.721 434.423 245.83 434.597 245.994C434.77 246.158 434.891 246.37 434.944 246.603C434.997 246.835 434.981 247.079 434.896 247.302C434.811 247.525 434.662 247.718 434.468 247.857C434.274 247.996 434.043 248.074 433.804 248.082C433.565 248.09 433.33 248.027 433.127 247.901C432.924 247.775 432.763 247.592 432.664 247.375C432.565 247.157 432.532 246.916 432.57 246.68Z" fill="#5C5C5C"/>
<path d="M428.45 249.61C428.49 249.375 428.6 249.157 428.764 248.983C428.928 248.81 429.14 248.689 429.373 248.636C429.605 248.583 429.849 248.6 430.072 248.684C430.295 248.769 430.488 248.918 430.627 249.112C430.766 249.307 430.844 249.537 430.852 249.776C430.86 250.015 430.797 250.25 430.671 250.453C430.545 250.656 430.362 250.817 430.145 250.916C429.927 251.016 429.686 251.048 429.45 251.01C429.292 250.984 429.141 250.928 429.005 250.844C428.869 250.759 428.751 250.649 428.658 250.519C428.565 250.389 428.499 250.241 428.463 250.085C428.427 249.929 428.423 249.768 428.45 249.61Z" fill="#5C5C5C"/>
<path d="M439 237.01C439.04 236.775 439.15 236.557 439.314 236.383C439.478 236.21 439.69 236.089 439.923 236.036C440.155 235.983 440.399 235.999 440.622 236.084C440.845 236.169 441.038 236.318 441.177 236.512C441.316 236.706 441.394 236.937 441.402 237.176C441.41 237.415 441.347 237.65 441.221 237.853C441.095 238.056 440.912 238.217 440.695 238.316C440.477 238.415 440.236 238.448 440 238.41C439.842 238.385 439.691 238.328 439.555 238.244C439.419 238.159 439.301 238.049 439.208 237.919C439.115 237.788 439.049 237.641 439.013 237.485C438.977 237.329 438.973 237.168 439 237.01Z" fill="#5C5C5C"/>
<path d="M416.84 247.6C416.865 247.442 416.922 247.291 417.006 247.155C417.091 247.019 417.201 246.901 417.331 246.808C417.462 246.715 417.609 246.649 417.765 246.613C417.921 246.577 418.082 246.573 418.24 246.6C418.475 246.641 418.693 246.75 418.867 246.914C419.04 247.078 419.161 247.29 419.214 247.523C419.267 247.755 419.251 247.999 419.166 248.222C419.081 248.445 418.932 248.638 418.738 248.777C418.544 248.916 418.313 248.994 418.074 249.002C417.835 249.01 417.6 248.947 417.397 248.821C417.194 248.695 417.033 248.512 416.934 248.295C416.835 248.077 416.802 247.836 416.84 247.6Z" fill="#5C5C5C"/>
<path d="M418.02 240.62C418.061 240.382 418.171 240.162 418.337 239.988C418.503 239.813 418.717 239.691 418.952 239.637C419.187 239.584 419.433 239.601 419.658 239.687C419.883 239.774 420.078 239.925 420.217 240.121C420.357 240.318 420.435 240.551 420.442 240.792C420.449 241.033 420.384 241.271 420.256 241.475C420.128 241.68 419.942 241.841 419.722 241.94C419.502 242.039 419.258 242.07 419.02 242.03C418.701 241.974 418.418 241.794 418.231 241.531C418.043 241.267 417.968 240.939 418.02 240.62Z" fill="#5C5C5C"/>
<path d="M413.37 239.87C413.409 239.632 413.518 239.41 413.683 239.234C413.848 239.057 414.062 238.934 414.297 238.879C414.532 238.824 414.779 238.84 415.005 238.926C415.231 239.011 415.426 239.161 415.567 239.358C415.707 239.555 415.786 239.788 415.793 240.03C415.801 240.271 415.736 240.51 415.608 240.714C415.48 240.919 415.294 241.081 415.073 241.18C414.853 241.279 414.608 241.31 414.37 241.27C414.212 241.244 414.061 241.188 413.925 241.104C413.789 241.019 413.671 240.909 413.578 240.779C413.485 240.648 413.419 240.501 413.383 240.345C413.347 240.189 413.343 240.028 413.37 239.87Z" fill="#5C5C5C"/>
<path d="M408.75 239.05C408.789 238.811 408.898 238.59 409.063 238.413C409.228 238.237 409.442 238.114 409.677 238.059C409.912 238.004 410.159 238.02 410.385 238.105C410.611 238.191 410.806 238.341 410.947 238.538C411.087 238.734 411.166 238.968 411.173 239.21C411.181 239.451 411.116 239.689 410.988 239.894C410.86 240.099 410.674 240.261 410.453 240.36C410.233 240.459 409.988 240.49 409.75 240.45C409.592 240.424 409.441 240.368 409.305 240.283C409.169 240.199 409.051 240.089 408.958 239.958C408.865 239.828 408.799 239.681 408.763 239.525C408.727 239.369 408.723 239.207 408.75 239.05Z" fill="#5C5C5C"/>
<path d="M419.21 233.65C419.264 233.332 419.441 233.048 419.704 232.861C419.966 232.674 420.292 232.598 420.61 232.65C420.848 232.689 421.07 232.798 421.246 232.963C421.423 233.128 421.546 233.342 421.601 233.577C421.656 233.812 421.64 234.058 421.554 234.284C421.469 234.51 421.318 234.706 421.122 234.847C420.925 234.987 420.691 235.066 420.45 235.073C420.209 235.081 419.97 235.016 419.765 234.888C419.561 234.76 419.399 234.574 419.3 234.353C419.201 234.133 419.17 233.888 419.21 233.65Z" fill="#5C5C5C"/>
<path d="M379.75 241.3C379.789 241.061 379.898 240.84 380.063 240.663C380.228 240.487 380.442 240.364 380.677 240.309C380.912 240.254 381.159 240.27 381.385 240.355C381.611 240.441 381.806 240.591 381.947 240.788C382.087 240.984 382.166 241.218 382.173 241.46C382.181 241.701 382.116 241.939 381.988 242.144C381.86 242.349 381.674 242.511 381.453 242.61C381.233 242.709 380.988 242.74 380.75 242.7C380.432 242.646 380.149 242.468 379.961 242.206C379.774 241.944 379.698 241.618 379.75 241.3Z" fill="#5C5C5C"/>
<path d="M380.88 234.32C380.952 234.019 381.136 233.756 381.394 233.586C381.653 233.415 381.967 233.349 382.272 233.401C382.577 233.453 382.851 233.62 383.039 233.867C383.226 234.113 383.312 234.422 383.28 234.73C383.263 234.896 383.212 235.057 383.13 235.202C383.048 235.348 382.937 235.475 382.804 235.576C382.671 235.677 382.519 235.749 382.356 235.789C382.194 235.829 382.026 235.835 381.861 235.806C381.696 235.778 381.54 235.717 381.4 235.626C381.26 235.534 381.14 235.415 381.048 235.276C380.956 235.137 380.894 234.98 380.865 234.816C380.836 234.651 380.841 234.483 380.88 234.32Z" fill="#5C5C5C"/>
<path d="M371.58 232.74C371.652 232.439 371.836 232.176 372.094 232.005C372.353 231.835 372.667 231.769 372.972 231.821C373.277 231.873 373.551 232.04 373.738 232.286C373.926 232.533 374.012 232.842 373.98 233.15C373.963 233.316 373.911 233.477 373.83 233.622C373.748 233.768 373.637 233.895 373.504 233.996C373.371 234.097 373.219 234.169 373.056 234.209C372.894 234.249 372.726 234.254 372.561 234.226C372.397 234.198 372.239 234.137 372.1 234.045C371.96 233.954 371.84 233.835 371.748 233.696C371.656 233.557 371.594 233.4 371.565 233.235C371.536 233.071 371.541 232.902 371.58 232.74Z" fill="#5C5C5C"/>
<path d="M375.05 240.51C375.077 240.353 375.134 240.203 375.219 240.068C375.304 239.933 375.415 239.817 375.545 239.725C375.675 239.633 375.822 239.568 375.977 239.533C376.132 239.497 376.293 239.493 376.45 239.52C376.607 239.547 376.757 239.604 376.892 239.689C377.026 239.774 377.143 239.885 377.235 240.015C377.327 240.145 377.392 240.292 377.428 240.447C377.463 240.602 377.467 240.763 377.44 240.92C377.386 241.237 377.208 241.519 376.945 241.705C376.683 241.891 376.357 241.964 376.04 241.91C375.723 241.856 375.441 241.677 375.255 241.415C375.069 241.152 374.996 240.827 375.05 240.51Z" fill="#5C5C5C"/>
<path d="M382.07 227.35C382.11 227.114 382.22 226.896 382.384 226.723C382.548 226.55 382.76 226.429 382.993 226.376C383.225 226.322 383.469 226.339 383.692 226.424C383.915 226.509 384.108 226.658 384.247 226.852C384.386 227.046 384.464 227.277 384.472 227.516C384.48 227.754 384.417 227.99 384.291 228.193C384.165 228.396 383.982 228.557 383.765 228.656C383.547 228.755 383.306 228.788 383.07 228.75C382.912 228.724 382.761 228.668 382.625 228.583C382.489 228.499 382.371 228.389 382.278 228.258C382.185 228.128 382.119 227.981 382.083 227.825C382.047 227.669 382.043 227.507 382.07 227.35Z" fill="#5C5C5C"/>
<path d="M395.49 243.98C395.507 243.814 395.558 243.653 395.64 243.508C395.722 243.362 395.833 243.235 395.966 243.134C396.099 243.033 396.251 242.961 396.414 242.921C396.576 242.882 396.744 242.876 396.909 242.904C397.073 242.932 397.23 242.993 397.37 243.085C397.51 243.176 397.63 243.295 397.722 243.434C397.813 243.573 397.876 243.73 397.905 243.895C397.934 244.059 397.929 244.228 397.89 244.39C397.818 244.691 397.634 244.954 397.376 245.124C397.117 245.295 396.803 245.361 396.498 245.309C396.193 245.257 395.919 245.09 395.731 244.844C395.544 244.597 395.458 244.288 395.49 243.98Z" fill="#5C5C5C"/>
<path d="M390.84 243.19C390.857 243.024 390.908 242.863 390.99 242.718C391.072 242.572 391.183 242.445 391.316 242.344C391.449 242.243 391.601 242.171 391.764 242.131C391.926 242.092 392.094 242.085 392.259 242.114C392.423 242.142 392.58 242.203 392.72 242.294C392.86 242.386 392.98 242.505 393.072 242.644C393.164 242.783 393.226 242.94 393.255 243.105C393.284 243.269 393.279 243.438 393.24 243.6C393.168 243.901 392.984 244.164 392.726 244.334C392.467 244.505 392.153 244.571 391.848 244.519C391.543 244.467 391.269 244.3 391.081 244.054C390.894 243.807 390.808 243.498 390.84 243.19Z" fill="#5C5C5C"/>
<path d="M396.68 237C396.707 236.843 396.764 236.693 396.849 236.558C396.934 236.424 397.045 236.307 397.175 236.215C397.305 236.123 397.452 236.058 397.607 236.023C397.762 235.988 397.923 235.983 398.08 236.01C398.237 236.037 398.387 236.095 398.522 236.179C398.656 236.264 398.773 236.375 398.865 236.505C398.957 236.635 399.022 236.782 399.058 236.937C399.093 237.093 399.097 237.253 399.07 237.41C399.043 237.567 398.986 237.717 398.901 237.852C398.816 237.987 398.705 238.103 398.575 238.195C398.445 238.287 398.298 238.353 398.143 238.388C397.988 238.423 397.827 238.427 397.67 238.4C397.513 238.373 397.363 238.316 397.228 238.231C397.094 238.146 396.977 238.035 396.885 237.905C396.793 237.775 396.728 237.628 396.693 237.473C396.657 237.318 396.653 237.157 396.68 237Z" fill="#5C5C5C"/>
<path d="M392.03 236.21C392.072 235.975 392.183 235.759 392.348 235.587C392.513 235.415 392.725 235.296 392.958 235.244C393.19 235.192 393.433 235.21 393.655 235.296C393.878 235.381 394.07 235.531 394.208 235.725C394.345 235.919 394.423 236.15 394.43 236.388C394.437 236.626 394.374 236.861 394.248 237.064C394.123 237.266 393.94 237.427 393.723 237.526C393.506 237.624 393.265 237.657 393.03 237.62C392.871 237.594 392.719 237.538 392.582 237.453C392.445 237.368 392.327 237.256 392.234 237.125C392.141 236.994 392.075 236.845 392.04 236.688C392.005 236.531 392.001 236.368 392.03 236.21Z" fill="#5C5C5C"/>
<path d="M397.86 230.03C397.899 229.792 398.008 229.57 398.173 229.394C398.338 229.217 398.552 229.094 398.787 229.039C399.022 228.984 399.269 229.001 399.495 229.086C399.721 229.171 399.916 229.322 400.057 229.518C400.197 229.715 400.276 229.949 400.283 230.19C400.291 230.432 400.226 230.67 400.098 230.875C399.97 231.079 399.784 231.241 399.563 231.34C399.343 231.439 399.098 231.471 398.86 231.43C398.702 231.405 398.551 231.348 398.415 231.264C398.279 231.18 398.161 231.069 398.068 230.939C397.975 230.809 397.909 230.661 397.873 230.505C397.837 230.349 397.833 230.188 397.86 230.03Z" fill="#5C5C5C"/>
<path d="M391.82 255.36C391.766 255.677 391.588 255.959 391.325 256.145C391.063 256.33 390.737 256.404 390.42 256.35C390.103 256.295 389.821 256.117 389.635 255.855C389.449 255.592 389.376 255.267 389.43 254.95C389.457 254.793 389.514 254.643 389.599 254.508C389.684 254.373 389.795 254.257 389.925 254.165C390.055 254.073 390.202 254.007 390.357 253.972C390.512 253.937 390.673 253.933 390.83 253.96C390.987 253.987 391.137 254.044 391.272 254.129C391.406 254.214 391.523 254.325 391.615 254.455C391.707 254.585 391.772 254.732 391.808 254.887C391.843 255.042 391.847 255.203 391.82 255.36Z" fill="#5C5C5C"/>
<path d="M390.64 262.33C390.601 262.569 390.492 262.79 390.327 262.966C390.162 263.143 389.948 263.266 389.713 263.321C389.478 263.376 389.231 263.36 389.005 263.275C388.779 263.189 388.584 263.039 388.443 262.842C388.303 262.646 388.224 262.412 388.217 262.17C388.209 261.929 388.274 261.69 388.402 261.486C388.53 261.281 388.716 261.119 388.936 261.02C389.157 260.921 389.402 260.89 389.64 260.93C389.798 260.956 389.949 261.012 390.085 261.097C390.221 261.181 390.339 261.291 390.432 261.421C390.525 261.552 390.591 261.699 390.627 261.855C390.663 262.011 390.667 262.173 390.64 262.33Z" fill="#5C5C5C"/>
<path d="M395.88 259.64C395.808 259.941 395.624 260.204 395.366 260.374C395.107 260.545 394.793 260.611 394.488 260.559C394.183 260.507 393.909 260.34 393.721 260.094C393.534 259.847 393.448 259.538 393.48 259.23C393.539 258.913 393.719 258.63 393.982 258.444C394.245 258.257 394.571 258.18 394.89 258.23C395.048 258.257 395.199 258.314 395.335 258.4C395.47 258.485 395.588 258.597 395.68 258.728C395.772 258.859 395.837 259.007 395.871 259.164C395.906 259.32 395.909 259.482 395.88 259.64Z" fill="#5C5C5C"/>
<path d="M400.01 256.71C399.971 256.949 399.862 257.17 399.697 257.346C399.532 257.523 399.318 257.646 399.083 257.701C398.848 257.756 398.601 257.74 398.375 257.654C398.149 257.569 397.954 257.419 397.813 257.222C397.673 257.026 397.594 256.792 397.587 256.55C397.579 256.309 397.644 256.071 397.772 255.866C397.9 255.661 398.086 255.499 398.307 255.4C398.527 255.301 398.772 255.27 399.01 255.31C399.328 255.364 399.611 255.542 399.799 255.804C399.986 256.066 400.062 256.392 400.01 256.71Z" fill="#5C5C5C"/>
<path d="M389.46 269.31C389.404 269.629 389.224 269.912 388.96 270.1C388.696 270.287 388.369 270.362 388.05 270.31C387.812 270.269 387.592 270.159 387.417 269.993C387.242 269.827 387.12 269.613 387.067 269.378C387.014 269.143 387.031 268.897 387.117 268.672C387.204 268.447 387.354 268.252 387.551 268.113C387.748 267.973 387.981 267.895 388.222 267.888C388.463 267.881 388.701 267.946 388.905 268.074C389.109 268.202 389.271 268.388 389.37 268.608C389.469 268.828 389.5 269.072 389.46 269.31Z" fill="#5C5C5C"/>
<path d="M407.96 258.06C407.935 258.218 407.878 258.369 407.794 258.505C407.709 258.641 407.599 258.759 407.469 258.852C407.339 258.945 407.191 259.011 407.035 259.047C406.879 259.083 406.718 259.087 406.56 259.06C406.242 259.006 405.959 258.829 405.771 258.566C405.584 258.304 405.508 257.978 405.56 257.66C405.632 257.359 405.816 257.096 406.075 256.925C406.333 256.755 406.647 256.689 406.952 256.741C407.257 256.793 407.531 256.96 407.719 257.206C407.906 257.453 407.992 257.762 407.96 258.07V258.06Z" fill="#5C5C5C"/>
<path d="M406.75 265.04C406.709 265.278 406.599 265.498 406.433 265.673C406.267 265.848 406.053 265.97 405.818 266.023C405.583 266.076 405.337 266.059 405.112 265.973C404.887 265.887 404.692 265.736 404.552 265.539C404.413 265.342 404.335 265.109 404.328 264.868C404.321 264.627 404.386 264.389 404.514 264.185C404.642 263.981 404.828 263.819 405.048 263.72C405.268 263.622 405.512 263.59 405.75 263.63C405.908 263.657 406.06 263.715 406.196 263.8C406.332 263.885 406.45 263.996 406.543 264.127C406.636 264.258 406.702 264.407 406.737 264.563C406.773 264.72 406.777 264.882 406.75 265.04Z" fill="#5C5C5C"/>
<path d="M411.43 265.87C411.391 266.109 411.282 266.33 411.117 266.506C410.952 266.683 410.738 266.806 410.503 266.861C410.268 266.916 410.021 266.9 409.795 266.815C409.569 266.729 409.374 266.579 409.233 266.382C409.093 266.186 409.014 265.952 409.007 265.71C408.999 265.469 409.064 265.231 409.192 265.026C409.32 264.821 409.506 264.659 409.727 264.56C409.947 264.461 410.192 264.43 410.43 264.47C410.748 264.524 411.031 264.702 411.219 264.964C411.406 265.226 411.482 265.552 411.43 265.87Z" fill="#5C5C5C"/>
<path d="M416.08 266.61C416.041 266.848 415.932 267.07 415.767 267.246C415.602 267.423 415.388 267.546 415.153 267.601C414.918 267.656 414.671 267.64 414.445 267.554C414.219 267.469 414.024 267.319 413.883 267.122C413.743 266.925 413.664 266.692 413.657 266.45C413.649 266.209 413.714 265.97 413.842 265.765C413.97 265.561 414.156 265.399 414.377 265.3C414.597 265.201 414.842 265.17 415.08 265.21C415.238 265.236 415.389 265.292 415.525 265.376C415.661 265.461 415.779 265.571 415.872 265.701C415.965 265.831 416.031 265.979 416.067 266.135C416.103 266.291 416.107 266.452 416.08 266.61Z" fill="#5C5C5C"/>
<path d="M405.59 272.01C405.551 272.248 405.442 272.47 405.277 272.646C405.112 272.823 404.898 272.946 404.663 273.001C404.428 273.056 404.181 273.039 403.955 272.954C403.729 272.869 403.534 272.718 403.393 272.522C403.253 272.325 403.174 272.091 403.167 271.85C403.159 271.608 403.224 271.37 403.352 271.166C403.48 270.961 403.666 270.799 403.887 270.7C404.107 270.601 404.352 270.57 404.59 270.61C404.908 270.664 405.191 270.841 405.379 271.104C405.566 271.366 405.642 271.692 405.59 272.01Z" fill="#5C5C5C"/>
<path d="M370.82 251.76C370.779 251.997 370.669 252.218 370.503 252.393C370.337 252.568 370.123 252.689 369.888 252.743C369.653 252.796 369.407 252.779 369.182 252.692C368.957 252.606 368.762 252.456 368.623 252.259C368.483 252.062 368.405 251.828 368.398 251.587C368.391 251.346 368.456 251.109 368.584 250.905C368.712 250.7 368.898 250.539 369.118 250.44C369.338 250.341 369.582 250.31 369.82 250.35C369.979 250.375 370.131 250.432 370.268 250.517C370.405 250.602 370.523 250.713 370.616 250.845C370.709 250.976 370.775 251.125 370.81 251.282C370.845 251.439 370.849 251.601 370.82 251.76Z" fill="#5C5C5C"/>
<path d="M369.64 258.73C369.601 258.969 369.492 259.19 369.327 259.367C369.162 259.543 368.948 259.666 368.713 259.721C368.478 259.776 368.231 259.76 368.005 259.674C367.779 259.589 367.584 259.439 367.443 259.242C367.303 259.045 367.224 258.812 367.217 258.57C367.209 258.329 367.274 258.091 367.402 257.886C367.53 257.681 367.716 257.519 367.936 257.42C368.157 257.321 368.402 257.29 368.64 257.33C368.958 257.384 369.241 257.561 369.429 257.824C369.616 258.086 369.692 258.412 369.64 258.73Z" fill="#5C5C5C"/>
<path d="M378.94 260.31C378.901 260.549 378.792 260.77 378.627 260.946C378.462 261.123 378.248 261.246 378.013 261.301C377.778 261.356 377.531 261.34 377.305 261.255C377.079 261.169 376.884 261.019 376.743 260.822C376.603 260.626 376.524 260.392 376.517 260.15C376.509 259.909 376.574 259.67 376.702 259.466C376.83 259.261 377.016 259.099 377.237 259C377.457 258.901 377.702 258.87 377.94 258.91C378.258 258.964 378.541 259.142 378.729 259.404C378.916 259.666 378.992 259.992 378.94 260.31Z" fill="#5C5C5C"/>
<path d="M375.47 252.55C375.398 252.851 375.214 253.114 374.956 253.285C374.697 253.455 374.383 253.521 374.078 253.469C373.773 253.417 373.499 253.251 373.311 253.004C373.124 252.757 373.038 252.448 373.07 252.14C373.087 251.974 373.138 251.813 373.22 251.668C373.302 251.523 373.413 251.395 373.546 251.294C373.679 251.194 373.831 251.121 373.994 251.081C374.156 251.042 374.324 251.036 374.489 251.064C374.653 251.092 374.81 251.154 374.95 251.245C375.09 251.336 375.21 251.455 375.302 251.594C375.394 251.734 375.456 251.89 375.485 252.055C375.514 252.219 375.509 252.388 375.47 252.55Z" fill="#5C5C5C"/>
<path d="M368.45 265.71C368.411 265.949 368.302 266.17 368.137 266.346C367.972 266.523 367.758 266.646 367.523 266.701C367.288 266.756 367.041 266.74 366.815 266.654C366.589 266.569 366.394 266.419 366.253 266.222C366.113 266.026 366.034 265.792 366.027 265.55C366.019 265.309 366.084 265.071 366.212 264.866C366.34 264.661 366.526 264.499 366.747 264.4C366.967 264.301 367.212 264.27 367.45 264.31C367.768 264.364 368.051 264.542 368.239 264.804C368.426 265.066 368.502 265.392 368.45 265.71Z" fill="#5C5C5C"/>
<path d="M432.29 276.54C432.316 276.382 432.372 276.231 432.456 276.095C432.541 275.959 432.651 275.841 432.781 275.748C432.911 275.655 433.059 275.589 433.215 275.553C433.371 275.517 433.532 275.513 433.69 275.54C433.925 275.581 434.143 275.69 434.317 275.854C434.49 276.018 434.611 276.23 434.664 276.463C434.717 276.696 434.701 276.939 434.616 277.162C434.531 277.385 434.382 277.578 434.188 277.717C433.994 277.856 433.763 277.934 433.524 277.942C433.285 277.95 433.05 277.887 432.847 277.761C432.644 277.635 432.483 277.452 432.384 277.235C432.285 277.017 432.252 276.776 432.29 276.54Z" fill="#5C5C5C"/>
<path d="M427.64 275.75C427.681 275.514 427.79 275.297 427.954 275.123C428.118 274.95 428.33 274.829 428.563 274.776C428.795 274.722 429.039 274.739 429.262 274.824C429.485 274.909 429.678 275.058 429.817 275.252C429.956 275.446 430.034 275.677 430.042 275.916C430.049 276.154 429.987 276.39 429.861 276.593C429.735 276.796 429.552 276.957 429.335 277.056C429.117 277.155 428.876 277.188 428.64 277.15C428.482 277.124 428.331 277.068 428.195 276.984C428.059 276.899 427.941 276.789 427.848 276.659C427.755 276.528 427.689 276.381 427.653 276.225C427.617 276.069 427.613 275.907 427.64 275.75Z" fill="#5C5C5C"/>
<path d="M433.47 269.56C433.511 269.322 433.621 269.102 433.787 268.927C433.953 268.752 434.167 268.631 434.402 268.577C434.637 268.524 434.883 268.541 435.108 268.627C435.333 268.713 435.528 268.864 435.667 269.061C435.807 269.258 435.885 269.491 435.892 269.732C435.899 269.973 435.834 270.211 435.706 270.415C435.578 270.619 435.392 270.781 435.172 270.88C434.952 270.978 434.708 271.01 434.47 270.97C434.311 270.945 434.159 270.888 434.022 270.803C433.885 270.718 433.767 270.606 433.674 270.475C433.581 270.344 433.515 270.195 433.48 270.038C433.445 269.881 433.441 269.718 433.47 269.56Z" fill="#5C5C5C"/>
<path d="M428.82 268.78C428.859 268.542 428.968 268.32 429.133 268.144C429.298 267.967 429.512 267.844 429.747 267.789C429.982 267.734 430.229 267.751 430.455 267.836C430.681 267.921 430.876 268.072 431.017 268.268C431.157 268.465 431.236 268.699 431.243 268.94C431.251 269.182 431.186 269.42 431.058 269.625C430.93 269.829 430.744 269.991 430.523 270.09C430.303 270.189 430.058 270.221 429.82 270.18C429.662 270.155 429.511 270.098 429.375 270.014C429.239 269.93 429.121 269.819 429.028 269.689C428.935 269.559 428.869 269.411 428.833 269.255C428.797 269.099 428.793 268.938 428.82 268.78Z" fill="#5C5C5C"/>
<path d="M434.66 262.59C434.714 262.272 434.891 261.988 435.154 261.801C435.416 261.614 435.742 261.538 436.06 261.59C436.298 261.629 436.52 261.738 436.696 261.903C436.873 262.068 436.996 262.281 437.051 262.517C437.106 262.752 437.09 262.999 437.004 263.225C436.919 263.451 436.768 263.646 436.572 263.787C436.375 263.927 436.141 264.006 435.9 264.013C435.659 264.02 435.42 263.956 435.216 263.828C435.011 263.7 434.849 263.514 434.75 263.293C434.651 263.073 434.62 262.828 434.66 262.59Z" fill="#5C5C5C"/>
<path d="M339.75 287.4C339.791 287.162 339.901 286.942 340.067 286.767C340.233 286.592 340.447 286.47 340.682 286.417C340.917 286.364 341.163 286.381 341.388 286.467C341.613 286.553 341.808 286.704 341.948 286.901C342.087 287.098 342.165 287.331 342.172 287.572C342.179 287.813 342.114 288.051 341.986 288.255C341.858 288.459 341.672 288.621 341.452 288.72C341.232 288.818 340.988 288.85 340.75 288.81C340.431 288.754 340.148 288.574 339.961 288.31C339.773 288.046 339.698 287.719 339.75 287.4Z" fill="#5C5C5C"/>
<path d="M340.98 280.43C341.02 280.195 341.13 279.977 341.294 279.803C341.458 279.63 341.67 279.509 341.903 279.456C342.135 279.403 342.379 279.419 342.602 279.504C342.825 279.589 343.018 279.738 343.157 279.932C343.296 280.126 343.374 280.357 343.382 280.596C343.39 280.835 343.326 281.07 343.201 281.273C343.075 281.476 342.892 281.637 342.675 281.736C342.457 281.835 342.216 281.868 341.98 281.83C341.822 281.804 341.671 281.748 341.535 281.664C341.399 281.579 341.281 281.469 341.188 281.339C341.095 281.208 341.029 281.061 340.993 280.905C340.957 280.749 340.953 280.588 340.98 280.43Z" fill="#5C5C5C"/>
<path d="M335.75 283.13C335.789 282.891 335.898 282.67 336.063 282.494C336.228 282.317 336.442 282.194 336.677 282.139C336.912 282.084 337.159 282.1 337.385 282.185C337.611 282.271 337.806 282.421 337.947 282.618C338.087 282.814 338.166 283.048 338.173 283.29C338.181 283.531 338.116 283.769 337.988 283.974C337.86 284.179 337.674 284.341 337.453 284.44C337.233 284.539 336.988 284.57 336.75 284.53C336.432 284.476 336.149 284.298 335.961 284.036C335.774 283.774 335.698 283.448 335.75 283.13Z" fill="#5C5C5C"/>
<path d="M331.61 286.05C331.635 285.892 331.692 285.74 331.776 285.604C331.861 285.468 331.971 285.351 332.101 285.258C332.231 285.165 332.379 285.098 332.535 285.063C332.691 285.027 332.852 285.023 333.01 285.05C333.248 285.089 333.47 285.198 333.646 285.363C333.823 285.528 333.946 285.742 334.001 285.977C334.056 286.212 334.039 286.459 333.954 286.685C333.869 286.911 333.719 287.106 333.522 287.247C333.325 287.387 333.091 287.466 332.85 287.473C332.608 287.481 332.37 287.416 332.165 287.288C331.961 287.16 331.799 286.974 331.7 286.753C331.601 286.533 331.57 286.288 331.61 286.05Z" fill="#5C5C5C"/>
<path d="M342.16 273.45C342.199 273.212 342.308 272.99 342.473 272.814C342.638 272.637 342.852 272.514 343.087 272.459C343.322 272.404 343.569 272.42 343.795 272.506C344.021 272.591 344.216 272.742 344.357 272.938C344.497 273.135 344.576 273.369 344.583 273.61C344.591 273.851 344.526 274.09 344.398 274.295C344.27 274.499 344.084 274.661 343.863 274.76C343.643 274.859 343.398 274.89 343.16 274.85C342.842 274.796 342.559 274.619 342.371 274.356C342.184 274.094 342.108 273.768 342.16 273.45Z" fill="#5C5C5C"/>
<path d="M320 284.05C320.039 283.811 320.148 283.59 320.313 283.413C320.478 283.237 320.692 283.114 320.927 283.059C321.162 283.004 321.409 283.02 321.635 283.105C321.861 283.191 322.056 283.341 322.197 283.538C322.337 283.734 322.416 283.968 322.423 284.21C322.431 284.451 322.366 284.689 322.238 284.894C322.11 285.099 321.924 285.261 321.703 285.36C321.483 285.459 321.238 285.49 321 285.45C320.682 285.396 320.399 285.218 320.211 284.956C320.024 284.694 319.948 284.368 320 284.05Z" fill="#5C5C5C"/>
<path d="M321.19 277.07C321.23 276.835 321.34 276.617 321.504 276.443C321.668 276.27 321.88 276.149 322.113 276.096C322.345 276.043 322.589 276.059 322.812 276.144C323.035 276.229 323.228 276.378 323.367 276.572C323.506 276.766 323.584 276.997 323.592 277.236C323.6 277.475 323.537 277.71 323.411 277.913C323.285 278.116 323.102 278.277 322.885 278.376C322.667 278.475 322.426 278.508 322.19 278.47C322.032 278.445 321.881 278.388 321.745 278.304C321.609 278.219 321.491 278.109 321.398 277.979C321.305 277.848 321.239 277.701 321.203 277.545C321.167 277.389 321.163 277.228 321.19 277.07Z" fill="#5C5C5C"/>
<path d="M316.53 276.28C316.589 275.962 316.769 275.68 317.032 275.494C317.295 275.307 317.621 275.23 317.94 275.28C318.178 275.321 318.398 275.431 318.573 275.597C318.748 275.763 318.87 275.977 318.923 276.212C318.976 276.447 318.959 276.693 318.873 276.918C318.786 277.143 318.636 277.338 318.439 277.477C318.242 277.617 318.009 277.695 317.768 277.702C317.527 277.709 317.289 277.644 317.085 277.516C316.881 277.388 316.719 277.202 316.62 276.982C316.521 276.762 316.49 276.518 316.53 276.28Z" fill="#5C5C5C"/>
<path d="M311.88 275.49C311.897 275.324 311.948 275.163 312.03 275.018C312.112 274.872 312.223 274.745 312.356 274.645C312.489 274.544 312.641 274.471 312.804 274.431C312.966 274.392 313.134 274.386 313.299 274.414C313.463 274.442 313.62 274.504 313.76 274.595C313.9 274.686 314.02 274.805 314.112 274.944C314.204 275.084 314.266 275.24 314.295 275.405C314.324 275.569 314.319 275.738 314.28 275.9C314.208 276.201 314.024 276.464 313.765 276.635C313.507 276.805 313.193 276.871 312.888 276.819C312.583 276.767 312.309 276.601 312.121 276.354C311.934 276.107 311.848 275.798 311.88 275.49Z" fill="#5C5C5C"/>
<path d="M322.37 270.09C322.409 269.851 322.518 269.63 322.683 269.453C322.848 269.277 323.062 269.154 323.297 269.099C323.532 269.044 323.779 269.06 324.005 269.145C324.231 269.231 324.426 269.381 324.567 269.578C324.707 269.774 324.786 270.008 324.793 270.25C324.801 270.491 324.736 270.729 324.608 270.934C324.48 271.139 324.294 271.301 324.073 271.4C323.853 271.499 323.608 271.53 323.37 271.49C323.212 271.464 323.061 271.408 322.925 271.323C322.789 271.239 322.671 271.129 322.578 270.998C322.485 270.868 322.419 270.721 322.383 270.565C322.347 270.409 322.343 270.247 322.37 270.09Z" fill="#5C5C5C"/>
<path d="M282.86 277.74C282.901 277.503 283.011 277.282 283.177 277.107C283.343 276.932 283.557 276.811 283.792 276.757C284.027 276.704 284.273 276.721 284.498 276.808C284.723 276.894 284.918 277.045 285.058 277.241C285.197 277.438 285.275 277.671 285.282 277.912C285.289 278.153 285.224 278.391 285.096 278.595C284.968 278.799 284.782 278.961 284.562 279.06C284.342 279.159 284.098 279.19 283.86 279.15C283.541 279.094 283.258 278.914 283.071 278.65C282.883 278.386 282.808 278.06 282.86 277.74Z" fill="#5C5C5C"/>
<path d="M284.05 270.77C284.091 270.534 284.2 270.317 284.364 270.143C284.528 269.97 284.74 269.849 284.973 269.796C285.205 269.742 285.449 269.759 285.672 269.844C285.895 269.929 286.088 270.078 286.227 270.272C286.366 270.466 286.444 270.697 286.452 270.936C286.46 271.174 286.397 271.41 286.271 271.613C286.145 271.816 285.962 271.977 285.745 272.076C285.527 272.175 285.286 272.208 285.05 272.17C284.892 272.144 284.741 272.088 284.605 272.004C284.469 271.919 284.351 271.809 284.258 271.678C284.165 271.548 284.099 271.401 284.063 271.245C284.027 271.089 284.023 270.927 284.05 270.77Z" fill="#5C5C5C"/>
<path d="M274.75 269.19C274.806 268.871 274.986 268.588 275.25 268.4C275.514 268.213 275.841 268.138 276.16 268.19C276.398 268.231 276.618 268.341 276.793 268.507C276.968 268.673 277.09 268.887 277.143 269.122C277.196 269.357 277.179 269.603 277.093 269.828C277.007 270.053 276.856 270.248 276.659 270.388C276.462 270.527 276.229 270.605 275.988 270.612C275.747 270.619 275.509 270.554 275.305 270.426C275.101 270.298 274.939 270.112 274.84 269.892C274.741 269.672 274.71 269.428 274.75 269.19Z" fill="#5C5C5C"/>
<path d="M278.21 276.95C278.251 276.713 278.361 276.492 278.527 276.317C278.693 276.142 278.907 276.021 279.142 275.967C279.377 275.914 279.623 275.931 279.848 276.018C280.073 276.104 280.268 276.254 280.407 276.451C280.547 276.648 280.625 276.882 280.632 277.123C280.639 277.364 280.574 277.601 280.446 277.805C280.318 278.01 280.132 278.171 279.912 278.27C279.692 278.369 279.448 278.4 279.21 278.36C279.051 278.335 278.899 278.278 278.762 278.193C278.625 278.108 278.507 277.997 278.414 277.865C278.321 277.734 278.255 277.585 278.22 277.428C278.185 277.271 278.181 277.109 278.21 276.95Z" fill="#5C5C5C"/>
<path d="M285.23 263.79C285.269 263.551 285.378 263.33 285.543 263.154C285.708 262.977 285.922 262.854 286.157 262.799C286.392 262.744 286.639 262.76 286.865 262.846C287.091 262.931 287.286 263.081 287.427 263.278C287.567 263.474 287.646 263.709 287.653 263.95C287.661 264.191 287.596 264.43 287.468 264.634C287.34 264.839 287.154 265.001 286.934 265.1C286.713 265.199 286.468 265.23 286.23 265.19C285.912 265.136 285.629 264.958 285.441 264.696C285.254 264.434 285.178 264.108 285.23 263.79Z" fill="#5C5C5C"/>
<path d="M298.66 280.42C298.732 280.119 298.916 279.856 299.174 279.686C299.433 279.515 299.747 279.449 300.052 279.501C300.357 279.553 300.631 279.72 300.819 279.967C301.006 280.213 301.092 280.522 301.06 280.83C301.001 281.148 300.821 281.43 300.558 281.616C300.295 281.803 299.969 281.88 299.65 281.83C299.332 281.774 299.049 281.594 298.864 281.33C298.678 281.066 298.605 280.738 298.66 280.42Z" fill="#5C5C5C"/>
<path d="M294.01 279.63C294.052 279.396 294.163 279.179 294.328 279.007C294.493 278.835 294.705 278.716 294.938 278.664C295.17 278.612 295.413 278.631 295.635 278.716C295.858 278.802 296.05 278.951 296.188 279.145C296.326 279.34 296.403 279.57 296.41 279.808C296.417 280.047 296.354 280.282 296.228 280.484C296.103 280.686 295.92 280.847 295.703 280.946C295.486 281.045 295.245 281.078 295.01 281.04C294.851 281.015 294.699 280.958 294.562 280.873C294.425 280.788 294.307 280.677 294.214 280.545C294.121 280.414 294.055 280.265 294.02 280.108C293.985 279.951 293.981 279.789 294.01 279.63Z" fill="#5C5C5C"/>
<path d="M299.84 273.45C299.879 273.212 299.988 272.99 300.153 272.814C300.318 272.637 300.532 272.514 300.767 272.459C301.002 272.404 301.249 272.42 301.475 272.506C301.701 272.591 301.896 272.742 302.037 272.938C302.177 273.135 302.256 273.369 302.263 273.61C302.271 273.851 302.206 274.09 302.078 274.295C301.95 274.499 301.764 274.661 301.543 274.76C301.323 274.859 301.078 274.89 300.84 274.85C300.682 274.825 300.531 274.768 300.395 274.684C300.259 274.599 300.141 274.489 300.048 274.359C299.955 274.229 299.889 274.081 299.853 273.925C299.817 273.769 299.813 273.608 299.84 273.45Z" fill="#5C5C5C"/>
<path d="M295.19 272.66C295.229 272.422 295.338 272.2 295.503 272.024C295.668 271.847 295.882 271.724 296.117 271.669C296.352 271.614 296.599 271.63 296.825 271.716C297.051 271.801 297.246 271.951 297.387 272.148C297.527 272.345 297.606 272.578 297.613 272.82C297.621 273.061 297.556 273.3 297.428 273.505C297.3 273.709 297.114 273.871 296.893 273.97C296.673 274.069 296.428 274.1 296.19 274.06C295.872 274.006 295.589 273.829 295.401 273.566C295.214 273.304 295.138 272.978 295.19 272.66Z" fill="#5C5C5C"/>
<path d="M301.02 266.47C301.076 266.152 301.256 265.868 301.52 265.681C301.784 265.494 302.111 265.418 302.43 265.47C302.668 265.511 302.888 265.621 303.063 265.787C303.238 265.953 303.36 266.167 303.413 266.402C303.466 266.638 303.449 266.883 303.363 267.108C303.276 267.334 303.126 267.528 302.929 267.668C302.732 267.807 302.499 267.885 302.258 267.892C302.017 267.899 301.779 267.834 301.575 267.706C301.371 267.578 301.209 267.392 301.11 267.172C301.011 266.952 300.98 266.708 301.02 266.47Z" fill="#5C5C5C"/>
<path d="M352.85 210.43C352.889 210.192 352.998 209.97 353.163 209.794C353.328 209.617 353.542 209.494 353.777 209.439C354.012 209.384 354.259 209.4 354.485 209.486C354.711 209.571 354.906 209.722 355.047 209.918C355.187 210.115 355.266 210.348 355.273 210.59C355.281 210.831 355.216 211.07 355.088 211.275C354.96 211.479 354.774 211.641 354.554 211.74C354.333 211.839 354.088 211.87 353.85 211.83C353.532 211.776 353.249 211.599 353.061 211.336C352.874 211.074 352.798 210.748 352.85 210.43Z" fill="#5C5C5C"/>
<path d="M354.04 203.45C354.079 203.212 354.188 202.99 354.353 202.814C354.518 202.637 354.732 202.514 354.967 202.459C355.202 202.404 355.449 202.42 355.675 202.506C355.901 202.591 356.096 202.742 356.237 202.938C356.377 203.135 356.456 203.369 356.463 203.61C356.471 203.851 356.406 204.09 356.278 204.295C356.15 204.499 355.964 204.661 355.743 204.76C355.523 204.859 355.278 204.89 355.04 204.85C354.882 204.825 354.731 204.768 354.595 204.684C354.459 204.599 354.341 204.489 354.248 204.359C354.155 204.229 354.089 204.081 354.053 203.925C354.017 203.769 354.013 203.608 354.04 203.45Z" fill="#5C5C5C"/>
<path d="M348.75 206.15C348.806 205.831 348.986 205.548 349.25 205.36C349.514 205.173 349.841 205.098 350.16 205.15C350.398 205.191 350.618 205.301 350.793 205.467C350.968 205.633 351.09 205.847 351.143 206.082C351.196 206.317 351.179 206.563 351.093 206.788C351.007 207.013 350.856 207.208 350.659 207.347C350.462 207.487 350.229 207.565 349.988 207.572C349.747 207.579 349.509 207.514 349.305 207.386C349.101 207.258 348.939 207.072 348.84 206.852C348.741 206.632 348.71 206.388 348.75 206.15Z" fill="#5C5C5C"/>
<path d="M344.67 209.08C344.709 208.842 344.818 208.62 344.983 208.444C345.148 208.267 345.362 208.144 345.597 208.089C345.832 208.034 346.079 208.05 346.305 208.136C346.531 208.221 346.726 208.371 346.867 208.568C347.007 208.765 347.086 208.998 347.093 209.24C347.101 209.481 347.036 209.72 346.908 209.924C346.78 210.129 346.594 210.291 346.373 210.39C346.153 210.489 345.908 210.52 345.67 210.48C345.512 210.455 345.361 210.398 345.225 210.314C345.089 210.229 344.971 210.119 344.878 209.989C344.785 209.858 344.719 209.711 344.683 209.555C344.647 209.399 344.643 209.238 344.67 209.08Z" fill="#5C5C5C"/>
<path d="M355.22 196.47C355.259 196.232 355.368 196.01 355.533 195.834C355.698 195.657 355.912 195.534 356.147 195.479C356.382 195.424 356.629 195.44 356.855 195.526C357.081 195.611 357.276 195.762 357.417 195.958C357.557 196.155 357.636 196.389 357.643 196.63C357.651 196.871 357.586 197.11 357.458 197.314C357.33 197.519 357.144 197.681 356.923 197.78C356.703 197.879 356.458 197.91 356.22 197.87C356.062 197.845 355.911 197.788 355.775 197.704C355.639 197.619 355.521 197.509 355.428 197.379C355.335 197.249 355.269 197.101 355.233 196.945C355.197 196.789 355.193 196.628 355.22 196.47Z" fill="#5C5C5C"/>
<path d="M333.06 207.07C333.116 206.751 333.296 206.468 333.56 206.281C333.824 206.093 334.151 206.018 334.47 206.07C334.708 206.111 334.928 206.221 335.103 206.387C335.278 206.553 335.4 206.767 335.453 207.002C335.506 207.237 335.489 207.483 335.403 207.708C335.317 207.933 335.166 208.128 334.969 208.267C334.772 208.407 334.539 208.485 334.298 208.492C334.057 208.499 333.819 208.434 333.615 208.306C333.411 208.178 333.249 207.992 333.15 207.772C333.051 207.552 333.02 207.308 333.06 207.07Z" fill="#5C5C5C"/>
<path d="M334.25 200.09C334.275 199.932 334.332 199.78 334.416 199.644C334.501 199.509 334.611 199.391 334.741 199.298C334.872 199.205 335.019 199.138 335.175 199.103C335.331 199.067 335.492 199.063 335.65 199.09C335.885 199.13 336.103 199.24 336.277 199.404C336.45 199.568 336.571 199.78 336.624 200.012C336.677 200.245 336.661 200.489 336.576 200.712C336.491 200.935 336.342 201.128 336.148 201.267C335.954 201.406 335.723 201.484 335.484 201.492C335.245 201.499 335.01 201.436 334.807 201.311C334.604 201.185 334.443 201.002 334.344 200.784C334.245 200.567 334.212 200.326 334.25 200.09Z" fill="#5C5C5C"/>
<path d="M329.6 199.3C329.64 199.065 329.75 198.847 329.914 198.673C330.078 198.5 330.29 198.379 330.523 198.326C330.755 198.273 330.999 198.289 331.222 198.374C331.445 198.459 331.638 198.608 331.777 198.802C331.916 198.996 331.994 199.227 332.002 199.466C332.01 199.705 331.946 199.94 331.821 200.143C331.695 200.346 331.512 200.507 331.295 200.606C331.077 200.705 330.836 200.738 330.6 200.7C330.442 200.675 330.291 200.618 330.155 200.534C330.019 200.449 329.901 200.339 329.808 200.209C329.715 200.078 329.649 199.931 329.613 199.775C329.577 199.619 329.573 199.458 329.6 199.3Z" fill="#5C5C5C"/>
<path d="M324.94 198.51C324.981 198.272 325.091 198.052 325.257 197.877C325.423 197.703 325.637 197.581 325.872 197.527C326.107 197.474 326.353 197.491 326.578 197.578C326.803 197.664 326.998 197.815 327.137 198.011C327.277 198.208 327.355 198.441 327.362 198.682C327.369 198.923 327.304 199.161 327.176 199.365C327.048 199.569 326.862 199.731 326.642 199.83C326.422 199.929 326.178 199.96 325.94 199.92C325.622 199.862 325.341 199.681 325.154 199.418C324.967 199.155 324.89 198.829 324.94 198.51Z" fill="#5C5C5C"/>
<path d="M335.43 193.11C335.471 192.872 335.581 192.652 335.747 192.477C335.913 192.302 336.127 192.18 336.362 192.127C336.597 192.074 336.843 192.091 337.068 192.177C337.293 192.263 337.488 192.414 337.627 192.611C337.767 192.808 337.845 193.041 337.852 193.282C337.859 193.523 337.794 193.761 337.666 193.965C337.538 194.169 337.352 194.331 337.132 194.43C336.912 194.528 336.668 194.56 336.43 194.52C336.271 194.494 336.119 194.438 335.982 194.353C335.845 194.268 335.727 194.156 335.634 194.025C335.541 193.894 335.475 193.745 335.44 193.588C335.405 193.431 335.401 193.268 335.43 193.11Z" fill="#5C5C5C"/>
<path d="M295.92 200.77C295.959 200.531 296.068 200.31 296.233 200.134C296.398 199.957 296.612 199.834 296.847 199.779C297.082 199.724 297.329 199.74 297.555 199.826C297.781 199.911 297.976 200.061 298.117 200.258C298.257 200.454 298.336 200.689 298.343 200.93C298.351 201.171 298.286 201.41 298.158 201.614C298.03 201.819 297.844 201.981 297.623 202.08C297.403 202.179 297.158 202.21 296.92 202.17C296.602 202.116 296.319 201.939 296.131 201.676C295.944 201.414 295.868 201.088 295.92 200.77Z" fill="#5C5C5C"/>
<path d="M297.11 193.79C297.15 193.554 297.26 193.336 297.424 193.163C297.588 192.99 297.8 192.869 298.033 192.816C298.265 192.762 298.509 192.779 298.732 192.864C298.955 192.949 299.148 193.098 299.287 193.292C299.426 193.486 299.504 193.717 299.512 193.956C299.52 194.194 299.456 194.43 299.331 194.633C299.205 194.836 299.022 194.997 298.805 195.096C298.587 195.195 298.346 195.228 298.11 195.19C297.952 195.164 297.801 195.108 297.665 195.024C297.529 194.939 297.411 194.829 297.318 194.698C297.225 194.568 297.159 194.421 297.123 194.265C297.087 194.109 297.083 193.947 297.11 193.79Z" fill="#5C5C5C"/>
<path d="M287.8 192.21C287.839 191.971 287.948 191.75 288.113 191.573C288.278 191.397 288.492 191.274 288.727 191.219C288.962 191.164 289.209 191.18 289.435 191.266C289.661 191.351 289.856 191.501 289.997 191.698C290.137 191.894 290.216 192.128 290.223 192.37C290.231 192.611 290.166 192.85 290.038 193.054C289.91 193.259 289.724 193.421 289.503 193.52C289.283 193.619 289.038 193.65 288.8 193.61C288.482 193.556 288.199 193.378 288.011 193.116C287.824 192.854 287.748 192.528 287.8 192.21Z" fill="#5C5C5C"/>
<path d="M291.27 199.98C291.309 199.742 291.418 199.52 291.583 199.344C291.748 199.167 291.962 199.044 292.197 198.989C292.432 198.934 292.679 198.95 292.905 199.036C293.131 199.121 293.326 199.271 293.467 199.468C293.607 199.665 293.686 199.898 293.693 200.14C293.701 200.381 293.636 200.619 293.508 200.824C293.38 201.029 293.194 201.191 292.973 201.29C292.753 201.389 292.508 201.42 292.27 201.38C292.112 201.354 291.961 201.298 291.825 201.214C291.689 201.129 291.571 201.019 291.478 200.889C291.385 200.759 291.319 200.611 291.283 200.455C291.247 200.299 291.243 200.138 291.27 199.98Z" fill="#5C5C5C"/>
<path d="M298.29 186.81C298.362 186.509 298.546 186.246 298.804 186.076C299.063 185.905 299.377 185.839 299.682 185.891C299.987 185.944 300.261 186.11 300.449 186.357C300.636 186.603 300.722 186.912 300.69 187.22C300.673 187.386 300.622 187.547 300.54 187.692C300.458 187.838 300.347 187.965 300.214 188.066C300.081 188.167 299.929 188.239 299.766 188.279C299.604 188.319 299.436 188.325 299.271 188.296C299.107 188.268 298.95 188.207 298.81 188.116C298.67 188.024 298.55 187.905 298.458 187.766C298.366 187.627 298.304 187.47 298.275 187.306C298.246 187.141 298.251 186.973 298.29 186.81Z" fill="#5C5C5C"/>
<path d="M311.75 203.45C311.789 203.212 311.898 202.99 312.063 202.814C312.228 202.637 312.442 202.514 312.677 202.459C312.912 202.404 313.159 202.42 313.385 202.506C313.611 202.591 313.806 202.742 313.947 202.938C314.087 203.135 314.166 203.369 314.173 203.61C314.181 203.851 314.116 204.09 313.988 204.295C313.86 204.499 313.674 204.661 313.453 204.76C313.233 204.859 312.988 204.89 312.75 204.85C312.592 204.825 312.441 204.768 312.305 204.684C312.169 204.599 312.051 204.489 311.958 204.359C311.865 204.229 311.799 204.081 311.763 203.925C311.727 203.769 311.723 203.608 311.75 203.45Z" fill="#5C5C5C"/>
<path d="M307.07 202.66C307.11 202.425 307.22 202.206 307.384 202.033C307.548 201.86 307.76 201.739 307.993 201.686C308.225 201.632 308.469 201.649 308.692 201.734C308.915 201.819 309.108 201.968 309.247 202.162C309.386 202.356 309.464 202.587 309.472 202.826C309.48 203.064 309.417 203.3 309.291 203.503C309.165 203.706 308.982 203.867 308.765 203.966C308.547 204.065 308.306 204.098 308.07 204.06C307.912 204.034 307.761 203.978 307.625 203.893C307.489 203.809 307.371 203.699 307.278 203.569C307.185 203.438 307.119 203.291 307.083 203.135C307.047 202.979 307.043 202.818 307.07 202.66Z" fill="#5C5C5C"/>
<path d="M312.9 196.47C312.939 196.232 313.048 196.01 313.213 195.834C313.378 195.657 313.592 195.534 313.827 195.479C314.062 195.424 314.309 195.44 314.535 195.526C314.761 195.611 314.956 195.762 315.097 195.958C315.237 196.155 315.316 196.389 315.323 196.63C315.331 196.871 315.266 197.11 315.138 197.314C315.01 197.519 314.824 197.681 314.603 197.78C314.383 197.879 314.138 197.91 313.9 197.87C313.582 197.816 313.299 197.639 313.111 197.376C312.924 197.114 312.848 196.788 312.9 196.47Z" fill="#5C5C5C"/>
<path d="M308.25 195.68C308.267 195.514 308.318 195.353 308.4 195.208C308.482 195.062 308.593 194.935 308.726 194.835C308.859 194.734 309.011 194.661 309.174 194.621C309.336 194.582 309.504 194.576 309.669 194.604C309.833 194.632 309.99 194.693 310.13 194.785C310.27 194.876 310.39 194.995 310.482 195.134C310.574 195.274 310.636 195.43 310.665 195.595C310.694 195.759 310.689 195.928 310.65 196.09C310.578 196.391 310.394 196.654 310.135 196.825C309.877 196.995 309.563 197.061 309.258 197.009C308.953 196.957 308.679 196.791 308.491 196.544C308.304 196.297 308.218 195.988 308.25 195.68Z" fill="#5C5C5C"/>
<path d="M314.09 189.49C314.117 189.333 314.174 189.183 314.259 189.048C314.344 188.913 314.455 188.797 314.585 188.705C314.715 188.613 314.862 188.548 315.017 188.513C315.172 188.477 315.333 188.473 315.49 188.5C315.647 188.527 315.797 188.584 315.932 188.669C316.066 188.754 316.183 188.865 316.275 188.995C316.367 189.125 316.432 189.272 316.468 189.427C316.503 189.582 316.507 189.743 316.48 189.9C316.453 190.057 316.395 190.207 316.311 190.342C316.226 190.476 316.115 190.593 315.985 190.685C315.855 190.777 315.708 190.842 315.553 190.877C315.398 190.913 315.237 190.917 315.08 190.89C314.923 190.863 314.773 190.805 314.638 190.721C314.504 190.636 314.387 190.525 314.295 190.395C314.203 190.265 314.138 190.118 314.103 189.963C314.067 189.808 314.063 189.647 314.09 189.49Z" fill="#5C5C5C"/>
<path d="M282.66 237.07C282.621 237.308 282.512 237.53 282.347 237.706C282.182 237.883 281.968 238.006 281.733 238.061C281.498 238.116 281.251 238.1 281.025 238.014C280.799 237.929 280.604 237.778 280.463 237.582C280.323 237.385 280.244 237.151 280.237 236.91C280.229 236.669 280.294 236.43 280.422 236.225C280.55 236.021 280.736 235.859 280.957 235.76C281.177 235.661 281.422 235.63 281.66 235.67C281.978 235.724 282.261 235.901 282.449 236.164C282.636 236.426 282.712 236.752 282.66 237.07Z" fill="#5C5C5C"/>
<path d="M281.48 244.05C281.441 244.288 281.332 244.51 281.167 244.686C281.002 244.863 280.788 244.986 280.553 245.041C280.318 245.096 280.071 245.08 279.845 244.994C279.619 244.909 279.424 244.758 279.283 244.562C279.143 244.365 279.064 244.131 279.057 243.89C279.049 243.649 279.114 243.41 279.242 243.205C279.37 243.001 279.556 242.839 279.777 242.74C279.997 242.641 280.242 242.61 280.48 242.65C280.798 242.704 281.081 242.881 281.269 243.144C281.456 243.406 281.532 243.732 281.48 244.05Z" fill="#5C5C5C"/>
<path d="M286.75 241.35C286.733 241.516 286.681 241.677 286.6 241.822C286.518 241.968 286.407 242.095 286.274 242.196C286.141 242.297 285.989 242.369 285.826 242.409C285.664 242.449 285.496 242.455 285.331 242.427C285.166 242.399 285.01 242.337 284.87 242.245C284.73 242.154 284.61 242.035 284.518 241.896C284.426 241.757 284.364 241.6 284.335 241.436C284.306 241.271 284.311 241.103 284.35 240.94C284.422 240.639 284.606 240.376 284.864 240.206C285.123 240.035 285.437 239.969 285.742 240.021C286.047 240.074 286.321 240.24 286.509 240.487C286.696 240.733 286.782 241.042 286.75 241.35Z" fill="#5C5C5C"/>
<path d="M290.84 238.42C290.801 238.659 290.692 238.88 290.527 239.056C290.362 239.233 290.148 239.356 289.913 239.411C289.678 239.466 289.431 239.45 289.205 239.365C288.979 239.279 288.784 239.129 288.643 238.932C288.503 238.736 288.424 238.502 288.417 238.26C288.409 238.019 288.474 237.781 288.602 237.576C288.73 237.371 288.916 237.209 289.137 237.11C289.357 237.011 289.602 236.98 289.84 237.02C289.998 237.046 290.149 237.102 290.285 237.187C290.421 237.271 290.539 237.381 290.632 237.512C290.725 237.642 290.791 237.789 290.827 237.945C290.863 238.101 290.867 238.263 290.84 238.42Z" fill="#5C5C5C"/>
<path d="M280.29 251.03C280.218 251.331 280.034 251.594 279.775 251.765C279.517 251.935 279.203 252.001 278.898 251.949C278.593 251.897 278.319 251.73 278.131 251.484C277.944 251.237 277.858 250.928 277.89 250.62C277.907 250.454 277.958 250.293 278.04 250.148C278.122 250.002 278.233 249.875 278.366 249.774C278.499 249.673 278.651 249.601 278.814 249.561C278.976 249.522 279.144 249.516 279.309 249.544C279.473 249.572 279.63 249.634 279.77 249.725C279.91 249.816 280.03 249.935 280.122 250.074C280.214 250.213 280.276 250.37 280.305 250.535C280.334 250.699 280.329 250.868 280.29 251.03Z" fill="#5C5C5C"/>
<path d="M302.45 240.43C302.433 240.596 302.382 240.757 302.3 240.902C302.218 241.048 302.107 241.175 301.974 241.276C301.841 241.377 301.689 241.449 301.526 241.489C301.364 241.529 301.196 241.535 301.031 241.506C300.867 241.478 300.71 241.417 300.57 241.326C300.43 241.234 300.31 241.115 300.218 240.976C300.126 240.837 300.064 240.68 300.035 240.515C300.006 240.351 300.011 240.182 300.05 240.02C300.122 239.719 300.306 239.456 300.564 239.286C300.823 239.115 301.137 239.049 301.442 239.101C301.747 239.154 302.021 239.32 302.209 239.567C302.396 239.813 302.482 240.122 302.45 240.43Z" fill="#5C5C5C"/>
<path d="M301.27 247.41C301.214 247.729 301.034 248.012 300.77 248.2C300.506 248.387 300.179 248.462 299.86 248.41C299.702 248.385 299.551 248.328 299.415 248.244C299.279 248.16 299.161 248.049 299.068 247.919C298.975 247.789 298.909 247.641 298.873 247.485C298.837 247.329 298.833 247.168 298.86 247.01C298.877 246.844 298.928 246.683 299.01 246.538C299.092 246.392 299.203 246.265 299.336 246.164C299.469 246.063 299.621 245.991 299.784 245.951C299.946 245.912 300.114 245.906 300.279 245.934C300.443 245.962 300.6 246.024 300.74 246.115C300.88 246.206 301 246.325 301.092 246.464C301.184 246.604 301.246 246.76 301.275 246.925C301.304 247.089 301.299 247.258 301.26 247.42L301.27 247.41Z" fill="#5C5C5C"/>
<path d="M305.92 248.2C305.879 248.438 305.769 248.658 305.603 248.833C305.437 249.007 305.223 249.129 304.988 249.183C304.753 249.236 304.507 249.219 304.282 249.133C304.057 249.046 303.862 248.895 303.723 248.699C303.583 248.502 303.505 248.269 303.498 248.028C303.491 247.787 303.556 247.549 303.684 247.345C303.812 247.141 303.998 246.979 304.218 246.88C304.438 246.781 304.682 246.75 304.92 246.79C305.078 246.816 305.23 246.874 305.366 246.96C305.502 247.045 305.62 247.156 305.713 247.287C305.806 247.418 305.872 247.566 305.907 247.723C305.943 247.88 305.947 248.042 305.92 248.2Z" fill="#5C5C5C"/>
<path d="M310.57 248.99C310.529 249.228 310.419 249.448 310.253 249.623C310.087 249.798 309.873 249.919 309.638 249.973C309.403 250.026 309.157 250.009 308.932 249.922C308.707 249.836 308.512 249.685 308.373 249.489C308.233 249.292 308.155 249.059 308.148 248.818C308.141 248.577 308.206 248.339 308.334 248.135C308.462 247.931 308.648 247.769 308.868 247.67C309.088 247.571 309.332 247.54 309.57 247.58C309.729 247.605 309.881 247.662 310.018 247.747C310.155 247.832 310.273 247.943 310.366 248.075C310.459 248.206 310.525 248.355 310.56 248.512C310.595 248.669 310.599 248.832 310.57 248.99Z" fill="#5C5C5C"/>
<path d="M300.08 254.38C300.041 254.618 299.932 254.84 299.767 255.016C299.602 255.193 299.388 255.316 299.153 255.371C298.918 255.426 298.671 255.41 298.445 255.324C298.219 255.239 298.024 255.089 297.883 254.892C297.743 254.695 297.664 254.462 297.657 254.22C297.649 253.979 297.714 253.74 297.842 253.536C297.97 253.331 298.156 253.169 298.377 253.07C298.597 252.971 298.842 252.94 299.08 252.98C299.238 253.006 299.389 253.062 299.525 253.146C299.661 253.231 299.779 253.341 299.872 253.471C299.965 253.602 300.031 253.749 300.067 253.905C300.103 254.061 300.107 254.222 300.08 254.38Z" fill="#5C5C5C"/>
<path d="M339.59 246.73C339.551 246.969 339.442 247.19 339.277 247.367C339.112 247.543 338.898 247.666 338.663 247.721C338.428 247.776 338.181 247.76 337.955 247.674C337.729 247.589 337.534 247.439 337.393 247.242C337.253 247.045 337.174 246.812 337.167 246.57C337.159 246.329 337.224 246.091 337.352 245.886C337.48 245.681 337.666 245.519 337.887 245.42C338.107 245.321 338.352 245.29 338.59 245.33C338.908 245.384 339.191 245.561 339.379 245.824C339.566 246.086 339.642 246.412 339.59 246.73Z" fill="#5C5C5C"/>
<path d="M338.41 253.71C338.371 253.949 338.262 254.17 338.097 254.346C337.932 254.523 337.718 254.646 337.483 254.701C337.248 254.756 337.001 254.74 336.775 254.654C336.549 254.569 336.354 254.419 336.213 254.222C336.073 254.026 335.994 253.792 335.987 253.55C335.979 253.309 336.044 253.071 336.172 252.866C336.3 252.661 336.486 252.499 336.707 252.4C336.927 252.301 337.172 252.27 337.41 252.31C337.728 252.364 338.011 252.542 338.199 252.804C338.386 253.066 338.462 253.392 338.41 253.71Z" fill="#5C5C5C"/>
<path d="M347.75 255.29C347.678 255.591 347.494 255.854 347.236 256.024C346.977 256.195 346.663 256.261 346.358 256.209C346.053 256.156 345.779 255.99 345.591 255.743C345.404 255.497 345.318 255.188 345.35 254.88C345.367 254.714 345.418 254.553 345.5 254.408C345.582 254.262 345.693 254.135 345.826 254.034C345.959 253.933 346.111 253.861 346.274 253.821C346.436 253.781 346.604 253.776 346.769 253.804C346.933 253.832 347.09 253.893 347.23 253.985C347.37 254.076 347.49 254.195 347.582 254.334C347.674 254.473 347.736 254.63 347.765 254.794C347.794 254.959 347.789 255.127 347.75 255.29Z" fill="#5C5C5C"/>
<path d="M344.24 247.52C344.201 247.758 344.092 247.98 343.927 248.157C343.762 248.333 343.548 248.456 343.313 248.511C343.078 248.566 342.831 248.55 342.605 248.464C342.379 248.379 342.184 248.229 342.043 248.032C341.903 247.835 341.824 247.602 341.817 247.36C341.809 247.119 341.874 246.881 342.002 246.676C342.13 246.471 342.316 246.309 342.537 246.21C342.757 246.111 343.002 246.08 343.24 246.12C343.558 246.174 343.841 246.352 344.029 246.614C344.216 246.876 344.292 247.202 344.24 247.52Z" fill="#5C5C5C"/>
<path d="M337.22 260.69C337.148 260.991 336.964 261.254 336.706 261.425C336.447 261.595 336.133 261.661 335.828 261.609C335.523 261.557 335.249 261.391 335.061 261.144C334.874 260.897 334.788 260.588 334.82 260.28C334.837 260.114 334.888 259.953 334.97 259.808C335.052 259.662 335.163 259.535 335.296 259.434C335.429 259.333 335.581 259.261 335.744 259.221C335.906 259.182 336.074 259.176 336.239 259.204C336.403 259.232 336.56 259.294 336.7 259.385C336.84 259.476 336.96 259.595 337.052 259.734C337.144 259.874 337.206 260.03 337.235 260.195C337.264 260.359 337.259 260.528 337.22 260.69Z" fill="#5C5C5C"/>
<path d="M323.75 244.05C323.71 244.285 323.6 244.503 323.436 244.677C323.272 244.85 323.06 244.971 322.827 245.024C322.595 245.077 322.351 245.061 322.128 244.976C321.905 244.891 321.712 244.742 321.573 244.548C321.434 244.354 321.356 244.123 321.348 243.884C321.34 243.645 321.403 243.41 321.529 243.207C321.655 243.004 321.838 242.843 322.055 242.744C322.273 242.645 322.514 242.612 322.75 242.65C322.908 242.676 323.059 242.732 323.195 242.816C323.331 242.901 323.449 243.011 323.542 243.141C323.635 243.272 323.701 243.419 323.737 243.575C323.773 243.731 323.777 243.892 323.75 244.05Z" fill="#5C5C5C"/>
<path d="M328.45 244.87C328.433 245.036 328.382 245.197 328.3 245.342C328.218 245.488 328.107 245.615 327.974 245.716C327.841 245.817 327.689 245.889 327.526 245.929C327.364 245.969 327.196 245.975 327.031 245.946C326.867 245.918 326.71 245.857 326.57 245.765C326.43 245.674 326.31 245.555 326.218 245.416C326.126 245.277 326.064 245.12 326.035 244.956C326.006 244.791 326.011 244.623 326.05 244.46C326.122 244.159 326.306 243.896 326.564 243.726C326.823 243.555 327.137 243.489 327.442 243.541C327.747 243.594 328.021 243.76 328.209 244.007C328.396 244.253 328.482 244.562 328.45 244.87Z" fill="#5C5C5C"/>
<path d="M322.61 251.03C322.585 251.188 322.528 251.339 322.444 251.475C322.359 251.611 322.249 251.729 322.119 251.822C321.989 251.915 321.841 251.981 321.685 252.017C321.529 252.053 321.368 252.057 321.21 252.03C320.975 251.989 320.757 251.88 320.583 251.716C320.41 251.552 320.289 251.34 320.236 251.107C320.183 250.874 320.199 250.631 320.284 250.408C320.369 250.185 320.518 249.991 320.712 249.853C320.906 249.714 321.137 249.636 321.376 249.628C321.615 249.62 321.85 249.683 322.053 249.809C322.256 249.935 322.417 250.118 322.516 250.335C322.615 250.552 322.648 250.794 322.61 251.03Z" fill="#5C5C5C"/>
<path d="M327.26 251.87C327.235 252.028 327.178 252.179 327.094 252.315C327.009 252.451 326.899 252.569 326.769 252.662C326.639 252.755 326.491 252.821 326.335 252.857C326.179 252.893 326.018 252.897 325.86 252.87C325.625 252.829 325.407 252.72 325.233 252.556C325.06 252.392 324.939 252.18 324.886 251.947C324.833 251.714 324.85 251.471 324.934 251.248C325.019 251.025 325.168 250.832 325.362 250.693C325.556 250.554 325.787 250.476 326.026 250.468C326.265 250.46 326.5 250.523 326.703 250.649C326.906 250.775 327.067 250.958 327.166 251.175C327.265 251.392 327.298 251.634 327.26 251.87Z" fill="#5C5C5C"/>
<path d="M321.43 258.01C321.389 258.247 321.279 258.468 321.113 258.643C320.947 258.818 320.733 258.939 320.498 258.993C320.263 259.046 320.017 259.029 319.792 258.942C319.567 258.856 319.372 258.706 319.233 258.509C319.093 258.312 319.015 258.078 319.008 257.837C319.001 257.596 319.066 257.359 319.194 257.155C319.322 256.95 319.508 256.789 319.728 256.69C319.948 256.591 320.192 256.56 320.43 256.6C320.588 256.627 320.74 256.684 320.876 256.77C321.012 256.855 321.13 256.966 321.223 257.097C321.316 257.228 321.382 257.376 321.417 257.533C321.453 257.69 321.457 257.852 321.43 258.01Z" fill="#5C5C5C"/>
<path d="M327.46 232.67C327.501 232.432 327.611 232.212 327.777 232.037C327.943 231.862 328.157 231.74 328.392 231.687C328.627 231.634 328.873 231.651 329.098 231.737C329.323 231.823 329.518 231.974 329.658 232.171C329.797 232.368 329.875 232.601 329.882 232.842C329.889 233.083 329.824 233.321 329.696 233.525C329.568 233.729 329.382 233.891 329.162 233.99C328.942 234.088 328.698 234.12 328.46 234.08C328.302 234.053 328.15 233.995 328.014 233.91C327.878 233.825 327.76 233.714 327.667 233.583C327.574 233.452 327.508 233.304 327.473 233.147C327.437 232.99 327.433 232.828 327.46 232.67Z" fill="#5C5C5C"/>
<path d="M328.65 225.7C328.689 225.462 328.798 225.24 328.963 225.064C329.128 224.887 329.342 224.764 329.577 224.709C329.812 224.654 330.059 224.67 330.285 224.756C330.511 224.841 330.706 224.992 330.847 225.188C330.987 225.385 331.066 225.619 331.073 225.86C331.081 226.101 331.016 226.34 330.888 226.545C330.76 226.749 330.574 226.911 330.353 227.01C330.133 227.109 329.888 227.14 329.65 227.1C329.492 227.075 329.341 227.018 329.205 226.934C329.069 226.849 328.951 226.739 328.858 226.609C328.765 226.479 328.699 226.331 328.663 226.175C328.627 226.019 328.623 225.858 328.65 225.7Z" fill="#5C5C5C"/>
<path d="M323.4 228.4C323.427 228.242 323.484 228.09 323.57 227.954C323.655 227.818 323.766 227.7 323.897 227.607C324.028 227.514 324.176 227.448 324.333 227.413C324.49 227.377 324.652 227.373 324.81 227.4C325.111 227.472 325.374 227.656 325.544 227.914C325.715 228.173 325.781 228.486 325.729 228.792C325.677 229.097 325.51 229.371 325.264 229.558C325.017 229.746 324.708 229.832 324.4 229.8C324.082 229.746 323.799 229.569 323.611 229.306C323.424 229.044 323.348 228.718 323.4 228.4Z" fill="#5C5C5C"/>
<path d="M319.28 231.32C319.352 231.019 319.536 230.756 319.794 230.586C320.053 230.415 320.367 230.349 320.672 230.401C320.977 230.453 321.251 230.62 321.439 230.867C321.626 231.113 321.712 231.422 321.68 231.73C321.663 231.896 321.612 232.057 321.53 232.202C321.448 232.348 321.337 232.475 321.204 232.576C321.071 232.677 320.919 232.749 320.756 232.789C320.594 232.829 320.426 232.835 320.261 232.806C320.097 232.778 319.94 232.717 319.8 232.626C319.66 232.534 319.54 232.415 319.448 232.276C319.356 232.137 319.294 231.98 319.265 231.816C319.236 231.651 319.241 231.483 319.28 231.32Z" fill="#5C5C5C"/>
<path d="M329.83 218.72C329.869 218.482 329.978 218.26 330.143 218.084C330.308 217.907 330.522 217.784 330.757 217.729C330.992 217.674 331.239 217.69 331.465 217.776C331.691 217.861 331.886 218.012 332.027 218.208C332.167 218.405 332.246 218.639 332.253 218.88C332.261 219.121 332.196 219.36 332.068 219.564C331.94 219.769 331.754 219.931 331.533 220.03C331.313 220.129 331.068 220.16 330.83 220.12C330.512 220.066 330.229 219.889 330.041 219.626C329.854 219.364 329.778 219.038 329.83 218.72Z" fill="#5C5C5C"/>
<path d="M311.33 229.97C311.355 229.812 311.412 229.661 311.496 229.525C311.581 229.389 311.691 229.271 311.821 229.178C311.951 229.085 312.099 229.019 312.255 228.983C312.411 228.947 312.572 228.943 312.73 228.97C312.968 229.009 313.19 229.118 313.366 229.283C313.543 229.448 313.666 229.662 313.721 229.897C313.776 230.133 313.76 230.379 313.674 230.605C313.589 230.831 313.438 231.026 313.242 231.167C313.045 231.307 312.811 231.386 312.57 231.394C312.329 231.401 312.09 231.336 311.885 231.208C311.681 231.08 311.519 230.894 311.42 230.674C311.321 230.453 311.29 230.208 311.33 229.97Z" fill="#5C5C5C"/>
<path d="M312.51 223C312.549 222.761 312.658 222.54 312.823 222.364C312.988 222.187 313.202 222.064 313.437 222.009C313.672 221.954 313.919 221.97 314.145 222.056C314.371 222.141 314.566 222.291 314.707 222.488C314.847 222.685 314.926 222.918 314.933 223.16C314.941 223.401 314.876 223.64 314.748 223.844C314.62 224.049 314.434 224.211 314.213 224.31C313.993 224.409 313.748 224.44 313.51 224.4C313.352 224.375 313.201 224.318 313.065 224.234C312.929 224.149 312.811 224.039 312.718 223.909C312.625 223.779 312.559 223.631 312.523 223.475C312.487 223.319 312.483 223.157 312.51 223Z" fill="#5C5C5C"/>
<path d="M307.86 222.21C307.899 221.971 308.008 221.75 308.173 221.573C308.338 221.397 308.552 221.274 308.787 221.219C309.022 221.164 309.269 221.18 309.495 221.266C309.721 221.351 309.916 221.501 310.057 221.698C310.197 221.894 310.276 222.128 310.283 222.37C310.291 222.611 310.226 222.85 310.098 223.054C309.97 223.259 309.784 223.421 309.563 223.52C309.343 223.619 309.098 223.65 308.86 223.61C308.702 223.584 308.551 223.528 308.415 223.443C308.279 223.359 308.161 223.249 308.068 223.119C307.975 222.988 307.909 222.841 307.873 222.685C307.837 222.529 307.833 222.368 307.86 222.21Z" fill="#5C5C5C"/>
<path d="M303.21 221.42C303.249 221.181 303.358 220.96 303.523 220.784C303.688 220.607 303.902 220.484 304.137 220.429C304.372 220.374 304.619 220.39 304.845 220.475C305.071 220.561 305.266 220.711 305.407 220.908C305.547 221.104 305.626 221.338 305.633 221.58C305.641 221.821 305.576 222.06 305.448 222.264C305.32 222.469 305.134 222.631 304.913 222.73C304.693 222.829 304.448 222.86 304.21 222.82C303.892 222.766 303.609 222.588 303.421 222.326C303.234 222.064 303.158 221.738 303.21 221.42Z" fill="#5C5C5C"/>
<path d="M313.75 216.02C313.79 215.784 313.9 215.567 314.064 215.393C314.228 215.22 314.44 215.099 314.673 215.046C314.905 214.992 315.149 215.009 315.372 215.094C315.595 215.179 315.788 215.328 315.927 215.522C316.066 215.716 316.144 215.947 316.152 216.186C316.16 216.424 316.097 216.66 315.971 216.863C315.845 217.066 315.662 217.227 315.445 217.326C315.227 217.425 314.986 217.458 314.75 217.42C314.592 217.394 314.441 217.338 314.305 217.254C314.169 217.169 314.051 217.059 313.958 216.928C313.865 216.798 313.799 216.651 313.763 216.495C313.727 216.339 313.723 216.177 313.75 216.02Z" fill="#5C5C5C"/>
<path d="M348.47 236.27C348.542 235.969 348.726 235.706 348.985 235.536C349.243 235.365 349.557 235.299 349.862 235.351C350.167 235.404 350.441 235.57 350.629 235.817C350.816 236.063 350.902 236.372 350.87 236.68C350.814 236.999 350.634 237.282 350.37 237.47C350.106 237.657 349.779 237.733 349.46 237.68C349.302 237.654 349.151 237.596 349.015 237.511C348.88 237.425 348.762 237.313 348.67 237.182C348.578 237.051 348.513 236.903 348.479 236.746C348.444 236.59 348.441 236.428 348.47 236.27Z" fill="#5C5C5C"/>
<path d="M349.65 229.3C349.689 229.061 349.798 228.84 349.963 228.663C350.128 228.487 350.342 228.364 350.577 228.309C350.812 228.254 351.059 228.27 351.285 228.355C351.511 228.441 351.706 228.591 351.847 228.788C351.987 228.984 352.066 229.218 352.073 229.46C352.081 229.701 352.016 229.939 351.888 230.144C351.76 230.349 351.574 230.511 351.353 230.61C351.133 230.709 350.888 230.74 350.65 230.7C350.332 230.646 350.049 230.468 349.861 230.206C349.674 229.944 349.598 229.618 349.65 229.3Z" fill="#5C5C5C"/>
<path d="M340.35 227.72C340.389 227.482 340.498 227.26 340.663 227.084C340.828 226.907 341.042 226.784 341.277 226.729C341.512 226.674 341.759 226.69 341.985 226.776C342.211 226.861 342.406 227.012 342.547 227.208C342.687 227.405 342.766 227.639 342.773 227.88C342.781 228.121 342.716 228.36 342.588 228.564C342.46 228.769 342.274 228.931 342.054 229.03C341.833 229.129 341.588 229.16 341.35 229.12C341.032 229.066 340.749 228.889 340.561 228.626C340.374 228.364 340.298 228.038 340.35 227.72Z" fill="#5C5C5C"/>
<path d="M343.82 235.49C343.86 235.255 343.97 235.037 344.134 234.863C344.298 234.69 344.51 234.569 344.743 234.516C344.975 234.463 345.219 234.479 345.442 234.564C345.665 234.649 345.858 234.798 345.997 234.992C346.136 235.186 346.214 235.418 346.222 235.656C346.23 235.895 346.167 236.13 346.041 236.333C345.915 236.536 345.732 236.697 345.515 236.796C345.297 236.895 345.056 236.928 344.82 236.89C344.662 236.865 344.511 236.808 344.375 236.724C344.239 236.639 344.121 236.529 344.028 236.399C343.935 236.269 343.869 236.121 343.833 235.965C343.797 235.809 343.793 235.648 343.82 235.49Z" fill="#5C5C5C"/>
<path d="M350.83 222.32C350.889 222.002 351.069 221.721 351.332 221.534C351.595 221.347 351.921 221.27 352.24 221.32C352.398 221.347 352.55 221.404 352.686 221.49C352.822 221.575 352.94 221.686 353.033 221.817C353.126 221.948 353.192 222.096 353.227 222.253C353.263 222.41 353.267 222.572 353.24 222.73C353.215 222.888 353.158 223.039 353.074 223.175C352.989 223.311 352.879 223.429 352.749 223.522C352.618 223.615 352.471 223.681 352.315 223.717C352.159 223.753 351.998 223.757 351.84 223.73C351.681 223.705 351.528 223.648 351.391 223.563C351.254 223.478 351.135 223.367 351.041 223.236C350.947 223.105 350.88 222.956 350.844 222.799C350.808 222.642 350.803 222.479 350.83 222.32Z" fill="#5C5C5C"/>
<path d="M287 211.49C286.983 211.656 286.931 211.817 286.85 211.962C286.768 212.108 286.657 212.235 286.524 212.336C286.391 212.437 286.239 212.509 286.076 212.549C285.914 212.588 285.746 212.594 285.581 212.566C285.416 212.538 285.26 212.477 285.12 212.385C284.98 212.294 284.86 212.175 284.768 212.036C284.676 211.896 284.614 211.74 284.585 211.575C284.556 211.411 284.561 211.242 284.6 211.08C284.672 210.779 284.856 210.516 285.114 210.346C285.373 210.175 285.687 210.109 285.992 210.161C286.297 210.213 286.571 210.38 286.759 210.626C286.946 210.873 287.032 211.182 287 211.49Z" fill="#5C5C5C"/>
<path d="M291.65 212.28C291.625 212.438 291.568 212.589 291.484 212.725C291.399 212.861 291.289 212.979 291.159 213.072C291.029 213.165 290.881 213.231 290.725 213.267C290.569 213.303 290.408 213.307 290.25 213.28C290.015 213.239 289.797 213.13 289.623 212.966C289.45 212.802 289.329 212.59 289.276 212.357C289.223 212.124 289.24 211.881 289.324 211.658C289.409 211.435 289.558 211.241 289.752 211.103C289.946 210.964 290.177 210.886 290.416 210.878C290.655 210.87 290.89 210.933 291.093 211.059C291.296 211.185 291.457 211.368 291.556 211.585C291.655 211.802 291.688 212.044 291.65 212.28Z" fill="#5C5C5C"/>
<path d="M285.82 218.47C285.779 218.708 285.669 218.928 285.503 219.103C285.337 219.278 285.123 219.399 284.888 219.453C284.653 219.506 284.407 219.489 284.182 219.402C283.957 219.316 283.762 219.165 283.623 218.969C283.483 218.772 283.405 218.539 283.398 218.298C283.391 218.057 283.456 217.819 283.584 217.615C283.712 217.411 283.898 217.249 284.118 217.15C284.338 217.051 284.582 217.02 284.82 217.06C284.978 217.087 285.13 217.144 285.266 217.23C285.402 217.315 285.52 217.426 285.613 217.557C285.706 217.688 285.772 217.836 285.807 217.993C285.843 218.15 285.847 218.312 285.82 218.47Z" fill="#5C5C5C"/>
<path d="M290.47 219.26C290.429 219.497 290.319 219.718 290.153 219.893C289.987 220.068 289.773 220.189 289.538 220.243C289.303 220.296 289.057 220.279 288.832 220.192C288.607 220.106 288.412 219.956 288.273 219.759C288.133 219.562 288.055 219.328 288.048 219.087C288.041 218.846 288.106 218.609 288.234 218.405C288.362 218.2 288.548 218.039 288.768 217.94C288.988 217.841 289.232 217.81 289.47 217.85C289.789 217.906 290.072 218.086 290.259 218.35C290.447 218.614 290.522 218.941 290.47 219.26Z" fill="#5C5C5C"/>
<path d="M284.63 225.44C284.591 225.679 284.482 225.9 284.317 226.076C284.152 226.253 283.938 226.376 283.703 226.431C283.468 226.486 283.221 226.47 282.995 226.385C282.769 226.299 282.574 226.149 282.433 225.952C282.293 225.756 282.214 225.522 282.207 225.28C282.199 225.039 282.264 224.801 282.392 224.596C282.52 224.391 282.706 224.229 282.927 224.13C283.147 224.031 283.392 224 283.63 224.04C283.788 224.066 283.939 224.122 284.075 224.207C284.211 224.291 284.329 224.401 284.422 224.532C284.515 224.662 284.581 224.809 284.617 224.965C284.653 225.121 284.657 225.283 284.63 225.44Z" fill="#5C5C5C"/>
</g>
<defs>
<clipPath id="clip0_573_226">
<rect width="464.74" height="422.51" fill="white"/>
</clipPath>
</defs>
</svg>
