<?xml version="1.0" encoding="utf-8"?>
<!-- Generator: Adobe Illustrator 24.1.0, SVG Export Plug-In . SVG Version: 6.00 Build 0)  -->
<svg version="1.1" id="Capa_1" xmlns="http://www.w3.org/2000/svg" xmlns:xlink="http://www.w3.org/1999/xlink" x="0px" y="0px"
	 viewBox="0 0 582.2 439.6" style="enable-background:new 0 0 582.2 439.6;" xml:space="preserve">
<style type="text/css">
	.st0{fill:#FFFFFF;}
	.st1{fill:#E60064;}
	.st2{fill:#FBBA00;}
	.st3{fill:#2F52A0;}
	.st4{fill:#52AE32;}
	.st5{fill:#F39200;}
	.st6{fill:#00A8A8;}
</style>
<rect x="3.4" y="-0.4" class="st0" width="626.6" height="476.3"/>
<g>
	<g>
		<g>
			<g>
				<circle class="st1" cx="445.4" cy="223.2" r="33"/>
				<g>
					<path class="st1" d="M376.2,312.4l1.3-89.2c-0.1-3.4,4.8-4.2,6.2-1c0,0,23,30.8,29.3,46.2c1.2,2.9,3.6,5.2,6.7,6.2l16.8,5.4
						c2.8,0.9,5.9,0.6,8.5-0.9c14-7.9,61.1-27.2,61.1-27.2c3-2,6.6,1.8,4.4,4.5l-65.8,78.3l-45.9,81.9c-1.6,2.4-5.6,1.1-5.5-1.8
						l11.6-71.9c-0.2-0.1-0.2-0.1-0.4-0.2l-13.3,12.9c-2.7,2.6-6.5,3.6-10.1,2.6l0,0c-4.9-1.3-8.1-5.9-7.7-11L376.2,312.4z"/>
					<ellipse class="st1" cx="375.7" cy="371.8" rx="7" ry="7"/>
					<circle class="st1" cx="367.7" cy="398" r="9.2"/>
				</g>
			</g>
		</g>
		<g>
			<path class="st2" d="M197.5,223.2c0,0-19.8,44.5-24.3,59.9c-0.9,3.2-3.2,5.9-6.4,7.3l-13.8,6.3c-3,1.4-6.4,1.5-9.4,0.3
				c-14.9-5.7-60.2-17.4-60.2-17.4c-3.1-1.4-6,2.4-3.6,4.7l71.4,63.9l53.1,69.5c1.8,2,5.4,0.4,4.9-2.3L189.6,351
				c0.2-0.1,0.2-0.1,0.4-0.2l44.3,47c2.2,2.2,6,0,5-2.9L213,319.7l-9.6-96.1C203.1,220.3,198.4,220.1,197.5,223.2z M200.5,298.9
				c0.4,0.9,0.7,1.9,0.8,2.9c0.1,1.3-0.1,2.5-0.5,3.7l0,0l-6.1,19.4c0,0.1-0.1,0.2-0.2,0.2s-0.2,0.1-0.3,0c0,0-20.3-5.4-24.5-12.3
				c-2.5-4.1-0.1-9.5,4.3-11.5c3.3-1.5,7-0.9,9.5,1.3c0-3.3,1.9-6.4,5.1-7.9C193.2,292.7,198.5,294.6,200.5,298.9z"/>
			<path class="st2" d="M170,237c-6.1-17.2-25-26.2-42.2-20.2c-3.2,1.1-6.2,2.8-8.8,4.7c-13.5-9.5-30.8-17.9-37.1-4.7
				c-10.9,22.9-39.1,49.1-39.1,49.1s21.3,11.3,43.4-18.3c7.8-10.4,16.3-14.9,24.1-16.4c-4.7,8.1-6,18.2-2.6,27.7
				c6.1,17.2,25,26.2,42.2,20.2C167.2,273,176.2,254.2,170,237z"/>
		</g>
		<path class="st3" d="M293.9,212.4c-5.2,0-10.2,0.6-15,1.8l-1.1-1.6l0.1-16.9c0.4,0,0.8,0.1,1.2,0.1c18.2,0,33-14.8,33-33
			s-14.8-33-33-33s-33,14.8-33,33c0,12.3,6.7,23,16.7,28.7c-9,10.3-18.7,22.6-18.9,28.2c-0.1,2.1,2.8,5.3,7.4,9
			c-13.1,11.7-21.3,28.7-21.3,47.7c0,35.3,28.7,64,64,64s64-28.7,64-64C357.9,241,329.2,212.4,293.9,212.4z M293.9,311.5
			c-19.4,0-35.1-15.7-35.1-35.1c0-13.1,7.2-24.5,17.8-30.5c11.5,7,23.6,13.8,32.3,18.5c2.8,1.5,5.8-1.8,3.9-4.4l-13.4-18.2
			c16.8,2.6,29.7,17.1,29.7,34.6C329,295.8,313.3,311.5,293.9,311.5z"/>
		<g>
			<path class="st4" d="M194.9,143.9c4.2-3.4,8.6-6.8,13.8-8.8c1.3-0.5,2.5-1.1,3.8-1.6l4.1-0.9c2.7-0.6,5.4-1.3,8.1-0.9
				c5.2-0.3,10.1,0.7,14.7,2.4c1-17.1-6.1-30.8-6.1-30.8c-38.9,10.3-50.7,39.6-53.9,61.8C183.3,157.3,188.2,150,194.9,143.9z"/>
			<path class="st4" d="M225.6,140.5c-8.7,1.7-16.5,5.8-23.1,11.8c-6.8,5.8-12.2,13.6-17.4,21.5c-2.3,3.7-6,18.3-6,18.3
				c42.9-11.9,56.8-33.4,59.8-52.3C234.3,139.4,229.9,139.4,225.6,140.5z"/>
		</g>
		<g>
			<path class="st4" d="M475,367c-4.3,4.6-8.5,9.5-11.2,15.3c-0.7,1.4-1.5,2.8-2.1,4.3l-1.3,4.7c-0.8,3.1-1.9,6.1-1.7,9.4
				c-0.7,6,0.1,11.8,1.7,17.2c-19.9-0.1-35.2-9.3-35.2-9.3c14.7-44.3,49.6-55.8,75.5-58C491.4,354.4,482.5,359.6,475,367z"/>
			<path class="st4" d="M468.8,402.2c2.6-10,7.9-18.7,15.3-25.9c7.2-7.5,16.6-13.2,26.2-18.6c4.4-2.4,21.6-5.7,21.6-5.7
				c-16.9,48.8-42.8,63.3-64.9,65.5C467,412.3,467.3,407.1,468.8,402.2z"/>
		</g>
		<g>
			<path class="st4" d="M88.1,320.8c-6.2-0.6-12.7-1.1-19,0.3c-1.6,0.3-3.2,0.5-4.7,0.9l-4.5,1.7c-3,1.2-6,2.2-8.5,4.3
				c-5.2,3-9.4,7.1-12.8,11.7c-11.9-16-13.8-33.7-13.8-33.7c44.2-14.8,74.4,6.1,91.7,25.5C107.9,326.4,98.5,322.4,88.1,320.8z"/>
			<path class="st4" d="M56.2,337.1c9.5-3.9,19.7-4.9,29.9-3.3c10.3,1.3,20.5,5.4,30.6,9.8c4.6,2.1,17.5,13.9,17.5,13.9
				c-49.1,15.8-76.4,3.8-91.4-12.5C47.1,341.6,51.4,338.8,56.2,337.1z"/>
		</g>
		<g>
			<path class="st4" d="M547.4,310.8c-2.9-3-6-6.1-9.9-8.1c-0.9-0.5-1.9-1.1-2.8-1.6l-3.1-1.1c-2-0.7-4.1-1.5-6.2-1.5
				c-4-0.7-7.9-0.4-11.7,0.4c0.9-13.4,7.6-23.3,7.6-23.3c29.2,11.7,35.6,35.5,36,53C555.2,322.3,552,316.1,547.4,310.8z"/>
			<path class="st4" d="M523.9,305.3c6.6,2.2,12.3,6,16.8,11.3c4.7,5.2,8.2,11.7,11.5,18.4c1.4,3.1,3,14.8,3,14.8
				c-32.1-13.3-40.9-31.3-41.5-46.2C517.3,303.6,520.7,304,523.9,305.3z"/>
		</g>
		<g>
			<path class="st4" d="M60,384.2c-3,2.9-6.1,6-8.1,9.9c-0.5,0.9-1.1,1.9-1.6,2.8l-1.1,3.1c-0.7,2-1.5,4.1-1.5,6.2
				c-0.7,4-0.4,7.9,0.4,11.7c-13.4-0.9-23.3-7.6-23.3-7.6c11.7-29.2,35.5-35.6,53-36C71.5,376.4,65.3,379.5,60,384.2z"/>
			<path class="st4" d="M54.4,407.6c2.2-6.6,6-12.3,11.3-16.8c5.2-4.7,11.7-8.2,18.4-11.5c3.1-1.4,14.8-3,14.8-3
				c-13.3,32.1-31.3,40.9-46.2,41.5C52.8,414.3,53.2,410.9,54.4,407.6z"/>
		</g>
		<g>
			<path class="st4" d="M122.2,195.7c2.9-0.6,5.8-1.4,8.4-2.9c0.7-0.4,1.3-0.7,2-1.1l1.7-1.4c1.2-1,2.4-1.9,3.2-3.1
				c1.9-2.1,3.1-4.5,4-7.1c7.6,5.4,11,13,11,13c-17.5,13-34,8.1-44.5,2C112.5,196.1,117.3,196.5,122.2,195.7z"/>
			<path class="st4" d="M134,183.9c-3.7,3.1-8,5.1-12.8,5.8c-4.8,0.9-9.9,0.6-15,0.1c-2.3-0.3-9.8-3.6-9.8-3.6
				c19.6-14.2,33.4-12.8,42.5-7.7C137.4,180.5,135.9,182.4,134,183.9z"/>
		</g>
		<g>
			<g>
				<path class="st4" d="M272.9,379.6c0.1,3.7,0,7.6-1.1,11.3c-0.3,0.9-0.5,1.9-0.8,2.7l-1.3,2.6c-0.9,1.7-1.6,3.5-3,4.8
					c-2.1,3-4.7,5.2-7.6,7c8.9,7.8,19.3,9.8,19.3,9.8c11-25.5,0-44.4-10.6-55.7C270.5,367.6,272.4,373.4,272.9,379.6z"/>
				<path class="st4" d="M261.7,397.8c2.8-5.5,3.9-11.4,3.4-17.6c-0.3-6.2-2.2-12.4-4.3-18.6c-1-2.8-7.4-11.1-7.4-11.1
					c-11.8,28.4-6,45.1,3,54.8C258.5,403,260.4,400.5,261.7,397.8z"/>
			</g>
			<g>
				<path class="st4" d="M341.2,384.7c-4.7,2.6-9.5,5.2-14.9,6.3c-1.3,0.3-2.6,0.7-4,0.9l-4.1,0.2c-2.7,0.1-5.5,0.4-8.1-0.4
					c-5.1-0.6-9.7-2.3-14-4.7c-3.8,16.5,0.8,31,0.8,31c39.6-3.6,56-30.2,62.8-51.2C354.8,373.6,348.8,379.9,341.2,384.7z"/>
				<path class="st4" d="M310.8,382.9c8.8-0.2,17-2.9,24.5-7.7c7.6-4.5,14.2-11.2,20.5-18.1c2.8-3.2,8.9-16.8,8.9-16.8
					c-43.7,4.5-60.8,23.1-67,41C302.1,382.5,306.4,383.2,310.8,382.9z"/>
			</g>
		</g>
		<circle class="st5" cx="485.5" cy="323" r="10.4"/>
		<circle class="st5" cx="505.1" cy="220.7" r="10.4"/>
		<circle class="st5" cx="291.1" cy="108.8" r="10.4"/>
		<circle class="st5" cx="136.7" cy="387.9" r="10.4"/>
		<circle class="st5" cx="179.5" cy="213.8" r="10.4"/>
		<g>
			<g>
				<g>
					<path class="st6" d="M365.4,131.4c-3.2-9.9-8.8-18.2-10-28.9c-5.3,3.5-9,6.4-8.6,13.5c-6.3-3.7-11.4,5.9-8.6,10.9
						c-9.4,3-14.8,11.8-6.7,19.5c-5.2,5.1-1.3,10.9,4,14.1c-3.6,1.6-6.6,4.2-8.4,8.3c-3.3,7.7,2.5,12,9.8,13.1
						c13.6,2,27.7-21.3,27.7-21.4c0.1-0.1,0.2-0.3,0.3-0.4C369.9,152.7,367.9,139,365.4,131.4z"/>
					<path class="st6" d="M399.6,152.6c10.6-1.5,20.8-0.1,31.3-3.8c-0.9,6.5-1.9,11.2-8.6,14c6.3,4.2-0.3,13.2-6.2,12.9
						c1.4,10.1-4.2,19.1-15,15c-2.4,7.1-9.6,6.1-14.9,2.7c0.1,4.1-0.9,8-3.9,11.5c-5.7,6.6-12.3,3.1-16.5-3.2
						c-8-11.7,7.3-35.3,7.3-35.3c0.1-0.2,0.1-0.3,0.2-0.5C377.8,158.1,391.5,153.7,399.6,152.6z"/>
				</g>
				<path class="st6" d="M398.6,140.7c-2.5,0.1-4.9,0.6-7.2,1.4c-2.3,0.9-4.5,2-6.8,2.9c-2.3,1-4.4,2.3-6.2,4
					c-0.8,0.7-1.5,1.6-2.1,2.4c-0.2-0.2-0.5-0.3-0.7-0.4c0.4-0.9,0.8-1.9,1.1-2.8c0.6-2.4,0.7-4.9,0.5-7.3c-0.3-2.4-0.4-4.8-0.7-7.2
					c-0.4-2.4-1.2-4.7-2.2-6.9l0,0c0,0,0,0,0,0.1c0.5,2.4,1,4.7,1.6,7c0.7,2.3,1.1,4.7,1,7.1c-0.1,2.4-0.4,4.8-0.9,7.1
					c-0.2,1-0.5,1.9-0.9,2.8c-2-0.5-4.2,0.6-4.9,2.6c-0.6,1.6-0.1,3.2,1,4.3c-1.9,1.2-5.4,3.8-7.9,7.7c-3.6,5.7-3.7,12-3.7,12
					s5.7-2.9,9.3-8.6c2.5-3.9,3.3-8.1,3.6-10.3c0.1,0,0.1,0.1,0.2,0.1c2.1,0.7,4.5-0.4,5.3-2.6c0.5-1.5,0.1-3.1-0.9-4.1
					c0.7-0.8,1.4-1.6,2.2-2.3c1.8-1.6,3.8-3,5.8-4.3c2.1-1.3,4.4-2.1,6.8-2.6C393.9,142.2,396.2,141.5,398.6,140.7
					C398.6,140.8,398.6,140.8,398.6,140.7L398.6,140.7z"/>
			</g>
		</g>
		<g>
			<path class="st3" d="M557.4,179.9c0,7-7.5,11.3-13.6,7.8L291.1,41.8l0,0L38.4,187.7c-6,3.5-13.6-0.9-13.6-7.8l0,0
				c0-3.2,1.7-6.2,4.5-7.8L291.1,20.9l0,0L552.9,172C555.6,173.6,557.4,176.6,557.4,179.9L557.4,179.9z"/>
		</g>
	</g>
</g>
</svg>
