<svg width="51" height="38" viewBox="0 0 51 38" fill="none" xmlns="http://www.w3.org/2000/svg">
<path d="M40.198 22.4872C41.9417 22.4872 43.3552 21.0736 43.3552 19.33C43.3552 17.5863 41.9417 16.1728 40.198 16.1728C38.4544 16.1728 37.0409 17.5863 37.0409 19.33C37.0409 21.0736 38.4544 22.4872 40.198 22.4872Z" fill="#E60064"/>
<path d="M33.5907 27.8613L33.7163 19.3343C33.7091 19.0079 34.1785 18.9285 34.3056 19.2347C34.3056 19.2347 36.4994 22.1824 37.106 23.6556C37.2216 23.9372 37.4526 24.1538 37.7415 24.2463L39.349 24.7575C39.619 24.8442 39.9122 24.8139 40.1592 24.6738C41.498 23.9155 45.9998 22.077 45.9998 22.077C46.2886 21.8892 46.6353 22.2503 46.4172 22.5103L40.1317 29.9973L35.7426 37.8223C35.5867 38.0534 35.2112 37.9321 35.2198 37.6533L36.3276 30.7844C36.3073 30.7743 36.3088 30.7743 36.2886 30.7642L35.0133 31.9933C34.7577 32.2403 34.3908 32.3327 34.0485 32.2388C33.5849 32.1103 33.2773 31.6698 33.3163 31.1903L33.5907 27.8613Z" fill="#E60064"/>
<path d="M33.5357 34.2001C33.9026 34.2001 34.2 33.9027 34.2 33.5357C34.2 33.1688 33.9026 32.8714 33.5357 32.8714C33.1688 32.8714 32.8713 33.1688 32.8713 33.5357C32.8713 33.9027 33.1688 34.2001 33.5357 34.2001Z" fill="#E60064"/>
<path d="M32.7731 36.9225C33.2596 36.9225 33.6541 36.5281 33.6541 36.0415C33.6541 35.555 33.2596 35.1605 32.7731 35.1605C32.2865 35.1605 31.8921 35.555 31.8921 36.0415C31.8921 36.5281 32.2865 36.9225 32.7731 36.9225Z" fill="#E60064"/>
<path d="M16.5106 19.3358C16.5106 19.3358 14.6158 23.5906 14.1912 25.0594C14.1016 25.3685 13.8821 25.6226 13.5831 25.7584L12.2631 26.3563C11.9771 26.4849 11.6536 26.495 11.3604 26.3823C9.9407 25.8364 5.60359 24.7171 5.60359 24.7171C5.30896 24.5799 5.02588 24.9511 5.26274 25.1634L12.0854 31.2712L17.1635 37.9133C17.3382 38.1068 17.6776 37.9509 17.6357 37.6967L15.764 31.5398C15.7827 31.5297 15.7798 31.5311 15.7986 31.5196L20.0303 36.017C20.2412 36.2307 20.6051 36.0184 20.5112 35.7368L17.9953 28.5458L17.0782 19.356C17.045 19.0585 16.5944 19.0411 16.5106 19.3358ZM16.7952 26.5715C16.837 26.6611 16.863 26.7535 16.8717 26.8459C16.8833 26.9673 16.8659 27.0886 16.824 27.2012L16.2435 29.0557C16.2391 29.0658 16.2319 29.0744 16.2218 29.0788C16.2117 29.0831 16.2016 29.0845 16.19 29.0802C16.19 29.0802 14.2489 28.5632 13.8532 27.9046C13.6178 27.5132 13.8402 27.0005 14.2648 26.8084C14.5768 26.6668 14.9321 26.7261 15.1761 26.9297C15.1733 26.6163 15.3552 26.3144 15.6672 26.1729C16.0918 25.9794 16.5987 26.1585 16.7952 26.5715Z" fill="#FBBA00"/>
<path d="M13.8778 20.65C13.2914 19.005 11.4847 18.1428 9.84253 18.722C9.53202 18.8317 9.25039 18.9848 9.00053 19.1726C7.71225 18.2656 6.06001 17.4568 5.45631 18.722C4.41067 20.9114 1.7229 23.4187 1.7229 23.4187C1.7229 23.4187 3.75498 24.4976 5.87082 21.6682C6.61606 20.6717 7.43206 20.2399 8.17875 20.0969C7.72525 20.8725 7.60537 21.8343 7.93178 22.7485C8.51815 24.3936 10.3249 25.2558 11.967 24.6766C13.6092 24.0975 14.4642 22.295 13.8778 20.65Z" fill="#FBBA00"/>
<path d="M25.7194 18.2988C25.2269 18.2988 24.7474 18.358 24.2896 18.4692L24.1798 18.3205L24.1928 16.7058C24.2318 16.7072 24.2708 16.7116 24.3098 16.7116C26.0545 16.7116 27.467 15.2976 27.467 13.5544C27.467 11.8097 26.053 10.3972 24.3098 10.3972C22.5651 10.3972 21.1527 11.8112 21.1527 13.5544C21.1527 14.7286 21.7939 15.7497 22.7442 16.2942C21.882 17.2748 20.9534 18.4519 20.9346 18.9935C20.9274 19.1914 21.2003 19.4961 21.6423 19.8572C20.3915 20.9779 19.603 22.6041 19.603 24.4167C19.603 27.7963 22.3427 30.5346 25.7209 30.5346C29.099 30.5346 31.8387 27.7948 31.8387 24.4167C31.8373 21.0386 29.0975 18.2988 25.7194 18.2988ZM25.7194 27.7703C23.8679 27.7703 22.3658 26.2682 22.3658 24.4167C22.3658 23.166 23.0519 22.077 24.0672 21.5007C25.1634 22.168 26.3246 22.8179 27.1507 23.2699C27.4222 23.4187 27.7038 23.0938 27.5204 22.8453L26.2379 21.1079C27.8425 21.3577 29.073 22.7414 29.073 24.4167C29.0715 26.2682 27.571 27.7703 25.7194 27.7703Z" fill="#2F52A0"/>
<path d="M16.2609 11.7534C16.661 11.427 17.0827 11.1064 17.5795 10.9114C17.7023 10.8609 17.8207 10.8031 17.9449 10.7612L18.3335 10.6774C18.592 10.624 18.8476 10.5547 19.1119 10.5879C19.6087 10.559 20.0796 10.6529 20.5215 10.8132C20.6125 9.17541 19.9409 7.86691 19.9409 7.86691C16.2248 8.8519 15.0954 11.6552 14.7863 13.7739C15.146 13.0359 15.6182 12.334 16.2609 11.7534Z" fill="#52AE32"/>
<path d="M19.1899 11.427C18.3566 11.5917 17.6128 11.9787 16.9816 12.555C16.3317 13.1125 15.8132 13.8519 15.3193 14.6131C15.0998 14.9626 14.7416 16.3606 14.7416 16.3606C18.8375 15.2196 20.1677 13.1645 20.4608 11.3606C20.0247 11.3259 19.6015 11.3288 19.1899 11.427Z" fill="#52AE32"/>
<path d="M43.0303 33.0765C42.623 33.517 42.2215 33.9806 41.9601 34.5439C41.8937 34.6825 41.8171 34.8154 41.7593 34.9555L41.6337 35.4003C41.5543 35.6964 41.4546 35.9867 41.4734 36.2957C41.4041 36.8691 41.4792 37.4208 41.6322 37.9436C39.7287 37.9306 38.2628 37.0583 38.2628 37.0583C39.6724 32.8266 43 31.7218 45.4769 31.5152C44.5944 31.8792 43.7481 32.376 43.0303 33.0765Z" fill="#52AE32"/>
<path d="M42.4398 36.4459C42.6911 35.4942 43.1922 34.6594 43.9057 33.9705C44.5975 33.2585 45.4915 32.7111 46.41 32.194C46.8318 31.9659 48.4753 31.651 48.4753 31.651C46.8578 36.3116 44.3808 37.7039 42.2708 37.9119C42.2621 37.4049 42.2953 36.9139 42.4398 36.4459Z" fill="#52AE32"/>
<path d="M6.04568 28.6657C5.4492 28.605 4.83683 28.5617 4.23024 28.6917C4.08004 28.7206 3.92839 28.7408 3.77963 28.7798L3.34924 28.9473C3.06472 29.0614 2.77154 29.1567 2.53757 29.356C2.03785 29.6449 1.64212 30.0363 1.31572 30.4739C0.183421 28.9444 0 27.2474 0 27.2474C4.23024 25.8321 7.11154 27.828 8.76522 29.6853C7.94343 29.1986 7.03788 28.8188 6.04568 28.6657Z" fill="#52AE32"/>
<path d="M2.99819 30.2183C3.91097 29.8471 4.87862 29.7474 5.85783 29.9034C6.84282 30.0291 7.81769 30.4147 8.78246 30.8393C9.21862 31.0386 10.4578 32.1651 10.4578 32.1651C5.75962 33.6715 3.15995 32.5276 1.7258 30.9664C2.12442 30.6516 2.53747 30.3844 2.99819 30.2183Z" fill="#52AE32"/>
<path d="M49.9514 27.7081C49.6712 27.4178 49.3751 27.1275 49.0069 26.9297C48.9173 26.8791 48.8307 26.8228 48.7368 26.7795L48.4422 26.6784C48.2457 26.6134 48.0551 26.534 47.8471 26.5354C47.4644 26.4661 47.0903 26.495 46.7321 26.5773C46.8159 25.2977 47.4601 24.3459 47.4601 24.3459C50.2504 25.4609 50.8613 27.7428 50.9017 29.4167C50.6952 28.8072 50.3948 28.218 49.9514 27.7081Z" fill="#52AE32"/>
<path d="M47.7099 27.1767C48.341 27.3832 48.8812 27.7529 49.3174 28.2613C49.7694 28.7552 50.1016 29.3777 50.4121 30.0161C50.5493 30.3092 50.6952 31.4271 50.6952 31.4271C47.6247 30.1562 46.787 28.4346 46.7292 27.0077C47.0715 27.0207 47.4008 27.0626 47.7099 27.1767Z" fill="#52AE32"/>
<path d="M3.36224 34.7215C3.07194 35.0017 2.78165 35.2978 2.58378 35.666C2.53323 35.7556 2.47691 35.8422 2.43213 35.9361L2.33104 36.2307C2.26604 36.4272 2.18661 36.6178 2.18805 36.8258C2.11873 37.2085 2.14762 37.5826 2.22994 37.9408C0.951768 37.8555 0 37.2099 0 37.2099C1.11497 34.4196 3.3969 33.8087 5.0708 33.7683C4.46277 33.9777 3.87351 34.2781 3.36224 34.7215Z" fill="#52AE32"/>
<path d="M2.83213 36.963C3.03865 36.3318 3.40839 35.7917 3.91677 35.3555C4.4107 34.9035 5.03318 34.5713 5.67154 34.2607C5.96328 34.1235 7.08258 33.9777 7.08258 33.9777C5.81164 37.0482 4.09008 37.8858 2.66315 37.9436C2.6747 37.6013 2.71658 37.2735 2.83213 36.963Z" fill="#52AE32"/>
<path d="M9.30688 16.7072C9.58128 16.648 9.86003 16.5772 10.1113 16.4314C10.1734 16.3967 10.2384 16.3649 10.2991 16.3274L10.4666 16.1902C10.5764 16.0977 10.6934 16.0125 10.7685 15.8898C10.949 15.689 11.0674 15.4565 11.1498 15.2153C11.8762 15.7309 12.2055 16.4588 12.2055 16.4588C10.5302 17.7037 8.95736 17.2358 7.95071 16.6509C8.38544 16.7462 8.84327 16.7838 9.30688 16.7072Z" fill="#52AE32"/>
<path d="M10.4376 15.5735C10.0852 15.871 9.66927 16.0573 9.21144 16.1295C8.75505 16.2176 8.26545 16.1873 7.7744 16.1396C7.55199 16.1136 6.83563 15.793 6.83563 15.793C8.70595 14.4383 10.0289 14.5697 10.8954 15.055C10.7626 15.2528 10.6182 15.4319 10.4376 15.5735Z" fill="#52AE32"/>
<path d="M23.7105 34.2868C23.7177 34.6435 23.7134 35.0089 23.6065 35.3627C23.582 35.4508 23.5632 35.5404 23.5329 35.6256L23.413 35.8726C23.3321 36.0358 23.2613 36.2047 23.1299 36.3347C22.9335 36.6178 22.6822 36.833 22.4063 37.0049C23.2585 37.7515 24.255 37.9436 24.255 37.9436C25.3021 35.5028 24.2579 33.6946 23.2368 32.623C23.4866 33.1342 23.6672 33.6903 23.7105 34.2868Z" fill="#52AE32"/>
<path d="M22.6403 36.0199C22.9046 35.497 23.0114 34.9266 22.9667 34.3373C22.9407 33.7466 22.7587 33.1501 22.555 32.5565C22.4583 32.2879 21.8502 31.4979 21.8502 31.4979C20.7266 34.2116 21.2783 35.8104 22.1348 36.7391C22.3398 36.5167 22.5189 36.2842 22.6403 36.0199Z" fill="#52AE32"/>
<path d="M30.2429 34.7706C29.798 35.0219 29.3359 35.2645 28.8174 35.3714C28.6903 35.4003 28.5646 35.4364 28.4361 35.4566L28.0433 35.4739C27.7818 35.4826 27.5219 35.5086 27.2706 35.432C26.7824 35.3772 26.339 35.2082 25.9361 34.9786C25.575 36.5586 26.0112 37.9436 26.0112 37.9436C29.7937 37.6013 31.3593 35.0594 32.0135 33.0461C31.5398 33.7076 30.9635 34.3128 30.2429 34.7706Z" fill="#52AE32"/>
<path d="M27.3342 34.603C28.1734 34.5799 28.9619 34.3272 29.6725 33.8708C30.399 33.4361 31.0258 32.8021 31.6338 32.142C31.9053 31.8373 32.4859 30.536 32.4859 30.536C28.3077 30.9664 26.6699 32.7486 26.085 34.4557C26.5052 34.5626 26.9183 34.6305 27.3342 34.603Z" fill="#52AE32"/>
<path d="M44.034 29.8702C44.5844 29.8702 45.0306 29.4241 45.0306 28.8737C45.0306 28.3233 44.5844 27.8771 44.034 27.8771C43.4836 27.8771 43.0375 28.3233 43.0375 28.8737C43.0375 29.4241 43.4836 29.8702 44.034 29.8702Z" fill="#F39200"/>
<path d="M45.913 20.0897C46.4633 20.0897 46.9095 19.6435 46.9095 19.0931C46.9095 18.5428 46.4633 18.0966 45.913 18.0966C45.3626 18.0966 44.9164 18.5428 44.9164 19.0931C44.9164 19.6435 45.3626 20.0897 45.913 20.0897Z" fill="#F39200"/>
<path d="M25.4521 9.39927C26.0025 9.39927 26.4486 8.9531 26.4486 8.40272C26.4486 7.85235 26.0025 7.40619 25.4521 7.40619C24.9017 7.40619 24.4556 7.85235 24.4556 8.40272C24.4556 8.9531 24.9017 9.39927 25.4521 9.39927Z" fill="#F39200"/>
<path d="M10.689 36.0776C11.2394 36.0776 11.6856 35.6315 11.6856 35.0811C11.6856 34.5307 11.2394 34.0845 10.689 34.0845C10.1386 34.0845 9.69247 34.5307 9.69247 35.0811C9.69247 35.6315 10.1386 36.0776 10.689 36.0776Z" fill="#F39200"/>
<path d="M14.7863 19.4369C15.3366 19.4369 15.7828 18.9907 15.7828 18.4403C15.7828 17.89 15.3366 17.4438 14.7863 17.4438C14.2359 17.4438 13.7897 17.89 13.7897 18.4403C13.7897 18.9907 14.2359 19.4369 14.7863 19.4369Z" fill="#F39200"/>
<path d="M32.5552 10.5576C32.2475 9.61157 31.7175 8.81867 31.6034 7.79758C31.095 8.13553 30.7455 8.41428 30.7859 9.08586C30.1808 8.73058 29.697 9.64479 29.9613 10.1257C29.0644 10.416 28.543 11.2508 29.3243 11.9859C28.8275 12.4712 29.203 13.0316 29.7027 13.332C29.359 13.4894 29.0687 13.7321 28.9012 14.1234C28.5849 14.8615 29.1424 15.2702 29.8356 15.3713C31.1354 15.5605 32.4801 13.332 32.4801 13.3291C32.4916 13.3161 32.5032 13.3045 32.5133 13.2887C32.9841 12.5969 32.7906 11.2811 32.5552 10.5576Z" fill="#00A8A8"/>
<path d="M35.822 12.5839C36.8388 12.4409 37.8151 12.5752 38.8145 12.2199C38.7307 12.8438 38.6296 13.2944 37.9884 13.5616C38.5906 13.9631 37.9609 14.8239 37.3962 14.7979C37.532 15.7612 36.9933 16.6235 35.9578 16.2306C35.731 16.9109 35.0421 16.8156 34.5366 16.4877C34.5453 16.8777 34.4514 17.2561 34.164 17.5897C33.6209 18.2165 32.9898 17.8843 32.584 17.2878C31.82 16.1671 33.2815 13.9126 33.283 13.9112C33.2902 13.8953 33.296 13.8794 33.3061 13.862C33.7365 13.1067 35.045 12.6922 35.822 12.5839Z" fill="#00A8A8"/>
<path d="M35.7253 11.4487C35.4913 11.4616 35.2588 11.5093 35.0363 11.5873C34.8168 11.6754 34.606 11.7751 34.3879 11.866C34.1727 11.9614 33.9661 12.0856 33.7914 12.2502C33.7163 12.3195 33.6499 12.399 33.5906 12.4842C33.569 12.4683 33.5459 12.4553 33.5199 12.4437C33.5617 12.3571 33.5979 12.2661 33.621 12.1722C33.6816 11.9426 33.6917 11.7043 33.6701 11.4718C33.6441 11.2407 33.6296 11.0096 33.6007 10.7785C33.5603 10.5489 33.4895 10.3265 33.387 10.1185C33.387 10.117 33.3841 10.1156 33.3827 10.1156C33.3798 10.1156 33.3783 10.1185 33.3798 10.1214C33.4274 10.3481 33.4794 10.5705 33.5314 10.793C33.595 11.0125 33.6369 11.2421 33.6239 11.4732C33.6137 11.7028 33.5877 11.931 33.5358 12.152C33.5141 12.243 33.4852 12.3325 33.452 12.4206C33.2585 12.3759 33.0548 12.4813 32.9855 12.6734C32.9321 12.8236 32.9739 12.981 33.0808 13.0836C32.8974 13.2005 32.5681 13.4461 32.3298 13.8216C31.9861 14.3646 31.9716 14.9683 31.9716 14.9683C31.9716 14.9683 32.5147 14.691 32.8598 14.1494C33.0953 13.7782 33.1761 13.3796 33.2036 13.1644C33.2108 13.1673 33.2166 13.1702 33.2223 13.1731C33.426 13.2424 33.6527 13.1327 33.725 12.9276C33.7769 12.7846 33.738 12.6344 33.6426 12.5318C33.7076 12.4553 33.7769 12.3831 33.8506 12.3167C34.021 12.1636 34.2102 12.0307 34.4081 11.9108C34.606 11.7866 34.8298 11.7115 35.0566 11.6581C35.279 11.5931 35.5014 11.531 35.7267 11.4602C35.7281 11.4588 35.7296 11.4573 35.7296 11.4559C35.7296 11.4501 35.7281 11.4487 35.7253 11.4487Z" fill="#00A8A8"/>
<path d="M50.9044 15.1907C50.9044 15.8551 50.1852 16.271 49.6089 15.9389L25.4522 1.99452L1.2955 15.9389C0.719242 16.271 0 15.8551 0 15.1907C0 14.8817 0.164646 14.5971 0.431834 14.4426L25.4522 0L50.4726 14.4426C50.7398 14.5971 50.9044 14.8817 50.9044 15.1907Z" fill="#2F52A0"/>
</svg>
