<svg width="170" height="170" viewBox="0 0 170 170" fill="none" xmlns="http://www.w3.org/2000/svg">
<g clip-path="url(#clip0_289_1072)">
<path d="M85.1409 158.766C125.975 158.766 159.078 125.664 159.078 84.8295C159.078 43.9953 125.975 10.8926 85.1409 10.8926C44.3066 10.8926 11.204 43.9953 11.204 84.8295C11.204 125.664 44.3066 158.766 85.1409 158.766Z" fill="#3E834F"/>
<path d="M85.2002 112.513C76.738 112.513 68.9723 111.105 62.0958 108.304C56.5828 106.066 51.6329 102.939 47.4092 99.0121C40.1771 92.2986 37.554 85.6148 37.4502 85.3332C37.2872 84.9183 37.302 84.4588 37.4947 84.0439C37.628 83.7623 40.7402 77.123 48.1947 70.454C52.5666 66.5415 57.5313 63.4145 62.9554 61.1766C69.7133 58.3905 77.2122 56.9678 85.215 56.9678C95.2778 56.9678 104.451 59.1908 112.484 63.5627C118.323 66.749 123.436 70.9727 127.689 76.1448C128.267 76.8562 128.163 77.8936 127.467 78.4716C126.755 79.0495 125.718 78.9458 125.14 78.2493C118.397 70.0538 106.007 60.2875 85.2298 60.2875C71.5362 60.2875 59.8728 64.5111 50.5363 72.8252C44.8454 77.9084 41.7925 83.0509 40.8588 84.8145C41.6739 86.5781 44.3563 91.691 49.8249 96.7298C58.8354 105.029 70.7507 109.238 85.2447 109.238C99.7386 109.238 111.654 105.029 120.664 96.7298C127.393 90.535 129.882 84.2365 129.912 84.1773C130.238 83.3325 131.201 82.9027 132.046 83.2288C132.891 83.5548 133.321 84.5033 132.995 85.3629C132.891 85.6444 130.268 92.3283 123.036 99.0417C118.812 102.969 113.862 106.096 108.349 108.334C101.428 111.105 93.6624 112.513 85.2002 112.513Z" fill="white"/>
<path d="M85.2002 112.721C69.7726 112.721 57.2349 100.168 57.2349 84.7553C57.2349 69.3426 69.7874 56.79 85.2002 56.79C100.628 56.79 113.165 69.3426 113.165 84.7553C113.165 100.168 100.613 112.721 85.2002 112.721ZM85.2002 60.0801C71.5954 60.0801 60.5397 71.1506 60.5397 84.7405C60.5397 98.3304 71.6102 109.401 85.2002 109.401C98.7901 109.401 109.861 98.3304 109.861 84.7405C109.861 71.1506 98.7901 60.0801 85.2002 60.0801Z" fill="white"/>
<path d="M85.2002 112.721C80.6653 112.721 76.4861 109.683 73.4183 104.17C70.5284 98.9529 68.9279 92.0616 68.9279 84.7553C68.9279 77.4491 70.5284 70.5578 73.4183 65.3412C76.4861 59.8281 80.6653 56.79 85.2002 56.79C89.7351 56.79 93.9144 59.8281 96.9821 65.3412C99.872 70.5578 101.473 77.4491 101.473 84.7553C101.473 92.0616 99.872 98.9529 96.9821 104.17C93.9144 109.683 89.7203 112.721 85.2002 112.721ZM85.2002 60.0801C81.925 60.0801 78.7683 62.5105 76.3082 66.9417C73.6851 71.6693 72.2327 77.9974 72.2327 84.7553C72.2327 91.5133 73.6851 97.8266 76.3082 102.569C78.7683 106.985 81.925 109.431 85.2002 109.431C88.4754 109.431 91.6321 107 94.0922 102.569C96.7153 97.8414 98.1677 91.5133 98.1677 84.7553C98.1677 77.9974 96.7153 71.6841 94.0922 66.9417C91.6321 62.5254 88.4754 60.0801 85.2002 60.0801Z" fill="white"/>
<path d="M85.2002 112.721C84.2814 112.721 83.5552 111.98 83.5552 111.076V58.4351C83.5552 57.531 84.2962 56.79 85.2002 56.79C86.1042 56.79 86.8452 57.531 86.8452 58.4351V111.076C86.8452 111.98 86.1042 112.721 85.2002 112.721Z" fill="white"/>
<path d="M110.053 93.7068H60.3323C59.4283 93.7068 58.6873 92.9658 58.6873 92.0618C58.6873 91.1577 59.4283 90.4167 60.3323 90.4167H110.038C110.957 90.4167 111.684 91.1577 111.684 92.0618C111.684 92.9658 110.957 93.7068 110.053 93.7068Z" fill="white"/>
<path d="M110.053 79.0942H60.3323C59.4283 79.0942 58.6873 78.3532 58.6873 77.4492C58.6873 76.5452 59.4283 75.8042 60.3323 75.8042H110.038C110.957 75.8042 111.684 76.5452 111.684 77.4492C111.684 78.3532 110.957 79.0942 110.053 79.0942Z" fill="white"/>
<path d="M27.002 128.786L17.2653 136.151C23.6379 144.524 31.4776 151.594 40.3548 157.077L46.7422 146.718C39.1099 142.005 32.4113 135.914 27.002 128.786Z" fill="#F49A2C"/>
<path d="M155.18 104.718L166.784 107.993C169.6 98.1379 170.637 87.6601 169.63 76.9897L157.625 78.1161C157.833 80.3242 157.937 82.5472 157.937 84.7999C157.937 91.706 156.973 98.3898 155.18 104.718Z" fill="#E7422F"/>
<path d="M12.4784 78.3088L0.355681 77.1973C-0.355679 84.8296 -0.014819 92.699 1.482 100.598C1.97106 103.177 2.56386 105.726 3.27522 108.201L14.983 104.851C13.1601 98.4788 12.182 91.7505 12.182 84.7999C12.182 82.6066 12.2858 80.4428 12.4784 78.3088Z" fill="#407F46"/>
<path d="M35.8051 31.1664L27.669 22.2744C19.9329 29.3435 13.5752 37.7909 8.90686 47.1423L19.7254 52.5072C23.7417 44.4303 29.2102 37.1981 35.8051 31.1664Z" fill="#62B133"/>
<path d="M123.45 146.673L129.867 156.988C138.834 151.416 146.599 144.243 152.853 135.959L143.191 128.697C137.781 135.84 131.083 141.946 123.45 146.673Z" fill="#FBC208"/>
<path d="M152.883 135.929C159.152 127.615 163.879 118.16 166.769 108.052L155.165 104.777C152.675 113.521 148.585 121.598 143.22 128.667L152.883 135.929Z" fill="#2CBAE0"/>
<path d="M3.29004 108.26C6.23922 118.56 11.0261 127.941 17.2356 136.107L26.9724 128.741C21.6224 121.687 17.5172 113.64 15.0126 104.911L3.29004 108.26Z" fill="#BE8A30"/>
<path d="M8.89202 47.1868C4.28301 56.4493 1.33383 66.5861 0.355713 77.1379L12.4785 78.2494C13.2936 69.0907 15.813 60.421 19.7106 52.5664L8.89202 47.1868Z" fill="#1595D3"/>
<path d="M142.138 22.0965C134.388 15.0866 125.392 9.51432 115.625 5.73523L111.313 16.8947C119.775 20.1551 127.481 24.9567 134.076 30.9588L142.138 22.0965Z" fill="#DDA639"/>
<path d="M150.275 52.2997L161.034 46.9348C156.292 37.45 149.845 29.0916 142.183 22.141L134.121 30.9885C140.745 37.0054 146.244 44.2228 150.275 52.2997Z" fill="#4B9D38"/>
<path d="M111.268 16.8651L115.581 5.70565C105.963 1.98584 95.5888 -0.0148603 84.9185 -4.03277e-05L84.9333 12.019C84.9777 12.019 85.0074 12.019 85.0518 12.019C94.2995 12.019 103.132 13.7381 111.268 16.8651Z" fill="#E5263C"/>
<path d="M84.874 0C79.7315 0.01482 74.5149 0.489059 69.2834 1.46718C64.052 2.4453 59.0132 3.89766 54.2263 5.75015L58.5834 16.9541C66.7344 13.7826 75.6116 12.019 84.874 12.0042V0Z" fill="#19496B"/>
<path d="M169.629 76.9304C169.392 74.3666 169.022 71.7731 168.533 69.1944C167.036 61.2953 164.502 53.8409 161.064 46.9792L150.304 52.3441C154.231 60.2135 156.781 68.8832 157.625 78.0567L169.629 76.9304Z" fill="#C31D2F"/>
<path d="M54.1671 5.77979C44.2229 9.6478 35.3013 15.2794 27.6986 22.23L35.8348 31.122C42.4 25.105 50.0916 20.2737 58.5242 16.9837L54.1671 5.77979Z" fill="#00699E"/>
<path d="M40.3993 157.107C49.232 162.56 59.0873 166.414 69.4613 168.355L71.6843 156.366C62.7034 154.706 54.2856 151.386 46.7867 146.762L40.3993 157.107Z" fill="#DD1569"/>
<path d="M71.7435 156.366L69.5205 168.355C79.5536 170.222 90.0906 170.311 100.702 168.311L98.4491 156.351C94.1069 157.151 89.646 157.581 85.0667 157.581C80.5169 157.581 76.0561 157.166 71.7435 156.366Z" fill="#EC6A30"/>
<path d="M100.746 168.31C111.357 166.31 121.139 162.412 129.808 157.032L123.391 146.718C115.892 151.356 107.475 154.676 98.4937 156.351L100.746 168.31Z" fill="#A21B43"/>
<path d="M85.037 84.9628L85.0222 84.948V84.9776L85.0519 85.0369L85.037 84.9628Z" fill="#F49A2C"/>
<path d="M85.0371 84.963L85.1112 85.0074L85.0668 84.9482L85.0371 84.9333V84.963Z" fill="#F49A2C"/>
<path d="M85.0222 84.9482L85.037 84.963L85.0222 84.9333V84.9482Z" fill="#F49A2C"/>
<path d="M85.037 84.963V84.9333H85.0222L85.037 84.963Z" fill="#F49A2C"/>
<path d="M85.0519 84.9185L85.0667 84.9481L85.1408 84.9629L85.0815 84.9185H85.0519Z" fill="#F49A2C"/>
<path d="M85.0371 84.9333L85.0668 84.9481L85.0371 84.9185V84.9333Z" fill="#F49A2C"/>
<path d="M85.0371 84.9185L85.0668 84.9481L85.0519 84.9185H85.0371Z" fill="#F49A2C"/>
<path d="M85.0222 84.9185V84.9333H85.037V84.9185H85.0222Z" fill="#F49A2C"/>
<path d="M85.0815 84.8889L85.0519 84.9037L85.0815 84.9186L85.1556 84.9037L85.0815 84.8889Z" fill="#F49A2C"/>
<path d="M85.0371 84.9036L85.0816 84.9184L85.0519 84.9036H85.0371Z" fill="#F49A2C"/>
<path d="M85.0816 84.9184L85.0371 84.9036L85.0519 84.9184H85.0816Z" fill="#F49A2C"/>
<path d="M85.0371 84.9184H85.0519L85.0371 84.9036V84.9184Z" fill="#F49A2C"/>
<path d="M85.0815 84.8888L85.1408 84.8591H85.0667L85.0519 84.8888H85.0815Z" fill="#F49A2C"/>
<path d="M85.0519 84.9037L85.0816 84.8889H85.0371L85.0519 84.9037Z" fill="#F49A2C"/>
<path d="M85.0371 84.8889V84.9037H85.0519L85.0371 84.8889Z" fill="#F49A2C"/>
<path d="M85.0222 84.9036V84.9184H85.037V84.9036H85.0222Z" fill="#F49A2C"/>
<path d="M85.0667 84.8591L85.126 84.7998L85.0519 84.8443V84.8591H85.0667Z" fill="#F49A2C"/>
<path d="M85.0371 84.874L85.0519 84.8888L85.0668 84.8591L85.0371 84.874Z" fill="#F49A2C"/>
<path d="M85.0668 84.8591H85.0519L85.0371 84.874L85.0668 84.8591Z" fill="#F49A2C"/>
<path d="M85.0371 84.8888H85.0519L85.0371 84.874V84.8888Z" fill="#F49A2C"/>
<path d="M85.0519 84.8444L85.0816 84.7703L85.0371 84.8295V84.8444H85.0519Z" fill="#F49A2C"/>
<path d="M85.0371 84.8591H85.0519V84.8442L85.0371 84.8591Z" fill="#F49A2C"/>
<path d="M85.0519 84.8442H85.0371V84.8591L85.0519 84.8442Z" fill="#F49A2C"/>
<path d="M85.0371 84.874L85.0519 84.8591H85.0371V84.874Z" fill="#F49A2C"/>
<path d="M85.0371 84.9037H85.0074H85.0371H85.0223H85.0371V84.8889V84.9037Z" fill="#F49A2C"/>
<path d="M85.0371 84.8296V84.7407L85.0074 84.8148V84.8445L85.0371 84.8296Z" fill="#F49A2C"/>
<path d="M85.0222 84.8592L85.037 84.8444V84.8296L85.0222 84.8592Z" fill="#F49A2C"/>
<path d="M85.0371 84.8296L85.0074 84.8444L85.0223 84.8592L85.0371 84.8296Z" fill="#F49A2C"/>
<path d="M85.037 84.8591V84.8442L85.0222 84.8591V84.8739L85.037 84.8591Z" fill="#F49A2C"/>
<path d="M85.0222 84.874L85.037 84.8591L85.0222 84.874Z" fill="#F49A2C"/>
<path d="M85.037 84.8888V84.874H85.0222L85.037 84.8888Z" fill="#F49A2C"/>
<path d="M85.0222 84.8888H85.037L85.0222 84.874V84.8888Z" fill="#F49A2C"/>
<path d="M85.0074 84.9037L85.0371 84.8889H85.0223L85.0074 84.9037Z" fill="#F49A2C"/>
<path d="M85.0074 84.9037H85.0371V84.8889L85.0074 84.9037Z" fill="#F49A2C"/>
<path d="M85.0371 84.8889L85.0074 84.9037L85.0371 84.8889Z" fill="#F49A2C"/>
<path d="M84.9926 84.8445L85.0074 84.8148L84.9778 84.7407V84.8296L84.9926 84.8445Z" fill="#F49A2C"/>
<path d="M85.0074 84.8147L84.9926 84.8443L85.0074 84.8592V84.8147Z" fill="#F49A2C"/>
<path d="M85.0223 84.8591L85.0074 84.8442V84.8591H85.0223Z" fill="#F49A2C"/>
<path d="M85.0223 84.8591H85.0074V84.874L85.0223 84.8591Z" fill="#F49A2C"/>
<path d="M85.0074 84.874H85.0223V84.8591L85.0074 84.874Z" fill="#F49A2C"/>
<path d="M85.0074 84.9037L85.0223 84.8888V84.874L85.0074 84.9037Z" fill="#F49A2C"/>
<path d="M85.0223 84.8889L85.0074 84.9037L85.0223 84.8889Z" fill="#F49A2C"/>
<path d="M85.0074 84.9037L85.0223 84.8889L85.0074 84.9037Z" fill="#F49A2C"/>
<path d="M84.9777 84.8444V84.8295L84.9185 84.7703L84.9481 84.8444H84.9777Z" fill="#F49A2C"/>
<path d="M84.9926 84.8592L84.9778 84.8296V84.8444L84.9926 84.8592Z" fill="#F49A2C"/>
<path d="M84.9926 84.8444L84.9778 84.8296L84.9926 84.8592V84.8444Z" fill="#F49A2C"/>
<path d="M84.9926 84.8591H85.0074L84.9926 84.8442V84.8591Z" fill="#F49A2C"/>
<path d="M85.0223 84.874L85.0074 84.9037L85.0223 84.874H85.0074H85.0223Z" fill="#F49A2C"/>
<path d="M85.0074 84.9037L85.0223 84.874L85.0074 84.9037Z" fill="#F49A2C"/>
<path d="M85.0074 84.9037L85.0223 84.874L85.0074 84.9037Z" fill="#F49A2C"/>
<path d="M84.9482 84.8443L84.8889 84.7998L84.9334 84.8591H84.963L84.9482 84.8443Z" fill="#F49A2C"/>
<path d="M84.9778 84.8591L84.9481 84.8442L84.9629 84.8591H84.9778Z" fill="#F49A2C"/>
<path d="M84.9481 84.8442L84.9778 84.8591V84.8442H84.9481Z" fill="#F49A2C"/>
<path d="M84.9778 84.8739L84.9926 84.8591L84.9778 84.8442V84.8591V84.8739Z" fill="#F49A2C"/>
<path d="M84.9926 84.8591L84.9778 84.874H84.9926V84.8591Z" fill="#F49A2C"/>
<path d="M84.9926 84.874L85.0074 84.8591H84.9926V84.874Z" fill="#F49A2C"/>
<path d="M85.0074 84.874V84.8591L84.9926 84.874H85.0074Z" fill="#F49A2C"/>
<path d="M85.0223 84.874H85.0074V84.9037L85.0223 84.874Z" fill="#F49A2C"/>
<path d="M84.9482 84.8888L84.9334 84.8591H84.8593L84.9334 84.8888H84.9482Z" fill="#F49A2C"/>
<path d="M84.963 84.874V84.8591H84.9333L84.963 84.874Z" fill="#F49A2C"/>
<path d="M84.963 84.874L84.9333 84.8591L84.9482 84.8888L84.963 84.874Z" fill="#F49A2C"/>
<path d="M84.9778 84.874V84.8591H84.963V84.874H84.9778Z" fill="#F49A2C"/>
<path d="M84.9926 84.874L85.0074 84.9037V84.8888V84.874H84.9926Z" fill="#F49A2C"/>
<path d="M84.9482 84.9037L84.9334 84.8889L84.8593 84.9037L84.9334 84.9186L84.9482 84.9037Z" fill="#F49A2C"/>
<path d="M84.963 84.8889H84.9333L84.9482 84.9037L84.963 84.8889Z" fill="#F49A2C"/>
<path d="M84.9629 84.8888V84.874L84.9481 84.8888H84.9629Z" fill="#F49A2C"/>
<path d="M84.963 84.874V84.8888H84.9778L84.963 84.874Z" fill="#F49A2C"/>
<path d="M84.9778 84.8888V84.874H84.963L84.9778 84.8888Z" fill="#F49A2C"/>
<path d="M84.9926 84.874L85.0074 84.9037L84.9926 84.874H84.9778H84.9926Z" fill="#F49A2C"/>
<path d="M84.9926 84.874L85.0074 84.9037L84.9926 84.874Z" fill="#F49A2C"/>
<path d="M84.9926 84.874L85.0074 84.9037L84.9926 84.874Z" fill="#F49A2C"/>
<path d="M84.9333 84.9185L84.874 84.9629L84.9481 84.9481L84.9629 84.9185H84.9333Z" fill="#F49A2C"/>
<path d="M84.963 84.9036H84.9482L84.9333 84.9184L84.963 84.9036Z" fill="#F49A2C"/>
<path d="M84.9333 84.9184H84.963V84.9036L84.9333 84.9184Z" fill="#F49A2C"/>
<path d="M84.9629 84.9037V84.8889L84.9481 84.9037H84.9629Z" fill="#F49A2C"/>
<path d="M84.963 84.8889V84.9037L84.9778 84.8889H84.963Z" fill="#F49A2C"/>
<path d="M84.9778 84.8888L85.0074 84.9037L84.9778 84.874V84.8888Z" fill="#F49A2C"/>
<path d="M84.9926 84.874H84.9778L85.0074 84.9037L84.9926 84.874Z" fill="#F49A2C"/>
<path d="M84.9778 84.874L85.0074 84.9037L84.9778 84.874Z" fill="#F49A2C"/>
<path d="M84.9481 84.9482L84.9037 85.0074L84.963 84.963V84.9333L84.9481 84.9482Z" fill="#F49A2C"/>
<path d="M84.9629 84.9185L84.9481 84.9481L84.9629 84.9185Z" fill="#F49A2C"/>
<path d="M84.9481 84.9481L84.9629 84.9333V84.9185L84.9481 84.9481Z" fill="#F49A2C"/>
<path d="M84.963 84.9184H84.9778L84.963 84.9036V84.9184Z" fill="#F49A2C"/>
<path d="M84.963 84.9036L84.9778 84.9184V84.9036H84.963Z" fill="#F49A2C"/>
<path d="M84.9778 84.9037V84.8889L84.963 84.9037H84.9778Z" fill="#F49A2C"/>
<path d="M84.9778 84.8889L85.0074 84.9037L84.9778 84.8889Z" fill="#F49A2C"/>
<path d="M85.0074 84.9037L84.9778 84.8889L85.0074 84.9037Z" fill="#F49A2C"/>
<path d="M84.9778 84.8889L85.0074 84.9037L84.9778 84.8889Z" fill="#F49A2C"/>
<path d="M84.9926 84.9776L85.0074 85.0517L85.0222 84.9776L85.0074 84.948L84.9926 84.9776Z" fill="#F49A2C"/>
<path d="M85.0074 84.9482L85.0223 84.9778L85.0074 84.9333V84.9482Z" fill="#F49A2C"/>
<path d="M85.0074 84.9333L85.0223 84.9778V84.9482L85.0074 84.9333Z" fill="#F49A2C"/>
<path d="M85.0223 84.9333H85.0074L85.0223 84.9482V84.9333Z" fill="#F49A2C"/>
<path d="M85.0223 84.9036H85.0074H85.0223V84.9184V84.9036Z" fill="#F49A2C"/>
<path d="M84.9629 84.9628L84.9481 85.0369L84.9926 84.9776L84.9778 84.948L84.9629 84.9628Z" fill="#F49A2C"/>
<path d="M84.9778 84.9482L84.9926 84.9778V84.9333L84.9778 84.9482Z" fill="#F49A2C"/>
<path d="M84.9926 84.9333V84.9778L85.0074 84.9482L84.9926 84.9333Z" fill="#F49A2C"/>
<path d="M84.9926 84.9333L85.0074 84.9482V84.9333H84.9926Z" fill="#F49A2C"/>
<path d="M85.0223 84.9185H85.0074V84.9333H85.0223V84.9185Z" fill="#F49A2C"/>
<path d="M85.0223 84.9184L85.0074 84.9036L85.0223 84.9184Z" fill="#F49A2C"/>
<path d="M85.0223 84.9184L85.0074 84.9036L85.0223 84.9184Z" fill="#F49A2C"/>
<path d="M85.0074 84.9036L85.0223 84.9184V84.9036H85.0074Z" fill="#F49A2C"/>
<path d="M84.9778 84.9333H84.963V84.963L84.9778 84.9333Z" fill="#F49A2C"/>
<path d="M84.9778 84.9333L84.963 84.963L84.9778 84.9482V84.9333Z" fill="#F49A2C"/>
<path d="M84.9778 84.9333V84.9482L84.9926 84.9333H84.9778Z" fill="#F49A2C"/>
<path d="M84.9926 84.9333H85.0074V84.9185L84.9926 84.9333Z" fill="#F49A2C"/>
<path d="M85.0223 84.9184L85.0074 84.9036V84.9184H85.0223Z" fill="#F49A2C"/>
<path d="M85.0223 84.9184L85.0074 84.9036L85.0223 84.9184Z" fill="#F49A2C"/>
<path d="M85.0223 84.9184L85.0074 84.9036L85.0223 84.9184Z" fill="#F49A2C"/>
<path d="M84.963 84.9185V84.9333H84.9778V84.9185H84.963Z" fill="#F49A2C"/>
<path d="M84.9778 84.9333H84.9926V84.9185L84.9778 84.9333Z" fill="#F49A2C"/>
<path d="M84.9926 84.9185H84.9778V84.9333L84.9926 84.9185Z" fill="#F49A2C"/>
<path d="M84.9926 84.9333L85.0074 84.9185H84.9926V84.9333Z" fill="#F49A2C"/>
<path d="M85.0074 84.9036V84.9184H84.9926H85.0074V84.9036Z" fill="#F49A2C"/>
<path d="M85.0074 84.9036L84.9926 84.9184L85.0074 84.9036Z" fill="#F49A2C"/>
<path d="M85.0074 84.9036L84.9926 84.9184H85.0074V84.9036Z" fill="#F49A2C"/>
<path d="M84.9926 84.9184L85.0074 84.9036L84.9926 84.9184Z" fill="#F49A2C"/>
<path d="M85.0074 84.9036L84.9778 84.9184H84.9926L85.0074 84.9036Z" fill="#F49A2C"/>
<path d="M84.9926 84.9184L85.0074 84.9036L84.9926 84.9184Z" fill="#F49A2C"/>
<path d="M85.0074 84.9036L84.9926 84.9184L85.0074 84.9036Z" fill="#F49A2C"/>
<path d="M84.9778 84.9036H85.0074H84.9778V84.9184V84.9036Z" fill="#F49A2C"/>
<path d="M84.9778 84.9036V84.9184L85.0074 84.9036H84.9778Z" fill="#F49A2C"/>
<path d="M84.9778 84.9184L85.0074 84.9036L84.9778 84.9184Z" fill="#F49A2C"/>
<path d="M84.9778 84.9037H85.0074H84.9778V84.8889V84.9037Z" fill="#F49A2C"/>
<path d="M84.9778 84.8889V84.9037H85.0074L84.9778 84.8889Z" fill="#F49A2C"/>
<path d="M85.0074 84.9037L84.9778 84.8889L85.0074 84.9037Z" fill="#F49A2C"/>
</g>
<defs>
<clipPath id="clip0_289_1072">
<rect width="170" height="169.793" fill="white"/>
</clipPath>
</defs>
</svg>
