<svg width="170" height="171" viewBox="0 0 170 171" fill="none" xmlns="http://www.w3.org/2000/svg">
<g clip-path="url(#clip0_289_1389)">
<path d="M85.1853 169.63C132.027 169.63 170 131.657 170 84.8148C170 37.9729 132.027 0 85.1853 0C38.3434 0 0.370514 37.9729 0.370514 84.8148C0.370514 131.657 38.3434 169.63 85.1853 169.63Z" fill="#FBC208"/>
<path d="M27.002 129.216L17.2653 136.581C23.6379 144.954 31.4777 152.024 40.3548 157.507L46.7571 147.148C39.1099 142.42 32.4113 136.329 27.002 129.216Z" fill="#F49A2C"/>
<path d="M155.18 105.133L166.784 108.408C169.6 98.5529 170.637 88.0752 169.63 77.4048L157.625 78.5311C157.833 80.7393 157.937 82.9623 157.937 85.2149C157.937 92.121 156.973 98.8048 155.18 105.133Z" fill="#E7422F"/>
<path d="M12.4784 78.7238L0.355681 77.6123C-0.355679 85.2594 -0.014819 93.114 1.482 101.013C1.97106 103.592 2.56386 106.141 3.27522 108.616L14.983 105.266C13.1601 98.8938 12.182 92.1655 12.182 85.215C12.182 83.0364 12.2858 80.8579 12.4784 78.7238Z" fill="#407F46"/>
<path d="M35.8051 31.5814L27.6689 22.6895C19.9477 29.7734 13.5899 38.2208 8.92163 47.5574L19.7402 52.9222C23.7416 44.8453 29.2102 37.6132 35.8051 31.5814Z" fill="#62B133"/>
<path d="M123.45 147.103L129.867 157.418C138.834 151.846 146.599 144.673 152.853 136.388L143.191 129.126C137.781 136.255 131.083 142.361 123.45 147.103Z" fill="#FBC208"/>
<path d="M152.883 136.344C159.152 128.03 163.879 118.575 166.769 108.468L155.165 105.192C152.675 113.936 148.585 122.013 143.22 129.082L152.883 136.344Z" fill="#2CBAE0"/>
<path d="M3.29004 108.675C6.23922 118.975 11.0261 128.371 17.2356 136.522L26.9724 129.156C21.6224 122.102 17.5172 114.055 15.0126 105.326L3.29004 108.675Z" fill="#BE8A30"/>
<path d="M8.89199 47.6167C4.28298 56.8792 1.3338 67.0161 0.355682 77.5679L12.4784 78.6794C13.2935 69.5206 15.8129 60.8509 19.7106 52.9963L8.89199 47.6167Z" fill="#1595D3"/>
<path d="M142.138 22.5116C134.388 15.5018 125.392 9.92949 115.625 6.15039L111.313 17.3098C119.775 20.5702 127.481 25.3719 134.076 31.374L142.138 22.5116Z" fill="#DDA639"/>
<path d="M150.275 52.7148L161.034 47.35C156.292 37.8652 149.845 29.5067 142.183 22.5562L134.121 31.4037C140.745 37.4206 146.244 44.6379 150.275 52.7148Z" fill="#4B9D38"/>
<path d="M111.268 17.2803L115.581 6.12081C105.963 2.41582 95.5889 0.4003 84.9185 0.41512L84.9333 12.4341C84.9778 12.4341 85.0074 12.4341 85.0519 12.4341C94.2995 12.4341 103.132 14.1532 111.268 17.2803Z" fill="#E5263C"/>
<path d="M84.874 0.415039C79.7315 0.429859 74.5149 0.904098 69.2834 1.88222C64.052 2.86034 59.0132 4.31269 54.2263 6.16519L58.5834 17.3691C66.7344 14.1976 75.6116 12.434 84.874 12.4192V0.415039Z" fill="#19496B"/>
<path d="M169.63 77.3455C169.392 74.7816 169.022 72.1881 168.533 69.6094C167.036 61.7104 164.502 54.2559 161.064 47.3943L150.304 52.7591C154.232 60.6285 156.781 69.2982 157.625 78.4718L169.63 77.3455Z" fill="#C31D2F"/>
<path d="M54.167 6.19482C44.2228 10.0628 35.3012 15.6944 27.6985 22.645L35.8347 31.537C42.4 25.5201 50.0915 20.6888 58.5241 17.3987L54.167 6.19482Z" fill="#00699E"/>
<path d="M40.3993 157.522C49.232 162.975 59.0873 166.829 69.4612 168.77L71.6842 156.781C62.7033 155.121 54.2856 151.801 46.7867 147.177L40.3993 157.522Z" fill="#DD1569"/>
<path d="M71.7435 156.796L69.5205 168.785C79.5537 170.652 90.0907 170.741 100.702 168.74L98.4491 156.781C94.1069 157.581 89.6461 158.011 85.0667 158.011C80.517 158.011 76.0561 157.581 71.7435 156.796Z" fill="#EC6A30"/>
<path d="M100.746 168.74C111.357 166.74 121.139 162.842 129.808 157.462L123.391 147.148C115.892 151.786 107.474 155.106 98.4936 156.781L100.746 168.74Z" fill="#A21B43"/>
<path d="M85.037 85.3781L85.0222 85.3633V85.3929L85.0519 85.4522L85.037 85.3781Z" fill="#F49A2C"/>
<path d="M85.037 85.378L85.1111 85.4225L85.0667 85.3632L85.037 85.3484V85.378Z" fill="#F49A2C"/>
<path d="M85.0222 85.3632L85.037 85.378L85.0222 85.3484V85.3632Z" fill="#F49A2C"/>
<path d="M85.037 85.378V85.3484H85.0222L85.037 85.378Z" fill="#F49A2C"/>
<path d="M85.0519 85.3335L85.0667 85.3631L85.1408 85.378L85.0815 85.3335H85.0519Z" fill="#F49A2C"/>
<path d="M85.037 85.3484L85.0667 85.3632L85.037 85.3484Z" fill="#F49A2C"/>
<path d="M85.037 85.3483L85.0667 85.3631L85.0519 85.3335L85.037 85.3483Z" fill="#F49A2C"/>
<path d="M85.0815 85.304L85.0519 85.3188L85.0815 85.3336H85.1556L85.0815 85.304Z" fill="#F49A2C"/>
<path d="M85.037 85.3334H85.0815L85.0519 85.3186L85.037 85.3334Z" fill="#F49A2C"/>
<path d="M85.037 85.3483L85.0519 85.3335H85.037V85.3483Z" fill="#F49A2C"/>
<path d="M85.037 85.3483L85.0222 85.3335V85.3483H85.037Z" fill="#F49A2C"/>
<path d="M85.0222 85.3335L85.037 85.3483V85.3335H85.0222Z" fill="#F49A2C"/>
<path d="M85.0815 85.3038L85.1408 85.2742L85.0667 85.289L85.0519 85.3038H85.0815Z" fill="#F49A2C"/>
<path d="M85.037 85.3188L85.0815 85.304H85.0519L85.037 85.3188Z" fill="#F49A2C"/>
<path d="M85.0519 85.3188L85.0815 85.304L85.037 85.3188H85.0519Z" fill="#F49A2C"/>
<path d="M85.037 85.3186V85.3334L85.0519 85.3186H85.037Z" fill="#F49A2C"/>
<path d="M85.0222 85.3334H85.037V85.3186L85.0222 85.3334Z" fill="#F49A2C"/>
<path d="M85.0667 85.289L85.126 85.2297L85.0519 85.2594V85.289H85.0667Z" fill="#F49A2C"/>
<path d="M85.037 85.3039H85.0519L85.0667 85.2891L85.037 85.3039Z" fill="#F49A2C"/>
<path d="M85.0667 85.2891H85.0519L85.037 85.3039L85.0667 85.2891Z" fill="#F49A2C"/>
<path d="M85.037 85.304V85.3188L85.0519 85.304H85.037Z" fill="#F49A2C"/>
<path d="M85.0222 85.3334L85.037 85.3186L85.0222 85.3334Z" fill="#F49A2C"/>
<path d="M85.0519 85.2594L85.0815 85.1853L85.037 85.2446V85.2742L85.0519 85.2594Z" fill="#F49A2C"/>
<path d="M85.037 85.2892H85.0519V85.2595L85.037 85.2892Z" fill="#F49A2C"/>
<path d="M85.0519 85.2595L85.037 85.2743V85.2892L85.0519 85.2595Z" fill="#F49A2C"/>
<path d="M85.037 85.3039L85.0519 85.2891H85.037V85.3039Z" fill="#F49A2C"/>
<path d="M85.0371 85.2445V85.1704L85.0074 85.2445V85.2593L85.0371 85.2445Z" fill="#F49A2C"/>
<path d="M85.0222 85.2743H85.037V85.2446L85.0222 85.2743Z" fill="#F49A2C"/>
<path d="M85.0371 85.2446L85.0074 85.2594L85.0222 85.2743L85.0371 85.2446Z" fill="#F49A2C"/>
<path d="M85.037 85.289V85.2742H85.0222V85.289H85.037Z" fill="#F49A2C"/>
<path d="M85.037 85.3039V85.2891H85.0222V85.3039H85.037Z" fill="#F49A2C"/>
<path d="M85.0074 85.3188L85.0371 85.304V85.3188V85.304H85.0222L85.0074 85.3188Z" fill="#F49A2C"/>
<path d="M85.0371 85.304L85.0074 85.3188H85.0371V85.304Z" fill="#F49A2C"/>
<path d="M84.9926 85.2593L85.0074 85.2445L84.9778 85.1704V85.2445L84.9926 85.2593Z" fill="#F49A2C"/>
<path d="M85.0074 85.2446L84.9926 85.2594L85.0074 85.2743V85.2446Z" fill="#F49A2C"/>
<path d="M85.0222 85.2743L85.0074 85.2595V85.2743V85.2892L85.0222 85.2743Z" fill="#F49A2C"/>
<path d="M85.0222 85.2742L85.0074 85.289L85.0222 85.2742Z" fill="#F49A2C"/>
<path d="M85.0074 85.289H85.0222V85.2742L85.0074 85.289Z" fill="#F49A2C"/>
<path d="M85.0074 85.3187L85.0222 85.3039V85.2891V85.3039L85.0074 85.3187Z" fill="#F49A2C"/>
<path d="M85.0222 85.304L85.0074 85.3188L85.0222 85.304Z" fill="#F49A2C"/>
<path d="M85.0074 85.3188L85.0222 85.304L85.0074 85.3188Z" fill="#F49A2C"/>
<path d="M84.9778 85.2742V85.2446L84.9185 85.1853L84.9481 85.2594L84.9778 85.2742Z" fill="#F49A2C"/>
<path d="M84.9926 85.2743L84.9778 85.2446V85.2743H84.9926Z" fill="#F49A2C"/>
<path d="M84.9926 85.2594L84.9778 85.2446L84.9926 85.2743V85.2594Z" fill="#F49A2C"/>
<path d="M84.9926 85.2743V85.2892L85.0074 85.2743L84.9926 85.2595V85.2743Z" fill="#F49A2C"/>
<path d="M85.0074 85.2742L84.9926 85.289H85.0074V85.2742Z" fill="#F49A2C"/>
<path d="M85.0222 85.2891L85.0074 85.3187L85.0222 85.2891H85.0074H85.0222Z" fill="#F49A2C"/>
<path d="M85.0074 85.3187L85.0222 85.2891L85.0074 85.3187Z" fill="#F49A2C"/>
<path d="M85.0074 85.3187L85.0222 85.3039V85.2891L85.0074 85.3187Z" fill="#F49A2C"/>
<path d="M84.9481 85.2594L84.8889 85.2297L84.9333 85.289H84.963L84.9481 85.2594Z" fill="#F49A2C"/>
<path d="M84.9778 85.2892L84.9481 85.2595L84.9629 85.2892H84.9778Z" fill="#F49A2C"/>
<path d="M84.9481 85.2595L84.9778 85.2892V85.2743L84.9481 85.2595Z" fill="#F49A2C"/>
<path d="M84.9778 85.289L84.9926 85.2742H84.9778V85.289Z" fill="#F49A2C"/>
<path d="M84.9926 85.2742L84.9778 85.289H84.9926V85.2742Z" fill="#F49A2C"/>
<path d="M85.0222 85.2891H85.0074V85.3187L85.0222 85.2891Z" fill="#F49A2C"/>
<path d="M84.9481 85.3038L84.9333 85.289L84.8592 85.2742L84.9333 85.3038H84.9481Z" fill="#F49A2C"/>
<path d="M84.963 85.3039V85.2891H84.9333L84.963 85.3039Z" fill="#F49A2C"/>
<path d="M84.963 85.3039L84.9333 85.2891L84.9481 85.3039H84.963Z" fill="#F49A2C"/>
<path d="M84.9778 85.2891H84.963V85.3039L84.9778 85.2891Z" fill="#F49A2C"/>
<path d="M84.9926 85.2891L85.0074 85.3187V85.2891H84.9926Z" fill="#F49A2C"/>
<path d="M84.9481 85.3188L84.9333 85.304L84.8592 85.3336H84.9333L84.9481 85.3188Z" fill="#F49A2C"/>
<path d="M84.9481 85.304H84.9333L84.963 85.3188L84.9481 85.304Z" fill="#F49A2C"/>
<path d="M84.963 85.3188L84.9333 85.304L84.9481 85.3188H84.963Z" fill="#F49A2C"/>
<path d="M84.9629 85.304H84.9481L84.9629 85.3188V85.304Z" fill="#F49A2C"/>
<path d="M84.9778 85.3039V85.2891L84.963 85.3039H84.9778Z" fill="#F49A2C"/>
<path d="M84.9926 85.2891L85.0074 85.3187L84.9926 85.2891H84.9778H84.9926Z" fill="#F49A2C"/>
<path d="M84.9926 85.2891L85.0074 85.3187L84.9926 85.2891Z" fill="#F49A2C"/>
<path d="M84.9926 85.2891L85.0074 85.3187L84.9926 85.2891Z" fill="#F49A2C"/>
<path d="M84.9333 85.3335L84.874 85.378L84.9481 85.3631L84.9629 85.3335H84.9333Z" fill="#F49A2C"/>
<path d="M84.963 85.3334L84.9481 85.3186L84.9333 85.3334H84.963Z" fill="#F49A2C"/>
<path d="M84.9629 85.3186H84.9481L84.9629 85.3334V85.3186Z" fill="#F49A2C"/>
<path d="M84.963 85.304V85.3188H84.9778L84.963 85.304Z" fill="#F49A2C"/>
<path d="M84.9778 85.304H84.963L84.9778 85.3188V85.304Z" fill="#F49A2C"/>
<path d="M84.9778 85.3039L85.0074 85.3187L84.9778 85.3039V85.2891V85.3039Z" fill="#F49A2C"/>
<path d="M84.9926 85.2891H84.9778L85.0074 85.3187L84.9926 85.2891Z" fill="#F49A2C"/>
<path d="M84.9778 85.2891V85.3039L85.0074 85.3187L84.9778 85.2891Z" fill="#F49A2C"/>
<path d="M84.9481 85.3632L84.9037 85.4225L84.963 85.378V85.3484L84.9481 85.3632Z" fill="#F49A2C"/>
<path d="M84.9629 85.3483V85.3335L84.9481 85.3631L84.9629 85.3483Z" fill="#F49A2C"/>
<path d="M84.9481 85.3632L84.9629 85.3484L84.9481 85.3632Z" fill="#F49A2C"/>
<path d="M84.963 85.3483L84.9778 85.3335H84.963V85.3483Z" fill="#F49A2C"/>
<path d="M84.963 85.3334H84.9778V85.3186L84.963 85.3334Z" fill="#F49A2C"/>
<path d="M84.9778 85.3186H84.963V85.3334L84.9778 85.3186Z" fill="#F49A2C"/>
<path d="M84.9778 85.3188V85.304L85.0074 85.3188L84.9778 85.304V85.3188Z" fill="#F49A2C"/>
<path d="M85.0074 85.3188L84.9778 85.304L85.0074 85.3188Z" fill="#F49A2C"/>
<path d="M84.9778 85.304L85.0074 85.3188L84.9778 85.304Z" fill="#F49A2C"/>
<path d="M84.9926 85.3929L85.0074 85.467L85.0223 85.3929L85.0074 85.3633L84.9926 85.3929Z" fill="#F49A2C"/>
<path d="M85.0074 85.3633L85.0222 85.3929L85.0074 85.3633Z" fill="#F49A2C"/>
<path d="M85.0074 85.3633L85.0222 85.3929V85.3633H85.0074Z" fill="#F49A2C"/>
<path d="M85.0222 85.3484L85.0074 85.3632H85.0222V85.3484Z" fill="#F49A2C"/>
<path d="M85.0222 85.3334L85.0074 85.3186L85.0222 85.3334L85.0371 85.3186L85.0222 85.3334Z" fill="#F49A2C"/>
<path d="M85.0371 85.3186H85.0074L85.0222 85.3334L85.0371 85.3186Z" fill="#F49A2C"/>
<path d="M84.9629 85.3781L84.9481 85.4522L84.9926 85.3929L84.9778 85.3633L84.9629 85.3781Z" fill="#F49A2C"/>
<path d="M84.9778 85.3633L84.9926 85.3929V85.3633H84.9778Z" fill="#F49A2C"/>
<path d="M84.9926 85.3633V85.3929L85.0074 85.3633H84.9926Z" fill="#F49A2C"/>
<path d="M84.9926 85.3632H85.0074V85.3484L84.9926 85.3632Z" fill="#F49A2C"/>
<path d="M85.0074 85.3484V85.3632L85.0222 85.3484H85.0074Z" fill="#F49A2C"/>
<path d="M85.0074 85.3483H85.0222V85.3335L85.0074 85.3483Z" fill="#F49A2C"/>
<path d="M85.0222 85.3334L85.0074 85.3186L85.0222 85.3334Z" fill="#F49A2C"/>
<path d="M85.0222 85.3334L85.0074 85.3186L85.0222 85.3334Z" fill="#F49A2C"/>
<path d="M85.0074 85.3186L85.0222 85.3334L85.0074 85.3186Z" fill="#F49A2C"/>
<path d="M84.9778 85.3484H84.963V85.378L84.9778 85.3484Z" fill="#F49A2C"/>
<path d="M84.9778 85.3484L84.963 85.378L84.9778 85.3632V85.3484Z" fill="#F49A2C"/>
<path d="M84.9778 85.3484V85.3632H84.9926V85.3484H84.9778Z" fill="#F49A2C"/>
<path d="M84.9926 85.3484V85.3632L85.0074 85.3484H84.9926Z" fill="#F49A2C"/>
<path d="M85.0222 85.3482L85.0074 85.3186V85.3482L85.0222 85.3334V85.3482Z" fill="#F49A2C"/>
<path d="M85.0222 85.3334L85.0074 85.3186L85.0222 85.3334Z" fill="#F49A2C"/>
<path d="M85.0222 85.3482V85.3334L85.0074 85.3186L85.0222 85.3482Z" fill="#F49A2C"/>
<path d="M85.0074 85.3186V85.3482H84.9926H85.0074V85.3186Z" fill="#F49A2C"/>
<path d="M84.9778 85.3335L84.963 85.3483L84.9778 85.3335Z" fill="#F49A2C"/>
<path d="M84.963 85.3483H84.9778V85.3335L84.963 85.3483Z" fill="#F49A2C"/>
<path d="M84.9778 85.3335V85.3483H84.9926L84.9778 85.3335Z" fill="#F49A2C"/>
<path d="M84.9926 85.3335H84.9778L84.9926 85.3483V85.3335Z" fill="#F49A2C"/>
<path d="M85.0074 85.3186L84.9926 85.3482V85.3334V85.3482L85.0074 85.3186Z" fill="#F49A2C"/>
<path d="M85.0074 85.3186L84.9926 85.3482H85.0074V85.3186Z" fill="#F49A2C"/>
<path d="M84.9926 85.3482L85.0074 85.3186L84.9926 85.3482Z" fill="#F49A2C"/>
<path d="M85.0074 85.3186L84.9778 85.3334H84.9926L85.0074 85.3186Z" fill="#F49A2C"/>
<path d="M84.9926 85.3482L85.0074 85.3186L84.9926 85.3334V85.3482Z" fill="#F49A2C"/>
<path d="M85.0074 85.3186L84.9926 85.3334L85.0074 85.3186Z" fill="#F49A2C"/>
<path d="M84.9778 85.3334L85.0074 85.3186L84.9778 85.3334V85.3186V85.3334Z" fill="#F49A2C"/>
<path d="M84.9778 85.3334L85.0074 85.3186L84.9778 85.3334Z" fill="#F49A2C"/>
<path d="M84.9778 85.3334L85.0074 85.3186L84.9778 85.3334Z" fill="#F49A2C"/>
<path d="M84.9778 85.3186V85.3334L85.0074 85.3186H84.9778Z" fill="#F49A2C"/>
<path d="M85.0074 85.3188L84.9778 85.304V85.3188H85.0074Z" fill="#F49A2C"/>
<path d="M117.727 84.8735C118.12 66.7477 103.745 51.7349 85.6193 51.3415C67.4935 50.9481 52.4807 65.323 52.0873 83.4489C51.6939 101.575 66.0688 116.587 84.1947 116.981C102.32 117.374 117.333 102.999 117.727 84.8735Z" fill="white" stroke="white" stroke-width="0.7425" stroke-miterlimit="10"/>
<path d="M117.727 84.8735C118.12 66.7477 103.745 51.7349 85.6193 51.3415C67.4935 50.9481 52.4807 65.323 52.0873 83.4489C51.6939 101.575 66.0688 116.587 84.1947 116.981C102.32 117.374 117.333 102.999 117.727 84.8735Z" fill="white" stroke="white" stroke-width="0.7425" stroke-miterlimit="10"/>
<path d="M86.3264 68.083H83.4365V79.5092H86.3264V68.083Z" fill="#FBC208"/>
<path d="M97.7378 82.5621C97.0709 78.2346 94.0624 74.3518 90.0462 72.6179C90.0314 77.0935 93.5882 81.1097 93.1436 85.5557C92.862 88.5049 90.6835 91.1429 87.8677 92.0913C85.0667 93.0398 81.7915 92.284 79.5981 90.2981C77.4048 88.3122 76.3525 85.1852 76.7527 82.2657C76.9898 80.5614 77.6863 78.9756 78.3236 77.3899C78.9164 75.9227 79.7463 74.1443 79.6722 72.5586C76.9305 73.6997 74.6779 76.0265 73.3589 78.6644C72.0992 81.1838 71.4768 84.3849 72.1733 87.1563C73.0625 91.5134 76.3377 95.2924 80.5318 96.7893C84.711 98.2861 89.6609 97.4413 93.0991 94.6404C96.5522 91.8394 98.3899 87.1711 97.7674 82.7696C97.7674 82.6955 97.7526 82.6362 97.7378 82.5621Z" fill="#FBC208"/>
<path d="M135.721 83.1255H126.088C125.422 83.1255 124.888 83.659 124.888 84.3259V86.7564C124.888 87.4233 125.422 87.9568 126.088 87.9568H135.721C136.388 87.9568 136.922 87.4233 136.922 86.7564V84.3259C136.922 83.659 136.388 83.1255 135.721 83.1255Z" fill="white" stroke="white" stroke-width="0.7425" stroke-miterlimit="10"/>
<path d="M45.4974 86.7712V84.3259C45.4974 83.659 44.9638 83.1255 44.2969 83.1255H34.6639C33.9971 83.1255 33.4635 83.659 33.4635 84.3259V86.7564C33.4635 87.4233 33.9971 87.9568 34.6639 87.9568H44.2969C44.9638 87.9716 45.4974 87.4233 45.4974 86.7712Z" fill="white" stroke="white" stroke-width="0.7425" stroke-miterlimit="10"/>
<path d="M120.175 66.7492C120.398 67.1345 120.798 67.3568 121.227 67.3568C121.435 67.3568 121.642 67.2976 121.835 67.1938L130.179 62.3773C130.46 62.2143 130.653 61.9475 130.742 61.6511C130.831 61.3399 130.786 61.0139 130.623 60.7323L129.408 58.6279C129.082 58.0499 128.341 57.8572 127.763 58.1833L119.419 62.9998C119.138 63.1628 118.945 63.4295 118.856 63.7259C118.767 64.0372 118.812 64.3632 118.975 64.6448L120.175 66.7492Z" fill="white" stroke="white" stroke-width="0.7425" stroke-miterlimit="10"/>
<path d="M50.2101 104.333C49.8841 103.755 49.1431 103.562 48.5651 103.888L40.2214 108.705C39.9399 108.868 39.7472 109.134 39.6583 109.431C39.5694 109.742 39.6138 110.068 39.7768 110.35L40.9921 112.454C41.2144 112.839 41.6145 113.062 42.0443 113.062C42.2518 113.062 42.4593 113.002 42.6519 112.899L50.9956 108.082C51.2771 107.919 51.4698 107.652 51.5587 107.356C51.6476 107.045 51.6032 106.719 51.4402 106.437L50.2101 104.333Z" fill="white" stroke="white" stroke-width="0.7425" stroke-miterlimit="10"/>
<path d="M112.113 41.3627L110.009 40.1475C109.727 39.9845 109.401 39.94 109.09 40.0289C108.779 40.1178 108.512 40.3105 108.364 40.5921L103.547 48.9357C103.384 49.2173 103.34 49.5433 103.429 49.8546C103.518 50.1658 103.71 50.4325 103.992 50.5807L106.096 51.796C106.289 51.8997 106.496 51.959 106.704 51.959C107.119 51.959 107.519 51.7367 107.756 51.3514L112.573 43.0077C112.884 42.4297 112.691 41.6887 112.113 41.3627Z" fill="white" stroke="white" stroke-width="0.7425" stroke-miterlimit="10"/>
<path d="M66.3935 120.531L64.2891 119.316C63.7111 118.99 62.9701 119.182 62.6441 119.76L57.8276 128.104C57.6646 128.386 57.6201 128.712 57.709 129.023C57.7979 129.334 57.9906 129.601 58.2722 129.749L60.3766 130.964C60.5693 131.068 60.7768 131.127 60.9842 131.127C61.3992 131.127 61.7993 130.905 62.0365 130.52L66.853 122.176C67.016 121.895 67.0604 121.568 66.9715 121.257C66.8826 120.946 66.6751 120.694 66.3935 120.531Z" fill="white" stroke="white" stroke-width="0.7425" stroke-miterlimit="10"/>
<path d="M86.4005 33.8193H83.97C83.3031 33.8193 82.7696 34.3529 82.7696 35.0198V44.6527C82.7696 45.3196 83.3031 45.8532 83.97 45.8532H86.4005C87.0674 45.8532 87.6009 45.3196 87.6009 44.6527V35.0198C87.6157 34.3529 87.0674 33.8193 86.4005 33.8193Z" fill="white" stroke="white" stroke-width="0.7425" stroke-miterlimit="10"/>
<path d="M86.4005 125.244H83.97C83.3031 125.244 82.7696 125.777 82.7696 126.444V136.077C82.7696 136.744 83.3031 137.278 83.97 137.278H86.4005C87.0674 137.278 87.6009 136.744 87.6009 136.077V126.444C87.6157 125.777 87.0674 125.244 86.4005 125.244Z" fill="white" stroke="white" stroke-width="0.7425" stroke-miterlimit="10"/>
<path d="M62.0216 40.5772C61.8586 40.2956 61.5919 40.1029 61.2955 40.014C60.9842 39.9251 60.6582 39.9696 60.3766 40.1326L58.2722 41.3478C57.6942 41.6739 57.5015 42.4149 57.8276 42.9928L62.6441 51.3365C62.8664 51.7218 63.2665 51.9441 63.6963 51.9441C63.9038 51.9441 64.1113 51.8848 64.3039 51.7811L66.4084 50.5658C66.6899 50.4028 66.8826 50.1361 66.9715 49.8397C67.0604 49.5284 67.016 49.2024 66.853 48.9208L62.0216 40.5772Z" fill="white" stroke="white" stroke-width="0.7425" stroke-miterlimit="10"/>
<path d="M107.741 119.76C107.415 119.182 106.674 118.99 106.096 119.316L103.992 120.531C103.71 120.694 103.518 120.961 103.429 121.257C103.34 121.568 103.384 121.895 103.547 122.176L108.364 130.52C108.586 130.905 108.986 131.127 109.416 131.127C109.623 131.127 109.831 131.068 110.024 130.964L112.128 129.749C112.41 129.586 112.602 129.319 112.691 129.023C112.78 128.712 112.736 128.386 112.573 128.104L107.741 119.76Z" fill="white" stroke="white" stroke-width="0.7425" stroke-miterlimit="10"/>
<path d="M50.9807 62.9998L42.6371 58.1833C42.0591 57.8572 41.3181 58.0499 40.9921 58.6279L39.7768 60.7323C39.6138 61.0139 39.5694 61.3399 39.6583 61.6511C39.7472 61.9624 39.9399 62.2291 40.2214 62.3773L48.5651 67.1938C48.7577 67.2976 48.9652 67.3568 49.1727 67.3568C49.5877 67.3568 49.9878 67.1345 50.2249 66.7492L51.4402 64.6448C51.6032 64.3632 51.6476 64.0372 51.5587 63.7259C51.4698 63.4295 51.2623 63.1628 50.9807 62.9998Z" fill="white" stroke="white" stroke-width="0.7425" stroke-miterlimit="10"/>
<path d="M130.164 108.719L121.82 103.903C121.242 103.577 120.501 103.77 120.175 104.348L118.96 106.452C118.797 106.734 118.752 107.06 118.841 107.371C118.93 107.682 119.123 107.949 119.405 108.097L127.748 112.914C127.941 113.017 128.148 113.077 128.356 113.077C128.771 113.077 129.171 112.854 129.408 112.469L130.623 110.365C130.786 110.083 130.831 109.757 130.742 109.446C130.638 109.134 130.431 108.868 130.164 108.719Z" fill="white" stroke="white" stroke-width="0.7425" stroke-miterlimit="10"/>
</g>
<defs>
<clipPath id="clip0_289_1389">
<rect width="170" height="170.207" fill="white"/>
</clipPath>
</defs>
</svg>
