<svg width="170" height="170" viewBox="0 0 170 170" fill="none" xmlns="http://www.w3.org/2000/svg">
<g clip-path="url(#clip0_289_2335)">
<path d="M85.0074 158.841C125.842 158.841 158.944 125.738 158.944 84.9037C158.944 44.0695 125.842 10.9668 85.0074 10.9668C44.1732 10.9668 11.0705 44.0695 11.0705 84.9037C11.0705 125.738 44.1732 158.841 85.0074 158.841Z" fill="#B48732"/>
<path d="M64.3484 118.634C63.9038 118.634 63.4888 118.456 63.1776 118.145L57.5015 112.469C56.8791 111.846 56.8495 110.824 57.4571 110.172L60.8064 106.57H60.0654C54.3301 106.57 48.6244 104.347 44.4303 100.465C41.0958 97.382 37.1241 91.8245 37.1241 82.814C37.1241 75.5818 39.2285 69.5797 43.2299 65.4301C47.2461 61.2657 53.0555 59.0575 60.0506 59.0575C63.7407 59.0575 67.4457 60.3172 71.0618 62.7922C73.8776 64.7188 76.6489 67.3864 79.3017 70.7209C83.7774 76.3376 86.356 81.8655 86.4746 82.1026V82.1174C86.5635 82.3249 96.2558 103.251 109.905 103.251C122.383 103.251 129.527 95.7963 129.527 82.7992C129.527 69.5204 119.419 62.3476 109.905 62.3476C104.659 62.3476 98.8345 65.2227 94.8627 67.6235L91.4245 69.7131C90.639 70.1874 89.6313 69.9354 89.157 69.1648C88.6828 68.3793 88.9347 67.3716 89.7053 66.8973L93.1436 64.8077C97.471 62.1846 103.873 59.0427 109.89 59.0427C115.626 59.0427 121.331 61.2657 125.525 65.1486C128.86 68.2311 132.831 73.7886 132.831 82.7992C132.831 90.0313 130.727 96.0334 126.726 100.183C122.709 104.347 116.9 106.556 109.905 106.556C106.17 106.556 102.436 105.296 98.8048 102.821C95.989 100.894 93.2177 98.2268 90.5649 94.8923C86.1634 89.3348 83.6292 83.8365 83.481 83.5105C83.3031 83.1252 73.433 62.3624 60.0506 62.3624C47.5721 62.3624 40.4289 69.8169 40.4289 82.814C40.4289 96.0927 50.5361 103.266 60.0506 103.266H64.5707C65.2227 103.266 65.8155 103.651 66.0823 104.258C66.3491 104.866 66.2305 105.563 65.7711 106.037L60.9249 111.239L64.3187 114.632L77.6122 101.339L64.3187 88.0454L60.9694 91.3947L65.282 95.7074C65.7563 96.1816 65.8896 96.893 65.6377 97.5006C65.3858 98.123 64.7781 98.5232 64.1112 98.5232H60.0357C58.8057 98.5232 54.5227 98.286 50.6843 95.322C48.1501 93.3658 45.1417 89.6015 45.1417 82.814C45.1417 77.6714 46.4014 73.7293 48.8763 71.1062C51.3809 68.4534 55.1303 67.1048 60.0357 67.1048C60.9546 67.1048 61.6808 67.8458 61.6808 68.7498C61.6808 69.6538 60.9398 70.3948 60.0357 70.3948C56.0195 70.3948 53.1593 71.3581 51.2771 73.3588C49.395 75.3595 48.4465 78.531 48.4465 82.814C48.4465 87.1859 49.8841 90.5204 52.7147 92.7137C55.1007 94.5662 58.0647 95.2331 60.0357 95.2331H60.1247L57.4571 92.5655C57.1459 92.2543 56.968 91.8393 56.968 91.3947C56.968 90.9501 57.1459 90.5352 57.4571 90.224L63.1331 84.5479C63.4443 84.2367 63.8593 84.0589 64.3039 84.0589C64.7485 84.0589 65.1635 84.2367 65.4747 84.5479L81.0949 100.168C81.7322 100.805 81.7322 101.858 81.0949 102.495L65.5191 118.145C65.2079 118.456 64.793 118.634 64.3484 118.634Z" fill="white"/>
<path d="M109.935 98.5379C109.031 98.5379 108.29 97.7969 108.29 96.8929C108.29 95.9889 109.031 95.2479 109.935 95.2479C113.951 95.2479 116.811 94.2846 118.693 92.2839C120.575 90.2832 121.524 87.1117 121.524 82.8287C121.524 78.4568 120.086 75.1223 117.256 72.929C114.87 71.0765 111.906 70.4096 109.935 70.4096C107.326 70.4096 103.369 71.9064 99.0715 74.5147L95.6333 76.6043C94.8479 77.0786 93.8401 76.8266 93.3659 76.056C92.8916 75.2705 93.1436 74.2628 93.9142 73.7886L97.3524 71.6989C102.287 68.6905 106.645 67.1047 109.935 67.1047C111.165 67.1047 115.448 67.3419 119.286 70.3059C121.82 72.2621 124.829 76.0264 124.829 82.8139C124.829 87.9565 123.569 91.8986 121.094 94.5217C118.604 97.2041 114.84 98.5379 109.935 98.5379Z" fill="white"/>
<path d="M27.002 128.786L17.2653 136.151C23.6379 144.524 31.4776 151.594 40.3548 157.077L46.7422 146.718C39.1099 142.005 32.4113 135.914 27.002 128.786Z" fill="#F49A2C"/>
<path d="M155.18 104.718L166.784 107.993C169.6 98.1381 170.637 87.6604 169.629 76.99L157.625 78.1163C157.833 80.3245 157.937 82.5475 157.937 84.8001C157.937 91.7062 156.973 98.39 155.18 104.718Z" fill="#E7422F"/>
<path d="M12.4784 78.3088L0.355681 77.1973C-0.355679 84.8296 -0.014819 92.699 1.482 100.598C1.97106 103.177 2.56386 105.726 3.27522 108.201L14.983 104.851C13.1601 98.4788 12.182 91.7505 12.182 84.7999C12.182 82.6066 12.2858 80.4428 12.4784 78.3088Z" fill="#407F46"/>
<path d="M35.8051 31.1664L27.6689 22.2744C19.9329 29.3435 13.5751 37.7909 8.9068 47.1423L19.7254 52.5072C23.7416 44.4303 29.2102 37.1981 35.8051 31.1664Z" fill="#62B133"/>
<path d="M123.45 146.673L129.867 156.988C138.834 151.416 146.599 144.243 152.853 135.959L143.191 128.697C137.781 135.84 131.083 141.946 123.45 146.673Z" fill="#FBC208"/>
<path d="M152.883 135.929C159.152 127.615 163.879 118.16 166.769 108.053L155.165 104.777C152.675 113.521 148.585 121.598 143.22 128.667L152.883 135.929Z" fill="#2CBAE0"/>
<path d="M3.29004 108.26C6.23922 118.56 11.0261 127.941 17.2356 136.107L26.9724 128.741C21.6224 121.687 17.5172 113.64 15.0126 104.911L3.29004 108.26Z" fill="#BE8A30"/>
<path d="M8.89199 47.187C4.28298 56.4495 1.3338 66.5864 0.355682 77.1382L12.4784 78.2497C13.2935 69.0909 15.8129 60.4213 19.7106 52.5667L8.89199 47.187Z" fill="#1595D3"/>
<path d="M142.138 22.0966C134.388 15.0868 125.392 9.51445 115.625 5.73535L111.313 16.8948C119.775 20.1552 127.481 24.9569 134.076 30.959L142.138 22.0966Z" fill="#DDA639"/>
<path d="M150.275 52.2998L161.034 46.9349C156.292 37.4502 149.845 29.0917 142.183 22.1411L134.121 30.9886C140.745 37.0056 146.244 44.2229 150.275 52.2998Z" fill="#4B9D38"/>
<path d="M111.268 16.8652L115.581 5.70577C105.963 1.98596 95.5889 -0.0147382 84.9185 8.17426e-05L84.9333 12.0191C84.9778 12.0191 85.0074 12.0191 85.0519 12.0191C94.2995 12.0191 103.132 13.7382 111.268 16.8652Z" fill="#E5263C"/>
<path d="M84.874 0C79.7315 0.01482 74.5149 0.489059 69.2834 1.46718C64.052 2.4453 59.0132 3.89766 54.2263 5.75015L58.5834 16.9541C66.7344 13.7826 75.6116 12.019 84.874 12.0042V0Z" fill="#19496B"/>
<path d="M169.629 76.9307C169.392 74.3668 169.022 71.7733 168.533 69.1946C167.036 61.2956 164.502 53.8411 161.064 46.9795L150.304 52.3443C154.231 60.2137 156.781 68.8834 157.625 78.057L169.629 76.9307Z" fill="#C31D2F"/>
<path d="M54.167 5.77979C44.2228 9.6478 35.3012 15.2794 27.6985 22.23L35.8347 31.122C42.4 25.105 50.0915 20.2737 58.5241 16.9837L54.167 5.77979Z" fill="#00699E"/>
<path d="M40.3993 157.107C49.232 162.561 59.0873 166.414 69.4612 168.355L71.6842 156.366C62.7033 154.706 54.2856 151.386 46.7867 146.762L40.3993 157.107Z" fill="#DD1569"/>
<path d="M71.7435 156.366L69.5205 168.355C79.5537 170.222 90.0907 170.311 100.702 168.311L98.4491 156.351C94.1069 157.151 89.6461 157.581 85.0667 157.581C80.517 157.581 76.0561 157.166 71.7435 156.366Z" fill="#EC6A30"/>
<path d="M100.746 168.31C111.357 166.31 121.139 162.412 129.808 157.032L123.391 146.718C115.892 151.356 107.474 154.676 98.4936 156.351L100.746 168.31Z" fill="#A21B43"/>
<path d="M85.037 84.9631L85.0222 84.9482V84.9779L85.0519 85.0372L85.037 84.9631Z" fill="#F49A2C"/>
<path d="M85.037 84.963L85.1111 85.0074L85.0667 84.9482L85.037 84.9333V84.963Z" fill="#F49A2C"/>
<path d="M85.0222 84.9482L85.037 84.963L85.0222 84.9333V84.9482Z" fill="#F49A2C"/>
<path d="M85.037 84.963V84.9333H85.0222L85.037 84.963Z" fill="#F49A2C"/>
<path d="M85.0519 84.9185L85.0667 84.9481L85.1408 84.9629L85.0815 84.9185H85.0519Z" fill="#F49A2C"/>
<path d="M85.037 84.9333L85.0667 84.9481L85.037 84.9185V84.9333Z" fill="#F49A2C"/>
<path d="M85.037 84.9185L85.0667 84.9481L85.0519 84.9185H85.037Z" fill="#F49A2C"/>
<path d="M85.0222 84.9185V84.9333H85.037V84.9185H85.0222Z" fill="#F49A2C"/>
<path d="M85.0815 84.8889L85.0519 84.9037L85.0815 84.9186L85.1556 84.9037L85.0815 84.8889Z" fill="#F49A2C"/>
<path d="M85.037 84.9038L85.0815 84.9186L85.0519 84.9038H85.037Z" fill="#F49A2C"/>
<path d="M85.0815 84.9186L85.037 84.9038L85.0519 84.9186H85.0815Z" fill="#F49A2C"/>
<path d="M85.037 84.9186H85.0519L85.037 84.9038V84.9186Z" fill="#F49A2C"/>
<path d="M85.0815 84.889L85.1408 84.8594H85.0667L85.0519 84.889H85.0815Z" fill="#F49A2C"/>
<path d="M85.0519 84.9037L85.0815 84.8889H85.037L85.0519 84.9037Z" fill="#F49A2C"/>
<path d="M85.037 84.8889V84.9037H85.0519L85.037 84.8889Z" fill="#F49A2C"/>
<path d="M85.0222 84.9038V84.9186H85.037V84.9038H85.0222Z" fill="#F49A2C"/>
<path d="M85.0667 84.8593L85.126 84.8L85.0519 84.8445V84.8593H85.0667Z" fill="#F49A2C"/>
<path d="M85.037 84.8742L85.0519 84.889L85.0667 84.8594L85.037 84.8742Z" fill="#F49A2C"/>
<path d="M85.0667 84.8594H85.0519L85.037 84.8742L85.0667 84.8594Z" fill="#F49A2C"/>
<path d="M85.037 84.8888H85.0519L85.037 84.874V84.8888Z" fill="#F49A2C"/>
<path d="M85.0519 84.8444L85.0815 84.7703L85.037 84.8295V84.8444H85.0519Z" fill="#F49A2C"/>
<path d="M85.037 84.8593H85.0519V84.8445L85.037 84.8593Z" fill="#F49A2C"/>
<path d="M85.0519 84.8445H85.037V84.8593L85.0519 84.8445Z" fill="#F49A2C"/>
<path d="M85.037 84.8742L85.0519 84.8594H85.037V84.8742Z" fill="#F49A2C"/>
<path d="M85.037 84.9037H85.0074H85.037V84.8889V84.9037Z" fill="#F49A2C"/>
<path d="M85.037 84.8296V84.7407L85.0074 84.8148V84.8445L85.037 84.8296Z" fill="#F49A2C"/>
<path d="M85.0222 84.8592L85.037 84.8444V84.8296L85.0222 84.8592Z" fill="#F49A2C"/>
<path d="M85.037 84.8296L85.0074 84.8444L85.0222 84.8592L85.037 84.8296Z" fill="#F49A2C"/>
<path d="M85.037 84.8593V84.8445L85.0222 84.8593V84.8741L85.037 84.8593Z" fill="#F49A2C"/>
<path d="M85.0222 84.8742L85.037 84.8594L85.0222 84.8742Z" fill="#F49A2C"/>
<path d="M85.037 84.8888V84.874H85.0222L85.037 84.8888Z" fill="#F49A2C"/>
<path d="M85.0222 84.8888H85.037L85.0222 84.874V84.8888Z" fill="#F49A2C"/>
<path d="M85.0074 84.9037L85.037 84.8889H85.0222L85.0074 84.9037Z" fill="#F49A2C"/>
<path d="M85.0074 84.9037H85.037V84.8889L85.0074 84.9037Z" fill="#F49A2C"/>
<path d="M85.037 84.8889L85.0074 84.9037L85.037 84.8889Z" fill="#F49A2C"/>
<path d="M84.9926 84.8445L85.0074 84.8148L84.9778 84.7407V84.8296L84.9926 84.8445Z" fill="#F49A2C"/>
<path d="M85.0074 84.8149L84.9926 84.8446L85.0074 84.8594V84.8149Z" fill="#F49A2C"/>
<path d="M85.0222 84.8593L85.0074 84.8445V84.8593H85.0222Z" fill="#F49A2C"/>
<path d="M85.0222 84.8594H85.0074V84.8742L85.0222 84.8594Z" fill="#F49A2C"/>
<path d="M85.0074 84.8742H85.0222V84.8594L85.0074 84.8742Z" fill="#F49A2C"/>
<path d="M85.0074 84.9037L85.0222 84.8888V84.874L85.0074 84.9037Z" fill="#F49A2C"/>
<path d="M85.0222 84.8889L85.0074 84.9037L85.0222 84.8889Z" fill="#F49A2C"/>
<path d="M85.0074 84.9037L85.0222 84.8889L85.0074 84.9037Z" fill="#F49A2C"/>
<path d="M84.9778 84.8444V84.8295L84.9185 84.7703L84.9481 84.8444H84.9778Z" fill="#F49A2C"/>
<path d="M84.9926 84.8592L84.9778 84.8296V84.8444L84.9926 84.8592Z" fill="#F49A2C"/>
<path d="M84.9926 84.8444L84.9778 84.8296L84.9926 84.8592V84.8444Z" fill="#F49A2C"/>
<path d="M84.9926 84.8593H85.0074L84.9926 84.8445V84.8593Z" fill="#F49A2C"/>
<path d="M85.0222 84.874L85.0074 84.9037L85.0222 84.874H85.0074H85.0222Z" fill="#F49A2C"/>
<path d="M85.0074 84.9037L85.0222 84.874L85.0074 84.9037Z" fill="#F49A2C"/>
<path d="M85.0074 84.9037L85.0222 84.874L85.0074 84.9037Z" fill="#F49A2C"/>
<path d="M84.9481 84.8445L84.8889 84.8L84.9333 84.8593H84.963L84.9481 84.8445Z" fill="#F49A2C"/>
<path d="M84.9778 84.8593L84.9481 84.8445L84.9629 84.8593H84.9778Z" fill="#F49A2C"/>
<path d="M84.9481 84.8445L84.9778 84.8593V84.8445H84.9481Z" fill="#F49A2C"/>
<path d="M84.9778 84.8741L84.9926 84.8593L84.9778 84.8445V84.8593V84.8741Z" fill="#F49A2C"/>
<path d="M84.9926 84.8594L84.9778 84.8742H84.9926V84.8594Z" fill="#F49A2C"/>
<path d="M84.9926 84.8742L85.0074 84.8594H84.9926V84.8742Z" fill="#F49A2C"/>
<path d="M85.0074 84.8742V84.8594L84.9926 84.8742H85.0074Z" fill="#F49A2C"/>
<path d="M85.0222 84.874H85.0074V84.9037L85.0222 84.874Z" fill="#F49A2C"/>
<path d="M84.9481 84.889L84.9333 84.8594H84.8592L84.9333 84.889H84.9481Z" fill="#F49A2C"/>
<path d="M84.963 84.8742V84.8594H84.9333L84.963 84.8742Z" fill="#F49A2C"/>
<path d="M84.963 84.8742L84.9333 84.8594L84.9481 84.889L84.963 84.8742Z" fill="#F49A2C"/>
<path d="M84.9778 84.8742V84.8594H84.963V84.8742H84.9778Z" fill="#F49A2C"/>
<path d="M84.9926 84.874L85.0074 84.9037V84.874H84.9926Z" fill="#F49A2C"/>
<path d="M84.9481 84.9037L84.9333 84.8889L84.8592 84.9037L84.9333 84.9186L84.9481 84.9037Z" fill="#F49A2C"/>
<path d="M84.963 84.8889H84.9333L84.9481 84.9037L84.963 84.8889Z" fill="#F49A2C"/>
<path d="M84.9629 84.8888V84.874L84.9481 84.8888H84.9629Z" fill="#F49A2C"/>
<path d="M84.963 84.874V84.8888H84.9778L84.963 84.874Z" fill="#F49A2C"/>
<path d="M84.9778 84.8888V84.874H84.963L84.9778 84.8888Z" fill="#F49A2C"/>
<path d="M84.9926 84.874L85.0074 84.9037L84.9926 84.874H84.9778H84.9926Z" fill="#F49A2C"/>
<path d="M84.9926 84.874L85.0074 84.9037L84.9926 84.874Z" fill="#F49A2C"/>
<path d="M84.9926 84.874L85.0074 84.9037L84.9926 84.874Z" fill="#F49A2C"/>
<path d="M84.9333 84.9185L84.874 84.9629L84.9481 84.9481L84.9629 84.9185H84.9333Z" fill="#F49A2C"/>
<path d="M84.963 84.9038H84.9481L84.9333 84.9186L84.963 84.9038Z" fill="#F49A2C"/>
<path d="M84.9333 84.9186H84.963V84.9038L84.9333 84.9186Z" fill="#F49A2C"/>
<path d="M84.9629 84.9037V84.8889L84.9481 84.9037H84.9629Z" fill="#F49A2C"/>
<path d="M84.963 84.8889V84.9037L84.9778 84.8889H84.963Z" fill="#F49A2C"/>
<path d="M84.9778 84.8888L85.0074 84.9037L84.9778 84.874V84.8888Z" fill="#F49A2C"/>
<path d="M84.9926 84.874H84.9778L85.0074 84.9037L84.9926 84.874Z" fill="#F49A2C"/>
<path d="M84.9778 84.874L85.0074 84.9037L84.9778 84.874Z" fill="#F49A2C"/>
<path d="M84.9481 84.9482L84.9037 85.0074L84.9629 84.963V84.9333L84.9481 84.9482Z" fill="#F49A2C"/>
<path d="M84.9629 84.9185L84.9481 84.9481L84.9629 84.9185Z" fill="#F49A2C"/>
<path d="M84.9481 84.9481L84.9629 84.9333V84.9185L84.9481 84.9481Z" fill="#F49A2C"/>
<path d="M84.963 84.9186H84.9778L84.963 84.9038V84.9186Z" fill="#F49A2C"/>
<path d="M84.963 84.9038L84.9778 84.9186V84.9038H84.963Z" fill="#F49A2C"/>
<path d="M84.9778 84.9037V84.8889L84.963 84.9037H84.9778Z" fill="#F49A2C"/>
<path d="M84.9778 84.8889L85.0074 84.9037L84.9778 84.8889Z" fill="#F49A2C"/>
<path d="M85.0074 84.9037L84.9778 84.8889L85.0074 84.9037Z" fill="#F49A2C"/>
<path d="M84.9778 84.8889L85.0074 84.9037L84.9778 84.8889Z" fill="#F49A2C"/>
<path d="M84.9926 84.9779L85.0074 85.052L85.0222 84.9779L85.0074 84.9482L84.9926 84.9779Z" fill="#F49A2C"/>
<path d="M85.0074 84.9482L85.0222 84.9778L85.0074 84.9333V84.9482Z" fill="#F49A2C"/>
<path d="M85.0074 84.9333L85.0222 84.9778V84.9482L85.0074 84.9333Z" fill="#F49A2C"/>
<path d="M85.0222 84.9333H85.0074L85.0222 84.9482V84.9333Z" fill="#F49A2C"/>
<path d="M85.0222 84.9038H85.0074H85.0222V84.9186V84.9038H85.037H85.0222Z" fill="#F49A2C"/>
<path d="M84.9629 84.9631L84.9481 85.0372L84.9926 84.9779L84.9778 84.9482L84.9629 84.9631Z" fill="#F49A2C"/>
<path d="M84.9778 84.9482L84.9926 84.9778V84.9333L84.9778 84.9482Z" fill="#F49A2C"/>
<path d="M84.9926 84.9333V84.9778L85.0074 84.9482L84.9926 84.9333Z" fill="#F49A2C"/>
<path d="M84.9926 84.9333L85.0074 84.9482V84.9333H84.9926Z" fill="#F49A2C"/>
<path d="M85.0222 84.9185H85.0074V84.9333H85.0222V84.9185Z" fill="#F49A2C"/>
<path d="M85.0222 84.9186L85.0074 84.9038L85.0222 84.9186Z" fill="#F49A2C"/>
<path d="M85.0222 84.9186L85.0074 84.9038L85.0222 84.9186Z" fill="#F49A2C"/>
<path d="M85.0074 84.9038L85.0222 84.9186V84.9038H85.0074Z" fill="#F49A2C"/>
<path d="M84.9778 84.9333H84.963V84.963L84.9778 84.9333Z" fill="#F49A2C"/>
<path d="M84.9778 84.9333L84.963 84.963L84.9778 84.9482V84.9333Z" fill="#F49A2C"/>
<path d="M84.9778 84.9333V84.9482L84.9926 84.9333H84.9778Z" fill="#F49A2C"/>
<path d="M84.9926 84.9333H85.0074V84.9185L84.9926 84.9333Z" fill="#F49A2C"/>
<path d="M85.0222 84.9186L85.0074 84.9038V84.9186H85.0222Z" fill="#F49A2C"/>
<path d="M85.0222 84.9186L85.0074 84.9038L85.0222 84.9186Z" fill="#F49A2C"/>
<path d="M85.0222 84.9186L85.0074 84.9038L85.0222 84.9186Z" fill="#F49A2C"/>
<path d="M84.963 84.9185V84.9333H84.9778V84.9185H84.963Z" fill="#F49A2C"/>
<path d="M84.9778 84.9333H84.9926V84.9185L84.9778 84.9333Z" fill="#F49A2C"/>
<path d="M84.9926 84.9185H84.9778V84.9333L84.9926 84.9185Z" fill="#F49A2C"/>
<path d="M84.9926 84.9333L85.0074 84.9185H84.9926V84.9333Z" fill="#F49A2C"/>
<path d="M85.0074 84.9038V84.9186H84.9926H85.0074V84.9038Z" fill="#F49A2C"/>
<path d="M85.0074 84.9038L84.9926 84.9186L85.0074 84.9038Z" fill="#F49A2C"/>
<path d="M85.0074 84.9038L84.9926 84.9186H85.0074V84.9038Z" fill="#F49A2C"/>
<path d="M84.9926 84.9186L85.0074 84.9038L84.9926 84.9186Z" fill="#F49A2C"/>
<path d="M85.0074 84.9038L84.9778 84.9186H84.9926L85.0074 84.9038Z" fill="#F49A2C"/>
<path d="M84.9926 84.9186L85.0074 84.9038L84.9926 84.9186Z" fill="#F49A2C"/>
<path d="M85.0074 84.9038L84.9926 84.9186L85.0074 84.9038Z" fill="#F49A2C"/>
<path d="M84.9778 84.9186L85.0074 84.9038H84.9778V84.9186Z" fill="#F49A2C"/>
<path d="M84.9778 84.9186L85.0074 84.9038L84.9778 84.9186Z" fill="#F49A2C"/>
<path d="M84.9778 84.9186L85.0074 84.9038L84.9778 84.9186Z" fill="#F49A2C"/>
<path d="M84.9778 84.9037H85.0074H84.9778V84.8889V84.9037Z" fill="#F49A2C"/>
<path d="M84.9778 84.8889V84.9037H85.0074L84.9778 84.8889Z" fill="#F49A2C"/>
<path d="M85.0074 84.9037L84.9778 84.8889L85.0074 84.9037Z" fill="#F49A2C"/>
</g>
<defs>
<clipPath id="clip0_289_2335">
<rect width="170" height="169.793" fill="white"/>
</clipPath>
</defs>
</svg>
