<svg width="170" height="170" viewBox="0 0 170 170" fill="none" xmlns="http://www.w3.org/2000/svg">
<g clip-path="url(#clip0_289_1711)">
<path d="M85.1852 169.63C132.027 169.63 170 131.657 170 84.8148C170 37.9729 132.027 0 85.1852 0C38.3433 0 0.370483 37.9729 0.370483 84.8148C0.370483 131.657 38.3433 169.63 85.1852 169.63Z" fill="#DD1569"/>
<path d="M76.4859 80.5614H95.5444C96.4929 80.5614 97.2635 79.7908 97.2635 78.8423V76.5748C97.2635 75.6264 96.4929 74.8557 95.5444 74.8557H76.4859C75.5374 74.8557 74.7668 75.6264 74.7668 76.5748V78.8423C74.7668 79.7908 75.5374 80.5614 76.4859 80.5614Z" fill="white" stroke="white" stroke-miterlimit="10"/>
<path d="M66.8677 60.1839H104.184C105.592 60.1839 106.852 59.3391 107.386 58.0498C107.934 56.7456 107.638 55.2636 106.645 54.2707L88.8161 36.2644C87.4971 34.9306 85.3779 34.8862 83.9848 36.1607L64.5114 54.1521C63.4591 55.1303 63.1035 56.6271 63.637 57.9757C64.1557 59.3095 65.4302 60.1839 66.8677 60.1839Z" fill="white" stroke="white" stroke-miterlimit="10"/>
<path d="M53.9743 63.6665C52.6702 63.1182 51.1882 63.4146 50.1952 64.4075L32.1741 82.2212C30.8404 83.5401 30.7959 85.6594 32.0704 87.0525L50.0767 106.541C50.7288 107.252 51.6624 107.652 52.6257 107.652C53.0555 107.652 53.4853 107.578 53.8854 107.415C55.2192 106.896 56.0936 105.622 56.0936 104.184V66.8677C56.1084 65.4598 55.2637 64.2001 53.9743 63.6665Z" fill="white" stroke="white" stroke-miterlimit="10"/>
<path d="M138.196 83.5846L120.19 65.7562C119.197 64.7632 117.7 64.4817 116.411 65.0152C115.107 65.5635 114.277 66.8084 114.277 68.2163V105.533C114.277 106.971 115.136 108.245 116.485 108.764C116.885 108.927 117.315 109.001 117.745 109.001C118.708 109.001 119.642 108.601 120.294 107.889L138.3 88.4011C139.589 87.0377 139.545 84.9184 138.196 83.5846Z" fill="white" stroke="white" stroke-miterlimit="10"/>
<path d="M104.525 109.446H67.2086C65.771 109.446 64.4965 110.305 63.9778 111.654C63.4591 112.988 63.8 114.499 64.8522 115.477L84.3405 133.484C84.9777 134.076 85.8225 134.402 86.6969 134.402C87.6305 134.402 88.5049 134.032 89.1718 133.38L107 115.374C107.993 114.381 108.275 112.884 107.741 111.594C107.193 110.29 105.933 109.446 104.525 109.446Z" fill="white" stroke="white" stroke-miterlimit="10"/>
<path d="M76.7971 95.1293H95.8556C96.8041 95.1293 97.5747 94.3586 97.5747 93.4102V91.1427C97.5747 90.1942 96.8041 89.4236 95.8556 89.4236H76.7971C75.8486 89.4236 75.078 90.1942 75.078 91.1427V93.4102C75.078 94.3586 75.8486 95.1293 76.7971 95.1293Z" fill="white" stroke="white" stroke-miterlimit="10"/>
<path d="M27.002 128.815L17.2653 136.181C23.6379 144.554 31.4776 151.623 40.3548 157.107L46.757 146.747C39.1099 142.035 32.4113 135.944 27.002 128.815Z" fill="#F49A2C"/>
<path d="M155.18 104.747L166.784 108.023C169.6 98.1674 170.637 87.6897 169.629 77.0193L157.625 78.1456C157.833 80.3538 157.937 82.5768 157.937 84.8294C157.937 91.7355 156.973 98.4193 155.18 104.747Z" fill="#E7422F"/>
<path d="M12.4784 78.3383L0.355681 77.2268C-0.355679 84.8591 -0.014819 92.7285 1.482 100.628C1.97106 103.206 2.56386 105.755 3.27522 108.23L14.983 104.881C13.1601 98.5083 12.182 91.78 12.182 84.8295C12.182 82.6361 12.2858 80.4724 12.4784 78.3383Z" fill="#407F46"/>
<path d="M35.8051 31.1959L27.6689 22.304C19.9477 29.3879 13.5899 37.8353 8.92163 47.1719L19.7402 52.5367C23.7416 44.4598 29.2102 37.2277 35.8051 31.1959Z" fill="#62B133"/>
<path d="M123.45 146.703L129.867 157.018C138.834 151.445 146.599 144.272 152.853 135.988L143.191 128.726C137.781 135.87 131.083 141.975 123.45 146.703Z" fill="#FBC208"/>
<path d="M152.883 135.958C159.152 127.644 163.879 118.189 166.769 108.082L155.165 104.807C152.675 113.551 148.585 121.628 143.22 128.697L152.883 135.958Z" fill="#2CBAE0"/>
<path d="M3.28998 108.29C6.23915 118.589 11.026 127.985 17.2356 136.136L26.9723 128.771C21.6223 121.716 17.5172 113.669 15.0126 104.94L3.28998 108.29Z" fill="#BE8A30"/>
<path d="M8.89196 47.2163C4.28295 56.4788 1.33377 66.6157 0.355652 77.1675L12.4784 78.279C13.2935 69.1202 15.8129 60.4506 19.7105 52.596L8.89196 47.2163Z" fill="#1595D3"/>
<path d="M142.138 22.1262C134.388 15.1163 125.392 9.54399 115.625 5.76489L111.313 16.9243C119.775 20.1847 127.481 24.9864 134.076 30.9885L142.138 22.1262Z" fill="#DDA639"/>
<path d="M150.275 52.3293L161.034 46.9645C156.291 37.4797 149.845 29.1212 142.183 22.1707L134.121 31.0182C140.745 37.0351 146.244 44.2524 150.275 52.3293Z" fill="#4B9D38"/>
<path d="M111.268 16.8948L115.581 5.73532C105.963 2.0155 95.5888 0.0148028 84.9185 0.0296228L84.9333 12.0486C84.9777 12.0486 85.0074 12.0486 85.0518 12.0486C94.2995 12.0486 103.132 13.7677 111.268 16.8948Z" fill="#E5263C"/>
<path d="M84.874 0.029541C79.7315 0.044361 74.5149 0.5186 69.2834 1.49672C64.052 2.47484 59.0132 3.9272 54.2263 5.77969L58.5834 16.9836C66.7344 13.8121 75.6116 12.0485 84.874 12.0337V0.029541Z" fill="#19496B"/>
<path d="M169.629 76.96C169.392 74.3961 169.022 71.8026 168.533 69.2239C167.036 61.3249 164.502 53.8704 161.064 47.0088L150.304 52.3736C154.231 60.243 156.781 68.9127 157.625 78.0863L169.629 76.96Z" fill="#C31D2F"/>
<path d="M54.167 5.80933C44.2228 9.67734 35.3011 15.3089 27.6985 22.2595L35.8347 31.1515C42.3999 25.1346 50.0915 20.3033 58.524 17.0132L54.167 5.80933Z" fill="#00699E"/>
<path d="M40.3992 157.136C49.2319 162.59 59.0872 166.443 69.4612 168.384L71.6842 156.395C62.7033 154.735 54.2856 151.416 46.7866 146.792L40.3992 157.136Z" fill="#DD1569"/>
<path d="M71.7435 156.395L69.5205 168.385C79.5536 170.252 90.0906 170.341 100.702 168.34L98.4491 156.38C94.1069 157.181 89.646 157.61 85.0667 157.61C80.5169 157.61 76.0561 157.195 71.7435 156.395Z" fill="#EC6A30"/>
<path d="M100.746 168.34C111.357 166.339 121.138 162.442 129.808 157.062L123.391 146.747C115.892 151.386 107.474 154.706 98.4935 156.38L100.746 168.34Z" fill="#A21B43"/>
<path d="M85.037 84.9926L85.0222 84.9778V85.0074L85.0519 85.0667L85.037 84.9926Z" fill="#F49A2C"/>
<path d="M85.037 84.9925L85.1111 85.037L85.0667 84.9777L85.037 84.9629V84.9925Z" fill="#F49A2C"/>
<path d="M85.0222 84.9777L85.037 84.9925L85.0222 84.9629V84.9777Z" fill="#F49A2C"/>
<path d="M85.037 84.9925V84.9629H85.0222L85.037 84.9925Z" fill="#F49A2C"/>
<path d="M85.0518 84.948L85.0666 84.9776L85.1407 84.9925L85.0815 84.948H85.0518Z" fill="#F49A2C"/>
<path d="M85.037 84.9628L85.0667 84.9776L85.037 84.948V84.9628Z" fill="#F49A2C"/>
<path d="M85.037 84.948L85.0667 84.9776L85.0519 84.948H85.037Z" fill="#F49A2C"/>
<path d="M85.0222 84.948V84.9628H85.037V84.948H85.0222Z" fill="#F49A2C"/>
<path d="M85.0815 84.9185L85.0518 84.9333L85.0815 84.9481L85.1556 84.9333L85.0815 84.9185Z" fill="#F49A2C"/>
<path d="M85.037 84.9331L85.0815 84.9479L85.0519 84.9331H85.037Z" fill="#F49A2C"/>
<path d="M85.0815 84.9479L85.037 84.9331L85.0519 84.9479H85.0815Z" fill="#F49A2C"/>
<path d="M85.037 84.9479H85.0519L85.037 84.9331V84.9479Z" fill="#F49A2C"/>
<path d="M85.0815 84.9183L85.1407 84.8887H85.0666L85.0518 84.9183H85.0815Z" fill="#F49A2C"/>
<path d="M85.0519 84.9333L85.0815 84.9185H85.037L85.0519 84.9333Z" fill="#F49A2C"/>
<path d="M85.037 84.9185V84.9333H85.0519L85.037 84.9185Z" fill="#F49A2C"/>
<path d="M85.0222 84.9331V84.9479H85.037V84.9331H85.0222Z" fill="#F49A2C"/>
<path d="M85.0666 84.8889L85.1259 84.8296L85.0518 84.874V84.8889H85.0666Z" fill="#F49A2C"/>
<path d="M85.037 84.9035L85.0519 84.9183L85.0667 84.8887L85.037 84.9035Z" fill="#F49A2C"/>
<path d="M85.0667 84.8887H85.0519L85.037 84.9035L85.0667 84.8887Z" fill="#F49A2C"/>
<path d="M85.037 84.9184H85.0519L85.037 84.9036V84.9184Z" fill="#F49A2C"/>
<path d="M85.0519 84.8739L85.0815 84.7998L85.037 84.8591V84.8739H85.0519Z" fill="#F49A2C"/>
<path d="M85.037 84.8888H85.0519V84.874L85.037 84.8888Z" fill="#F49A2C"/>
<path d="M85.0519 84.874H85.037V84.8888L85.0519 84.874Z" fill="#F49A2C"/>
<path d="M85.037 84.9035L85.0519 84.8887H85.037V84.9035Z" fill="#F49A2C"/>
<path d="M85.037 84.9185H85.0074L85.037 84.9333H85.0222H85.037V84.9185Z" fill="#F49A2C"/>
<path d="M85.037 84.8592V84.7703L85.0074 84.8444V84.874L85.037 84.8592Z" fill="#F49A2C"/>
<path d="M85.0222 84.8888L85.037 84.874V84.8591L85.0222 84.8888Z" fill="#F49A2C"/>
<path d="M85.037 84.8591L85.0074 84.874L85.0222 84.8888L85.037 84.8591Z" fill="#F49A2C"/>
<path d="M85.037 84.8888V84.874L85.0222 84.8888H85.037Z" fill="#F49A2C"/>
<path d="M85.0222 84.9035L85.037 84.8887H85.0222V84.9035Z" fill="#F49A2C"/>
<path d="M85.037 84.9184V84.9036H85.0222L85.037 84.9184Z" fill="#F49A2C"/>
<path d="M85.0222 84.9184H85.037L85.0222 84.9036V84.9184Z" fill="#F49A2C"/>
<path d="M84.9925 84.874L85.0074 84.8444L84.9777 84.7703V84.8592L84.9925 84.874Z" fill="#F49A2C"/>
<path d="M85.0074 84.8442L84.9926 84.8739L85.0074 84.8887V84.8442Z" fill="#F49A2C"/>
<path d="M85.0222 84.8888L85.0074 84.874V84.8888H85.0222Z" fill="#F49A2C"/>
<path d="M85.0222 84.8887H85.0074V84.9035L85.0222 84.8887Z" fill="#F49A2C"/>
<path d="M85.0074 84.9035L85.0222 84.8887L85.0074 84.9035Z" fill="#F49A2C"/>
<path d="M85.0222 84.9035V84.8887L85.0074 84.9035H85.0222Z" fill="#F49A2C"/>
<path d="M85.0074 84.9184L85.0222 84.9036V84.9184V84.9036L85.0074 84.9184Z" fill="#F49A2C"/>
<path d="M85.0074 84.9184H85.0222V84.9036L85.0074 84.9184Z" fill="#F49A2C"/>
<path d="M84.9777 84.8739V84.8591L84.9185 84.7998L84.9481 84.8739H84.9777Z" fill="#F49A2C"/>
<path d="M84.9925 84.8888L84.9777 84.8591V84.874L84.9925 84.8888Z" fill="#F49A2C"/>
<path d="M84.9925 84.874L84.9777 84.8591L84.9925 84.8888V84.874Z" fill="#F49A2C"/>
<path d="M84.9926 84.8888H85.0074L84.9926 84.874V84.8888Z" fill="#F49A2C"/>
<path d="M85.0222 84.9036L85.0074 84.9184L85.0222 84.9036H85.0074H85.0222Z" fill="#F49A2C"/>
<path d="M85.0074 84.9184L85.0222 84.9036L85.0074 84.9184Z" fill="#F49A2C"/>
<path d="M85.0074 84.9184L85.0222 84.9036L85.0074 84.9184Z" fill="#F49A2C"/>
<path d="M84.9481 84.874L84.8888 84.8296L84.9333 84.8889H84.9629L84.9481 84.874Z" fill="#F49A2C"/>
<path d="M84.9778 84.8888L84.9481 84.874L84.9629 84.8888H84.9778Z" fill="#F49A2C"/>
<path d="M84.9481 84.874L84.9778 84.8888V84.874H84.9481Z" fill="#F49A2C"/>
<path d="M84.9777 84.8888H84.9925L84.9777 84.874V84.8888Z" fill="#F49A2C"/>
<path d="M84.9925 84.8887H84.9777L84.9925 84.9035V84.8887Z" fill="#F49A2C"/>
<path d="M84.9926 84.9035L85.0074 84.8887H84.9926V84.9035Z" fill="#F49A2C"/>
<path d="M85.0074 84.9035V84.8887L84.9926 84.9035H85.0074Z" fill="#F49A2C"/>
<path d="M85.0222 84.9036H85.0074V84.9184L85.0222 84.9036Z" fill="#F49A2C"/>
<path d="M84.9481 84.9183L84.9333 84.8887H84.8592L84.9333 84.9183H84.9481Z" fill="#F49A2C"/>
<path d="M84.9629 84.9035V84.8887H84.9333L84.9629 84.9035Z" fill="#F49A2C"/>
<path d="M84.9629 84.9035L84.9333 84.8887L84.9481 84.9183L84.9629 84.9035Z" fill="#F49A2C"/>
<path d="M84.9777 84.9035V84.8887H84.9629V84.9035H84.9777Z" fill="#F49A2C"/>
<path d="M84.9925 84.9035L84.9777 84.8887V84.9035H84.9925Z" fill="#F49A2C"/>
<path d="M84.9926 84.9036L85.0074 84.9184V84.9036H84.9926Z" fill="#F49A2C"/>
<path d="M84.9481 84.9333L84.9333 84.9185L84.8592 84.9333L84.9333 84.9481L84.9481 84.9333Z" fill="#F49A2C"/>
<path d="M84.9629 84.9185H84.9333L84.9481 84.9333L84.9629 84.9185Z" fill="#F49A2C"/>
<path d="M84.9629 84.9184V84.9036L84.9481 84.9184H84.9629Z" fill="#F49A2C"/>
<path d="M84.9629 84.9036V84.9184H84.9777L84.9629 84.9036Z" fill="#F49A2C"/>
<path d="M84.9777 84.9184V84.9036H84.9629L84.9777 84.9184Z" fill="#F49A2C"/>
<path d="M84.9925 84.9036L85.0074 84.9184L84.9925 84.9036H84.9777H84.9925Z" fill="#F49A2C"/>
<path d="M84.9926 84.9036L85.0074 84.9184L84.9926 84.9036Z" fill="#F49A2C"/>
<path d="M84.9926 84.9036L85.0074 84.9184L84.9926 84.9036Z" fill="#F49A2C"/>
<path d="M84.9333 84.948L84.874 84.9925L84.9481 84.9776L84.9629 84.948H84.9333Z" fill="#F49A2C"/>
<path d="M84.9629 84.9331H84.9481L84.9333 84.9479L84.9629 84.9331Z" fill="#F49A2C"/>
<path d="M84.9333 84.9479H84.9629V84.9331L84.9333 84.9479Z" fill="#F49A2C"/>
<path d="M84.9629 84.9333V84.9185L84.9481 84.9333H84.9629Z" fill="#F49A2C"/>
<path d="M84.9629 84.9185V84.9333L84.9777 84.9185H84.9629Z" fill="#F49A2C"/>
<path d="M84.9777 84.9036L85.0074 84.9184L84.9777 84.9036V84.9184V84.9036Z" fill="#F49A2C"/>
<path d="M84.9925 84.9036H84.9777L85.0074 84.9184L84.9925 84.9036Z" fill="#F49A2C"/>
<path d="M84.9777 84.9036L85.0074 84.9184L84.9777 84.9036Z" fill="#F49A2C"/>
<path d="M84.9481 84.9777L84.9036 85.037L84.9629 84.9925V84.9629L84.9481 84.9777Z" fill="#F49A2C"/>
<path d="M84.9629 84.948L84.9481 84.9776L84.9629 84.948Z" fill="#F49A2C"/>
<path d="M84.9481 84.9776L84.9629 84.9628V84.948L84.9481 84.9776Z" fill="#F49A2C"/>
<path d="M84.9629 84.9479H84.9777L84.9629 84.9331V84.9479Z" fill="#F49A2C"/>
<path d="M84.9629 84.9331L84.9777 84.9479V84.9331H84.9629Z" fill="#F49A2C"/>
<path d="M84.9777 84.9333V84.9185L84.9629 84.9333H84.9777Z" fill="#F49A2C"/>
<path d="M85.0074 84.9184L84.9777 84.9036V84.9184H85.0074Z" fill="#F49A2C"/>
<path d="M84.9926 85.0074L85.0074 85.0815L85.0222 85.0074L85.0074 84.9778L84.9926 85.0074Z" fill="#F49A2C"/>
<path d="M85.0074 84.9777L85.0222 85.0073L85.0074 84.9629V84.9777Z" fill="#F49A2C"/>
<path d="M85.0074 84.9629L85.0222 85.0073V84.9777L85.0074 84.9629Z" fill="#F49A2C"/>
<path d="M85.0222 84.9629H85.0074L85.0222 84.9777V84.9629Z" fill="#F49A2C"/>
<path d="M85.0222 84.9333L85.0074 84.9185L85.0222 84.9333V84.9481V84.9333Z" fill="#F49A2C"/>
<path d="M85.0222 84.9333L85.0074 84.9185L85.0222 84.9333Z" fill="#F49A2C"/>
<path d="M85.037 84.9333L85.0074 84.9185L85.0222 84.9333H85.037Z" fill="#F49A2C"/>
<path d="M84.9629 84.9926L84.9481 85.0667L84.9926 85.0074L84.9778 84.9778L84.9629 84.9926Z" fill="#F49A2C"/>
<path d="M84.9777 84.9777L84.9925 85.0073V84.9629L84.9777 84.9777Z" fill="#F49A2C"/>
<path d="M84.9926 84.9629V85.0073L85.0074 84.9777L84.9926 84.9629Z" fill="#F49A2C"/>
<path d="M84.9926 84.9629L85.0074 84.9777V84.9629H84.9926Z" fill="#F49A2C"/>
<path d="M85.0222 84.948H85.0074V84.9628H85.0222V84.948Z" fill="#F49A2C"/>
<path d="M85.0222 84.9481L85.0074 84.9185L85.0222 84.9481Z" fill="#F49A2C"/>
<path d="M85.0222 84.9481L85.0074 84.9185L85.0222 84.9481Z" fill="#F49A2C"/>
<path d="M85.0074 84.9185L85.0222 84.9481V84.9333L85.0074 84.9185Z" fill="#F49A2C"/>
<path d="M84.9777 84.9629H84.9629V84.9925L84.9777 84.9629Z" fill="#F49A2C"/>
<path d="M84.9777 84.9629L84.9629 84.9925L84.9777 84.9777V84.9629Z" fill="#F49A2C"/>
<path d="M84.9777 84.9629V84.9777L84.9925 84.9629H84.9777Z" fill="#F49A2C"/>
<path d="M84.9926 84.9628H85.0074V84.948L84.9926 84.9628Z" fill="#F49A2C"/>
<path d="M85.0222 84.9481L85.0074 84.9185V84.9481H85.0222Z" fill="#F49A2C"/>
<path d="M85.0222 84.9481L85.0074 84.9185L85.0222 84.9481Z" fill="#F49A2C"/>
<path d="M85.0222 84.9481L85.0074 84.9185L85.0222 84.9481Z" fill="#F49A2C"/>
<path d="M84.9629 84.948V84.9628H84.9777V84.948H84.9629Z" fill="#F49A2C"/>
<path d="M84.9777 84.9628H84.9925V84.948L84.9777 84.9628Z" fill="#F49A2C"/>
<path d="M84.9925 84.948H84.9777V84.9628L84.9925 84.948Z" fill="#F49A2C"/>
<path d="M84.9926 84.9628L85.0074 84.948H84.9926V84.9628Z" fill="#F49A2C"/>
<path d="M85.0074 84.9185V84.9481H84.9926H85.0074V84.9185Z" fill="#F49A2C"/>
<path d="M85.0074 84.9185L84.9926 84.9481L85.0074 84.9185Z" fill="#F49A2C"/>
<path d="M85.0074 84.9185L84.9926 84.9481H85.0074V84.9185Z" fill="#F49A2C"/>
<path d="M84.9926 84.9481L85.0074 84.9185L84.9926 84.9481Z" fill="#F49A2C"/>
<path d="M85.0074 84.9185L84.9777 84.9481H84.9925L85.0074 84.9185Z" fill="#F49A2C"/>
<path d="M84.9926 84.9481L85.0074 84.9185L84.9926 84.9481Z" fill="#F49A2C"/>
<path d="M85.0074 84.9185L84.9926 84.9481L85.0074 84.9185Z" fill="#F49A2C"/>
<path d="M84.9777 84.9333L85.0074 84.9185L84.9777 84.9333V84.9481V84.9333Z" fill="#F49A2C"/>
<path d="M84.9777 84.9333V84.9481L85.0074 84.9185L84.9777 84.9333Z" fill="#F49A2C"/>
<path d="M84.9777 84.9481L85.0074 84.9185L84.9777 84.9481Z" fill="#F49A2C"/>
<path d="M84.9777 84.9333L85.0074 84.9185H84.9777V84.9333Z" fill="#F49A2C"/>
<path d="M84.9777 84.9333L85.0074 84.9185L84.9777 84.9333Z" fill="#F49A2C"/>
<path d="M84.9777 84.9333L85.0074 84.9185L84.9777 84.9333Z" fill="#F49A2C"/>
</g>
<defs>
<clipPath id="clip0_289_1711">
<rect width="170" height="169.822" fill="white"/>
</clipPath>
</defs>
</svg>
