<svg width="170" height="170" viewBox="0 0 170 170" fill="none" xmlns="http://www.w3.org/2000/svg">
<g clip-path="url(#clip0_289_765)">
<path d="M85.0074 169.867C131.849 169.867 169.822 131.894 169.822 85.0518C169.822 38.2099 131.849 0.237061 85.0074 0.237061C38.1655 0.237061 0.192688 38.2099 0.192688 85.0518C0.192688 131.894 38.1655 169.867 85.0074 169.867Z" fill="#EC6A30"/>
<path d="M27.002 128.786L17.2653 136.151C23.6379 144.524 31.4777 151.594 40.3549 157.077L46.7423 146.718C39.11 142.005 32.4113 135.914 27.002 128.786Z" fill="#F49A2C"/>
<path d="M155.18 104.718L166.784 107.993C169.6 98.1379 170.637 87.6601 169.63 76.9897L157.625 78.1161C157.833 80.3242 157.937 82.5472 157.937 84.7999C157.937 91.706 156.973 98.3898 155.18 104.718Z" fill="#E7422F"/>
<path d="M12.4784 78.3088L0.355681 77.1973C-0.355679 84.8296 -0.014819 92.699 1.482 100.598C1.97106 103.177 2.56386 105.726 3.27522 108.201L14.983 104.851C13.1601 98.4788 12.182 91.7505 12.182 84.7999C12.182 82.6066 12.2858 80.4428 12.4784 78.3088Z" fill="#407F46"/>
<path d="M35.8051 31.1664L27.669 22.2744C19.9329 29.3435 13.5752 37.7909 8.90686 47.1423L19.7254 52.5072C23.7417 44.4303 29.2102 37.1981 35.8051 31.1664Z" fill="#62B133"/>
<path d="M123.45 146.673L129.867 156.988C138.834 151.416 146.599 144.243 152.853 135.959L143.191 128.697C137.781 135.84 131.083 141.946 123.45 146.673Z" fill="#FBC208"/>
<path d="M152.883 135.929C159.152 127.615 163.879 118.16 166.769 108.052L155.165 104.777C152.675 113.521 148.585 121.598 143.22 128.667L152.883 135.929Z" fill="#2CBAE0"/>
<path d="M3.29004 108.26C6.23922 118.56 11.0261 127.941 17.2356 136.107L26.9724 128.741C21.6224 121.687 17.5172 113.64 15.0126 104.911L3.29004 108.26Z" fill="#BE8A30"/>
<path d="M8.89202 47.1868C4.28301 56.4493 1.33383 66.5861 0.355713 77.1379L12.4785 78.2494C13.2936 69.0907 15.813 60.421 19.7106 52.5664L8.89202 47.1868Z" fill="#1595D3"/>
<path d="M142.138 22.0965C134.388 15.0866 125.392 9.51432 115.625 5.73523L111.313 16.8947C119.775 20.1551 127.481 24.9567 134.076 30.9588L142.138 22.0965Z" fill="#DDA639"/>
<path d="M150.275 52.2997L161.034 46.9348C156.292 37.45 149.845 29.0916 142.183 22.141L134.121 30.9885C140.745 37.0054 146.244 44.2228 150.275 52.2997Z" fill="#4B9D38"/>
<path d="M111.268 16.8651L115.581 5.70565C105.963 1.98584 95.5889 -0.0148603 84.9185 -4.03277e-05L84.9333 12.019C84.9778 12.019 85.0074 12.019 85.0519 12.019C94.2996 12.019 103.132 13.7381 111.268 16.8651Z" fill="#E5263C"/>
<path d="M84.874 0C79.7315 0.01482 74.5149 0.489059 69.2834 1.46718C64.052 2.4453 59.0132 3.89766 54.2263 5.75015L58.5834 16.9541C66.7344 13.7826 75.6116 12.019 84.874 12.0042V0Z" fill="#19496B"/>
<path d="M169.63 76.9304C169.392 74.3666 169.022 71.7731 168.533 69.1944C167.036 61.2953 164.502 53.8409 161.064 46.9792L150.304 52.3441C154.232 60.2135 156.781 68.8832 157.625 78.0567L169.63 76.9304Z" fill="#C31D2F"/>
<path d="M54.167 5.77979C44.2228 9.6478 35.3012 15.2794 27.6985 22.23L35.8347 31.122C42.4 25.105 50.0915 20.2737 58.5241 16.9837L54.167 5.77979Z" fill="#00699E"/>
<path d="M40.3993 157.107C49.232 162.56 59.0873 166.413 69.4613 168.355L71.6843 156.366C62.7034 154.706 54.2856 151.386 46.7867 146.762L40.3993 157.107Z" fill="#DD1569"/>
<path d="M71.7436 156.366L69.5206 168.355C79.5537 170.222 90.0907 170.311 100.702 168.311L98.4492 156.351C94.1069 157.151 89.6461 157.581 85.0667 157.581C80.517 157.581 76.0562 157.166 71.7436 156.366Z" fill="#EC6A30"/>
<path d="M100.746 168.31C111.357 166.31 121.139 162.412 129.808 157.032L123.391 146.718C115.892 151.356 107.474 154.676 98.4936 156.351L100.746 168.31Z" fill="#A21B43"/>
<path d="M85.0371 84.9628L85.0223 84.948V84.9776L85.0519 85.0369L85.0371 84.9628Z" fill="#F49A2C"/>
<path d="M85.0371 84.963L85.1112 85.0074L85.0668 84.9482L85.0371 84.9333V84.963Z" fill="#F49A2C"/>
<path d="M85.0223 84.9482L85.0371 84.963L85.0223 84.9333V84.9482Z" fill="#F49A2C"/>
<path d="M85.0371 84.963V84.9333H85.0223L85.0371 84.963Z" fill="#F49A2C"/>
<path d="M85.0519 84.9185L85.0667 84.9481L85.1408 84.9629L85.0815 84.9185H85.0519Z" fill="#F49A2C"/>
<path d="M85.0371 84.9333L85.0668 84.9481L85.0371 84.9185V84.9333Z" fill="#F49A2C"/>
<path d="M85.0371 84.9185L85.0668 84.9481L85.0519 84.9185H85.0371Z" fill="#F49A2C"/>
<path d="M85.0223 84.9185V84.9333H85.0371V84.9185H85.0223Z" fill="#F49A2C"/>
<path d="M85.0815 84.8887L85.0519 84.9035L85.0815 84.9183L85.1556 84.9035L85.0815 84.8887Z" fill="#F49A2C"/>
<path d="M85.0371 84.9036L85.0816 84.9184L85.0519 84.9036H85.0371Z" fill="#F49A2C"/>
<path d="M85.0816 84.9184L85.0371 84.9036L85.0519 84.9184H85.0816Z" fill="#F49A2C"/>
<path d="M85.0371 84.9184H85.0519L85.0371 84.9036V84.9184Z" fill="#F49A2C"/>
<path d="M85.0815 84.8888L85.1408 84.8591H85.0667L85.0519 84.8888H85.0815Z" fill="#F49A2C"/>
<path d="M85.0519 84.9035L85.0816 84.8887H85.0371L85.0519 84.9035Z" fill="#F49A2C"/>
<path d="M85.0371 84.8887V84.9035H85.0519L85.0371 84.8887Z" fill="#F49A2C"/>
<path d="M85.0223 84.9036V84.9184H85.0371V84.9036H85.0223Z" fill="#F49A2C"/>
<path d="M85.0667 84.8591L85.126 84.7998L85.0519 84.8443V84.8591H85.0667Z" fill="#F49A2C"/>
<path d="M85.0371 84.874L85.0519 84.8888L85.0668 84.8591L85.0371 84.874Z" fill="#F49A2C"/>
<path d="M85.0668 84.8591H85.0519L85.0371 84.874L85.0668 84.8591Z" fill="#F49A2C"/>
<path d="M85.0371 84.8888H85.0519L85.0371 84.874V84.8888Z" fill="#F49A2C"/>
<path d="M85.0519 84.8444L85.0816 84.7703L85.0371 84.8295V84.8444H85.0519Z" fill="#F49A2C"/>
<path d="M85.0371 84.8591H85.0519V84.8442L85.0371 84.8591Z" fill="#F49A2C"/>
<path d="M85.0519 84.8442H85.0371V84.8591L85.0519 84.8442Z" fill="#F49A2C"/>
<path d="M85.0371 84.874L85.0519 84.8591H85.0371V84.874Z" fill="#F49A2C"/>
<path d="M85.0371 84.9035H85.0074H85.0371H85.0223H85.0371V84.8887V84.9035Z" fill="#F49A2C"/>
<path d="M85.0371 84.8296V84.7407L85.0074 84.8148V84.8445L85.0371 84.8296Z" fill="#F49A2C"/>
<path d="M85.0223 84.8592L85.0371 84.8444V84.8296L85.0223 84.8592Z" fill="#F49A2C"/>
<path d="M85.0371 84.8296L85.0074 84.8444L85.0223 84.8592L85.0371 84.8296Z" fill="#F49A2C"/>
<path d="M85.0371 84.8591V84.8442L85.0223 84.8591V84.8739L85.0371 84.8591Z" fill="#F49A2C"/>
<path d="M85.0223 84.874L85.0371 84.8591L85.0223 84.874Z" fill="#F49A2C"/>
<path d="M85.0371 84.8888V84.874H85.0223L85.0371 84.8888Z" fill="#F49A2C"/>
<path d="M85.0223 84.8888H85.0371L85.0223 84.874V84.8888Z" fill="#F49A2C"/>
<path d="M85.0074 84.9035L85.0371 84.8887H85.0223L85.0074 84.9035Z" fill="#F49A2C"/>
<path d="M85.0074 84.9035H85.0371V84.8887L85.0074 84.9035Z" fill="#F49A2C"/>
<path d="M85.0371 84.8887L85.0074 84.9035L85.0371 84.8887Z" fill="#F49A2C"/>
<path d="M84.9926 84.8445L85.0074 84.8148L84.9778 84.7407V84.8296L84.9926 84.8445Z" fill="#F49A2C"/>
<path d="M85.0074 84.8147L84.9926 84.8443L85.0074 84.8592V84.8147Z" fill="#F49A2C"/>
<path d="M85.0223 84.8591L85.0074 84.8442V84.8591H85.0223Z" fill="#F49A2C"/>
<path d="M85.0223 84.8591H85.0074V84.874L85.0223 84.8591Z" fill="#F49A2C"/>
<path d="M85.0074 84.874H85.0223V84.8591L85.0074 84.874Z" fill="#F49A2C"/>
<path d="M85.0074 84.9037L85.0223 84.8888V84.874L85.0074 84.9037Z" fill="#F49A2C"/>
<path d="M85.0223 84.8887L85.0074 84.9035L85.0223 84.8887Z" fill="#F49A2C"/>
<path d="M85.0074 84.9035L85.0223 84.8887L85.0074 84.9035Z" fill="#F49A2C"/>
<path d="M84.9778 84.8444V84.8295L84.9185 84.7703L84.9482 84.8444H84.9778Z" fill="#F49A2C"/>
<path d="M84.9926 84.8592L84.9778 84.8296V84.8444L84.9926 84.8592Z" fill="#F49A2C"/>
<path d="M84.9926 84.8444L84.9778 84.8296L84.9926 84.8592V84.8444Z" fill="#F49A2C"/>
<path d="M84.9926 84.8591H85.0074L84.9926 84.8442V84.8591Z" fill="#F49A2C"/>
<path d="M85.0223 84.874L85.0074 84.9037L85.0223 84.874H85.0074H85.0223Z" fill="#F49A2C"/>
<path d="M85.0074 84.9037L85.0223 84.874L85.0074 84.9037Z" fill="#F49A2C"/>
<path d="M85.0074 84.9037L85.0223 84.874L85.0074 84.9037Z" fill="#F49A2C"/>
<path d="M84.9481 84.8443L84.8889 84.7998L84.9333 84.8591H84.963L84.9481 84.8443Z" fill="#F49A2C"/>
<path d="M84.9778 84.8591L84.9481 84.8442L84.9629 84.8591H84.9778Z" fill="#F49A2C"/>
<path d="M84.9481 84.8442L84.9778 84.8591V84.8442H84.9481Z" fill="#F49A2C"/>
<path d="M84.9778 84.8739L84.9926 84.8591L84.9778 84.8442V84.8591V84.8739Z" fill="#F49A2C"/>
<path d="M84.9926 84.8591L84.9778 84.874H84.9926V84.8591Z" fill="#F49A2C"/>
<path d="M84.9926 84.874L85.0074 84.8591H84.9926V84.874Z" fill="#F49A2C"/>
<path d="M85.0074 84.874V84.8591L84.9926 84.874H85.0074Z" fill="#F49A2C"/>
<path d="M85.0223 84.874H85.0074V84.9037L85.0223 84.874Z" fill="#F49A2C"/>
<path d="M84.9482 84.8888L84.9334 84.8591H84.8593L84.9334 84.8888H84.9482Z" fill="#F49A2C"/>
<path d="M84.963 84.874V84.8591H84.9333L84.963 84.874Z" fill="#F49A2C"/>
<path d="M84.963 84.874L84.9333 84.8591L84.9482 84.8888L84.963 84.874Z" fill="#F49A2C"/>
<path d="M84.9778 84.874V84.8591H84.963V84.874H84.9778Z" fill="#F49A2C"/>
<path d="M84.9926 84.874L85.0074 84.9037V84.8888V84.874H84.9926Z" fill="#F49A2C"/>
<path d="M84.9482 84.9035L84.9334 84.8887L84.8593 84.9035L84.9334 84.9183L84.9482 84.9035Z" fill="#F49A2C"/>
<path d="M84.963 84.8887H84.9333L84.9482 84.9035L84.963 84.8887Z" fill="#F49A2C"/>
<path d="M84.9629 84.8888V84.874L84.9481 84.8888H84.9629Z" fill="#F49A2C"/>
<path d="M84.963 84.874V84.8888H84.9778L84.963 84.874Z" fill="#F49A2C"/>
<path d="M84.9778 84.8888V84.874H84.963L84.9778 84.8888Z" fill="#F49A2C"/>
<path d="M84.9926 84.874L85.0074 84.9037L84.9926 84.874H84.9778H84.9926Z" fill="#F49A2C"/>
<path d="M84.9926 84.874L85.0074 84.9037L84.9926 84.874Z" fill="#F49A2C"/>
<path d="M84.9926 84.874L85.0074 84.9037L84.9926 84.874Z" fill="#F49A2C"/>
<path d="M84.9334 84.9185L84.8741 84.9629L84.9482 84.9481L84.963 84.9185H84.9334Z" fill="#F49A2C"/>
<path d="M84.963 84.9036H84.9482L84.9333 84.9184L84.963 84.9036Z" fill="#F49A2C"/>
<path d="M84.9333 84.9184H84.963V84.9036L84.9333 84.9184Z" fill="#F49A2C"/>
<path d="M84.9629 84.9035V84.8887L84.9481 84.9035H84.9629Z" fill="#F49A2C"/>
<path d="M84.963 84.8887V84.9035L84.9778 84.8887H84.963Z" fill="#F49A2C"/>
<path d="M84.9778 84.8888L85.0074 84.9037L84.9778 84.874V84.8888Z" fill="#F49A2C"/>
<path d="M84.9926 84.874H84.9778L85.0074 84.9037L84.9926 84.874Z" fill="#F49A2C"/>
<path d="M84.9778 84.874L85.0074 84.9037L84.9778 84.874Z" fill="#F49A2C"/>
<path d="M84.9481 84.9482L84.9037 85.0074L84.963 84.963V84.9333L84.9481 84.9482Z" fill="#F49A2C"/>
<path d="M84.9629 84.9185L84.9481 84.9481L84.9629 84.9185Z" fill="#F49A2C"/>
<path d="M84.9481 84.9481L84.9629 84.9333V84.9185L84.9481 84.9481Z" fill="#F49A2C"/>
<path d="M84.963 84.9184H84.9778L84.963 84.9036V84.9184Z" fill="#F49A2C"/>
<path d="M84.963 84.9036L84.9778 84.9184V84.9036H84.963Z" fill="#F49A2C"/>
<path d="M84.9778 84.9035V84.8887L84.963 84.9035H84.9778Z" fill="#F49A2C"/>
<path d="M84.9778 84.8887L85.0074 84.9035L84.9778 84.8887Z" fill="#F49A2C"/>
<path d="M85.0074 84.9035L84.9778 84.8887L85.0074 84.9035Z" fill="#F49A2C"/>
<path d="M84.9778 84.8887L85.0074 84.9035L84.9778 84.8887Z" fill="#F49A2C"/>
<path d="M84.9926 84.9776L85.0074 85.0517L85.0223 84.9776L85.0074 84.948L84.9926 84.9776Z" fill="#F49A2C"/>
<path d="M85.0074 84.9482L85.0223 84.9778L85.0074 84.9333V84.9482Z" fill="#F49A2C"/>
<path d="M85.0074 84.9333L85.0223 84.9778V84.9482L85.0074 84.9333Z" fill="#F49A2C"/>
<path d="M85.0223 84.9333H85.0074L85.0223 84.9482V84.9333Z" fill="#F49A2C"/>
<path d="M85.0223 84.9036H85.0074H85.0223V84.9184V84.9036Z" fill="#F49A2C"/>
<path d="M84.9629 84.9628L84.9481 85.0369L84.9926 84.9776L84.9778 84.948L84.9629 84.9628Z" fill="#F49A2C"/>
<path d="M84.9778 84.9482L84.9926 84.9778V84.9333L84.9778 84.9482Z" fill="#F49A2C"/>
<path d="M84.9926 84.9333V84.9778L85.0074 84.9482L84.9926 84.9333Z" fill="#F49A2C"/>
<path d="M84.9926 84.9333L85.0074 84.9482V84.9333H84.9926Z" fill="#F49A2C"/>
<path d="M85.0223 84.9185H85.0074V84.9333H85.0223V84.9185Z" fill="#F49A2C"/>
<path d="M85.0223 84.9184L85.0074 84.9036L85.0223 84.9184Z" fill="#F49A2C"/>
<path d="M85.0223 84.9184L85.0074 84.9036L85.0223 84.9184Z" fill="#F49A2C"/>
<path d="M85.0074 84.9036L85.0223 84.9184V84.9036H85.0074Z" fill="#F49A2C"/>
<path d="M84.9778 84.9333H84.963V84.963L84.9778 84.9333Z" fill="#F49A2C"/>
<path d="M84.9778 84.9333L84.963 84.963L84.9778 84.9482V84.9333Z" fill="#F49A2C"/>
<path d="M84.9778 84.9333V84.9482L84.9926 84.9333H84.9778Z" fill="#F49A2C"/>
<path d="M84.9926 84.9333H85.0074V84.9185L84.9926 84.9333Z" fill="#F49A2C"/>
<path d="M85.0223 84.9184L85.0074 84.9036V84.9184H85.0223Z" fill="#F49A2C"/>
<path d="M85.0223 84.9184L85.0074 84.9036L85.0223 84.9184Z" fill="#F49A2C"/>
<path d="M85.0223 84.9184L85.0074 84.9036L85.0223 84.9184Z" fill="#F49A2C"/>
<path d="M84.963 84.9185V84.9333H84.9778V84.9185H84.963Z" fill="#F49A2C"/>
<path d="M84.9778 84.9333H84.9926V84.9185L84.9778 84.9333Z" fill="#F49A2C"/>
<path d="M84.9926 84.9185H84.9778V84.9333L84.9926 84.9185Z" fill="#F49A2C"/>
<path d="M84.9926 84.9333L85.0074 84.9185H84.9926V84.9333Z" fill="#F49A2C"/>
<path d="M85.0074 84.9036V84.9184H84.9926H85.0074V84.9036Z" fill="#F49A2C"/>
<path d="M85.0074 84.9036L84.9926 84.9184L85.0074 84.9036Z" fill="#F49A2C"/>
<path d="M85.0074 84.9036L84.9926 84.9184H85.0074V84.9036Z" fill="#F49A2C"/>
<path d="M84.9926 84.9184L85.0074 84.9036L84.9926 84.9184Z" fill="#F49A2C"/>
<path d="M85.0074 84.9036L84.9778 84.9184H84.9926L85.0074 84.9036Z" fill="#F49A2C"/>
<path d="M84.9926 84.9184L85.0074 84.9036L84.9926 84.9184Z" fill="#F49A2C"/>
<path d="M85.0074 84.9036L84.9926 84.9184L85.0074 84.9036Z" fill="#F49A2C"/>
<path d="M84.9778 84.9036H85.0074H84.9778V84.9184V84.9036Z" fill="#F49A2C"/>
<path d="M84.9778 84.9036V84.9184L85.0074 84.9036H84.9778Z" fill="#F49A2C"/>
<path d="M84.9778 84.9184L85.0074 84.9036L84.9778 84.9184Z" fill="#F49A2C"/>
<path d="M84.9778 84.9035H85.0074H84.9778V84.8887V84.9035Z" fill="#F49A2C"/>
<path d="M84.9778 84.8887V84.9035H85.0074L84.9778 84.8887Z" fill="#F49A2C"/>
<path d="M85.0074 84.9035L84.9778 84.8887L85.0074 84.9035Z" fill="#F49A2C"/>
<path d="M60.4062 136.166C59.769 136.166 59.1465 136.003 58.5537 135.692L35.8347 123.272C35.3457 123.006 35.0493 122.502 35.0493 121.954V91.0687C35.0493 90.8316 35.1234 90.6241 35.2419 90.4314C35.5383 89.5126 36.1608 88.7419 37.0203 88.2825C37.1241 88.2232 58.1388 76.7526 61.4881 74.9297V45.3935C61.414 45.0675 61.3844 44.7266 61.3992 44.4006C61.414 44.1931 61.4436 43.9708 61.4881 43.7485V43.6744C61.4881 43.378 61.5918 43.1112 61.7845 42.9037C62.2291 41.9849 63.0294 41.3032 64.0223 40.9771L85.9114 33.9969C86.6672 33.7598 87.4527 33.7598 88.2085 33.9969L109.964 40.992C111.076 41.3476 111.935 42.1924 112.335 43.2742C112.469 43.4669 112.543 43.6892 112.543 43.9411V44.0893C112.558 44.2079 112.573 44.3413 112.573 44.4747C112.573 44.6673 112.573 44.86 112.543 45.0675V75.6263L133.232 87.6008C134.313 88.2232 134.995 89.4088 134.98 90.6537L134.817 118.367C134.817 119.553 134.15 120.62 133.113 121.168L108.482 133.958C108.438 133.987 108.393 134.017 108.349 134.047C108.275 134.091 108.186 134.121 108.112 134.165L108.082 134.18C108.067 134.18 108.052 134.195 108.052 134.195L107.267 134.506C107.134 134.565 106.985 134.595 106.837 134.595C106.259 134.595 105.133 134.284 104.51 133.884L84.3702 120.635L62.57 135.484C61.9179 135.929 61.1621 136.166 60.4062 136.166Z" fill="white" stroke="white" stroke-width="0.7205" stroke-miterlimit="10"/>
<path d="M60.9546 101.176C60.7767 101.176 60.5841 101.131 60.4211 101.042L43.8227 92.5506C43.4374 92.3579 43.1854 91.9578 43.1854 91.528C43.1854 91.0982 43.4077 90.6981 43.793 90.4906L63.2369 79.8795C63.5629 79.7017 63.963 79.6869 64.3039 79.8499L79.9538 87.334C80.3391 87.5118 80.5911 87.8971 80.6207 88.3269C80.6503 88.7567 80.4429 89.1568 80.0724 89.3791L61.5918 100.998C61.3844 101.117 61.1769 101.176 60.9546 101.176Z" fill="#EC6A30"/>
<path d="M108.69 100.687C108.467 100.687 108.23 100.613 108.038 100.494L107.949 100.435L88.831 89.5274C88.4605 89.3199 88.2382 88.9198 88.2678 88.5048C88.2975 88.0899 88.5642 87.7194 88.9644 87.5564L110.394 78.8718C110.72 78.7385 111.091 78.7681 111.402 78.9311L129.956 89.3792C130.327 89.5867 130.549 89.972 130.52 90.387C130.505 90.8019 130.238 91.1724 129.853 91.3354L109.164 100.598C109.016 100.657 108.853 100.687 108.69 100.687Z" fill="#EC6A30"/>
<path d="M85.1556 51.6327C84.9778 51.6327 84.7851 51.603 84.6221 51.5437L68.7499 45.9566C68.2164 45.7639 67.8755 45.3193 67.8904 44.8303C67.92 44.3412 68.3053 43.9114 68.8537 43.7632L85.9559 39.1839C86.2375 39.1098 86.5339 39.1098 86.8007 39.1839L103.355 43.6595C103.918 43.8077 104.303 44.2523 104.318 44.7414C104.333 45.2452 103.977 45.6898 103.429 45.8677L85.6595 51.5586C85.4965 51.6178 85.3187 51.6327 85.1556 51.6327Z" fill="#EC6A30"/>
</g>
<defs>
<clipPath id="clip0_289_765">
<rect width="170" height="169.867" fill="white"/>
</clipPath>
</defs>
</svg>
