<svg width="107" height="38" viewBox="0 0 107 38" fill="none" xmlns="http://www.w3.org/2000/svg">
<path d="M56.3522 7.74846C56.6959 7.78457 56.7912 8.28284 56.8028 8.67423C56.8028 9.81375 56.7667 10.3842 56.7667 10.9533C56.7782 11.6306 56.8028 13.1139 56.8143 13.3392C56.9573 13.3392 57.5509 13.3392 58.286 13.3392C58.5113 13.3392 58.6659 13.3392 59.0573 13.3623C59.401 13.3984 59.544 13.849 59.3894 14.1581C59.1757 14.395 58.7005 14.4311 58.4868 14.4426C58.2254 14.4542 57.9885 14.4426 57.7155 14.4311C57.2173 14.408 56.0055 14.5379 55.8279 14.2404V14.252C55.6387 13.9675 55.6734 13.3016 55.6734 12.9695C55.6618 12.5059 55.6373 11.9729 55.6373 11.4024C55.6373 10.4059 55.6257 9.53934 55.6257 8.67278C55.6286 7.86689 55.6878 7.65314 56.3522 7.74846Z" fill="#2F52A0"/>
<path d="M60.1506 13.9573C61.4924 10.325 62.4658 8.16442 62.5842 7.92756C62.668 7.76147 62.8572 7.6777 63.094 7.6777C63.4378 7.6777 63.9014 7.84379 63.9967 8.00988C64.3404 8.62658 64.7925 10.0044 65.0655 11.0371C65.3269 12.022 65.5753 13.0186 65.9089 13.8505C65.9205 13.9097 65.9205 14.2072 65.8251 14.3372C65.6952 14.4441 65.5406 14.4802 65.3976 14.4802C65.1608 14.4802 64.9225 14.3617 64.8878 14.2303C64.638 13.5544 64.4964 12.9247 64.3419 12.2358C64.0097 12.2589 63.5938 12.2589 63.2385 12.2589H62.7879C62.5149 12.2589 62.2058 12.2589 61.9444 12.295C61.9329 12.3658 61.5761 13.3392 61.3508 13.9097L61.1847 14.3487C61.114 14.5033 60.5435 14.7878 60.2359 14.5856C60.1651 14.4787 59.999 14.3964 60.1405 13.9689L60.1506 13.9573ZM63.1417 9.19706C62.9525 9.73144 62.6319 10.6457 62.3344 11.3577C62.5958 11.3808 62.9756 11.3938 63.3309 11.3938C63.6039 11.3938 63.8537 11.3822 64.0675 11.3707C64.0559 11.1338 63.497 9.38915 63.3078 8.87788C63.2847 8.87788 63.2486 8.90099 63.237 8.94865V8.93709L63.1417 9.19706Z" fill="#2F52A0"/>
<path d="M69.908 8.37817C69.8849 8.12831 70.1449 7.89145 70.324 7.89145C70.7399 7.89145 70.9768 7.86835 71.2266 7.86835H72.0701C72.3676 7.8799 72.6521 7.89145 72.9251 7.87989C73.3049 7.86834 73.1273 8.83022 72.902 8.83022C72.6406 8.83022 72.3922 8.83022 72.1654 8.81866C71.9401 8.80711 71.7263 8.80712 71.5126 8.80712C71.3465 8.80712 71.192 8.80711 71.0259 8.83022C71.0259 9.00786 71.0259 9.17395 71.0374 9.35304C71.049 9.66211 71.0605 10.0058 71.0374 10.2557C71.0374 10.3034 71.0605 10.338 71.1082 10.338H71.1559C71.2627 10.338 71.4404 10.3265 71.6195 10.3265C71.8332 10.3265 72.0701 10.338 72.2131 10.3972C72.5337 10.5157 72.343 11.0139 72.2362 11.0862C72.0455 11.2291 71.5834 11.2291 71.2858 11.2161C71.2266 11.2161 71.1429 11.2046 71.0966 11.2046C71.0735 11.2046 71.0605 11.2046 71.0605 11.2638C71.0244 11.4068 71.0244 11.6205 71.0244 11.8805C71.0244 12.165 71.0244 12.4856 71.036 12.8063C71.036 13.0561 71.0475 13.3045 71.0475 13.5183C71.0475 13.8505 71.036 14.1234 70.9883 14.2419C70.8583 14.3718 70.0149 14.3603 69.9672 14.2058C69.8835 13.9212 69.8719 13.2208 69.8719 12.4134C69.8719 11.9744 69.8719 11.4877 69.8719 11.0009C69.895 9.90909 69.9196 8.55581 69.908 8.37817Z" fill="#2F52A0"/>
<path d="M75.0942 13.7436C75.0827 13.9805 74.6552 14.5509 74.2753 14.408C73.9908 14.2895 73.9792 14.1466 73.9662 13.8505C73.9662 13.0085 73.9662 12.4149 73.9778 11.453C73.9662 11.2869 73.9662 10.6226 73.9662 10.2182C73.9662 9.47004 73.9778 8.53271 74.0024 8.10521C74.0861 7.78458 74.1453 7.6416 74.5252 7.63005C74.8212 7.59394 75.0234 7.83225 75.0957 8.16443C75.1318 8.42584 75.1433 9.22018 75.1433 9.92065C75.1433 10.3366 75.1549 10.728 75.1664 10.9302L75.0942 13.7436Z" fill="#2F52A0"/>
<path d="M76.6383 7.77302C77.1958 7.89145 77.8601 9.32849 78.1692 10.0044C78.5851 10.8349 79.1181 11.8675 79.5456 12.5087C79.5687 11.583 79.6048 10.8117 79.5932 10.2774C79.5817 9.93364 79.5456 9.58846 79.534 9.24472C79.4979 8.67424 79.4748 8.1052 79.4979 7.97522C79.5571 7.6907 79.7478 7.57227 79.937 7.57227C80.1984 7.57227 80.5074 7.80913 80.5421 8.12976C80.5782 8.62803 80.5898 9.11474 80.5898 9.56679C80.5898 9.76899 80.5782 9.96974 80.5782 11.0385C80.5898 11.8935 80.5306 13.6613 80.3414 14.1003C80.2821 14.3141 80.0207 14.4094 79.7593 14.4094C79.5817 14.4094 79.3679 14.3386 79.2611 14.2202C78.7512 13.5082 78.5129 12.7601 78.1215 12.0711C78.0262 11.8935 77.8962 11.6321 77.8009 11.4299C77.3503 10.5749 77.2434 10.195 76.8867 9.73288C76.8867 10.7655 76.9098 11.2522 76.9098 11.739C76.9098 12.321 76.9459 12.7355 76.9459 13.1399C76.9459 13.5674 76.9098 13.9227 76.7914 14.0902C76.6484 14.2794 76.4115 14.3863 76.2209 14.3863C75.984 14.3863 75.7934 14.2563 75.7934 14.018C75.8049 11.6552 75.7703 11.2291 75.7703 10.7886C75.7703 10.3857 75.8064 9.93364 75.7703 9.51913C75.7472 9.30538 75.7472 9.04397 75.7472 8.03588C75.7833 7.53472 76.3523 7.77302 76.6383 7.77302Z" fill="#2F52A0"/>
<path d="M85.7413 13.9212V13.9097C85.2662 14.3256 84.5065 14.4787 83.9129 14.4441C82.4051 14.2895 81.3017 12.8294 81.3017 11.4053C81.2786 10.9778 81.3724 10.4088 81.4678 10.016C81.8115 8.85333 82.7257 7.78458 83.9721 7.78458C84.8618 7.76147 85.8005 8.22363 86.0258 9.13785C86.1212 9.52924 85.5983 9.99286 85.2185 9.56535L85.0524 9.3516C84.8387 9.07863 84.6249 8.79412 84.1266 8.75801C83.3785 8.69879 82.7373 9.87442 82.5827 10.4666C82.5351 10.6919 82.512 10.9648 82.512 11.2031C82.512 12.1997 82.9871 13.3392 84.1859 13.5299C84.648 13.5183 85.0409 13.2323 85.3138 12.9247L85.4799 12.7586C85.5983 12.6517 85.9782 12.5925 86.1558 12.7702C86.3349 12.9724 86.0981 13.6252 85.7413 13.9212Z" fill="#2F52A0"/>
<path d="M86.8463 13.9573C88.188 10.325 89.1614 8.16442 89.2798 7.92756C89.3636 7.76147 89.5528 7.6777 89.7897 7.6777C90.1334 7.6777 90.597 7.84379 90.6923 8.00988C91.0361 8.62658 91.4881 10.0044 91.7611 11.0371C92.0225 12.022 92.2709 13.0186 92.6045 13.8505C92.6161 13.9097 92.6161 14.2072 92.5208 14.3372C92.3908 14.4441 92.2362 14.4802 92.0933 14.4802C91.8564 14.4802 91.6181 14.3617 91.5834 14.2303C91.3336 13.5544 91.192 12.9247 91.0375 12.2358C90.7053 12.2589 90.2894 12.2589 89.9341 12.2589H89.4835C89.2105 12.2589 88.9014 12.2589 88.64 12.295C88.6285 12.3658 88.2717 13.3392 88.0464 13.9097L87.8803 14.3487C87.8096 14.5033 87.2391 14.7878 86.9315 14.5856C86.8607 14.4787 86.6946 14.3964 86.8361 13.9689L86.8463 13.9573ZM89.8373 9.19706C89.6481 9.73144 89.3275 10.6457 89.03 11.3577C89.2914 11.3808 89.6712 11.3938 90.0265 11.3938C90.2995 11.3938 90.5493 11.3822 90.7631 11.3707C90.7515 11.1338 90.1926 9.38915 90.0034 8.87788C89.9803 8.87788 89.9442 8.90099 89.9326 8.94865V8.93709L89.8373 9.19706Z" fill="#2F52A0"/>
<path d="M96.6138 11.0601C96.6138 10.7756 96.6022 9.55234 96.5906 9.25627C96.5791 8.96019 96.5675 8.63957 96.5675 8.25972C96.5675 8.21206 96.6744 7.70224 97.0774 7.70224C97.268 7.69069 97.6117 7.67914 97.8847 7.67914C98.3238 7.67914 98.8336 7.70224 99.1311 7.78601C100.639 8.18896 101.326 9.72132 101.303 11.1685C101.292 12.8424 100.757 14.1249 99.3564 14.444C98.965 14.5394 98.253 14.6463 97.6955 14.6463C97.1019 14.6463 96.6267 14.5163 96.6267 14.1595C96.6022 10.7049 96.6138 11.3577 96.6138 11.0601ZM97.7778 8.72189V10.7049C97.7663 11.0963 97.7663 11.4645 97.7663 11.8328V13.6136C97.7778 13.5905 97.8731 13.6021 98.0031 13.6021C98.5852 13.6021 99.6178 13.3883 99.7839 13.1269C100.175 12.5578 100.187 11.8574 100.2 11.4053C100.2 11.3461 100.211 11.2869 100.211 11.2277C100.235 10.5518 100.081 9.54223 99.5225 9.13928C99.1542 8.81866 98.4783 8.72334 98.0508 8.72334C98.0277 8.72189 97.8963 8.73344 97.7778 8.72189Z" fill="#2F52A0"/>
<path d="M102.05 8.56735C102.062 8.30594 102.239 7.77156 102.655 7.77156C103.699 7.77156 104.364 7.68924 105.029 7.68924C105.255 7.68924 105.457 7.70079 105.646 7.72535C105.765 7.74845 105.896 7.79612 105.978 7.903C106.168 8.15285 105.895 8.57891 105.551 8.67423C105.337 8.71033 104.827 8.71033 104.293 8.71033C103.829 8.71033 103.379 8.71033 103.106 8.74644C103.129 9.04396 103.129 9.2216 103.129 9.4238C103.129 10.1127 103.14 9.99284 103.129 10.2904C103.402 10.2672 103.568 10.2542 103.912 10.2542C104.244 10.2542 104.541 10.2658 104.694 10.2904C105.003 10.338 105.038 10.9547 104.837 11.1454C104.683 11.3115 103.757 11.3114 103.14 11.3114C103.152 11.5252 103.152 11.739 103.152 11.9281C103.152 12.3557 103.14 12.6517 103.129 13.02V13.3522C103.236 13.3638 103.438 13.3637 103.604 13.3637C104.079 13.3637 104.684 13.3406 105.005 13.3276C105.456 13.3276 105.978 13.1977 106.274 13.5775V13.6136C106.417 13.8505 106.607 14.1956 106.179 14.3141L106.191 14.3025C105.954 14.3863 105.74 14.3978 105.526 14.4094C105.158 14.4094 104.803 14.4325 104.434 14.457C104.007 14.4686 103.545 14.5047 103.165 14.5047C102.667 14.5047 102.275 14.4455 102.155 14.2549C102.014 14.0527 102.001 13.5544 102.001 12.9969C102.001 12.0711 102.012 11.2753 102.012 10.481C102.015 9.74298 102.038 8.72189 102.05 8.56735Z" fill="#2F52A0"/>
<path d="M60.3485 16.9672C61.7625 16.9672 62.9034 17.1275 64.0213 17.1275C64.638 17.2185 65.0929 17.3326 65.0929 17.88C65.0929 18.4736 64.8416 18.8375 64.157 18.8375C63.3584 18.8375 61.7162 18.7696 61.488 18.7696C61.4418 18.7696 61.4202 18.7927 61.4202 18.8375C61.4664 19.3401 61.4664 19.8875 61.4664 20.4117C61.4664 21.6206 61.3985 22.8988 61.3985 24.1755C61.3985 25.0652 61.5357 25.5447 61.5357 27.1868C61.5357 28.3277 61.3754 29.5597 60.8049 29.8558C60.6446 29.9468 60.1434 30.0378 60.0062 30.0378C59.5498 30.0378 59.3217 29.2391 59.3217 28.4404C59.3217 27.3688 59.2985 26.456 59.2985 25.5432C59.2985 24.8586 59.3664 24.0369 59.3664 22.646C59.3664 21.3231 59.3202 20.4782 59.3202 19.6116C59.3202 19.5654 59.2971 18.8361 59.3202 18.813C59.1599 18.7899 59.0458 18.7898 58.8869 18.7898C58.2717 18.7898 57.5871 18.8808 56.9473 18.8808C56.6729 18.8808 56.3999 18.8808 56.2396 18.8346H56.2627C55.7832 18.7205 55.555 18.4014 55.555 18.0591C55.5579 16.7852 58.5692 16.9672 60.3485 16.9672Z" fill="#2F52A0"/>
<path d="M69.9991 27.0063C67.125 26.8012 65.6418 24.3604 65.6187 22.3976C65.5724 20.2081 67.0557 17.2416 70.4555 17.3788C73.2386 17.4929 74.6987 19.9106 74.7449 21.7593C74.7897 24.7474 72.8515 26.9832 69.9991 27.0063ZM70.7978 27.7356C71.5271 27.7356 72.4168 27.8035 73.0335 27.8035C73.5578 27.8497 74.1976 27.9176 74.3333 28.283C75.0179 29.811 73.5578 29.7663 72.6219 29.7431C72.0976 29.72 71.5271 29.72 70.0901 29.72C69.3824 29.6969 68.6978 29.6522 68.0364 29.6522C67.1698 29.5612 66.1429 29.4009 65.9378 28.5343C65.7328 27.5984 66.5531 27.5536 67.7172 27.5536L70.7978 27.7356ZM70.1363 19.4095C68.6314 19.4773 67.7186 20.7555 67.6262 22.2835C67.5352 23.5155 68.5621 25.0218 70.0901 25.0218C71.8232 25.0218 72.8501 23.3104 72.7822 21.8965C72.7143 20.7772 71.8478 19.3863 70.1363 19.4095Z" fill="#2F52A0"/>
<path d="M76.046 23.5386C76.046 22.9912 76.0229 20.6414 75.9998 20.0709C75.9767 19.5004 75.9536 18.8852 75.9536 18.1544C75.9536 18.0634 76.1587 17.0827 76.9343 17.0827C77.2997 17.0596 77.9611 17.0365 78.4854 17.0365C79.3303 17.0365 80.3109 17.0827 80.8814 17.2416C83.7786 18.0172 85.1016 20.9606 85.0568 23.7437C85.0337 26.96 84.0068 29.4239 81.3147 30.0406C80.5622 30.2226 79.1931 30.4277 78.1214 30.4277C76.9805 30.4277 76.0677 30.1764 76.0677 29.4918C76.0229 22.854 76.046 24.1076 76.046 23.5386ZM78.2818 19.044V22.854C78.2587 23.6065 78.2586 24.3141 78.2586 25.0218V28.4433C78.2818 28.3971 78.4637 28.4202 78.715 28.4202C79.8329 28.4202 81.8173 28.01 82.1365 27.5074C82.889 26.4127 82.9121 25.0666 82.9352 24.2001C82.9352 24.086 82.9583 23.9719 82.9583 23.8578C83.0045 22.5579 82.707 20.6183 81.6353 19.8427C80.9276 19.226 79.6278 19.044 78.806 19.044C78.7598 19.044 78.51 19.0671 78.2818 19.044Z" fill="#2F52A0"/>
<path d="M90.6692 27.0063C87.7952 26.8012 86.3119 24.3604 86.2888 22.3976C86.2426 20.2081 87.7258 17.2416 91.1256 17.3788C93.9087 17.4929 95.3689 19.9106 95.4151 21.7593C95.4599 24.7474 93.5202 26.9832 90.6692 27.0063ZM91.4679 27.7356C92.1973 27.7356 93.0869 27.8035 93.7036 27.8035C94.2279 27.8497 94.8677 27.9176 95.0035 28.283C95.688 29.811 94.2279 29.7663 93.292 29.7431C92.7677 29.72 92.1973 29.72 90.7602 29.72C90.0525 29.6969 89.368 29.6522 88.7065 29.6522C87.8399 29.5612 86.8131 29.4009 86.608 28.5343C86.4029 27.5984 87.2232 27.5536 88.3873 27.5536L91.4679 27.7356ZM90.8064 19.4095C89.3015 19.4773 88.3887 20.7555 88.2963 22.2835C88.2053 23.5155 89.2322 25.0218 90.7602 25.0218C92.4933 25.0218 93.5202 23.3104 93.4523 21.8965C93.3844 20.7772 92.5164 19.3863 90.8064 19.4095Z" fill="#2F52A0"/>
<path d="M106.456 25.8653C106.456 26.9153 105.955 27.919 105.201 28.7394C103.923 29.7431 103.376 29.9035 101.825 30.0392C100.479 30.1071 98.0378 29.8572 96.92 27.8714C96.6008 27.2778 96.5098 26.6625 96.9878 26.2524C97.6262 25.6819 98.3108 26.1383 98.7672 26.9601C99.1542 27.6909 100.181 28.0317 100.866 28.2382C101.048 28.2844 101.322 28.3061 101.641 28.3061C102.691 28.3061 104.151 27.919 104.401 26.5499C104.676 25.0218 102.736 24.3142 100.752 23.6527C98.6978 22.9233 96.6224 22.1926 96.6224 20.3901C96.6224 18.5646 98.5837 16.7405 100.889 16.8083C101.869 16.8314 103.306 16.9224 104.196 17.4467C105.04 17.971 105.428 18.5183 105.815 19.408C106.043 19.9323 105.906 20.4797 105.268 20.64C104.925 20.64 104.104 20.2977 103.831 19.7272C103.397 18.8606 102.119 18.6324 101.162 18.6556C100.591 18.6787 98.9939 19.2029 98.8119 20.1836C98.835 20.6862 99.6337 21.2552 100.021 21.4617C100.317 21.5758 100.796 21.7809 101.39 22.0091C103.192 22.6475 105.815 23.6065 106.227 24.6781C106.387 25.0666 106.456 25.4768 106.456 25.8653Z" fill="#2F52A0"/>
<path d="M40.198 22.4872C41.9417 22.4872 43.3552 21.0736 43.3552 19.33C43.3552 17.5863 41.9417 16.1728 40.198 16.1728C38.4544 16.1728 37.0409 17.5863 37.0409 19.33C37.0409 21.0736 38.4544 22.4872 40.198 22.4872Z" fill="#E60064"/>
<path d="M33.5907 27.8613L33.7163 19.3343C33.7091 19.0079 34.1785 18.9285 34.3056 19.2347C34.3056 19.2347 36.4994 22.1824 37.106 23.6556C37.2216 23.9372 37.4526 24.1538 37.7415 24.2463L39.349 24.7575C39.619 24.8442 39.9122 24.8139 40.1592 24.6738C41.498 23.9155 45.9998 22.077 45.9998 22.077C46.2886 21.8892 46.6353 22.2503 46.4172 22.5103L40.1317 29.9973L35.7426 37.8223C35.5867 38.0534 35.2112 37.9321 35.2198 37.6533L36.3276 30.7844C36.3073 30.7743 36.3088 30.7743 36.2886 30.7642L35.0133 31.9933C34.7577 32.2403 34.3908 32.3327 34.0485 32.2388C33.5849 32.1103 33.2773 31.6698 33.3163 31.1903L33.5907 27.8613Z" fill="#E60064"/>
<path d="M33.5357 34.2001C33.9026 34.2001 34.2 33.9027 34.2 33.5357C34.2 33.1688 33.9026 32.8714 33.5357 32.8714C33.1688 32.8714 32.8713 33.1688 32.8713 33.5357C32.8713 33.9027 33.1688 34.2001 33.5357 34.2001Z" fill="#E60064"/>
<path d="M32.7731 36.9225C33.2596 36.9225 33.6541 36.5281 33.6541 36.0415C33.6541 35.555 33.2596 35.1605 32.7731 35.1605C32.2865 35.1605 31.8921 35.555 31.8921 36.0415C31.8921 36.5281 32.2865 36.9225 32.7731 36.9225Z" fill="#E60064"/>
<path d="M16.5106 19.3358C16.5106 19.3358 14.6158 23.5906 14.1912 25.0594C14.1016 25.3685 13.8821 25.6226 13.5831 25.7584L12.2631 26.3563C11.9771 26.4849 11.6536 26.495 11.3604 26.3823C9.9407 25.8364 5.60359 24.7171 5.60359 24.7171C5.30896 24.5799 5.02588 24.9511 5.26274 25.1634L12.0854 31.2712L17.1635 37.9133C17.3382 38.1068 17.6776 37.9509 17.6357 37.6967L15.764 31.5398C15.7827 31.5297 15.7798 31.5311 15.7986 31.5196L20.0303 36.017C20.2412 36.2307 20.6051 36.0184 20.5112 35.7368L17.9953 28.5458L17.0782 19.356C17.045 19.0585 16.5944 19.0411 16.5106 19.3358ZM16.7952 26.5715C16.837 26.6611 16.863 26.7535 16.8717 26.8459C16.8833 26.9673 16.8659 27.0886 16.824 27.2012L16.2435 29.0557C16.2391 29.0658 16.2319 29.0744 16.2218 29.0788C16.2117 29.0831 16.2016 29.0845 16.19 29.0802C16.19 29.0802 14.2489 28.5632 13.8532 27.9046C13.6178 27.5132 13.8402 27.0005 14.2648 26.8084C14.5768 26.6668 14.9321 26.7261 15.1761 26.9297C15.1733 26.6163 15.3552 26.3144 15.6672 26.1729C16.0918 25.9794 16.5987 26.1585 16.7952 26.5715Z" fill="#FBBA00"/>
<path d="M13.8778 20.65C13.2914 19.005 11.4847 18.1428 9.84253 18.722C9.53202 18.8317 9.25039 18.9848 9.00053 19.1726C7.71225 18.2656 6.06001 17.4568 5.45631 18.722C4.41067 20.9114 1.7229 23.4187 1.7229 23.4187C1.7229 23.4187 3.75498 24.4976 5.87082 21.6682C6.61606 20.6717 7.43206 20.2399 8.17875 20.0969C7.72525 20.8725 7.60537 21.8343 7.93178 22.7485C8.51815 24.3936 10.3249 25.2558 11.967 24.6766C13.6092 24.0975 14.4642 22.295 13.8778 20.65Z" fill="#FBBA00"/>
<path d="M25.7194 18.2988C25.2269 18.2988 24.7474 18.358 24.2896 18.4692L24.1798 18.3205L24.1928 16.7058C24.2318 16.7072 24.2708 16.7116 24.3098 16.7116C26.0545 16.7116 27.467 15.2976 27.467 13.5544C27.467 11.8097 26.053 10.3972 24.3098 10.3972C22.5651 10.3972 21.1527 11.8112 21.1527 13.5544C21.1527 14.7286 21.7939 15.7497 22.7442 16.2942C21.882 17.2748 20.9534 18.4519 20.9346 18.9935C20.9274 19.1914 21.2003 19.4961 21.6423 19.8572C20.3915 20.9779 19.603 22.6041 19.603 24.4167C19.603 27.7963 22.3427 30.5346 25.7209 30.5346C29.099 30.5346 31.8387 27.7948 31.8387 24.4167C31.8373 21.0386 29.0975 18.2988 25.7194 18.2988ZM25.7194 27.7703C23.8679 27.7703 22.3658 26.2682 22.3658 24.4167C22.3658 23.166 23.0519 22.077 24.0672 21.5007C25.1634 22.168 26.3246 22.8179 27.1507 23.2699C27.4222 23.4187 27.7038 23.0938 27.5204 22.8453L26.2379 21.1079C27.8425 21.3577 29.073 22.7414 29.073 24.4167C29.0715 26.2682 27.571 27.7703 25.7194 27.7703Z" fill="#2F52A0"/>
<path d="M16.2609 11.7534C16.661 11.427 17.0827 11.1064 17.5795 10.9114C17.7023 10.8609 17.8207 10.8031 17.9449 10.7612L18.3335 10.6774C18.592 10.624 18.8476 10.5547 19.1119 10.5879C19.6087 10.559 20.0796 10.6529 20.5215 10.8132C20.6125 9.17541 19.9409 7.86691 19.9409 7.86691C16.2248 8.8519 15.0954 11.6552 14.7863 13.7739C15.146 13.0359 15.6182 12.334 16.2609 11.7534Z" fill="#52AE32"/>
<path d="M19.1899 11.427C18.3566 11.5917 17.6128 11.9787 16.9816 12.555C16.3317 13.1125 15.8132 13.8519 15.3193 14.6131C15.0998 14.9626 14.7416 16.3606 14.7416 16.3606C18.8375 15.2196 20.1677 13.1645 20.4608 11.3606C20.0247 11.3259 19.6015 11.3288 19.1899 11.427Z" fill="#52AE32"/>
<path d="M43.0303 33.0765C42.623 33.517 42.2215 33.9806 41.9601 34.5439C41.8937 34.6825 41.8171 34.8154 41.7593 34.9555L41.6337 35.4003C41.5543 35.6964 41.4546 35.9867 41.4734 36.2957C41.4041 36.8691 41.4792 37.4208 41.6322 37.9436C39.7287 37.9306 38.2628 37.0583 38.2628 37.0583C39.6724 32.8266 43 31.7218 45.4769 31.5152C44.5944 31.8792 43.7481 32.376 43.0303 33.0765Z" fill="#52AE32"/>
<path d="M42.4398 36.4459C42.6911 35.4942 43.1922 34.6594 43.9057 33.9705C44.5975 33.2585 45.4915 32.7111 46.41 32.194C46.8318 31.9659 48.4753 31.651 48.4753 31.651C46.8578 36.3116 44.3808 37.7039 42.2708 37.9119C42.2621 37.4049 42.2953 36.9139 42.4398 36.4459Z" fill="#52AE32"/>
<path d="M6.04568 28.6657C5.4492 28.605 4.83683 28.5617 4.23024 28.6917C4.08004 28.7206 3.92839 28.7408 3.77963 28.7798L3.34924 28.9473C3.06472 29.0614 2.77154 29.1567 2.53757 29.356C2.03785 29.6449 1.64212 30.0363 1.31572 30.4739C0.183421 28.9444 0 27.2474 0 27.2474C4.23024 25.8321 7.11154 27.828 8.76522 29.6853C7.94343 29.1986 7.03788 28.8188 6.04568 28.6657Z" fill="#52AE32"/>
<path d="M2.99819 30.2183C3.91097 29.8471 4.87862 29.7474 5.85783 29.9034C6.84281 30.0291 7.81769 30.4147 8.78246 30.8393C9.21862 31.0386 10.4578 32.1651 10.4578 32.1651C5.75962 33.6715 3.15995 32.5276 1.7258 30.9664C2.12442 30.6516 2.53747 30.3844 2.99819 30.2183Z" fill="#52AE32"/>
<path d="M49.9514 27.7081C49.6712 27.4178 49.3751 27.1275 49.0069 26.9297C48.9173 26.8791 48.8307 26.8228 48.7368 26.7795L48.4422 26.6784C48.2457 26.6134 48.0551 26.534 47.8471 26.5354C47.4644 26.4661 47.0903 26.495 46.7321 26.5773C46.8159 25.2977 47.4601 24.3459 47.4601 24.3459C50.2504 25.4609 50.8613 27.7428 50.9017 29.4167C50.6952 28.8072 50.3948 28.218 49.9514 27.7081Z" fill="#52AE32"/>
<path d="M47.7099 27.1767C48.341 27.3832 48.8812 27.7529 49.3174 28.2613C49.7694 28.7552 50.1016 29.3777 50.4121 30.0161C50.5493 30.3092 50.6952 31.4271 50.6952 31.4271C47.6247 30.1562 46.787 28.4346 46.7292 27.0077C47.0715 27.0207 47.4008 27.0626 47.7099 27.1767Z" fill="#52AE32"/>
<path d="M3.36224 34.7215C3.07194 35.0017 2.78165 35.2978 2.58378 35.666C2.53323 35.7556 2.47691 35.8422 2.43213 35.9361L2.33104 36.2307C2.26604 36.4272 2.18661 36.6178 2.18805 36.8258C2.11873 37.2085 2.14762 37.5826 2.22994 37.9408C0.951768 37.8555 0 37.2099 0 37.2099C1.11497 34.4196 3.3969 33.8087 5.0708 33.7683C4.46277 33.9777 3.87351 34.2781 3.36224 34.7215Z" fill="#52AE32"/>
<path d="M2.83213 36.963C3.03865 36.3318 3.40839 35.7917 3.91677 35.3555C4.4107 34.9035 5.03318 34.5713 5.67154 34.2607C5.96328 34.1235 7.08258 33.9777 7.08258 33.9777C5.81164 37.0482 4.09008 37.8858 2.66315 37.9436C2.6747 37.6013 2.71658 37.2735 2.83213 36.963Z" fill="#52AE32"/>
<path d="M9.30688 16.7072C9.58128 16.648 9.86003 16.5772 10.1113 16.4314C10.1734 16.3967 10.2384 16.3649 10.2991 16.3274L10.4666 16.1902C10.5764 16.0977 10.6934 16.0125 10.7685 15.8898C10.949 15.689 11.0674 15.4565 11.1498 15.2153C11.8762 15.7309 12.2055 16.4588 12.2055 16.4588C10.5302 17.7037 8.95736 17.2358 7.95071 16.6509C8.38544 16.7462 8.84327 16.7838 9.30688 16.7072Z" fill="#52AE32"/>
<path d="M10.4376 15.5735C10.0852 15.871 9.66927 16.0573 9.21144 16.1295C8.75505 16.2176 8.26545 16.1873 7.7744 16.1396C7.55199 16.1136 6.83563 15.793 6.83563 15.793C8.70595 14.4383 10.0289 14.5697 10.8954 15.055C10.7626 15.2528 10.6182 15.4319 10.4376 15.5735Z" fill="#52AE32"/>
<path d="M23.7105 34.2868C23.7177 34.6435 23.7134 35.0089 23.6065 35.3627C23.582 35.4508 23.5632 35.5404 23.5329 35.6256L23.413 35.8726C23.3321 36.0358 23.2613 36.2047 23.1299 36.3347C22.9335 36.6178 22.6822 36.833 22.4063 37.0049C23.2585 37.7515 24.255 37.9436 24.255 37.9436C25.3021 35.5028 24.2579 33.6946 23.2368 32.623C23.4866 33.1342 23.6672 33.6903 23.7105 34.2868Z" fill="#52AE32"/>
<path d="M22.6403 36.0199C22.9046 35.497 23.0114 34.9266 22.9667 34.3373C22.9407 33.7466 22.7587 33.1501 22.555 32.5565C22.4583 32.2879 21.8502 31.4979 21.8502 31.4979C20.7266 34.2116 21.2783 35.8104 22.1348 36.7391C22.3398 36.5167 22.5189 36.2842 22.6403 36.0199Z" fill="#52AE32"/>
<path d="M30.2429 34.7706C29.798 35.0219 29.3359 35.2645 28.8174 35.3714C28.6903 35.4003 28.5646 35.4364 28.4361 35.4566L28.0433 35.4739C27.7818 35.4826 27.5219 35.5086 27.2706 35.432C26.7824 35.3772 26.339 35.2082 25.9361 34.9786C25.575 36.5586 26.0112 37.9436 26.0112 37.9436C29.7937 37.6013 31.3593 35.0594 32.0135 33.0461C31.5398 33.7076 30.9635 34.3128 30.2429 34.7706Z" fill="#52AE32"/>
<path d="M27.3342 34.603C28.1734 34.5799 28.9619 34.3272 29.6725 33.8708C30.399 33.4361 31.0258 32.8021 31.6338 32.142C31.9053 31.8373 32.4859 30.536 32.4859 30.536C28.3077 30.9664 26.6699 32.7486 26.085 34.4557C26.5052 34.5626 26.9183 34.6305 27.3342 34.603Z" fill="#52AE32"/>
<path d="M44.034 29.8702C44.5844 29.8702 45.0306 29.4241 45.0306 28.8737C45.0306 28.3233 44.5844 27.8771 44.034 27.8771C43.4836 27.8771 43.0375 28.3233 43.0375 28.8737C43.0375 29.4241 43.4836 29.8702 44.034 29.8702Z" fill="#F39200"/>
<path d="M45.913 20.0897C46.4633 20.0897 46.9095 19.6435 46.9095 19.0931C46.9095 18.5428 46.4633 18.0966 45.913 18.0966C45.3626 18.0966 44.9164 18.5428 44.9164 19.0931C44.9164 19.6435 45.3626 20.0897 45.913 20.0897Z" fill="#F39200"/>
<path d="M25.4521 9.39927C26.0025 9.39927 26.4486 8.9531 26.4486 8.40272C26.4486 7.85235 26.0025 7.40619 25.4521 7.40619C24.9017 7.40619 24.4556 7.85235 24.4556 8.40272C24.4556 8.9531 24.9017 9.39927 25.4521 9.39927Z" fill="#F39200"/>
<path d="M10.689 36.0776C11.2394 36.0776 11.6856 35.6315 11.6856 35.0811C11.6856 34.5307 11.2394 34.0845 10.689 34.0845C10.1386 34.0845 9.69247 34.5307 9.69247 35.0811C9.69247 35.6315 10.1386 36.0776 10.689 36.0776Z" fill="#F39200"/>
<path d="M14.7863 19.4369C15.3366 19.4369 15.7828 18.9907 15.7828 18.4403C15.7828 17.89 15.3366 17.4438 14.7863 17.4438C14.2359 17.4438 13.7897 17.89 13.7897 18.4403C13.7897 18.9907 14.2359 19.4369 14.7863 19.4369Z" fill="#F39200"/>
<path d="M32.5552 10.5576C32.2475 9.61157 31.7175 8.81867 31.6034 7.79758C31.095 8.13553 30.7455 8.41428 30.7859 9.08586C30.1808 8.73058 29.697 9.64479 29.9613 10.1257C29.0644 10.416 28.543 11.2508 29.3243 11.9859C28.8275 12.4712 29.203 13.0316 29.7027 13.332C29.359 13.4894 29.0687 13.7321 28.9012 14.1234C28.5849 14.8615 29.1424 15.2702 29.8356 15.3713C31.1354 15.5605 32.4801 13.332 32.4801 13.3291C32.4916 13.3161 32.5032 13.3045 32.5133 13.2887C32.9841 12.5969 32.7906 11.2811 32.5552 10.5576Z" fill="#00A8A8"/>
<path d="M35.822 12.5839C36.8388 12.4409 37.8151 12.5752 38.8145 12.2199C38.7307 12.8438 38.6296 13.2944 37.9884 13.5616C38.5906 13.9631 37.9609 14.8239 37.3962 14.7979C37.532 15.7612 36.9933 16.6235 35.9578 16.2306C35.731 16.9109 35.0421 16.8156 34.5366 16.4877C34.5453 16.8777 34.4514 17.2561 34.164 17.5897C33.6209 18.2165 32.9898 17.8843 32.584 17.2878C31.82 16.1671 33.2815 13.9126 33.283 13.9112C33.2902 13.8953 33.296 13.8794 33.3061 13.862C33.7365 13.1067 35.045 12.6922 35.822 12.5839Z" fill="#00A8A8"/>
<path d="M35.7253 11.4487C35.4913 11.4616 35.2588 11.5093 35.0363 11.5873C34.8168 11.6754 34.606 11.7751 34.3879 11.866C34.1727 11.9614 33.9661 12.0856 33.7914 12.2502C33.7163 12.3195 33.6499 12.399 33.5906 12.4842C33.569 12.4683 33.5459 12.4553 33.5199 12.4437C33.5617 12.3571 33.5979 12.2661 33.621 12.1722C33.6816 11.9426 33.6917 11.7043 33.6701 11.4718C33.6441 11.2407 33.6296 11.0096 33.6007 10.7785C33.5603 10.5489 33.4895 10.3265 33.387 10.1185C33.387 10.117 33.3841 10.1156 33.3827 10.1156C33.3798 10.1156 33.3783 10.1185 33.3798 10.1214C33.4274 10.3481 33.4794 10.5705 33.5314 10.793C33.595 11.0125 33.6369 11.2421 33.6239 11.4732C33.6137 11.7028 33.5877 11.931 33.5358 12.152C33.5141 12.243 33.4852 12.3325 33.452 12.4206C33.2585 12.3759 33.0548 12.4813 32.9855 12.6734C32.9321 12.8236 32.9739 12.981 33.0808 13.0836C32.8974 13.2005 32.5681 13.4461 32.3298 13.8216C31.9861 14.3646 31.9716 14.9683 31.9716 14.9683C31.9716 14.9683 32.5147 14.691 32.8598 14.1494C33.0953 13.7782 33.1761 13.3796 33.2036 13.1644C33.2108 13.1673 33.2166 13.1702 33.2223 13.1731C33.426 13.2424 33.6527 13.1327 33.725 12.9276C33.7769 12.7846 33.738 12.6344 33.6426 12.5318C33.7076 12.4553 33.7769 12.3831 33.8506 12.3167C34.021 12.1636 34.2102 12.0307 34.4081 11.9108C34.606 11.7866 34.8298 11.7115 35.0566 11.6581C35.279 11.5931 35.5014 11.531 35.7267 11.4602C35.7281 11.4588 35.7296 11.4573 35.7296 11.4559C35.7296 11.4501 35.7281 11.4487 35.7253 11.4487Z" fill="#00A8A8"/>
<path d="M50.9044 15.1907C50.9044 15.8551 50.1852 16.271 49.6089 15.9389L25.4522 1.99452L1.2955 15.9389C0.719242 16.271 0 15.8551 0 15.1907C0 14.8817 0.164646 14.5971 0.431834 14.4426L25.4522 0L50.4726 14.4426C50.7398 14.5971 50.9044 14.8817 50.9044 15.1907Z" fill="#2F52A0"/>
</svg>
